<svg fill="none" xmlns="http://www.w3.org/2000/svg" viewBox="0 0 256 256">
  <path fill="#48A23F" d="M0 0h256v256H0z"/>
  <path d="M123.656 117.578h67.969v88.828c-11.016 3.594-21.406 6.094-31.172 7.5-9.687 1.485-19.609 2.227-29.765 2.227-25.86 0-45.625-7.578-59.297-22.735C57.797 178.164 51 156.328 51 127.891c0-27.657 7.89-49.22 23.672-64.688C90.532 47.734 112.484 40 140.53 40c17.578 0 34.531 3.516 50.86 10.547l-12.07 29.062c-12.5-6.25-25.508-9.375-39.023-9.375-15.703 0-28.281 5.274-37.735 15.82-9.453 10.548-14.18 24.727-14.18 42.54 0 18.594 3.79 32.812 11.368 42.656 7.656 9.766 18.75 14.648 33.281 14.648 7.578 0 15.274-.781 23.086-2.343v-35.743h-32.461v-30.234z" fill="#fff"/>
</svg>
