<svg xmlns="http://www.w3.org/2000/svg" viewBox="0 0 256 256">
  <path d="M202 129.16c-10.833 12.99-24.655 23.91-40.345 29.747-47.069 17.509-95.632-28.053-140.46-8.284-5.603 2.447-12.7 8.66-14.195 8.284 10.086-11.297 21.853-22.97 34.555-29.183 55.474-27.676 99.367 30.312 160.445-.564z" fill="#005CB9"/>
  <path d="M250 98.735c-8.434 10.22-19.305 18.546-31.487 23.088-36.735 13.626-74.594-21.952-109.455-6.434-4.311 1.892-9.934 6.813-11.058 6.434 7.872-8.894 17.055-17.978 26.989-22.898 43.107-21.385 77.406 23.844 125.011-.19z" fill="#80BC00"/>
</svg>
