<svg xmlns="http://www.w3.org/2000/svg" viewBox="0 0 250 250">
  <path d="M226.361 71.316c9.677 16.565 15.189 35.83 15.189 56.445 0 61.721-49.976 111.908-111.712 111.908-44.219 0-82.436-25.769-100.442-63.071" stroke="#fff" stroke-width="3.999" stroke-miterlimit="10"/>
  <path d="M30.376 162.855l1.225 3.19-14.577 12.148-1.225-3.313 10.412-8.467c.367-.368.857-.736 1.225-.859-.368.123-.98.123-1.47.123l-13.352.245-1.224-3.19 18.986.123zm-2.818-11.166c.98 4.417-1.347 6.748-5.512 7.607-4.164.982-7.227 0-8.207-4.54-.98-4.417 1.348-6.749 5.39-7.73 4.165-.737 7.35.245 8.33 4.663zm-11.146 2.576c.49 1.964 1.715 2.577 4.9 1.841 3.307-.736 4.164-1.841 3.674-3.804-.49-1.963-1.715-2.577-5.022-1.841-3.307.737-4.042 1.841-3.552 3.804zm-6.247-8.098c0 .122 0 .245-.245.245l-3.063.368c-.245 0-.245 0-.245-.245l-.49-3.19c0-.123 0-.246.245-.246l3.063-.368c.122 0 .245 0 .245.123l.49 3.313zm15.066-5.399l-13.106 1.84.49 3.313 13.228-1.84-.612-3.313zm-.245-7.608c.123 2.454-.857 4.417-3.797 4.54l-6.125.368c-.245 0-.735-.122-.98-.245l.123 2.331-2.45.123-.122-1.963-4.288.245-1.225-3.313 5.268-.368-.245-4.54 2.572.613.245 3.804 7.104-.491c.98 0 1.348-.613 1.348-1.472-.123-1.104-.49-1.595-.98-2.209l1.715-1.963c1.102 1.227 1.715 2.699 1.837 4.54zm0-10.307c-.122 2.454-1.225 4.294-4.165 4.172l-6.124-.246c-.245 0-.613-.123-.98-.368l-.123 2.331-2.45-.122.123-1.964-4.287-.122-.98-3.436 5.267.245.123-4.54 2.45.859-.123 3.804 7.104.246c.98 0 1.47-.369 1.47-1.35 0-1.105-.245-1.595-.735-2.332l1.96-1.718c1.103 1.105 1.593 2.577 1.47 4.541zm.98-13.253l-.98.123c.613 1.105.98 2.209.735 3.804-.49 3.313-2.572 4.54-5.267 4.172-3.307-.491-3.797-3.068-3.43-5.767.123-.982.368-2.086.735-3.068l-1.347-.245c-.735 0-1.593.368-1.838 1.963-.122.982-.122 2.086.858 3.19l-1.715 2.086c-1.592-1.472-2.082-3.313-1.715-5.644.612-4.417 3.43-5.031 4.9-4.786l9.431 1.35-.367 2.822zm-6.002-.368c-.245.614-.49 1.473-.612 2.332-.245 1.35 0 2.699 1.592 2.945 1.47.245 2.205-.614 2.45-1.718.122-.982-.123-2.086-.613-3.068l-2.817-.491zM12.492 97.82l-.735 3.191c0 .245 0 .245-.245.123l-3.062-.737c-.245 0-.245-.122-.245-.245l.735-3.19c0-.246.122-.246.367-.123l2.94.736c.245.123.245.123.245.246zm20.088 9.081l-.367 1.718-2.817-.614.49-1.963c.122-.491-.245-.736-.858-.859l-14.944-3.558.735-3.19 15.067 3.558c2.082.49 3.43 2.208 2.695 4.908zm-1.714-15.338h-.98c.367 1.104.612 2.331.122 3.926-1.102 3.19-3.307 4.05-5.88 3.19-3.184-1.104-3.184-3.68-2.327-6.257.368-.982.735-1.964 1.348-2.823l-1.348-.49c-.857-.246-1.714-.123-2.204 1.472-.245.859-.49 1.963.367 3.19l-2.082 1.718c-1.225-1.718-1.47-3.681-.735-5.89 1.347-4.172 4.164-4.294 5.757-3.803l8.82 3.19-.858 2.577zm-6.002-1.473c-.245.614-.735 1.35-.98 2.086-.368 1.227-.49 2.7 1.102 3.19 1.47.491 2.327-.122 2.695-1.227.367-.981.245-1.963 0-3.19l-2.817-.859zm9.676-7.853c-4.41-2.454-4.777-6.38-5.144-9.448-.245-2.086-.49-3.927-1.838-4.663-1.715-.982-2.94-.368-3.674.981-1.225 2.21-.368 3.436 1.102 4.54l-1.47 2.578c-2.45-1.596-4.164-4.295-1.96-8.344 1.47-2.823 4.165-4.418 7.472-2.577 2.818 1.472 3.063 4.417 3.308 7.24.245 2.453.49 3.926 1.592 5.03L36.5 72.79l-1.715-.982 1.47-2.7 4.042 2.21-5.757 10.92zm11.147-17.424c-3.307 4.417-7.35 2.331-11.392-.614-3.92-2.945-6.737-6.135-3.552-10.43 3.185-4.294 7.105-2.454 11.024.491 3.92 2.7 7.227 6.013 3.92 10.553zm-12.861-9.571c-1.47 2.086-.245 3.558 3.43 6.258 3.797 2.822 5.756 3.804 7.349 1.718 1.47-2.086 0-3.682-3.797-6.504-3.553-2.7-5.39-3.558-6.983-1.472zm17.516 2.822c-3.675-3.559-2.94-7.485-2.328-10.553.368-2.086.613-3.926-.49-5.03-1.47-1.35-2.694-1.105-3.797 0-1.715 1.84-1.347 3.19-.245 4.662L41.4 49.23c-1.96-2.209-2.94-5.276.367-8.59 2.205-2.208 5.145-3.19 7.962-.49 2.205 2.209 1.715 5.03 1.225 7.853-.367 2.454-.49 3.927.123 5.276l3.797-3.803-1.47-1.35 2.082-2.209 3.308 3.313-8.452 8.835zm11.024-10.921l-1.715-2.209 2.94-2.208-6.982-8.958c-.123-.123-.123-.368-.245-.613L52.792 36.1l-1.715-2.21 4.654-5.398 9.432 12.148 2.94-2.209 1.715 2.209-8.452 6.503zm11.637-16.197l-1.348-2.577 6.37-3.558 1.347 2.576-6.37 3.559zm15.311-.614l-6.247-16.81 3.062-1.227 5.267 13.865 6.737-2.576 1.103 2.822-9.922 3.926zm18.496-6.012l-.49-.86c-.735.982-1.715 1.841-3.185 2.21-3.184.858-5.267-.614-5.88-3.314-.857-3.313 1.348-4.662 3.92-5.276.98-.245 2.083-.368 3.063-.49l-.368-1.35c-.245-.86-.857-1.473-2.45-1.105-.979.246-1.96.614-2.572 2.086l-2.572-.736c.735-1.963 2.205-3.19 4.532-3.804 4.287-1.104 5.88 1.227 6.247 2.7l2.327 9.203-2.572.736zm-2.082-5.767c-.613.122-1.47.122-2.328.368-1.347.368-2.45 1.104-2.082 2.7.368 1.472 1.347 1.84 2.45 1.595.98-.246 1.837-.86 2.572-1.718l-.612-2.945zm12.739 4.294c-.858.123-1.838 0-2.818-.245.245.245.245.614.368.859l.612 5.276-3.307.368-2.327-19.142 2.327-.245.613.982c.857-1.105 2.082-1.718 3.307-1.964 4.165-.49 6.124 1.964 6.614 6.136.49 4.049-.735 7.485-5.389 7.975zm-1.348-11.411c-.735.123-1.592.368-2.449 1.104l.979 7.608c.735.245 1.838.245 2.695.123 1.96-.246 2.695-1.596 2.328-4.909-.613-3.19-1.593-4.172-3.553-3.926zm15.067 10.675c-.858 0-1.838-.245-2.817-.613.122.368.244.613.244.859l-.122 5.276h-3.307l.245-19.265h2.327l.368 1.104A5.107 5.107 0 01131.676 8c4.164.123 5.757 2.7 5.757 6.994 0 3.927-1.593 7.24-6.247 7.117zm.245-11.534c-.735 0-1.593.123-2.695.859l-.123 7.608c.735.368 1.715.49 2.573.49 1.96 0 2.94-1.227 2.94-4.54.122-3.313-.735-4.417-2.695-4.417zm10.901 6.013c-.367 2.33.368 3.558 2.573 3.803 1.715.246 2.572-.368 3.307-1.35l2.45 1.35c-1.103 2.086-3.307 3.068-6.125 2.7-4.287-.614-6.002-3.19-5.389-7.853.612-4.418 2.695-6.75 7.227-6.136 5.022.614 5.389 4.786 5.022 7.73l-.123.982-8.942-1.227zm3.675-4.909c-1.837-.245-2.817.368-3.307 2.7l5.39.736c.367-2.086-.368-3.19-2.083-3.436zm10.044 7.239c-.612 2.332-.122 3.56 2.083 4.173 1.592.49 2.695-.123 3.43-.982l2.327 1.595c-1.348 1.964-3.675 2.577-6.492 1.84-4.165-1.103-5.512-3.926-4.41-8.466 1.103-4.294 3.552-6.38 7.962-5.153 4.9 1.227 4.777 5.399 3.92 8.344l-.245.981-8.575-2.331zm4.165-4.417c-1.837-.49-2.817 0-3.552 2.21l5.267 1.349c.49-1.963 0-3.19-1.715-3.559zm12.127 15.829l3.062-7.73c.612-1.473.612-2.7-.857-3.313-.98-.368-2.205-.245-3.185 0l-3.675 9.203-3.062-1.227 4.899-12.394 2.573.982-.123 1.227c1.715-.613 2.94-.613 4.287 0 2.94 1.227 3.308 3.927 2.205 6.626l-3.062 7.73-3.062-1.104zm15.189-4.54c-.858-.49-1.715-.736-2.695-.736l-4.777 8.958-2.94-1.596 6.247-11.78 2.45 1.228-.245 1.104c1.347-.49 2.45-.368 3.552.245.367.246.857.491 1.225.86l-1.347 2.454c-.368-.123-.858-.491-1.47-.737zm4.042 15.338l.245-.981c-1.225.123-2.45 0-3.797-.982-2.818-1.84-3.063-4.294-1.47-6.626 1.837-2.822 4.409-2.086 6.614-.613.858.613 1.715 1.227 2.45 1.963l.735-1.227c.49-.736.49-1.595-.857-2.577-.858-.49-1.838-.982-3.185-.49l-1.103-2.455c1.96-.736 3.92-.49 5.757.86 3.675 2.453 3.063 5.153 2.205 6.503l-5.267 7.853-2.327-1.227zm2.817-5.399c-.49-.49-1.102-.981-1.837-1.472-1.103-.736-2.45-1.104-3.307.245-.858 1.227-.49 2.332.489 2.945.858.491 1.838.86 3.063.86l1.592-2.578zm7.35 13.499l5.512-6.381c1.102-1.228 1.47-2.332.245-3.436-.735-.614-1.96-.982-3.063-1.105l-6.492 7.485-2.449-2.208 8.696-10.062 2.083 1.84-.49 1.227c1.837 0 2.94.491 4.042 1.35 2.45 2.086 1.837 4.786 0 6.995l-5.512 6.38-2.572-2.086zm7.227 7.975c-1.715-1.84-2.083-3.926 0-5.89l4.532-4.172c.122-.123.612-.368.98-.49l-1.593-1.718 1.838-1.718 1.347 1.472 3.185-2.945 2.94 1.84-3.92 3.56 3.062 3.312-2.327 1.105-2.572-2.823-5.268 4.786c-.735.613-.735 1.35-.122 1.963.735.86 1.347.982 2.205 1.105l-.123 2.576c-1.47.123-2.94-.613-4.164-1.963zm8.574 10.062l.612-.736c-1.224-.368-2.327-.86-3.184-2.209-1.96-2.7-1.348-5.03.857-6.749 2.695-1.963 4.9-.49 6.37 1.718.612.859 1.102 1.718 1.592 2.7l1.102-.86c.735-.49.98-1.35 0-2.699-.612-.736-1.347-1.595-2.817-1.595l-.245-2.7c2.083-.122 3.797.86 5.145 2.823 2.572 3.558 1.102 5.89-.245 6.871l-7.595 5.645-1.592-2.209zm4.532-4.05c-.367-.613-.735-1.35-1.225-1.963-.735-1.104-1.96-1.84-3.185-.981-1.224.859-1.224 1.963-.49 2.945.613.859 1.47 1.35 2.573 1.84l2.327-1.84zm-54.998 59.145l1.592-4.908-4.042-2.945h5.022l1.592-4.909 1.593 4.909h5.022l-4.042 2.945 1.592 4.908-4.165-3.068-4.164 3.068zm8.329 18.406l2.327-7.117-6.124-4.54h7.472l2.327-7.117 2.45 7.117h7.472l-6.125 4.54 2.328 7.117-6.125-4.418-6.002 4.418zm4.532-32.395l.98-3.19-2.695-1.963h3.43l.98-3.191 1.102 3.191h3.308l-2.695 1.963.98 3.19-2.695-1.963-2.695 1.963zm8.82-38.775c-4.655 2.945-20.946 12.762-42.505 15.83-22.048 3.19-37.115 4.417-58.183 17.178-22.293 13.62-24.498 29.081-24.62 35.585 0 .859.122 2.086.122 2.086 27.193-20.983 42.994-9.203 72.759-19.142 39.198-13.13 50.344-44.42 52.427-51.537zM98.236 93.526c-3.797 1.718-7.717 3.804-11.882 6.38-4.777 2.946-8.697 5.891-12.004 8.958v-28.1l11.882-16.688 11.881 16.689.123 12.76z" fill="#fff"/>
  <path d="M167.933 76.347c-6.247 2.454-13.596 4.54-21.681 5.767V67.39l10.902-11.044 10.902 11.044v8.957h-.123zm-24.621 6.135c-4.654.614-9.064 1.228-13.351 1.964V58.678h13.351v23.804zm-16.168 2.332c-4.778.859-9.555 1.84-14.209 3.068V70.335h14.209v14.479zm-17.027 4.049c-3.062.982-6.002 2.086-9.186 3.436V68.985l4.654-24.419 4.532 24.419v19.878zm-46.424 70.311v-15.339h9.31v1.473h-7.717v5.031h6.86l-.368 1.472h-6.615s.123.491.123.859v5.031h7.717v1.473h-9.31zm20.457.368c-3.43 0-5.758-1.841-5.758-6.626v-9.081h1.593v9.081c0 3.681 1.47 5.153 4.164 5.153 2.695 0 4.287-1.472 4.287-5.153v-9.081h1.593v9.081c-.123 4.785-2.45 6.626-5.88 6.626zm19.965-.368l-3.429-5.645c-.123-.122-.245-.613-.245-.859h-2.94v6.504h-1.593v-15.339h4.533c3.674 0 5.144 1.841 5.144 4.418 0 2.209-1.102 3.804-3.675 4.295l4.043 6.503h-1.838v.123zm-3.552-13.743h-3.062v5.89h2.94c2.204 0 3.552-.737 3.552-2.945 0-2.209-1.225-2.945-3.43-2.945zm16.291 14.111c-4.777 0-6.002-3.313-6.002-8.222 0-4.294 1.103-7.853 6.002-7.853 4.778 0 6.002 3.436 6.002 7.853 0 4.909-1.224 8.222-6.002 8.222zm0-14.48c-3.552 0-4.409 2.332-4.409 6.381 0 4.418.857 6.626 4.409 6.626 3.43 0 4.41-2.208 4.41-6.626 0-4.049-.98-6.381-4.41-6.381zm16.414 8.345h-3.185c0 .245.123.49.123.736v5.031h-1.593v-15.339h4.778c3.674 0 5.144 2.086 5.144 4.786 0 2.7-1.47 4.786-5.267 4.786zm0-7.976h-3.185v6.626h3.185c2.205 0 3.552-.859 3.552-3.313 0-2.332-1.347-3.313-3.552-3.313zm10.902 13.743v-15.339h9.309v1.473h-7.717v5.031h6.86l-.368 1.472h-6.614s.122.491.122.859v5.031h7.717v1.473h-9.309zm25.233 0l-1.715-4.786h-6.002l-1.715 4.786h-1.592l5.389-15.339h1.838l5.389 15.339h-1.592zm-4.287-12.025c-.123-.369-.245-.982-.368-1.473-.122.614-.245 1.227-.367 1.473l-2.082 5.767h4.899l-2.082-5.767zm21.436 12.025l-8.82-12.762c.123.246.123.491.123.982v11.78h-1.593v-15.339h1.47l8.697 12.762c-.122-.368-.122-.491-.122-.859v-11.903h1.592v15.339h-1.347z" fill="#fff"/>
  <path d="M100.931 68.985l4.654-24.296 4.532 24.296M83.66 197.335l-.368-1.472h-1.838l-.734 1.472h-.735l2.45-4.785h.734l1.103 4.785h-.613zm-.858-3.681v-.368c0 .123-.123.245-.123.368l-.857 1.595h1.347l-.367-1.595zm5.634 1.472l-.367 2.332h-.735l.367-2.332v-.245c0-.368-.122-.614-.49-.614-.367 0-.612.123-.734.246l-.368.245-.367 2.7h-.735l.49-3.559h.612v.368c.49-.245.613-.49 1.225-.49.612 0 1.102.368 1.102 1.104v.245zm3.063 2.209h-.735l.49-3.558h.735l-.49 3.558zm.735-4.417h-.735l.122-.737v-.122h.735v.122l-.122.737zm3.674 2.208l-.367 2.332h-.735l.367-2.332v-.245c0-.368-.122-.614-.49-.614-.367 0-.612.123-.735.246l-.367.245-.367 2.7h-.735l.49-3.559h.612l.123.368c.49-.245.612-.49 1.225-.49.612 0 1.102.368 1.102 1.104-.123 0-.123.123-.123.245zm1.348 2.209h-.735l.49-3.558h.735l-.49 3.558zm.735-4.417h-.735l.122-.737c0-.122 0-.122.123-.122h.735v.122l-.245.737zm2.695 1.472h-1.103l-.245 2.086v.123c0 .245.123.368.368.368s.49-.123.612-.245l.368.368c-.368.368-.735.368-1.225.368a.838.838 0 01-.858-.859v-.246l.245-1.84c0-.123 0-.123.123-.246h-.613l.123-.613h.612l.123-1.227.735-.246-.245 1.473h1.225l-.245.736zm1.224 2.945h-.734l.489-3.558h.735l-.49 3.558zm.735-4.417h-.735l.123-.737v-.122h.735v.122l-.123.737zm3.43 1.84l-.367 2.577h-.613v-.245a2.069 2.069 0 01-1.225.368c-.735 0-1.102-.491-1.102-.982v-.245c.122-.982.857-1.105 1.592-1.105.368 0 .613 0 .98.123l.123-.491v-.122c0-.246-.245-.369-.613-.369-.367 0-.735.123-.98.491l-.49-.368c.368-.613.98-.736 1.593-.736.98 0 1.225.491 1.225.859-.123.123-.123.245-.123.245zm-1.592.859c-.49 0-.858.246-.858.736 0 .369.245.491.49.491.49 0 .735-.122 1.103-.368v-.736c-.245 0-.49-.123-.735-.123zm4.654-1.227h-1.102l-.245 2.086v.123c0 .245.123.368.367.368a.94.94 0 00.613-.245l.367.368c-.367.368-.735.368-1.225.368a.838.838 0 01-.857-.859v-.246l.245-1.84c0-.123 0-.123.123-.246h-.613l.123-.613h.612l.123-1.227.734-.246-.245 1.473h1.225l-.245.736zm1.348 2.945h-.735l.49-3.558h.735l-.49 3.558zm.612-4.417h-.735l.123-.737v-.122h.735v.122l-.123.737zm2.083 4.417h-.735l-.858-3.558h.735l.49 2.331c0 .123.123.245.123.491 0-.246.122-.368.122-.491l1.225-2.331h.735l-1.837 3.558zm5.267-1.718v.246h-2.573v.368c0 .491.245.736.858.736.49 0 .735-.123.98-.491l.612.246c-.367.613-.857.859-1.715.859-.98 0-1.47-.491-1.47-1.35v-.491c.123-1.227.735-1.963 1.96-1.963 1.103 0 1.348.736 1.348 1.472v.368zm-1.348-1.35c-.612 0-.98.246-1.102.982h1.837v-.245c0-.491-.245-.737-.735-.737zm7.105 1.35c-.123 1.227-.735 1.964-1.96 1.964-.98 0-1.347-.614-1.347-1.35v-.491c.245-1.227.734-1.963 1.959-1.963.98 0 1.348.613 1.348 1.349.122.123.122.246 0 .491zm-1.47-1.35c-.613 0-.98.369-1.103 1.35v.491c0 .614.245.859.735.859.613 0 .98-.368 1.103-1.35v-.491c.122-.613-.123-.859-.735-.859zm5.022-1.472c-.367-.123-.49-.123-.735-.123-.367 0-.612.123-.735.736v.369h1.103l-.245.613h-.98l-.613 4.049h-.735l.613-3.803c0-.123 0-.123.122-.246h-.612l.122-.613h.49v-.369c.123-.981.858-1.227 1.47-1.227h.368c.122 0 .245 0 .367.123v.491zm4.165 1.595h-1.103l-.245 2.086v.123c0 .245.123.368.368.368s.49-.123.612-.245l.368.368c-.368.368-.735.368-1.225.368a.838.838 0 01-.858-.859v-.246l.245-1.84c0-.123 0-.123.123-.246h-.613l.123-.613h.612l.123-1.227.735-.246-.245 1.473h1.225l-.245.736zm3.919.736l-.367 2.332h-.735l.368-2.332v-.245c0-.368-.123-.614-.49-.614-.49 0-.735.246-1.103.369l-.367 2.699h-.735l.735-5.276h.735l-.245 1.718c0 .122-.123.245-.123.368.49-.246.735-.491 1.225-.491.612 0 1.102.368 1.102 1.104v.368zm4.043.491v.246h-2.573v.368c0 .491.245.736.858.736.49 0 .735-.123.98-.491l.612.246c-.367.613-.857.859-1.715.859-.98 0-1.47-.491-1.47-1.35v-.491c.123-1.227.735-1.963 1.96-1.963 1.103 0 1.348.736 1.348 1.472v.368zm-1.47-1.35c-.613 0-.98.246-1.103.982h1.838v-.245c0-.491-.123-.737-.735-.737zm-65.288 6.136h-2.45l-.245 1.349h2.205l-.245.614h-2.082v.245l-.245 1.35h2.45l-.123.614h-3.185l.735-4.786h3.185v.614zm3.307 4.294h-.612l-.123-.368c-.367.246-.735.491-1.225.491-.612 0-1.102-.368-1.102-1.104v-.368l.367-2.332h.858l-.367 2.332v.245c0 .368.245.614.49.614.49 0 .734-.246 1.102-.491l.367-2.7h.735l-.49 3.681zm3.308-3.067h-.368c-.245 0-.49 0-.612.122l-.245.246-.368 2.699h-.735l.49-3.558h.613v.368c.367-.245.49-.491.98-.491h.367l-.122.614zm3.552 1.227c-.123 1.227-.735 1.963-1.96 1.963-.98 0-1.347-.613-1.347-1.35v-.49c.245-1.228.734-1.964 1.96-1.964.98 0 1.47.614 1.47 1.35-.123.123-.123.368-.123.491zm-1.47-1.35c-.612 0-.98.368-1.103 1.35v.491c0 .613.246.859.735.859.613 0 .98-.369 1.103-1.35v-.491c0-.614-.245-.859-.735-.859zm5.512 1.227c-.245 1.227-.735 1.963-1.96 1.963-.245 0-.612-.122-.735-.245l-.245 1.718h-.735l.735-5.276h.49l.123.368c.49-.368.735-.491 1.102-.491.98 0 1.348.613 1.348 1.472-.123.246-.123.368-.123.491zm-1.347-1.227c-.368 0-.49.123-.98.368l-.245 2.086c.245.246.49.246.735.246.612 0 1.102-.368 1.225-1.473v-.368c-.123-.613-.245-.859-.735-.859zm5.389 1.35v.245h-2.572v.368c0 .491.245.737.857.737.49 0 .735-.123.98-.491l.613.245c-.368.614-.858.859-1.715.859-.98 0-1.47-.491-1.47-1.35v-.49c.123-1.228.735-1.964 1.96-1.964 1.102 0 1.347.736 1.347 1.473v.368zm-1.47-1.35c-.612 0-.98.245-1.102.982h1.837v-.246c0-.368-.245-.736-.735-.736zm5.267.491l-.367 2.577h-.612v-.246a2.063 2.063 0 01-1.225.368c-.735 0-1.103-.49-1.103-.981v-.246c.123-.981.858-1.227 1.593-1.227.367 0 .612 0 .98.123l.122-.491v-.122c0-.246-.245-.369-.613-.369-.367 0-.734.123-.98.491l-.49-.368c.368-.491.98-.736 1.593-.736.98 0 1.225.491 1.225.859-.123.245-.123.368-.123.368zm-1.714.982c-.49 0-.858.245-.858.736 0 .368.245.491.49.491.368 0 .735-.123 1.103-.368l.122-.737c-.368-.122-.612-.122-.857-.122zm5.634-.614l-.367 2.331h-.735l.367-2.331v-.245c0-.369-.122-.614-.49-.614-.367 0-.612.123-.735.245l-.367.246-.368 2.699h-.735l.49-3.558h.613v.368c.49-.245.612-.491 1.225-.491.612 0 1.102.368 1.102 1.105.123 0 0 .122 0 .245zm6.492-1.227h-.612c0-.491-.245-.859-.98-.859-1.103 0-1.348.736-1.47 1.963 0 .246-.123.491-.123.737 0 .613.245 1.104 1.103 1.104.612 0 .98-.245 1.225-.736l.49.368c-.368.613-.858 1.104-1.838 1.104-1.225 0-1.715-.736-1.715-1.84v-.737c.245-1.595.858-2.576 2.328-2.576 1.102 0 1.592.736 1.592 1.472 0 0 0-.123 0 0zm3.675 1.718c-.123 1.227-.735 1.963-1.96 1.963-.98 0-1.347-.613-1.347-1.35v-.49c.245-1.228.735-1.964 1.959-1.964.98 0 1.47.614 1.47 1.35 0 .123 0 .368-.122.491zm-1.47-1.35c-.612 0-.98.368-1.102 1.35v.491c0 .613.245.859.735.859.612 0 .979-.369 1.102-1.35v-.491c.122-.614-.123-.859-.735-.859zm7.472.859l-.367 2.209h-.735l.367-2.332v-.368c0-.368-.122-.491-.367-.491-.368 0-.735.246-1.103.491v.368l-.367 2.332h-.735l.367-2.332v-.245c0-.368-.122-.491-.367-.491-.368 0-.735.245-.98.368l-.368 2.7h-.735l.49-3.559h.613v.368c.367-.245.735-.49 1.102-.49.49 0 .735.122.98.49.368-.245.735-.49 1.225-.49.613 0 .98.368.98.981v.491zm6.002 0l-.367 2.209h-.735l.367-2.332v-.368c0-.368-.122-.491-.367-.491-.368 0-.735.246-1.103.491v.368l-.367 2.332h-.735l.367-2.332v-.245c0-.368-.122-.491-.367-.491-.368 0-.735.245-.98.368l-.368 2.7h-.735l.49-3.559h.613v.368c.367-.245.735-.49 1.102-.49.49 0 .735.122.98.49.368-.245.735-.49 1.225-.49.613 0 .98.368.98.981v.491zm1.347 2.331h-.735l.49-3.558h.735l-.49 3.558zm.613-4.54c0 .123 0 .123 0 0h-.735l.122-.736v-.123h.735v.123l-.122.736zm2.817 1.718c-.122-.245-.367-.368-.735-.368-.367 0-.857.123-.857.614 0 .122.122.245.245.368l.857.122c.49.123.858.369.858.859 0 .982-.858 1.35-1.715 1.35-.613 0-1.103-.245-1.348-.736l.613-.246c.122.246.367.491.735.491.367 0 .857-.122.857-.613 0-.246-.122-.368-.367-.368l-.858-.123c-.367-.123-.735-.368-.735-.859 0-.859.735-1.227 1.593-1.227.612 0 1.102.245 1.225.613l-.368.123zm3.552 0c-.122-.245-.367-.368-.735-.368-.367 0-.734.123-.734.614 0 .122.122.245.245.368l.857.122c.49.123.857.369.857.859 0 .982-.857 1.35-1.714 1.35-.613 0-1.103-.245-1.348-.736l.613-.246c.122.246.367.491.735.491.367 0 .857-.122.857-.613 0-.246-.123-.368-.368-.368l-.857-.123c-.367-.123-.735-.368-.735-.859 0-.859.735-1.227 1.592-1.227.613 0 1.103.245 1.225.613l-.49.123zm1.838 2.822h-.735l.49-3.558h.735l-.49 3.558zm.735-4.54c0 .123 0 .123 0 0h-.735l.122-.736c0-.123 0-.123.123-.123h.735v.123l-.245.736zm3.674 2.7c-.122 1.227-.734 1.963-1.959 1.963-.98 0-1.47-.613-1.47-1.35v-.49c.245-1.228.735-1.964 1.96-1.964.979 0 1.469.614 1.469 1.35v.491zm-1.469-1.35c-.613 0-.98.368-1.103 1.35v.491c0 .613.245.859.735.859.613 0 .98-.369 1.103-1.35v-.491c0-.614-.245-.859-.735-.859zm5.389.859l-.367 2.331h-.735l.367-2.331v-.245c0-.369-.122-.614-.49-.614-.367 0-.612.123-.735.245l-.367.246-.368 2.699h-.735l.49-3.558h.613l.122.368c.49-.245.613-.491 1.225-.491.613 0 1.103.368 1.103 1.105 0 0 0 .122-.123.245zm-71.902-25.645c-3.43 0-4.777-1.718-4.777-5.154 0-3.19 1.225-5.154 4.777-5.154 2.695 0 3.92 1.473 4.042 3.559h-2.327c-.123-.859-.613-1.473-1.715-1.473-1.715 0-2.205.736-2.205 3.068 0 2.454.613 3.068 2.327 3.068.613 0 1.225-.246 1.593-.491v-1.227H67.98l-.49-1.964h4.533v4.295c-1.225.859-2.573 1.473-4.165 1.473zm15.434-.123l-2.205-3.313c-.123-.123-.123-.246-.123-.368h-.49v3.681h-2.45v-9.817h3.553c2.695 0 3.92 1.227 3.92 3.191 0 1.349-.613 2.331-1.96 2.822l2.572 3.926h-2.817v-.122zm-1.593-7.976h-1.102v2.331h1.102c1.103 0 1.47-.491 1.47-1.227-.122-.613-.49-1.104-1.47-1.104zm10.167 7.976v-9.817h7.227v2.086H94.44v1.718h4.287l-.613 2.086h-3.797c0 .123.123.123.123.246v1.84h4.654v2.086h-7.227v-.245zm13.229 0v-9.817h7.227v2.086h-4.654v1.718h4.287l-.613 2.086h-3.674c0 .123.122.123.122.246v1.84h4.655v2.086h-7.35v-.245zm19.844 0l-4.287-5.767c0 .122.122.368.122.613v5.154h-2.45v-9.817h2.083l4.409 5.767c-.122-.245-.122-.368-.122-.613v-5.154h2.45v9.817h-2.205zm16.291 0v-9.817h2.45v7.731h3.92v2.086h-6.37zm12.249 0v-9.817h7.105v2.086h-4.655v1.718h4.287l-.612 2.086h-3.675c0 .123.122.123.122.246v1.84h4.655v2.086h-7.227v-.245zm19.844 0l-.735-1.964h-3.307l-.735 1.964h-2.45l3.797-9.817h2.205l3.797 9.817h-2.572zm-2.205-6.136c0-.122-.123-.245-.123-.368 0 .123-.122.368-.122.368l-.735 2.086h1.837l-.857-2.086zm16.781-1.717h-3.797v1.84h3.43v1.963h-3.553v4.05h-2.449v-9.817h6.982l-.613 1.964zm-9.064 21.719c-.735-1.105-4.532-7.24-4.532-7.24v1.472s3.674 5.277 4.532 6.504c1.102 1.472 1.96 1.718 4.409 2.208 2.328.491 4.165.859 4.165.859v-.245s-1.225-.245-4.042-.859c-2.94-.736-3.797-1.595-4.532-2.699zm8.574 6.994s-2.327-.368-4.165-.736c-1.959-.369-3.307-.737-4.409-1.841-.98-1.104-4.532-4.786-4.532-4.786v1.105s3.552 3.313 4.532 4.172c1.102.981 2.45 1.227 4.409 1.595 1.96.368 4.165.736 4.165.736v-.245z" fill="#fff"/>
  <path d="M174.303 191.813v.982s3.184 2.577 4.532 3.681c1.225.982 2.45 1.105 4.409 1.35a65.64 65.64 0 004.165.613v-.245s-1.715-.245-4.165-.736c-2.449-.368-3.307-.736-4.409-1.718-1.225-.736-4.532-3.927-4.532-3.927z" fill="#fff"/>
  <path d="M178.835 197.212c-.735-.49-4.532-3.558-4.532-3.558v.982s3.062 2.208 4.532 3.19c1.47.982 2.695 1.104 4.409 1.227 1.593.245 4.165.614 4.165.614v-.246s-1.347-.245-4.165-.613c-2.694-.491-3.674-1.105-4.409-1.596z" fill="#fff"/>
  <path d="M178.835 198.317c-.735-.368-4.532-2.945-4.532-2.945v.859s3.184 1.84 4.532 2.577c1.347.736 2.572.981 4.409 1.227 1.838.245 4.165.49 4.165.49v-.245s-1.347-.123-4.165-.491c-2.817-.491-3.674-1.104-4.409-1.472z" fill="#fff"/>
  <path d="M183.244 200.894c2.083.245 4.165.368 4.165.368v-.246s-2.205-.245-4.165-.491c-1.959-.245-3.062-.49-4.409-1.227a617.925 617.925 0 00-4.532-2.454v.859s3.184 1.473 4.532 2.086c1.592.859 2.327.859 4.409 1.105z" fill="#fff"/>
  <path d="M178.835 200.648c-1.838-.736-4.532-1.841-4.532-1.841v.737s2.939.981 4.532 1.595c1.592.491 2.45.613 4.409.736 1.96.123 4.165.368 4.165.368v-.245s-3.552-.368-4.042-.368c-1.225-.246-2.695-.246-4.532-.982zm0 1.227c-1.838-.491-4.532-1.35-4.532-1.35v.737s3.307.736 4.532 1.104c1.102.245 2.572.368 4.409.491 2.328.123 4.165.245 4.165.245v-.245s-3.307-.246-4.165-.368c-.857 0-2.572-.123-4.409-.614zm0 1.105a632.857 632.857 0 01-4.532-.737v.737s2.327.245 4.532.49c.98.123 2.695.246 4.409.246 1.593.122 4.165.245 4.165.245v-.245s-3.92-.246-4.165-.246c-.245 0-2.572-.122-4.409-.49zm-4.532 1.104v.736h12.984v-.245s-7.472-.246-8.452-.368c-.98 0-4.532-.123-4.532-.123zm4.532-12.639c-.49-.736-4.532-6.503-4.532-6.503v1.35c.122.245 3.552 4.662 4.532 5.889 1.102 1.35 2.817 1.718 4.409 2.086 1.593.369 4.165.859 4.165.859v-.245s-3.307-.614-4.165-.859c-3.184-.736-3.919-1.841-4.409-2.577z" fill="#fff"/>
  <path d="M187.409 195.74s-2.572-.491-4.165-.736c-2.572-.491-3.674-1.35-4.409-2.332-.735-.981-4.532-6.012-4.532-6.012v1.227c.122.245 3.552 4.294 4.532 5.276 1.102 1.227 2.572 1.595 4.409 1.841 1.838.368 4.165.736 4.165.736z" fill="#fff"/>
  <path d="M187.409 196.599s-3.062-.491-4.165-.736c-2.694-.491-3.184-.982-4.409-2.209-.735-.736-4.41-5.154-4.532-5.276v1.104s3.429 3.681 4.532 4.785c1.47 1.473 2.817 1.473 4.409 1.841 1.593.245 4.165.736 4.165.736v-.245zm-22.171-13.498c-.612.859-1.102 1.595-1.715 2.209-.735.859-1.469 1.472-2.327 2.086-.857.491-1.715.982-2.817 1.227-.49.123-.98.245-1.47.245-.368 0-.735.123-1.103.123-.122 0-12.126 1.35-12.126 1.35v.859s12.984-1.718 13.351-1.718a12.854 12.854 0 001.47-.368c1.103-.246 1.96-.736 2.818-1.35.857-.614 1.592-1.35 2.327-2.209.49-.613.98-1.349 1.47-1.963v-.491h.122z" fill="#fff"/>
  <path d="M161.074 188.868c-.858.491-1.715.859-2.818.982-.49.123-.98.123-1.47.245-.367 0-.612.123-.98.123h-.489c-3.92.368-7.962.736-11.637 1.104v.859c3.675-.49 7.717-.981 11.637-1.349h.489c.368 0 .613-.123.98-.123.613-.123 1.103-.123 1.47-.245 1.103-.246 2.083-.614 2.94-1.105.858-.491 1.592-1.227 2.327-2.086.49-.491 1.103-1.35 1.593-1.963v-.368c-.613.859-1.225 1.472-1.715 2.086-.735.736-1.47 1.472-2.327 1.84z" fill="#fff"/>
  <path d="M165.238 190.586v-.245c-.735.736-1.102 1.104-1.837 1.595-.123.123-.368.245-.613.368h-1.592c.858-.368 1.592-.982 2.327-1.595.613-.491 1.103-1.104 1.715-1.718v-.245c-.735.736-1.347 1.349-1.96 1.84-.857.614-1.469 1.105-2.449 1.473-.245.122-.613.245-.858.245h-4.409l1.224-.123c.613-.122 1.103-.122 1.47-.245 1.103-.245 2.083-.491 2.94-.982.858-.49 1.715-1.227 2.572-1.963.49-.491 1.103-1.227 1.593-1.841v-.245c-.613.859-1.225 1.472-1.838 2.086-.735.736-1.592 1.35-2.449 1.718-.858.368-1.715.736-2.818.859-.49.123-.857.123-1.47.123l-12.861 1.104v.859l8.942-.982v.614l-8.942.613v.859l8.942-.859v.614c-1.225.122-2.328.122-3.553.245l-5.389.368v.859l5.389-.491c1.103-.122 2.205-.245 3.43-.368v.614c-2.817.123-5.757.245-8.942.491v.859c3.063-.246 6.002-.491 8.942-.737v.614c-2.94.123-5.879.245-8.942.368v.859c2.94-.245 6.002-.368 8.942-.614v.614l-8.942.245v.859l8.942-.491v.614l-8.942.123v.859l8.942-.368v.613c-2.94 0-5.879 0-8.942.123v.859c2.818-.123 5.88-.246 8.942-.246v.614h-8.942v.859l5.145-.123c1.225 0 2.45 0 3.797-.123v.614c-2.94 0-5.879-.123-8.942-.123v.859c2.94 0 5.88 0 8.942-.123v.614l-8.942-.245v.858l8.942-.245v.245h18.741v-13.006h-7.962c.735-.491 1.715-1.473 1.715-1.473zm-4.777 4.908l-.49-.368-.49.368.245-.613-.612-.368h.612l.245-.614.245.614h.613l-.49.368.122.613zm-1.47 1.596l-.49-.369-.49.369.245-.614-.49-.368h.613l.245-.614.245.614h.612l-.49.368v.614zm-1.96.981h.613l.245-.613.245.613h.612l-.49.368.245.614-.49-.368-.49.368.245-.614-.735-.368zm1.47 2.822l-.49.369.245-.614-.49-.368h.613l.245-.614.245.614h.612l-.49.368.245.614-.735-.369zm1.96 1.841l-.49-.368-.49.368.245-.613-.49-.369h.613l.245-.613.245.613h.612l-.49.369v.613zm5.757-5.644l-.49-.369-.49.369.245-.614-.49-.368h.613l.245-.614.245.614h.612l-.49.368v.614zm-1.47-1.596l-.49-.368-.49.368.245-.613-.49-.368h.613l.245-.614.245.614h.612l-.49.368v.613zm-2.939-1.595l.245-.613.245.613h.612l-.49.368.245.614-.49-.368-.49.368.245-.614-.49-.368h.368zm.857 9.449l-.49-.369-.49.369.245-.614-.49-.368h.613l.245-.614.244.614h.613l-.49.368v.614zm2.082-.614l-.49-.368-.49.368.245-.613-.49-.369h.613l.245-.613.245.613h.612l-.49.369v.613zm1.47-1.472l-.49-.369-.49.369.245-.614-.49-.368h.613l.245-.614.245.614h.612l-.49.368v.614zm.613-2.209l-.49-.368-.49.368.245-.614-.49-.368h.612l.245-.613.245.613h.613l-.49.368v.614z" fill="#fff"/>
</svg>
