<svg xmlns="http://www.w3.org/2000/svg" viewBox="0 0 425 134">
  <path d="M276.234 37.27c-9.516 11.307-21.657 20.649-35.439 25.729-41.182 15.077-83.677-24.255-122.726-7.21-4.923 2.13-11.157 7.538-12.47 7.21 8.696-9.833 19.032-19.83 30.189-25.402 48.566-23.927 86.959 26.385 140.446-.328z" fill="#fff"/>
  <path d="M318.073 10.884c-7.383 8.85-16.736 16.06-27.4 19.994-31.994 11.8-64.973-18.847-95.326-5.572-3.774 1.639-8.696 5.9-9.681 5.572 6.891-7.703 14.767-15.405 23.463-19.666 37.736-18.683 67.434 20.485 108.944-.328zM20.938 115.114c0 11.8 0 12.455-3.938 12.455v.984c1.805 0 5.742-.164 10.008-.164 4.266 0 9.189 0 12.142.164 0-2.622.164-4.753.328-8.031h-1.149c-.164 1.639-.492 2.786-.984 3.442-.656.819-1.805.983-3.282.983h-7.547c-.82 0-1.148-.328-1.148-1.147v-18.519c0-10.98 0-11.8 3.773-11.8v-.983c-1.804 0-3.773.164-6.07.164s-4.266 0-6.071-.164v.983c3.938 0 3.938.656 3.938 11.8v9.833z" fill="#fff"/>
  <path fill-rule="evenodd" clip-rule="evenodd" d="M66.386 118.064c3.281 8.686 3.61 9.505-.328 9.505v.983c1.476 0 3.937-.163 6.234-.163 2.462 0 4.102 0 5.087.163v-.983c-2.626 0-2.954-.819-7.548-12.455l-8.86-23.108h-.984l-9.188 23.108c-4.758 11.8-5.086 12.455-7.876 12.455v.983c.985 0 2.79-.163 5.087-.163 2.297 0 4.266 0 6.07.163v-.983c-4.102 0-3.773-.819-.328-9.505h12.634zM54.9 114.786c4.594-11.963 4.922-12.947 5.086-13.766.164.819.492 1.803 4.922 13.602v.164H54.901zm29.862.328c0 11.8 0 12.455-3.774 12.455v.983c1.97 0 3.61-.163 5.907-.163 2.133 0 3.938 0 5.907.163v-.983c-3.938 0-3.938-.819-3.938-10.98v-2.294h3.445c2.133-.164 4.43-.656 6.07-1.639 1.97-.984 3.446-2.459 4.267-4.261.82-1.475 1.476-3.278 1.476-5.572 0-4.59-2.132-7.703-5.742-9.178-1.969-.983-4.43-1.31-7.055-1.31h-2.79c-.82 0-1.64.163-2.625.163h-4.922v.983c3.774 0 3.774.656 3.774 11.636v9.997zm14.93-11.964c0 1.475-.492 2.95-.984 3.934a6.053 6.053 0 01-2.953 2.786c-1.313.655-2.953.983-4.594.983h-2.297v-14.75c.984 0 1.969-.163 2.789-.163 1.64 0 3.281.327 4.594.983 2.297 1.147 3.445 3.605 3.445 6.227zm13.454 11.964c0 11.8 0 12.455-3.773 12.455v.983c1.969 0 3.609-.163 5.906-.163 2.133 0 3.938 0 5.907.163v-.983c-3.938 0-3.938-.819-3.938-10.98v-2.294h3.446c2.133-.164 4.43-.656 6.07-1.639 1.969-.984 3.446-2.459 4.266-4.261.821-1.475 1.477-3.278 1.477-5.572 0-4.59-2.133-7.703-5.743-9.178-1.968-.983-4.43-1.31-7.055-1.31h-2.789c-.82 0-1.641.163-2.625.163h-5.086v.983c3.773 0 3.773.656 3.773 11.636v9.997h.164zm14.931-11.964c0 1.475-.492 2.95-.984 3.934a6.055 6.055 0 01-2.954 2.786c-1.312.655-2.953.983-4.594.983h-2.297v-14.75c.985 0 1.969-.163 2.789-.163 1.641 0 3.282.327 4.594.983 2.462 1.147 3.446 3.605 3.446 6.227z" fill="#fff"/>
  <path d="M141.695 115.114c0 11.8 0 12.455-3.61 12.455v.984c2.133 0 5.415-.164 9.681-.164 4.266 0 8.86 0 12.141.164 0-2.622.164-5.572.328-7.703h-.984c-.492 3.769-1.641 4.097-4.266 4.097h-6.891c-1.805 0-1.805-.164-1.805-1.966v-11.145h5.414c4.102 0 5.087.164 5.415 2.787h.984c-.164-1.475-.164-2.95-.164-4.589 0-1.311.164-2.786.164-3.933h-.984c-.328 2.294-1.477 2.294-5.579 2.294h-5.25V96.104h6.891c3.774 0 4.594.655 4.758 4.424h.985c0-2.785.164-5.408.328-8.03-3.118 0-7.712.164-11.978.164-3.937 0-6.891 0-9.024-.164v.983c3.446 0 3.446.656 3.446 11.8v9.833zm29.533 0c0 11.8 0 12.455-3.61 12.455v.984c2.133 0 5.415-.164 9.681-.164 4.266 0 8.86 0 12.141.164 0-2.622.164-5.572.328-7.703h-.984c-.492 3.769-1.641 4.097-4.266 4.097h-6.891c-1.805 0-1.805-.164-1.805-1.966v-11.145h5.414c4.102 0 5.087.164 5.415 2.787h.984c-.164-1.475-.164-2.95-.164-4.589 0-1.311.164-2.786.164-3.933h-.984c-.328 2.294-1.477 2.294-5.579 2.294h-5.25V96.104h7.219c3.774 0 4.594.655 4.758 4.424h.985c0-2.785.164-5.408.328-8.03-3.117 0-7.711.164-11.977.164-3.938 0-6.891 0-9.024-.164v.983c3.445 0 3.445.656 3.445 11.8v9.833h-.328zm56.769-9.669c0-10.98 0-11.8 3.446-11.8v-.983c-1.805 0-3.61.164-5.579.164-1.969 0-3.938 0-5.742-.164v.983c4.101 0 4.101.82 4.101 11.8v14.422h-.164c-2.461-3.114-3.937-4.917-6.07-7.375-3.282-3.933-8.532-9.997-17.064-20.158h-.82v22.616c0 11.636 0 12.455-3.938 12.455v.984c1.969 0 3.446-.164 5.579-.164 1.968 0 3.937 0 6.234.164v-.984c-3.937 0-3.937-.819-3.937-12.455v-13.438h.164c2.297 3.113 3.937 5.08 6.234 7.538 3.282 3.77 8.368 9.833 16.9 19.666h.82v-23.271h-.164z" fill="#fff"/>
  <path fill-rule="evenodd" clip-rule="evenodd" d="M241.287 115.114c0 11.8 0 12.455-3.774 12.455v.983c1.969 0 3.774-.163 5.907-.163s3.774 0 5.742.163v-.983c-3.609 0-3.609-.655-3.609-11.308v-2.786h3.117c3.118 4.589 6.071 9.178 9.188 13.766.492.82 1.313 1.148 2.297 1.148h6.071v-.984c-2.133 0-3.446-1.147-4.922-3.114-5.086-7.21-6.563-9.177-8.368-11.799v-.164c1.149-.328 2.461-.983 3.446-1.967 1.968-1.638 3.773-4.425 3.773-8.194 0-4.752-2.461-7.866-5.906-9.177-1.477-.656-3.774-.984-6.071-.984h-2.789c-.985 0-1.969.164-2.789.164h-5.251v.983c3.774 0 3.774.656 3.774 11.8v10.161h.164zm14.438-12.291c0 2.786-1.312 5.08-2.953 6.063-1.313.82-3.117 1.311-5.086 1.311-.821 0-1.477 0-2.297-.163v-13.93c.656 0 1.969-.164 2.953-.164 4.922 0 7.383 2.95 7.383 6.883zm35.276 15.241c3.281 8.686 3.609 9.505-.328 9.505v.983c1.476 0 3.937-.163 6.234-.163 2.462 0 4.102 0 5.087.163v-.983c-2.625 0-2.954-.819-7.548-12.455l-8.86-23.108h-.984l-9.188 23.108c-4.758 11.8-5.086 12.455-7.875 12.455v.983c.984 0 2.789-.163 5.086-.163s4.266 0 6.07.163v-.983c-4.101 0-3.773-.819-.328-9.505h12.634zm-11.321-3.278c4.594-11.963 4.922-12.947 5.086-13.766.164.819.492 1.803 4.922 13.602v.164H279.68z" fill="#fff"/>
  <path d="M336.941 105.445c0-10.98 0-11.8 3.446-11.8v-.983c-1.805 0-3.61.164-5.579.164-1.969 0-3.938 0-5.742-.164v.983c4.101 0 4.101.82 4.101 11.8v14.422h-.164c-2.461-3.114-3.937-4.917-6.07-7.375-3.282-3.933-8.532-9.997-17.064-20.158h-.82v22.616c0 11.636 0 12.455-3.938 12.455v.984c1.969 0 3.446-.164 5.579-.164 1.968 0 3.937 0 6.234.164v-.984c-3.937 0-3.937-.819-3.937-12.455v-13.438h.164c2.297 3.113 3.937 5.08 6.234 7.538 3.282 3.77 8.368 9.833 16.9 19.666h.82v-23.271h-.164zm20.017 9.669c0 11.8 0 12.455-4.102 12.455v.984c1.641 0 3.938-.164 6.399-.164 2.297 0 4.594 0 6.235.164v-.984c-4.102 0-4.102-.655-4.102-12.455V95.94h6.563c3.445 0 4.266.82 4.43 4.752h.984v-8.194h-28.384v8.194h.984c.328-3.933 1.149-4.752 4.758-4.752h6.399v19.174h-.164z" fill="#fff"/>
  <path fill-rule="evenodd" clip-rule="evenodd" d="M395.843 118.064c3.282 8.686 3.61 9.505-.328 9.505v.983c1.477 0 3.938-.163 6.399-.163s4.102 0 5.086.163v-.983c-2.625 0-2.953-.819-7.547-12.455l-8.86-23.108h-1.149l-9.188 23.108c-4.758 11.8-5.086 12.455-7.875 12.455v.983c.984 0 2.789-.163 5.086-.163s4.266 0 6.071.163v-.983c-4.102 0-3.774-.819-.328-9.505h12.633zm-11.485-3.278c4.594-11.963 4.922-12.947 5.086-13.766.164.819.492 1.803 4.922 13.602v.164h-10.008z" fill="#fff"/>
</svg>
