<svg fill="none" xmlns="http://www.w3.org/2000/svg" viewBox="0 0 256 256">
  <g clip-path="url(#icon__clip0)">
    <path d="M128 11L32 34.311v101.947c0 52.975 50.344 108.673 96 108.673 46.889 0 96-55.45 96-108.673V34.311L128 11zm61.943 128.724l-54.539 35.894v29.706c0 4.208-3.209 7.426-7.404 7.426s-7.404-3.218-7.404-7.426v-29.458l-54.54-35.894c-3.454-2.228-4.442-6.932-2.22-10.397 2.22-3.466 6.91-4.456 10.365-2.228l46.395 30.448v-28.716l-38.992-27.477c-3.455-2.476-4.195-6.931-1.727-10.397s6.91-4.208 10.365-1.733l30.601 21.537v-25.25L97.892 71.154c-3.455-2.228-4.442-6.684-2.221-10.15 2.221-3.465 6.663-4.456 10.118-2.228l15.301 9.655V47.14c0-4.208 3.208-7.426 7.404-7.426 4.195 0 7.403 3.218 7.403 7.427V68.43l15.054-9.655c3.455-2.228 8.144-1.237 10.118 2.228 2.221 3.466 1.234 8.17-2.221 10.15l-22.951 14.605v25.25l30.602-21.537c3.455-2.475 7.897-1.485 10.365 1.733 2.468 3.466 1.48 7.921-1.728 10.397l-39.732 27.477v28.963l46.395-30.695c3.455-2.228 7.898-1.238 10.366 2.228 2.221 3.218 1.233 7.921-2.222 10.149z" fill="#000"/>
  </g>
  <defs>
    <clipPath id="icon__clip0">
      <path fill="#fff" transform="translate(32 11)" d="M0 0h192v233.931H0z"/>
    </clipPath>
  </defs>
</svg>
