<?xml version="1.0" encoding="utf-8"?>
<!-- Generator: Adobe Illustrator 24.3.0, SVG Export Plug-In . SVG Version: 6.00 Build 0)  -->
<svg version="1.1" id="Layer_1" xmlns="http://www.w3.org/2000/svg" xmlns:xlink="http://www.w3.org/1999/xlink" x="0px" y="0px"
	 viewBox="0 0 935.4 935.4" style="enable-background:new 0 0 935.4 935.4;" xml:space="preserve">
<g id="Ikonit">
	<path d="M410.8,252c39.4-4.3,67.8-39.7,63.4-79.1s-39.7-67.8-79.1-63.4c-36.5,4-64.1,35-63.9,71.7c0.4,39.8,33,71.6,72.8,71.2
		C406.3,252.4,408.5,252.3,410.8,252z"/>
	<path d="M658.4,619.9l9.3-96.9c4.5-45-17.4-85.4-17.4-85.4l-0.6,0.5v-0.3l0.7-0.2c0,0-33.5-87.9-49.5-128.2
		c-16-40.3-49.5-98.1-105.9-83.2c-24.6,5.3-40.2,19.7-50.7,41.6l0,0l-0.1,0.2c-1.1,2.2-2,4.5-2.9,6.9l-42.7,115.8l-111.7-2.7
		l-10.4,37.2c-17.9,9.5-30.1,27-33,47.1l-50.7,357h33l50.1-352.5c2.4-16.9,18-28.6,34.9-26.2s28.6,18,26.2,34.9l0,0l32.4,4.6
		c2.3-15.6-1.4-31.4-10.2-44.4l30.3,2.1c26.7,1.5,51.9-12.1,65.3-35.2l17.8-31.5l50.1,128.2l-65.1,90.1c-4.6,6.3-7.5,13.7-8.5,21.4
		l-28.3,208.6l68.2-0.4l33.9-185.2l55.9-62.1l1,42.3c0.2,7.8,2.3,15.4,6.1,22.2l103.7,183.3l53.3-42.9L658.4,619.9z"/>
</g>
</svg>
