<?xml version="1.0" encoding="utf-8"?>
<!-- Generator: Adobe Illustrator 24.3.0, SVG Export Plug-In . SVG Version: 6.00 Build 0)  -->
<svg version="1.1" id="Layer_1" xmlns="http://www.w3.org/2000/svg" xmlns:xlink="http://www.w3.org/1999/xlink" x="0px" y="0px"
	 viewBox="0 0 935.4 935.4" style="enable-background:new 0 0 935.4 935.4;" xml:space="preserve">
<g id="Ikonit">
	<path d="M336.7,491.8l0.7,0.4c0-0.1,0-0.2,0-0.3L336.7,491.8l18.9-136.3L313,374.8l-24.2,147l-54.6,12.4l22.2-170.6
		c2.8-26.6,20.3-49.3,45.3-58.8l102-49.9c1.3-0.6,2.7-1.1,4-1.6l0.2-0.1l0,0c8.5-3.1,17.5-4.5,26.6-4.2
		c24.7-0.4,48.3,10.7,63.7,30.1l0.1,0.2c1.6,1.9,3,4,4.4,6.1l67.9,103.1l135.2-25.3L738,409l-145.6,33.1c-25.6,7.6-53.2,0-71.4-19.5
		l-24.5-26.7l-15.7,103.6l-1.2,10l-0.7-0.1c0,0.3-0.1,0.5-0.2,0.7l0.9-0.6l80.1,111.2c4.6,6.3,7.5,13.7,8.5,21.5l28.2,209l-68.3-1.9
		l-33.6-184l-79-86.5l-23.2,91.8c-1.9,7.6-5.7,14.5-10.9,20.3L239.8,846.7l-42.4-53.8l119-143.9L336.7,491.8z"/>
	<path d="M455.2,233.8c-39.6-2.2-69.9-36-67.8-75.6c2.2-39.6,36-69.9,75.6-67.8s69.9,36,67.8,75.6c0,0.1,0,0.2,0,0.3
		C528.5,205.8,494.7,236,455.2,233.8"/>
</g>
</svg>
