<?xml version="1.0" encoding="utf-8"?>
<!-- Generator: Adobe Illustrator 24.3.0, SVG Export Plug-In . SVG Version: 6.00 Build 0)  -->
<svg version="1.1" id="Layer_1" xmlns="http://www.w3.org/2000/svg" xmlns:xlink="http://www.w3.org/1999/xlink" x="0px" y="0px"
	 viewBox="0 0 935.4 935.4" style="enable-background:new 0 0 935.4 935.4;" xml:space="preserve">
<g id="Ikonit">
	<path d="M266.7,770.7c-9.2,0-16.7-8-16.7-17.9c0-9.8,7.5-17.9,16.7-17.9s16.7,8,16.7,17.9C283.3,762.7,275.8,770.7,266.7,770.7
		 M266.7,681.4c-36.8,0-66.6,32-66.6,71.4c0,39.5,29.8,71.4,66.6,71.4s66.6-32,66.6-71.4C333.3,713.4,303.5,681.4,266.7,681.4"/>
	<path d="M705.7,770.7c-9.2,0-16.7-8-16.7-17.9c0-9.8,7.5-17.9,16.7-17.9s16.7,8,16.7,17.9C722.3,762.7,714.8,770.7,705.7,770.7
		 M767.1,725.1c-1.7-4.2-3.7-8.3-6.1-12.1c-4.7-7.5-10.8-14.1-18-19.3c-3.5-2.6-7.3-4.8-11.3-6.6c-3.4-1.5-6.9-2.7-10.5-3.6
		l-65.5-463.9l75.8-13.5l-8.2-52.9l-199.9,35.7l8.2,52.8l74.9-13.4l52.3,370.5c-13.5,3.2-23.2,8.2-31.7,12.5
		c-11.9,6-21.3,10.8-42,10.8c-20.7,0-30.1-4.8-42-10.8c-14-7.1-31.4-16-63.4-16s-49.4,8.8-63.4,16c-11.9,6-21.3,10.8-42,10.8
		s-30.1-4.8-42-10.8c-14-7.1-31.5-16-63.4-16s-49.4,8.8-63.4,16c-11.9,6-21.3,10.8-42,10.8v53.6c32,0,49.4-8.9,63.4-16
		c11.9-6,21.3-10.8,42-10.8s30.1,4.8,42,10.8c14,7.1,31.5,16,63.4,16s49.4-8.9,63.4-16c11.9-6,21.3-10.8,42-10.8s30.1,4.8,42,10.8
		c14,7.1,31.5,16,63.4,16c31.9,0,49.4-8.9,63.4-16c5.7-3.1,11.6-5.7,17.8-7.7l5.6,39.5c-1.1,0.7-2.2,1.4-3.3,2.2
		c-1.8,1.3-3.5,2.7-5.1,4.1c-3.3,2.9-6.3,6.2-9,9.7c-1.4,1.8-2.6,3.6-3.8,5.5c-2.4,3.9-4.5,7.9-6.1,12.1c-3.5,8.9-5.3,18.3-5.2,27.8
		c-0.1,16.4,5.3,32.4,15.2,45.4c2.7,3.5,5.7,6.8,9,9.7c1.6,1.5,3.3,2.8,5.1,4.1c3.5,2.6,7.3,4.8,11.3,6.6c16.5,7.5,35.4,7.5,51.9,0
		c4-1.8,7.8-4,11.3-6.6c17.7-12.8,29.4-34.6,29.4-59.2C772.3,743.4,770.5,733.9,767.1,725.1"/>
</g>
</svg>
