<?xml version="1.0" encoding="utf-8"?>
<!-- Generator: Adobe Illustrator 24.3.0, SVG Export Plug-In . SVG Version: 6.00 Build 0)  -->
<svg version="1.1" id="Layer_1" xmlns="http://www.w3.org/2000/svg" xmlns:xlink="http://www.w3.org/1999/xlink" x="0px" y="0px"
	 viewBox="0 0 935.4 935.4" style="enable-background:new 0 0 935.4 935.4;" xml:space="preserve">
<g id="Ikonit">
	<path d="M467.7,206.5c-46.2-0.1-91.9,9.8-134,28.8c-41.1,18.7-78.1,45.2-108.9,78.3c-51.6,55.1-84.6,124.7-95.6,200.2h64.4
		c24.4-138.6,138-243.7,274-243.7c15.3,0,30.6,1.4,45.7,4.1l25.9-59.7C515.8,209.2,491.8,206.5,467.7,206.5z"/>
	<path d="M710.6,313.6c-30.8-33-67.8-59.6-108.9-78.3c-7.1-3.2-14.3-6.1-21.5-8.8L568,290.1c88.7,37,155.6,121.2,173.7,223.7h64.4
		C795.2,438.4,762.3,368.7,710.6,313.6z"/>
	<path d="M435.1,492.3c-20.3,16.5-23.3,46.2-6.9,66.4c16.5,20.3,46.2,23.3,66.4,6.9c14.8-12,20.9-31.8,15.4-50.1l66.6-349.8
		L435.1,492.3z"/>
</g>
</svg>
