<svg xmlns="http://www.w3.org/2000/svg" viewBox="0 0 425 169"><path d="M52.052 159.993a29.232 29.232 0 0 1-9.824 6.739 29.186 29.186 0 0 1-11.695 2.255 29.266 29.266 0 0 1-21.52-8.994 29.359 29.359 0 0 1-8.988-21.537v-87.25h12.95v87.288a17.629 17.629 0 0 0 5.157 12.359 17.6 17.6 0 0 0 12.35 5.162 17.606 17.606 0 0 0 16.342-10.782 17.636 17.636 0 0 0 1.38-6.739V51.207h12.76v87.287a29.499 29.499 0 0 1-8.861 21.537m46.989 3.724a59.496 59.496 0 0 1-19.38-14.315v19.547H66.9V51.169h9.532A43.63 43.63 0 0 1 108.32 64.42a44.738 44.738 0 0 1 3.899 59.214 44.848 44.848 0 0 1-23.748 16.101 44.192 44.192 0 0 0 34.381 16.28v12.972a55.562 55.562 0 0 1-23.76-5.232Zm1.265-89.086a30.433 30.433 0 0 0-20.646-10.376v63.977a32.332 32.332 0 0 0 20.581-10.5 32.385 32.385 0 0 0 8.332-21.564 31.321 31.321 0 0 0-8.279-21.537m154.334 94.318-8.861-28.618h-40.635l-8.861 28.618h-13.696l9.114-28.618h-6.874v-13.454h10.937l23.558-75.29h12.19l36.571 117.312-13.443.05ZM225.45 75.239l-16.102 51.625h32.204L225.45 75.239ZM274.996 169V51.207h12.962v104.808h37.824V169h-50.786Zm129.573-.013-8.861-28.618h-40.672l-8.861 28.618h-13.659l9.064-28.618h-6.886v-13.454h10.949l23.596-75.29h12.19L418 168.937l-13.431.05ZM375.29 75.29l-16.102 51.625h32.191L375.29 75.29ZM170.068 60.493a16.564 16.564 0 0 1-6.823-1.457v64.116a31.485 31.485 0 0 1-9.481 23.006 32.211 32.211 0 0 1-22.899 9.857l.316 12.972a46.161 46.161 0 0 0 31.767-13.8 46.236 46.236 0 0 0 13.247-32.022V59.327a16.606 16.606 0 0 1-6.152 1.179" fill="#91C848"/><path d="M155.195 29.657a14.665 14.665 0 0 1 14.608-9.806 14.93 14.93 0 0 0 .708-5.789A15.13 15.13 0 0 0 160.558.913a15.104 15.104 0 0 0-16.046 3.778 15.133 15.133 0 0 0 2.345 22.907 15.106 15.106 0 0 0 8.173 2.668c.063-.203.127-.406.203-.609" fill="#00597C"/><path d="M156.435 34.091a12.67 12.67 0 0 1 8.173-11.485 12.651 12.651 0 0 1 13.723 3.193 12.674 12.674 0 0 1-2.598 19.44 12.653 12.653 0 0 1-7.12 1.876 12.589 12.589 0 0 1-11.381-8.167 12.61 12.61 0 0 1-.797-4.857" fill="#91C848"/><path d="M172.613 16.317A9.956 9.956 0 0 1 175.328 5.6a9.935 9.935 0 0 1 10.935-1.582 9.949 9.949 0 0 1-.992 18.355 9.915 9.915 0 0 1-7.581-.405 9.929 9.929 0 0 1-5.077-5.65" fill="#FFCE51"/><path opacity=".55" d="M145.27 20.675a12.961 12.961 0 0 1-1.835-4.953 10.708 10.708 0 0 1-.089-2.623c.076-.86.246-1.71.506-2.533a10 10 0 0 1 .469-1.204c.077-.201.17-.396.278-.583l.317-.57c.443-.734.965-1.418 1.557-2.04a12.282 12.282 0 0 1 4.152-2.85.39.39 0 0 1 .488.205.391.391 0 0 1-.159.505 11.509 11.509 0 0 0-3.62 2.9 10.27 10.27 0 0 0-1.266 1.914l-.241.52c-.078.172-.146.35-.202.531-.135.355-.245.72-.329 1.09a9.463 9.463 0 0 0-.266 2.23 8.754 8.754 0 0 0 .24 2.216 10.626 10.626 0 0 0 1.823 3.991 1.126 1.126 0 0 1 .226.828 1.111 1.111 0 0 1-.428.743 1.133 1.133 0 0 1-.834.227 1.128 1.128 0 0 1-.749-.43v-.076" fill="#fff"/><path opacity=".55" d="M166.676 17.774c-2.342 5.359-3.241-4.447-8.595-6.778-5.355-2.33-13.178 3.687-10.823-1.685a10.588 10.588 0 0 1 19.369.505 10.61 10.61 0 0 1 .049 7.958m7.95-1.317a7.889 7.889 0 0 1-.76-1.635 8.152 8.152 0 0 1-.405-1.723 6.927 6.927 0 0 1 0-1.773 7.926 7.926 0 0 1 .367-1.723c.101-.266.203-.545.329-.811.127-.266.127-.266.203-.38l.215-.38c.309-.49.67-.944 1.076-1.356a8.42 8.42 0 0 1 2.835-1.862.263.263 0 0 1 .216.481 7.759 7.759 0 0 0-2.469 1.9 7.1 7.1 0 0 0-.873 1.268l-.165.342a2.051 2.051 0 0 0-.139.354c-.093.24-.174.486-.241.735a5.9 5.9 0 0 0-.202 1.495 6.58 6.58 0 0 0 .127 1.495 7.473 7.473 0 0 0 1.177 2.711c.06.08.104.17.129.266a.744.744 0 0 1-.294.786.745.745 0 0 1-1.05-.152m11.873 2.191a5.605 5.605 0 0 0 1.507-.861 5.276 5.276 0 0 0 1.177-1.267 6.68 6.68 0 0 0 .772-1.634 5.868 5.868 0 0 0 .329-1.8.102.102 0 0 1 .101-.089c.01.001.02.003.03.007a.1.1 0 0 1 .024.016.083.083 0 0 1 .017.025c.003.01.005.02.005.03a6.94 6.94 0 0 1-.126 1.912 8.013 8.013 0 0 1-.633 1.824 6.327 6.327 0 0 1-1.152 1.622 6.611 6.611 0 0 1-1.62 1.19.525.525 0 0 1-.419.078.521.521 0 0 1-.245-.87.52.52 0 0 1 .183-.12" fill="#fff"/><path opacity=".55" d="M187.499 16.875c-2.734 2.9-1.063-3.586-3.962-6.335s-9.266-.658-6.532-3.56a7.207 7.207 0 0 1 5.06-2.41 7.196 7.196 0 0 1 6.907 4.282 7.206 7.206 0 0 1-1.473 7.997m-27.051 22.018a9.37 9.37 0 0 1-.912-1.95 9.757 9.757 0 0 1-.493-2.078 9.02 9.02 0 0 1 0-2.116 9.238 9.238 0 0 1 .443-2.052 8.21 8.21 0 0 1 .405-.976c.076-.152.139-.316.228-.468l.266-.457a9.632 9.632 0 0 1 4.683-3.8.304.304 0 0 1 .405.177.317.317 0 0 1-.152.393 9.345 9.345 0 0 0-2.962 2.28 8.432 8.432 0 0 0-1.038 1.533l-.202.406c-.064.139-.114.291-.177.43-.064.14-.19.57-.279.862a7.856 7.856 0 0 0-.24 1.799c-.026.6.025 1.2.151 1.786.122.587.305 1.16.545 1.71.233.546.526 1.065.873 1.546a.91.91 0 0 1-1.468 1.064m14.241 2.61a6.334 6.334 0 0 0 1.797-1.026 6.677 6.677 0 0 0 1.418-1.584 8.438 8.438 0 0 0 .924-1.964c.242-.693.378-1.42.405-2.153a.103.103 0 0 1 .06-.105.1.1 0 0 1 .041-.01s.102 0 .102.102a7.75 7.75 0 0 1-.165 2.293 8.763 8.763 0 0 1-.747 2.192 7.788 7.788 0 0 1-3.316 3.446.62.62 0 0 1-.877-.745.634.634 0 0 1 .307-.37h.063" fill="#fff"/><path opacity=".55" d="M175.866 39.374c-3.266 3.484-1.266-4.294-4.734-7.601-3.469-3.306-11.039-.76-7.836-4.219a8.63 8.63 0 0 1 12.002-.166 8.643 8.643 0 0 1 .568 11.999" fill="#fff"/></svg>