<svg xmlns="http://www.w3.org/2000/svg" viewBox="0 0 256 256"><g clip-path="url(#icon__a)"><path d="M126.508 86.275 96.232 17.243A114.393 114.393 0 0 0 68.028 29.61l30.286 69.032 28.194-12.367Zm29.976 11.165 27.407-70.202a116.967 116.967 0 0 0-13.962-6.567 118.714 118.714 0 0 0-14.719-4.64l-27.407 70.244 28.681 11.165Zm-59.06 2.134L27.186 72.179A113.931 113.931 0 0 0 16 100.858l70.237 27.396 11.187-28.68Z" fill="#6FBB84"/><path d="m129.533 169.797 30.286 69.022a113.047 113.047 0 0 0 28.195-12.367l-30.287-69.021-28.194 12.366Zm-43.638-40.083-68.673 30.099a117.336 117.336 0 0 0 5.231 14.5 114.644 114.644 0 0 0 7.157 13.672l68.653-30.109-12.368-28.162Z" fill="#062B3B"/><path d="m169.411 126.669 69.398-30.45a115.892 115.892 0 0 0-5.179-14.501 118.654 118.654 0 0 0-7.137-13.672l-69.398 30.45 12.316 28.173Z" fill="#6FBB84"/><path d="M99.568 158.632 72.18 228.814A116.57 116.57 0 0 0 100.862 240l27.387-70.182-28.681-11.186Zm70.247-30.813-11.187 28.679 70.175 27.375c5-9.02 8.779-18.664 11.239-28.68l-70.227-27.374Z" fill="#062B3B"/></g><defs><clipPath id="icon__a"><path fill="#fff" transform="translate(16 16)" d="M0 0h224v224H0z"/></clipPath></defs></svg>