<svg width="425" height="198" viewBox="0 0 425 198" fill="none" xmlns="http://www.w3.org/2000/svg">
<path d="M411.95 12.7929V125.697C411.95 147.247 394.177 164.848 372.283 164.848H251.48C236.97 164.848 223.232 170.086 212.5 179.788C201.768 170.172 188.03 164.848 173.52 164.848H52.4596C30.7374 164.848 13.1364 147.333 13.1364 125.697V12.7929H411.95ZM218.939 190.52C227.611 181.848 239.202 177.04 251.566 177.04H372.283C400.874 177.04 424.141 154.03 424.141 125.697V0.515137H0.858585V125.611C0.858585 153.944 23.9545 176.955 52.4596 176.955H173.52C185.798 176.955 197.389 181.763 206.146 190.434L212.586 196.874L218.939 190.52V190.52Z" fill="#FFC61E"/>
<path d="M365.5 64.2222C365.5 68 362.495 70.7475 358.717 70.7475C354.939 70.7475 351.934 68 351.934 64.2222C351.934 60.4444 354.939 57.697 358.717 57.697C362.495 57.5252 365.5 60.2727 365.5 64.2222ZM352.793 117.54H364.556V75.7273H352.793V117.54ZM331.672 92.298L347.04 117.54H334.247L323.944 100.798L318.364 107.838V117.54H306.687V57.4394H318.364V85.1717C318.364 90.3232 317.763 95.4747 317.763 95.4747H318.02C318.02 95.4747 320.768 90.9242 323.086 87.6616L332.015 75.7273H345.753L331.672 92.298ZM294.838 90.7525C294.838 80.3636 289.773 74.697 281.702 74.697C274.833 74.697 271.227 78.7323 269.167 82.596H268.909L269.51 75.7273H257.833V117.54H269.51V92.7273C269.51 87.9192 272.343 84.5707 276.722 84.5707C281.101 84.5707 282.99 87.4899 282.99 93.0707V117.54H294.752L294.838 90.7525V90.7525ZM246.586 64.2222C246.586 68 243.581 70.7475 239.803 70.7475C236.025 70.7475 233.02 68 233.02 64.2222C233.02 60.4444 236.025 57.697 239.803 57.697C243.667 57.5252 246.586 60.2727 246.586 64.2222ZM233.879 117.54H245.641V75.7273H233.879V117.54ZM213.616 105.864C213.616 102.515 208.98 101.828 203.571 100.283C197.303 98.6515 189.404 95.4747 189.404 87.4899C189.404 79.5909 196.96 74.6111 205.889 74.6111C214.217 74.6111 221.859 78.5606 225.035 84.1414L214.99 89.8081C213.96 86.1162 210.869 83.197 206.232 83.197C203.227 83.197 200.737 84.4848 200.737 86.9747C200.737 90.1515 206.232 90.4949 212.414 92.4697C218.939 94.5303 224.949 97.5353 224.949 105.177C224.949 113.591 217.136 118.571 208.121 118.571C198.333 118.571 190.606 114.449 187.172 107.753L197.389 102C198.677 106.551 202.369 109.985 207.949 109.985C211.298 109.985 213.616 108.611 213.616 105.864V105.864ZM176.439 57.7828H164.677V105.949C164.677 110.242 165.621 113.419 167.424 115.394C169.313 117.369 172.232 118.313 176.268 118.313C177.641 118.313 179.101 118.141 180.475 117.884C181.934 117.54 183.05 117.111 183.995 116.596L185.025 108.697C184.081 109.04 183.308 109.298 182.535 109.384C181.848 109.556 180.99 109.556 180.045 109.556C178.5 109.556 177.813 109.126 177.298 108.354C176.697 107.581 176.439 106.207 176.439 104.232V57.7828ZM137.288 83.1111C132.995 83.1111 129.475 86.202 128.53 91.8687H145.015C145.101 86.8889 141.838 83.1111 137.288 83.1111ZM155.404 99.7677H128.359C128.874 106.55 132.652 109.899 137.545 109.899C141.924 109.899 144.929 106.98 145.616 103.03L155.49 108.611C152.571 113.934 146.303 118.571 137.545 118.571C125.869 118.571 117.283 110.414 117.283 96.6768C117.283 83.0252 126.04 74.7828 137.288 74.7828C148.535 74.7828 156.005 82.7677 156.005 94.101C155.919 97.4495 155.404 99.7677 155.404 99.7677V99.7677ZM95.5606 117.54H107.753V60.0151H95.5606V82.7677H72.6364V60.101H60.4444V117.54H72.6364V93.7576H95.5606V117.54V117.54Z" fill="#FFC61E"/>
</svg>
