<svg xmlns="http://www.w3.org/2000/svg" viewBox="0 0 480 320"><defs><style>.a{fill:#00792d}.b{fill:#ffd400}.c{fill:#fff}</style></defs><path class="a" d="M30.3 107.89H16.05a2 2 0 01-2-2V96.1H4.66a2 2 0 110-4h11.39a2 2 0 012 2v9.79h11.42l4.4-4.39a2 2 0 011.41-.59h3a2 2 0 010 4h-2.17l-4.39 4.39a2 2 0 01-1.42.59zM449 113.9h-15.3a2 2 0 01-2-2v-5.54h-3.31a2 2 0 110-4h5.31a2 2 0 012 2v5.54H447v-2.73a2 2 0 012-2h6.28V88.09a2 2 0 012-2H470a2 2 0 012 2V108h5a2 2 0 010 4h-7a2 2 0 01-2-2V90.09h-8.74v17.08a2 2 0 01-2 2H451v2.73a2 2 0 01-2 2zM238 110.29h-9.34a2 2 0 010-4H238a2 2 0 010 4zM226.66 86.29H42.03l13.99-64.34h156.66l13.98 64.34z"/><path class="a" d="M226.66 88.29H42a2 2 0 01-2-2.43l14-64.34A2 2 0 0156 20h156.68a2 2 0 011.95 1.57l14 64.34a2 2 0 01-2 2.43zm-182.15-4h179.67L211.07 24H57.63zM426.17 86.29H241.54l13.99-64.34h156.66l13.98 64.34z"/><path class="a" d="M426.17 88.29H241.54a2 2 0 01-2-2.43l14-64.34a2 2 0 012-1.57h156.65a2 2 0 011.95 1.57l14 64.34a2 2 0 01-2 2.43zm-182.17-4h179.69L410.57 24H257.14z"/><path class="b" d="M160.92 88.62V71.38h-1.47c-.22-18.81-12.24-34-27-34s-27 15.46-27 34.52a43.61 43.61 0 00.76 8.09v8.61H45.18v132.51h72.55v5.82h29.36v-5.82h74.68V88.62zM359.48 88.62V71.38H359c-.23-18.81-13.24-34-28-34s-27.05 15.46-27.05 34.52a43.61 43.61 0 00.77 8.09v8.61h-60.98v132.51h72.55v5.82h29.36v-5.82h74.68V88.62z"/><path class="a" d="M73 116.27H60.44a2 2 0 01-2-2V94.68a2 2 0 012-2H73a2 2 0 012 2v19.59a2 2 0 01-2 2zm-10.59-4H71V96.68h-8.56z"/><path class="a" d="M66.74 116.27a2 2 0 01-2-2v-12.59a2 2 0 014 0v12.59a2 2 0 01-2 2z"/><path class="a" d="M72.33 102H61.14a2 2 0 010-4h11.19a2 2 0 010 4zM92.62 116.27H80a2 2 0 01-2-2V94.68a2 2 0 012-2h12.62a2 2 0 012 2v19.59a2 2 0 01-2 2zm-10.59-4h8.59V96.68H82z"/><path class="a" d="M86.32 116.27a2 2 0 01-2-2v-12.59a2 2 0 014 0v12.59a2 2 0 01-2 2z"/><path class="a" d="M91.92 102H80.73a2 2 0 010-4h11.19a2 2 0 010 4zM73 147H60.44a2 2 0 01-2-2v-19.55a2 2 0 012-2H73a2 2 0 012 2V145a2 2 0 01-2 2zm-10.59-4H71v-15.55h-8.56z"/><path class="a" d="M66.74 147a2 2 0 01-2-2v-12.55a2 2 0 014 0V145a2 2 0 01-2 2z"/><path class="a" d="M72.33 132.77H61.14a2 2 0 010-4h11.19a2 2 0 110 4zM92.62 147H80a2 2 0 01-2-2v-19.55a2 2 0 012-2h12.62a2 2 0 012 2V145a2 2 0 01-2 2zM82 143h8.59v-15.55H82z"/><path class="a" d="M86.32 147a2 2 0 01-2-2v-12.55a2 2 0 014 0V145a2 2 0 01-2 2z"/><path class="a" d="M91.92 132.77H80.73a2 2 0 110-4h11.19a2 2 0 010 4zM73 177.81H60.44a2 2 0 01-2-2v-19.58a2 2 0 012-2H73a2 2 0 012 2v19.58a2 2 0 01-2 2zm-10.59-4H71v-15.58h-8.56z"/><path class="a" d="M66.74 177.81a2 2 0 01-2-2v-12.59a2 2 0 014 0v12.59a2 2 0 01-2 2z"/><path class="a" d="M72.33 163.54H61.14a2 2 0 010-4h11.19a2 2 0 110 4zM92.62 177.81H80a2 2 0 01-2-2v-19.58a2 2 0 012-2h12.62a2 2 0 012 2v19.58a2 2 0 01-2 2zm-10.59-4h8.59v-15.58H82z"/><path class="a" d="M86.32 177.81a2 2 0 01-2-2v-12.59a2 2 0 014 0v12.59a2 2 0 01-2 2z"/><path class="a" d="M91.92 163.54H80.73a2 2 0 110-4h11.19a2 2 0 010 4zM130.38 117.66h-12.59a2 2 0 01-2-2V96.08a2 2 0 012-2h12.59a2 2 0 012 2v19.58a2 2 0 01-2 2zm-10.59-4h8.59V98.08h-8.59z"/><path class="a" d="M124.09 117.66a2 2 0 01-2-2v-12.59a2 2 0 014 0v12.59a2 2 0 01-2 2z"/><path class="a" d="M129.68 103.39h-11.19a2 2 0 010-4h11.19a2 2 0 010 4zM150 117.66h-12.62a2 2 0 01-2-2V96.08a2 2 0 012-2H150a2 2 0 012 2v19.58a2 2 0 01-2 2zm-10.59-4H148V98.08h-8.59z"/><path class="a" d="M143.67 117.66a2 2 0 01-2-2v-12.59a2 2 0 014 0v12.59a2 2 0 01-2 2z"/><path class="a" d="M149.27 103.39h-11.19a2 2 0 010-4h11.19a2 2 0 010 4zM130.38 148.44h-12.59a2 2 0 01-2-2v-19.59a2 2 0 012-2h12.59a2 2 0 012 2v19.59a2 2 0 01-2 2zm-10.59-4h8.59v-15.59h-8.59z"/><path class="a" d="M124.09 148.44a2 2 0 01-2-2v-12.59a2 2 0 014 0v12.59a2 2 0 01-2 2z"/><path class="a" d="M129.68 134.17h-11.19a2 2 0 110-4h11.19a2 2 0 010 4zM150 148.44h-12.62a2 2 0 01-2-2v-19.59a2 2 0 012-2H150a2 2 0 012 2v19.59a2 2 0 01-2 2zm-10.59-4H148v-15.59h-8.59z"/><path class="a" d="M143.67 148.44a2 2 0 01-2-2v-12.59a2 2 0 014 0v12.59a2 2 0 01-2 2z"/><path class="a" d="M149.27 134.17h-11.19a2 2 0 010-4h11.19a2 2 0 010 4zM130.38 179.21h-12.59a2 2 0 01-2-2v-19.58a2 2 0 012-2h12.59a2 2 0 012 2v19.58a2 2 0 01-2 2zm-10.59-4h8.59v-15.58h-8.59z"/><path class="a" d="M124.09 179.21a2 2 0 01-2-2v-12.59a2 2 0 014 0v12.59a2 2 0 01-2 2z"/><path class="a" d="M129.68 164.94h-11.19a2 2 0 010-4h11.19a2 2 0 010 4zM150 179.21h-12.62a2 2 0 01-2-2v-19.58a2 2 0 012-2H150a2 2 0 012 2v19.58a2 2 0 01-2 2zm-10.59-4H148v-15.58h-8.59z"/><path class="a" d="M143.67 179.21a2 2 0 01-2-2v-12.59a2 2 0 014 0v12.59a2 2 0 01-2 2z"/><path class="a" d="M149.27 164.94h-11.19a2 2 0 110-4h11.19a2 2 0 110 4zM185.88 116.27h-12.59a2 2 0 01-2-2V94.68a2 2 0 012-2h12.59a2 2 0 012 2v19.59a2 2 0 01-2 2zm-10.59-4h8.59V96.68h-8.59z"/><path class="a" d="M179.59 116.27a2 2 0 01-2-2v-12.59a2 2 0 114 0v12.59a2 2 0 01-2 2z"/><path class="a" d="M185.18 102H174a2 2 0 010-4h11.19a2 2 0 010 4zM205.46 116.27h-12.58a2 2 0 01-2-2V94.68a2 2 0 012-2h12.58a2 2 0 012 2v19.59a2 2 0 01-2 2zm-10.58-4h8.58V96.68h-8.58z"/><path class="a" d="M199.17 116.27a2 2 0 01-2-2v-12.59a2 2 0 014 0v12.59a2 2 0 01-2 2z"/><path class="a" d="M204.76 102h-11.19a2 2 0 010-4h11.19a2 2 0 010 4zM185.88 147h-12.59a2 2 0 01-2-2v-19.55a2 2 0 012-2h12.59a2 2 0 012 2V145a2 2 0 01-2 2zm-10.59-4h8.59v-15.55h-8.59z"/><path class="a" d="M179.59 147a2 2 0 01-2-2v-12.55a2 2 0 014 0V145a2 2 0 01-2 2z"/><path class="a" d="M185.18 132.77H174a2 2 0 010-4h11.19a2 2 0 010 4zM205.46 147h-12.58a2 2 0 01-2-2v-19.55a2 2 0 012-2h12.58a2 2 0 012 2V145a2 2 0 01-2 2zm-10.58-4h8.58v-15.55h-8.58z"/><path class="a" d="M199.17 147a2 2 0 01-2-2v-12.55a2 2 0 014 0V145a2 2 0 01-2 2z"/><path class="a" d="M204.76 132.77h-11.19a2 2 0 010-4h11.19a2 2 0 010 4zM185.88 177.81h-12.59a2 2 0 01-2-2v-19.58a2 2 0 012-2h12.59a2 2 0 012 2v19.58a2 2 0 01-2 2zm-10.59-4h8.59v-15.58h-8.59z"/><path class="a" d="M179.59 177.81a2 2 0 01-2-2v-12.59a2 2 0 014 0v12.59a2 2 0 01-2 2z"/><path class="a" d="M185.18 163.54H174a2 2 0 010-4h11.19a2 2 0 010 4zM205.46 177.81h-12.58a2 2 0 01-2-2v-19.58a2 2 0 012-2h12.58a2 2 0 012 2v19.58a2 2 0 01-2 2zm-10.58-4h8.58v-15.58h-8.58z"/><path class="a" d="M199.17 177.81a2 2 0 01-2-2v-12.59a2 2 0 014 0v12.59a2 2 0 01-2 2z"/><path class="a" d="M204.76 163.54h-11.19a2 2 0 010-4h11.19a2 2 0 010 4zM144.14 219.77h-19.59a2 2 0 01-2-2V194a11.8 11.8 0 0123.59 0v23.78a2 2 0 01-2 1.99zm-17.59-4h15.59V194a7.8 7.8 0 00-15.59 0z"/><path class="a" d="M129.68 193.99h9.36v23.78h-9.36z"/><path class="a" d="M139.05 219.77h-9.37a2 2 0 01-2-2V194a2 2 0 012-2h9.37a2 2 0 012 2v23.78a2 2 0 01-2 1.99zm-7.37-4h5.37V196h-5.37z"/><path class="a" d="M222.53 222.57H164.8a2 2 0 010-4h55.73V88.29H47.2v130.28h52.48a2 2 0 010 4H45.2a2 2 0 01-2-2V86.29a2 2 0 012-2h177.33a2 2 0 012 2v134.28a2 2 0 01-2 2z"/><path class="a" d="M99.94 200.19H45.2a2 2 0 110-4h54.74a2 2 0 010 4zM124.55 201.59h-18.88a2 2 0 110-4h18.88a2 2 0 010 4zM160.23 201.59h-16.09a2 2 0 010-4h16.09a2 2 0 010 4zM222.53 199.81h-57.28a2 2 0 010-4h57.28a2 2 0 110 4z"/><path class="a" d="M160.92 225.5h-8.76a2 2 0 110-4h6.76V88.29H107V221.5h8.82a2 2 0 110 4H105a2 2 0 01-2-2V86.29a2 2 0 012-2h55.95a2 2 0 012 2V223.5a2 2 0 01-2.03 2z"/><path class="a" d="M160.92 88.29H105a2 2 0 01-2-2V66c0-7.4 3.18-15.11 8.72-21.17 5.88-6.43 13.43-10 21.26-10s15.37 3.54 21.25 10c5.54 6.06 8.72 13.77 8.72 21.17v20.29a2 2 0 01-2.03 2zm-53.95-4h51.95V66c0-12.55-11.34-27.14-26-27.14S107 53.47 107 66z"/><path class="b" d="M166.92 92.29a2 2 0 01-2-2V66.13c0-18.66-17.19-33.13-32-33.13C114.68 33 101 49.65 101 64.53v25.76a2 2 0 01-4 0V64.53c0-8.6 3.79-17.46 10.4-24.31A35.32 35.32 0 01133 29c20.26 0 36 20 36 37.13v24.16a2 2 0 01-2.08 2z"/><path class="a" d="M148.33 64.32h-30.77a2 2 0 01-2-2 17.39 17.39 0 1134.77 0 2 2 0 01-2 2zm-28.62-4h26.47a13.38 13.38 0 00-26.47 0zM128.75 81.61h-14a2 2 0 01-2-2v-8.39a2 2 0 012-2h14a2 2 0 012 2v8.39a2 2 0 01-2 2zm-12-4h10v-4.39h-10zM151.13 81.61h-14a2 2 0 01-2-2v-8.39a2 2 0 012-2h14a2 2 0 012 2v8.39a2 2 0 01-2 2zm-12-4h10v-4.39h-10zM92.38 192.5H60.21a2 2 0 01-2-2v-7a2 2 0 012-2h32.17a2 2 0 012 2v7a2 2 0 01-2 2zm-30.17-4h28.17v-3H62.21zM205.68 192.5h-32.17a2 2 0 01-2-2v-7a2 2 0 012-2h32.17a2 2 0 012 2v7a2 2 0 01-2 2zm-30.17-4h28.17v-3h-28.17z"/><path class="a" d="M133 64.32a2 2 0 01-2-2v-6.8a2 2 0 014 0v6.8a2 2 0 01-2 2z"/><path class="a" d="M145.73 57.52h-26.42a2 2 0 010-4h26.42a2 2 0 010 4z"/><path class="b" d="M97.43 81H43.61a2 2 0 010-4h53.82a2 2 0 010 4zM224.18 81h-56a2 2 0 010-4h56a2 2 0 010 4z"/><path class="a" d="M53.65 222.57a2 2 0 01-2-2V86.29a2 2 0 014 0v134.28a2 2 0 01-2 2zM214.44 222.57a2 2 0 01-2-2V86.29a2 2 0 014 0v134.28a2 2 0 01-2 2zM147.86 228.39h-28a2 2 0 01-2-2v-8.62a2 2 0 012-2h28a2 2 0 012 2v8.62a2 2 0 01-2 2zm-26-4h24v-4.62h-24zM92.38 209.09H60.21a2 2 0 01-2-2v-8.9a2 2 0 014 0v6.9h28.17v-6.9a2 2 0 014 0v8.9a2 2 0 01-2 2zM205.68 209.09h-32.17a2 2 0 01-2-2v-8.9a2 2 0 014 0v6.9h28.17v-6.9a2 2 0 014 0v8.9a2 2 0 01-2 2zM272.54 116.27H260a2 2 0 01-2-2V94.68a2 2 0 012-2h12.59a2 2 0 012 2v19.59a2 2 0 01-2.05 2zm-10.59-4h8.59V96.68H262z"/><path class="a" d="M266.25 116.27a2 2 0 01-2-2v-12.59a2 2 0 014 0v12.59a2 2 0 01-2 2z"/><path class="a" d="M271.84 102h-11.19a2 2 0 010-4h11.19a2 2 0 010 4zM292.13 116.27h-12.59a2 2 0 01-2-2V94.68a2 2 0 012-2h12.59a2 2 0 012 2v19.59a2 2 0 01-2 2zm-10.59-4h8.59V96.68h-8.59z"/><path class="a" d="M285.83 116.27a2 2 0 01-2-2v-12.59a2 2 0 014 0v12.59a2 2 0 01-2 2z"/><path class="a" d="M291.43 102h-11.19a2 2 0 010-4h11.19a2 2 0 010 4zM272.54 147H260a2 2 0 01-2-2v-19.55a2 2 0 012-2h12.59a2 2 0 012 2V145a2 2 0 01-2.05 2zM262 143h8.59v-15.55H262z"/><path class="a" d="M266.25 147a2 2 0 01-2-2v-12.55a2 2 0 014 0V145a2 2 0 01-2 2z"/><path class="a" d="M271.84 132.77h-11.19a2 2 0 010-4h11.19a2 2 0 010 4zM292.13 147h-12.59a2 2 0 01-2-2v-19.55a2 2 0 012-2h12.59a2 2 0 012 2V145a2 2 0 01-2 2zm-10.59-4h8.59v-15.55h-8.59z"/><path class="a" d="M285.83 147a2 2 0 01-2-2v-12.55a2 2 0 014 0V145a2 2 0 01-2 2z"/><path class="a" d="M291.43 132.77h-11.19a2 2 0 010-4h11.19a2 2 0 010 4zM272.54 177.81H260a2 2 0 01-2-2v-19.58a2 2 0 012-2h12.59a2 2 0 012 2v19.58a2 2 0 01-2.05 2zm-10.59-4h8.59v-15.58H262z"/><path class="a" d="M266.25 177.81a2 2 0 01-2-2v-12.59a2 2 0 014 0v12.59a2 2 0 01-2 2z"/><path class="a" d="M271.84 163.54h-11.19a2 2 0 010-4h11.19a2 2 0 010 4zM292.13 177.81h-12.59a2 2 0 01-2-2v-19.58a2 2 0 012-2h12.59a2 2 0 012 2v19.58a2 2 0 01-2 2zm-10.59-4h8.59v-15.58h-8.59z"/><path class="a" d="M285.83 177.81a2 2 0 01-2-2v-12.59a2 2 0 114 0v12.59a2 2 0 01-2 2z"/><path class="a" d="M291.43 163.54h-11.19a2 2 0 010-4h11.19a2 2 0 010 4zM329.89 117.66H317.3a2 2 0 01-2-2V96.08a2 2 0 012-2h12.59a2 2 0 012 2v19.58a2 2 0 01-2 2zm-10.59-4h8.59V98.08h-8.59z"/><path class="a" d="M323.6 117.66a2 2 0 01-2-2v-12.59a2 2 0 014 0v12.59a2 2 0 01-2 2z"/><path class="a" d="M329.19 103.39H318a2 2 0 010-4h11.19a2 2 0 010 4zM349.48 117.66h-12.59a2 2 0 01-2-2V96.08a2 2 0 012-2h12.59a2 2 0 012 2v19.58a2 2 0 01-2 2zm-10.59-4h8.59V98.08h-8.59z"/><path class="a" d="M343.18 117.66a2 2 0 01-2-2v-12.59a2 2 0 014 0v12.59a2 2 0 01-2 2z"/><path class="a" d="M348.78 103.39h-11.19a2 2 0 010-4h11.19a2 2 0 010 4zM329.89 148.44H317.3a2 2 0 01-2-2v-19.59a2 2 0 012-2h12.59a2 2 0 012 2v19.59a2 2 0 01-2 2zm-10.59-4h8.59v-15.59h-8.59z"/><path class="a" d="M323.6 148.44a2 2 0 01-2-2v-12.59a2 2 0 014 0v12.59a2 2 0 01-2 2z"/><path class="a" d="M329.19 134.17H318a2 2 0 010-4h11.19a2 2 0 010 4zM349.48 148.44h-12.59a2 2 0 01-2-2v-19.59a2 2 0 012-2h12.59a2 2 0 012 2v19.59a2 2 0 01-2 2zm-10.59-4h8.59v-15.59h-8.59z"/><path class="a" d="M343.18 148.44a2 2 0 01-2-2v-12.59a2 2 0 114 0v12.59a2 2 0 01-2 2z"/><path class="a" d="M348.78 134.17h-11.19a2 2 0 010-4h11.19a2 2 0 010 4zM329.89 179.21H317.3a2 2 0 01-2-2v-19.58a2 2 0 012-2h12.59a2 2 0 012 2v19.58a2 2 0 01-2 2zm-10.59-4h8.59v-15.58h-8.59z"/><path class="a" d="M323.6 179.21a2 2 0 01-2-2v-12.59a2 2 0 014 0v12.59a2 2 0 01-2 2z"/><path class="a" d="M329.19 164.94H318a2 2 0 010-4h11.19a2 2 0 010 4zM349.48 179.21h-12.59a2 2 0 01-2-2v-19.58a2 2 0 012-2h12.59a2 2 0 012 2v19.58a2 2 0 01-2 2zm-10.59-4h8.59v-15.58h-8.59z"/><path class="a" d="M343.18 179.21a2 2 0 01-2-2v-12.59a2 2 0 014 0v12.59a2 2 0 01-2 2z"/><path class="a" d="M348.78 164.94h-11.19a2 2 0 010-4h11.19a2 2 0 010 4zM385.39 116.27H372.8a2 2 0 01-2-2V94.68a2 2 0 012-2h12.59a2 2 0 012 2v19.59a2 2 0 01-2 2zm-10.59-4h8.59V96.68h-8.59z"/><path class="a" d="M379.1 116.27a2 2 0 01-2-2v-12.59a2 2 0 014 0v12.59a2 2 0 01-2 2z"/><path class="a" d="M384.69 102H373.5a2 2 0 010-4h11.19a2 2 0 010 4zM405 116.27h-12.62a2 2 0 01-2-2V94.68a2 2 0 012-2H405a2 2 0 012 2v19.59a2 2 0 01-2 2zm-10.59-4H403V96.68h-8.59z"/><path class="a" d="M398.68 116.27a2 2 0 01-2-2v-12.59a2 2 0 014 0v12.59a2 2 0 01-2 2z"/><path class="a" d="M404.27 102h-11.19a2 2 0 010-4h11.19a2 2 0 010 4zM385.39 147H372.8a2 2 0 01-2-2v-19.55a2 2 0 012-2h12.59a2 2 0 012 2V145a2 2 0 01-2 2zm-10.59-4h8.59v-15.55h-8.59z"/><path class="a" d="M379.1 147a2 2 0 01-2-2v-12.55a2 2 0 014 0V145a2 2 0 01-2 2z"/><path class="a" d="M384.69 132.77H373.5a2 2 0 010-4h11.19a2 2 0 010 4zM405 147h-12.62a2 2 0 01-2-2v-19.55a2 2 0 012-2H405a2 2 0 012 2V145a2 2 0 01-2 2zm-10.59-4H403v-15.55h-8.59z"/><path class="a" d="M398.68 147a2 2 0 01-2-2v-12.55a2 2 0 014 0V145a2 2 0 01-2 2z"/><path class="a" d="M404.27 132.77h-11.19a2 2 0 010-4h11.19a2 2 0 010 4zM385.39 177.81H372.8a2 2 0 01-2-2v-19.58a2 2 0 012-2h12.59a2 2 0 012 2v19.58a2 2 0 01-2 2zm-10.59-4h8.59v-15.58h-8.59z"/><path class="a" d="M379.1 177.81a2 2 0 01-2-2v-12.59a2 2 0 014 0v12.59a2 2 0 01-2 2z"/><path class="a" d="M384.69 163.54H373.5a2 2 0 010-4h11.19a2 2 0 010 4zM405 177.81h-12.62a2 2 0 01-2-2v-19.58a2 2 0 012-2H405a2 2 0 012 2v19.58a2 2 0 01-2 2zm-10.59-4H403v-15.58h-8.59z"/><path class="a" d="M398.68 177.81a2 2 0 01-2-2v-12.59a2 2 0 114 0v12.59a2 2 0 01-2 2z"/><path class="a" d="M404.27 163.54h-11.19a2 2 0 010-4h11.19a2 2 0 010 4zM343.65 219.77h-19.59a2 2 0 01-2-2V194a11.8 11.8 0 0123.59 0v23.78a2 2 0 01-2 1.99zm-17.59-4h15.59V194a7.8 7.8 0 00-15.59 0z"/><path class="a" d="M329.19 193.99h9.36v23.78h-9.36z"/><path class="a" d="M338.56 219.77h-9.37a2 2 0 01-2-2V194a2 2 0 012-2h9.37a2 2 0 012 2v23.78a2 2 0 01-2 1.99zm-7.37-4h5.37V196h-5.37z"/><path class="a" d="M422 222.57h-57.69a2 2 0 010-4H420V88.29H246.71v130.28h52.48a2 2 0 010 4h-54.48a2 2 0 01-2-2V86.29a2 2 0 012-2H422a2 2 0 012 2v134.28a2 2 0 01-2 2z"/><path class="a" d="M299.45 200.19h-54.74a2 2 0 110-4h54.74a2 2 0 010 4zM324.06 201.59h-18.88a2 2 0 010-4h18.88a2 2 0 010 4zM359.74 201.59h-16.09a2 2 0 010-4h16.09a2 2 0 010 4zM422 199.81h-57.24a2 2 0 010-4H422a2 2 0 010 4z"/><path class="a" d="M360.43 225.5h-8.74a2 2 0 010-4h6.74V88.29h-51.95V221.5h8.14a2 2 0 010 4h-10.14a2 2 0 01-2-2V86.29a2 2 0 012-2h55.95a2 2 0 012 2V223.5a2 2 0 01-2 2z"/><path class="a" d="M360.43 88.29h-55.95a2 2 0 01-2-2V66c0-7.4 3.18-15.11 8.72-21.17 5.88-6.43 13.43-10 21.26-10s15.37 3.54 21.25 10c5.54 6.06 8.72 13.77 8.72 21.17v20.29a2 2 0 01-2 2zm-53.95-4h51.95V66c0-12.55-11.34-27.14-26-27.14s-26 14.59-26 27.14z"/><path class="b" d="M366.43 92.29a2 2 0 01-2-2V66.13c0-18.66-17.19-33.13-32-33.13-18.27 0-31.91 16.65-31.91 31.53v25.76a2 2 0 11-4 0V64.53c0-8.6 3.79-17.46 10.39-24.31A35.36 35.36 0 01332.46 29c20.26 0 36 20 36 37.13v24.16a2 2 0 01-2.03 2z"/><path class="a" d="M347.84 64.32h-30.77a2 2 0 01-2-2 17.39 17.39 0 1134.77 0 2 2 0 01-2 2zm-28.62-4h26.47a13.38 13.38 0 00-26.47 0zM328.26 81.61h-14a2 2 0 01-2-2v-8.39a2 2 0 012-2h14a2 2 0 012 2v8.39a2 2 0 01-2 2zm-12-4h10v-4.39h-10zM350.64 81.61h-14a2 2 0 01-2-2v-8.39a2 2 0 012-2h14a2 2 0 012 2v8.39a2 2 0 01-2 2zm-12-4h10v-4.39h-10zM291.89 192.5h-32.17a2 2 0 01-2-2v-7a2 2 0 012-2h32.17a2 2 0 012 2v7a2 2 0 01-2 2zm-30.17-4h28.17v-3h-28.17zM405.19 192.5H373a2 2 0 01-2-2v-7a2 2 0 012-2h32.17a2 2 0 012 2v7a2 2 0 01-1.98 2zm-30.17-4h28.17v-3H375z"/><path class="a" d="M332.46 64.32a2 2 0 01-2-2v-6.8a2 2 0 114 0v6.8a2 2 0 01-2 2z"/><path class="a" d="M345.24 57.52h-26.42a2 2 0 010-4h26.42a2 2 0 010 4z"/><path class="b" d="M296.94 81h-53.82a2 2 0 010-4h53.82a2 2 0 010 4zM423.69 81h-56a2 2 0 010-4h56a2 2 0 010 4z"/><path class="a" d="M253.16 222.57a2 2 0 01-2-2V86.29a2 2 0 114 0v134.28a2 2 0 01-2 2zM414 222.57a2 2 0 01-2-2V86.29a2 2 0 014 0v134.28a2 2 0 01-2 2zM347.37 228.39h-28a2 2 0 01-2-2v-8.62a2 2 0 012-2h28a2 2 0 012 2v8.62a2 2 0 01-2 2zm-26-4h24v-4.62h-24zM291.89 209.09h-32.17a2 2 0 01-2-2v-8.9a2 2 0 014 0v6.9h28.17v-6.9a2 2 0 014 0v8.9a2 2 0 01-2 2zM405.19 209.09H373a2 2 0 01-2-2v-8.9a2 2 0 014 0v6.9h28.17v-6.9a2 2 0 014 0v8.9a2 2 0 01-1.98 2zM453.35 256.63H32a2 2 0 110-4h421.4a2 2 0 010 4zM472.57 248.64H12.73a2 2 0 010-4h459.84a2 2 0 110 4zM469.64 277.45H47.54a2 2 0 010-4h422.1a2 2 0 010 4z"/><path class="c" d="M26.04 267.08h81.2v16.73h-81.2z"/><path class="a" d="M85.71 279a11.1 11.1 0 01-6.08-1.68 7.84 7.84 0 00-8.24 0 11.82 11.82 0 01-12.15 0 7.84 7.84 0 00-8.24 0 11.82 11.82 0 01-12.15 0 7.11 7.11 0 00-4.12-1.17 2 2 0 010-4 11 11 0 016.07 1.68 7.86 7.86 0 008.25 0 11.82 11.82 0 0112.15 0 7.84 7.84 0 008.24 0 11.82 11.82 0 0112.15 0 7.84 7.84 0 008.24 0 11.07 11.07 0 016.08-1.68 2 2 0 010 4 7.14 7.14 0 00-4.13 1.17 11 11 0 01-6.07 1.68z"/><path class="c" d="M244.85 266.38h81.2v16.73h-81.2z"/><path class="a" d="M304.52 278.26a11.1 11.1 0 01-6.08-1.68 7.78 7.78 0 00-8.24 0 11.82 11.82 0 01-12.15 0 7.78 7.78 0 00-8.24 0 11.82 11.82 0 01-12.15 0 7.1 7.1 0 00-4.12-1.18 2 2 0 110-4 11.09 11.09 0 016.08 1.69 7.84 7.84 0 008.24 0 11.76 11.76 0 0112.15 0 7.84 7.84 0 008.24 0 11.76 11.76 0 0112.15 0 7.84 7.84 0 008.24 0 11.09 11.09 0 016.08-1.69 2 2 0 010 4 7.1 7.1 0 00-4.12 1.18 11.1 11.1 0 01-6.08 1.68zM367.19 297a11.06 11.06 0 01-6.07-1.68 7.84 7.84 0 00-8.24 0 11.82 11.82 0 01-12.15 0 7.86 7.86 0 00-8.25 0 11.82 11.82 0 01-12.15 0 7.18 7.18 0 00-4.12-1.17 2 2 0 110-4 11.1 11.1 0 016.08 1.68 7.84 7.84 0 008.24 0 11.82 11.82 0 0112.15 0 7.84 7.84 0 008.24 0 11.82 11.82 0 0112.15 0 7.84 7.84 0 008.24 0 11.1 11.1 0 016.08-1.68 2 2 0 010 4 7.18 7.18 0 00-4.12 1.17 11.1 11.1 0 01-6.08 1.68zM131.93 318.21a11.06 11.06 0 01-6.07-1.68 7.78 7.78 0 00-8.24 0 11.84 11.84 0 01-12.16 0 7.78 7.78 0 00-8.24 0 11.82 11.82 0 01-12.15 0 7.1 7.1 0 00-4.07-1.18 2 2 0 110-4 11.09 11.09 0 016 1.65 7.84 7.84 0 008.24 0 11.76 11.76 0 0112.15 0 7.84 7.84 0 008.24 0 11.76 11.76 0 0112.15 0 7.84 7.84 0 008.24 0 11.09 11.09 0 016.08-1.69 2 2 0 010 4 7.1 7.1 0 00-4.12 1.18 11.1 11.1 0 01-6.05 1.72zM224.12 299.87a11.09 11.09 0 01-6.08-1.69 7.84 7.84 0 00-8.24 0 11.76 11.76 0 01-12.15 0 7.84 7.84 0 00-8.24 0 11.76 11.76 0 01-12.15 0 7.21 7.21 0 00-4.12-1.17 2 2 0 010-4 11.06 11.06 0 016.07 1.68 7.78 7.78 0 008.24 0 11.82 11.82 0 0112.15 0 7.78 7.78 0 008.24 0 11.84 11.84 0 0112.16 0 7.78 7.78 0 008.24 0 11.06 11.06 0 016.07-1.68 2 2 0 010 4 7.18 7.18 0 00-4.12 1.17 11.05 11.05 0 01-6.07 1.69zM460 308.8a11.1 11.1 0 01-6.08-1.68 7.84 7.84 0 00-8.24 0 11.82 11.82 0 01-12.15 0 7.84 7.84 0 00-8.24 0 11.82 11.82 0 01-12.15 0 7.13 7.13 0 00-4.12-1.17 2 2 0 010-4 11.06 11.06 0 016.07 1.68 7.84 7.84 0 008.24 0 11.82 11.82 0 0112.15 0 7.86 7.86 0 008.25 0 11.82 11.82 0 0112.15 0 7.84 7.84 0 008.24 0 11.06 11.06 0 016.07-1.68 2 2 0 010 4 7.13 7.13 0 00-4.12 1.17 11.06 11.06 0 01-6.07 1.68z"/><path class="c" d="M439.54 172.63h6.2v48.18h-6.2z"/><path class="c" d="M432.58 200c-4.28 3.2-9 3-12.42-5-2.29-5.35 0-12.56 4.57-14.84s7.44-1.12 7.44-1.12-8.58-5.73-4-13.73 11.41-11.41 19.41-10.27c8.6 1.23 11.41 8 10.27 11.42a7.89 7.89 0 01-3.42 4.56 9.07 9.07 0 019.13 1.14c4.57 3.43 5.82 16.14 1.14 19.41-6.86 4.8-12.1.46-12.1.46"/><path class="a" d="M427.61 203.88a7.61 7.61 0 01-1.9-.24c-3-.81-5.48-3.46-7.38-7.88-2.72-6.32-.09-14.62 5.51-17.42a16 16 0 013.47-1.29c-2.32-3.16-3.78-7.7-.89-12.76 4.88-8.54 12.49-12.54 21.43-11.26 6.34.91 9.37 4.4 10.6 6.4a9.32 9.32 0 011.29 7.63c-.15.45-.32.86-.49 1.25a11.05 11.05 0 015.5 2.22c3.49 2.62 5 8.54 4.89 13.25-.07 4.4-1.42 7.74-3.8 9.4-6.42 4.49-12.31 2.2-14.52.36a2 2 0 112.55-3.08c.15.13 4.21 3.27 9.67-.56 1.25-.87 2-3.24 2.1-6.19.07-4.16-1.38-8.54-3.29-10a7 7 0 00-7.05-.94 2 2 0 01-1.82-3.56 6.13 6.13 0 002.42-3.41 5.48 5.48 0 00-.89-4.26c-.87-1.4-3-3.87-7.77-4.54-7.3-1-13.32 2.17-17.39 9.29-3.6 6.3 3.1 10.87 3.39 11.06a2 2 0 01-1.87 3.52s-2.2-.74-5.78 1-5.49 7.93-3.63 12.27c1.37 3.2 3 5.13 4.74 5.59 1.34.36 2.9-.12 4.64-1.42a2 2 0 012.4 3.2 10.37 10.37 0 01-6.13 2.37z"/><path class="a" d="M433.65 225.51a2 2 0 01-.88-3.79c.88-.45 3.35-2.07 4.06-4.2s.91-22.84.78-41.12a2 2 0 012-2 2 2 0 012 2c0 6.46.21 38.85-1 42.41-1.39 4.17-5.91 6.43-6.1 6.53a2.09 2.09 0 01-.86.17zM451.19 224.37c-.37 0-3.66-.13-5.48-4.68-1.24-3.09-2.17-36.27-2.43-46.36a2 2 0 012-2.05 2 2 0 012 1.95c.41 16.05 1.35 42.47 2.16 45 .79 2 1.82 2.13 1.86 2.13h-.11z"/><path class="c" d="M429.33 187.93l8.64 6.21"/><path class="a" d="M438 196.14a2 2 0 01-1.17-.38l-8.63-6.2a2 2 0 112.33-3.25l8.63 6.2a2 2 0 01-1.16 3.63z"/><path class="c" d="M446.59 186.4l9.22-7.98"/><path class="a" d="M446.6 188.4a2 2 0 01-1.52-.69 2 2 0 01.21-2.82l9.21-8a2 2 0 112.62 3l-9.22 8a2 2 0 01-1.3.51z"/><path class="c" d="M39.74 186.12h6.2v48.18h-6.2z"/><path class="c" d="M52.9 213.44c4.28 3.2 9 3 12.42-5 2.29-5.35 0-12.56-4.57-14.85s-7.44-1.11-7.44-1.11 8.58-5.74 4-13.73-11.41-11.41-19.4-10.27c-8.61 1.23-11.42 8-10.28 11.41a7.89 7.89 0 003.43 4.57 9.09 9.09 0 00-9.14 1.14c-4.56 3.43-5.82 16.14-1.14 19.41 6.86 4.8 12.1.46 12.1.46"/><path class="a" d="M57.87 217.37A10.46 10.46 0 0151.7 215a2 2 0 012.4-3.21c1.74 1.31 3.3 1.79 4.64 1.43 1.73-.46 3.37-2.4 4.74-5.59 1.86-4.35.07-10.42-3.62-12.27s-5.74-1.07-5.83-1a2 2 0 01-2.48-1 2 2 0 01.65-2.55c.71-.48 6.9-4.92 3.39-11.07-4.07-7.12-10.09-10.32-17.39-9.28-4.73.67-6.9 3.13-7.77 4.54a5.48 5.48 0 00-.89 4.26 6.08 6.08 0 002.46 3.45 2 2 0 01-1.79 3.57 7.08 7.08 0 00-7 .95c-1.91 1.44-3.36 5.82-3.29 10 .05 3 .85 5.32 2.1 6.19 5.46 3.82 9.52.69 9.69.55a2 2 0 012.8.3 2 2 0 01-.27 2.79c-2.21 1.84-8.1 4.13-14.52-.36-2.38-1.67-3.73-5-3.8-9.4-.08-4.71 1.41-10.63 4.89-13.25a11 11 0 015.51-2.22 13 13 0 01-.5-1.25 9.32 9.32 0 011.18-7.66c1.24-2 4.26-5.5 10.6-6.4 8.94-1.28 16.55 2.72 21.43 11.26a11.15 11.15 0 01-.89 12.76 16.24 16.24 0 013.47 1.28c5.6 2.8 8.23 11.11 5.51 17.43-1.9 4.42-4.38 7.07-7.37 7.87a7.26 7.26 0 01-1.88.25z"/><path class="a" d="M51.83 239a2 2 0 01-.88-.21c-.19-.09-4.71-2.35-6.1-6.52-1.18-3.56-1-36-1-42.41a2 2 0 012-2 2 2 0 012 2c-.12 18.27.11 38.9.78 41.12.85 2.56 4 4.18 4.06 4.19a2 2 0 01-.88 3.8zM34.29 237.86v-4a.31.31 0 00-.11 0s1.07-.16 1.88-2.17c.79-2.5 1.73-28.92 2.14-45a2 2 0 012-2 2 2 0 012 2c-.26 10.09-1.19 43.26-2.43 46.36-1.77 4.68-5.11 4.81-5.48 4.81z"/><path class="c" d="M56.15 201.42l-8.64 6.2"/><path class="a" d="M47.52 209.62a2 2 0 01-1.17-3.62l8.65-6.2a2 2 0 112.32 3.2l-8.64 6.21a2 2 0 01-1.16.41z"/><path class="c" d="M38.89 199.89l-9.22-7.98"/><path class="a" d="M38.89 201.89a2 2 0 01-1.31-.49l-9.22-8a2 2 0 012.62-3l9.22 8a2 2 0 01-1.31 3.51z"/><path class="c" d="M408.81 185.13h5.57v43.25h-5.57z"/><path class="c" d="M401.27 215.11c-6.83 0-14.56-4.7-14.93-13.46-.22-5.16 3.94-9.13 6.44-11a90.25 90.25 0 019.59-5.84s-7.84 0-6.14-9.12a15.53 15.53 0 0115.09-12.53c5.65-.06 11 2.47 12.56 10.16.71 3.57-1.85 7.23-1.85 7.23s.79.38 5 4.26c5.72 5.24 7.65 12.79 4.31 17-5.25 6.61-10.89 5.58-10.89 5.58"/><path class="a" d="M401.27 217.11c-10.57 0-16.61-7.92-16.93-15.37-.27-6.44 5-11 7.25-12.67 1.84-1.34 4-2.69 5.86-3.77a7.36 7.36 0 01-1.59-1.44c-1.73-2.07-2.26-4.93-1.6-8.5a17.49 17.49 0 0117-14.17h.19c7.64 0 12.87 4.29 14.35 11.79a11.57 11.57 0 01-1.2 7.07c1.13.93 2.56 2.21 3.78 3.33 6.54 6 8.53 14.65 4.52 19.7-5.93 7.45-12.54 6.35-12.82 6.3a2 2 0 01.72-3.94c.16 0 4.6.64 9-4.85 2.67-3.36.84-9.75-4.09-14.26a45.79 45.79 0 00-4.65-4 2 2 0 01-.67-2.9c.58-.82 2-3.47 1.53-5.69-1.12-5.68-4.63-8.56-10.42-8.56h-.16a13.47 13.47 0 00-13.14 10.92c-.44 2.32-.2 4.07.72 5.19a5.05 5.05 0 003.47 1.56 2 2 0 01.91 3.77 89.22 89.22 0 00-9.3 5.68c-1.75 1.28-5.81 4.76-5.62 9.27.31 7.5 6.9 11.54 12.93 11.54a2 2 0 010 4z"/><path class="a" d="M403.52 232.8a2 2 0 01-.88-3.8c.77-.39 2.93-1.8 3.54-3.65.59-2.12.77-22.3.63-40.21a2 2 0 012-2 2 2 0 012 2c.07 8.94.22 38.36-.83 41.51-1.26 3.76-5.14 5.76-5.58 6a2 2 0 01-.88.15zM419.63 234.33c-.34 0-3.42-.12-5.11-4.33-1.09-2.73-1.87-37.57-2.15-52.43a2 2 0 014-.07c.35 18.37 1.17 48.49 1.9 51.1.64 1.59 1.46 1.74 1.49 1.74h-.13z"/><path class="c" d="M408.4 202.62l-11.52-2.09"/><path class="a" d="M408.4 204.62a2.19 2.19 0 01-.36 0l-11.52-2.09a2 2 0 11.72-3.94l11.52 2.09a2 2 0 01-.36 4z"/><path class="c" d="M416.26 197.85l6.1-2.11"/><path class="a" d="M416.26 199.85a2 2 0 01-.65-3.89l6.09-2.11a2 2 0 111.31 3.78l-6.09 2.11a2.17 2.17 0 01-.66.11z"/><path class="c" d="M238.75 188.78h5.57v43.25h-5.57z"/><path class="c" d="M251.85 218.77c6.83 0 14.56-4.71 14.93-13.46.22-5.17-3.94-9.14-6.44-11a89.05 89.05 0 00-9.6-5.83s7.85 0 6.15-9.12a15.55 15.55 0 00-15.09-12.54c-5.65 0-11 2.47-12.56 10.17-.71 3.57 1.84 7.23 1.84 7.23s-.78.37-5 4.26c-5.71 5.24-7.64 12.78-4.3 17 5.25 6.6 10.89 5.57 10.89 5.57"/><path class="a" d="M251.85 220.77a2 2 0 010-4c6 0 12.61-4.05 12.93-11.55.19-4.5-3.87-8-5.62-9.27a89.45 89.45 0 00-9.34-5.67 2 2 0 01.92-3.77 5.08 5.08 0 003.46-1.57c.91-1.12 1.16-2.86.72-5.19a13.47 13.47 0 00-13.14-10.9h-.16c-5.79 0-9.3 2.88-10.42 8.56-.44 2.21 1 4.86 1.53 5.7a2 2 0 01.28 1.65 2 2 0 01-.95 1.23 49 49 0 00-4.65 4c-4.93 4.51-6.76 10.91-4.1 14.26 4.39 5.52 8.93 4.87 9 4.86A2 2 0 11233 213c-.28.05-6.89 1.16-12.82-6.3-4-5-2-13.7 4.52-19.7 1.22-1.11 2.65-2.39 3.78-3.33a11.55 11.55 0 01-1.21-7.07c1.5-7.56 6.77-11.85 14.55-11.78a17.48 17.48 0 0117 14.17c.66 3.56.13 6.42-1.6 8.5a7.6 7.6 0 01-1.59 1.44 67.08 67.08 0 015.85 3.77c2.28 1.66 7.53 6.23 7.26 12.66-.28 7.48-6.32 15.41-16.89 15.41z"/><path class="a" d="M249.6 236.45a2 2 0 01-.88-.2c-.44-.22-4.32-2.22-5.58-6-1-3.14-.9-32.56-.83-41.5a2 2 0 012-2 2 2 0 012 2c-.14 17.9 0 38.09.63 40.23.62 1.84 2.82 3.27 3.54 3.63a2 2 0 01-.88 3.79zM233.49 238v-4h-.13s.85-.16 1.52-1.83c.7-2.53 1.52-32.65 1.87-51a2 2 0 012-2 2 2 0 012 2c-.29 14.85-1.06 49.69-2.15 52.43-1.69 4.27-4.77 4.4-5.11 4.4z"/><path class="c" d="M244.72 206.28l11.52-2.1"/><path class="a" d="M244.72 208.28a2 2 0 01-.36-4l11.52-2.09a2 2 0 11.72 3.93l-11.52 2.09a1.47 1.47 0 01-.36.07z"/><path class="c" d="M236.86 201.5l-6.1-2.11"/><path class="a" d="M236.86 203.5a1.91 1.91 0 01-.66-.11l-6.09-2.11a2 2 0 111.31-3.78l6.09 2.11a2 2 0 01-.65 3.89z"/></svg>