<svg xmlns="http://www.w3.org/2000/svg" viewBox="0 0 425 91">
  <g clip-path="url(#viitasaari-color__clip0_1269:183)" fill="#427730">
    <path d="M22.718 69.607h13.461l19.718-47.504H39.824L29.603 49.102l-10.21-26.997H3l19.718 47.503zm37.927 0h15.99V22.103l-15.99 3.739v43.765zm25.333 0h16.002V25.842l-16.002-3.738v47.503zm35.399 0h15.99V33.353h13.557l3.739-11.25h-44.029l-3.751 11.25h14.494v36.254zm56.874-16.863h-9.972l4.986-14.24 4.986 14.24zm22.02 16.852l-19.717-47.469h-14.245l-19.718 47.469h15.598l2.541-6.966h17.082l2.529 6.966h15.93zm19.932.949c10.363 0 20.026-3.952 20.026-16.068 0-8.865-4.903-13.766-17.581-16.614-4.345-1.032-5.377-1.507-5.377-3.097 0-1.341 1.424-2.136 3.644-2.136a30.223 30.223 0 0113.937 4.034l3.157-10.68A31.153 31.153 0 00221.152 21c-11.087 0-18.53 5.542-18.53 15.119 0 7.274 3.478 13.22 15.278 15.83 5.698 1.341 7.68 1.745 7.68 3.952s-2.374 3.014-5.377 3.014c-5.936 0-11.325-3.251-15.29-6.254l-3.478 11.535a30.053 30.053 0 0018.768 6.408m51.828-17.86h-9.983l4.998-14.24 4.985 14.24zm22.009 16.851l-19.634-47.492H260.16l-19.717 47.469h15.598l2.529-6.966h17.023l2.528 6.966 15.919.023zm33.452-16.851h-9.983l4.998-14.24 4.985 14.24zm22.009 16.852l-19.717-47.469h-14.246l-19.765 47.469h15.599l2.528-6.966h17.106l2.541 6.966h15.954zm30.556-32.291c0 3.952-2.22 5.459-6.019 5.459h-3.715V31.846h3.727c3.799 0 6.019 1.496 6.019 5.46h-.012zm15.931-.237c0-7.678-5.152-14.964-17.106-14.964h-24.55v47.468h15.991v-17.54h2.374l9.176 17.563h18.851l-12.975-19.307a14.08 14.08 0 008.239-13.22m9.022 32.539H421V25.842l-15.99-3.738v47.503z"/>
  </g>
  <defs>
    <clipPath id="viitasaari-color__clip0_1269:183">
      <path fill="#fff" transform="translate(3 21)" d="M0 0h418v49.557H0z"/>
    </clipPath>
  </defs>
</svg>
