<svg xmlns="http://www.w3.org/2000/svg" viewBox="0 0 425 46">
  <path fill="#fff" d="M0 0h425v46H0z"/>
  <g clip-path="url(#viitasaari-slogan__clip0_1273:183)">
    <path d="M411.513 18.277c1.235 0 1.578 1.056 1.578 2.744 0 .714-.576 1.14-.576 1.867 0 .727.672.85.672 1.372 0 .522-3.884 6.327-5.311 6.327-1.208 0-1.496-1.194-1.496-2.745 0-5.791 3.459-9.607 5.133-9.607v.042zm6.862 12.31c-1.62 0-1.867-2.965-1.867-6.272 0-4.117 1.825-5.023 1.825-6.134 0-.769-.384-1.373-1.194-1.373-1.248 0-2.305 1.867-2.346 1.963a3.45 3.45 0 00-3.596-2.676c-2.964 0-7.699 4.79-7.699 12.159 0 2.195 1.098 4.693 3.486 4.693 3.252 0 6.752-5.654 6.752-5.654s.151 5.654 4.268 5.654c2.58 0 4.35-2.594 5.489-4.268a1.76 1.76 0 00.481-1.098 1.13 1.13 0 00-.961-.96c-.384 0-.617.343-.947.823-.919 1.235-2.058 3.156-3.746 3.156l.055-.013zm-18.582 2.758c2.443 0 4.693-2.978 5.901-4.652.276-.302.441-.69.467-1.098a1.125 1.125 0 00-.947-.96c-.385 0-.632.342-.961.823-.906 1.235-2.745 3.348-4.405 3.348-1.373 0-2.827-1.674-2.827-5.599 0-3.925 1.441-5.75 1.441-6.862a1.81 1.81 0 00-.488-1.405 1.788 1.788 0 00-1.379-.557c-1.29 0-2.401 4.556-2.401 9.483 0 4.927 2.346 7.52 5.599 7.52v-.04zm-1.578-25.814a2.445 2.445 0 00-2.196 2.745 1.925 1.925 0 001.218 1.774c.237.094.49.139.744.133a2.636 2.636 0 002.635-2.442 2.208 2.208 0 00-2.401-2.196v-.014zm-17.004 8.824c0-.905.522-1.523 1.098-1.523.577 0 .961.384.961 1.098a6.316 6.316 0 01-.535 2.196c-1.002-.426-1.524-1.002-1.524-1.77zm8.852 16.469c2.676 0 4.597-2.443 5.791-4.117.278-.303.448-.689.481-1.098a1.142 1.142 0 00-.961-.961c-.384 0-.618.343-.961.823-.905 1.236-2.25 2.869-3.925 2.869a1.839 1.839 0 01-1.907-2.059c0-2.113 1.235-5.366 1.235-7.85 0-1.194-1.139-1.729-2.813-1.729-.77.02-1.54-.012-2.306-.096a9.75 9.75 0 00.961-3.348c0-1.73-1.249-2.745-3.212-2.745a3.867 3.867 0 00-3.732 4.117 4.317 4.317 0 002.964 3.733c-1.043 1.962-2.347 4.117-3.349 5.558-.672 1.002-.96 1.372-.96 2.058a.814.814 0 00.226.61.828.828 0 00.597.255c.522 0 1.043-.824 1.716-1.825a62.182 62.182 0 003.636-6.066c.631.1 1.269.15 1.908.15.919 0 1.208.138 1.208.852 0 1.303-1.208 4.117-1.208 6.56a4.315 4.315 0 001.352 3.133 4.328 4.328 0 003.204 1.176h.055zm-18.87.288a9.212 9.212 0 007.521-4.405 1.76 1.76 0 00.48-1.098 1.13 1.13 0 00-.961-.961c-.384 0-.617.343-.96.823-.906 1.236-2.745 3.541-5.599 3.541-2.292 0-3.541-1.015-3.829-2.635 1.825-1.249 6.038-5.27 6.038-9.236 0-1.866-.81-2.923-3.019-2.923-3.061 0-6.697 4.598-6.697 9.95a6.565 6.565 0 004.278 6.557 6.56 6.56 0 002.748.387zm-3.829-7.329c0-3.444 2.155-7.369 3.267-7.369.425 0 .658.247.658.823a8.914 8.914 0 01-3.925 6.547zm-9.043 5.49c1.248 0 1.441 1.29 1.441 3.348 0 4.117-.961 7.04-2.018 7.04s-1.907-1.372-1.907-6.312c0-4.31.192-7.809.192-10.87 0 0 6.656-8.233 6.656-15.987 0-3.211-.865-4.79-2.827-4.79-3.829 0-5.943 8.564-6.464 18.28-.247 4.213-.247 9.675-.247 14.08 0 5.12 1.729 7.905 4.405 7.905 2.443 0 4.844-3.692 4.844-9.195a14.843 14.843 0 00-.576-3.252 5.818 5.818 0 003.733-2.745 1.84 1.84 0 00.48-1.098 1.14 1.14 0 00-.96-.96c-.385 0-.618.343-.961.823-.906 1.235-1.716 2.196-2.827 2.196-1.112 0-1.867-1.373-3.157-1.373a1.372 1.372 0 00-1.441 1.524c0 .92.632 1.372 1.634 1.372v.014zm1.372-25.142c.48 0 .768.385.768 1.236 0 6.861-4.364 13.311-4.364 13.311.385-7.506 2.402-14.547 3.596-14.547zm-11.295 27.242c2.43 0 4.68-2.978 5.888-4.653a1.84 1.84 0 00.48-1.098 1.14 1.14 0 00-.96-.96c-.385 0-.632.343-.961.823-.906 1.235-2.745 3.349-4.405 3.349-1.373 0-2.827-1.675-2.827-5.6 0-3.924 1.441-5.75 1.441-6.861a1.81 1.81 0 00-.487-1.47 1.79 1.79 0 00-1.448-.548c-1.29 0-2.402 4.557-2.402 9.483 0 4.927 2.347 7.52 5.613 7.52l.068.015zm-1.66-25.87a2.445 2.445 0 00-2.196 2.745 1.928 1.928 0 001.212 1.759c.234.093.485.139.737.135a2.634 2.634 0 002.745-2.442 2.209 2.209 0 00-2.402-2.196h-.096zm-16.99 8.852c0-.905.522-1.523 1.098-1.523.577 0 .961.384.961 1.098a6.316 6.316 0 01-.535 2.196c-1.002-.426-1.524-1.002-1.524-1.77zm8.852 16.469c2.676 0 4.597-2.443 5.791-4.117.278-.303.448-.689.481-1.098a1.13 1.13 0 00-.961-.961c-.384 0-.618.343-.961.823-.905 1.236-2.25 2.869-3.925 2.869a1.836 1.836 0 01-1.907-2.059c0-2.113 1.249-5.366 1.249-7.85 0-1.194-1.153-1.729-2.827-1.729-.77.02-1.541-.012-2.306-.096a9.75 9.75 0 00.961-3.348c0-1.73-1.249-2.745-3.212-2.745a3.867 3.867 0 00-3.732 4.117 4.317 4.317 0 002.964 3.733 62.374 62.374 0 01-3.349 5.558c-.672 1.002-.947 1.372-.947 2.058a.807.807 0 00.217.609.811.811 0 00.593.256c.522 0 1.057-.824 1.716-1.825a62.146 62.146 0 003.691-6.08c.636.1 1.278.15 1.921.151.906 0 1.194.137 1.194.85 0 1.305-1.194 4.118-1.194 6.56a4.314 4.314 0 004.543 4.31v.014zm-18.856.274a9.186 9.186 0 007.534-4.391c.284-.299.454-.687.48-1.098a1.122 1.122 0 00-.96-.96c-.385-.001-.618.342-.947.822-.92 1.236-2.745 3.541-5.613 3.541-2.292 0-3.541-1.015-3.829-2.635 1.825-1.249 6.038-5.27 6.038-9.236 0-1.866-.809-2.923-3.019-2.923-3.06 0-6.697 4.598-6.697 9.95a6.565 6.565 0 004.288 6.56 6.556 6.556 0 002.752.384l-.027-.014zm-3.815-7.314c0-3.445 2.154-7.37 3.266-7.37.425 0 .672.247.672.823a8.924 8.924 0 01-3.938 6.547zm-16.098 6.23c-1.866 0-2.594-.865-2.635-1.825-.001-.29.045-.577.137-.851a27.486 27.486 0 005.037 1.962 4.983 4.983 0 01-2.539.714zm-1.002-4.694c0-.384 4.735-7.465 6.505-7.465 1.153 0 1.578 1.153 1.578 2.635a10.975 10.975 0 01-2.346 6.862 16.15 16.15 0 01-5.737-2.059v.027zm9.236 4.831a8.233 8.233 0 006.464-3.444 1.84 1.84 0 00.48-1.098 1.134 1.134 0 00-.96-.961c-.385 0-.618.343-.961.823a6.275 6.275 0 01-4.927 2.333h-.439a15.466 15.466 0 001.921-7.657c0-2.388-.809-5.215-3.979-5.215-3.171 0-8.138 8-9.278 10.636a31.182 31.182 0 01.234-4.406 42.3 42.3 0 00.535-4.79c0-.96-1.112-1.674-2.059-1.674-.576 0-.96.385-.96 1.373 0 .439-.247 3.733-.384 8.138-.193 5.846-.385 13.833-.385 16.811 0 2.155.234 2.923 1.29 2.923a1.755 1.755 0 001.867-1.866c0-1.633-.481-2.827-.481-10.773a9.61 9.61 0 004.502.947 7.864 7.864 0 005.489-2.25c.673 0 1.372.095 2.059.095l-.028.055zm-31.811 1.153c2.443 0 4.694-2.978 5.887-4.652a1.76 1.76 0 00.481-1.098 1.13 1.13 0 00-.961-.96c-.384 0-.617.342-.947.823-.919 1.235-2.744 3.348-4.405 3.348-1.441 0-2.827-1.674-2.827-5.6 0-3.924 1.372-5.75 1.372-6.86a1.788 1.788 0 00-.482-1.411 1.783 1.783 0 00-1.384-.552c-1.29 0-2.388 4.556-2.388 9.483 0 4.926 2.347 7.52 5.599 7.52l.055-.041zM274.621 7.49c-1.372 0-2.196 1.249-2.196 2.745a1.924 1.924 0 001.218 1.774c.237.094.49.139.745.133a2.634 2.634 0 002.621-2.442 2.185 2.185 0 00-.71-1.625 2.19 2.19 0 00-1.678-.571V7.49zm-17.017 24.524c-1.867 0-2.594-.865-2.635-1.825-.002-.29.045-.577.137-.851a27.43 27.43 0 005.037 1.962 5.023 5.023 0 01-2.539.714zm-1.016-4.694c0-.384 4.749-7.465 6.519-7.465 1.153 0 1.578 1.153 1.578 2.635a10.976 10.976 0 01-2.347 6.862 16.292 16.292 0 01-5.75-2.059v.027zm9.25 4.804a8.301 8.301 0 006.464-3.445c.276-.302.44-.69.466-1.098a1.126 1.126 0 00-.947-.96c-.384 0-.631.343-.96.823a6.277 6.277 0 01-4.927 2.333h-.412a15.637 15.637 0 001.922-7.658c0-2.388-.824-5.215-3.98-5.215-3.157 0-8.138 8.001-9.277 10.636a31.035 31.035 0 01.233-4.405 41.38 41.38 0 00.522-4.79c0-.96-1.098-1.674-2.059-1.674-.576 0-.947.384-.947 1.372 0 .44-.247 3.733-.384 8.138-.192 5.847-.384 13.834-.384 16.812 0 2.154.233 2.923 1.29 2.923a1.752 1.752 0 001.355-.511 1.752 1.752 0 00.511-1.356c0-1.633-.48-2.827-.48-10.773 1.401.676 2.946 1 4.501.947a7.889 7.889 0 005.489-2.25c.673 0 1.373.096 2.059.096l-.055.055zm-18.911.768c2.594 0 4.364-2.594 5.558-4.268a1.84 1.84 0 00.48-1.098 1.134 1.134 0 00-.96-.96c-.385 0-.618.343-.961.823-.906 1.235-2.292 3.157-3.486 3.157-1.194 0-1.633-.728-1.633-2.347 0-1.867.81-5.407.81-7.617a3.01 3.01 0 00-.881-2.415 3 3 0 00-2.426-.85c-3.5 0-6.272 5.351-6.272 5.351.105-.76.169-1.525.192-2.292 0-1.866-.521-4.02-3.403-4.02-4.214 0-8.138 6.696-8.372 7.08 0-.288.426-3.69.426-4.926 0-1.235-.522-1.921-2.004-1.921-.961 0-1.578.576-1.578 2.113 0 5.256-.192 11.487-.192 12.777 0 1.29.384 1.921 1.372 1.921 1.372 0 1.578-1.674 2.292-4.982.714-3.307 4.94-9.386 7.287-9.386.947 0 1.235.48 1.235 1.92 0 1.867-1.043 7.604-1.043 8.811 0 1.208.467 1.908 1.373 1.908a1.675 1.675 0 001.811-1.73c0-3.06 3.788-10.1 5.887-10.1.865 0 1.057.535 1.057 1.372 0 1.579-.81 5.257-.81 7.507a4.005 4.005 0 001.072 3.114 3.981 3.981 0 003.045 1.25l.124-.192zm-30.754.33a9.18 9.18 0 007.506-4.406 1.76 1.76 0 00.481-1.098 1.125 1.125 0 00-.947-.96c-.384 0-.631.343-.961.823-.919 1.235-2.745 3.54-5.599 3.54-2.306 0-3.554-1.015-3.829-2.634 1.812-1.249 6.025-5.27 6.025-9.236 0-1.866-.81-2.923-3.019-2.923-3.061 0-6.697 4.597-6.697 9.95a6.548 6.548 0 001.94 5.073 6.564 6.564 0 005.1 1.87zm-3.829-7.329c0-3.444 2.154-7.37 3.252-7.37.426 0 .673.248.673.824 0 2.91-2.498 5.64-3.925 6.546zm-16.468-9.428c0-.905.521-1.523 1.098-1.523.576 0 .96.384.96 1.098a6.316 6.316 0 01-.535 2.195c-1.002-.425-1.523-1.001-1.523-1.77zm8.851 16.468c2.676 0 4.598-2.442 5.792-4.117.283-.298.453-.687.48-1.098a1.13 1.13 0 00-.961-.96c-.384 0-.617.343-.96.823-.906 1.235-2.237 2.868-3.925 2.868a1.838 1.838 0 01-1.908-2.058c0-2.113 1.249-5.366 1.249-7.85 0-1.194-1.153-1.73-2.827-1.73-.77.021-1.54-.011-2.306-.095a9.729 9.729 0 00.961-3.349c0-1.729-1.249-2.744-3.211-2.744a3.872 3.872 0 00-3.733 4.117 4.349 4.349 0 002.978 3.733c-1.057 1.962-2.347 4.117-3.362 5.558-.659 1.001-.947 1.372-.947 2.058a.816.816 0 00.221.604.83.83 0 00.588.26c.522 0 1.057-.823 1.73-1.825a65.003 65.003 0 003.691-6.175c.636.1 1.278.15 1.922.15.905 0 1.193.138 1.193.852 0 1.303-1.193 4.117-1.193 6.56a4.306 4.306 0 004.542 4.309l-.014.11zm-23.316-14.656c1.235 0 1.578 1.056 1.578 2.744 0 .714-.576 1.14-.576 1.867 0 .727.672.85.672 1.372 0 .522-3.883 6.327-5.311 6.327-1.207 0-1.496-1.194-1.496-2.745 0-5.791 3.459-9.607 5.133-9.607v.042zm6.862 12.31c-1.633 0-1.867-2.965-1.867-6.272 0-4.117 1.812-5.023 1.812-6.134 0-.769-.384-1.373-1.194-1.373-1.249 0-2.306 1.867-2.347 1.963a3.44 3.44 0 00-3.595-2.676c-2.965 0-7.699 4.79-7.699 12.159 0 2.195 1.098 4.693 3.486 4.693 3.266 0 6.752-5.654 6.752-5.654s.151 5.654 4.268 5.654c2.58 0 4.35-2.594 5.489-4.268.284-.298.454-.687.48-1.098a1.122 1.122 0 00-.96-.96c-.371 0-.618.343-.947.823-.92 1.235-2.059 3.156-3.733 3.156l.055-.013zm-27.392 1.386c-1.867 0-2.594-.865-2.635-1.825-.002-.29.045-.577.137-.851a27.43 27.43 0 005.037 1.962 4.982 4.982 0 01-2.539.714zm-1.016-4.694c0-.384 4.749-7.465 6.519-7.465 1.153 0 1.578 1.152 1.578 2.635a10.976 10.976 0 01-2.347 6.861 16.294 16.294 0 01-5.75-2.058v.027zm9.25 4.804a8.302 8.302 0 006.464-3.445 1.84 1.84 0 00.48-1.098 1.136 1.136 0 00-.961-.96c-.384 0-.631.343-.96.823a6.276 6.276 0 01-4.927 2.333h-.439a15.488 15.488 0 001.921-7.658c0-2.388-.81-5.215-3.98-5.215s-8.138 8.001-9.277 10.636a31.032 31.032 0 01.233-4.405c.267-1.585.441-3.185.522-4.79 0-.96-1.098-1.674-2.059-1.674-.562 0-.947.384-.947 1.372 0 .44-.247 3.733-.384 8.138-.192 5.846-.384 13.834-.384 16.812 0 2.154.233 2.923 1.29 2.923a1.757 1.757 0 001.866-1.867c0-1.633-.48-2.827-.48-10.773 1.402.676 2.946 1 4.501.947a7.864 7.864 0 005.49-2.25c.672 0 1.372.096 2.058.096l-.027.055zm-32.333 1.097c2.745 0 5.215-2.923 6.409-4.597a1.84 1.84 0 00.48-1.098 1.122 1.122 0 00-.96-.96c-.384 0-.618.343-.961.823-.906 1.235-2.745 3.445-4.35 3.445-1.29 0-1.963-.536-1.963-2.155 0-2.745 1.675-6.327 1.675-9.29a2.663 2.663 0 00-2.745-2.676c-4.501 0-9.332 8.33-9.606 8.755 0-.096.15-4.31.15-6.176 0-1.866-.713-2.923-1.921-2.923-1.207 0-1.194.768-1.194 2.443 0 1.674-.617 11.102-.617 12.118a1.458 1.458 0 00.337 1.324 1.465 1.465 0 001.282.473c1.057 0 1.372-.905 2.292-3.156 1.111-2.882 6.038-9.771 7.946-9.771.535 0 .768.233.768.96 0 1.483-1.29 4.968-1.29 8.084a4.26 4.26 0 002.577 4.16 4.25 4.25 0 001.691.34v-.123zm-21.834-.068a9.224 9.224 0 007.521-4.405 1.8 1.8 0 00.466-1.098 1.13 1.13 0 00-.947-.961c-.384 0-.631.343-.96.823-.906 1.236-2.745 3.541-5.599 3.541-2.306 0-3.541-1.015-3.829-2.635 1.811-1.249 6.024-5.27 6.024-9.236 0-1.866-.809-2.923-3.019-2.923-3.06 0-6.697 4.598-6.697 9.95a6.565 6.565 0 004.288 6.56 6.556 6.556 0 002.752.384zm-3.829-7.329c0-3.444 2.155-7.369 3.253-7.369.425 0 .672.247.672.823 0 2.91-2.497 5.64-3.925 6.547zm-10.978 5.366c-.66 0-1.194-.288-1.194-.713 0-.426.288-.673.864-.673.73.123 1.45.297 2.155.522a2.25 2.25 0 01-1.825.864zm-1.098-14.89a6.408 6.408 0 01-.81 2.251 2.54 2.54 0 01-1.057-1.908c0-.919.535-1.44 1.057-1.44.521 0 .81.329.81 1.097zm-5.407 9.675c-.673 1.002-.961 1.373-.961 2.059a.823.823 0 00.823.865c.522 0 1.043-.824 1.716-1.826.906-1.372 2.21-3.156 3.348-4.981 2.018 1.248 4.021 2.593 4.021 5.887.021.192.021.385 0 .576a16.71 16.71 0 00-2.868-.521c-1.537 0-2.978.81-2.978 2.347s1.373 2.635 3.692 2.635a4.83 4.83 0 004.117-2.251h.576a5.131 5.131 0 004.598-2.017c.283-.299.453-.687.48-1.098a1.13 1.13 0 00-.961-.961c-.384 0-.617.343-.947.823a2.836 2.836 0 01-2.882 1.373h-.096a7.4 7.4 0 00.192-1.482c0-4.117-3.115-5.984-5.489-7.576l.823-1.468a4.6 4.6 0 00.742-2.374 3.124 3.124 0 00-1.92-3.015 3.113 3.113 0 00-1.237-.238 3.802 3.802 0 00-3.733 3.98 4.886 4.886 0 002.251 4.213c-1.057 1.812-2.347 3.678-3.211 5.023l-.096.027zm-11.542-7.657c1.249 0 1.592 1.056 1.592 2.744 0 .714-.576 1.14-.576 1.867 0 .727.672.85.672 1.372 0 .522-3.884 6.327-5.325 6.327-1.194 0-1.482-1.194-1.482-2.745 0-5.791 3.445-9.607 5.12-9.607v.042zm6.862 12.31c-1.62 0-1.866-2.965-1.866-6.272 0-4.117 1.825-5.023 1.825-6.134 0-.769-.385-1.373-1.194-1.373-1.249 0-2.306 1.867-2.347 1.963a3.445 3.445 0 00-3.595-2.676c-2.965 0-7.713 4.79-7.713 12.159 0 2.195 1.112 4.693 3.5 4.693 3.252 0 6.751-5.654 6.751-5.654s.138 5.654 4.255 5.654c2.593 0 4.364-2.594 5.49-4.268a1.85 1.85 0 00.48-1.098 1.125 1.125 0 00-.961-.96c-.385 0-.618.343-.96.823-.907 1.235-2.06 3.156-3.734 3.156l.069-.013zM63.197 6.117c.521 0 .906.618.906 1.373 0 4.9-3.06 11.198-3.06 11.198 0-.96.095-12.543 2.209-12.543l-.055-.027zm6.917 26.02c2.868 0 4.117-1.729 5.27-3.403a1.84 1.84 0 00.48-1.098 1.14 1.14 0 00-.96-.96c-.385 0-.632.343-.962.823-.905 1.235-1.825 2.388-3.595 2.388-2.539 0-4.447-2.965-4.447-2.965 1.867-.864 5.984-4.02 5.984-7.328a2.745 2.745 0 00-2.745-2.964c-3.925 0-7.904 6.6-8.097 6.944l.151-1.592s5.339-7.685 5.339-14.272c0-2.443-1.235-3.925-3.198-3.925-3.074 0-4.693 3.925-4.693 15.096 0 4.405-.384 10.978-.384 12.255 0 1.276.288 1.77 1.152 1.77a1.578 1.578 0 001.633-1.468c0-.426-.137-1.194-.137-2.004a8.399 8.399 0 01.906-3.98c1.153-2.003 4.446-6.6 6.409-6.6a.754.754 0 01.823.809c0 2.676-3.98 5.846-5.036 5.846-1.057 0-1.716.425-1.716 1.235s.426 1.057 1.373 1.372c1.248 1.77 3.595 3.98 6.367 3.98l.083.041zM46.7 6.104c.522 0 .906.618.906 1.372.069 4.913-3.033 11.212-3.033 11.212 0-.96.096-12.543 2.196-12.543l-.069-.041zm6.93 26.033c2.883 0 4.118-1.729 5.27-3.403.284-.298.454-.687.48-1.098a1.125 1.125 0 00-.96-.96c-.384 0-.617.343-.947.823-.92 1.235-1.825 2.388-3.595 2.388-2.443-.028-4.433-2.965-4.433-2.965 1.88-.864 5.997-4.02 5.997-7.328A2.744 2.744 0 0052.7 16.63c-3.925 0-7.892 6.6-8.084 6.944l.138-1.592s5.31-7.685 5.31-14.272c0-2.443-1.248-3.925-3.21-3.925-3.061 0-4.694 3.925-4.694 15.096 0 4.405-.384 10.978-.384 12.255 0 1.276.288 1.77 1.152 1.77a1.592 1.592 0 001.73-1.441c0-.425-.151-1.194-.151-2.004a8.577 8.577 0 01.905-3.98c1.153-2.003 4.46-6.6 6.423-6.6a.753.753 0 01.81.81c.013 2.648-3.953 5.86-5.01 5.86-1.056 0-1.729.425-1.729 1.234 0 .81.44 1.057 1.373 1.373 1.248 1.77 3.595 3.98 6.367 3.98h-.013zm-16.303 1.25c2.443 0 4.694-2.979 5.888-4.653a1.84 1.84 0 00.48-1.098 1.125 1.125 0 00-.96-.96c-.385 0-.618.343-.961.823-.906 1.235-2.745 3.348-4.406 3.348-1.372 0-2.744-1.674-2.744-5.599 0-3.925 1.372-5.75 1.372-6.861a1.8 1.8 0 00-1.866-1.963c-1.29 0-2.388 4.556-2.388 9.483 0 4.927 2.346 7.52 5.599 7.52l-.014-.04zM35.764 7.503a2.443 2.443 0 00-2.21 2.745 1.935 1.935 0 001.963 1.907 2.635 2.635 0 002.635-2.443 2.195 2.195 0 00-2.388-2.195v-.014zm-24.277 9.62c-.906 0-1.373.563-1.373 1.098 0 .535.275.576.275 1.578 0 .768-.85 1.866-2.964 1.866-2.745 0-4.639-2.195-4.639-5.654 0-7.41 6.862-12.776 15.096-12.776 7.658 0 11.061 2.676 11.061 7.37 0 5.077-2.923 8.096-6.944 8.096-1.153 0-1.674-1.44-2.868-1.44a1.495 1.495 0 00-1.222 1.426c0 1.579 2.059 2.251 4.598 2.251 4.83 0 9.14-4.501 9.14-10.293 0-5.79-4.406-9.606-13.985-9.606C8.66 1.04 0 6.694 0 16.136a7.493 7.493 0 007.425 7.616 5.16 5.16 0 005.49-4.693c0-.96-.385-1.908-1.373-1.908l-.055-.027zm6.477-11.418c-1.729 0-4.117 2.004-4.117 6.176 0 4.171.769 9.29.769 14.41 0 3.87-2.114 4.597-2.745 4.597-.631 0-.823-.728-1.866-.728a1.496 1.496 0 00-1.373 1.537c0 1.098 1.112 1.867 2.978 1.867 2.635 0 5.64-2.58 5.64-7.082 0-6.175-.85-11.582-.85-14.848a3.648 3.648 0 011.578-2.965c.755-.384 1.482-.864 1.482-1.715a1.372 1.372 0 00-1.482-1.249" fill="#EECD00"/>
  </g>
  <defs>
    <clipPath id="viitasaari-slogan__clip0_1273:183">
      <path fill="#fff" transform="translate(0 1)" d="M0 0h424v44.999H0z"/>
    </clipPath>
  </defs>
</svg>
