<svg xmlns="http://www.w3.org/2000/svg" viewBox="0 0 425 109"><path d="M178.316 32.142h-10.098l5.049-14.436 5.049 14.436Zm22.258 17.062L180.659 1.16h-14.444l-19.916 48.044h15.804l2.565-7.031h17.303l2.566 7.03h16.037Zm20.22.973c10.543 0 20.267-4.008 20.267-16.277 0-8.976-4.967-13.944-17.795-16.827-4.405-1.043-5.447-1.523-5.447-3.129 0-1.359 1.44-2.167 3.69-2.167a30.45 30.45 0 0 1 14.058 4.09l3.209-10.817A31.624 31.624 0 0 0 221.708 0c-11.223 0-18.744 5.613-18.744 15.304 0 7.37 3.515 13.382 15.464 16.03 5.775 1.36 7.778 1.77 7.778 4.008s-2.413 3.046-5.447 3.046c-6.021 0-11.469-3.28-15.475-6.327l-3.515 11.624a30.524 30.524 0 0 0 19.002 6.492m52.506-18.035h-10.099l5.05-14.436 5.049 14.436Zm22.258 17.062L275.62 1.16h-14.445L241.26 49.204h15.733l2.566-7.031h17.349l2.554 7.03h16.073Zm33.832-17.062h-10.098l5.049-14.436 5.049 14.436Zm22.259 17.062L331.71 1.16h-14.444l-19.915 48.044h15.78l2.565-7.031h17.303l2.566 7.03h16.061Zm30.938-32.693c0 4.008-2.237 5.531-6.091 5.531h-3.761V10.98h3.772c3.855 0 6.092 1.524 6.092 5.531h-.012Zm16.12-.246c0-7.769-5.201-15.151-17.303-15.151h-24.812v48.044h16.19V31.417h2.402l9.301 17.788h19.072l-13.191-19.546a14.26 14.26 0 0 0 8.329-13.394m9.138 32.951H424V4.91l-16.19-3.785v48.091Zm-386.86.001h13.625l19.95-48.091h-16.26L27.921 28.452 17.588 1.127H1l19.95 48.09Zm38.39-.001h16.178V1.126L59.34 4.91v44.306Zm25.632 0h16.19V4.91l-16.19-3.785v48.091Zm35.824 0h16.178V12.504h13.718l3.784-11.379h-44.563l-3.784 11.379h14.667v36.712Zm266.525 33.888c1.066 0 1.347.902 1.347 2.343 0 .621-.492.985-.492 1.594 0 .61.574.738.574 1.172 0 .433-3.303 5.39-4.534 5.39-1.019 0-1.265-1.02-1.265-2.344 0-4.945 2.941-8.202 4.37-8.202v.047Zm5.857 10.499c-1.394 0-1.593-2.531-1.593-5.343 0-3.516 1.546-4.3 1.546-5.238 0-.657-.316-1.172-1.019-1.172-1.054 0-1.956 1.594-2.003 1.675a2.929 2.929 0 0 0-3.058-2.343c-2.542 0-6.583 4.078-6.583 10.382 0 1.875.937 3.996 2.987 3.996 2.776 0 5.764-4.816 5.764-4.816s.117 4.816 3.631 4.816c2.203 0 3.714-2.203 4.745-3.633.237-.258.382-.588.41-.937a.963.963 0 0 0-.82-.82c-.328 0-.539.28-.82.691-.773 1.066-1.757 2.695-3.187 2.695v.047ZM377.363 95.9c2.085 0 4.007-2.531 5.026-3.96.237-.259.382-.589.41-.938a.952.952 0 0 0-.82-.82c-.328 0-.527.28-.82.69-.773 1.067-2.343 2.86-3.761 2.86-1.171 0-2.343-1.43-2.343-4.781s1.172-4.898 1.172-5.86a1.528 1.528 0 0 0-.412-1.203 1.518 1.518 0 0 0-1.181-.472c-1.101 0-2.039 3.879-2.039 8.097 0 4.219 2.004 6.41 4.78 6.41l-.012-.023Zm-1.335-22.042a2.067 2.067 0 0 0-1.446.767 2.073 2.073 0 0 0-.44 1.577 1.645 1.645 0 0 0 .496 1.169 1.658 1.658 0 0 0 1.179.471 2.261 2.261 0 0 0 2.249-2.086 1.88 1.88 0 0 0-.606-1.387 1.869 1.869 0 0 0-1.432-.487v-.024Zm-14.55 7.582c0-.774.445-1.313.937-1.313.492 0 .82.328.82.95a5.748 5.748 0 0 1-.445 1.874c-.867-.363-1.312-.855-1.312-1.511Zm7.556 14.061c2.343 0 3.924-2.086 4.944-3.515.242-.255.387-.587.41-.938a.955.955 0 0 0-.809-.82c-.328 0-.539.282-.82.692-.773 1.066-1.921 2.46-3.35 2.46a1.58 1.58 0 0 1-1.64-1.757c0-1.805 1.066-4.582 1.066-6.715 0-1.02-.984-1.465-2.413-1.465a14.26 14.26 0 0 1-1.957-.082 8.323 8.323 0 0 0 .809-2.859c0-1.476-1.055-2.343-2.73-2.343a3.309 3.309 0 0 0-2.333 1.086 3.306 3.306 0 0 0-.853 2.429 3.71 3.71 0 0 0 2.53 3.187c-.902 1.676-2.003 3.516-2.858 4.688-.575.855-.821 1.171-.821 1.757a.699.699 0 0 0 .419.671.69.69 0 0 0 .273.056c.457 0 .902-.692 1.476-1.547a56.105 56.105 0 0 0 3.139-5.191c.543.081 1.091.12 1.64.117.774 0 1.02.129 1.02.738 0 1.102-1.02 3.516-1.02 5.602a3.697 3.697 0 0 0 1.147 2.674 3.685 3.685 0 0 0 2.731 1.005v.07Zm-16.096.176a7.87 7.87 0 0 0 6.42-3.761c.237-.258.381-.588.41-.938a.964.964 0 0 0-.821-.82c-.328 0-.538.281-.82.691-.773 1.067-2.343 3.023-4.779 3.023-1.968 0-3.023-.855-3.269-2.238 1.547-1.066 5.143-4.5 5.143-7.898 0-1.593-.691-2.496-2.565-2.496-2.625 0-5.729 3.926-5.729 8.508a5.6 5.6 0 0 0 6.01 5.93Zm-3.269-6.257c0-2.942 1.84-6.293 2.777-6.293.363 0 .574.2.574.691a7.618 7.618 0 0 1-3.351 5.601Zm-7.72 4.687c1.055 0 1.172 1.101 1.172 2.86 0 3.515-.82 6.01-1.711 6.01-.89 0-1.64-1.171-1.64-5.401 0-3.68.164-6.656.164-9.281 0 0 5.682-7.031 5.682-13.652 0-2.73-.738-4.078-2.413-4.078-3.269 0-5.061 7.312-5.518 15.609-.199 3.597-.199 8.202-.199 12.022 0 4.371 1.464 6.738 3.76 6.738 2.086 0 4.124-3.14 4.124-7.85a12.655 12.655 0 0 0-.492-2.778 4.926 4.926 0 0 0 3.186-2.343c.243-.255.388-.587.41-.938a.946.946 0 0 0-.82-.82c-.316 0-.527.281-.808.691-.785 1.067-1.476 1.887-2.413 1.887-.937 0-1.593-1.172-2.695-1.172a1.167 1.167 0 0 0-1.176.798 1.159 1.159 0 0 0-.054.503c0 .773.527 1.171 1.394 1.171l.047.024Zm1.125-21.491c.41 0 .656.328.656 1.066 0 5.86-3.714 11.367-3.714 11.367.328-6.422 2.039-12.433 3.058-12.433Zm-9.641 23.26c2.085 0 4.006-2.53 5.025-3.96.243-.255.388-.587.41-.938a.952.952 0 0 0-.82-.82c-.328 0-.527.281-.82.691-.773 1.067-2.343 2.86-3.749 2.86-1.171 0-2.413-1.43-2.413-4.782 0-3.35 1.172-4.898 1.172-5.859a1.528 1.528 0 0 0-.951-1.569 1.523 1.523 0 0 0-.643-.106c-1.101 0-2.038 3.879-2.038 8.097 0 4.219 2.003 6.41 4.78 6.41l.047-.024Zm-1.395-22.041a2.079 2.079 0 0 0-1.446.766 2.087 2.087 0 0 0-.44 1.577 1.665 1.665 0 0 0 .497 1.17 1.646 1.646 0 0 0 1.179.47 2.261 2.261 0 0 0 2.249-2.085 1.88 1.88 0 0 0-1.271-1.782 1.874 1.874 0 0 0-.768-.093v-.023Zm-14.549 7.581c0-.773.445-1.312.937-1.312.492 0 .82.328.82.949a5.748 5.748 0 0 1-.445 1.875c-.867-.363-1.312-.855-1.312-1.512Zm7.556 14.062c2.343 0 3.924-2.086 4.955-3.515.236-.258.376-.59.398-.938a.948.948 0 0 0-.808-.82c-.328 0-.539.281-.82.691-.773 1.067-1.921 2.461-3.35 2.461a1.583 1.583 0 0 1-1.652-1.734c0-1.805 1.066-4.582 1.066-6.715 0-1.02-.984-1.465-2.413-1.465-.654.018-1.307-.01-1.957-.082a8.38 8.38 0 0 0 .82-2.859c0-1.476-1.066-2.343-2.741-2.343a3.309 3.309 0 0 0-2.333 1.086 3.306 3.306 0 0 0-.853 2.429 3.71 3.71 0 0 0 2.53 3.187c-.902 1.676-2.003 3.516-2.859 4.688-.574.855-.82 1.171-.82 1.757a.699.699 0 0 0 .419.671.69.69 0 0 0 .273.056c.456 0 .902-.692 1.476-1.547a58.692 58.692 0 0 0 3.151-5.191c.539.081 1.083.12 1.628.117.774 0 1.02.129 1.02.738 0 1.102-1.02 3.516-1.02 5.602a3.69 3.69 0 0 0 2.411 3.455c.469.173.968.25 1.467.224l.012.047Zm-16.108.2a7.863 7.863 0 0 0 6.42-3.762c.237-.258.381-.588.41-.938a.964.964 0 0 0-.821-.82c-.328 0-.538.281-.82.691-.773 1.067-2.343 3.023-4.779 3.023-1.968 0-3.023-.855-3.269-2.238 1.547-1.066 5.143-4.5 5.143-7.898 0-1.593-.691-2.496-2.565-2.496-2.625 0-5.729 3.926-5.729 8.508a5.6 5.6 0 0 0 6.01 5.93Zm-3.269-6.258c0-2.942 1.84-6.293 2.777-6.293.375 0 .574.2.574.691a7.618 7.618 0 0 1-3.351 5.601Zm-13.694 5.32c-1.594 0-2.203-.739-2.238-1.559-.001-.25.039-.5.117-.738a22.083 22.083 0 0 0 4.288 1.676 4.239 4.239 0 0 1-2.167.62Zm-.856-4.008c0-.328 4.042-6.374 5.565-6.374.972 0 1.347.972 1.347 2.238a9.43 9.43 0 0 1-2.003 5.859 14.437 14.437 0 0 1-4.909-1.758v.035Zm7.885 4.09a7.023 7.023 0 0 0 5.517-2.942 1.49 1.49 0 0 0 .41-.937.947.947 0 0 0-.82-.82c-.316 0-.527.281-.808.691a5.369 5.369 0 0 1-4.217 2.004h-.364a13.387 13.387 0 0 0 1.629-6.539c0-2.039-.691-4.453-3.386-4.453-2.694 0-6.947 6.82-7.931 9.07a27.495 27.495 0 0 1 .211-3.761 35.12 35.12 0 0 0 .445-4.09c0-.808-.937-1.43-1.757-1.43-.492 0-.82.329-.82 1.172 0 .363-.199 3.188-.328 6.95-.164 4.991-.328 11.811-.328 14.342 0 1.84.211 2.496 1.113 2.496a1.504 1.504 0 0 0 1.153-.44 1.523 1.523 0 0 0 .44-1.154c0-1.382-.41-2.414-.41-9.198a8.06 8.06 0 0 0 3.843.82 6.757 6.757 0 0 0 4.685-1.922c.575 0 1.172.082 1.758.082l-.035.059Zm-27.132.96c2.085 0 4.006-2.53 5.026-3.96.237-.258.381-.588.41-.938a.964.964 0 0 0-.82-.82c-.328 0-.539.281-.82.692-.774 1.066-2.343 2.859-3.761 2.859-1.23 0-2.413-1.43-2.413-4.781 0-3.352 1.23-4.898 1.23-5.86a1.528 1.528 0 0 0-.412-1.203 1.518 1.518 0 0 0-1.181-.472c-1.102 0-2.039 3.879-2.039 8.097 0 4.219 1.992 6.41 4.78 6.41v-.023Zm-1.347-22.041a2.067 2.067 0 0 0-1.447.766 2.076 2.076 0 0 0-.439 1.577 1.634 1.634 0 0 0 .492 1.173 1.64 1.64 0 0 0 1.183.468 2.261 2.261 0 0 0 2.249-2.086 1.88 1.88 0 0 0-.606-1.387 1.864 1.864 0 0 0-1.432-.488v-.023Zm-14.585 21.104c-1.593 0-2.203-.738-2.25-1.558.004-.252.047-.501.129-.739a22.083 22.083 0 0 0 4.288 1.676 4.239 4.239 0 0 1-2.167.621Zm-.855-4.007c0-.328 4.041-6.375 5.552-6.375.984 0 1.348.973 1.348 2.238a9.377 9.377 0 0 1-1.992 5.86 14.423 14.423 0 0 1-4.908-1.759v.036Zm7.884 4.09a7.024 7.024 0 0 0 5.517-2.942c.243-.255.388-.587.41-.938a.949.949 0 0 0-.82-.82c-.328 0-.527.281-.82.692a5.328 5.328 0 0 1-4.205 2.003h-.364a13.377 13.377 0 0 0 1.629-6.538c0-2.04-.691-4.453-3.386-4.453-2.694 0-6.947 6.82-7.931 9.07a28.829 28.829 0 0 1 .199-3.762c.231-1.353.384-2.719.457-4.09 0-.808-.937-1.43-1.757-1.43-.492 0-.82.329-.82 1.173 0 .363-.199 3.187-.328 6.948-.164 4.992-.328 11.812-.328 14.343 0 1.84.211 2.496 1.101 2.496a1.501 1.501 0 0 0 1.5-.967c.075-.2.107-.413.093-.626 0-1.383-.398-2.414-.398-9.199a8.062 8.062 0 0 0 3.843.82 6.758 6.758 0 0 0 4.686-1.921c.574 0 1.171.082 1.757.082l-.035.058Zm-16.143.632c2.202 0 3.713-2.203 4.686-3.633a1.5 1.5 0 0 0 .41-.937.955.955 0 0 0-.809-.82c-.328 0-.539.28-.82.691-.773 1.066-1.968 2.695-2.987 2.695-1.019 0-1.382-.61-1.382-1.992 0-1.594.691-4.687.691-6.503a2.588 2.588 0 0 0-1.645-2.75 2.575 2.575 0 0 0-1.132-.156c-2.987 0-5.353 4.581-5.353 4.581.09-.653.145-1.31.164-1.968 0-1.594-.457-3.434-2.906-3.434-3.596 0-6.947 5.73-7.157 6.058 0-.246.374-3.152.374-4.218 0-1.066-.456-1.629-1.722-1.629-.808 0-1.347.492-1.347 1.793 0 4.5-.164 9.82-.164 10.921 0 1.102.328 1.63 1.172 1.63 1.171 0 1.359-1.43 1.968-4.243.609-2.812 4.205-8.015 6.209-8.015.82 0 1.066.41 1.066 1.629 0 1.593-.902 6.503-.902 7.523 0 1.02.41 1.64 1.171 1.64a1.442 1.442 0 0 0 1.558-1.476c0-2.613 3.222-8.625 5.026-8.625.738 0 .902.446.902 1.102 0 1.347-.703 4.5-.703 6.421a3.41 3.41 0 0 0 3.514 3.715h.118Zm-26.277.129a7.857 7.857 0 0 0 6.42-3.762c.237-.258.382-.588.41-.937a.963.963 0 0 0-.82-.82c-.328 0-.527.28-.82.691-.773 1.066-2.343 3.023-4.78 3.023-1.956 0-3.022-.855-3.268-2.238 1.558-1.066 5.154-4.5 5.154-7.898 0-1.594-.703-2.496-2.577-2.496-2.612 0-5.729 3.926-5.729 8.508a5.602 5.602 0 0 0 6.01 5.929Zm-3.268-6.258c0-2.94 1.839-6.292 2.776-6.292.375 0 .574.199.574.691a7.615 7.615 0 0 1-3.35 5.601Zm-14.058-8.05c0-.773.457-1.312.937-1.312.48 0 .82.328.82.949a5.748 5.748 0 0 1-.445 1.875c-.855-.364-1.312-.856-1.312-1.512Zm7.568 14.062c2.343 0 3.912-2.086 4.943-3.516.238-.258.382-.588.41-.937a.957.957 0 0 0-.82-.82c-.328 0-.539.28-.82.691-.773 1.066-1.921 2.46-3.35 2.46a1.58 1.58 0 0 1-1.64-1.757c0-1.804 1.066-4.582 1.066-6.714 0-1.02-.984-1.465-2.413-1.465-.654.017-1.307-.01-1.957-.082a8.381 8.381 0 0 0 .82-2.86c0-1.476-1.066-2.343-2.741-2.343a3.309 3.309 0 0 0-2.333 1.087 3.307 3.307 0 0 0-.854 2.428 3.72 3.72 0 0 0 2.531 3.188c-.902 1.675-2.003 3.515-2.859 4.687-.574.855-.82 1.172-.82 1.758a.699.699 0 0 0 .419.67.69.69 0 0 0 .273.056c.456 0 .902-.691 1.476-1.547a58.692 58.692 0 0 0 3.151-5.19c.539.08 1.083.12 1.628.117.774 0 1.02.128 1.02.738 0 1.101-1.02 3.515-1.02 5.601a3.686 3.686 0 0 0 1.155 2.675 3.692 3.692 0 0 0 2.735 1.005v.07ZM190.874 82.94c1.066 0 1.348.902 1.348 2.343 0 .621-.481.984-.481 1.594 0 .61.563.738.563 1.172 0 .433-3.304 5.39-4.534 5.39-1.019 0-1.265-1.02-1.265-2.344 0-4.945 2.94-8.202 4.369-8.202v.047Zm5.858 10.499c-1.394 0-1.593-2.531-1.593-5.343 0-3.516 1.558-4.301 1.558-5.238 0-.657-.328-1.172-1.031-1.172-1.055 0-1.957 1.593-2.003 1.675a2.922 2.922 0 0 0-3.058-2.343c-2.53 0-6.584 4.078-6.584 10.382 0 1.875.937 3.996 2.988 3.996 2.776 0 5.763-4.816 5.763-4.816s.117 4.816 3.632 4.816c2.214 0 3.725-2.203 4.744-3.633.238-.258.382-.588.41-.937a.956.956 0 0 0-.82-.82c-.328 0-.527.28-.82.691-.773 1.066-1.757 2.695-3.186 2.695v.047Zm-23.336 1.125c-1.593 0-2.203-.738-2.249-1.559.003-.251.046-.5.128-.738a22.09 22.09 0 0 0 4.288 1.676 4.239 4.239 0 0 1-2.167.62Zm-.855-4.008c0-.328 4.041-6.374 5.553-6.374.984 0 1.347.972 1.347 2.238a9.377 9.377 0 0 1-1.992 5.859 14.43 14.43 0 0 1-4.908-1.758v.035Zm7.884 4.09a7.032 7.032 0 0 0 5.517-2.941c.243-.255.388-.587.41-.938a.946.946 0 0 0-.82-.82c-.328 0-.527.281-.808.691a5.362 5.362 0 0 1-4.217 2.004h-.363a13.387 13.387 0 0 0 1.628-6.538c0-2.04-.691-4.453-3.386-4.453-2.694 0-6.947 6.82-7.931 9.07a28.655 28.655 0 0 1 .2-3.762c.23-1.353.383-2.719.456-4.09 0-.808-.937-1.43-1.757-1.43-.492 0-.82.329-.82 1.173 0 .363-.199 3.187-.328 6.948-.164 4.992-.328 11.812-.328 14.343 0 1.84.211 2.496 1.101 2.496a1.503 1.503 0 0 0 1.161-.436 1.502 1.502 0 0 0 .444-1.157c0-1.383-.41-2.414-.41-9.2a8.06 8.06 0 0 0 3.843.821 6.759 6.759 0 0 0 4.686-1.922c.574 0 1.171.082 1.757.082l-.035.059Zm-27.589.926c2.414 0 4.452-2.496 5.483-3.926.235-.258.376-.589.398-.937a.948.948 0 0 0-.808-.82c-.328 0-.539.28-.82.69-.773 1.067-2.285 2.942-3.726 2.942-1.101 0-1.675-.445-1.675-1.84 0-2.343 1.441-5.39 1.441-7.921a2.274 2.274 0 0 0-2.343-2.344c-3.842 0-7.978 7.113-8.2 7.488 0-.082.117-3.68.117-5.273 0-1.594-.609-2.496-1.628-2.496-1.02 0-1.02.656-1.02 2.086 0 1.43-.538 9.48-.538 10.335a1.235 1.235 0 0 0 .323 1.046 1.244 1.244 0 0 0 1.024.384c.902 0 1.171-.774 1.968-2.695.937-2.45 5.143-8.332 6.783-8.332.445 0 .656.2.656.809 0 1.277-1.101 4.253-1.101 6.913a3.616 3.616 0 0 0 2.189 3.552c.456.195.946.294 1.442.292l.035.047Zm-18.673-.211a7.86 7.86 0 0 0 6.42-3.762c.242-.255.387-.586.41-.937a.948.948 0 0 0-.82-.82c-.328 0-.528.28-.82.69-.774 1.067-2.343 3.024-4.78 3.024-1.957 0-3.023-.855-3.269-2.238 1.558-1.066 5.155-4.5 5.155-7.898 0-1.594-.703-2.496-2.577-2.496-2.613 0-5.717 3.926-5.717 8.507a5.603 5.603 0 0 0 3.652 5.599c.749.276 1.549.39 2.346.33Zm-3.269-6.258c0-2.94 1.84-6.292 2.789-6.292.363 0 .562.199.562.691a7.618 7.618 0 0 1-3.351 5.601Zm-9.313 4.582c-.574 0-1.019-.246-1.019-.61 0-.362.246-.574.738-.574.623.105 1.237.254 1.839.446a1.983 1.983 0 0 1-1.558.738Zm-.937-12.714a5.555 5.555 0 0 1-.703 1.922 2.193 2.193 0 0 1-.89-1.64c0-.774.445-1.173.89-1.173s.703.282.703.938v-.047Zm-4.616 8.25c-.574.855-.82 1.171-.82 1.757a.698.698 0 0 0 .19.512.683.683 0 0 0 .501.215c.446 0 .902-.692 1.476-1.547.774-1.172 1.875-2.695 2.859-4.254 1.71 1.067 3.432 2.203 3.432 5.027.023.164.023.33 0 .493a14.02 14.02 0 0 0-2.448-.446c-1.312 0-2.531.692-2.531 2.004s1.172 2.238 3.14 2.238a4.121 4.121 0 0 0 3.515-1.922h.492a4.392 4.392 0 0 0 3.924-1.71c.238-.258.382-.588.41-.938a.963.963 0 0 0-.82-.82c-.328 0-.539.281-.82.691a2.346 2.346 0 0 1-2.448 1.172h-.082c.098-.415.153-.84.164-1.266 0-3.515-2.66-5.109-4.686-6.456l.691-1.266c.38-.6.595-1.292.621-2.004a2.68 2.68 0 0 0-1.648-2.574 2.674 2.674 0 0 0-1.058-.203 3.23 3.23 0 0 0-2.99 2.113 3.25 3.25 0 0 0-.197 1.274 4.161 4.161 0 0 0 1.921 3.597c-.89 1.559-2.003 3.152-2.729 4.3l-.059.013Zm-9.875-6.563c1.066 0 1.347.903 1.347 2.344 0 .621-.492.984-.492 1.594 0 .609.574.738.574 1.171 0 .434-3.316 5.39-4.534 5.39-1.019 0-1.265-1.019-1.265-2.343 0-4.945 2.94-8.202 4.37-8.202v.046Zm5.857 10.5c-1.394 0-1.593-2.531-1.593-5.344 0-3.515 1.546-4.3 1.546-5.238 0-.656-.328-1.171-1.019-1.171-1.066 0-1.956 1.593-2.003 1.675a2.926 2.926 0 0 0-3.058-2.343c-2.542 0-6.584 4.078-6.584 10.382 0 1.875.938 3.996 2.988 3.996 2.776 0 5.752-4.816 5.752-4.816s.129 4.816 3.643 4.816c2.202 0 3.714-2.203 4.686-3.633.236-.258.376-.589.398-.937a.948.948 0 0 0-.808-.82c-.328 0-.539.28-.82.69-.773 1.067-1.757 2.696-3.187 2.696l.059.047ZM89.986 72.72c.445 0 .773.54.773 1.172 0 4.125-2.647 9.48-2.647 9.48 0-.808.082-10.71 1.874-10.71v.058Zm5.858 22.148c2.46 0 3.514-1.477 4.498-2.906.242-.255.387-.587.41-.938a.953.953 0 0 0-.82-.82c-.328 0-.527.281-.82.691-.773 1.067-1.546 2.05-3.058 2.05-2.167 0-3.807-2.542-3.807-2.542 1.593-.727 5.108-3.433 5.108-6.246a2.344 2.344 0 0 0-2.343-2.543c-3.35 0-6.736 5.649-6.9 5.93l.117-1.348s4.58-6.538 4.58-12.14c0-2.085-1.066-3.351-2.74-3.351-2.613 0-4.007 3.351-4.007 12.89 0 3.761-.328 9.374-.328 10.464 0 1.09.246 1.512.984 1.512a1.347 1.347 0 0 0 1.476-1.172c0-.375-.13-1.02-.13-1.723a7.278 7.278 0 0 1 .774-3.386c.984-1.723 3.807-5.648 5.483-5.648a.642.642 0 0 1 .69.703c0 2.343-3.385 4.98-4.287 4.98-.902 0-1.476.375-1.476 1.066 0 .692.375.903 1.171 1.172 1.067 1.512 3.07 3.398 5.436 3.398l-.011-.093ZM75.94 72.757c.445 0 .773.539.773 1.171 0 4.125-2.66 9.48-2.66 9.48 0-.808.083-10.71 1.887-10.71v.059Zm5.857 22.147c2.449 0 3.515-1.477 4.499-2.906a1.57 1.57 0 0 0 .41-.938.961.961 0 0 0-.82-.82c-.328 0-.539.281-.82.691-.773 1.067-1.558 2.051-3.07 2.051-2.167 0-3.795-2.543-3.795-2.543 1.593-.726 5.108-3.433 5.108-6.246a2.343 2.343 0 0 0-2.343-2.542c-3.35 0-6.748 5.648-6.912 5.929l.129-1.348s4.568-6.538 4.568-12.14c0-2.085-1.054-3.35-2.729-3.35-2.624 0-4.007 3.35-4.007 12.889 0 3.761-.328 9.374-.328 10.464 0 1.09.246 1.512.984 1.512a1.335 1.335 0 0 0 1.465-1.172c0-.375-.117-1.02-.117-1.722a7.138 7.138 0 0 1 .808-3.434c.984-1.722 3.796-5.648 5.47-5.648a.656.656 0 0 1 .704.703c0 2.344-3.398 4.98-4.3 4.98-.902 0-1.464.375-1.464 1.067 0 .69.363.902 1.172 1.171 1.066 1.512 3.069 3.399 5.435 3.399l-.047-.047Zm-13.893 1.101c2.085 0 4.006-2.53 5.037-3.96.236-.258.376-.59.398-.938a.949.949 0 0 0-.808-.82c-.328 0-.539.281-.82.691-.773 1.067-2.343 2.86-3.76 2.86-1.172 0-2.414-1.43-2.414-4.782 0-3.35 1.172-4.898 1.172-5.859a1.523 1.523 0 0 0-1.594-1.675c-1.1 0-2.05 3.878-2.05 8.097 0 4.218 2.004 6.41 4.78 6.41l.059-.024Zm-1.336-22.088a2.074 2.074 0 0 0-1.874 2.343 1.642 1.642 0 0 0 1.675 1.64 2.26 2.26 0 0 0 2.25-2.085 1.886 1.886 0 0 0-2.05-1.875v-.023Zm-20.712 8.226a1.008 1.008 0 0 0-1.171.949c0 .445.246.48.246 1.347 0 .645-.738 1.594-2.53 1.594-2.344 0-3.972-1.886-3.972-4.828 0-6.34 5.857-10.91 12.886-10.91 6.537 0 9.372 2.344 9.372 6.293 0 4.336-2.483 6.902-5.857 6.902-.984 0-1.43-1.171-2.46-1.171a1.265 1.265 0 0 0-1.101 1.171c0 1.36 1.757 1.922 3.924 1.922 4.124 0 7.802-3.843 7.802-8.788s-3.76-8.203-11.926-8.203c-7.685 0-15.088 4.828-15.088 12.89a6.423 6.423 0 0 0 6.337 6.503 4.404 4.404 0 0 0 4.686-4.007c0-.82-.328-1.64-1.171-1.64l.023-.024Zm5.448-9.738c-1.465 0-3.515 1.71-3.515 5.273 0 3.563.645 7.922.645 12.304 0 3.305-1.793 3.914-2.343 3.914-.551 0-.692-.61-1.594-.61a1.266 1.266 0 0 0-1.1 1.313c0 .938.936 1.594 2.53 1.594 2.249 0 4.826-2.215 4.826-6.047 0-5.273-.738-9.902-.738-12.679a3.118 3.118 0 0 1 1.347-2.53c.656-.329 1.265-.74 1.265-1.477a1.172 1.172 0 0 0-1.265-1.055" fill="#fff"/></svg>