<svg xmlns="http://www.w3.org/2000/svg" viewBox="0 0 425 109">
  <path d="M179.028 34.003h-9.74l4.87-13.925 4.87 13.925zm21.469 16.456L181.288 4.12h-13.932l-19.209 46.34h15.243l2.474-6.781h16.69l2.474 6.782h15.469zm19.503.938c10.17 0 19.548-3.865 19.548-15.699 0-8.657-4.791-13.45-17.164-16.23-4.248-1.006-5.254-1.47-5.254-3.018 0-1.311 1.39-2.091 3.559-2.091a29.377 29.377 0 0113.56 3.945l3.096-10.433A30.506 30.506 0 00220.881 3c-10.824 0-18.079 5.414-18.079 14.761 0 7.11 3.39 12.908 14.916 15.462 5.57 1.311 7.502 1.707 7.502 3.865 0 2.16-2.327 2.94-5.254 2.94-5.808 0-11.062-3.166-14.926-6.104l-3.39 11.212a29.439 29.439 0 0018.327 6.261m50.644-17.394h-9.74l4.87-13.925 4.87 13.925zm21.469 16.456L272.881 4.12h-13.932L239.74 50.46h15.175l2.475-6.781h16.734l2.464 6.782h15.502zm32.633-16.456h-9.74l4.87-13.925 4.87 13.925zm21.469 16.456L326.983 4.12h-13.932l-19.209 46.34h15.22l2.475-6.781h16.689l2.475 6.782h15.491zm29.842-31.534c0 3.866-2.158 5.335-5.876 5.335h-3.627V13.59h3.638c3.718 0 5.876 1.47 5.876 5.335h-.011zm15.548-.237c0-7.494-5.017-14.614-16.689-14.614H350.96v46.34h15.616V33.302h2.317l8.971 17.157h18.396l-12.723-18.852a13.753 13.753 0 008.034-12.92m8.813 31.783H416V7.737l-15.616-3.651v46.386zm-373.141 0h13.141L59.627 4.086H43.943l-9.977 26.357L24 4.085H8l19.243 46.386zm37.028 0h15.605V4.086L64.27 7.735v42.736zm24.723 0h15.616V7.737L88.994 4.085v46.386zm34.554 0h15.605V15.06h13.231l3.65-10.975h-42.983l-3.65 10.975h14.147v35.41zm257.074 32.688c1.028 0 1.299.87 1.299 2.26 0 .6-.475.95-.475 1.537 0 .588.554.712.554 1.13 0 .419-3.186 5.2-4.373 5.2-.983 0-1.22-.984-1.22-2.26 0-4.77 2.836-7.913 4.215-7.913v.046zm5.649 10.127c-1.344 0-1.536-2.442-1.536-5.154 0-3.391 1.491-4.148 1.491-5.052 0-.633-.305-1.13-.983-1.13-1.017 0-1.887 1.537-1.932 1.616a2.826 2.826 0 00-2.949-2.26c-2.452 0-6.351 3.932-6.351 10.013 0 1.808.904 3.854 2.882 3.854 2.678 0 5.559-4.645 5.559-4.645s.113 4.645 3.503 4.645c2.124 0 3.582-2.125 4.576-3.504a1.52 1.52 0 00.396-.904.928.928 0 00-.791-.79c-.317 0-.52.27-.791.666-.746 1.028-1.695 2.6-3.074 2.6v.045zM371.017 95.5c2.011 0 3.864-2.441 4.847-3.82.23-.249.369-.567.396-.904a.918.918 0 00-.791-.792c-.316 0-.509.272-.791.667-.746 1.029-2.26 2.758-3.627 2.758-1.13 0-2.26-1.379-2.26-4.611 0-3.233 1.13-4.725 1.13-5.652a1.477 1.477 0 00-.917-1.514 1.47 1.47 0 00-.62-.102c-1.062 0-1.966 3.741-1.966 7.81 0 4.07 1.932 6.183 4.61 6.183l-.011-.023zm-1.288-21.26a2 2 0 00-1.819 2.26 1.587 1.587 0 001.001 1.47c.196.077.404.116.614.113a2.179 2.179 0 002.17-2.012 1.818 1.818 0 00-.584-1.338 1.81 1.81 0 00-1.382-.47v-.023zm-14.034 7.313c0-.746.429-1.266.904-1.266.474 0 .791.316.791.915a5.533 5.533 0 01-.43 1.809c-.836-.35-1.265-.825-1.265-1.458zm7.288 13.563c2.26 0 3.785-2.012 4.768-3.391.234-.246.374-.566.396-.904a.913.913 0 00-.78-.791c-.316 0-.52.27-.791.666-.745 1.029-1.853 2.374-3.231 2.374a1.527 1.527 0 01-1.582-1.695c0-1.741 1.028-4.42 1.028-6.477 0-.983-.949-1.412-2.328-1.412-.63.016-1.26-.01-1.887-.08a8 8 0 00.78-2.758c0-1.424-1.017-2.26-2.633-2.26a3.198 3.198 0 00-3.073 3.39 3.581 3.581 0 002.44 3.074c-.87 1.617-1.932 3.392-2.757 4.522-.553.825-.791 1.13-.791 1.696a.682.682 0 00.183.494.677.677 0 00.484.206c.441 0 .87-.667 1.424-1.492a54.003 54.003 0 003.028-5.007c.524.078 1.053.116 1.582.113.746 0 .983.125.983.712 0 1.063-.983 3.391-.983 5.403a3.548 3.548 0 003.74 3.549v.068zm-15.525.17a7.589 7.589 0 006.192-3.629c.229-.249.368-.567.395-.904a.927.927 0 00-.791-.791c-.316 0-.52.271-.791.667-.745 1.028-2.26 2.916-4.61 2.916-1.898 0-2.915-.825-3.152-2.16 1.491-1.028 4.96-4.34 4.96-7.617 0-1.537-.667-2.407-2.475-2.407-2.531 0-5.525 3.786-5.525 8.205a5.41 5.41 0 003.53 5.404 5.403 5.403 0 002.267.315zm-3.153-6.036c0-2.837 1.774-6.07 2.678-6.07.35 0 .554.192.554.667a7.35 7.35 0 01-3.232 5.403zm-7.446 4.52c1.017 0 1.13 1.063 1.13 2.759 0 3.39-.791 5.798-1.65 5.798-.859 0-1.582-1.13-1.582-5.21 0-3.55.158-6.42.158-8.952 0 0 5.481-6.782 5.481-13.168 0-2.633-.712-3.933-2.328-3.933-3.153 0-4.882 7.053-5.322 15.055-.192 3.47-.192 7.912-.192 11.596 0 4.216 1.412 6.499 3.627 6.499 2.011 0 3.977-3.029 3.977-7.572a12.244 12.244 0 00-.474-2.68 4.747 4.747 0 003.073-2.26c.234-.245.374-.565.396-.904a.918.918 0 00-.791-.791c-.305 0-.509.271-.78.667-.757 1.028-1.424 1.82-2.328 1.82-.904 0-1.536-1.13-2.599-1.13a1.132 1.132 0 00-1.186 1.254c0 .746.508 1.13 1.345 1.13l.045.023zm1.085-20.728c.395 0 .632.316.632 1.028 0 5.652-3.582 10.964-3.582 10.964.317-6.194 1.966-11.992 2.95-11.992zm-9.3 22.435c2.011 0 3.865-2.44 4.848-3.82a1.45 1.45 0 00.395-.904.912.912 0 00-.791-.791c-.316 0-.508.271-.791.667-.746 1.028-2.26 2.757-3.616 2.757-1.13 0-2.327-1.378-2.327-4.611 0-3.233 1.13-4.724 1.13-5.651a1.47 1.47 0 00-1.537-1.617c-1.062 0-1.966 3.742-1.966 7.81 0 4.07 1.932 6.183 4.61 6.183l.045-.023zm-1.345-21.26a2 2 0 00-1.819 2.26 1.607 1.607 0 00.479 1.129 1.591 1.591 0 001.137.454 2.18 2.18 0 002.17-2.012 1.82 1.82 0 00-.585-1.338 1.806 1.806 0 00-1.382-.47v-.023zm-14.033 7.313c0-.746.429-1.266.904-1.266.474 0 .79.317.79.916a5.532 5.532 0 01-.429 1.808c-.836-.35-1.265-.825-1.265-1.458zm7.288 13.563c2.26 0 3.785-2.012 4.779-3.39a1.48 1.48 0 00.385-.905.92.92 0 00-.78-.791c-.317 0-.52.271-.791.667-.746 1.028-1.853 2.373-3.232 2.373a1.525 1.525 0 01-1.593-1.672c0-1.741 1.028-4.42 1.028-6.477 0-.983-.949-1.412-2.327-1.412-.63.016-1.261-.01-1.887-.08a8.126 8.126 0 00.791-2.758c0-1.424-1.029-2.26-2.644-2.26a3.199 3.199 0 00-3.074 3.39 3.583 3.583 0 002.441 3.075c-.87 1.616-1.932 3.39-2.757 4.521-.554.825-.791 1.13-.791 1.696a.667.667 0 00.666.7c.441 0 .87-.667 1.424-1.492a56.54 56.54 0 003.04-5.007 9.94 9.94 0 001.57.113c.746 0 .983.125.983.712 0 1.063-.983 3.391-.983 5.403a3.558 3.558 0 002.325 3.333c.453.167.934.24 1.415.216l.012.045zm-15.537.192a7.578 7.578 0 006.192-3.628 1.52 1.52 0 00.396-.904.928.928 0 00-.791-.791c-.317 0-.52.271-.791.667-.746 1.028-2.26 2.916-4.611 2.916-1.898 0-2.915-.825-3.152-2.16 1.491-1.028 4.96-4.34 4.96-7.617 0-1.537-.666-2.407-2.474-2.407-2.531 0-5.526 3.786-5.526 8.205a5.405 5.405 0 005.797 5.72zm-3.153-6.035c0-2.837 1.774-6.07 2.678-6.07.362 0 .554.192.554.667a7.35 7.35 0 01-3.232 5.403zm-13.209 5.131c-1.536 0-2.124-.712-2.158-1.503 0-.242.038-.482.113-.712a21.329 21.329 0 004.136 1.616 4.093 4.093 0 01-2.091.6zm-.824-3.865c0-.317 3.898-6.149 5.367-6.149.938 0 1.299.938 1.299 2.159a9.103 9.103 0 01-1.932 5.651 13.912 13.912 0 01-4.734-1.695v.034zm7.604 3.944a6.781 6.781 0 005.322-2.837c.234-.245.374-.566.396-.904a.918.918 0 00-.791-.791c-.305 0-.509.271-.78.667a5.174 5.174 0 01-4.068 1.933h-.35a12.906 12.906 0 001.57-6.307c0-1.967-.666-4.295-3.265-4.295s-6.701 6.578-7.65 8.748a26.504 26.504 0 01.204-3.628c.22-1.306.363-2.623.429-3.945 0-.78-.904-1.379-1.695-1.379-.475 0-.791.317-.791 1.13 0 .35-.192 3.075-.316 6.703-.158 4.815-.317 11.393-.317 13.834 0 1.775.204 2.408 1.074 2.408a1.464 1.464 0 001.112-.425 1.453 1.453 0 00.425-1.112c0-1.334-.396-2.329-.396-8.873a7.773 7.773 0 003.706.791 6.518 6.518 0 004.52-1.853c.554 0 1.13.079 1.695.079l-.034.056zm-26.169.927c2.011 0 3.864-2.441 4.847-3.82.229-.249.368-.567.395-.904a.92.92 0 00-.79-.792c-.317 0-.52.272-.791.667-.746 1.029-2.26 2.758-3.628 2.758-1.186 0-2.327-1.379-2.327-4.611 0-3.233 1.186-4.725 1.186-5.652a1.47 1.47 0 00-1.537-1.616c-1.062 0-1.966 3.741-1.966 7.81 0 4.07 1.921 6.183 4.611 6.183v-.023zm-1.3-21.26a1.994 1.994 0 00-1.395.74 2.004 2.004 0 00-.424 1.52c0 .211.042.42.123.614a1.597 1.597 0 00.877.858c.196.078.405.115.616.11a2.18 2.18 0 002.169-2.011 1.802 1.802 0 00-.584-1.338 1.806 1.806 0 00-1.382-.47v-.023zm-14.068 20.356c-1.536 0-2.124-.712-2.169-1.503.003-.243.045-.483.124-.713a21.323 21.323 0 004.136 1.617 4.091 4.091 0 01-2.091.599zm-.825-3.866c0-.316 3.899-6.148 5.356-6.148.95 0 1.3.938 1.3 2.159a9.044 9.044 0 01-1.921 5.65 13.926 13.926 0 01-4.735-1.695v.034zm7.605 3.945A6.781 6.781 0 00266 91.725a1.44 1.44 0 00.395-.904.91.91 0 00-.79-.791c-.317 0-.509.27-.791.666a5.15 5.15 0 01-4.057 1.933h-.35a12.905 12.905 0 001.57-6.307c0-1.966-.666-4.295-3.265-4.295s-6.701 6.579-7.65 8.749a27.838 27.838 0 01.192-3.629c.223-1.305.37-2.622.441-3.944 0-.78-.904-1.379-1.695-1.379-.475 0-.791.317-.791 1.13 0 .35-.192 3.075-.316 6.703-.159 4.815-.317 11.393-.317 13.834 0 1.774.204 2.407 1.062 2.407a1.454 1.454 0 001.117-.42 1.454 1.454 0 00.42-1.117c0-1.333-.384-2.328-.384-8.872a7.77 7.77 0 003.706.79 6.52 6.52 0 004.52-1.853c.554 0 1.13.08 1.695.08l-.034.056zm-15.571.61c2.125 0 3.582-2.125 4.52-3.504.234-.245.374-.565.396-.904a.92.92 0 00-.78-.79c-.316 0-.52.27-.791.666-.746 1.028-1.898 2.6-2.881 2.6-.983 0-1.334-.588-1.334-1.922 0-1.537.667-4.52.667-6.273a2.49 2.49 0 00-.667-2.043 2.485 2.485 0 00-2.011-.76c-2.881 0-5.164 4.42-5.164 4.42.087-.63.14-1.264.158-1.9 0-1.537-.44-3.311-2.802-3.311-3.469 0-6.7 5.527-6.904 5.843 0-.237.362-3.04.362-4.069 0-1.028-.441-1.57-1.661-1.57-.78 0-1.3.474-1.3 1.729 0 4.34-.158 9.471-.158 10.534 0 1.062.316 1.57 1.13 1.57 1.13 0 1.311-1.378 1.898-4.09.588-2.713 4.057-7.732 5.989-7.732.791 0 1.028.396 1.028 1.571 0 1.538-.87 6.273-.87 7.257 0 .983.396 1.582 1.13 1.582a1.39 1.39 0 001.503-1.424c0-2.52 3.107-8.319 4.847-8.319.712 0 .87.43.87 1.063 0 1.3-.677 4.34-.677 6.193a3.286 3.286 0 003.389 3.583h.113zm-25.344.125a7.578 7.578 0 006.192-3.629c.229-.248.368-.567.395-.904a.927.927 0 00-.791-.79c-.316 0-.508.27-.791.666-.745 1.028-2.26 2.916-4.61 2.916-1.887 0-2.915-.825-3.152-2.159 1.502-1.028 4.971-4.34 4.971-7.618 0-1.537-.678-2.407-2.485-2.407-2.52 0-5.526 3.786-5.526 8.206a5.405 5.405 0 005.797 5.719zm-3.153-6.036c0-2.837 1.774-6.07 2.678-6.07.362 0 .554.193.554.667a7.35 7.35 0 01-3.232 5.403zm-13.559-7.765c0-.746.441-1.266.904-1.266s.791.317.791.916a5.533 5.533 0 01-.43 1.808c-.824-.35-1.265-.825-1.265-1.458zm7.299 13.563c2.26 0 3.774-2.012 4.769-3.39.229-.25.368-.568.395-.905a.928.928 0 00-.791-.79c-.316 0-.52.27-.791.666-.746 1.028-1.853 2.373-3.231 2.373a1.526 1.526 0 01-1.582-1.695c0-1.74 1.028-4.42 1.028-6.476 0-.984-.949-1.413-2.328-1.413-.63.017-1.26-.01-1.887-.08a8.08 8.08 0 00.791-2.757c0-1.424-1.028-2.26-2.644-2.26a3.194 3.194 0 00-2.898 2.136 3.185 3.185 0 00-.175 1.254 3.581 3.581 0 002.44 3.074c-.87 1.617-1.932 3.391-2.757 4.522-.553.825-.791 1.13-.791 1.695a.666.666 0 00.667.7c.441 0 .87-.666 1.424-1.491a56.53 56.53 0 003.039-5.007c.52.078 1.045.116 1.571.113.746 0 .983.124.983.712 0 1.062-.983 3.39-.983 5.402a3.572 3.572 0 001.113 2.581 3.558 3.558 0 002.638.968v.068zM191.141 83c1.028 0 1.3.87 1.3 2.261 0 .599-.464.95-.464 1.537 0 .588.543.712.543 1.13 0 .418-3.187 5.2-4.373 5.2-.983 0-1.22-.984-1.22-2.261 0-4.77 2.836-7.912 4.214-7.912V83zm5.65 10.127c-1.345 0-1.537-2.44-1.537-5.153 0-3.391 1.503-4.148 1.503-5.053 0-.633-.316-1.13-.994-1.13-1.017 0-1.887 1.537-1.932 1.616a2.819 2.819 0 00-2.95-2.26c-2.44 0-6.35 3.933-6.35 10.014 0 1.808.904 3.854 2.881 3.854 2.678 0 5.56-4.645 5.56-4.645s.113 4.645 3.503 4.645c2.135 0 3.593-2.125 4.576-3.504.229-.249.368-.567.395-.904a.927.927 0 00-.791-.791c-.316 0-.508.271-.791.667-.745 1.028-1.695 2.6-3.073 2.6v.044zm-22.509 1.086c-1.536 0-2.124-.713-2.169-1.504a2.27 2.27 0 01.124-.712 21.322 21.322 0 004.136 1.617 4.09 4.09 0 01-2.091.599zm-.824-3.866c0-.316 3.898-6.148 5.356-6.148.949 0 1.299.938 1.299 2.158a9.044 9.044 0 01-1.921 5.652 13.916 13.916 0 01-4.734-1.696v.034zm7.604 3.945a6.778 6.778 0 005.322-2.837c.234-.246.374-.566.396-.904a.918.918 0 00-.791-.792c-.317 0-.509.272-.78.667a5.174 5.174 0 01-4.068 1.933h-.35a12.918 12.918 0 001.571-6.307c0-1.966-.667-4.295-3.266-4.295s-6.701 6.578-7.65 8.748a27.84 27.84 0 01.192-3.628c.223-1.305.37-2.622.441-3.944 0-.78-.904-1.38-1.695-1.38-.474 0-.791.317-.791 1.131 0 .35-.192 3.074-.316 6.702-.158 4.815-.317 11.393-.317 13.835 0 1.774.204 2.407 1.063 2.407a1.448 1.448 0 001.119-.42 1.463 1.463 0 00.429-1.117c0-1.334-.396-2.328-.396-8.873a7.773 7.773 0 003.706.792 6.518 6.518 0 004.52-1.854c.554 0 1.13.08 1.695.08l-.034.056zm-26.61.893c2.328 0 4.294-2.408 5.288-3.787a1.48 1.48 0 00.384-.904.913.913 0 00-.779-.791c-.317 0-.52.271-.791.667-.746 1.028-2.204 2.837-3.594 2.837-1.062 0-1.615-.43-1.615-1.775 0-2.26 1.389-5.199 1.389-7.64a2.186 2.186 0 00-1.384-2.108 2.187 2.187 0 00-.875-.153c-3.707 0-7.695 6.86-7.91 7.222 0-.079.113-3.549.113-5.086 0-1.537-.588-2.407-1.571-2.407s-.983.633-.983 2.012-.519 9.144-.519 9.969a1.19 1.19 0 00.311 1.008 1.204 1.204 0 00.988.37c.87 0 1.13-.745 1.898-2.6.904-2.361 4.961-8.035 6.543-8.035.429 0 .632.192.632.78 0 1.232-1.062 4.102-1.062 6.668a3.5 3.5 0 00.948 2.614 3.483 3.483 0 002.555 1.093l.034.046zm-18.011-.204a7.578 7.578 0 006.192-3.628c.233-.246.373-.566.395-.904a.917.917 0 00-.791-.791c-.316 0-.508.27-.791.666-.745 1.029-2.26 2.917-4.61 2.917-1.887 0-2.915-.825-3.152-2.16 1.502-1.028 4.971-4.34 4.971-7.617 0-1.537-.678-2.408-2.486-2.408-2.519 0-5.514 3.787-5.514 8.206a5.407 5.407 0 003.523 5.4 5.399 5.399 0 002.263.32zm-3.153-6.035c0-2.837 1.774-6.07 2.689-6.07.351 0 .543.192.543.667a7.35 7.35 0 01-3.232 5.403zm-8.983 4.419c-.554 0-.983-.238-.983-.588s.237-.554.712-.554c.601.101 1.193.245 1.774.43a1.915 1.915 0 01-1.503.712zm-.904-12.263a5.348 5.348 0 01-.678 1.853 2.105 2.105 0 01-.859-1.582c0-.746.43-1.13.859-1.13.43 0 .678.27.678.904V81.1zm-4.452 7.957c-.554.825-.791 1.13-.791 1.695a.668.668 0 00.667.7c.429 0 .87-.666 1.424-1.491.745-1.13 1.807-2.6 2.757-4.103 1.649 1.029 3.31 2.125 3.31 4.849.023.157.023.317 0 .475a13.553 13.553 0 00-2.361-.43c-1.266 0-2.441.667-2.441 1.933s1.13 2.158 3.028 2.158a3.975 3.975 0 003.39-1.853h.475a4.236 4.236 0 003.785-1.65 1.52 1.52 0 00.396-.904.928.928 0 00-.791-.792c-.317 0-.52.272-.791.667a2.263 2.263 0 01-2.362 1.13h-.079c.095-.4.148-.809.158-1.22 0-3.391-2.565-4.928-4.52-6.228l.667-1.22a3.88 3.88 0 00.599-1.933 2.582 2.582 0 00-.729-1.901 2.58 2.58 0 00-1.881-.778 3.118 3.118 0 00-3.074 3.266 4.009 4.009 0 001.853 3.47c-.858 1.504-1.932 3.04-2.632 4.148l-.057.012zm-9.525-6.33c1.028 0 1.299.87 1.299 2.26 0 .6-.474.95-.474 1.538 0 .588.553.712.553 1.13 0 .418-3.197 5.2-4.373 5.2-.983 0-1.22-.984-1.22-2.261 0-4.77 2.836-7.912 4.215-7.912v.045zm5.649 10.127c-1.344 0-1.536-2.441-1.536-5.154 0-3.39 1.491-4.148 1.491-5.052 0-.633-.316-1.13-.983-1.13-1.028 0-1.887 1.537-1.932 1.616a2.826 2.826 0 00-2.949-2.26c-2.452 0-6.35 3.933-6.35 10.014 0 1.808.904 3.854 2.881 3.854 2.678 0 5.548-4.646 5.548-4.646s.124 4.646 3.514 4.646c2.124 0 3.582-2.125 4.52-3.504a1.48 1.48 0 00.384-.904.913.913 0 00-.78-.791c-.316 0-.519.27-.791.666-.745 1.029-1.695 2.6-3.073 2.6l.056.045zM93.831 73.144c.429 0 .745.52.745 1.13 0 3.978-2.553 9.144-2.553 9.144 0-.78.079-10.33 1.808-10.33v.056zm5.65 21.361c2.372 0 3.389-1.424 4.338-2.803.234-.245.374-.565.396-.904a.918.918 0 00-.791-.791c-.317 0-.509.271-.791.667-.746 1.028-1.492 1.978-2.95 1.978-2.09 0-3.672-2.453-3.672-2.453 1.537-.7 4.927-3.311 4.927-6.024a2.26 2.26 0 00-2.26-2.453c-3.232 0-6.497 5.448-6.655 5.72l.113-1.3s4.418-6.307 4.418-11.71c0-2.012-1.029-3.232-2.644-3.232-2.52 0-3.865 3.232-3.865 12.432 0 3.628-.316 9.042-.316 10.094 0 1.05.237 1.458.949 1.458a1.299 1.299 0 001.424-1.13c0-.362-.125-.984-.125-1.662a7.02 7.02 0 01.746-3.267c.95-1.661 3.672-5.447 5.288-5.447a.623.623 0 01.667.678c0 2.26-3.266 4.803-4.136 4.803-.87 0-1.423.362-1.423 1.029 0 .667.361.87 1.13 1.13 1.028 1.458 2.96 3.278 5.243 3.278l-.012-.09zM80.282 73.177c.429 0 .745.52.745 1.13 0 3.98-2.565 9.145-2.565 9.145 0-.78.08-10.331 1.82-10.331v.056zm5.65 21.362c2.36 0 3.389-1.424 4.338-2.803.23-.249.368-.567.396-.904a.927.927 0 00-.791-.791c-.317 0-.52.271-.791.667-.746 1.028-1.503 1.978-2.96 1.978-2.091 0-3.662-2.453-3.662-2.453 1.537-.7 4.927-3.312 4.927-6.024a2.26 2.26 0 00-2.26-2.453c-3.232 0-6.508 5.448-6.667 5.72l.125-1.3s4.406-6.307 4.406-11.71c0-2.012-1.017-3.232-2.632-3.232-2.531 0-3.865 3.232-3.865 12.432 0 3.628-.316 9.042-.316 10.094 0 1.05.237 1.457.949 1.457a1.288 1.288 0 001.412-1.13c0-.361-.113-.983-.113-1.661a6.885 6.885 0 01.78-3.312c.95-1.661 3.661-5.448 5.277-5.448a.633.633 0 01.678.678c0 2.261-3.277 4.804-4.147 4.804-.87 0-1.412.362-1.412 1.029 0 .666.35.87 1.13 1.13 1.028 1.458 2.96 3.278 5.242 3.278l-.045-.046zM72.53 95.602c2.011 0 3.864-2.442 4.859-3.82a1.48 1.48 0 00.384-.905.916.916 0 00-.78-.79c-.316 0-.52.27-.79.666-.746 1.028-2.26 2.758-3.628 2.758-1.13 0-2.327-1.38-2.327-4.612s1.13-4.724 1.13-5.65a1.47 1.47 0 00-1.537-1.617c-1.062 0-1.978 3.741-1.978 7.81 0 4.069 1.933 6.182 4.61 6.182l.057-.022zm-1.288-21.306a2 2 0 00-1.808 2.261 1.584 1.584 0 001.616 1.582 2.18 2.18 0 002.17-2.011 1.82 1.82 0 00-1.978-1.809v-.023zm-19.977 7.935a.972.972 0 00-1.13.915c0 .43.237.464.237 1.3 0 .622-.712 1.537-2.44 1.537-2.26 0-3.831-1.82-3.831-4.656 0-6.115 5.65-10.523 12.43-10.523 6.304 0 9.039 2.26 9.039 6.07 0 4.181-2.396 6.657-5.65 6.657-.95 0-1.379-1.13-2.373-1.13a1.22 1.22 0 00-1.062 1.13c0 1.31 1.695 1.853 3.785 1.853 3.978 0 7.526-3.707 7.526-8.477 0-4.77-3.627-7.911-11.503-7.911-7.413 0-14.554 4.656-14.554 12.432a6.198 6.198 0 003.75 5.772c.747.32 1.55.491 2.363.501a4.248 4.248 0 004.52-3.865c0-.791-.316-1.582-1.13-1.582l.023-.023zm5.254-9.392c-1.413 0-3.39 1.65-3.39 5.086 0 3.436.621 7.64.621 11.867 0 3.188-1.728 3.775-2.26 3.775-.53 0-.666-.587-1.536-.587a1.22 1.22 0 00-1.062 1.266c0 .904.904 1.537 2.44 1.537 2.17 0 4.656-2.137 4.656-5.832 0-5.087-.712-9.551-.712-12.23a3.008 3.008 0 011.3-2.441c.632-.317 1.22-.712 1.22-1.424a1.13 1.13 0 00-1.22-1.017" fill="#fff"/>
</svg>
