<svg viewBox="0 0 358 110" xmlns="http://www.w3.org/2000/svg">
  <path d="M0 97.492V9.514h16.258v35.568L49.155 9.514h20.068l-32.77 34.94 33.66 53.038H50.17L24.768 56.77l-8.51 9.175v31.547H0z" fill="#F7F6F3"/>
  <path d="M93.162 99c-5.42 0-9.865-.838-13.337-2.514-3.472-1.76-6.054-4.063-7.748-6.912-1.693-2.849-2.54-5.991-2.54-9.427 0-5.78 2.286-10.473 6.859-14.076 4.572-3.603 11.431-5.404 20.576-5.404h16.004v-1.509c0-4.273-1.228-7.415-3.683-9.426-2.456-2.01-5.504-3.016-9.145-3.016-3.303 0-6.182.796-8.637 2.388-2.456 1.508-3.98 3.77-4.573 6.787H71.061c.424-4.525 1.948-8.463 4.573-11.814 2.71-3.352 6.181-5.908 10.415-7.667 4.234-1.843 8.976-2.765 14.226-2.765 8.975 0 16.046 2.22 21.211 6.661 5.166 4.44 7.748 10.725 7.748 18.852v38.334H115.39l-1.525-10.055c-1.863 3.352-4.487 6.117-7.875 8.295C102.688 97.911 98.412 99 93.162 99zm3.683-12.568c4.658 0 8.256-1.508 10.797-4.525 2.625-3.016 4.276-6.745 4.953-11.186H98.751c-4.319 0-7.41.796-9.273 2.388-1.862 1.509-2.794 3.394-2.794 5.656 0 2.43.931 4.315 2.794 5.656 1.863 1.34 4.319 2.01 7.367 2.01zm103.537-51.279v62.339h-14.353l-1.27-10.558c-1.948 3.687-4.784 6.62-8.51 8.798-3.641 2.179-7.96 3.268-12.956 3.268-7.79 0-13.844-2.43-18.163-7.29-4.318-4.86-6.478-11.981-6.478-21.366V35.153h16.258v33.683c0 5.362 1.101 9.468 3.303 12.317 2.201 2.849 5.631 4.273 10.288 4.273 4.572 0 8.298-1.592 11.177-4.776 2.964-3.184 4.446-7.625 4.446-13.322V35.153h16.258zM237.902 99c-5.589 0-10.5-.88-14.734-2.64-4.234-1.843-7.621-4.356-10.161-7.54-2.54-3.184-4.065-6.871-4.573-11.06h16.385c.508 2.43 1.863 4.524 4.065 6.284 2.286 1.675 5.207 2.513 8.764 2.513 3.556 0 6.139-.712 7.748-2.136 1.693-1.425 2.54-3.059 2.54-4.902 0-2.681-1.185-4.483-3.556-5.404-2.371-1.006-5.674-1.97-9.907-2.89a109.107 109.107 0 01-8.256-2.138c-2.795-.838-5.378-1.885-7.748-3.142-2.287-1.34-4.15-3.016-5.589-5.027-1.44-2.095-2.159-4.65-2.159-7.667 0-5.53 2.201-10.18 6.604-13.95 4.488-3.77 10.754-5.656 18.799-5.656 7.451 0 13.379 1.717 17.782 5.153 4.488 3.435 7.155 8.17 8.002 14.202h-15.369c-.931-4.608-4.446-6.913-10.542-6.913-3.049 0-5.42.587-7.113 1.76-1.609 1.173-2.413 2.64-2.413 4.399 0 1.843 1.227 3.31 3.683 4.399 2.456 1.09 5.716 2.094 9.78 3.016 4.403 1.006 8.426 2.137 12.067 3.394 3.725 1.173 6.689 2.974 8.891 5.404 2.201 2.346 3.302 5.74 3.302 10.18.085 3.855-.931 7.332-3.048 10.432-2.117 3.1-5.166 5.53-9.145 7.29-3.98 1.76-8.68 2.639-14.099 2.639zm57.334 0c-5.42 0-9.865-.838-13.337-2.514-3.472-1.76-6.055-4.063-7.748-6.912-1.694-2.849-2.54-5.991-2.54-9.427 0-5.78 2.286-10.473 6.858-14.076 4.573-3.603 11.432-5.404 20.577-5.404h16.004v-1.509c0-4.273-1.228-7.415-3.684-9.426-2.455-2.01-5.504-3.016-9.145-3.016-3.302 0-6.181.796-8.637 2.388-2.455 1.508-3.98 3.77-4.572 6.787h-15.877c.423-4.525 1.947-8.463 4.572-11.814 2.71-3.352 6.182-5.908 10.416-7.667 4.233-1.843 8.975-2.765 14.225-2.765 8.976 0 16.047 2.22 21.212 6.661 5.165 4.44 7.748 10.725 7.748 18.852v38.334h-13.845l-1.524-10.055c-1.863 3.352-4.488 6.117-7.875 8.295-3.302 2.179-7.579 3.268-12.828 3.268zm3.683-12.568c4.657 0 8.256-1.508 10.796-4.525 2.625-3.016 4.276-6.745 4.954-11.186h-13.845c-4.318 0-7.409.796-9.272 2.388-1.863 1.509-2.794 3.394-2.794 5.656 0 2.43.931 4.315 2.794 5.656 1.863 1.34 4.319 2.01 7.367 2.01zm42.823 11.06V7H358v90.492h-16.258z" fill="#F7F6F3"/>
</svg>
