<svg xmlns="http://www.w3.org/2000/svg" viewBox="0 0 250 250">
  <path d="M219.013 93.152c-2.349-2.349-5.421-3.614-8.674-3.614h-65.057V45.986c0-1.807-1.084-3.614-2.891-4.157l-23.493-9.035c-1.446-.542-2.892-.362-4.157.542-1.265.903-1.988 2.168-1.988 3.795v52.588H41.552c-.723 0-1.446 0-2.169.18-3.252.543-5.963 2.35-7.951 5.06a12.744 12.744 0 00-1.988 9.217l15.722 88.911c1.085 5.783 6.145 10.12 12.108 10.12h135.897c5.783 0 10.843-4.156 11.927-9.939l17.168-88.911c.181-.723.181-1.627.181-2.35 0-3.433-1.265-6.505-3.434-8.855zm-6.505 6.325c.542.542.903 1.446.903 2.35v.542l-4.698 24.938h-35.962l1.987-28.733h35.601c.904 0 1.627.361 2.169.903zm-46.805-.903l-1.988 28.733h-35.601V98.574h37.589zm-46.625 28.733H83.839l-2.71-28.733h37.949v28.733zm0 9.036v23.493H86.911l-2.168-23.493h34.335zm0 32.529v24.938H90.164l-2.35-24.938h31.264zm9.036 0h32.709l-1.807 24.938h-30.902v-24.938zm0-9.036v-23.493h34.878l-1.626 23.493h-33.252zm44.094-23.493h34.698l-4.518 23.493h-31.987l1.807-23.493zm-50.419-92.887l14.457 5.602v40.48h-14.457V43.456zm-82.948 56.563c.542-.722 1.265-1.084 1.988-1.265h31.264l2.71 28.553H42.817l-4.518-24.938c0-.904.18-1.627.542-2.35zm5.602 36.324h31.264l2.169 23.493H48.6l-4.157-23.493zm12.831 57.467c-1.626 0-2.891-1.084-3.072-2.711l-3.976-22.227H78.78l2.35 24.938H57.273zm135.897 0h-25.119l1.807-24.938h30.722l-4.338 22.408c-.18 1.446-1.626 2.53-3.072 2.53z"/>
</svg>
