<svg xmlns="http://www.w3.org/2000/svg" viewBox="0 0 250 250">
  <path d="M216.664 112.85h-55.118V86.646c0-2.53-1.987-4.518-4.517-4.518H32.336a4.474 4.474 0 00-4.518 4.518v128.307a4.474 4.474 0 004.518 4.518h184.328a4.474 4.474 0 004.518-4.518v-97.585a4.474 4.474 0 00-4.518-4.518zm-4.518 34.336h-21.685v-25.3h21.685v25.3zm-92.164-25.3v25.3H67.575v-25.3h52.407zm-21.686 56.021v-21.686h52.408v21.686H98.296zM58.54 147.186H36.854v-25.3h21.685v25.3zm30.722 9.035v21.686H36.854v-21.686H89.26zm30.721 30.722v23.493H67.575v-23.493h52.407zm9.036 0h52.407v23.493h-52.407v-23.493zm30.721-9.036v-21.686h52.407v21.686H159.74zm21.686-56.021v25.3h-52.407v-25.3h52.407zm-28.914-9.036H98.296V91.164h54.215v21.686zm-63.25-21.686v21.686H36.854V91.164H89.26zm-52.407 95.779H58.54v23.493H36.854v-23.493zm153.607 23.493v-23.493h21.685v23.493h-21.685zM227.869 59.9l-5.422-28.371c-.542-2.53-2.891-3.976-5.24-3.615L156.848 39.48c-2.53.542-3.976 2.892-3.614 5.24l5.421 28.373c.181 1.265.904 2.168 1.988 2.891.723.543 1.626.723 2.53.723h.904l60.358-11.566c1.265-.18 2.169-.903 2.892-1.987.361-.904.722-2.169.542-3.253zm-61.262 7.049l-3.795-19.517 51.503-9.94 3.795 19.517-51.503 9.94z"/>
</svg>
