<svg xmlns="http://www.w3.org/2000/svg" viewBox="0 0 250 250">
  <path d="M124.5 33.336c-50.78 0-92.164 41.383-92.164 92.164s41.383 92.165 92.164 92.165 92.165-41.384 92.165-92.165c0-50.78-41.384-92.164-92.165-92.164zm0 175.293c-45.901 0-83.128-37.227-83.128-83.129 0-45.901 37.227-83.128 83.128-83.128 45.902 0 83.129 37.227 83.129 83.128 0 45.902-37.227 83.129-83.129 83.129z"/>
  <path d="M147.993 125.5a23.446 23.446 0 00-23.493-23.493 23.447 23.447 0 00-23.493 23.493 23.446 23.446 0 0023.493 23.493 23.446 23.446 0 0023.493-23.493zm-37.95 0c0-7.951 6.506-14.457 14.457-14.457 7.952 0 14.457 6.506 14.457 14.457 0 7.952-6.505 14.457-14.457 14.457-7.951 0-14.457-6.505-14.457-14.457z"/>
  <path d="M184.678 96.767l-4.337-1.265 1.807-6.506c.723-2.35-.723-4.88-3.072-5.602-2.35-.723-4.88.723-5.602 3.072l-1.808 6.325-67.767-21.505.361-1.265c.723-2.35-.542-4.88-2.891-5.783-2.35-.723-4.88.542-5.783 2.891l-.542 1.446-13.735-4.337c-2.349-.723-4.879.542-5.602 2.891-.723 2.35.542 4.88 2.892 5.603l90.357 28.553-18.795 67.587-67.767-18.795L97.212 94.96c.723-2.35-.723-4.88-3.253-5.603-2.349-.722-4.879.723-5.602 3.253L73.54 147.547l-11.928-3.433c-2.349-.723-4.879.723-5.602 3.072-.723 2.349.723 4.879 3.072 5.602l12.108 3.434-.903 4.337c-.723 2.349.723 4.879 3.253 5.602.361.181.722.181 1.084.181 1.988 0 3.795-1.265 4.337-3.434l1.084-3.976 67.587 18.795-2.168 7.77c-.723 2.35.723 4.88 3.072 5.603.361.18.904.18 1.265.18 1.988 0 3.795-1.265 4.337-3.253l2.169-7.77 13.192 3.614c.361.181.903.181 1.265.181 1.988 0 3.795-1.265 4.337-3.253.723-2.349-.723-4.879-3.072-5.602l-13.192-3.615 18.975-67.225 3.975 1.265c.543.18.904.18 1.446.18 1.988 0 3.614-1.265 4.337-3.072.723-2.71-.542-5.24-2.891-5.963z"/>
</svg>
