<svg xmlns="http://www.w3.org/2000/svg" viewBox="0 0 250 250">
  <path d="M202.93 209.713c-6.867 0-15.542-4.88-24.758-10.12-10.843-6.145-23.132-13.192-36.685-14.819.181-.361.181-.723.181-1.084.361-8.313-.543-16.264-2.53-24.216.361-2.168 1.445-6.867 1.987-9.216.904-3.795 2.35-7.59 4.157-11.205.903.181 1.807.181 2.711.181 14.095 0 40.299-10.662 54.937-27.83 12.108-14.276 18.433-29.456 17.348-42.106-.542-7.048-3.433-12.831-8.132-16.988-13.915-11.746-37.769-3.975-56.925 18.614-15.722 18.433-19.878 44.456-18.794 56.564.181 2.53.723 4.518 1.265 6.144-1.807 3.434-3.253 6.867-4.337 10.662-1.807-3.795-3.795-7.409-5.964-11.023-.181-.362-.542-.723-.723-.904 3.072-8.494-.903-24.216-1.807-27.83-2.53-9.759-8.855-28.192-22.77-42.649-14.818-15.18-31.444-24.035-45.72-24.396-7.952-.18-14.82 2.35-19.88 7.229-14.637 14.276-8.312 41.925 14.82 65.96 19.336 20.06 48.43 27.65 62.346 27.83h.542c2.169 0 3.976-.18 5.602-.542 3.072 5.241 5.783 10.662 8.132 16.084 3.434 9.216 5.06 18.975 4.699 28.914 0 .361 0 .904.181 1.265-12.108.904-25.481 7.409-38.493 13.554-11.927 5.602-23.131 11.023-30.902 11.023a4.474 4.474 0 00-4.517 4.518 4.474 4.474 0 004.517 4.518c9.759 0 21.867-5.783 34.697-11.927 13.193-6.325 26.927-12.831 37.77-12.831 13.553 0 25.842 7.048 37.769 13.915 10.301 5.783 19.879 11.385 29.276 11.385a4.474 4.474 0 004.518-4.518c0-2.53-1.988-4.156-4.518-4.156zM42.817 51.588c3.253-3.072 7.59-4.699 13.011-4.699h.362c11.927.18 26.384 8.132 39.395 21.505 17.168 17.71 22.77 43.01 23.132 54.937l-11.024-11.385-1.265-14.818c-.18-2.53-2.349-4.338-4.879-4.157-2.53.181-4.337 2.35-4.156 4.88l.361 3.795-5.24-5.422-2.17-23.674c-.18-2.53-2.348-4.337-4.878-4.156-2.53.18-4.338 2.35-4.157 4.88l1.084 12.65-9.578-9.94c-1.807-1.807-4.517-1.807-6.325-.18-1.807 1.806-1.807 4.517-.18 6.324l9.397 9.578L63.96 90.08c-2.53-.362-4.7 1.445-5.06 3.795-.362 2.53 1.445 4.698 3.794 5.06l23.313 3.253 4.879 5.06-2.892-.362c-2.53-.361-4.698 1.446-5.06 3.795-.361 2.35 1.446 4.699 3.795 5.06l14.458 1.988 11.385 11.747c-11.928-.723-37.589-7.771-54.576-25.12-19.337-19.517-25.842-42.468-15.18-52.768zm119.271 25.119c15.361-18.252 34.336-25.661 44.095-17.53 2.891 2.53 4.698 6.145 5.06 10.843.903 10.12-4.699 23.132-15.18 35.421-13.012 15.36-33.252 22.589-43.914 24.396l7.771-9.216 12.65-2.35c2.53-.542 4.156-2.891 3.614-5.24-.542-2.53-2.891-3.976-5.241-3.615l-1.626.362 3.072-3.615 20.059-3.795c2.53-.542 4.157-2.891 3.615-5.24-.543-2.53-2.892-4.157-5.241-3.615l-9.217 1.807 6.687-7.95c1.626-1.989 1.446-4.7-.542-6.326-1.988-1.626-4.699-1.446-6.325.542l-6.506 7.59.361-8.674c.181-2.53-1.807-4.518-4.337-4.699-2.53-.18-4.518 1.808-4.698 4.338l-.904 20.24-2.711 3.252v-.903c.181-2.53-1.807-4.518-4.337-4.699-2.53-.18-4.518 1.807-4.698 4.337l-.542 12.47-7.952 9.397c.181-11.204 3.976-32.167 16.987-47.528z"/>
</svg>
