<svg xmlns="http://www.w3.org/2000/svg" viewBox="0 0 250 250">
  <path d="M202.207 53.214h-50.058V38.757a4.474 4.474 0 00-4.518-4.518h-46.263a4.474 4.474 0 00-4.517 4.518v14.457H46.793a4.474 4.474 0 00-4.518 4.518v28.192a4.474 4.474 0 004.518 4.517h11.746l7.048 127.765c.18 2.35 2.169 4.338 4.518 4.338h109.513c2.349 0 4.337-1.808 4.518-4.157l7.77-127.765h10.482a4.474 4.474 0 004.518-4.518V57.732c-.181-2.53-2.169-4.518-4.699-4.518zm-96.321-9.939h37.047v9.94h-37.047v-9.94zm91.803 38.13h-10.301c-2.349 0-4.337 1.808-4.517 4.157L175.1 213.327H74.261L67.575 90.261h26.203a4.474 4.474 0 004.518-4.518 4.474 4.474 0 00-4.518-4.518H51.311V62.25H197.87v19.156h-.181z"/>
  <path d="M165.703 110.139h-9.036l-5.421 79.514h9.035l5.422-79.514zm-82.406 0l6.506 79.514h9.036l-6.506-79.514h-9.036zm45.54 0h-9.036v79.514h9.036v-79.514z"/>
</svg>
