<svg xmlns="http://www.w3.org/2000/svg" viewBox="0 0 250 250">
  <path d="M226.46 144.899c2.53-.361 4.337-2.53 3.976-5.06-.362-2.53-2.53-4.337-5.06-3.976-6.867.723-19.879 6.325-19.879 21.686 0 11.024 9.036 16.807 14.096 19.156v11.023h-37.589V155.2c0-1.265-.542-2.349-1.445-3.253l-26.565-25.661-.181-.181-.362-.362c-.18 0-.18-.18-.361-.18s-.181-.181-.361-.181c-.181 0-.362-.181-.362-.181-.181 0-.181 0-.361-.18h-1.627c-.181 0-.361 0-.361.18-.181 0-.181 0-.362.181-.18 0-.361.181-.361.181-.181 0-.181.18-.361.18-.181 0-.181.181-.362.362l-.181.181-25.3 23.492c-.903.904-1.445 1.988-1.445 3.253v34.517h-21.325v-61.624c0-2.53-1.987-4.518-4.517-4.518a4.474 4.474 0 00-4.518 4.518v66.142c0 2.53 1.987 4.517 4.517 4.517h29.818c2.53 0 4.518-1.987 4.518-4.517v-37.047l20.782-19.336 22.048 21.143v35.24c0 2.53 1.987 4.517 4.517 4.517h46.625c2.53 0 4.518-1.987 4.518-4.517v-18.614c0-1.988-1.265-3.795-3.253-4.337-.181 0-10.843-3.614-10.843-11.747 0-10.662 10.662-12.288 11.927-12.469zM59.3 83.276a4.474 4.474 0 00-4.519-4.518H43.396a4.474 4.474 0 00-4.517 4.518v104.272H23.518A4.474 4.474 0 0019 192.066a4.474 4.474 0 004.518 4.518h19.878a4.474 4.474 0 004.518-4.518V87.793h6.867c2.35 0 4.518-1.987 4.518-4.517z"/>
  <path d="M63.275 115.985h-9.94v9.036h9.94v-9.036zm21.685 18.071h-9.938v9.036h9.939v-9.036zm-21.685 0h-9.94v9.036h9.94v-9.036zm21.685 18.072h-9.938v9.036h9.939v-9.036zm-21.685 0h-9.94v9.036h9.94v-9.036zm21.685 18.071h-9.938v9.036h9.939v-9.036zm-21.685 0h-9.94v9.036h9.94v-9.036zm103.007 5.422h-6.325v9.035h6.325v-9.035zm-12.108-25.3h-6.325v9.036h6.325v-9.036zm-3.253 25.3h-14.457v9.035h14.457v-9.035zM86.406 78.758H66.528v9.035h19.878v-9.035zm38.854 0h-19.879v9.035h19.879v-9.035zM100.321 54h-9.035v19.879h9.035V54zm0 38.853h-9.035v19.879h9.035V92.853zm-4.517-4.337c2.891 0 5.24-2.35 5.24-5.24a5.244 5.244 0 00-5.24-5.241 5.244 5.244 0 00-5.241 5.24 5.245 5.245 0 005.24 5.241z"/>
</svg>
