<svg xmlns="http://www.w3.org/2000/svg" viewBox="0 0 440 240">
  <g clip-path="url(#hsy-color__clip0)">
    <path d="M306.519 214.797v-30.275h-26.578v30.303h-13.554v-71.86h13.554v29.554h26.578v-29.554h13.56v71.832h-13.56zm44.323 1.074c-8.181 0-17.65-2.041-22.382-4.312l2.366-10.677c6.696 2.053 13.13 3.356 20.228 3.356 9.793 0 11.405-2.047 11.405-8.949 0-7.982-.212-8.63-13.124-11.433-17.326-3.881-19.692-7.226-19.692-22.433 0-13.049 5.92-19.52 24.1-19.52a97.538 97.538 0 0120.875 2.349l-1.506 11.432a94.028 94.028 0 00-19.151-2.153c-9.146 0-10.759 1.94-10.759 8.194 0 8.199.212 8.389 12.589 11.432 19.257 4.631 20.228 7.769 20.228 22.109 0 13.597-3.979 20.605-25.177 20.605zm74.739-72.906H440l-23.135 51.015v20.817h-13.532V193.98l-23.157-51.015h14.413l15.496 36.244 15.496-36.244zM127.605 64.041a7.567 7.567 0 00-6.623-2.567c-5.58.66-11.484 6.952-10.563 16.656a36.2 36.2 0 001.489 7.998c.173.52.681.459.804-.095 1.116-5.006 4.676-7.802 8.716-9.296 3.688-1.364 7.405-3.221 7.689-7.735a7.24 7.24 0 00-1.512-4.961zm1.423 97.84a36.261 36.261 0 00-1.49-7.998c-.173-.515-.681-.459-.803.095-1.116 5-4.676 7.802-8.716 9.296-3.689 1.365-7.411 3.221-7.69 7.73a7.238 7.238 0 001.507 4.955 7.566 7.566 0 006.629 2.584c5.597-.666 11.489-6.952 10.563-16.662zm-26.617-90.759a7.21 7.21 0 00-3.772-3.535 7.555 7.555 0 00-7.03 1.09c-4.515 3.356-6.48 11.774-.843 19.722a36.443 36.443 0 005.284 6.152c.407.364.82.056.647-.486-1.534-4.883.156-9.1 2.913-12.417 2.511-3.003 4.804-6.482 2.801-10.526zm46.264 80.485a36.284 36.284 0 00-5.284-6.153c-.407-.363-.815-.056-.647.487 1.534 4.888-.162 9.1-2.913 12.417-2.511 3.031-4.804 6.504-2.79 10.548a7.264 7.264 0 003.772 3.535 7.57 7.57 0 007.037-1.085c4.503-3.406 6.467-11.807.825-19.749zm-61.821-42.508c-3.767-3.462-4.397-7.959-3.672-12.215.664-3.882.92-8.038-2.835-10.538a7.174 7.174 0 00-5.022-1.169 7.57 7.57 0 00-3.333 1.543 7.592 7.592 0 00-2.219 2.932c-2.232 5.185.268 13.451 9.112 17.501a36.032 36.032 0 007.656 2.701c.53.101.731-.369.313-.755zm73.707 23.76a36.222 36.222 0 00-7.656-2.702c-.558-.112-.736.358-.318.744 3.767 3.462 4.397 7.959 3.672 12.215-.664 3.882-.915 8.038 2.834 10.538a7.188 7.188 0 005.023 1.169 7.593 7.593 0 005.546-4.475c2.238-5.173-.257-13.434-9.101-17.489zm-74.734-5.829c-4.983-1.118-7.773-4.687-9.268-8.736-1.362-3.697-3.215-7.422-7.712-7.707a7.177 7.177 0 00-4.938 1.51 7.585 7.585 0 00-2.578 6.645c.658 5.593 6.936 11.516 16.617 10.587a36.107 36.107 0 007.98-1.493c.507-.173.457-.682-.1-.806zm92.3-5.772c-.664-5.593-6.942-11.51-16.623-10.587-2.708.197-5.384.7-7.979 1.499-.519.167-.458.676.094.799 4.995 1.119 7.785 4.687 9.274 8.737 1.362 3.697 3.215 7.428 7.718 7.707a7.245 7.245 0 004.938-1.504 7.61 7.61 0 002.578-6.651zm-84.259 21.819c-4.877 1.538-9.073-.157-12.388-2.914-3.024-2.522-6.484-4.821-10.524-2.796a7.263 7.263 0 00-3.526 3.78 7.626 7.626 0 001.099 7.02c3.348 4.525 11.718 6.488 19.67.839a36.07 36.07 0 006.138-5.297c.38-.386.072-.8-.469-.632zm77.061-51.255c-3.348-4.525-11.752-6.494-19.676-.845a36.25 36.25 0 00-6.165 5.297c-.363.408-.056.817.485.649 4.877-1.538 9.079.162 12.388 2.92 3.024 2.522 6.489 4.821 10.524 2.796a7.213 7.213 0 003.526-3.781 7.618 7.618 0 00-1.082-7.036zm-62.084 61.121c-3.454 3.776-7.941 4.408-12.181 3.681-3.879-.666-8.025-.923-10.519 2.841a7.233 7.233 0 00-1.166 5.034 7.596 7.596 0 004.464 5.559c5.173 2.238 13.42-.263 17.46-9.133a36.327 36.327 0 002.695-7.68c.101-.514-.368-.721-.753-.302zm45.617-77.447a7.569 7.569 0 00-4.464-5.56c-5.173-2.237-13.392.263-17.46 9.128a36.389 36.389 0 00-2.695 7.68c-.112.53.357.738.742.313 3.454-3.776 7.94-4.408 12.187-3.675 3.872.66 8.018.917 10.513-2.847a7.22 7.22 0 001.177-5.04zM127.605 33.34a7.558 7.558 0 00-6.623-2.584c-5.58.66-11.484 6.953-10.563 16.657a36.2 36.2 0 001.489 7.998c.173.52.681.459.804-.095 1.116-5 4.676-7.797 8.716-9.296 3.688-1.365 7.41-3.222 7.689-7.735a7.216 7.216 0 00-1.512-4.945zm1.423 159.247a36.272 36.272 0 00-1.49-7.998c-.173-.514-.681-.459-.803.095-1.116 5-4.676 7.83-8.716 9.296-3.689 1.365-7.405 3.222-7.69 7.735a7.245 7.245 0 001.507 4.95 7.556 7.556 0 006.629 2.578c5.597-.671 11.489-6.952 10.563-16.656zm79.728-71.329c-.658-5.593-6.936-11.516-16.617-10.587a35.994 35.994 0 00-7.98 1.493c-.513.173-.457.682.095.805 4.989 1.119 7.812 4.687 9.274 8.737 1.362 3.697 3.214 7.422 7.717 7.707a7.2 7.2 0 004.939-1.51 7.597 7.597 0 002.572-6.645zm-153.569 5.773c-4.989-1.119-7.784-4.687-9.274-8.737-1.362-3.697-3.214-7.422-7.712-7.707a7.208 7.208 0 00-4.944 1.51 7.584 7.584 0 00-2.572 6.645c.658 5.593 6.936 11.516 16.617 10.587a35.99 35.99 0 007.98-1.493c.519-.173.457-.682-.095-.805z" fill="#008782"/>
    <path d="M127.605 33.34a7.558 7.558 0 00-6.623-2.584c-5.58.66-11.484 6.953-10.563 16.657a36.2 36.2 0 001.489 7.998c.173.52.681.459.804-.095 1.116-5 4.676-7.797 8.716-9.296 3.688-1.365 7.41-3.222 7.689-7.735a7.216 7.216 0 00-1.512-4.945zm1.423 159.247a36.272 36.272 0 00-1.49-7.998c-.173-.514-.681-.459-.803.095-1.116 5-4.676 7.83-8.716 9.296-3.689 1.365-7.405 3.222-7.69 7.735a7.245 7.245 0 001.507 4.95 7.556 7.556 0 006.629 2.578c5.597-.671 11.489-6.952 10.563-16.656zm79.728-71.329c-.658-5.593-6.936-11.516-16.617-10.587a35.994 35.994 0 00-7.98 1.493c-.513.173-.457.682.095.805 4.989 1.119 7.812 4.687 9.274 8.737 1.362 3.697 3.214 7.422 7.717 7.707a7.2 7.2 0 004.939-1.51 7.597 7.597 0 002.572-6.645zm-153.569 5.773c-4.989-1.119-7.784-4.687-9.274-8.737-1.362-3.697-3.214-7.422-7.712-7.707a7.208 7.208 0 00-4.944 1.51 7.584 7.584 0 00-2.572 6.645c.658 5.593 6.936 11.516 16.617 10.587a35.99 35.99 0 007.98-1.493c.519-.173.457-.682-.095-.805zm149.602-33.414c-2.338-5.129-10.15-8.798-19.079-4.922a35.95 35.95 0 00-7.125 3.916c-.441.318-.224.788.34.732 5.084-.486 8.844 2.047 11.512 5.437 2.433 3.093 5.345 6.063 9.715 4.938a7.246 7.246 0 004.229-2.964 7.618 7.618 0 00.408-7.137zM60.51 146.673c-5.083.493-8.844-2.047-11.511-5.436-2.433-3.093-5.34-6.063-9.71-4.939a7.255 7.255 0 00-4.235 2.965 7.61 7.61 0 00-.402 7.12c2.36 5.129 10.15 8.803 19.073 4.922a36.119 36.119 0 007.126-3.916c.424-.302.229-.771-.34-.716zM192.49 68.56c-3.822-4.15-12.365-5.224-19.653 1.225a36.614 36.614 0 00-5.58 5.912c-.318.442.028.822.558.599 4.687-2.048 9.04-.795 12.622 1.6 3.27 2.192 6.953 4.116 10.764 1.677a7.203 7.203 0 003.103-4.116 7.604 7.604 0 00-1.814-6.897zM71.631 163.71c-4.681 2.042-9.04.789-12.622-1.605-3.27-2.193-6.953-4.117-10.758-1.678a7.23 7.23 0 00-3.114 4.128 7.622 7.622 0 001.814 6.896c3.822 4.15 12.365 5.224 19.653-1.225a36.346 36.346 0 005.58-5.912c.318-.453-.028-.833-.553-.604zM173.072 48.537c-4.916-2.763-13.393-1.119-18.314 7.271a36.134 36.134 0 00-3.482 7.344c-.168.52.279.772.703.397 3.828-3.395 8.37-3.552 12.505-2.383 3.778 1.069 7.879 1.756 10.753-1.728a7.288 7.288 0 001.674-4.894 7.62 7.62 0 00-3.839-6.007zm-85.61 127.925c-3.828 3.395-8.37 3.558-12.5 2.383-3.783-1.068-7.884-1.756-10.758 1.728a7.283 7.283 0 00-1.674 4.894 7.594 7.594 0 003.856 5.996c4.91 2.757 13.392 1.119 18.314-7.271a36.082 36.082 0 003.476-7.349c.162-.504-.284-.755-.714-.381zm66.475-136.438a7.58 7.58 0 00-2.191-2.946 7.555 7.555 0 00-3.316-1.567c-5.524-1.119-13.069 3.053-15.183 12.573-.65 2.64-1 5.346-1.044 8.065 0 .56.502.649.792.157 2.595-4.407 6.853-5.968 11.161-6.153 3.906-.156 8.035-.771 9.692-4.977a7.204 7.204 0 00.089-5.152zm-47.464 143.67c-2.594 4.408-6.858 5.968-11.16 6.153-3.906.156-8.04.771-9.698 4.977a7.236 7.236 0 00-.095 5.168 7.585 7.585 0 005.513 4.509c5.519 1.118 13.069-3.049 15.178-12.568a36.259 36.259 0 001.049-8.065c-.017-.56-.519-.666-.787-.174zM103.46 39.381a7.24 7.24 0 00-2.957-4.245 7.573 7.573 0 00-7.104-.403c-5.117 2.36-8.777 10.174-4.91 19.117a36.461 36.461 0 003.906 7.148c.318.437.787.219.73-.346-.485-5.096 2.043-8.866 5.425-11.539 3.069-2.439 6.037-5.358 4.91-9.732zm47.492 146.769a36.225 36.225 0 00-3.906-7.143c-.324-.442-.787-.223-.731.341.486 5.096-2.048 8.866-5.429 11.539-3.086 2.439-6.049 5.358-4.928 9.738a7.273 7.273 0 002.958 4.239 7.572 7.572 0 007.103.403c5.14-2.366 8.8-10.174 4.933-19.117zM79.399 48.358a7.212 7.212 0 00-4.118-3.104 7.539 7.539 0 00-6.88 1.818c-4.135 3.83-5.212 12.394 1.222 19.698a36.364 36.364 0 005.903 5.594c.436.318.815-.028.558-.56-2.03-4.698-.787-9.06 1.607-12.651 2.21-3.272 4.13-6.98 1.708-10.795zm90.419 124.883a36.107 36.107 0 00-5.892-5.593c-.447-.319-.826.028-.597.559 2.036 4.693.787 9.066-1.607 12.652-2.182 3.277-4.096 6.969-1.674 10.789a7.211 7.211 0 004.118 3.115 7.58 7.58 0 006.88-1.818c4.129-3.837 5.212-12.4-1.228-19.704zM63.39 87.666c-3.382-3.842-3.544-8.39-2.377-12.528 1.065-3.798 1.752-7.903-1.725-10.784a7.243 7.243 0 00-4.877-1.678 7.56 7.56 0 00-5.97 3.831c-2.757 4.928-1.144 13.424 7.254 18.357a36.12 36.12 0 007.337 3.496c.475.179.732-.269.358-.694zm120.39 67.453a36.056 36.056 0 00-7.332-3.496c-.519-.167-.771.286-.397.711 3.387 3.837 3.549 8.389 2.377 12.528-1.088 3.792-1.752 7.915 1.702 10.784a7.25 7.25 0 004.883 1.678 7.573 7.573 0 005.982-3.859c2.773-4.917 1.16-13.39-7.215-18.346zm-127.6-48.425c-4.402-2.601-5.954-6.868-6.138-11.186-.15-3.915-.77-8.054-4.96-9.715a7.177 7.177 0 00-5.162-.096 7.563 7.563 0 00-2.937 2.198 7.587 7.587 0 00-1.56 3.323c-1.117 5.537 3.046 13.099 12.538 15.219a36.02 36.02 0 008.052 1.046c.552.005.653-.498.167-.789zm135.295 26.864a36.082 36.082 0 00-8.052-1.052c-.558 0-.648.509-.157.794 4.397 2.601 5.954 6.869 6.138 11.187.157 3.915.771 8.054 4.967 9.715a7.19 7.19 0 005.156.095 7.597 7.597 0 004.503-5.526c1.082-5.537-3.069-13.093-12.555-15.213z" fill="#00ACA4"/>
    <path d="M127.605 2.634A7.557 7.557 0 00120.982.05c-5.58.66-11.484 6.953-10.563 16.662a36.379 36.379 0 001.489 7.998c.173.515.681.459.804-.1 1.116-5 4.676-7.797 8.716-9.29 3.688-1.365 7.41-3.222 7.689-7.736a7.22 7.22 0 00-1.512-4.95zm1.423 220.659a36.272 36.272 0 00-1.49-7.998c-.173-.52-.681-.464-.803.095-1.116 5.001-4.676 7.797-8.716 9.296-3.689 1.365-7.405 3.222-7.69 7.73a7.225 7.225 0 001.507 4.95 7.545 7.545 0 006.629 2.584c5.597-.66 11.489-6.953 10.563-16.657zM103.912 8.34a7.208 7.208 0 00-2.561-4.475 7.564 7.564 0 00-7.042-1.04c-5.307 1.89-9.654 9.34-6.601 18.597a36.238 36.238 0 003.236 7.466c.279.465.759.297.759-.274-.034-5.123 2.829-8.647 6.434-11.007 3.314-2.192 6.506-4.838 5.775-9.268zm47.821 210.3a36.394 36.394 0 00-3.23-7.461c-.279-.47-.765-.302-.765.274.034 5.117-2.823 8.641-6.434 11.001-3.292 2.154-6.501 4.794-5.775 9.257a7.2 7.2 0 002.567 4.474 7.55 7.55 0 007.036 1.041c5.307-1.896 9.654-9.346 6.601-18.586zM79.51 14.637a7.214 7.214 0 00-3.498-3.803 7.539 7.539 0 00-7.093.56c-4.754 3.025-7.337 11.258-2.304 19.575a36.193 36.193 0 004.804 6.555c.38.397.81.123.681-.43-1.166-4.99.837-9.067 3.828-12.171 2.734-2.808 5.279-6.097 3.582-10.286zm93.316 194.372a35.903 35.903 0 00-4.81-6.556c-.374-.397-.804-.123-.675.437 1.166 4.983-.837 9.061-3.828 12.165-2.734 2.835-5.279 6.124-3.583 10.308a7.27 7.27 0 003.499 3.809 7.565 7.565 0 007.092-.56c4.755-3.025 7.344-11.264 2.305-19.603zM57.123 26.237a7.187 7.187 0 00-4.257-2.93 7.555 7.555 0 00-6.791 2.125c-3.962 4.01-4.654 12.612 2.103 19.62a36.134 36.134 0 006.138 5.32c.452.301.815-.062.558-.56-2.232-4.608-1.194-9.021 1.033-12.718 2.048-3.362 3.805-7.143 1.216-10.857zm134.168 168.694a36.26 36.26 0 00-6.139-5.325c-.457-.296-.82.067-.558.559 2.232 4.604 1.2 9.022-1.032 12.714-2.031 3.355-3.783 7.148-1.194 10.85a7.257 7.257 0 004.252 2.931 7.56 7.56 0 006.791-2.131c3.917-3.988 4.609-12.59-2.12-19.598zM40.93 66.038c-3.209-3.988-3.17-8.524-1.814-12.624 1.233-3.742 2.104-7.83-1.244-10.845a7.178 7.178 0 00-4.799-1.907 7.571 7.571 0 00-6.138 3.585c-2.969 4.799-1.735 13.34 6.412 18.664a36.083 36.083 0 007.17 3.815c.497.19.77-.218.413-.688zM206.1 177.089a35.928 35.928 0 00-7.165-3.815c-.513-.19-.781.246-.424.688 3.209 3.988 3.17 8.524 1.814 12.624-1.234 3.742-2.104 7.83 1.244 10.845a7.183 7.183 0 004.799 1.913 7.565 7.565 0 006.138-3.591c2.98-4.793 1.741-13.34-6.406-18.664zM30.925 84.965c-4.018-3.172-4.983-7.601-4.576-11.902.374-3.916.318-8.082-3.616-10.292a7.195 7.195 0 00-5.1-.788 7.555 7.555 0 00-3.207 1.781 7.58 7.58 0 00-1.994 3.085c-1.83 5.341 1.273 13.39 10.396 16.779a36.392 36.392 0 007.84 2.12c.536.061.703-.43.257-.783zm185.688 71.418a36.418 36.418 0 00-7.812-2.12c-.558-.072-.703.42-.257.767 4.012 3.171 4.983 7.606 4.576 11.907-.374 3.915-.318 8.082 3.616 10.297a7.191 7.191 0 005.1.789 7.586 7.586 0 005.2-4.872c1.803-5.341-1.3-13.39-10.423-16.768zm-191.24-50.724c-4.62-2.198-6.546-6.303-7.104-10.588-.508-3.915-1.484-7.953-5.809-9.228a7.2 7.2 0 00-5.156.37 7.555 7.555 0 00-2.726 2.453 7.579 7.579 0 00-1.252 3.452c-.603 5.594 4.207 12.769 13.85 14.028 2.684.409 5.405.514 8.113.313.541-.045.597-.559.084-.8zm196.892 28.195a36.586 36.586 0 00-8.113-.319c-.558.056-.597.56-.084.811 4.615 2.193 6.546 6.304 7.104 10.582.508 3.916 1.484 7.954 5.814 9.229a7.172 7.172 0 005.145-.363 7.597 7.597 0 003.984-5.912c.603-5.61-4.207-12.769-13.85-14.028zm-197.713-6.79c-4.988-1.119-7.778-4.681-9.268-8.731-1.367-3.697-3.22-7.427-7.723-7.707a7.243 7.243 0 00-4.938 1.51 7.581 7.581 0 00-2.573 6.645c.659 5.593 6.936 11.51 16.623 10.587a36.297 36.297 0 007.98-1.504c.513-.162.457-.677-.1-.8zm214.839-5.845c-.664-5.593-6.942-11.51-16.623-10.587a35.887 35.887 0 00-7.98 1.504c-.519.168-.457.677.101.8 4.988 1.119 7.778 4.687 9.274 8.731 1.361 3.702 3.214 7.427 7.711 7.707a7.179 7.179 0 004.939-1.51 7.61 7.61 0 002.578-6.645zM28.509 148.117c-5.112.033-8.627-2.831-10.982-6.444-2.148-3.3-4.782-6.521-9.23-5.789a7.209 7.209 0 00-4.463 2.573A7.573 7.573 0 002.8 145.51c1.886 5.319 9.319 9.676 18.554 6.611a35.993 35.993 0 007.444-3.244c.452-.279.279-.766-.29-.76zm208.148-53.644c-1.887-5.319-9.319-9.67-18.554-6.61a35.842 35.842 0 00-7.444 3.243c-.469.28-.301.766.273.76 5.106-.027 8.627 2.83 10.982 6.444 2.148 3.3 4.782 6.522 9.229 5.789a7.203 7.203 0 004.464-2.567 7.614 7.614 0 001.05-7.059zM37.04 167.743c-4.977 1.174-9.04-.834-12.136-3.837-2.83-2.735-6.11-5.286-10.29-3.58a7.263 7.263 0 00-3.794 3.507 7.605 7.605 0 00.558 7.109c3.024 4.765 11.238 7.349 19.53 2.304a36.335 36.335 0 006.54-4.821c.418-.358.145-.794-.407-.682zm191.018-98.702c-3.019-4.765-11.233-7.35-19.531-2.304a36.244 36.244 0 00-6.567 4.804c-.391.38-.118.811.44.683 4.972-1.17 9.035.839 12.137 3.83 2.829 2.742 6.138 5.292 10.284 3.58a7.17 7.17 0 003.8-3.5 7.6 7.6 0 00-.563-7.093zM49.718 185.009c-4.592 2.237-8.995 1.202-12.683-1.035-3.348-2.036-7.131-3.792-10.825-1.197a7.238 7.238 0 00-2.919 4.268 7.59 7.59 0 002.12 6.806c4.007 3.971 12.59 4.659 19.581-2.114a36.337 36.337 0 005.301-6.152c.301-.464-.061-.828-.575-.576zm164.311-138.86c-4.006-3.971-12.588-4.66-19.58 2.12a35.96 35.96 0 00-5.307 6.152c-.296.459.067.816.558.56 4.593-2.238 9.001-1.203 12.689 1.023 3.348 2.041 7.132 3.792 10.82 1.197a7.177 7.177 0 002.924-4.262 7.614 7.614 0 00-2.104-6.79zM65.912 198.991c-3.979 3.222-8.504 3.183-12.594 1.824-3.733-1.236-7.813-2.103-10.826 1.247a7.279 7.279 0 00-1.897 4.816 7.584 7.584 0 003.582 6.152c4.783 2.976 13.303 1.734 18.616-6.432a36.536 36.536 0 003.805-7.187c.19-.504-.245-.778-.686-.42zM195.264 26.964c-4.788-2.98-13.303-1.74-18.621 6.432a36.42 36.42 0 00-3.8 7.188c-.19.508.24.783.686.425 3.973-3.216 8.504-3.177 12.594-1.824 3.733 1.23 7.812 2.103 10.82-1.247a7.234 7.234 0 001.903-4.81 7.605 7.605 0 00-3.582-6.164zM84.8 209.014c-3.163 4.027-7.583 5-11.874 4.592-3.906-.375-8.063-.313-10.273 3.624a7.253 7.253 0 00-.781 5.118 7.581 7.581 0 004.86 5.207c5.323 1.835 13.353-1.275 16.74-10.42a36.405 36.405 0 002.115-7.83c.05-.57-.435-.733-.787-.291zm92.769-191.362a7.593 7.593 0 00-4.86-5.207c-5.329-1.835-13.359 1.275-16.74 10.425a36.601 36.601 0 00-2.115 7.83c-.067.56.413.705.77.258 3.158-4.027 7.583-4.995 11.874-4.586 3.906.369 8.063.307 10.268-3.636a7.242 7.242 0 00.803-5.084zm-71.324 197.006c-.051-.56-.558-.599-.804-.084-2.187 4.625-6.283 6.56-10.557 7.12-3.906.509-7.935 1.493-9.208 5.828a7.23 7.23 0 00.374 5.162 7.555 7.555 0 005.915 3.994c5.58.604 12.739-4.223 13.989-13.888.401-2.691.498-5.419.291-8.132zM153.396 7.316a7.579 7.579 0 00-5.898-4.01c-5.58-.605-12.739 4.222-13.989 13.893a36.104 36.104 0 00-.318 8.132c.056.56.558.599.803.078 2.193-4.625 6.289-6.56 10.558-7.12 3.906-.514 7.935-1.493 9.207-5.828a7.227 7.227 0 00-.363-5.145z" fill="#00C4CF"/>
  </g>
  <defs>
    <clipPath id="hsy-color__clip0">
      <path fill="#fff" d="M0 0h440v240H0z"/>
    </clipPath>
  </defs>
</svg>
