<svg xmlns="http://www.w3.org/2000/svg" viewBox="0 0 425 123">
  <g clip-path="url(#hsy-kestava-color__clip0_1255:183)">
    <path d="M87.872 89.834s-1.318-28.3 25.802-28.3a1.204 1.204 0 01.876.387 1.189 1.189 0 01.306.903c-.389 5.575-3.447 27.01-26.984 27.01z" fill="#007377"/>
    <path d="M87.866 89.834s1.319-28.3-25.802-28.3a1.201 1.201 0 00-.876.387 1.184 1.184 0 00-.306.903c.389 5.575 3.447 27.01 26.984 27.01z" fill="#00BFB1"/>
    <path d="M87.866 113.96s1.319-28.303-25.802-28.303a1.201 1.201 0 00-.876.388 1.184 1.184 0 00-.306.902c.389 5.575 3.447 27.01 26.984 27.013z" fill="#007377"/>
    <path d="M87.872 113.96s-1.318-28.303 25.802-28.303a1.204 1.204 0 01.876.388 1.19 1.19 0 01.306.902c-.389 5.575-3.447 27.01-26.984 27.013zM57.413 31.19l-6.29 2.792a1.158 1.158 0 00-.654.794 1.144 1.144 0 00.242.996l4.434 5.215a1.145 1.145 0 01-.917 1.897l-6.868-.196a1.167 1.167 0 00-.938.432 1.146 1.146 0 00-.218 1.004l1.72 6.613a1.14 1.14 0 01-.4 1.186 1.16 1.16 0 01-1.253.12l-6.113-3.128a1.166 1.166 0 00-1.445.318 1.14 1.14 0 00-.22.479l-1.342 6.692a1.148 1.148 0 01-.878.895 1.168 1.168 0 01-1.183-.427l-4.141-5.459a1.158 1.158 0 00-.925-.457 1.166 1.166 0 00-.926.457l-4.096 5.45a1.16 1.16 0 01-1.183.426 1.161 1.161 0 01-.878-.895l-1.35-6.688a1.144 1.144 0 00-.633-.812 1.161 1.161 0 00-1.034.015l-6.112 3.127a1.163 1.163 0 01-1.254-.12 1.148 1.148 0 01-.4-1.186l1.72-6.612a1.143 1.143 0 00-.217-1.004 1.16 1.16 0 00-.939-.432l-6.868.196a1.164 1.164 0 01-1.084-.65 1.14 1.14 0 01.167-1.248l4.434-5.214a1.145 1.145 0 00-.41-1.79l-6.28-2.787a1.153 1.153 0 01-.684-1.048 1.142 1.142 0 01.685-1.048l6.278-2.79a1.156 1.156 0 00.656-.793 1.14 1.14 0 00-.245-.996l-4.437-5.218a1.144 1.144 0 01.277-1.733c.193-.116.415-.173.64-.165l6.871.196a1.168 1.168 0 00.926-.424 1.148 1.148 0 00.23-.986l-1.716-6.641a1.14 1.14 0 01.398-1.184 1.16 1.16 0 011.252-.123l6.112 3.131a1.166 1.166 0 001.445-.318c.11-.14.186-.304.221-.479l1.341-6.682a1.144 1.144 0 01.882-.908 1.164 1.164 0 011.189.443l4.14 5.455a1.158 1.158 0 00.926.458 1.167 1.167 0 00.926-.458l4.14-5.458a1.159 1.159 0 011.184-.427 1.161 1.161 0 01.878.895l1.34 6.695a1.148 1.148 0 00.634.81 1.167 1.167 0 001.033-.013l6.116-3.13a1.164 1.164 0 011.225.147 1.148 1.148 0 01.393 1.161l-1.717 6.626a1.14 1.14 0 00.215 1.004 1.154 1.154 0 00.938.431l6.868-.196a1.166 1.166 0 011.08.653 1.144 1.144 0 01-.163 1.245l-4.434 5.19a1.149 1.149 0 00.398 1.793l6.279 2.792a1.154 1.154 0 01.688 1.043 1.141 1.141 0 01-.675 1.05z" fill="#00BFB1"/>
    <path d="M163.886 31.142h-6.616l-7.486-13.222-4.412 5.164v8.058h-5.517V3.762h5.517v7.782c0 1.019-.041 3.479-.079 4.342.395-.632 1.417-1.878 2.166-2.776l7.724-9.349h6.658l-8.078 9.466 10.123 17.915zm18.475-10.25a16.2 16.2 0 01-.079 1.72h-12.369c.197 2.819 2.287 3.875 4.255 3.875a4.633 4.633 0 003.546-1.449l3.864 3.207c-1.657 2.113-4.651 3.327-7.41 3.327-5.95 0-9.731-4.187-9.731-10.68 0-6.29 3.979-10.717 9.219-10.717 5.52 0 8.705 4.851 8.705 10.717zm-5.281-2.346c-.156-1.838-1.258-3.678-3.702-3.678-1.971 0-3.185 1.603-3.389 3.678h7.091zm25.248 6.609c0 4.744-3.782 6.417-8.432 6.417-3.269 0-6.46-.949-8.668-2.388l1.813-4.11a14.534 14.534 0 007.17 1.874c2.128 0 2.759-.506 2.759-1.562 0-.949-.749-1.41-3.033-2.074-4.966-1.487-8.158-2.698-8.158-7.04 0-4.263 3.431-6.103 8.282-6.103 2.674.04 5.298.724 7.645 1.995l-1.733 4.263a13.48 13.48 0 00-6.026-1.641c-2.208 0-2.797.43-2.797 1.328 0 .898.637 1.214 4.294 2.387 3.657 1.174 6.884 2.55 6.884 6.654zm16.5-.312l-.79 5.477c-.908.705-2.523 1.265-4.218 1.265-3.347 0-5.517-2.584-5.517-6.18V15.69h-3.462v-5.085h3.466V5.324l5.437-2.698v7.98h4.966v5.084h-4.966v8.254c0 1.955.71 2.464 2.01 2.464.984 0 1.733-.42 3.074-1.566zm21.415 6.299h-5.437v-1.36c-.984 1.019-2.717 1.8-4.648 1.8-3.86 0-7.721-2.347-7.721-7.315 0-4.538 3.701-6.806 8.39-6.806a8.583 8.583 0 013.979.823v-1.028c0-1.449-.984-2.622-2.953-2.622-2.481 0-3.784.354-5.673 1.37l-2.09-3.754c2.405-1.37 4.415-2.075 7.763-2.075 5.001 0 8.39 2.58 8.39 7.198v13.77zm-9.693-26.09a3.036 3.036 0 01-.934 2.094 3.084 3.084 0 01-4.276 0 3.036 3.036 0 01-.07-4.315 3.091 3.091 0 014.416 0 3.036 3.036 0 01.864 2.22zm4.256 20.066v-2.58c-.956-.59-1.851-.864-3.781-.864-2.048 0-3.15.948-3.15 2.583 0 1.446.825 2.74 3.15 2.74 1.774 0 3.192-.902 3.781-1.88zm4.256-20.066a3.045 3.045 0 01-.934 2.094 3.089 3.089 0 01-4.277 0 3.045 3.045 0 01-.729-3.292c.148-.381.372-.73.659-1.023a3.082 3.082 0 012.208-.93 3.1 3.1 0 012.209.93 3.045 3.045 0 01.864 2.221zm24.607 5.553l-7.444 20.537h-5.594l-7.447-20.537h5.988l3.033 9.506a69.04 69.04 0 011.299 4.497c.239-1.015.79-2.893 1.303-4.497l3.049-9.506h5.813zm19.39 20.537h-5.435v-1.36c-.987 1.019-2.72 1.8-4.65 1.8-3.861 0-7.722-2.347-7.722-7.315 0-4.538 3.702-6.806 8.391-6.806a8.605 8.605 0 013.981.823v-1.028c0-1.449-.987-2.622-2.956-2.622-2.481 0-3.784.354-5.673 1.37l-2.09-3.754c2.418-1.37 4.415-2.075 7.763-2.075 5.005 0 8.391 2.58 8.391 7.198v13.77zm-9.69-26.09a3.04 3.04 0 01-.901 2.158 3.086 3.086 0 01-4.347 0 3.042 3.042 0 01-.9-2.158c0-.81.324-1.586.9-2.158a3.086 3.086 0 014.347 0 3.04 3.04 0 01.901 2.158zm4.255 20.066v-2.58c-.955-.59-1.854-.864-3.784-.864-2.048 0-3.15.948-3.15 2.583 0 1.446.825 2.74 3.15 2.74 1.774 0 3.192-.902 3.784-1.88zm4.253-20.066a3.045 3.045 0 01-.934 2.094 3.086 3.086 0 01-4.277 0 3.045 3.045 0 01-.729-3.292 3.051 3.051 0 011.668-1.71 3.1 3.1 0 012.399 0 3.051 3.051 0 011.873 2.908zm23.948 26.09h-5.438v-11.11c0-3.678-1.274-4.772-3.504-4.772-2.229 0-3.545 1.094-3.545 4.655v11.227h-5.441V10.605h5.438v1.37c.955-.978 2.679-1.8 4.845-1.8 5.281 0 7.645 3.599 7.645 9.39v11.577zm-148.82 40.786h-5.682l-3.762-9.465-2.523 3.245v6.22h-5.192V46.113l5.192-2.7v10.913c0 1.265-.038 3.365-.073 4.38.525-.82 1.427-2.11 2.105-3.01l3.186-4.302h6.135l-5.068 6.534 5.682 14zm18.74 0h-5.192v-1.37a6.164 6.164 0 01-4.437 1.8c-3.689 0-7.378-2.346-7.378-7.315 0-4.538 3.539-6.805 8.018-6.805a7.935 7.935 0 013.8.822v-1.018c0-1.446-.955-2.622-2.822-2.622-2.373 0-3.612.354-5.415 1.37l-1.994-3.755c2.287-1.369 4.198-2.064 7.406-2.064 4.778 0 8.014 2.583 8.014 7.197v13.76zm-5.192-6.024v-2.581c-.905-.588-1.771-.86-3.612-.86-1.959 0-3.01.949-3.01 2.58 0 1.449.789 2.74 3.01 2.74 1.691 0 3.048-.9 3.612-1.88zm26.98 6.024h-5.192V70.56c-.904.977-2.548 1.8-4.628 1.8-5.043 0-7.301-3.6-7.301-9.387V51.394h5.192v11.107c0 3.678 1.204 4.772 3.351 4.772 2.147 0 3.386-1.094 3.386-4.655V51.394h5.192v20.534zm22.098-10.012c0 6.141-2.788 10.436-7.677 10.436a6.14 6.14 0 01-4.179-1.604v6.025l-5.193 2.698V51.388h5.193v1.29a5.965 5.965 0 014.172-1.707c4.215 0 7.684 3.276 7.684 10.945zm-5.269.117c0-4.225-1.357-5.987-3.389-5.987-1.618 0-2.447.705-3.186 1.724v7.748a4.067 4.067 0 001.525 1.326 4.097 4.097 0 001.979.432c1.969-.003 3.065-1.802 3.065-5.237l.006-.006zm26.292 9.895h-5.192V70.56c-.904.977-2.548 1.8-4.628 1.8-5.043 0-7.301-3.6-7.301-9.387V51.394h5.192v11.107c0 3.678 1.204 4.772 3.351 4.772 2.147 0 3.386-1.094 3.386-4.655V51.394h5.192v20.534zm22.168 0h-5.193v-11.11c0-3.674-1.204-4.772-3.347-4.772-2.144 0-3.39 1.098-3.39 4.656v11.226H245.7V51.394h5.192v1.367c.905-.978 2.549-1.8 4.629-1.8 5.042 0 7.301 3.6 7.301 9.39v11.577zm22.014 0h-5.683l-3.762-9.465-2.523 3.245v6.22h-5.192V46.113l5.192-2.7v10.913c0 1.265-.038 3.365-.073 4.38.526-.82 1.43-2.11 2.106-3.01l3.185-4.302h6.132l-5.065 6.534 5.683 14zm9.333-25.309a2.931 2.931 0 01-.566 1.602 2.977 2.977 0 01-1.362 1.028 2.997 2.997 0 01-1.707.113 2.976 2.976 0 01-1.487-.838 2.942 2.942 0 01-.586-3.2 2.96 2.96 0 011.095-1.305 2.993 2.993 0 011.638-.49 3.092 3.092 0 012.122.943c.556.578.862 1.348.853 2.147zm-.376 25.3h-5.195V51.394h5.195V71.92zm21.336-10.241c0 .785-.038 1.332-.076 1.724h-11.815c.188 2.815 2.182 3.87 4.065 3.87a4.341 4.341 0 003.386-1.438l3.689 3.207c-1.593 2.112-4.441 3.324-7.075 3.324-5.683 0-9.295-4.184-9.295-10.68 0-6.287 3.806-10.715 8.804-10.715 5.269 0 8.317 4.842 8.317 10.709zm-5.033-2.346c-.149-1.837-1.204-3.675-3.539-3.675-1.879 0-3.045 1.604-3.236 3.675h6.775zm14.555 12.596h-5.196V46.113l5.196-2.7v28.515zm21.297 0h-5.192v-1.37a6.164 6.164 0 01-4.44 1.8c-3.689 0-7.378-2.346-7.378-7.315 0-4.538 3.539-6.805 8.018-6.805a7.935 7.935 0 013.8.822v-1.018c0-1.445-.956-2.622-2.822-2.622-2.373 0-3.616.354-5.415 1.37l-1.995-3.754c2.297-1.37 4.215-2.075 7.416-2.075 4.778 0 8.015 2.584 8.015 7.198l-.007 13.77zm-9.257-26.09a2.893 2.893 0 01-.56 1.581 2.933 2.933 0 01-1.344 1.014 2.96 2.96 0 01-3.153-.717 2.912 2.912 0 01-.766-1.493 2.912 2.912 0 011.27-2.953 2.952 2.952 0 011.616-.484c.793.03 1.543.366 2.091.936.549.57.852 1.328.846 2.116zm4.065 20.066v-2.58c-.905-.59-1.771-.861-3.612-.861-1.959 0-3.014.949-3.014 2.58 0 1.449.79 2.74 3.014 2.74 1.691 0 3.045-.899 3.612-1.88zm4.061-20.066c0 1.603-1.357 3.01-2.898 3.01a3.064 3.064 0 01-2.096-.921 3.021 3.021 0 01-.861-2.11c0-.787.309-1.544.861-2.11a3.064 3.064 0 012.096-.92c1.545 0 2.898 1.369 2.898 3.05zm34.285 26.09h-5.192v-11.11c0-3.674-1.02-4.772-3.163-4.772-2.144 0-3.186 1.098-3.186 4.656v11.226h-5.192v-11.11c0-3.674-1.016-4.772-3.163-4.772s-3.185 1.098-3.185 4.656v11.226h-5.193V51.394h5.193v1.367a5.597 5.597 0 011.965-1.372 5.636 5.636 0 012.364-.428c2.519 0 3.988.746 5.456 2.622 1.354-1.449 3.01-2.622 6.282-2.622 5.045 0 7.04 3.599 7.04 9.39l-.026 11.577zm20.922 0h-5.196v-1.37a6.167 6.167 0 01-2.036 1.347 6.203 6.203 0 01-2.404.453c-3.689 0-7.377-2.346-7.377-7.315 0-4.538 3.535-6.805 8.014-6.805a7.95 7.95 0 013.803.822v-1.018c0-1.445-.955-2.622-2.825-2.622-2.37 0-3.612.354-5.415 1.37l-1.994-3.754c2.296-1.37 4.214-2.075 7.412-2.075 4.778 0 8.018 2.584 8.018 7.198v13.77zm-9.257-26.09a2.908 2.908 0 01-.56 1.581 2.956 2.956 0 01-4.497.297 2.904 2.904 0 01.504-4.446 2.95 2.95 0 011.616-.484c.793.03 1.543.366 2.091.936a3.02 3.02 0 01.846 2.116zm4.061 20.066v-2.58c-.904-.59-1.771-.861-3.615-.861-1.956 0-3.01.949-3.01 2.58 0 1.449.79 2.74 3.01 2.74 1.704 0 3.052-.899 3.615-1.88zm4.062-20.066c0 1.603-1.354 3.01-2.896 3.01a3.068 3.068 0 01-2.096-.921 3.024 3.024 0 01-.86-2.11c0-.787.309-1.544.86-2.11a3.068 3.068 0 012.096-.92c1.545 0 2.899 1.369 2.899 3.05h-.003zM422 71.928h-5.192v-11.11c0-3.674-1.204-4.772-3.348-4.772s-3.386 1.098-3.386 4.656v11.226h-5.192V51.394h5.192v1.367c.901-.978 2.548-1.8 4.628-1.8 5.043 0 7.301 3.6 7.301 9.39L422 71.927zm-265.399 31.274c0 6.299-3.979 10.679-9.378 10.679s-9.336-4.38-9.336-10.679c0-6.3 3.94-10.718 9.336-10.718 5.396 0 9.378 4.421 9.378 10.718zm-5.517 0c0-3.128-1.274-5.516-3.861-5.516s-3.822 2.35-3.822 5.516c0 3.165 1.223 5.477 3.822 5.477s3.861-2.622 3.861-5.477zm27.659 10.249h-5.438v-11.11c0-3.674-1.274-4.772-3.504-4.772s-3.545 1.098-3.545 4.655v11.227h-5.441V87.636l5.438-2.7v9.36c.955-.977 2.679-1.8 4.845-1.8 5.281 0 7.645 3.6 7.645 9.39v11.565zm10.715-1.524c0 5.749-1.774 8.058-8.116 9.073l-1.892-4.146c3.743-.705 4.571-1.486 4.571-4.693V92.914h5.437v19.013zm.392-23.785c0 .611-.182 1.208-.524 1.717a3.107 3.107 0 01-1.397 1.138 3.133 3.133 0 01-3.392-.67 3.083 3.083 0 01-.851-1.582c-.12-.6-.059-1.22.177-1.785a3.09 3.09 0 011.146-1.387 3.13 3.13 0 011.729-.52c.823.008 1.61.336 2.192.913.581.578.912 1.36.92 2.176zm21.948 15.06c0 .784-.042 1.331-.08 1.723h-12.372c.197 2.815 2.287 3.871 4.256 3.871a4.622 4.622 0 003.545-1.448l3.861 3.21c-1.653 2.112-4.648 3.323-7.406 3.323-5.951 0-9.732-4.187-9.732-10.679 0-6.297 3.979-10.718 9.219-10.718 5.517 0 8.709 4.851 8.709 10.718zm-5.282-2.347c-.156-1.837-1.274-3.678-3.701-3.678-1.972 0-3.186 1.607-3.389 3.678h7.09zm15.249 12.596h-5.438V87.636l5.438-2.7v28.515zm35.103 0h-5.437v-11.109c0-3.675-1.064-4.773-3.31-4.773s-3.348 1.098-3.348 4.656v11.226h-5.437v-11.109c0-3.675-1.064-4.773-3.31-4.773s-3.335 1.098-3.335 4.656v11.226h-5.45V92.914h5.45v1.382c.955-.977 2.363-1.8 4.53-1.8 2.64 0 4.176.744 5.711 2.623 1.421-1.449 3.154-2.622 6.581-2.622 5.281 0 7.368 3.599 7.368 9.389l-.013 11.565zm21.906 0h-5.437v-1.369c-.988 1.018-2.721 1.799-4.651 1.799-3.861 0-7.721-2.346-7.721-7.314 0-4.539 3.704-6.806 8.39-6.806a8.659 8.659 0 013.982.822v-1.018c0-1.448-.988-2.622-2.956-2.622-2.482 0-3.781.354-5.674 1.37l-2.073-3.754c2.405-1.37 4.415-2.075 7.763-2.075 5.004 0 8.393 2.584 8.393 7.198l-.016 13.769zm-5.437-6.024v-2.581c-.956-.588-1.854-.86-3.785-.86-2.048 0-3.15.949-3.15 2.581 0 1.448.828 2.738 3.15 2.738 1.775 0 3.192-.901 3.785-1.878zM56.856 77.026L31.373 59.073a2.314 2.314 0 00-2.667 0L3.256 77.026a2.406 2.406 0 00-1.01 1.958V92.97a2.386 2.386 0 011.01-1.957l25.46-17.954a2.302 2.302 0 012.666 0l25.474 17.954a2.396 2.396 0 011.01 1.957V78.984a2.377 2.377 0 00-1.01-1.958z" fill="#007377"/>
    <path d="M56.856 91.014L31.373 73.06a2.302 2.302 0 00-2.667 0L3.255 91.014a2.406 2.406 0 00-1.01 1.957v18.194a2.347 2.347 0 00.674 1.673 2.38 2.38 0 001.668.711h50.922a2.38 2.38 0 001.667-.711 2.347 2.347 0 00.674-1.673V92.971a2.377 2.377 0 00-.994-1.957z" fill="#00BFB1"/>
    <path d="M74.898 3.62H63.227c-.54 0-1.058.212-1.44.591a2.014 2.014 0 00-.596 1.429v22.71c.001.535.216 1.048.598 1.426.381.379.898.591 1.438.591h6.052L81.384 12.75a11.434 11.434 0 01-4.46-7.41 2.014 2.014 0 00-.689-1.235 2.041 2.041 0 00-1.337-.485zm37.967 0h-11.13c-.49.002-.962.18-1.332.5-.369.32-.61.76-.68 1.242a11.397 11.397 0 01-1.603 4.303A11.485 11.485 0 0194.944 13l11.923 17.368h5.995c.539 0 1.056-.212 1.438-.59a2.01 2.01 0 00.597-1.428V5.64c0-.534-.214-1.048-.595-1.427a2.043 2.043 0 00-1.437-.593z" fill="#007377"/>
    <path d="M88.315 15.077c-2.51 0-4.953-.817-6.95-2.328L69.26 30.367v24.566c0 .536.215 1.05.596 1.43.382.378.9.591 1.44.591h33.497c.54 0 1.056-.214 1.438-.593.381-.379.595-.892.595-1.428V30.367h.041L94.931 13a11.525 11.525 0 01-6.616 2.078z" fill="#00BFB1"/>
  </g>
  <defs>
    <clipPath id="hsy-kestava-color__clip0_1255:183">
      <path fill="#fff" transform="translate(2 2)" d="M0 0h420v119H0z"/>
    </clipPath>
  </defs>
</svg>
