<svg xmlns="http://www.w3.org/2000/svg" viewBox="0 0 425 123">
  <g clip-path="url(#hsy-kestava-color__clip0_1255:183)">
    <path d="M9.331 43.58H6.46c-.627 0-1.27.098-1.656-.642-.386-.74.084-1.207.495-1.712 1.228-1.476 2.478-2.935 3.69-4.425 1.011-1.245.91-1.75-.513-2.426-1.724-.822-3.477-1.588-5.222-2.371-.589-.265-1.207-.497-1.233-1.284-.03-.856.627-1.151 1.27-1.442 1.741-.788 3.474-1.6 5.223-2.367 1.237-.54 1.503-1.232.567-2.315-1.296-1.494-2.54-3.021-3.811-4.545-.424-.488-.881-.976-.458-1.712.381-.663.983-.706 1.656-.68 1.912.071 3.822.125 5.73.162 1.52.026 1.91-.453 1.538-1.973-.424-1.818-.953-3.62-1.41-5.43-.17-.672-.373-1.387.292-1.93.665-.544 1.3-.124 1.91.188 1.558.8 3.113 1.618 4.659 2.418 1.846.946 2.206.749 2.613-1.374.326-1.677.643-3.36 1-5.033.14-.659.16-1.442 1.024-1.651.928-.227 1.322.47 1.77 1.07 1.119 1.497 2.224 2.995 3.363 4.484.907 1.177 1.449 1.173 2.355 0 1.17-1.527 2.3-3.08 3.443-4.626.424-.569.847-1.142 1.694-.903.742.21.869.856.987 1.498.326 1.789.661 3.574 1.03 5.354.368 1.78.846 2.067 2.486 1.24 1.639-.825 3.21-1.651 4.815-2.49.618-.32 1.224-.71 1.906-.141.682.57.423 1.284.25 1.93-.424 1.815-.936 3.62-1.39 5.43-.376 1.511 0 1.982 1.534 1.948 1.96-.043 3.926-.12 5.887-.18.605 0 1.177.056 1.503.672.326.616.055 1.13-.343 1.605-1.304 1.553-2.626 3.09-3.9 4.669-.928 1.147-.797 1.673.554 2.31 1.78.857 3.575 1.636 5.362 2.449.546.244 1.067.475 1.089 1.22.02.744-.466 1.116-1.089 1.395-1.796.8-3.591 1.6-5.366 2.447-1.342.638-1.465 1.173-.538 2.324 1.106 1.37 2.266 2.696 3.388 4.053.496.6 1.271 1.134.898 2.071-.385 1.023-1.321.706-2.075.71-1.694 0-3.388-.064-5.082-.09-1.906 0-2.186.33-1.737 2.162.45 1.832.924 3.736 1.394 5.598.156.607.186 1.164-.36 1.6-.547.437-1.097.21-1.63-.068-1.741-.912-3.478-1.84-5.231-2.726-1.385-.706-1.885-.475-2.224 1.074-.423 1.93-.775 3.877-1.148 5.82-.114.603-.3 1.151-.965 1.335-.665.184-1.114-.197-1.487-.693-1.181-1.58-2.35-3.171-3.549-4.742-1.012-1.335-1.529-1.322-2.541.03a434.154 434.154 0 00-3.465 4.61c-.402.543-.847.984-1.584.795-.736-.188-.817-.796-.936-1.365-.377-1.832-.724-3.672-1.08-5.508-.355-1.836-.817-2.088-2.452-1.24-1.634.847-3.307 1.711-4.96 2.567-.58.304-1.147.603-1.765.098-.619-.505-.475-1.155-.318-1.78.457-1.81.961-3.612 1.406-5.426.424-1.712.072-2.14-1.664-2.14-.479 0-.957.038-1.436.047-.479.008-.847 0-1.27 0l-.022.047z" fill="#01BFB1"/>
    <path d="M57.914 93.373c.373 1.044.093 2.118.102 3.175.034 5.243.021 10.489 0 15.732 0 2.486-.758 3.231-3.253 3.231H5.52c-2.605 0-3.27-.685-3.274-3.342-.017-5.94-.03-11.881-.042-17.82.02-.32.057-.636.114-.95.737-.613 1.44-1.284 2.215-1.824a17168.44 17168.44 0 0123.438-16.827c1.758-1.284 2.342-1.322 4.12-.06 6.155 4.37 12.325 8.713 18.424 13.156 2.499 1.81 5.142 3.406 7.4 5.529z" fill="#01BEB1"/>
    <path d="M107.055 30.998V55.11c0 2.298-.546 2.85-2.799 2.855H72.182c-2.181 0-2.837-.664-2.842-2.88V30.972l12.164-18.008c4.484 3.021 9.032 3.123 13.646.304 1.639 2.354 3.35 4.665 4.904 7.078 2.287 3.565 4.956 6.895 7.001 10.652z" fill="#01BEB0"/>
    <path d="M57.914 93.373c-2.257-2.14-4.9-3.72-7.382-5.53-6.098-4.442-12.282-8.785-18.423-13.155-1.779-1.284-2.363-1.207-4.12.06A22276.48 22276.48 0 014.55 91.575c-.775.557-1.478 1.211-2.215 1.823l-.068-13.176c.006-.434.121-.858.336-1.233.216-.375.523-.688.893-.907 8.323-5.943 16.639-11.897 24.945-17.863 1.212-.856 2.304-.779 3.499.081 8.17 5.88 16.359 11.742 24.564 17.585.817.582 1.508 1.207 1.504 2.298-.029 4.402-.06 8.799-.094 13.19z" fill="#017377"/>
    <path d="M87.844 115.832c-11.41.59-20.99-6.137-24.835-17.46a37.301 37.301 0 01-1.965-9.219c-.136-1.827.093-2.041 1.91-2.063 12.366-.158 21.447 7.34 24.22 20.033.306 1.404.471 2.842.704 4.279.364 1.468-.25 2.945-.034 4.43z" fill="#027478"/>
    <path d="M87.844 115.832c-.216-1.485.398-2.962.034-4.442.91-1.045.627-2.406.898-3.612 1.571-6.955 4.544-12.993 10.724-16.965 4.294-2.76 9.084-3.71 14.111-3.736 1.063 0 1.631.514 1.521 1.571-.877 8.666-3.486 16.536-10.588 22.155-4.87 3.865-10.567 5.247-16.7 5.029zm.318-24.492c-11.478.304-20.495-5.324-24.772-16.46a35.86 35.86 0 01-2.346-10.27c-.132-1.78.211-2.101 1.944-2.063 13.438.295 22.446 8.324 24.564 21.86.135.856.025 1.802.61 2.568-.005 1.43 0 2.889 0 4.365z" fill="#02BFB1"/>
    <path d="M88.162 91.34v-4.378c.567-3.766 1.35-7.476 2.994-10.934 4.688-9.843 12.968-13.353 22.447-13.507 1.05 0 1.639.493 1.542 1.558-.704 7.588-2.864 14.598-8.302 20.183-5.124 5.23-11.536 7.172-18.681 7.078z" fill="#027478"/>
    <path d="M257.381 107.975c0 2.088-.042 4.181 0 6.265.025.911-.258 1.172-1.169 1.198-4.333.12-4.333.15-4.333-4.237 0-2.734.068-5.469-.034-8.195-.11-2.919-1.694-4.215-4.142-3.646-1.575.364-2.117 1.485-2.266 2.914-.423 3.634-.131 7.275-.194 10.917-.043 2.221 0 2.221-2.19 2.226-3.303 0-3.303 0-3.303-3.325 0-2.996.055-5.992-.022-8.988-.072-2.927-1.622-4.279-4.065-3.753-1.652.351-2.3 1.511-2.338 2.996-.089 3.586-.064 7.177-.102 10.763-.025 2.641.339 2.281-2.283 2.294-3.316.021-3.316 0-3.316-3.304 0-5.465.025-10.926-.025-16.39 0-1.04.25-1.443 1.317-1.349 1.067.094 2.02.022 3.032.022.212 0 .538-.09.619 0 1.164 1.485 2.181.038 3.227-.171 2.592-.518 4.989-.291 6.954 1.673.5.505.733.646 1.343.094 2.117-1.934 4.764-2.294 7.475-1.874 3.435.53 5.472 3.124 5.722 7.275.131 2.187 0 4.391 0 6.586l.093.009z" fill="#047579"/>
    <path d="M81.487 12.951L69.323 30.96c-1.859 0-3.714 0-5.573-.03-1.74-.026-2.435-.698-2.44-2.418V6.04c0-1.648.703-2.367 2.309-2.375 3.718-.026 7.432 0 11.151 0 1.321 0 2.118.577 2.35 1.883.521 3.021 2.127 5.4 4.367 7.403z" fill="#017377"/>
    <path d="M107.055 30.998c-2.045-3.744-4.714-7.074-7.018-10.651-1.554-2.414-3.265-4.708-4.904-7.079 2.541-2.037 4.235-4.605 4.803-7.87.203-1.177.965-1.712 2.117-1.712h10.843c1.529 0 2.299.882 2.308 2.29.048 7.549.048 15.098 0 22.647 0 1.584-.847 2.307-2.431 2.337-1.893.013-3.803.013-5.718.038z" fill="#027478"/>
    <path d="M351.475 62.641c0-2.995.072-5.991-.034-8.987-.046-1.284.373-1.562 1.517-1.45.999.094 2.325-.39 2.964.102 1.466 1.121 2.376-.162 3.532-.33 2.326-.333 4.596-.29 6.353 1.64.462.509.788.727 1.398.14 1.978-1.904 4.455-2.139 7.005-1.844 2.24.257 3.812 1.558 4.705 3.617.64 1.476.969 3.07.966 4.681.025 3.912-.025 7.824.03 11.73 0 .968-.212 1.285-1.22 1.285-4.087.03-4.074.068-4.091-4.027 0-3.052.029-6.112-.149-9.154-.131-2.294-1.567-3.321-3.642-2.936-1.474.274-2.338 1.33-2.389 3.334-.088 3.693-.114 7.39-.038 11.084.026 1.31-.283 1.733-1.643 1.711-3.718-.08-3.714 0-3.723-3.748 0-2.996.034-5.992-.063-8.988-.076-2.195-.996-3.256-2.647-3.423-1.974-.184-3.211.809-3.388 2.936-.331 3.684-.077 7.386-.14 11.08-.043 2.447.284 2.08-2.143 2.096-3.143.022-3.143 0-3.143-3.132l-.017-7.417z" fill="#057579"/>
    <path d="M164.04 31.687c-1.952 0-3.9-.034-5.844 0-.788.022-.945-.552-1.22-1.048-2.058-3.68-4.142-7.348-6.154-11.05-.546-1.01-.745-1.1-1.694-.218-2.812 2.632-3.964 5.666-3.524 9.552.31 2.722.06 2.751-2.676 2.751s-2.8 0-2.8-2.858c0-7.819.03-15.642-.029-23.46 0-1.285.343-1.614 1.588-1.597 3.977.056 3.977 0 3.977 3.98v8.041c1.567-1.909 2.964-3.607 4.358-5.31 1.589-1.944 3.171-3.89 4.743-5.842.301-.373.547-.822 1.106-.826h6.378c-2.44 2.901-4.536 5.563-6.84 8.067-1.127 1.21-1.072 2.067-.288 3.423 2.863 4.935 5.599 9.955 8.365 14.949.233.406.597.757.554 1.446z" fill="#037478"/>
    <path d="M166.637 86.281v9.338a8.2 8.2 0 013.255-1.466 8.16 8.16 0 013.563.058c3.388.758 5.426 3.351 5.608 7.601.182 4.25.046 8.452.08 12.68 0 .685-.216.89-.902.95-4.595.386-4.57.403-4.604-4.142-.025-2.889.216-5.786-.131-8.658-.292-2.426-1.414-3.462-3.422-3.423-2.118.055-3.32 1.322-3.388 3.83a273.41 273.41 0 00-.043 10.754c0 1.199-.215 1.665-1.541 1.648-4.045-.06-4.045 0-4.045-4.096 0-6.958.026-13.917-.025-20.875 0-1.062.284-1.652 1.27-2.067 1.419-.582 2.758-1.353 4.325-2.132z" fill="#07777B"/>
    <path d="M203.013 80.85v-6.79c0-6.697.055-13.4-.042-20.114-.021-1.54.47-1.938 1.855-1.767.743.045 1.488.045 2.232 0 .211 0 .55-.086.618 0 1.025 1.515 1.936.124 2.812-.154 2.931-.916 6.353.24 7.827 3.098a15.787 15.787 0 011.929 7.299 15.786 15.786 0 01-1.675 7.363c-1.77 3.697-5.929 4.793-9.525 2.846-.229-.124-.423-.347-.817-.206 0 1.502-.043 3.043 0 4.58a1.47 1.47 0 01-.202.978c-.179.291-.454.51-.777.618-1.363.689-2.672 1.446-4.235 2.25zm11.727-17.836c0-1.507-.101-2.996-.847-4.366a2.844 2.844 0 00-1.465-1.424 2.807 2.807 0 00-2.033-.065c-1.338.428-2.312 1.194-2.211 2.88.102 1.686.021 3.424.021 5.136 0 1.712.805 2.751 2.52 3.094 1.716.342 2.847-.253 3.528-1.943a9.047 9.047 0 00.487-3.312z" fill="#037478"/>
    <path d="M285.469 73.169c-1.804 0-3.439-.034-5.082 0-.809.026-.919-.522-1.135-1.079-1.063-2.717-2.143-5.426-3.27-8.272-1.813 1.622-2.732 3.338-2.588 5.786.204 3.552.051 3.492-3.515 3.586-1.359.039-1.775-.257-1.758-1.712.085-7.767.06-15.534 0-23.306 0-.984.238-1.558 1.165-1.964 1.338-.587 2.618-1.323 4.172-2.14v15.175c1.694-2.294 3.104-4.194 4.481-6.137a1.775 1.775 0 011.694-.907c1.639.064 3.282 0 5.26 0-1.55 2.037-2.918 3.903-4.375 5.696a1.854 1.854 0 00-.292 2.166c1.779 4.292 3.46 8.597 5.243 13.108z" fill="#057579"/>
    <path d="M277.985 18.408c.216-2.328-.652-3.424-2.744-3.484a9.387 9.387 0 00-4.786.98c-.75.394-1.169.266-1.461-.496a2.653 2.653 0 00-.157-.278c-1.694-3.043-1.694-3.065 1.72-4.152a14.063 14.063 0 017.856-.248c3.265.856 5.18 3.21 5.239 6.604.076 4.39 0 8.781.034 13.172 0 .886-.22 1.284-1.156 1.198-1.11-.072-2.232 0-3.346 0-.161 0-.424.065-.466 0-1.076-1.489-2.003-.102-2.965.159-5.082 1.356-11.041-1.772-9.817-8.74.474-2.88 3.016-4.963 6.446-5.293 1.855-.188 3.719-.235 5.603.578zm.136 5.923c0-1.712-.907-2.286-3.503-2.294-2.117 0-3.286.916-3.303 2.628-.017 1.711 1.088 2.734 3.015 2.764 2.245.03 3.791-1.245 3.791-3.098z" fill="#06767A"/>
    <path d="M279.349 107.435c0 2.303-.034 4.605 0 6.908 0 .855-.263 1.129-1.088 1.087-1.114-.06-2.232 0-3.351 0-.211 0-.567.064-.614-.03-.889-1.712-1.778-.184-2.575.047-3.053.885-5.844.458-8.165-1.712-2.19-2.059-2.567-4.733-1.779-7.549.712-2.538 2.668-3.771 5.044-4.4 1.952-.58 4.03-.562 5.972.052 1.203.428 1.135-.189 1.016-.955-.224-1.48-1.533-2.396-3.354-2.272-1.478.103-2.986.227-4.307.997-.754.428-1.173.261-1.47-.492a2.138 2.138 0 00-.144-.283c-1.694-2.995-1.694-3.072 1.55-4.108a14.371 14.371 0 017.704-.372c3.545.817 5.531 3.325 5.54 7.001.025 2.011.021 4.049.021 6.081zm-5.48.595c0-1.69-.983-2.302-3.651-2.264-2.067.026-3.312 1.053-3.266 2.684.047 1.63 1.271 2.67 3.13 2.674 2.279-.013 3.782-1.241 3.787-3.094z" fill="#047579"/>
    <path d="M147.938 63.916c-2.753 1.84-2.863 4.541-2.541 7.306.182 1.652-.381 2.054-1.974 1.985-3.261-.132-3.265-.038-3.265-3.385 0-7.224 0-14.452-.026-21.676 0-1.001.284-1.549 1.186-1.951 1.296-.582 2.541-1.284 3.943-2.037v15.286c1.461-1.977 2.804-3.518 3.812-5.255.97-1.66 2.194-2.23 4.019-2.003 1.248.08 2.5.09 3.748.026-1.516 1.99-2.816 3.787-4.235 5.495a2.153 2.153 0 00-.381 2.538c1.597 3.783 3.032 7.63 4.6 11.422.465 1.12.482 1.549-.958 1.532-4.281-.043-4.269 0-5.823-4.036-.686-1.789-1.419-3.535-2.105-5.247z" fill="#027478"/>
    <path d="M235.07 18.352c.347-2.05-.509-3.274-2.47-3.423a9.281 9.281 0 00-5.082.984c-.669.355-.97.248-1.368-.394-1.914-3.115-1.783-3.603 1.724-4.613 2.804-.805 5.658-.933 8.449.09 2.791 1.022 4.337 3.068 4.405 6.042.102 4.545.038 9.094.08 13.64 0 .757-.211 1.048-.986 1.014-1.22-.052-2.444 0-3.664 0-.161 0-.423.047-.462-.022-.847-1.588-1.694-.214-2.498.026-2.965.898-5.714.535-8.047-1.532-2.253-1.995-2.715-4.63-2.004-7.477.623-2.482 2.423-3.851 4.74-4.502a11.78 11.78 0 017.183.167zm.186 6.017c0-1.712-.805-2.276-3.435-2.332-2.084-.043-3.49 1.031-3.481 2.662.008 1.63 1.27 2.709 3.1 2.73 2.224.026 3.803-1.24 3.812-3.06h.004z" fill="#037478"/>
    <path d="M395.458 59.885c.157-2.508-.707-3.466-2.964-3.492a8.683 8.683 0 00-4.299.989c-.678.368-.949.244-1.334-.428-1.838-3.12-1.694-3.595 1.778-4.64a13 13 0 016.777-.23c3.388.791 5.362 3.102 5.446 6.586.115 4.49 0 8.987.047 13.48 0 .775-.25 1.045-1.008 1.015-1.114-.047-2.232 0-3.346 0-.106 0-.267.042-.309 0-1.203-1.477-2.19 0-3.261.23-2.906.57-5.578.095-7.543-2.25-1.965-2.346-2.283-5.042-1.135-7.836 1.148-2.795 3.553-3.822 6.353-4.044 1.601-.133 3.197-.107 4.798.62zm.119 6.034c0-1.801-.847-2.4-3.363-2.4-2.037 0-3.104.855-3.13 2.567-.025 1.772 1.046 2.795 2.927 2.786 2.117.004 3.545-1.18 3.574-2.953h-.008zM170.74 59.838c.153-2.452-.72-3.424-2.964-3.424a8.775 8.775 0 00-4.303.985c-.665.364-.94.26-1.326-.428-1.812-3.201-1.639-3.676 1.944-4.708a14.255 14.255 0 016.01-.312c3.735.552 5.976 3.133 6.073 7.087.102 4.335 0 8.674.038 13.014 0 .804-.182 1.177-1.054 1.13-1.165-.064-2.338 0-3.507-.022-.292 0-.75.124-.779-.308-.064-.941-.424-.53-.847-.29-2.842 1.578-6.222 1.369-8.471-.626-2.469-2.17-2.99-4.96-2.164-8.037.61-2.268 2.262-3.59 4.413-4.236a10.903 10.903 0 016.937.175zm.094 5.966c0-1.712-.847-2.281-3.308-2.285-2.075 0-3.265.992-3.219 2.696.047 1.703 1.152 2.666 2.935 2.666 2.181.008 3.592-1.19 3.592-3.077z" fill="#047579"/>
    <path d="M346.689 65.32c0 2.196-.038 4.39.022 6.586.025.933-.149 1.387-1.203 1.284-1.055-.102-2.016 0-3.028-.03-.348 0-.898.167-.987-.265-.199-1.01-.597-.505-1.055-.253-2.799 1.545-5.565 1.323-8.098-.509-2.448-1.763-3.112-4.378-2.664-7.275.488-3.137 2.91-5.255 6.307-5.564 1.474-.132 2.964-.24 4.421.283.767.278 1.055.086.974-.77a2.547 2.547 0 00-.792-1.716 2.495 2.495 0 00-1.749-.68 8.114 8.114 0 00-4.633.898c-.885.496-1.228.235-1.665-.587-1.664-3.158-1.694-3.286 1.8-4.33 2.804-.856 5.667-.98 8.42.222 2.613 1.143 3.812 3.325 3.905 6.111.085 2.2.025 4.4.025 6.595zm-5.251.492c0-1.682-.847-2.26-3.342-2.294-2.088-.03-3.231.92-3.219 2.68 0 1.668 1.089 2.666 2.893 2.687 2.173.021 3.659-1.22 3.668-3.073z" fill="#037478"/>
    <path d="M288.434 21.241c0-3.051.029-6.103 0-9.154 0-.971.139-1.506 1.27-1.382 1 .111 2.02 0 3.028.038.492.026 1.152-.338 1.313.66.115.705.572.072.809-.056a7.572 7.572 0 013.003-.967c5.082-.398 8.098 2.07 8.504 7.497.322 4.31.098 8.666.136 13.002 0 .637-.246.77-.847.825-4.659.428-4.633.428-4.659-4.215 0-2.833.208-5.679-.131-8.503-.305-2.491-1.427-3.514-3.545-3.424-2.118.09-3.193 1.284-3.261 3.749a219.679 219.679 0 00-.034 10.921c.025 1.25-.364 1.503-1.525 1.49-4.061-.039-4.061 0-4.061-4.049v-6.432z" fill="#057579"/>
    <path d="M205.876 106.746c-1.592 0-3.189.069-4.777-.021-1.389-.077-1.356.522-.928 1.519.995 2.32 4.235 3.159 6.539 1.537.797-.557 1.229-.523 1.839.124.463.439.949.854 1.456 1.241 1.724 1.468 1.724 1.476-.05 2.803a9.665 9.665 0 01-4.653 1.941 9.621 9.621 0 01-4.989-.672 9.727 9.727 0 01-3.987-3.105 9.87 9.87 0 01-1.915-4.703c-.593-4.13.026-7.956 3.058-10.973 2.414-2.4 5.459-3.081 8.695-1.999 3.494 1.164 5.116 4.01 5.798 7.43.978 4.878.928 4.878-3.854 4.878h-2.232zm-2.571-4.198h2.859c.559 0 .729-.188.623-.77a3.803 3.803 0 00-1.083-1.918 3.733 3.733 0 00-1.958-.98c-1.546-.192-2.664.488-3.388 1.858-.822 1.6-.699 1.802 1.024 1.806l1.923.004z" fill="#06767A"/>
    <path d="M138.15 105.642c-.067-3.064.475-5.961 2.486-8.405a9.022 9.022 0 013.096-2.406 8.923 8.923 0 017.625 0 9.019 9.019 0 013.095 2.406c3.498 4.228 3.341 11.88-.318 15.727a9.007 9.007 0 01-3.739 2.439 8.928 8.928 0 01-4.437.335 8.968 8.968 0 01-4.056-1.848 9.114 9.114 0 01-2.689-3.583 12.584 12.584 0 01-1.063-4.665zm5.599-.428a7.187 7.187 0 00.72 3.304 3.235 3.235 0 001.16 1.405 3.184 3.184 0 001.729.546 3.084 3.084 0 001.773-.39c.54-.305.978-.765 1.259-1.321a7.839 7.839 0 00.119-7.537 3.146 3.146 0 00-1.279-1.404 3.096 3.096 0 00-1.847-.402 3.203 3.203 0 00-1.726.537 3.26 3.26 0 00-1.171 1.389c-.584 1.126-.741 2.333-.737 3.856v.017zm32.735-82.21c-1.593 0-3.194.073-4.782 0-1.47-.086-1.465.56-.991 1.613.957 2.14 3.985 3.107 6.154 1.656 1.207-.808 1.834-.496 2.63.326.157.142.323.275.495.398 2.355 1.947 2.321 2.255-.398 3.851-6.564 3.818-14.188-.29-14.789-8.002-.293-3.762.351-7.276 3.172-10.049a8.336 8.336 0 013.245-2.048 8.27 8.27 0 017.382 1.013 8.413 8.413 0 012.587 2.85c1.27 2.246 1.605 4.707 1.622 7.275 0 .856-.301 1.224-1.228 1.181-1.694-.115-3.401-.064-5.099-.064zm-2.622-4.181c.792 0 1.584-.052 2.372 0 .974.077 1.27-.317.919-1.194-.564-1.455-1.555-2.371-3.172-2.448-1.618-.077-2.542.715-3.198 2.11-.53 1.15-.347 1.682 1.025 1.532.684-.037 1.37-.037 2.054 0z" fill="#047579"/>
    <path d="M241.223 62.71c0 2.995-.063 5.991.03 8.987.038 1.25-.364 1.609-1.533 1.485-.847-.094-1.694 0-2.541-.03-.5-.026-1.182.312-1.271-.693-.059-.578-.449-.107-.673 0-5.629 2.854-10.504.235-11.092-6.047-.424-4.434-.077-8.885-.174-13.327 0-.715.28-.856.94-.911 4.354-.296 4.35-.313 4.354 4.018 0 2.735-.059 5.47.03 8.195.089 2.833 1.232 4.019 3.523 3.933 1.538-.055 2.453-.834 2.842-2.315.424-1.583.288-3.192.297-4.793 0-2.628.042-5.251 0-7.874 0-.916.241-1.156 1.147-1.169 4.16-.072 4.16-.102 4.16 4.096l-.039 6.445zm-43.263-.017c0 3.106-.029 6.213 0 9.32 0 .89-.224 1.241-1.143 1.173-1.059-.073-2.118 0-3.189-.026-.339 0-.847.167-.928-.355-.131-.74-.423-.47-.847-.265-5.421 2.67-9.991.363-10.867-5.628-.678-4.626-.14-9.304-.28-13.956 0-.547.169-.808.728-.748.106.008.212.008.318 0 4.235-.172 4.235-.172 4.235 4.147 0 2.888 0 5.781.136 8.666.102 2.272 1.245 3.338 3.257 3.316 1.897-.021 3.02-.971 3.13-3.094.165-3.205.118-6.42.135-9.629.021-3.423 0-3.295 3.388-3.453 1.694-.078 2.016.457 1.944 2.02-.11 2.833-.017 5.674-.017 8.512z" fill="#06767A"/>
    <path d="M246.149 62.607c0-3.103.025-6.21 0-9.312 0-.81.165-1.164 1.046-1.105 1.059.078 2.118 0 3.185 0 .161 0 .424-.068.466 0 1.143 1.545 2.168.09 3.164-.183 4.358-1.203 8.131 1.125 9.067 5.653.53 2.568.28 5.135.322 7.703.038 2.195-.047 4.39.034 6.582.038 1.018-.301 1.228-1.271 1.237-4.057.03-4.044.064-4.061-4.049 0-2.94 0-5.888-.136-8.82-.127-2.315-1.27-3.334-3.282-3.287-1.902.047-3.024 1.104-3.104 3.321-.14 3.796-.144 7.596-.119 11.397 0 1.104-.28 1.446-1.41 1.442-3.901 0-3.901.026-3.901-3.852v-6.727z" fill="#057579"/>
    <path d="M309.716 64.486c-1.538 0-3.084.077-4.617-.022-1.27-.085-1.27.428-.91 1.395a4.053 4.053 0 001.008 1.479 4.002 4.002 0 003.311 1.031 3.999 3.999 0 001.657-.648c1.092-.715 1.745-.59 2.486.3.15.154.311.298.483.427 2.249 2.003 2.223 2.26-.369 3.83-5.18 3.142-11.609.857-13.485-4.9-1.224-3.748-1.093-7.506.826-11.024 1.741-3.192 4.455-4.814 8.132-4.489 3.341.291 5.315 2.371 6.56 5.32.847 2.011 1.012 4.125 1.004 6.282 0 .877-.364 1.066-1.148 1.044-1.656-.06-3.291-.025-4.938-.025zm-2.355-4.186h2.541c.538 0 .818-.162.657-.74-.424-1.417-1.131-2.547-2.677-2.842-1.546-.295-2.668.33-3.388 1.742-.822 1.63-.703 1.832 1.114 1.836l1.753.004z" fill="#047579"/>
    <path d="M405.678 62.667c0-3.051.051-6.103-.026-9.15-.025-1.091.339-1.39 1.347-1.284.894.078 1.804 0 2.707 0 .266 0 .711-.09.77.022.847 1.652 1.695.21 2.482 0 3.85-1.104 8.644-.304 9.635 5.889.759 4.707.195 9.509.327 14.263 0 .522-.153.822-.716.796h-.318c-4.294.253-4.286.253-4.294-4.1 0-2.781 0-5.563-.064-8.345-.038-1.284-.309-2.589-1.58-3.308a3.146 3.146 0 00-3.051-.142 3.18 3.18 0 00-1.199 1.035 3.24 3.24 0 00-.557 1.491c-.554 3.774-.216 7.588-.203 11.38 0 1.531-.246 2.14-1.948 2.036-3.304-.162-3.312-.047-3.312-3.346v-7.237z" fill="#037478"/>
    <path d="M194.411 10.328c2.393-.068 4.617.59 6.802 1.49.813.333 1.012.744.61 1.561-.5 1.002-.627 2.401-1.398 2.996-.77.595-1.863-.556-2.863-.787-1.562-.368-3.121-.642-4.726-.355-.614.11-1.144.359-1.22 1.065-.068.638.377.993.877 1.203 1.08.428 2.185.826 3.269 1.25 1.233.483 2.503.902 3.677 1.506 2.63 1.343 3.599 3.282 3.32 6.33-.22 2.413-1.859 4.36-4.477 5.04a16.414 16.414 0 01-11.761-1.318c-.682-.334-.978-.723-.601-1.493.495-1.002.677-2.367 1.457-2.962.779-.595 1.833.59 2.816.856 1.758.428 3.511.856 5.341.638.792-.098 1.643-.253 1.778-1.284.136-1.031-.618-1.434-1.372-1.712-1.986-.74-4.053-1.284-5.988-2.14-3.329-1.467-4.63-4.493-3.478-7.767.932-2.705 3.198-3.56 5.697-3.989a19.284 19.284 0 012.24-.128z" fill="#057579"/>
    <path d="M214.241 2.608c0 2.473.038 4.707-.021 6.967 0 .886.211 1.31 1.135 1.155a.626.626 0 01.156 0c1.19.12 2.965-.569 3.444.3.605 1.121.203 2.799.241 4.237 0 .526-.208.8-.754.783h-.953c-3.248 0-3.248 0-3.248 3.363 0 1.657-.026 3.317 0 4.978.042 2.302 1.533 3.107 3.532 1.921.487-.287.944-.62 1.525-1.006-.229 1.686-.424 3.219-.627 4.755a1.429 1.429 0 01-.847 1.25c-4.68 2.225-9.051-.103-9.081-5.08 0-2.945-.042-5.889 0-8.829.022-1.036-.254-1.4-1.33-1.382-2.202.034-2.202-.03-2.202-2.328v-.48c0-2.409 0-2.452 2.355-2.46.881 0 1.351-.244 1.148-1.16-.775-3.467.826-5.358 3.989-6.274.528-.202 1.041-.44 1.538-.71z" fill="#047579"/>
    <path d="M243.659 10.73c1.808 0 3.506.047 5.201 0 .893-.034 1.016.514 1.215 1.152 1.271 4.168 2.6 8.323 3.947 12.616 1.271-4.117 2.58-8.132 3.774-12.15.347-1.181.792-1.819 2.156-1.626a19.02 19.02 0 003.341 0c.758-.03.936.235.686.928a4001.618 4001.618 0 00-6.886 19.28c-.195.556-.453.8-1.012.757h-.479c-1.482-.038-3.291.428-4.345-.27-.966-.633-1.131-2.52-1.614-3.851a23846.69 23846.69 0 00-5.506-15.368c-.173-.458-.296-.916-.478-1.468z" fill="#037478"/>
    <path d="M179.774 118.849l1.389-.385c2.326-.617 3.071-1.357 3.109-3.766.102-6.154.114-12.308.072-18.458 0-1.378.216-1.956 1.783-1.9 3.812.124 3.812.034 3.812 3.851v15.09a27.002 27.002 0 01-.254 3.514c-.58 4.198-3.596 5.589-7.425 6.209-.643.103-.8-.381-.995-.821-.491-1.087-.966-2.17-1.491-3.334z" fill="#0A787C"/>
    <path d="M222.194 86.324c.034.544.072.899.072 1.258 0 8.782-.025 17.547.034 26.354 0 1.228-.343 1.515-1.516 1.506-4.049-.038-4.049 0-4.049-4.065 0-6.967.026-13.93-.021-20.893 0-1.044.225-1.656 1.245-2.071 1.411-.574 2.74-1.353 4.235-2.089z" fill="#027478"/>
    <path d="M325.31 44.093v28.044c0 .89-.322 1.032-1.105 1.053-4.202.124-4.202.146-4.202-4.061 0-6.963 0-13.922-.021-20.884 0-.976.233-1.584 1.148-2.003 1.355-.612 2.643-1.344 4.18-2.148z" fill="#07777B"/>
    <path d="M294.401 62.641c0 3.051-.034 6.107 0 9.158 0 .967-.135 1.4-1.27 1.4-3.965 0-3.965.055-3.965-3.963 0-5.2.026-10.395 0-15.59 0-1.053.161-1.477 1.351-1.468 3.88.034 3.884 0 3.884 3.851v6.612z" fill="#017377"/>
    <path d="M187.122 92.786a3.07 3.07 0 01-2.225-.888 3.144 3.144 0 01-.934-2.227 3.216 3.216 0 01.943-2.31 3.133 3.133 0 012.301-.916 3.19 3.19 0 012.192.982 3.26 3.26 0 01.904 2.244 3.183 3.183 0 01-.952 2.223 3.119 3.119 0 01-2.229.892zm40.794-84.572a3.057 3.057 0 01-2.214-.92 3.132 3.132 0 01-.886-2.248 3.166 3.166 0 01.936-2.141 3.104 3.104 0 012.139-.9 3.048 3.048 0 012.251.858 3.115 3.115 0 01.95 2.233 3.114 3.114 0 01-.932 2.241 3.075 3.075 0 01-2.244.877zm51.467 0a3.153 3.153 0 01-2.219-.91 3.216 3.216 0 01-.957-2.218 3.253 3.253 0 011.003-2.204A3.187 3.187 0 01279.446 2a3.07 3.07 0 012.148.907c.572.575.898 1.352.91 2.166.008.416-.067.829-.221 1.214a3.077 3.077 0 01-1.697 1.708 3.022 3.022 0 01-1.203.219zm15.442 39.201a3.1 3.1 0 01-.565 1.666 3.048 3.048 0 01-1.377 1.079 3.014 3.014 0 01-3.265-.71 3.087 3.087 0 01-.815-1.557 3.108 3.108 0 01.165-1.754 3.068 3.068 0 011.09-1.373 3.022 3.022 0 011.658-.544 3.099 3.099 0 012.21.945 3.194 3.194 0 01.899 2.248z" fill="#07777B"/>
    <path d="M233.376 5.128a3.083 3.083 0 01.899-2.232 3.032 3.032 0 012.218-.887 3.043 3.043 0 012.175.9 3.135 3.135 0 01.679 3.378 3.07 3.07 0 01-2.829 1.927 3 3 0 01-2.226-.862 3.063 3.063 0 01-.916-2.224z" fill="#057579"/>
    <path d="M270.891 8.214a3.045 3.045 0 01-2.247-.868 3.131 3.131 0 010-4.475 3.064 3.064 0 012.247-.867c.796.03 1.548.37 2.1.95a3.12 3.12 0 01.861 2.155 3.12 3.12 0 01-.861 2.156 3.058 3.058 0 01-2.1.949z" fill="#047579"/>
    <path d="M396.78 49.691a3.025 3.025 0 01-2.141-.907 3.089 3.089 0 01-.883-2.17c-.007-.81.298-1.59.852-2.175a3.062 3.062 0 012.112-.957 3.06 3.06 0 012.109.932c.557.575.872 1.345.878 2.15a3.122 3.122 0 01-.846 2.163 3.06 3.06 0 01-2.094.964h.013z" fill="#06767A"/>
    <path d="M391.634 46.64a3.116 3.116 0 01-.916 2.163 3.052 3.052 0 01-2.155.893 3.062 3.062 0 01-2.16-.945 3.127 3.127 0 01.069-4.394 3.059 3.059 0 012.189-.875 3.108 3.108 0 012.113.976c.554.589.862 1.37.86 2.182z" fill="#07777B"/>
    <path d="M334.42 49.695a3.05 3.05 0 01-1.726-.492 3.097 3.097 0 01-1.16-1.382 3.13 3.13 0 01.629-3.409 3.047 3.047 0 013.361-.697 3.079 3.079 0 011.388 1.147c.34.513.521 1.117.519 1.735a3.113 3.113 0 01-.877 2.173c-.564.58-1.33.912-2.134.925z" fill="#06767A"/>
    <path d="M339.617 46.456a3.045 3.045 0 01.925-2.154 3.005 3.005 0 011.002-.642c.372-.144.77-.212 1.169-.2.801.053 1.55.424 2.083 1.031.533.608.807 1.403.763 2.213a3.03 3.03 0 01-.277 1.136 2.989 2.989 0 01-1.677 1.549 2.936 2.936 0 01-2.269-.103 2.97 2.97 0 01-1.532-1.695 3.034 3.034 0 01-.175-1.156l-.012.021z" fill="#047579"/>
  </g>
  <defs>
    <clipPath id="hsy-kestava-color__clip0_1255:183">
      <path fill="#fff" transform="translate(2 2)" d="M0 0h421v121H0z"/>
    </clipPath>
  </defs>
</svg>
