<svg xmlns="http://www.w3.org/2000/svg" viewBox="0 0 184 189">
  <g clip-path="url(#hsy-kestava-mark-color__clip0_1263:289)">
    <g clip-path="url(#hsy-kestava-mark-color__clip1_1263:289)">
      <path d="M139.828 142.192s-2.148-46.138 42.013-46.138a1.96 1.96 0 011.426.633 1.93 1.93 0 01.499 1.47c-.633 9.09-5.613 44.035-43.938 44.035z" fill="#007377"/>
      <path d="M139.817 142.192s2.148-46.138-42.013-46.138a1.956 1.956 0 00-1.426.633 1.931 1.931 0 00-.499 1.47c.633 9.09 5.612 44.035 43.938 44.035z" fill="#00BFB1"/>
      <path d="M139.817 181.524s2.148-46.143-42.013-46.143a1.956 1.956 0 00-1.426.633 1.925 1.925 0 00-.499 1.471c.633 9.089 5.612 44.034 43.938 44.039z" fill="#007377"/>
      <path d="M139.828 181.524s-2.148-46.143 42.013-46.143a1.96 1.96 0 011.426.633 1.934 1.934 0 01.499 1.471c-.633 9.089-5.613 44.034-43.938 44.039zM90.23 46.586L79.988 51.14a1.887 1.887 0 00-1.065 1.293 1.866 1.866 0 00.396 1.625l7.22 8.501a1.865 1.865 0 01-.452 2.825 1.892 1.892 0 01-1.042.269l-11.183-.32a1.896 1.896 0 00-1.528.704 1.872 1.872 0 00-.355 1.637l2.801 10.78a1.86 1.86 0 01-.65 1.934 1.889 1.889 0 01-2.042.195l-9.954-5.099a1.897 1.897 0 00-2.353.52 1.872 1.872 0 00-.36.78l-2.183 10.909c-.072.354-.245.68-.498.94a1.892 1.892 0 01-1.998.453 1.887 1.887 0 01-.86-.63l-6.743-8.899a1.886 1.886 0 00-1.506-.746 1.897 1.897 0 00-1.507.746l-6.67 8.883a1.887 1.887 0 01-1.927.697 1.891 1.891 0 01-.931-.52 1.873 1.873 0 01-.498-.94l-2.2-10.904a1.868 1.868 0 00-1.03-1.323 1.892 1.892 0 00-1.683.024l-9.953 5.099a1.892 1.892 0 01-2.042-.196 1.872 1.872 0 01-.65-1.933l2.8-10.78a1.867 1.867 0 00-.354-1.637 1.886 1.886 0 00-1.528-.704l-11.183.32A1.891 1.891 0 014.51 64.58a1.861 1.861 0 01.272-2.033l7.22-8.502a1.867 1.867 0 00.019-2.396 1.881 1.881 0 00-.688-.522L1.11 46.586a1.88 1.88 0 01-.812-.69 1.863 1.863 0 01.812-2.728l10.223-4.547a1.881 1.881 0 001.068-1.293 1.86 1.86 0 00-.399-1.625l-7.225-8.507a1.866 1.866 0 01.452-2.825 1.891 1.891 0 011.042-.268l11.188.32a1.898 1.898 0 001.508-.692 1.872 1.872 0 00.375-1.608l-2.796-10.827a1.861 1.861 0 01.65-1.93 1.889 1.889 0 012.037-.2l9.953 5.105a1.897 1.897 0 002.354-.519 1.87 1.87 0 00.36-.78l2.183-10.894c.068-.359.24-.69.495-.953A1.886 1.886 0 0136.595.67c.344.128.643.354.86.65l6.742 8.892a1.886 1.886 0 001.507.746 1.898 1.898 0 001.507-.745l6.743-8.9A1.888 1.888 0 0155.88.62c.354.08.678.26.931.52.254.259.427.585.499.939l2.183 10.914a1.873 1.873 0 001.032 1.32 1.898 1.898 0 001.681-.02l9.959-5.104a1.893 1.893 0 011.995.24 1.872 1.872 0 01.64 1.894l-2.796 10.8a1.862 1.862 0 00.35 1.638 1.881 1.881 0 001.528.704l11.183-.32a1.897 1.897 0 011.759 1.064 1.867 1.867 0 01-.266 2.03l-7.22 8.46a1.873 1.873 0 00-.407 1.621 1.871 1.871 0 001.056 1.302l10.223 4.552c.332.146.614.384.813.686a1.863 1.863 0 01-.792 2.727z" fill="#00BFB1"/>
      <path d="M89.323 121.311L47.828 92.043a3.765 3.765 0 00-4.341 0L2.044 121.311a3.93 3.93 0 00-1.212 1.398 3.893 3.893 0 00-.433 1.794v22.803a3.893 3.893 0 011.645-3.191l41.458-29.269a3.747 3.747 0 014.342 0l41.48 29.269a3.882 3.882 0 011.644 3.191v-22.803a3.879 3.879 0 00-.432-1.795 3.915 3.915 0 00-1.213-1.397z" fill="#007377"/>
      <path d="M89.323 144.115l-41.495-29.269a3.747 3.747 0 00-4.341 0L2.044 144.115A3.893 3.893 0 00.4 147.306v29.66a3.829 3.829 0 001.096 2.728 3.872 3.872 0 002.716 1.159h82.917c1.024-.013 2-.43 2.715-1.159a3.83 3.83 0 001.097-2.728v-29.66a3.879 3.879 0 00-1.618-3.191z" fill="#00BFB1"/>
      <path d="M118.701 1.64H99.697c-.88 0-1.722.347-2.344.965a3.284 3.284 0 00-.97 2.33v37.022c0 .872.35 1.709.972 2.326a3.325 3.325 0 002.342.963h9.855l19.71-28.722A18.642 18.642 0 01122 4.444a3.282 3.282 0 00-1.122-2.015 3.32 3.32 0 00-2.177-.79zm61.823 0h-18.123a3.346 3.346 0 00-2.169.816 3.306 3.306 0 00-1.109 2.024 18.605 18.605 0 01-2.609 7.017 18.713 18.713 0 01-5.172 5.434l19.415 28.315h9.762c.878 0 1.72-.347 2.341-.963a3.28 3.28 0 00.973-2.327V4.934c0-.873-.348-1.71-.969-2.328a3.323 3.323 0 00-2.34-.966z" fill="#007377"/>
      <path d="M140.549 20.318a18.747 18.747 0 01-11.318-3.794l-19.71 28.722v40.048c0 .874.349 1.712.97 2.33a3.326 3.326 0 002.344.965h54.545a3.328 3.328 0 002.341-.967c.62-.618.968-1.455.968-2.328V45.246h.068L151.322 16.93a18.752 18.752 0 01-10.773 3.387z" fill="#00BFB1"/>
    </g>
  </g>
  <defs>
    <clipPath id="hsy-kestava-mark-color__clip0_1263:289">
      <path fill="#fff" d="M0 0h184v189H0z"/>
    </clipPath>
    <clipPath id="hsy-kestava-mark-color__clip1_1263:289">
      <path fill="#fff" transform="translate(0 -1)" d="M0 0h184v194H0z"/>
    </clipPath>
  </defs>
</svg>
