<svg viewBox="0 0 128 128" xmlns="http://www.w3.org/2000/svg">
  <path fill-rule="evenodd" clip-rule="evenodd" d="M9.45 64C9.45 33.875 33.875 9.45 64 9.45c30.125 0 54.55 24.425 54.55 54.55 0 30.125-24.425 54.55-54.55 54.55-30.125 0-54.55-24.425-54.55-54.55zm9.075 0c0 25.075 20.4 45.475 45.475 45.475 25.075 0 45.475-20.4 45.475-45.475 0-25.075-20.4-45.475-45.475-45.475-25.075 0-45.475 20.4-45.475 45.475zM64 92c15.464 0 28-12.536 28-28S79.464 36 64 36 36 48.536 36 64s12.536 28 28 28zm0 9c20.434 0 37-16.566 37-37S84.434 27 64 27 27 43.566 27 64s16.566 37 37 37zm0-27c5.523 0 10-4.477 10-10s-4.477-10-10-10-10 4.477-10 10 4.477 10 10 10zm0 9c10.493 0 19-8.507 19-19s-8.507-19-19-19-19 8.507-19 19 8.507 19 19 19z"/>
</svg>
