<svg viewBox="0 0 512 512" xmlns="http://www.w3.org/2000/svg">
  <path d="M129.15 356.25a9.55 9.55 0 11-9.55 9.54 9.326 9.326 0 012.734-6.813 9.313 9.313 0 016.816-2.727zm186.15-76.37a9.55 9.55 0 11-9.55 9.54 9.326 9.326 0 012.734-6.813 9.313 9.313 0 016.816-2.727zm-95.47-57.28a9.549 9.549 0 11-3.642 18.374 9.55 9.55 0 01-5.898-8.824 9.33 9.33 0 019.54-9.55zM406 146.23a9.549 9.549 0 11-3.642 18.374 9.55 9.55 0 01-5.898-8.824 9.32 9.32 0 01.668-3.686 9.324 9.324 0 015.187-5.192 9.333 9.333 0 013.685-.672zm0-28.64a38.4 38.4 0 00-38.18 38.19 37.196 37.196 0 005.82 19.84l-53.25 75.92a37.038 37.038 0 00-5.07-.3 37.62 37.62 0 00-24.46 8.95l-33.73-19.69c.606-2.742.905-5.542.89-8.35a38.19 38.19 0 10-76.37 0 37.137 37.137 0 005.82 19.85l-53.25 75.9a38.21 38.21 0 1033.11 37.89 38.223 38.223 0 00-8.05-23.42L210.59 269a37.38 37.38 0 009.25 1.34 38 38 0 0020.88-6.26l36.54 21.33a35.614 35.614 0 00-.15 4A38.189 38.189 0 10345.43 266l51.31-73.38A37.392 37.392 0 00406 194a38.385 38.385 0 0026.936-11.244 38.385 38.385 0 0011.244-26.936c.3-24.09-19.09-38.45-38.18-38.19v-.04zm-348.43-62a14.32 14.32 0 00-14.34 14.27v381.85A14.332 14.332 0 0057.55 466h400.94a14.323 14.323 0 0014.32-14.32 14.323 14.323 0 00-14.32-14.32H71.87V69.86a14.32 14.32 0 00-14.32-14.31l.02.04z"/>
</svg>
