<svg viewBox="0 0 512 512" xmlns="http://www.w3.org/2000/svg">
  <path d="M256 37.77c-120.53 0-218.23 97.7-218.23 218.23 0 120.53 97.7 218.23 218.23 218.23 120.53 0 218.23-97.7 218.23-218.23 0-120.53-97.7-218.23-218.23-218.23zm0 400.09c-100.28 0-181.86-81.58-181.86-181.86 0-100.28 81.58-181.86 181.86-181.86 100.28 0 181.86 81.58 181.86 181.86 0 100.28-81.58 181.86-181.86 181.86z"/>
  <path d="M291.53 372.12c0 20.6-16 34.9-35.32 34.9s-35.74-14.3-35.74-34.9c0-21 16.4-34.91 35.74-34.91 19.34 0 35.32 13.88 35.32 34.91zm-3.78-231.28c0 62.65-10.93 170.72-10.93 170.72h-41.21s-10.94-108.07-10.94-170.72V111h63.08v29.84z"/>
</svg>
