<svg viewBox="0 0 128 128" xmlns="http://www.w3.org/2000/svg">
  <path fill-rule="evenodd" clip-rule="evenodd" d="M64 10.667c29.455 0 53.333 23.878 53.333 53.333S93.455 117.333 64 117.333 10.667 93.455 10.667 64 34.545 10.667 64 10.667zM39.175 90.885c-3.554.372-7.097.83-10.622 1.37a45.378 45.378 0 0020.789 14.656 66.3 66.3 0 01-10.167-16.026zm49.658.04A66.338 66.338 0 0178.7 106.9a45.434 45.434 0 0020.707-14.585l-3.714-.546c-2.28-.315-4.567-.596-6.859-.842zm-20.831-1.302l.002 16.958c5.124-4.811 9.28-10.355 12.354-16.405a228.493 228.493 0 00-12.356-.553zM60 89.616c-3.93.063-7.86.225-11.779.486l-.565.042c3.07 6.052 7.223 11.597 12.343 16.41L60 89.616zM109.16 68H94.445a65.669 65.669 0 01-2.72 15.217c4.172.484 8.328 1.08 12.458 1.784A45.003 45.003 0 00109.159 68zM23.783 84.94l.264-.047c4.06-.681 8.144-1.258 12.246-1.728A65.485 65.485 0 0133.586 68H18.84a45.046 45.046 0 004.942 16.94zM68 68l.001 13.63c5.21.092 10.418.351 15.608.778a57.5 57.5 0 002.85-14.407L68 68zm-8 0l-18.428.001a57.613 57.613 0 002.837 14.377 238.233 238.233 0 0115.593-.754L60 68zm44.183-25.008l-1.688.29a238.466 238.466 0 01-10.774 1.505 65.412 65.412 0 012.724 15.21l14.714.002a45.062 45.062 0 00-4.976-17.007zm-80.4.072l-.093.175a45.045 45.045 0 00-4.85 16.76l14.746-.002a65.67 65.67 0 012.706-15.168 233.94 233.94 0 01-12.508-1.765zM83.61 45.59l-2.505.195c-4.36.313-8.73.508-13.103.584L68 59.997l18.459.001A57.616 57.616 0 0083.61 45.59zm-39.198.037l-.208.62a57.639 57.639 0 00-2.632 13.751H60V46.375a241.659 241.659 0 01-15.588-.75zm15.587-24.179c-5.121 4.814-9.275 10.36-12.344 16.414 4.11.284 8.227.46 12.347.526l-.003-16.94zm8.005-.026L68 38.38c4.125-.074 8.247-.256 12.358-.547-3.073-6.056-7.23-11.6-12.355-16.412zm-18.655-.338l-.143.051a45.422 45.422 0 00-20.659 14.61 226.77 226.77 0 0010.63 1.378A66.298 66.298 0 0149.35 21.084zm29.354.02l.76.9a66.263 66.263 0 019.376 15.07 225.28 225.28 0 0010.568-1.382 45.39 45.39 0 00-20.704-14.588z"/>
</svg>
