<svg viewBox="0 0 129 128" xmlns="http://www.w3.org/2000/svg">
  <path fill-rule="evenodd" clip-rule="evenodd" d="M105.235 61.558c-6.319 6.434-12.17 11.687-17.833 16.767C79.464 85.447 71.958 92.183 64 101.333c-7.957-9.147-15.467-15.886-23.407-23.012-5.662-5.078-11.514-10.331-17.829-16.763C18.404 57.117 16 51.198 16 44.896s2.404-12.22 6.765-16.662c4.37-4.45 10.185-6.9 16.378-6.9 16.389 0 21.858 14.45 24.864 19.864 3.01-5.413 8.475-19.865 24.866-19.865 6.183 0 11.993 2.45 16.362 6.901 4.361 4.441 6.765 10.36 6.765 16.662s-2.404 12.22-6.765 16.662zm-15.41-50.891c-15.52 0-23.338 9.632-25.818 13.427-2.477-3.796-10.294-13.427-25.816-13.427h-.019c-8.775 0-17.027 3.489-23.231 9.824-6.195 6.329-9.608 14.752-9.608 23.722s3.413 17.394 9.608 23.723c6.75 6.89 12.937 12.457 18.92 17.841 8.434 7.589 16.4 14.757 24.75 24.596.959 1.128 4.57 5.883 4.608 5.931l.78 1.029.78-1.029c.038-.048 3.649-4.803 4.607-5.931 8.353-9.839 16.32-17.007 24.753-24.596 5.983-5.384 12.169-10.95 18.918-17.843 6.197-6.327 9.61-14.75 9.61-23.72 0-8.971-3.413-17.394-9.61-23.721-6.202-6.337-14.454-9.826-23.231-9.826z"/>
</svg>
