<svg viewBox="0 0 513 512" xmlns="http://www.w3.org/2000/svg">
  <path d="M430.3 129.81A115.636 115.636 0 00348 95.72c-55 0-82.69 33.42-91.47 46.59-8.78-13.17-36.47-46.59-91.46-46.59H165a116.444 116.444 0 00-107.477 71.884A116.441 116.441 0 0082.7 294.43c23.91 23.91 45.83 43.22 67 61.9 29.87 26.34 58.1 51.21 87.69 85.34 3.39 3.92 16.18 20.42 16.31 20.59l2.77 3.57 2.77-3.57c.13-.17 12.92-16.67 16.31-20.59 29.59-34.13 57.82-59 87.69-85.34 21.2-18.68 43.12-38 67-61.91a116.524 116.524 0 000-164.61h.06zm-22.11 142.5c-23.25 23.24-44.78 42.22-65.6 60.57-29.2 25.73-56.82 50.12-86.09 83.12-29.27-33.05-56.89-57.39-86.1-83.13-20.82-18.35-42.36-37.33-65.59-60.56A85.129 85.129 0 01165.07 127c60.28 0 80.4 52.21 91.46 71.77C267.59 179.2 287.7 127 348 127a85.161 85.161 0 0160.19 145.32v-.01z"/>
</svg>
