<svg viewBox="0 0 512 512" xmlns="http://www.w3.org/2000/svg">
  <path d="M419.37 303.25l31.44 31.44 23.1-23.11L256 93.67 38.09 311.58l23.1 23.11 31.44-31.44v161.88h326.74V303.25zm-130.69 129.2h-65.35V323.78h65.35v108.67zm32.67 0V291.11h-130.7v141.34H125.3V270.58L256 139.88l130.7 130.7v161.87h-65.35zm70.79-250.35h32.68c0-28.53-14.74-43.26-26.58-55.09-10.25-10.23-17-17-17-32s6.77-21.77 17-32c11.85-11.83 26.59-26.57 26.59-55.12h-32.69c0 15-6.76 21.77-17 32-11.85 11.83-26.59 26.56-26.59 55.11s14.74 43.29 26.6 55.13c10.23 10.23 16.99 16.98 16.99 31.97z"/>
</svg>
