<svg width="512" height="512" viewBox="0 0 512 512" xmlns="http://www.w3.org/2000/svg">
  <path fill-rule="evenodd" clip-rule="evenodd" d="M245.098 136.961l44.245-43.84A97.6 97.6 0 01356.223 64a88.362 88.362 0 0165.536 25.813 88.686 88.686 0 0126.219 65.515 97.383 97.383 0 01-26.774 64.49l-2.325 2.39-73.216 73.216a97.598 97.598 0 01-66.88 29.098 88.37 88.37 0 01-65.515-25.813l4.267-4.16c7.531-7.424 21.269-21.184 26.347-26.453 17.92 18.346 50.346 18.09 70.4-.043l1.856-1.749 72.405-73.6c20.267-20.267 21.077-52.971 1.792-72.256-17.92-18.347-50.347-18.091-70.4.042l-1.856 1.75-43.84 43.84-29.141-29.12zM91.476 290.603l70.656-70.293c35.947-36.352 94.336-36.693 130.262-.747l-12.096 12.288c-7.318 7.318-15.147 15.104-17.451 17.28-18.773-18.773-49.579-19.178-69.269-1.322l-1.814 1.706-70.698 70.699c-19.563 19.563-19.755 51.733-.406 71.083 18.774 18.773 49.579 19.157 69.291 1.322l1.813-1.706 42.326-42.752 29.226 29.632-42.346 42.325a93.443 93.443 0 01-65.28 27.371 91.351 91.351 0 01-64.982-26.624c-35.242-34.859-35.605-91.691-1.322-128.15l2.069-2.133.021.021z"/>
</svg>
