<svg viewBox="0 0 512 512" xmlns="http://www.w3.org/2000/svg">
  <path d="M173.044 314.46L385.26 102.243l22.324 22.324-212.217 212.216-22.323-22.323zm-52.626-52.63L332.634 49.613l22.324 22.324L142.74 284.153l-22.322-22.323zM92.92 364.23l16.71-62.33 45.62 45.62-62.33 16.71zm326.16 101.06c-32.17 0-48.77-11.72-63.42-22.06-12.9-9.11-23.09-16.3-45.27-16.3-22.18 0-32.37 7.19-45.27 16.29-14.65 10.35-31.27 22.07-63.46 22.07s-48.81-11.72-63.47-22.07c-12.9-9.1-23.1-16.29-45.27-16.29v-31.58c32.2 0 48.81 11.73 63.47 22.08 12.9 9.1 23.09 16.29 45.27 16.29 22.18 0 32.36-7.19 45.26-16.29 14.66-10.35 31.28-22.08 63.47-22.08s48.82 11.74 63.48 22.08c12.88 9.1 23.07 16.29 45.21 16.29v31.57z"/>
</svg>
