<svg viewBox="0 0 128 128" xmlns="http://www.w3.org/2000/svg">
  <path fill-rule="evenodd" clip-rule="evenodd" d="M9 63.55C9 33.425 33.425 9 63.55 9c30.125 0 54.55 24.425 54.55 54.55 0 30.125-24.425 54.55-54.55 54.55C33.425 118.1 9 93.675 9 63.55zM30.733 95c8.283 8.639 19.933 14.025 32.817 14.025S88.084 103.639 96.367 95H30.733zm-6.72-9a45.198 45.198 0 01-5.938-22.45c0-25.075 20.4-45.475 45.475-45.475 25.075 0 45.475 20.4 45.475 45.475 0 8.159-2.16 15.823-5.938 22.45H24.013zM64 74c5.523 0 10-4.477 10-10a9.952 9.952 0 00-1.483-5.243l9.064-24.549a6 6 0 10-11.258-4.154l-8.973 24.3C57.113 55.517 54 59.395 54 64c0 5.523 4.477 10 10 10zM40 47a6 6 0 11-12 0 6 6 0 0112 0zM30 76a6 6 0 100-12 6 6 0 000 12zm74-6a6 6 0 11-12 0 6 6 0 0112 0zM52 38a6 6 0 100-12 6 6 0 000 12zm41 15a6 6 0 100-12 6 6 0 000 12z"/>
</svg>
