<svg viewBox="0 0 128 128" xmlns="http://www.w3.org/2000/svg">
  <path fill-rule="evenodd" clip-rule="evenodd" d="M86.756 69.333c13.554 0 24.614 10.683 25.218 24.09l.026 1.155v22.755H16V94.578c0-13.555 10.683-24.615 24.089-25.219l1.155-.026h45.512zM41.244 80c-7.752 0-14.092 6.052-14.55 13.69l-.027.888v12.089h74.666v-12.09c0-7.552-5.906-14.058-13.12-14.537l-.871-.028L41.244 80zM64 10.667c14.728 0 26.667 11.939 26.667 26.666C90.667 52.061 78.727 64 64 64c-14.728 0-26.667-11.94-26.667-26.667 0-14.727 11.94-26.666 26.667-26.666zm0 10.666c-8.837 0-16 7.164-16 16 0 8.837 7.163 16 16 16s16-7.163 16-16c0-8.836-7.163-16-16-16z"/>
</svg>
