<svg xmlns="http://www.w3.org/2000/svg" viewBox="0 0 592 159"><g clip-path="url(#hi-logo-white__a)"><g clip-path="url(#hi-logo-white__b)" fill="#fff"><path d="M245.029 25.459v46.657H234.4V53.698h-15.377v18.418h-10.63V25.46h10.63v18.685H234.4V25.46h10.629Zm42.259 15.102v31.555h-9.962v-3.59c-2.3 2.967-6.565 4.199-9.814 4.199-7.855 0-15.303-6.231-15.303-16.453 0-10.221 7.418-16.46 15.303-16.46 3.249 0 7.514 1.224 9.814 4.199v-3.45h9.962ZM258.233 29.05a4.914 4.914 0 0 1 5.081-4.74 4.78 4.78 0 0 1 4.583 2.902 4.777 4.777 0 0 1-4.583 6.645 4.937 4.937 0 0 1-4.656-2.923 4.937 4.937 0 0 1-.425-1.884Zm18.692 27.223a7.28 7.28 0 0 0-8.606-7.34 7.288 7.288 0 0 0-5.811 5.697 7.282 7.282 0 0 0 7.17 8.75 7.226 7.226 0 0 0 7.247-7.107ZM272.66 29.05a4.938 4.938 0 0 1 3.233-4.444 4.933 4.933 0 0 1 1.908-.296 4.783 4.783 0 0 1 3.498 1.33 4.774 4.774 0 0 1 0 6.887 4.77 4.77 0 0 1-3.498 1.33 4.952 4.952 0 0 1-4.706-2.912 4.943 4.943 0 0 1-.435-1.895m73.969 26.072v16.994h-10.051V55.931c0-4.873-2.433-6.364-5.006-6.364-3.049 0-5.349 1.624-5.423 6.675v15.911h-10.021V55.931c0-4.873-2.433-6.364-4.94-6.364-2.708 0-5.489 1.083-5.489 6.364v16.185h-10.022V40.561h10.022v5.801c.816-4.606 5.355-6.676 8.537-6.676 4.673 0 8.16 2.166 10.022 5.934 2.166-4.272 7.039-5.934 10.384-5.934 7.923 0 11.987 5.69 11.987 15.377m39.656 4.184h-23.092c.95 2.967 3.59 4.747 7.381 4.747a11.967 11.967 0 0 0 7.989-3.049l5.148 6.498c-3.116 3.39-8.531 5.282-13.886 5.282-9.955 0-17.061-6.676-17.061-16.32 0-10.295 7.989-16.66 17.061-16.66s16.66 6.298 16.66 15.919c0 .875-.067 2.032-.2 3.583Zm-9.822-5.89c-.066-3.115-2.841-5.148-6.431-5.148-3.048 0-5.889 1.357-6.906 5.148h13.337Zm48.052 5.89h-23.069c.95 2.967 3.591 4.747 7.418 4.747a11.98 11.98 0 0 0 7.989-3.049l5.148 6.498c-3.116 3.39-8.538 5.282-13.886 5.282-9.955 0-17.061-6.676-17.061-16.32 0-10.295 7.996-16.66 17.061-16.66 9.064 0 16.66 6.298 16.66 15.919 0 .875-.067 2.032-.208 3.583h-.052Zm-9.761-5.89c-.067-3.115-2.849-5.148-6.439-5.148-3.041 0-5.889 1.357-6.906 5.148h13.345Zm47.978 1.765v16.994h-10.029V56.272c0-4.88-2.967-6.676-5.482-6.676-2.715 0-6.097 1.424-6.097 6.676v15.844H431.11V40.561h10.021v5.616c1.083-4.451 6.098-6.431 9.072-6.431 8.397 0 12.529 5.689 12.529 15.376ZM206.027 98.026c0-3.323 2.841-5.83 6.231-5.83a5.89 5.89 0 0 1 6.09 5.83 5.94 5.94 0 0 1-3.797 5.427 5.929 5.929 0 0 1-2.293.396c-3.39 0-6.231-2.64-6.231-5.823Zm1.216 10.645h10.022v31.555h-10.022v-31.555Zm28.44-16.675h-10.021v48.215h10.021V91.996Zm59.319 31.221v16.994h-10.021v-16.185c0-4.874-2.44-6.365-5.014-6.365-3.042 0-5.348 1.625-5.415 6.639v15.911H264.53v-16.185c0-4.874-2.44-6.365-4.947-6.365-2.708 0-5.482 1.083-5.482 6.365v16.185H244.08v-31.54h10.021v5.823c.816-4.607 5.348-6.676 8.531-6.676 4.673 0 8.196 2.173 10.021 5.934 2.173-4.265 7.047-5.934 10.385-5.934 7.922 0 11.987 5.689 11.987 15.377m41.287-14.524v31.555h-9.955v-3.59c-2.307 2.967-6.572 4.198-9.821 4.198-7.855 0-15.303-6.223-15.303-16.452 0-10.229 7.418-16.453 15.303-16.453 3.249 0 7.514 1.217 9.821 4.199v-3.457h9.955Zm-10.385 15.711a7.28 7.28 0 0 0-4.385-6.854 7.286 7.286 0 0 0-8 1.485 7.285 7.285 0 0 0 5.138 12.482 7.226 7.226 0 0 0 7.247-7.113Zm16.994 5.4h9.48c0 1.557 1.149 3.39 3.998 3.39 2.099 0 3.857-.883 3.857-2.374 0-1.016-.742-1.484-3.115-2.033l-4.132-1.083c-9.28-2.507-9.547-7.788-9.547-10.429 0-4.673 5.282-9.413 12.937-9.413 5.934 0 13.203 2.782 13.07 10.704h-9.488c0-2.033-1.424-2.967-3.389-2.967-1.692 0-3.116.675-3.116 2.032 0 1.217 1.083 1.899 2.708 2.3l5.489 1.483c7.922 2.166 8.597 7.181 8.597 9.347 0 6.972-7.247 10.088-13.612 10.088-7.039 0-13.745-3.858-13.745-11.038m53.66-13.619h-6.639v24.041h-10.021V116.17h-5.756v-7.514h5.756V97.277h10.021v11.379h6.639v7.514Zm3.049 8.197c0-10.022 8.122-16.527 17.134-16.527 9.013 0 17.195 6.505 17.195 16.527 0 10.021-8.16 16.452-17.195 16.452-9.034 0-17.134-6.498-17.134-16.452Zm24.107 0c0-4.332-3.115-7.247-6.973-7.247-3.857 0-6.98 2.915-6.98 7.247a6.857 6.857 0 0 0 6.98 7.18c3.858 0 6.973-2.848 6.973-7.18Zm47.333-15.711-13.412 31.555h-8.73l-13.411-31.555h10.904l6.905 18.759 6.84-18.759h10.904Zm36.836.015v31.555h-9.947v-3.59c-2.3 2.967-6.565 4.198-9.814 4.198-7.855 0-15.31-6.223-15.31-16.452 0-10.229 7.418-16.453 15.31-16.453 3.249 0 7.514 1.217 9.814 4.199v-3.457h9.947Zm-10.385 15.711a7.275 7.275 0 0 0-14.404-1.622 7.282 7.282 0 0 0 3.095 7.515 7.282 7.282 0 0 0 4.07 1.22 7.227 7.227 0 0 0 7.239-7.113m50.404-1.165v16.994h-10.022v-15.844c0-4.874-2.967-6.676-5.481-6.676-2.708 0-6.098 1.424-6.098 6.676v15.844h-10.021V91.996h10.021v21.667c1.15-4.058 6.231-5.823 9.072-5.823 8.404 0 12.529 5.689 12.529 15.377m27.497-7.047h-6.639v24.041h-10.021V116.17h-5.756v-7.514h5.756V97.277h10.021v11.379h6.639v7.514Zm4.258-18.144c0-3.323 2.848-5.83 6.231-5.83a5.89 5.89 0 0 1 6.097 5.83 5.972 5.972 0 0 1-6.097 5.823c-3.383 0-6.231-2.64-6.231-5.823Zm1.224 10.645h10.021v31.555h-10.021v-31.555ZM79.14 49.33 57.457-.11a81.92 81.92 0 0 0-20.199 8.857l21.69 49.439 20.19-8.857Zm21.466 7.995 19.628-50.277a83.84 83.84 0 0 0-9.999-4.703A85.016 85.016 0 0 0 99.694-.978L80.067 49.33l20.539 7.996ZM58.31 58.853 8.012 39.233A81.594 81.594 0 0 0 0 59.774l50.3 19.62 8.01-20.54Zm22.995 50.293 21.69 49.431a80.974 80.974 0 0 0 20.191-8.857l-21.689-49.431-20.192 8.857Zm-31.25-28.707L.875 101.995a84.083 84.083 0 0 0 3.746 10.385 82.144 82.144 0 0 0 5.126 9.791l49.164-21.563-8.856-20.169Zm59.809-2.181 49.698-21.808a83.223 83.223 0 0 0-3.708-10.385 85.08 85.08 0 0 0-5.111-9.791l-49.699 21.808 8.82 20.176Zm-50.018 22.891-19.612 50.263a83.524 83.524 0 0 0 20.54 8.011l19.612-50.263-20.54-8.011Zm50.307-22.067-8.011 20.54 50.255 19.604a83.402 83.402 0 0 0 8.048-20.54l-50.292-19.604Z"/></g></g><defs><clipPath id="hi-logo-white__a"><path fill="#fff" d="M0 0h592v159H0z"/></clipPath><clipPath id="hi-logo-white__b"><path fill="#fff" transform="translate(0 -1)" d="M0 0h592v160.423H0z"/></clipPath></defs></svg>