<svg xmlns="http://www.w3.org/2000/svg" viewBox="0 0 256 256"><g clip-path="url(#icon__a)"><path d="M126.295 80.314 91.695 1.42A130.738 130.738 0 0 0 59.46 15.554l34.613 78.894 32.222-14.134Zm34.258 12.761 31.323-80.232a133.713 133.713 0 0 0-15.957-7.504A135.615 135.615 0 0 0 159.097.036l-31.322 80.278 32.778 12.76Zm-67.498 2.438-80.27-31.309A130.203 130.203 0 0 0 0 96.981l80.27 31.309 12.785-32.777Z" fill="#6FBB84"/><path d="m129.752 175.768 34.613 78.883a129.265 129.265 0 0 0 32.222-14.134l-34.613-78.882-32.222 14.133ZM79.88 129.959 1.397 164.358a134.2 134.2 0 0 0 5.978 16.571 131.018 131.018 0 0 0 8.18 15.625l78.46-34.41-14.135-32.185Z" fill="#062B3B"/><path d="m175.327 126.479 79.312-34.801a132.584 132.584 0 0 0-5.919-16.572 135.722 135.722 0 0 0-8.156-15.625l-79.312 34.801 14.075 32.197Z" fill="#6FBB84"/><path d="m95.506 163.008-31.299 80.208A133.23 133.23 0 0 0 96.986 256l31.298-80.208-32.778-12.784Zm80.283-35.215-12.785 32.777 80.2 31.285a133.043 133.043 0 0 0 12.843-32.777l-80.258-31.285Z" fill="#062B3B"/></g><defs><clipPath id="icon__a"><path fill="#fff" d="M0 0h256v256H0z"/></clipPath></defs></svg>