<svg xmlns="http://www.w3.org/2000/svg" viewBox="0 0 592 89">
  <g clip-path="url(#panorama-logo-color__clip0)">
    <path d="M44.47 51.01c14.79 0 28.79 4.56 40.42 12.72 0 0-.07.16.19-.41 2.57-5.63 4-11.88 4-18.47C89.08 20.21 69.1.23 44.46.23 19.82.23-.16 20.2-.16 44.85c0 6.75 1.51 13.15 4.19 18.88 11.65-8.16 25.65-12.72 40.44-12.72z" fill="#C2DFF4"/>
    <path d="M570.54 38.71l5.84 13.75h-11.73l5.89-13.75zM558.51 66.2l3.22-6.93h17.63l3.22 6.93h9.06L572 23.08h-2.86L549.38 66.2h9.13zm-63.32 0V42.6l12.17 15.02h.73l12.17-15.33v23.9h8.08V23.43l-2.19-.55-18.43 22.69-18.43-22.69-2.25.55v42.76h8.15v.01zm-50.28-27.49l5.84 13.75h-11.74l5.9-13.75zM432.87 66.2l3.22-6.93h17.64l3.22 6.93h9.06l-19.64-43.12h-2.86L423.75 66.2h9.12zm-52.73-35.52c8.7-1.34 12.84 1.77 12.84 6.33 0 4.99-3.89 8.33-12.84 7.42V30.68zm21.28 6.44c0-10.52-9.3-16.72-29.49-13.25v42.32h8.2V51.53c2.07.18 3.9.12 5.72-.06l9.01 14.72h9.97l-10.94-17.03c4.01-2 7.53-6.44 7.53-12.04zm-89.09 7.73c0-9.06 6.51-14.84 13.81-14.84 7.24 0 13.87 5.78 13.87 14.84 0 9.06-6.63 14.72-13.87 14.72-7.3 0-13.81-5.65-13.81-14.72zm-8.81 0c0 12.23 9.36 22.2 22.62 22.2 13.2 0 22.68-9.97 22.68-22.2 0-12.23-9.48-22.2-22.68-22.2-13.26.01-22.62 9.97-22.62 22.2zM272.26 23.5v25.36l-25.67-25.97-1.88.55V66.2h8.08V40.84l25.73 25.97 1.88-.61V23.44l-8.14.06zm-69.69 15.21l5.84 13.75h-11.74l5.9-13.75zM190.53 66.2l3.22-6.93h17.64l3.22 6.93h9.06l-19.64-43.12h-2.86L181.4 66.2h9.13zm-44.16-35.52c9.13-1.15 12.84 2.25 12.84 7.06 0 5.29-3.59 8.52-12.84 7.97V30.68zm21.29 7.12c0-10.7-9.24-17.45-29.49-13.92V66.2h8.2V52.94c13.94.61 21.29-5.23 21.29-15.14z" fill="#1E1E1E"/>
    <path d="M4.04 63.74c7.11 15.2 22.54 25.74 40.43 25.74s33.31-10.54 40.42-25.74c-11.64-8.17-25.63-12.72-40.42-12.72-14.79-.01-28.79 4.55-40.43 12.72z" fill="#60B748"/>
  </g>
  <defs>
    <clipPath id="panorama-logo-color__clip0">
      <path fill="#fff" d="M0 0h592v89H0z"/>
    </clipPath>
  </defs>
</svg>
