<svg xmlns="http://www.w3.org/2000/svg" viewBox="0 0 592 90">
  <g clip-path="url(#panorama-logo-white__clip0)" fill="#fff">
    <path d="M44.62 50.77a70.2 70.2 0 0140.42 12.72l.19-.41a44.62 44.62 0 10-81 .41 70.23 70.23 0 0140.39-12.72zm526.07-12.29l5.84 13.75H564.8l5.89-13.75zm-12 27.49l3.22-6.94h17.63l3.23 6.94h9.06l-19.68-43.12h-2.86l-19.76 43.12h9.16zm-63.32 0v-23.6l12.17 15h.73l12.17-15.33v23.93h8.08V23.21l-2.19-.55-18.43 22.69-18.45-22.69-2.25.55v42.76h8.17zm-50.28-27.49l5.83 13.75h-11.77l5.94-13.75zm-12 27.49l3.22-6.94h17.63l3.22 6.94h8.99L446.5 22.85h-2.85l-19.76 43.12h9.2zm-52.73-35.52c8.7-1.34 12.84 1.76 12.84 6.32 0 5-3.9 8.34-12.84 7.42V30.45zm21.28 6.44c0-10.51-9.3-16.72-29.49-13.25v42.33h8.21V51.31c1.904.161 3.82.141 5.72-.06l9 14.72h10l-10.94-17a13.657 13.657 0 007.53-12l-.03-.08zm-89.06 7.81c0-9.06 6.51-14.84 13.81-14.84 7.3 0 13.76 5.7 13.76 14.76 0 9.06-6.63 14.72-13.87 14.72-7.24 0-13.81-5.65-13.81-14.72l.11.08zm-8.92-.08c0 12.23 9.36 22.2 22.62 22.2 13.26 0 22.68-10 22.68-22.2s-9.48-22.19-22.68-22.19-22.62 10-22.62 22.19zm-31.25-21.35v25.36l-25.66-26-1.89.55v42.79h8.08V40.6l25.73 26 1.89-.61V23.21l-8.15.06zm-69.69 15.21l5.84 13.75h-11.74l5.9-13.75zm-12 27.49l3.22-6.94h17.64l3.22 6.94h9.06l-19.71-43.12h-2.86l-19.74 43.12h9.17zm-44.16-35.52c9.13-1.16 12.84 2.25 12.84 7 0 5.3-3.59 8.52-12.84 8v-15zm21.29 7.12c0-10.71-9.24-17.46-29.49-13.93v42.33h8.2V52.71c13.94.61 21.29-5.23 21.29-15.14"/>
    <path opacity=".7" d="M4.15 63.51a44.62 44.62 0 0080.85 0 70.57 70.57 0 00-80.85 0"/>
  </g>
  <defs>
    <clipPath id="panorama-logo-white__clip0">
      <path fill="#fff" d="M0 0h591.8v89.24H0z"/>
    </clipPath>
  </defs>
</svg>
