<svg viewBox="0 0 256 256" xmlns="http://www.w3.org/2000/svg">
  <g clip-path="url(#icon-actions__clip0)" fill="#0050B0">
    <path d="M128.035 181.252a2.478 2.478 0 01-.818-.142c-14.183-4.949-26.469-14.09-35.18-26.176-8.712-12.086-13.424-26.527-13.492-41.35.14-14.827 4.923-29.25 13.694-41.298 8.772-12.05 21.105-21.137 35.315-26.022a2.473 2.473 0 011.604 0c14.187 4.953 26.477 14.1 35.191 26.191 8.714 12.091 13.428 26.537 13.497 41.366-.155 14.826-4.949 29.244-13.729 41.286-8.779 12.042-21.117 21.123-35.328 26.003a2.332 2.332 0 01-.754.142zm.321-130.233c-13.08 4.671-24.399 13.168-32.441 24.352C87.872 86.556 83.49 99.894 83.356 113.6c.065 13.7 4.38 27.053 12.366 38.269 7.985 11.216 19.26 19.76 32.313 24.485 13.076-4.667 24.393-13.159 32.435-24.337 8.043-11.179 12.426-24.511 12.565-38.212-.072-13.702-4.389-27.056-12.373-38.276-7.985-11.22-19.256-19.77-32.306-24.51z"/>
    <path d="M128.035 177.318a2.45 2.45 0 01-.939-.168 2.405 2.405 0 01-.799-.515 2.353 2.353 0 01-.715-1.703l.32-126.393c.005-.626.26-1.225.711-1.666a2.423 2.423 0 011.695-.688c.638 0 1.25.25 1.701.694.451.444.705 1.047.705 1.676l-.321 126.377a2.338 2.338 0 01-.677 1.674 2.418 2.418 0 01-1.681.712z"/>
    <path d="M154.448 225c-.638 0-1.25-.25-1.701-.694a2.353 2.353 0 01-.704-1.676v-26.258c0-.629.253-1.231.704-1.676a2.426 2.426 0 011.701-.694h32.283a17.939 17.939 0 0012.614-5.036 17.409 17.409 0 005.315-12.343v-28.849c0-.629.254-1.232.705-1.676a2.421 2.421 0 011.701-.694h13.327l-22.26-37.397a2.442 2.442 0 01-.32-1.295v-3.16c.08-39.072-32.684-70.812-72.969-70.812s-73.033 31.74-73.033 70.764a68.832 68.832 0 005.533 27.113 69.697 69.697 0 0015.796 22.86 2.33 2.33 0 01.722 1.691v65.092h51.72v-45.154a2.369 2.369 0 01.709-1.671 2.436 2.436 0 012.619-.523c.293.119.559.293.783.514a2.336 2.336 0 01.7 1.68v47.524c0 .629-.254 1.231-.705 1.676a2.426 2.426 0 01-1.701.694h-56.53c-.638 0-1.25-.25-1.701-.694a2.353 2.353 0 01-.705-1.676v-66.483a74.33 74.33 0 01-16.34-24.16A73.442 73.442 0 0147 103.504C47 61.874 81.929 28 124.844 28c42.915 0 77.86 33.873 77.86 75.504v2.718l24.055 40.351a2.351 2.351 0 01-.002 2.374 2.402 2.402 0 01-.879.872c-.366.21-.781.322-1.203.324h-15.123v26.496c-.043 5.902-2.461 11.547-6.725 15.694-4.264 4.148-10.024 6.458-16.016 6.425h-29.893v23.888a2.339 2.339 0 01-.733 1.688 2.427 2.427 0 01-1.737.666z"/>
    <path d="M128.035 111.925a2.408 2.408 0 01-1.603-.584l-36.71-31.74a2.352 2.352 0 01-.2-3.357 2.41 2.41 0 011.663-.795 2.436 2.436 0 011.745.596l36.693 31.725a2.344 2.344 0 01-.225 3.742 2.42 2.42 0 01-1.379.413h.016zm-.224 42.263a2.361 2.361 0 01-1.604-.585l-46.748-40.129a2.37 2.37 0 01-.216-3.374 2.45 2.45 0 013.424-.213l46.731 40.146a2.354 2.354 0 01.696 2.547 2.364 2.364 0 01-.471.802 2.36 2.36 0 01-.816.599c-.313.139-.653.21-.996.207z"/>
    <path d="M128.356 111.925a2.366 2.366 0 01-1.796-.806 2.33 2.33 0 01.208-3.333l36.372-31.74a2.439 2.439 0 013.408.197c.426.471.643 1.09.606 1.72a2.368 2.368 0 01-.806 1.637l-36.404 31.725a2.347 2.347 0 01-1.588.6zm0 42.263a2.436 2.436 0 01-1.379-.413 2.376 2.376 0 01-.891-1.114 2.337 2.337 0 01-.086-1.417c.12-.47.382-.893.752-1.211l47.101-40.146a2.446 2.446 0 011.757-.592 2.447 2.447 0 011.667.805 2.38 2.38 0 01.601 1.731 2.397 2.397 0 01-.817 1.643l-47.133 40.129c-.433.38-.993.588-1.572.585z"/>
  </g>
  <defs>
    <clipPath id="icon-actions__clip0">
      <path fill="#fff" transform="translate(47 28)" d="M0 0h180v197H0z"/>
    </clipPath>
  </defs>
</svg>
