<svg viewBox="0 0 256 256" xmlns="http://www.w3.org/2000/svg">
  <path d="M110.888 171.653h-1.749a2.295 2.295 0 01-1.977-1.141 2.27 2.27 0 010-2.281l17.169-29.699H97.354a2.268 2.268 0 01-2.038-1.262 2.295 2.295 0 01.213-2.387l25.669-34.414a2.281 2.281 0 011.825-.927h25.669a2.281 2.281 0 011.84 3.634l-10.796 14.675h30.626a2.278 2.278 0 012.211 1.477 2.279 2.279 0 01-.69 2.568l-59.535 49.225a2.33 2.33 0 01-1.46.532v0zm-8.987-37.683h26.384a2.286 2.286 0 011.977 1.141 2.343 2.343 0 010 2.281l-14.401 24.893 48.175-39.872h-28.893a2.28 2.28 0 01-1.825-3.634l10.782-14.675h-19.936l-22.263 29.866zm-52.859 10.948a2.294 2.294 0 01-2.22-2.037l-.228-2.236a84.824 84.824 0 0177.114-91.88 2.25 2.25 0 012.463 2.069 2.281 2.281 0 01-2.068 2.463A80.292 80.292 0 0051.11 140.25c0 .715.137 1.414.213 2.129a2.282 2.282 0 01-1.977 2.524l-.304.015zm81.874 73.16a84.252 84.252 0 01-68.187-34.58 2.29 2.29 0 01-.418-1.698 2.29 2.29 0 01.904-1.496 2.282 2.282 0 011.698-.418 2.276 2.276 0 011.496.905 80.325 80.325 0 00109.839 18.826 2.278 2.278 0 012.535-.023 2.276 2.276 0 01.992 2.334 2.284 2.284 0 01-.957 1.461 84.894 84.894 0 01-40.329 14.324 74.53 74.53 0 01-7.573.365zm74.118-45.863a2.359 2.359 0 01-1.004-.228 2.28 2.28 0 01-1.034-3.041 80.298 80.298 0 004.018-61.706 80.288 80.288 0 00-41.031-46.263 2.277 2.277 0 01-1.388-2.2 2.285 2.285 0 012.487-2.17c.308.027.606.118.877.264a84.873 84.873 0 0143.339 48.87 84.864 84.864 0 01-4.211 65.182 2.293 2.293 0 01-2.053 1.292v0z" fill="#0050B0" stroke="#0050B0"/>
  <path d="M109.505 70.846c-17.625 0-21.564-6.752-21.944-7.604a2.22 2.22 0 01-.258-1.034c0-9.124 5.718-21.137 21.822-24.559 20.514-4.288 36.846 7.376 37.545 7.877a2.294 2.294 0 01.441 3.27c-.745.897-17.807 22.05-37.606 22.05zM91.88 61.57c1.08 1.17 5.307 4.714 17.625 4.714 14.34 0 27.737-13.306 32.299-18.4-4.775-2.784-17.305-8.76-31.737-5.703-16.119 3.437-17.99 15.526-18.187 19.389v0zm104.577 131.493a2.27 2.27 0 01-.943-.198 2.31 2.31 0 01-1.216-1.323c-.381-1.079-9.277-26.764 1.201-43.567 9.322-14.949 17.123-14.721 17.99-14.645.36.035.708.15 1.018.335 7.786 4.866 14.903 16.028 9.292 31.509-7.132 19.662-25.7 27.372-26.49 27.722a2.08 2.08 0 01-.852.167v0zm16.226-55.125c-1.521.274-6.798 2.007-13.322 12.455-7.603 12.165-3.391 30.596-1.52 37.18 4.942-2.615 16.636-10.097 21.67-23.966 5.626-15.48-3.65-23.449-6.828-25.669zM77.707 208.134c-6.66 0-14.127-2.767-20.605-10.447-13.504-16.013-10.95-35.949-10.843-36.801a2.34 2.34 0 01.928-1.52 2.308 2.308 0 011.749-.396c1.125.213 27.843 5.308 37.18 22.811 8.303 15.541 4.213 22.202 3.71 22.901a2.19 2.19 0 01-.79.7 24.143 24.143 0 01-11.329 2.752v0zm-27.144-44.115c-.183 5.581.456 19.434 9.975 30.718 10.645 12.591 22.172 8.546 25.654 6.889.548-1.521 1.658-6.889-4.151-17.762-6.706-12.606-24.772-18.187-31.478-19.845z" fill="#0050B0" stroke="#0050B0"/>
</svg>
