<svg width="425" height="110" viewBox="0 0 425 110" fill="none" xmlns="http://www.w3.org/2000/svg">
<g clip-path="url(#clip0)">
<path d="M199 99C199 68.6 199 38.1 199 7.39998C201.4 7.39998 203.5 7.39998 206.1 7.39998C206.1 21.2 206.1 35 206.1 49.1C233.9 49.1 261.1 49.1 289.1 49.1C289.1 35.3 289.1 21.4 289.1 7.29998C291.9 7.29998 294.1 7.29998 296.5 7.29998C296.5 38.9 296.5 70.3 296.5 102.4C294.4 102.5 292.2 102.6 289.5 102.7C289.5 86.8 289.5 71.4 289.5 55.5C261.6 55.5 234.2 55.5 206.2 55.5C206.2 71 206.2 86.6 206.2 102.7C201.4 102.7 197.3 103 193.2 102.5C191.8 102.4 190.1 100.7 189.4 99.3C185.1 91.6 181 83.8 177.1 75.9C175.7 73 174 71.8 170.6 71.8C153.4 72 136.3 72 119.1 71.8C115.4 71.7 113.8 73.2 112.3 76.2C108.3 84.1 104.2 91.9 99.9 99.6C99.1 101 97 102.6 95.5 102.6C65.3 102.8 35.2 102.7 4.99999 102.7C4.39999 102.7 3.69999 102.4 2.79999 102.3C2.79999 70.8 2.79999 39.3 2.79999 7.49998C7.99999 7.49998 13.2 7.49998 19 7.49998C19 37.1 19 66.7 19 96.9C21.4 96.9 23.1 96.9 24.9 96.9C45.2 96.9 65.6 96.9 85.9 97C87.7 97 89.5 97.7 92.2 98.3C96.5 90.2 101.4 81 106.3 71.8C117.1 51.5 127.9 31.3 138.5 10.9C139.9 8.09998 141.6 7.19998 144.6 7.09998C147.7 7.09998 149.3 8.09998 150.7 10.8C165.5 38.9 180.4 67 195.3 95.1C196.1 96.5 196.9 97.9 197.6 99.4C198.3 99.2 198.7 99.1 199 99ZM171.9 66.1C162.7 48.8 154 32.2 144.9 14.9C135.7 32.5 126.9 49.1 117.9 66.1C136.1 66.1 153.6 66.1 171.9 66.1Z" fill="white"/>
<path d="M422.9 102.5C417 102.5 411.6 102.5 406 102.5C406 70.8 406 39.4 406 7.59998C411.5 7.59998 417 7.59998 422.9 7.59998C422.9 39 422.9 70.5 422.9 102.5Z" fill="white"/>
<path d="M353.8 102.6C350.9 102.6 348.9 102.6 346.4 102.6C346.4 72.9 346.4 43.4 346.4 13.3C331.5 13.3 317.1 13.3 302.4 13.3C302.4 11 302.4 9.29996 302.4 7.39996C333.9 7.39996 365.4 7.39996 397.2 7.39996C397.2 9.09996 397.2 10.7 397.2 13C382.9 13 368.7 13 353.8 13C353.8 42.9 353.8 72.5 353.8 102.6Z" fill="white"/>
</g>
<defs>
<clipPath id="clip0">
<rect width="419.9" height="95.9" fill="white" transform="translate(3 7)"/>
</clipPath>
</defs>
</svg>
