<svg fill="none" xmlns="http://www.w3.org/2000/svg" viewBox="0 0 180 271">
  <g clip-path="url(#lahti-green-capital-2021__clip0)" fill="#fff">
    <path d="M145.735 153.613l2.225-6.631-5.784-4.199h7.119l2.225-6.852 2.225 6.852h7.343l-6.008 4.199 2.225 6.631-5.785-3.979-5.785 3.979zm16.91 9.725h-10.68l8.678 6.189-3.338 9.946 8.678-6.189 8.677 6.189-3.337-9.946 8.677-6.189h-10.68l-3.337-10.167-3.338 10.167zm1.113-28.954l1.557-4.421-3.782-2.873h4.672l1.335-4.421 1.558 4.421h4.672l-3.782 2.873 1.557 4.421-4.005-2.874-3.782 2.874zm12.46-54.373c-6.453 4.2-29.37 17.682-59.852 22.103-30.927 4.42-52.287 6.189-81.879 24.092C3.337 145.214 0 166.874 0 175.715c0 1.106.222 2.874.222 2.874 38.27-29.176 60.52-12.82 102.349-26.744 54.957-18.124 70.754-61.888 73.647-71.834zM48.95 113.386a154.719 154.719 0 00-16.688 8.841c-6.675 3.979-12.237 8.399-16.91 12.599V95.704L32.04 72.496l16.91 23.208v17.682z"/>
    <path d="M146.848 89.515c-8.677 3.316-19.135 6.189-30.482 7.957V76.917l15.352-15.472 15.352 15.472-.222 12.598zm-34.487 8.62c-6.675.884-12.682 1.769-18.69 2.653V64.76h18.69v33.375zm-22.695 3.316c-6.675 1.105-13.35 2.431-20.025 4.42V81.337h20.025v20.114zm-24.029 5.525c-4.228 1.327-8.455 2.874-12.905 4.642v-32.27l6.452-34.038 6.453 34.038v27.628zM.445 205.112v-21.44H13.35v1.989H2.67v7.073h9.79l-.668 2.211H2.447s.223.663.223 1.105v7.072h10.68v1.99H.445zm28.702.663c-4.895 0-8.232-2.652-8.232-9.283v-12.599h2.225v12.599c0 5.083 2.002 7.073 6.007 7.073 3.782 0 6.008-1.99 6.008-7.073v-12.599h2.224v12.599c-.222 6.631-3.56 9.283-8.232 9.283zm28.035-.663l-4.895-7.736c-.223-.221-.223-.884-.223-1.105h-4.227v9.062h-2.225v-21.44h6.452c5.118 0 7.343 2.653 7.343 6.189 0 3.094-1.558 5.305-5.118 5.968l5.785 9.062h-2.892zm-5.118-19.229h-4.227v8.178h4.227c3.115 0 4.895-.885 4.895-3.979.223-3.094-1.78-4.199-4.895-4.199zm22.917 19.892c-6.897 0-8.454-4.642-8.454-11.494 0-5.967 1.557-10.83 8.454-10.83 6.675 0 8.455 4.863 8.455 10.83 0 6.631-1.557 11.494-8.455 11.494zm0-20.335c-4.894 0-6.23 3.316-6.23 8.841 0 6.189 1.335 9.284 6.23 9.284 4.895 0 6.23-3.095 6.23-9.284 0-5.746-1.335-8.841-6.23-8.841zm23.14 11.715h-4.45c0 .221.223.663.223 1.105v7.073h-2.225v-21.44h6.675c5.117 0 7.342 3.095 7.342 6.631-.222 3.536-2.225 6.631-7.565 6.631zm0-11.272h-4.45v9.283h4.45c3.115 0 5.118-1.327 5.118-4.642 0-3.094-2.003-4.641-5.118-4.641zm15.352 19.229v-21.44h13.128v1.989h-10.903v7.073h9.79l-.667 2.211h-9.345s.222.663.222 1.105v7.072h10.903v1.99h-13.128zm35.377 0l-2.447-6.631h-8.455l-2.447 6.631h-2.225l7.565-21.44h2.67l7.564 21.44h-2.225zm-5.784-16.798c-.223-.442-.445-1.326-.668-2.21-.222.663-.445 1.768-.667 2.21l-2.893 8.178h6.897l-2.669-8.178zm30.037 16.798l-12.238-17.682c0 .221.223.663.223 1.326v16.577h-2.225v-21.44h2.002l12.238 17.682c-.223-.442-.223-.663-.223-1.105v-16.577h2.225v21.44h-2.002v-.221zM6.452 229.424c-4.45 0-6.23-2.21-6.23-6.63 0-3.979 1.558-6.631 6.23-6.631 3.338 0 5.118 1.989 5.118 4.42H8.677c-.222-1.105-.667-1.989-2.225-1.989-2.225 0-2.892.884-2.892 3.979 0 3.094.667 3.978 2.892 3.978.668 0 1.558-.221 2.003-.663v-1.768h-1.78l-.668-2.431h5.785v5.304c-1.557 1.768-3.115 2.431-5.34 2.431zm17.133-.22l-2.67-4.2-.223-.442h-.667v4.642H16.91v-12.599h4.672c3.56 0 5.118 1.547 5.118 3.979 0 1.768-.89 2.873-2.448 3.536l3.338 5.084h-4.005zm-2.225-10.168h-1.335v3.095h1.557c1.558 0 1.78-.663 1.78-1.547 0-.885-.445-1.548-2.002-1.548zm10.457 10.168v-12.599h9.122v2.652h-6.007v2.211h5.562l-.89 2.652h-4.672v2.652h6.007v2.432h-9.122zm14.017 0v-12.599h9.345v2.652h-6.007v2.211h5.34l-.668 2.652H48.95l.223.221v2.431h6.007v2.432h-9.345zm22.695 0l-5.562-7.294c0 .221.222.442.222.663v6.631h-3.115v-12.599h2.67l5.563 7.294c0-.221-.223-.442-.223-.884v-6.631H71.2v12.598h-2.67v.222zm20.915.22c-4.895 0-5.785-3.315-5.785-6.63 0-3.758 1.335-6.631 5.785-6.631 3.56 0 5.117 1.768 5.117 4.641H91.67c-.223-1.326-.89-1.989-2.225-1.989-2.003 0-2.448 1.105-2.448 3.979 0 2.652.445 3.978 2.448 3.978 1.335 0 2.225-.442 2.892-1.989l2.448 1.326c-.89 1.989-2.225 3.315-5.34 3.315zm18.022-.22l-.89-2.432h-4.227l-.89 2.432h-3.115l4.895-12.599h2.892l4.895 12.599h-3.56zm-3.115-7.736l-.222-.442-.223.442-.89 2.652h2.225l-.89-2.652zm15.352 3.757h-1.78l.223.442v3.758h-3.115v-12.82h4.672c3.338 0 5.118 1.547 5.118 4.2 0 2.652-1.558 4.42-5.118 4.42zm0-6.189h-1.557v3.537h1.557c1.335 0 2.003-.442 2.003-1.768 0-1.327-.668-1.769-2.003-1.769zm13.128-2.431h-3.115v12.599h3.115v-12.599zm11.57 2.652v9.947h-3.338v-9.947h-3.56v-2.652h10.457v2.652h-3.559zm14.907 9.947l-.89-2.432h-4.228l-.89 2.432h-3.115l4.895-12.599h2.893l4.895 12.599h-3.56zm-2.893-7.736l-.222-.442-.223.442-1.112 2.652h2.225l-.668-2.652zm10.68 7.736v-12.599h3.115v9.946h5.118v2.653h-8.233z"/>
    <path d="M52.732 79.348l6.452-34.038 6.453 34.038m91.001 159.36s5.34 8.399 6.452 9.946c.89 1.547 2.003 2.873 6.008 3.536 4.005.884 5.785 1.326 5.785 1.326v.221s-2.448-.442-5.785-1.326c-3.338-.663-4.673-.884-6.008-3.094-1.335-1.768-6.23-8.841-6.23-8.841v-1.768h-.222zm0 9.725s4.895 5.083 6.23 6.63c1.557 1.548 3.337 2.211 6.007 2.653 2.448.442 5.785.884 5.785.884v.221s-3.115-.442-5.785-.884-4.672-.663-6.007-2.211c-1.335-1.326-6.23-5.746-6.23-5.746v-1.547z"/>
    <path d="M156.638 250.643s4.672 4.2 6.23 5.747c1.557 1.326 2.67 1.768 6.007 2.431 3.338.663 5.785.884 5.785.884v.221s-3.115-.442-5.785-.884-4.45-.663-6.007-1.989c-1.78-1.547-6.23-5.084-6.23-5.084v-1.326z"/>
    <path d="M156.638 253.295s5.34 4.2 6.23 4.863c.89.663 2.225 1.547 6.007 2.21 3.783.442 5.785.884 5.785.884v.221s-3.337-.442-5.785-.884c-2.225-.221-4.005-.442-6.007-1.768-2.003-1.326-6.23-4.421-6.23-4.421v-1.105z"/>
    <path d="M156.638 255.506s5.34 3.536 6.23 3.978c1.112.663 2.225 1.547 6.007 1.989 3.783.442 5.785.663 5.785.663v.221s-3.115-.442-5.785-.663c-2.447-.221-4.227-.663-6.007-1.547-1.78-1.105-6.23-3.536-6.23-3.536v-1.105z"/>
    <path d="M156.638 257.937s4.672 2.652 6.23 3.315c1.78.884 3.337 1.326 6.007 1.547 2.67.221 5.785.663 5.785.663v.222s-2.67-.222-5.785-.664c-2.892-.221-4.005-.442-6.007-1.326-2.003-.884-6.23-2.873-6.23-2.873v-.884z"/>
    <path d="M156.638 260.368s3.782 1.547 6.23 2.652c2.67 1.106 4.45 1.106 6.007 1.327.668 0 5.785.663 5.785.663v.221l-5.785-.442c-2.67-.221-4.005-.442-6.007-1.106-2.225-.663-6.23-2.21-6.23-2.21v-1.105z"/>
    <path d="M156.638 262.799s3.782 1.106 6.23 1.769c2.67.663 4.895.884 6.007 1.105 1.113 0 5.785.442 5.785.442v.221s-2.67-.221-5.785-.442c-2.447-.221-4.672-.442-6.007-.663-1.558-.442-6.23-1.547-6.23-1.547v-.885zm0 2.211s3.115.442 6.23 1.105c2.447.442 5.785.663 6.007.663.445 0 5.785.442 5.785.442v.221s-3.337-.221-5.785-.221c-2.447-.221-4.672-.221-6.007-.442-3.115-.221-6.23-.663-6.23-.663v-1.105zm0 2.652s4.895.221 6.23.221c1.557 0 11.792.442 11.792.442v.221h-18.022v-.884zm12.237-13.924c-4.45-.885-5.34-2.432-6.007-3.537-.668-.884-6.23-9.062-6.23-9.062v1.768c.222.221 4.895 6.41 6.23 8.178 1.557 1.989 3.782 2.431 6.007 2.874 2.225.442 5.785 1.105 5.785 1.105v-.221s-4.45-.884-5.785-1.105z"/>
    <path d="M168.875 255.063c-3.56-.663-5.117-1.768-6.007-3.094-1.113-1.326-6.23-8.178-6.23-8.178v1.768c.222.221 4.895 5.968 6.23 7.294 1.557 1.768 3.56 2.21 6.007 2.652 2.448.442 5.785 1.106 5.785 1.106v-.221c0-.221-3.56-.885-5.785-1.327z"/>
    <path d="M168.875 256.39c-3.782-.663-4.45-1.327-6.007-3.095-.89-1.105-6.008-7.073-6.23-7.294v1.548s4.672 5.083 6.23 6.63c2.002 1.99 3.782 2.211 6.007 2.432 2.225.442 5.785 1.105 5.785 1.105v-.221c0-.221-4.227-.884-5.785-1.105zm-36.267-9.062c-.445 0-18.467 2.431-18.467 2.431v-1.105l16.91-1.768c.445 0 1.112 0 1.557-.221.668 0 1.335-.221 2.003-.442 1.335-.443 2.67-.885 3.782-1.548 1.113-.663 2.225-1.768 3.338-2.873.89-.884 1.557-1.768 2.224-3.094v.442c-.667.884-1.334 1.989-2.002 2.652-1.112 1.326-2.002 2.431-3.337 3.094-1.113.884-2.448 1.327-4.005 1.769-.668.442-1.335.442-2.003.663z"/>
    <path d="M131.051 249.317c.445 0 .89 0 1.335-.221.89 0 1.557-.221 2.002-.442 1.558-.442 2.893-.884 4.005-1.547 1.113-.663 2.225-1.769 3.338-2.874.667-.663 1.557-1.768 2.224-2.873v-.442c-.89 1.105-1.557 2.21-2.447 2.873-1.112 1.105-2.225 1.989-3.337 2.652-1.113.664-2.448 1.106-3.783 1.327-.667.221-1.335.221-2.002.221-.445 0-.89 0-1.335.221h-.668c-5.562.442-10.902 1.105-16.02 1.547v1.105c5.118-.663 10.68-1.326 16.243-1.989-.223.442.222.442.445.442zm-102.794 9.062l-.445-1.989h-2.447l-1.113 1.989H23.14l3.56-6.852h1.112l1.558 6.852h-1.113zm-1.112-5.084v-.442.442l-1.335 2.211h1.78l-.445-2.211zm8.009 1.99l-.445 3.094h-.89l.445-3.094v-.442c0-.664-.222-.885-.667-.885-.445 0-.89.221-1.112.221l-.445.221-.445 3.758h-.89l.667-5.084h.89v.442c.667-.442.89-.663 1.78-.663s1.557.442 1.557 1.547l-.444.885zm4.228 3.094h-.89l.668-5.084h.89l-.668 5.084zm1.112-6.189h-1.112l.222-.884h1.113l-.223.884zm5.118 3.095l-.445 3.094h-.89l.445-3.094v-.442c0-.664-.223-.885-.668-.885-.445 0-.89.221-1.112.221l-.445.221-.445 3.758h-.89l.667-5.084h.445v.442c.668-.442.89-.663 1.78-.663s1.558.442 1.558 1.547v.885zm1.78 3.094h-.89l.667-5.084h.89l-.667 5.084zm1.112-6.189h-1.112l.222-.884h1.113l-.223.884zm3.783 1.989h-1.558l-.445 2.874v.221c0 .221.223.442.445.442.223 0 .668-.221.89-.442l.445.663c-.445.442-1.112.442-1.78.442-.667 0-1.112-.442-1.112-1.105v-.221l.445-2.432.222-.221h-.89l.223-.884h.89l.222-1.768 1.113-.221-.223 1.989h1.78l-.667.663zm1.78 4.2h-.89l.667-5.084h.89l-.667 5.084zm.89-6.189h-1.113l.223-.884h1.112l-.222.884zm5.117 2.652l-.445 3.758h-.89v-.442c-.445.442-1.112.442-1.557.442-1.113 0-1.558-.663-1.558-1.326v-.221c.223-1.326 1.113-1.547 2.225-1.547.445 0 .89 0 1.335.221v-.885c0-.442-.222-.442-.89-.442-.667 0-1.112.221-1.335.663l-.667-.442c.445-.663 1.335-.884 2.225-.884 1.335 0 1.78.663 1.78 1.326l-.223-.221zm-2.447 1.106c-.668 0-1.335.221-1.335 1.105 0 .442.222.663.667.663.668 0 1.113-.221 1.558-.442l.222-1.105c-.445 0-.667-.221-1.112-.221zm6.675-1.769h-1.558l-.445 2.874v.221c0 .221.223.442.445.442.223 0 .668-.221.89-.442l.445.663c-.445.442-1.112.442-1.78.442-.667 0-1.112-.442-1.112-1.105v-.221l.445-2.432.222-.221h-.89l.223-.884h.89l.222-1.768 1.113-.221-.223 1.989h1.78l-.667.663zm1.78 4.2h-.89l.667-5.084h.89l-.667 5.084zm.89-6.189h-1.113l.223-.884h1.112l-.222.884zm2.892 6.189h-.89l-1.112-5.084h1.112l.667 3.316v.663c0-.221.223-.442.223-.663l1.78-3.316h1.112l-2.892 5.084zm7.565-2.431v.221h-3.56v.442c0 .663.222 1.105 1.112 1.105.668 0 1.113-.221 1.558-.663l.89.221c-.445.884-1.335 1.326-2.448 1.326-1.334 0-2.002-.663-2.002-1.989v-.663c.222-1.548.89-2.653 2.892-2.653 1.558 0 1.78 1.105 1.78 1.99-.222.221-.222.442-.222.663zm-2.002-1.769c-.89 0-1.336.221-1.558 1.327h2.447v-.221c0-.664-.222-1.106-.89-1.106zm10.012 1.769c-.223 1.768-.89 2.652-2.67 2.652-1.335 0-2.003-.884-2.003-1.989v-.663c.223-1.769.89-2.653 2.67-2.653 1.335 0 2.003.884 2.003 1.99.222.221 0 .442 0 .663zm-2.003-1.769c-.89 0-1.335.442-1.557 1.769v.663c0 .884.445 1.105 1.112 1.105.89 0 1.335-.442 1.558-1.768v-.663c0-.885-.445-1.106-1.113-1.106zm6.898-1.989c-.445-.221-.668-.221-1.113-.221-.445 0-.89.221-.89.884v.442h1.558l-.223.884h-1.335l-.89 5.747H86.33l.89-5.305.222-.442h-.89l.223-.884h.667v-.442c.223-1.326 1.113-1.768 2.225-1.768h.668l.445.221-.445.884zm5.785 1.989H94.56l-.445 2.874v.221c0 .221.223.442.445.442.223 0 .668-.221.89-.442l.445.663c-.445.442-1.112.442-1.78.442-.667 0-1.112-.442-1.112-1.105v-.221l.445-2.432.222-.221h-.89l.223-.884h.89l.222-1.768 1.113-.221-.223 1.989h1.78l-.667.663zm5.562 1.106l-.445 3.094h-.89l.445-3.094v-.442c0-.664-.222-.885-.667-.885-.668 0-1.113.221-1.558.663l-.445 3.758h-.89l1.113-7.294h.89l-.223 2.431-.222.442c.667-.442.89-.663 1.78-.663s1.557.442 1.557 1.548l-.445.442zm5.785.663v.221h-3.56v.442c0 .663.223 1.105 1.113 1.105.667 0 1.112-.221 1.557-.663l.89.221c-.445.884-1.335 1.326-2.447 1.326-1.335 0-2.003-.663-2.003-1.989v-.663c.223-1.548.89-2.653 2.893-2.653 1.557 0 1.78 1.105 1.78 1.99-.223.221-.223.442-.223.663zm-2.002-1.769c-.89 0-1.335.221-1.558 1.327h2.448v-.221c.222-.664-.223-1.106-.89-1.106zm-91.892 8.62h-3.337l-.445 1.769h3.115l-.223.884H9.567l.223.221-.445 1.989h3.56l-.223.884h-4.45l1.113-6.631h4.45l-.223.884zm4.673 5.747h-.89v-.442c-.668.442-1.113.663-1.78.663-.89 0-1.558-.442-1.558-1.547v-.442l.445-3.316h1.113l-.445 3.095v.442c0 .663.222.884.667.884.668 0 1.113-.221 1.558-.663l.445-3.758h1.112l-.667 5.084zm4.672-4.199h-.445c-.222 0-.667 0-.89.221l-.445.221-.445 3.757H19.58l.667-5.084h.89v.443c.445-.443.668-.664 1.335-.664h.445v1.106zm4.895 1.768c-.222 1.768-.89 2.652-2.67 2.652-1.335 0-2.002-.884-2.002-1.989v-.663c.222-1.768.89-2.653 2.67-2.653 1.335 0 2.002.885 2.002 1.99v.663zm-2.002-1.99c-.89 0-1.335.443-1.558 1.769v.663c0 .884.445 1.105 1.113 1.105.89 0 1.335-.442 1.557-1.768v-.663c0-.663-.445-1.106-1.112-1.106zm7.787 1.769c-.223 1.768-1.113 2.652-2.892 2.652-.445 0-.89-.221-1.113-.221l-.445 2.431h-.89l1.113-7.294h.667l.223.443c.667-.443 1.112-.664 1.557-.664 1.335 0 2.002.885 2.002 1.99l-.222.663zm-2.002-1.768c-.445 0-.668.221-1.335.442l-.445 2.873c.445.221.667.442 1.112.442.89 0 1.557-.663 1.78-1.989v-.663c0-.663-.445-1.105-1.112-1.105zm7.565 1.989v.221H35.6v.442c0 .663.222 1.105 1.112 1.105.667 0 1.112-.221 1.557-.663l.89.221c-.444.884-1.334 1.326-2.447 1.326-1.335 0-2.003-.663-2.003-1.989v-.663c.223-1.547.89-2.653 2.893-2.653 1.558 0 1.78 1.106 1.78 1.99-.222.221-.222.442-.222.663zm-2.003-1.99c-.89 0-1.335.222-1.557 1.327h2.447v-.221c.223-.663-.222-1.106-.89-1.106zm7.343.885l-.446 3.757h-.89v-.442c-.445.442-1.112.442-1.557.442-.89 0-1.558-.663-1.558-1.326v-.221c.223-1.326 1.113-1.547 2.225-1.547.445 0 .89 0 1.335.221v-.884c0-.442-.222-.442-.89-.442-.667 0-1.112.221-1.335.663l-.667-.442c.445-.663 1.335-.884 2.225-.884 1.335 0 1.78.663 1.78 1.326l-.223-.221zm-2.448 1.105c-.668 0-1.335.221-1.335 1.105 0 .442.222.663.667.663.668 0 1.113-.221 1.558-.442l.222-1.105c-.222-.221-.667-.221-1.112-.221zm8.01-.663l-.445 3.094h-.89l.445-3.094v-.442c0-.663-.223-.884-.668-.884-.445 0-.89.221-1.112.221l-.445.221-.445 3.757h-.89l.667-5.083h.89v.442c.668-.442.89-.663 1.78-.663s1.558.442 1.558 1.547l-.445.884zm9.122-1.768h-.89c0-.664-.222-1.106-1.335-1.106-1.557 0-2.002 1.106-2.225 2.653v1.105c0 .884.223 1.547 1.558 1.547.667 0 1.335-.221 1.78-1.105l.667.442c-.445.884-1.112 1.547-2.67 1.547-1.78 0-2.447-1.105-2.447-2.652v-.884c.222-2.211 1.112-3.537 3.337-3.537 1.558 0 2.225.884 2.225 1.99zm5.34 2.431c-.222 1.768-.89 2.652-2.67 2.652-1.335 0-2.002-.884-2.002-1.989v-.663c.222-1.768.89-2.653 2.67-2.653 1.335 0 2.002.885 2.002 1.99v.663zm-2.002-1.99c-.89 0-1.335.443-1.558 1.769v.663c0 .884.445 1.105 1.113 1.105.89 0 1.335-.442 1.557-1.768v-.663c0-.663-.445-1.106-1.112-1.106zm10.235 1.327l-.446 3.094h-.89l.445-3.094v-.442c0-.442-.222-.663-.445-.663-.667 0-1.112.221-1.557.663v.442l-.445 3.315h-1.112l.444-3.315v-.442c0-.442-.222-.663-.445-.663-.444 0-.89.221-1.557.663l-.445 3.757h-.89l.668-5.084h.667v.442c.445-.221 1.113-.663 1.558-.663.667 0 1.112.221 1.334.663.668-.442.89-.663 1.78-.663s1.335.442 1.335 1.548c.223 0 0 .221 0 .442zm8.454 0l-.445 3.094h-.89l.445-3.094v-.442c0-.442-.222-.663-.445-.663-.667 0-1.112.221-1.557.663v.442l-.445 3.315H76.76l.445-3.315v-.442c0-.442-.222-.663-.445-.663-.445 0-.89.221-1.557.663l-.445 3.757h-.89l.668-5.084h.89v.442c.444-.221 1.112-.663 1.557-.663.667 0 1.112.221 1.335.663.667-.442.89-.663 1.78-.663s1.335.442 1.335 1.548c-.223 0-.223.221-.223.442zm1.78 3.094h-.89l.668-5.084h.89l-.668 5.084zm1.113-6.189H82.99l.223-.884h1.112l-.222.884zm4.005 2.432c-.223-.221-.445-.442-1.113-.442-.445 0-1.112.221-1.112.884 0 .221 0 .442.445.442l1.112.221c.668.221 1.113.663 1.113 1.326 0 1.326-1.113 1.768-2.448 1.768-.89 0-1.557-.442-1.78-1.105l.89-.221c.223.442.445.663 1.113.663.667 0 1.335-.221 1.335-.884 0-.221-.223-.442-.445-.442l-1.113-.221c-.667 0-1.112-.442-1.112-1.105 0-1.326 1.112-1.768 2.225-1.768.89 0 1.557.221 1.78.884h-.89zm4.895 0c-.223-.221-.445-.442-1.113-.442-.445 0-1.112.221-1.112.884 0 .221 0 .442.445.442l1.112.221c.668.221 1.113.663 1.113 1.326 0 1.326-1.113 1.768-2.448 1.768-.89 0-1.557-.442-1.78-1.105l.89-.221c.223.442.445.663 1.113.663.667 0 1.335-.221 1.335-.884 0-.221-.223-.442-.445-.442L91 266.778c-.667 0-1.112-.442-1.112-1.105 0-1.326 1.112-1.768 2.225-1.768.89 0 1.557.221 1.78.884h-.89zm2.67 3.757h-.89l.667-5.084h.89l-.667 5.084zm.89-6.189H95.45l.223-.884h1.112l-.222.884zm5.117 3.758c-.222 1.768-.89 2.652-2.67 2.652-1.335 0-2.002-.884-2.002-1.989v-.663c.222-1.768.89-2.653 2.67-2.653 1.335 0 2.002.885 2.002 1.99.223.221.223.442 0 .663zm-2.002-1.99c-.89 0-1.335.443-1.558 1.769v.663c0 .884.445 1.105 1.113 1.105.89 0 1.335-.442 1.557-1.768v-.663c0-.663-.222-1.106-1.112-1.106zm7.787 1.327l-.445 3.094h-.89l.445-3.094v-.442c0-.663-.222-.884-.667-.884-.445 0-.89.221-1.113.221l-.445.221-.445 3.757h-.89l.668-5.083h.89v.442c.667-.442.89-.663 1.78-.663s1.557.442 1.557 1.547l-.445.884zm-7.12-242.023V0h-4.227v23.429h4.227zM89.666 3.757V0H72.09v3.757h6.675V23.65h4.45V3.757h6.452zM65.636 23.43V0H61.41v9.283H51.174V0h-4.45v23.429h4.45V13.04H61.41v10.61h4.228v-.221zm-32.484-9.504H27.59l2.447-7.073c.223-.663.445-1.326.445-1.768 0 .442.223 1.326.445 1.768l2.225 7.073zm7.787 9.504L32.484 0h-4.45l-8.232 23.429h4.45l2.003-5.968h8.232l2.002 5.968h4.45zm-26.477 0v-3.98H5.117V0H.89v23.429h13.572zm121.929 11.492c.445 0 .89-.221.667-.663 0-.221-.222-.442-.222-.663-1.335.442-2.67 1.105-3.56 1.768-.89.884-1.558 1.99-2.225 3.316-.445-1.769-1.113-2.653-2.225-2.653-.668 0-1.113.221-1.78.884-.223.221-.89.884-1.78 1.99-.668.663-.89 1.105-.89 1.326 0 0 .222-.221.445-.221l1.78-1.769c.89-.884 1.557-1.326 2.002-1.326.668 0 1.113.663 1.113 2.21v3.095c0 .663.445 1.105.89 1.326.222 0 .445-.663.667-2.21.223-1.547.668-2.873 1.113-3.537 1.78-1.989 3.115-2.873 4.005-2.873zm-14.018 5.526c.445 0 .668 0 1.113.22.667.443 1.112 1.106 1.112 1.99 0 .884-.667 1.326-2.002 1.547h-2.003c-.667 0-1.112-.22-1.112-.663V43.1c0-1.326.667-2.21 1.557-2.431.668-.221 1.113-.221 1.335-.221zm4.005 6.852h-.445c-.222 0-.667.22-.89.663-.445.663-1.335.884-2.002 1.105-.89 0-1.78-.221-2.225-1.105-.445-.663-.89-1.548-.89-2.432.667 0 1.335 0 2.002-.22 2.67-.222 4.228-.664 4.228-1.548 0-.22.222-.663 0-.884 0-.221 0-.442-.223-.884-.667-1.768-1.78-2.652-3.337-2.652-.668 0-1.335.22-2.225.663-1.335.884-2.003 2.21-2.225 4.42h-.668c-.667 0-1.112.221-.89.884 0 .221.668.442 1.78.221.223 1.326.668 2.432 1.335 3.316.89.663 1.78 1.105 2.893 1.105 1.335 0 2.447-.663 3.337-1.768l.445-.884zm-9.79 2.652c.445 0 .668-.221 1.113-.442.89-.663 1.335-1.326 1.78-2.431 0-.222.222-.443.222-.664v-.22c-.222 0-.445.22-.89.883-.667 1.106-1.557 1.769-2.225 1.769-.667 0-1.335-.663-1.78-1.769-.89-2.43-1.557-5.525-1.78-9.062 0-.884-.222-1.547-.222-1.989-.223-.663-.668-1.105-1.335-1.105h-.668c-.89.442-1.78 1.547-2.447 3.094 0-.22 0-.884.222-1.768.223-.663.223-1.326.223-2.21l-.668-.663c-.222 0-.667 1.99-1.334 5.746-.668 4.2-1.113 6.41-1.335 7.073 0 .221.222.221.667.442h.445c.668-1.547 1.335-3.978 2.002-7.293.445-1.106.89-1.769 1.558-2.21l.445-.222c.445 0 .667.221 1.112.884.223.221.223 1.105.445 2.21l.89 4.863c.445 1.99.89 3.316 1.78 4.2.668.884 1.335 1.105 1.78.884zm-11.792.884c.445 0 .668-.221 1.113-.442.89-.663 1.335-1.326 1.78-2.431 0-.221.222-.443.222-.663v-.221c-.222 0-.445.22-.89.884-.667 1.105-1.557 1.768-2.225 1.768-.667 0-1.335-.663-1.78-1.768-.89-2.432-1.557-5.526-1.78-9.063 0-.884-.222-1.547-.222-1.989-.223-.663-.668-1.105-1.335-1.105h-.668c-.89.442-1.78 1.547-2.447 3.095 0-.222 0-.885.222-1.769.223-.663.223-1.326.223-2.21l-.668-.663c-.222 0-.667 1.99-1.335 5.747-.667 4.2-1.112 6.41-1.335 7.072 0 .221.223.221.668.442h.445c.667-1.547 1.335-3.978 2.002-7.293.445-1.105.89-1.768 1.558-2.21l.445-.222c.445 0 .667.221 1.112.884.223.221.223 1.106.445 2.21l.89 4.863c.445 1.99.89 3.316 1.78 4.2.668.663 1.335.884 1.78.884zm-12.682-6.189c-.223-2.431-.445-3.757-.445-3.978-.223-.442-.445-.663-1.113-.884 0 1.547.223 2.652.223 3.315v5.084c0 .442 0 .663.222.442v-.442c.445 0 .89 0 1.113-.221.222-1.548.222-2.653 0-3.316zm0-8.84v-.443l-.223-.442c-.445 0-.667-.221-.89-.221-.667 0-1.112.221-1.112.663 0 .663.222 1.105.445 1.326 0 0 .222.221.667.221h.445c.445-.663.668-.884.668-1.105zm-3.783 4.199c0-.885-.222-1.547-.222-2.432-.223-1.547-.445-2.43-.668-2.43-.222 0-.445.883-.667 2.43v1.99c0 3.757-.89 6.41-2.448 8.178-1.335 1.326-2.447 2.21-3.337 2.21-.445 0-.89 0-1.335-.442-1.113-.663-2.225-1.99-3.115-3.537l-.89-.884c-.223-.442-.445-.663-.89-.442-.445 0-.668.442-1.112 1.105-.668 1.326-1.113 2.432-1.336 3.537-.222.884-.445 1.547-1.112 2.431-.668.884-1.112 1.547-1.78 1.547-.445 0-.668-.22-.89-1.105 0-.442 0-1.105.222-2.21.445-1.99 1.113-4.2 2.003-6.631-.223-.221-.668-.221-1.113-.221-.445 0-.667 0-1.112.221l-1.112 3.536c-.668 1.99-.89 3.537-.668 4.863.223 2.21 1.113 3.094 2.892 2.873.223 0 .668 0 .89-.22 1.335-.885 2.448-2.432 3.115-4.642.445-1.768.89-2.653 1.113-2.653l.222.221c2.003 3.316 4.005 4.863 6.008 4.642.667 0 1.335-.221 2.002-.442 4.005-2.652 5.785-6.41 5.34-11.493zm85.217-9.946c0-2.21 0-3.316-.223-3.537l-.222-.442c-.223-.221-.445-.221-.445-.221h-.668c-.222.442-.667 1.105-1.335 1.99-.445.883-.89 1.546-1.335 1.988-.222.221-.222.663-.222.663v.443h.222l.445.22c.223 0 .668-.22 1.335-.884.445-.442.668-.884.89-1.547h.445c.223 3.316.223 7.957.445 13.925.223.221.445.663.668.663h.445c.445-1.105.445-3.757.222-8.178v-.221c-.445-1.547-.667-3.315-.667-4.862zm-4.45 11.05c-.89-.883-1.558-1.325-2.225-1.325h-1.335c-.445 0-.89.22-1.558.442l-1.335.442c.223-.663.445-.884.668-1.326 2.67-4.863 3.782-8.4 3.56-10.61 0-.663-.223-1.326-.668-1.768l-1.557.442c-.445 0-1.113.442-1.558 1.105-.445.221-1.112.663-1.78 1.547l-1.78 1.769v.663l.223.22h1.112c.223-.441 1.113-1.104 2.225-2.21 1.113-1.105 1.78-1.768 2.003-1.768h.667c0 2.21-.89 4.863-2.67 7.957-.667 1.326-1.335 2.21-1.557 2.874-.668 1.326-1.113 2.21-1.113 2.873v.22c.223.222.445.443.668.443h.89c.222 0 .445-.221.667-.221 1.78-.884 2.893-1.547 3.115-1.547h1.558l.445.22c.222.222.445.222.667.222h.223l.445-.663zm-11.125-8.84c0 1.547-.223 3.315-.89 5.525-.668 2.21-1.558 3.758-2.448 4.863h-1.112c-.668-.884-.89-1.768-1.113-2.652 0-1.327 0-2.874.445-4.42.223-.664.668-1.99 1.558-4.2.222-.221.222-.442.445-.442l.445-.442c.445-.221.667-.221 1.112-.221h.668l.445.442c.222.22.445.663.445 1.547zm1.112.442c0-.884-.222-1.547-.445-1.99-.222-.663-.445-1.105-.89-1.547-.445-.22-.89-.22-1.557-.22-.445 0-.668 0-1.113.22-1.112.663-2.225 2.21-3.115 4.642-.667 1.99-1.112 3.978-.89 5.526 0 .884.223 1.547.223 1.989.222.442.445 1.105.89 1.768l.445.442c.445.221.89.221.89.221 2.002-.221 3.56-2.652 4.45-7.515.222-1.326.445-2.21.445-2.652.667-.663.667-.884.667-.884zm-8.232 9.504c-.668-.884-1.335-1.326-2.003-1.326h-1.335c-.445 0-.89.22-1.557.442l-1.113.663c.223-.663.445-.884.668-1.326 2.67-4.863 3.782-8.4 3.56-10.61 0-.663-.223-1.326-.668-1.768l-1.78.221c-.445 0-1.112.442-1.557 1.105-.445.221-1.112.663-1.78 1.548l-1.78 1.768v.663l.223.22h1.112c.223-.441 1.113-1.104 2.225-2.21 1.112-1.105 1.78-1.768 2.002-1.768h.668c0 2.21-.89 4.863-2.67 7.957-.668 1.326-1.335 2.21-1.557 2.874-.668 1.326-1.113 2.21-1.113 2.873v.221c.223.221.445.442.668.442h.89c.222 0 .445-.22.667-.22 1.78-.885 2.892-1.548 3.115-1.548h1.557l.445.22c.223.222.445.222.668.222h.222l.223-.663z"/>
    <path d="M141.508 251.085c1.113-.884 2.447-2.21 2.447-2.21v-.442c-.889.884-1.557 1.547-2.669 2.21-.223.221-.445.221-.89.442h-2.225c1.112-.442 2.225-1.326 3.337-2.21.89-.663 1.558-1.547 2.447-2.432v-.442c-.889 1.106-1.779 1.769-2.669 2.653-1.113.884-2.003 1.547-3.338 2.21-.445.221-.89.221-1.335.442h-6.23l1.558-.221c.667 0 1.557-.221 2.002-.221 1.558-.221 2.893-.663 4.005-1.326 1.113-.663 2.448-1.547 3.56-2.653.668-.663 1.558-1.547 2.225-2.652v-.442c-.89 1.105-1.78 1.989-2.67 2.873-1.112 1.106-2.225 1.769-3.337 2.432-1.113.442-2.448.884-3.783 1.105-.667 0-1.335.221-2.002.221l-18.023 1.547v1.105l12.46-1.326v.884l-12.46.884v1.105l12.46-1.105v.884c-1.557 0-3.337.221-4.895.221l-7.565.442v1.106l7.565-.664c1.558-.221 3.115-.221 4.895-.442v.885c-4.005.221-8.01.442-12.46.663v1.105c4.228-.221 8.233-.663 12.46-.884v.884c-4.005.221-8.232.442-12.46.442v1.105c4.228-.221 8.233-.663 12.46-.884v.884l-12.46.442v1.105l12.46-.663v.884l-12.46.221v1.105l12.46-.442v.884h-12.46v1.105c4.005-.221 8.233-.221 12.46-.442v.885h-12.46v1.105l7.12-.221c1.78 0 3.56 0 5.34-.221v.884c-4.005 0-8.232-.221-12.46-.221v1.105h12.46v.884l-12.46-.221v1.105h38.492v-17.461h-10.902zm-5.117 3.315l.222-.884.223.884h.89l-.668.442.223.885-.668-.443-.667.443.222-.885-.667-.442h.89zm-2.225 2.211l.222-.884.223.884h1.112l-.667.442.222.884-.667-.442-.668.442.223-.884-.668-.442h.668zm-1.558 2.652h.89l.223-.884.222.884h.89l-.667.442.222.884-.667-.442-.668.442.223-.884-.668-.442zm2.003 3.978l-.668.442.223-.884-.668-.442h.89l.223-.884.222.884h.89l-.667.442.222.884-.667-.442zm2.67 2.653l-.668-.442-.667.442.222-.884-.667-.442h.89l.222-.885.223.885h.89l-.668.442.223.884zm7.342-10.167l.222.884h.89l-.667.442.222.884-.667-.442-.668.442.223-.884-.667-.442h.889l.223-.884zm-2.447-1.327l.222-.884.223.884h.89l-.668.442.223.885-.668-.443-.667.443.222-.885-.667-.442h.89zm-2.893-.884l.223-.884.222.884h.89l-.667.663.222.884-.667-.663-.668.663.223-.884-.668-.663h.89zm1.113 13.041l-.668-.442-.667.442.222-.884-.667-.442h.89l.222-.884.223.884h.89l-.668.442.223.884zm2.892-.663l-.89-.663-.667.442.222-.884-.667-.442h.89l.222-.885.223.885h.89l-.668.442.445 1.105zm2.002-2.211l-.667-.442-.668.442.223-.884-.667-.442h.889l.223-.884.222.884h.89l-.667.442.222.884zm.89-2.873l-.667-.442-.89.442.222-.884-.667-.442h.89l.222-.884.223.884h.89l-.668.442.445.884z"/>
  </g>
  <defs>
    <clipPath id="lahti-green-capital-2021__clip0">
      <path fill="#fff" d="M0 0h180v270.756H0z"/>
    </clipPath>
  </defs>
</svg>
