<svg width="425" height="125" viewBox="0 0 425 125" fill="none" xmlns="http://www.w3.org/2000/svg">
<g clip-path="url(#clip0)">
<path d="M0 110.216H87.8413V104.902H16.1585V15H0V110.216Z" fill="white"/>
<path d="M145.426 21.9405L172.971 74.2115H117.881L145.426 21.9405ZM90.9862 110.216H99.0112L115.17 79.5254H175.791L191.949 110.216H199.974L149.439 15H141.414L90.9862 110.216Z" fill="white"/>
<path d="M203.228 110.216H210.277V62.7162H293.997V110.216H301.046V15H293.997V57.4024H210.277V15H203.228V110.216Z" fill="white"/>
<path d="M306.577 20.3139H350.714V110.216H357.655V20.3139H401.793V15H306.577V20.3139Z" fill="white"/>
<path d="M425 15H407.866V110.216H425V15Z" fill="white"/>
</g>
<defs>
<clipPath id="clip0">
<rect width="425" height="95.2156" fill="white" transform="translate(0 15)"/>
</clipPath>
</defs>
</svg>
