<svg viewBox="0 0 425 125" xmlns="http://www.w3.org/2000/svg">
  <g clip-path="url(#lahti-logo-white__clip0)" fill="#fff">
    <path d="M0 110.216h87.841v-5.314H16.16V15H0v95.216zM145.426 21.94l27.545 52.272h-55.09l27.545-52.272zm-54.44 88.276h8.025l16.159-30.69h60.621l16.158 30.69h8.025L149.439 15h-8.025l-50.428 95.216zm112.242 0h7.049v-47.5h83.72v47.5h7.049V15h-7.049v42.402h-83.72V15h-7.049v95.216zm103.349-89.902h44.137v89.902h6.941V20.314h44.138V15h-95.216v5.314zM425 15h-17.134v95.216H425V15z"/>
  </g>
  <defs>
    <clipPath id="lahti-logo-white__clip0">
      <path fill="#fff" transform="translate(0 15)" d="M0 0h425v95.216H0z"/>
    </clipPath>
  </defs>
</svg>
