<svg data-name="Layer 1" xmlns="http://www.w3.org/2000/svg" viewBox="0 0 512 512" width="512" height="512"><path d="M380.71 128.69a51.41 51.41 0 0152 52v124.7c0 30.1-21.86 51.95-52 51.95h-20.79a92.12 92.12 0 00-52 15.89 92.1 92.1 0 00-52-15.89H131.29c-30.1 0-52-21.85-52-51.95V180.65a51.41 51.41 0 0152-52h249.42m0-31.18H131.29c-46.52 0-83.13 36.62-83.13 83.14v124.7c0 47.1 35.81 83.12 83.13 83.12H256a61.1 61.1 0 0143.41 17.91l8.55 8.53 8.55-8.52a61.08 61.08 0 0143.41-17.92h20.79c47.32 0 83.13-36 83.13-83.12V180.65c0-46.52-36.61-83.14-83.13-83.14z"/><path d="M135.45 185.84h241.1v31.18h-241.1zm0 83.13h241.1v31.18h-241.1z"/></svg>