<svg viewBox="0 0 129 128" xmlns="http://www.w3.org/2000/svg">
  <g clip-path="url(#home__clip0)">
    <path fill-rule="evenodd" clip-rule="evenodd" d="M64 21.333L122.667 80l-8 8-8-8v42.667H21.333V80l-8 8-8-8L64 21.333zm0 16l-32 32V112l15.995-.005L48 74.667h32l-.005 37.328L96 112V69.333l-32-32zm5.333 48H58.667l-.006 26.662h10.667l.005-26.662zm37.334-80c0 4.806-1.263 7.501-4.445 11.324l-.518.613c-2.436 2.842-3.037 4.01-3.037 6.73 0 2.55.528 3.736 2.601 6.216l.436.514c3.385 3.95 4.817 6.603 4.952 11.195l.011.742h-8c0-2.55-.528-3.736-2.602-6.216l-.435-.514c-3.564-4.158-4.963-6.879-4.963-11.937 0-4.805 1.262-7.5 4.444-11.323l.519-.614c2.284-2.664 2.954-3.857 3.03-6.237l.007-.493h8z"/>
  </g>
  <defs>
    <clipPath id="home__clip0">
      <path fill="#fff" transform="translate(.25)" d="M0 0h128v128H0z"/>
    </clipPath>
  </defs>
</svg>
