<svg viewBox="0 0 128 128" xmlns="http://www.w3.org/2000/svg">
  <path fill-rule="evenodd" clip-rule="evenodd" d="M61.274 34.24l11.062-10.96A24.4 24.4 0 0189.056 16a22.09 22.09 0 0116.384 6.453 22.167 22.167 0 016.554 16.38 24.346 24.346 0 01-6.693 16.122l-.581.597-18.304 18.304a24.4 24.4 0 01-16.72 7.275 22.093 22.093 0 01-16.379-6.454l1.067-1.04c1.882-1.856 5.317-5.296 6.586-6.613 4.48 4.587 12.587 4.523 17.6-.01l.464-.438 18.102-18.4c5.066-5.067 5.269-13.242.448-18.064-4.48-4.586-12.587-4.522-17.6.01l-.464.438-10.96 10.96-7.286-7.28zM22.87 72.65l17.664-17.573c8.987-9.087 23.584-9.173 32.565-.186l-3.024 3.072c-1.829 1.83-3.786 3.776-4.362 4.32-4.694-4.694-12.395-4.795-17.318-.33l-.453.426-17.675 17.675c-4.89 4.89-4.938 12.933-.1 17.77 4.692 4.694 12.394 4.79 17.322.33l.453-.426 10.58-10.688 7.307 7.408-10.587 10.582a23.362 23.362 0 01-16.32 6.842 22.845 22.845 0 01-16.245-6.656c-8.81-8.715-8.901-22.922-.33-32.037l.517-.534.005.006z"/>
</svg>
