<svg width="512" height="512" viewBox="0 0 512 512" fill="none" xmlns="http://www.w3.org/2000/svg"><path d="M115.364 465C81.541 465 54 437.432 54 403.577V165.526c0-33.855 27.541-61.423 61.364-61.423h24.159V48h34.788v56.103h168.146V48h34.789v56.103h20.294c33.822 0 61.363 27.568 61.46 61.423v238.051C459 437.432 431.459 465 397.636 465H115.364zm-26.575-61.52c0 14.703 11.886 26.601 26.575 26.601H397.54c14.688 0 26.575-11.898 26.575-26.601V238.073H88.789V403.48zm26.575-264.554c-14.689 0-26.575 11.897-26.575 26.6v37.725H424.21v-37.725c0-14.703-11.886-26.6-26.575-26.6H115.364z"/><path d="M128 278h38.719v38.809H128V278zm72.792.485h38.72v38.809h-38.72v-38.809zm72.696 0h38.72v38.809h-38.72v-38.809zm72.793 0H385v38.809h-38.719v-38.809zM128 352.706h38.719v38.809H128v-38.809zm72.792.485h38.72V392h-38.72v-38.809zm72.696 0h38.72V392h-38.72v-38.809z"/></svg>