<svg width="512" height="512" viewBox="0 0 512 512" fill="none" xmlns="http://www.w3.org/2000/svg"><path d="M259.3 41.76c-120.53 0-218.23 97.7-218.23 218.24s97.7 218.23 218.23 218.23c120.53 0 218.23-97.71 218.23-218.23S379.83 41.76 259.3 41.76zm16.37 145.59c21.333-.36 42.617-1.397 63.85-3.11a236.108 236.108 0 0111.6 59.38h-75.45v-56.27zm0-32.77V85.47a243.798 243.798 0 0150.53 66.95 938.292 938.292 0 01-50.53 2.16zm-32.74-69.11v69.11a967.15 967.15 0 01-50.53-2.16 243.798 243.798 0 0150.53-66.95zm0 101.88v56.27h-75.45a236.569 236.569 0 0111.6-59.38 985.48 985.48 0 0063.85 3.11zm-108.24 56.27H74.63a183.77 183.77 0 0120.58-69.87 979.925 979.925 0 0050.6 7.19 268.932 268.932 0 00-11.12 62.68zm0 32.74a269.572 269.572 0 0011.07 62.69 965.185 965.185 0 00-50.52 7.18 183.882 183.882 0 01-20.58-69.87h60.03zm32.82 0h75.45v56.27a999.445 999.445 0 00-63.85 3.1 236.467 236.467 0 01-11.63-59.37h.03zm75.45 89v69.12a243.942 243.942 0 01-50.53-66.95 965.055 965.055 0 0150.5-2.14l.03-.03zm32.74 69.12v-69.09a989.58 989.58 0 0150.53 2.17 243.773 243.773 0 01-50.56 66.95l.03-.03zm0-101.88v-56.24h75.45a235.979 235.979 0 01-11.6 59.37 992.101 992.101 0 00-63.88-3.1l.03-.03zm108.25-56.27H444a183.988 183.988 0 01-20.57 69.87c-16.8-2.8-33.677-5.2-50.63-7.2a269.465 269.465 0 0011.12-62.64l.03-.03zm0-32.74A269.38 269.38 0 00372.74 181a975.218 975.218 0 0050.65-7.2A183.763 183.763 0 01444 243.62l-60.05-.03zm19.81-99.81a932.225 932.225 0 01-42.68 5.52 272.219 272.219 0 00-41-64.41 186.085 186.085 0 0183.62 58.92l.06-.03zM198.52 84.93a272.413 272.413 0 00-41 64.39 956.209 956.209 0 01-42.57-5.51 186 186 0 0183.57-58.88zM114.9 376.17a933.793 933.793 0 0142.57-5.51A272.184 272.184 0 00198.28 435a185.996 185.996 0 01-83.38-58.83zM320.1 435a272.353 272.353 0 0041-64.38 957.105 957.105 0 0142.56 5.51A185.997 185.997 0 01320.1 435z"/></svg>