<svg width="512" height="512" viewBox="0 0 512 512" fill="none" xmlns="http://www.w3.org/2000/svg"><path d="M256 76.76a66.619 66.619 0 0147.108 113.727 66.626 66.626 0 01-72.602 14.442 66.61 66.61 0 01-29.898-24.537 66.614 66.614 0 01-11.228-37.012A66.691 66.691 0 01256 76.76zm0-32a98.6 98.6 0 1098.59 98.6A98.591 98.591 0 00256 44.78v-.02zm85.27 255.83a64 64 0 0164 64v63.95H106.78v-63.99a64 64 0 0164-64h170.49v.04zm0-32.04H170.74a95.938 95.938 0 00-95.94 96v95.92h362.4v-95.93a95.933 95.933 0 00-95.93-95.93v-.06z"/></svg>