<svg xmlns="http://www.w3.org/2000/svg" viewBox="0 0 300 300"><defs><style>.b{fill:#292721}</style></defs><circle cx="151.5" cy="151.5" r="137.5" fill="#d8f3a7"/><path class="b" d="M206.34 152A54.34 54.34 0 10152 206.34 54.4 54.4 0 00206.34 152zm-100.49 0A46.15 46.15 0 11152 198.15 46.21 46.21 0 01105.85 152z"/><path class="b" d="M225.66 152a73.79 73.79 0 00-53.2-70.76v-7h4.09a4.1 4.1 0 100-8.19h-4.09v-8.17a4.09 4.09 0 00-8.18 0v8.18h-24.56v-8.18a4.09 4.09 0 00-8.18 0v8.18h-4.09a4.1 4.1 0 100 8.19h4.09v7a73.66 73.66 0 000 141.52v7h-4.09a4.1 4.1 0 100 8.19h4.09v8.18a4.09 4.09 0 008.18 0v-8.18h24.56v8.18a4.09 4.09 0 008.18 0v-8.18h4.09a4.1 4.1 0 100-8.19h-4.09v-7a73.79 73.79 0 0053.2-70.77zm-85.94-77.75h24.56v5.12a73.89 73.89 0 00-24.56 0zM86.52 152A65.48 65.48 0 11152 217.48 65.56 65.56 0 0186.52 152zm77.76 77.75h-24.56v-5.12a73.89 73.89 0 0024.56 0z"/><path class="b" d="M164.28 156.09a12.28 12.28 0 00-8.19-11.57v-8.89a4.09 4.09 0 00-8.18 0v8.89a12.28 12.28 0 1016.37 11.57zm-16.37 0a4.09 4.09 0 114.09 4.09 4.09 4.09 0 01-4.09-4.09zM152 123.35a4.09 4.09 0 004.09-4.09v-4.09a4.09 4.09 0 00-8.18 0v4.09a4.09 4.09 0 004.09 4.09zM156.09 188.83v-4.09a4.09 4.09 0 00-8.18 0v4.09a4.09 4.09 0 108.18 0zM178.05 131.74l2.89-2.89a4.09 4.09 0 10-5.78-5.79l-2.9 2.9a4.09 4.09 0 005.79 5.78zM126 172.26l-2.9 2.89a4.09 4.09 0 105.79 5.79l2.89-2.9a4.09 4.09 0 10-5.78-5.78zM180.65 152a4.09 4.09 0 004.09 4.09h4.09a4.09 4.09 0 000-8.18h-4.09a4.09 4.09 0 00-4.09 4.09zM123.36 152a4.1 4.1 0 00-4.1-4.09h-4.09a4.09 4.09 0 000 8.18h4.09a4.1 4.1 0 004.1-4.09zM175.15 180.94a4.09 4.09 0 105.78-5.79l-2.93-2.89a4.09 4.09 0 10-5.79 5.78zM128.86 123.06a4.09 4.09 0 00-5.79 5.79l2.9 2.89a4.09 4.09 0 105.78-5.78z"/></svg>