<svg xmlns="http://www.w3.org/2000/svg" viewBox="0 0 300 300"><defs><style>.a{fill:#d8f3a7;}.b{fill:#292721;}</style></defs><title>icon-indicators</title><circle class="a" cx="151.5" cy="151.5" r="137.5"/><path class="b" d="M206.34,152A54.34,54.34,0,1,0,152,206.34,54.4,54.4,0,0,0,206.34,152Zm-100.49,0A46.15,46.15,0,1,1,152,198.15,46.21,46.21,0,0,1,105.85,152Z"/><path class="b" d="M225.66,152a73.79,73.79,0,0,0-53.2-70.76v-7h4.09a4.1,4.1,0,1,0,0-8.19h-4.09V57.88a4.09,4.09,0,0,0-8.18,0v8.18H139.72V57.88a4.09,4.09,0,0,0-8.18,0v8.18h-4.09a4.1,4.1,0,1,0,0,8.19h4.09v7a73.66,73.66,0,0,0,0,141.52v7h-4.09a4.1,4.1,0,1,0,0,8.19h4.09v8.18a4.09,4.09,0,0,0,8.18,0v-8.18h24.56v8.18a4.09,4.09,0,0,0,8.18,0v-8.18h4.09a4.1,4.1,0,1,0,0-8.19h-4.09v-7A73.79,73.79,0,0,0,225.66,152ZM139.72,74.25h24.56v5.12a73.89,73.89,0,0,0-24.56,0ZM86.52,152A65.48,65.48,0,1,1,152,217.48,65.56,65.56,0,0,1,86.52,152Zm77.76,77.75H139.72v-5.12a73.89,73.89,0,0,0,24.56,0Z"/><path class="b" d="M164.28,156.09a12.28,12.28,0,0,0-8.19-11.57v-8.89a4.09,4.09,0,0,0-8.18,0v8.89a12.28,12.28,0,1,0,16.37,11.57Zm-16.37,0a4.09,4.09,0,1,1,4.09,4.09A4.09,4.09,0,0,1,147.91,156.09Z"/><path class="b" d="M152,123.35a4.09,4.09,0,0,0,4.09-4.09v-4.09a4.09,4.09,0,0,0-8.18,0v4.09A4.09,4.09,0,0,0,152,123.35Z"/><path class="b" d="M156.09,188.83v-4.09a4.09,4.09,0,0,0-8.18,0v4.09a4.09,4.09,0,1,0,8.18,0Z"/><path class="b" d="M178.05,131.74l2.89-2.89a4.09,4.09,0,1,0-5.78-5.79l-2.9,2.9a4.09,4.09,0,0,0,5.79,5.78Z"/><path class="b" d="M126,172.26l-2.9,2.89a4.09,4.09,0,1,0,5.79,5.79l2.89-2.9a4.09,4.09,0,1,0-5.78-5.78Z"/><path class="b" d="M180.65,152a4.09,4.09,0,0,0,4.09,4.09h4.09a4.09,4.09,0,0,0,0-8.18h-4.09A4.09,4.09,0,0,0,180.65,152Z"/><path class="b" d="M123.36,152a4.1,4.1,0,0,0-4.1-4.09h-4.09a4.09,4.09,0,0,0,0,8.18h4.09A4.1,4.1,0,0,0,123.36,152Z"/><path class="b" d="M175.15,180.94a4.09,4.09,0,1,0,5.78-5.79L178,172.26a4.09,4.09,0,1,0-5.79,5.78Z"/><path class="b" d="M128.86,123.06a4.09,4.09,0,0,0-5.79,5.79l2.9,2.89a4.09,4.09,0,1,0,5.78-5.78Z"/></svg>