<svg xmlns="http://www.w3.org/2000/svg" viewBox="0 0 300 300"><defs><style>.a{fill:#d8e5e8;}.b{fill:#514ca4;}</style></defs><title>icon-indicators</title><circle class="a" cx="151.5" cy="151.5" r="137.5"/><path class="b" d="M204.34,150A54.34,54.34,0,1,0,150,204.34,54.4,54.4,0,0,0,204.34,150Zm-100.49,0A46.15,46.15,0,1,1,150,196.15,46.21,46.21,0,0,1,103.85,150Z"/><path class="b" d="M223.66,150a73.79,73.79,0,0,0-53.2-70.76v-7h4.09a4.1,4.1,0,1,0,0-8.19h-4.09V55.88a4.09,4.09,0,0,0-8.18,0v8.18H137.72V55.88a4.09,4.09,0,0,0-8.18,0v8.18h-4.09a4.1,4.1,0,1,0,0,8.19h4.09v7a73.66,73.66,0,0,0,0,141.52v7h-4.09a4.1,4.1,0,1,0,0,8.19h4.09v8.18a4.09,4.09,0,0,0,8.18,0v-8.18h24.56v8.18a4.09,4.09,0,0,0,8.18,0v-8.18h4.09a4.1,4.1,0,1,0,0-8.19h-4.09v-7A73.79,73.79,0,0,0,223.66,150ZM137.72,72.25h24.56v5.12a73.89,73.89,0,0,0-24.56,0ZM84.52,150A65.48,65.48,0,1,1,150,215.48,65.56,65.56,0,0,1,84.52,150Zm77.76,77.75H137.72v-5.12a73.89,73.89,0,0,0,24.56,0Z"/><path class="b" d="M162.28,154.09a12.28,12.28,0,0,0-8.19-11.57v-8.89a4.09,4.09,0,0,0-8.18,0v8.89a12.28,12.28,0,1,0,16.37,11.57Zm-16.37,0a4.09,4.09,0,1,1,4.09,4.09A4.09,4.09,0,0,1,145.91,154.09Z"/><path class="b" d="M150,121.35a4.09,4.09,0,0,0,4.09-4.09v-4.09a4.09,4.09,0,0,0-8.18,0v4.09A4.09,4.09,0,0,0,150,121.35Z"/><path class="b" d="M154.09,186.83v-4.09a4.09,4.09,0,0,0-8.18,0v4.09a4.09,4.09,0,1,0,8.18,0Z"/><path class="b" d="M176.05,129.74l2.89-2.89a4.09,4.09,0,1,0-5.78-5.79l-2.9,2.9a4.09,4.09,0,0,0,5.79,5.78Z"/><path class="b" d="M124,170.26l-2.9,2.89a4.09,4.09,0,1,0,5.79,5.79l2.89-2.9a4.09,4.09,0,1,0-5.78-5.78Z"/><path class="b" d="M178.65,150a4.09,4.09,0,0,0,4.09,4.09h4.09a4.09,4.09,0,0,0,0-8.18h-4.09A4.09,4.09,0,0,0,178.65,150Z"/><path class="b" d="M121.36,150a4.1,4.1,0,0,0-4.1-4.09h-4.09a4.09,4.09,0,0,0,0,8.18h4.09A4.1,4.1,0,0,0,121.36,150Z"/><path class="b" d="M173.15,178.94a4.09,4.09,0,1,0,5.78-5.79L176,170.26a4.09,4.09,0,1,0-5.79,5.78Z"/><path class="b" d="M126.86,121.06a4.09,4.09,0,0,0-5.79,5.79l2.9,2.89a4.09,4.09,0,0,0,5.78-5.78Z"/></svg>