<svg width="512" height="512" viewBox="0 0 512 512" fill="none" xmlns="http://www.w3.org/2000/svg"><path d="M273.8 417.617L378.111 313.32c9.61-9.609 9.61-25.629 0-35.239-9.609-9.609-25.629-9.609-35.238 0l-61.951 61.578v-227.84c0-13.879-11.042-24.92-24.92-24.92-13.878 0-24.92 11.041-24.92 24.92v227.84l-61.591-61.592c-9.61-9.609-25.63-9.609-35.239 0-4.978 4.978-7.481 11.389-7.481 17.8 0 6.411 2.489 12.822 7.481 17.8l103.949 103.949c4.631 4.63 11.041 7.481 17.8 7.481 6.758 0 13.169-2.489 17.8-7.481l-.001.001z"/></svg>