<svg width="512" height="512" viewBox="0 0 512 512" fill="none" xmlns="http://www.w3.org/2000/svg"><path d="M94.383 273.8L198.68 378.111c9.609 9.61 25.629 9.61 35.239 0 9.609-9.609 9.609-25.629 0-35.238l-61.578-61.951h227.84c13.879 0 24.92-11.042 24.92-24.92 0-13.878-11.041-24.92-24.92-24.92h-227.84l61.592-61.591c9.609-9.61 9.609-25.63 0-35.239-4.978-4.978-11.389-7.481-17.8-7.481-6.411 0-12.822 2.489-17.8 7.481L94.384 238.201c-4.63 4.631-7.481 11.041-7.481 17.8 0 6.758 2.489 13.169 7.481 17.8l-.001-.001z"/></svg>