<svg viewBox="0 0 128 128" xmlns="http://www.w3.org/2000/svg">
  <path d="M97.957 97.947H30.042a6.793 6.793 0 01-6.546-6.789 6.797 6.797 0 016.546-6.792h67.915a6.796 6.796 0 016.546 6.792 6.793 6.793 0 01-6.546 6.79zm0-27.162H30.042a6.793 6.793 0 01-6.546-6.789 6.797 6.797 0 016.546-6.792h67.915a6.796 6.796 0 016.546 6.792 6.793 6.793 0 01-6.546 6.789zm0-27.168H30.042a6.777 6.777 0 01-6.778-6.778 6.777 6.777 0 016.778-6.778h67.915a6.777 6.777 0 016.778 6.778 6.777 6.777 0 01-6.778 6.778z"/>
</svg>
