<svg width="512" height="512" viewBox="0 0 512 512" fill="none" xmlns="http://www.w3.org/2000/svg"><path d="M391.828 391.788h-271.66c-14.611-.534-26.184-12.529-26.184-27.154s11.573-26.635 26.184-27.169h271.66c14.611.534 26.184 12.544 26.184 27.169s-11.573 26.62-26.184 27.154zM391.828 283.14h-271.66c-14.611-.534-26.184-12.53-26.184-27.155 0-14.625 11.573-26.634 26.184-27.169h271.66c14.611.535 26.184 12.544 26.184 27.169s-11.573 26.621-26.184 27.155zM391.828 174.467h-271.66c-14.976 0-27.112-12.136-27.112-27.112 0-14.977 12.136-27.113 27.112-27.113h271.66c14.977 0 27.112 12.136 27.112 27.113 0 14.976-12.136 27.112-27.112 27.112z"/></svg>