<svg width="512" height="512" viewBox="0 0 512 512" fill="none" xmlns="http://www.w3.org/2000/svg"><path d="M388.823 104.706H361.83v-9.172c0-8.036-6.371-14.534-14.251-14.534-7.879 0-14.25 6.498-14.25 14.534v9.172h-62.98v-9.172c0-8.036-6.371-14.534-14.251-14.534-7.879 0-14.251 6.498-14.251 14.534v9.172h-63.358v-9.172c0-8.036-6.371-14.534-14.25-14.534-7.88 0-13.87 6.498-13.87 14.534v9.172h-26.993C98.257 104.706 78 125.349 78 150.984v234.025c0 25.618 20.241 46.278 45.376 46.278H388.84c25.118 0 45.375-20.644 45.375-46.278l-.014-234.025c0-25.618-20.241-46.278-45.376-46.278h-.002zm-265.449 28.68h26.993v9.171c0 8.037 6.371 14.535 14.251 14.535 7.88 0 14.251-6.498 14.251-14.535v-9.171h63.358v9.171c0 8.037 6.371 14.535 14.251 14.535 7.88 0 14.251-6.498 14.251-14.535v-9.171h63.358v9.171c0 8.037 6.371 14.535 14.25 14.535 7.88 0 14.251-6.498 14.251-14.535v-9.171h26.993c9.374 0 17.254 8.036 17.254 17.596v27.157H106.119v-27.157c0-9.948 7.879-17.596 17.253-17.596h.002zm265.449 268.831H123.374c-9.373 0-17.253-8.037-17.253-17.597v-177.8h299.955v178.206c0 9.545-7.88 17.193-17.254 17.193l.001-.002z"/><path d="M185.244 238.546h-34.126c-6.371 0-11.629 5.347-11.629 11.86v26.768c0 6.498 5.243 11.861 11.629 11.861h34.126c6.371 0 11.629-5.348 11.629-11.861v-26.768c-.014-6.886-5.258-11.86-11.629-11.86zM361.085 238.546h-34.126c-6.371 0-11.629 5.347-11.629 11.86v26.768c0 6.498 5.243 11.861 11.629 11.861h34.126c6.371 0 11.629-5.348 11.629-11.861v-26.768c0-6.886-5.258-11.86-11.629-11.86zM273.355 238.546h-34.126c-6.371 0-11.629 5.347-11.629 11.86v26.768c0 6.498 5.243 11.861 11.629 11.861h34.126c6.371 0 11.63-5.348 11.63-11.861v-26.768c-.381-6.886-5.639-11.86-11.63-11.86zM185.244 320.391h-34.126c-6.371 0-11.629 5.347-11.629 11.86v26.768c0 6.498 5.243 11.861 11.629 11.861h34.126c6.371 0 11.629-5.347 11.629-11.861v-26.768c-.014-6.512-5.258-11.86-11.629-11.86zM361.085 320.391h-34.126c-6.371 0-11.629 5.347-11.629 11.86v26.768c0 6.498 5.243 11.861 11.629 11.861l34.126-.015c6.371 0 11.629-5.347 11.629-11.86v-26.769c0-6.497-5.258-11.845-11.629-11.845zM273.355 320.391h-34.126c-6.371 0-11.629 5.347-11.629 11.86v26.768c0 6.498 5.243 11.861 11.629 11.861h34.126c6.371 0 11.63-5.347 11.63-11.861v-26.768c-.381-6.512-5.639-11.86-11.63-11.86z"/></svg>