<svg width="512" height="512" viewBox="0 0 512 512" fill="none" xmlns="http://www.w3.org/2000/svg"><path d="M81.981 415.972H428.43c4.66 0 9.386.033 14.045 0h.579c6.477 0 12.69-5.701 12.392-12.393-.297-6.742-5.453-12.392-12.392-12.392H96.604c-4.66 0-9.385-.033-14.044 0h-.579c-6.477 0-12.69 5.7-12.392 12.392.28 6.725 5.453 12.393 12.392 12.393zM109.247 312.701c0 .942-.083 1.9-.198 2.809.165-1.124.297-2.181.463-3.305a20.562 20.562 0 01-1.322 4.759l1.239-2.974c-.496 1.156-1.074 2.28-1.785 3.337-.694 1.074-1.652 1.454.661-.793-.462.413-.826.942-1.239 1.355-.132.132-1.322 1.322-1.355 1.239 0 0 3.007-2.148.793-.661a18.958 18.958 0 01-3.337 1.785l2.974-1.239c-1.52.628-3.14 1.024-4.759 1.322 1.124-.166 2.181-.298 3.305-.463a21.555 21.555 0 01-5.651 0c1.123.165 2.181.297 3.304.463a20.552 20.552 0 01-4.758-1.322l2.974 1.239c-1.157-.496-2.28-1.074-3.338-1.785-1.074-.694-1.454-1.652.793.661-.413-.462-.941-.826-1.355-1.239-.132-.132-1.322-1.322-1.239-1.355 0 0 2.148 3.007.661.793a18.937 18.937 0 01-1.785-3.337l1.24 2.974c-.628-1.52-1.025-3.14-1.322-4.759.165 1.124.297 2.181.463 3.305a20.863 20.863 0 01-.034-5.37c-.165 1.123-.297 2.181-.462 3.304.248-1.85.743-3.585 1.454-5.32l-1.24 2.974c.463-1.024.943-1.983 1.57-2.941 1.19-1.818-.297.661-.694.826.248-.082.992-1.157 1.19-1.322.33-.363.694-.694 1.074-1.024 1.785-1.57-.826.529-.826.578-.083-.33 3.172-1.817 3.47-1.95l-2.974 1.24a23.44 23.44 0 015.205-1.487c-1.124.165-2.181.297-3.305.462 1.818-.198 3.635-.248 5.453 0-1.124-.165-2.181-.297-3.305-.462 1.735.247 3.338.693 4.957 1.354l-2.974-1.239c1.074.463 2.099.992 3.057 1.619 2.065 1.322-.793-.462-.744-.66 0 0 1.322 1.189 1.405 1.239.363.363.694.793 1.074 1.156 1.024 1.025-1.652-2.445-.578-.743.694 1.123 1.322 2.181 1.85 3.387l-1.239-2.974c.661 1.652 1.157 3.305 1.405 5.089-.166-1.123-.298-2.181-.463-3.305.165.942.248 1.851.248 2.76.132 6.477 5.618 12.69 12.392 12.392 6.61-.297 12.525-5.452 12.393-12.392-.248-14.408-10.046-27.842-24.323-31.229-13.962-3.305-29.61 2.941-36.268 16.027-6.28 12.36-4.429 26.636 4.709 37.046 7.8 8.939 21.183 12.442 32.502 9.138 13.796-3.999 23.166-16.722 23.38-30.982.083-6.477-5.783-12.69-12.393-12.392-6.774.297-12.31 5.452-12.392 12.392h-.001zM216.368 210.258c0 .942-.083 1.9-.199 2.842.166-1.123.298-2.181.463-3.304a19.912 19.912 0 01-1.289 4.659l1.239-2.974c-.528 1.289-1.189 2.446-1.949 3.586-1.074 1.685 1.652-1.9.661-.859-.413.462-.794.859-1.19 1.321-.364.331-.744.661-1.074.992-1.57 1.487 2.511-1.57.628-.496-1.025.578-2.033 1.19-3.14 1.686l2.975-1.24c-1.686.694-3.47 1.157-5.288 1.454 1.124-.165 2.181-.297 3.305-.462-1.735.198-3.437.165-5.156 0 1.124.165 2.181.297 3.305.462a20.6 20.6 0 01-4.957-1.355l2.974 1.24a19.975 19.975 0 01-3.057-1.62c-2.065-1.321.793.463.744.661 0 0-1.322-1.189-1.405-1.239-.363-.363-.694-.793-1.074-1.157-1.024-1.024 1.652 2.446.578.744-.694-1.124-1.321-2.181-1.85-3.387l1.239 2.974c-.661-1.652-1.157-3.305-1.404-5.089.165 1.123.297 2.181.462 3.304a25.862 25.862 0 010-5.535c-.165 1.124-.297 2.181-.462 3.305a20.546 20.546 0 011.321-4.759l-1.239 2.974c.496-1.156 1.074-2.28 1.785-3.338.694-1.074 1.652-1.454-.661.794.462-.413.826-.942 1.239-1.355.132-.132 1.322-1.322 1.355-1.24 0 0-3.007 2.148-.793.661a18.928 18.928 0 013.338-1.784l-2.975 1.239c1.521-.628 3.14-1.024 4.759-1.322-1.123.165-2.181.298-3.305.463a21.554 21.554 0 015.651 0c-1.123-.165-2.181-.298-3.304-.463a20.54 20.54 0 014.758 1.322l-2.974-1.239c1.157.496 2.28 1.074 3.338 1.784 1.074.694 1.454 1.653-.793-.661.413.463.942.827 1.355 1.24.132.132 1.322 1.322 1.239 1.355 0 0-2.148-3.008-.661-.794a18.933 18.933 0 011.784 3.338l-1.239-2.974c.628 1.52 1.025 3.139 1.322 4.759-.165-1.124-.297-2.181-.463-3.305-.016.892.083 1.851.083 2.793.083 6.477 5.618 12.69 12.393 12.392 6.659-.297 12.475-5.453 12.392-12.392-.165-11.897-6.857-23.712-17.878-28.784-12.26-5.701-25.942-3.801-36.154 5.122-9.335 8.129-12.921 22.637-8.625 34.203 4.924 13.186 17.878 22.835 32.353 21.646 7.931-.661 15.366-3.767 21.018-9.501 5.948-6.081 9.17-14.161 9.286-22.637.132-6.477-5.783-12.69-12.393-12.393-6.824.231-12.277 5.403-12.392 12.343h.001zM323.505 282.959c0 .942-.083 1.9-.198 2.809.165-1.123.297-2.181.462-3.305a20.533 20.533 0 01-1.321 4.759l1.239-2.974c-.496 1.157-1.074 2.28-1.785 3.338-.694 1.074-1.652 1.454.661-.793-.462.413-.826.941-1.239 1.354-.132.133-1.322 1.322-1.355 1.24 0 0 3.007-2.148.793-.661a18.863 18.863 0 01-3.338 1.784l2.975-1.239c-1.521.628-3.14 1.025-4.759 1.322 1.123-.165 2.181-.297 3.305-.463a21.554 21.554 0 01-5.651 0c1.123.166 2.181.298 3.304.463a20.54 20.54 0 01-4.758-1.322l2.974 1.239a20.253 20.253 0 01-3.338-1.784c-1.074-.694-1.454-1.653.793.661-.413-.463-.942-.826-1.355-1.24-.132-.132-1.321-1.321-1.239-1.354 0 0 2.148 3.007.661.793a18.898 18.898 0 01-1.784-3.338l1.239 2.974c-.628-1.52-1.025-3.139-1.322-4.759.165 1.124.297 2.182.463 3.305-.248-1.9-.248-3.8 0-5.701-.166 1.124-.298 2.181-.463 3.305a19.933 19.933 0 011.289-4.66l-1.24 2.974c.529-1.288 1.19-2.445 1.95-3.585 1.074-1.686-1.652 1.9-.661.859.413-.463.793-.859 1.19-1.322.364-.33.744-.661 1.074-.991 1.57-1.487-2.512 1.569-.628.495 1.025-.578 2.033-1.189 3.14-1.685l-2.975 1.239c1.686-.694 3.47-1.156 5.288-1.454-1.124.166-2.181.298-3.305.463 1.818-.198 3.586-.165 5.42.033-1.124-.165-2.181-.297-3.305-.463 1.652.298 3.173.694 4.759 1.322l-2.974-1.239c1.239.529 2.395 1.19 3.552 1.95 1.685 1.074-1.95-1.653-.859-.661.463.413.859.793 1.289 1.189.33.364.661.744.991 1.074 1.487 1.62-1.57-2.511-.496-.627.579 1.024 1.19 2.032 1.686 3.139l-1.239-2.974c.694 1.685 1.156 3.47 1.454 5.287-.166-1.123-.298-2.181-.463-3.304l.099 2.528c.083 6.477 5.618 12.69 12.393 12.392 6.609-.297 12.524-5.453 12.392-12.392-.198-14.244-9.55-26.851-23.265-30.949-13.846-4.13-28.833 2.099-36.434 14.128-7.634 12.062-5.535 27.594 3.437 38.202 7.799 9.22 21.348 12.921 32.881 9.583 13.797-3.998 23.166-16.721 23.381-30.981.083-6.477-5.783-12.69-12.393-12.393-6.807.314-12.293 5.47-12.392 12.409v.001zM430.626 115.248c0 .942-.083 1.9-.199 2.809.166-1.123.298-2.181.463-3.304a20.54 20.54 0 01-1.322 4.758l1.239-2.974a20.253 20.253 0 01-1.784 3.338c-.694 1.074-1.652 1.454.661-.793-.463.413-.826.942-1.239 1.355-.133.132-1.322 1.322-1.355 1.239 0 0 3.007-2.148.793-.661a18.967 18.967 0 01-3.338 1.785l2.974-1.24c-1.52.628-3.139 1.025-4.759 1.322 1.124-.165 2.182-.297 3.305-.463-1.9.248-3.8.248-5.75 0 1.123.166 2.181.298 3.305.463-1.653-.297-3.173-.694-4.759-1.322l2.974 1.24c-1.239-.529-2.396-1.19-3.552-1.95-1.686-1.074 1.949 1.652.859.661-.463-.413-.859-.793-1.289-1.19-.331-.364-.661-.744-.992-1.074-1.487-1.619 1.57 2.512.496.628-.578-1.025-1.189-2.033-1.685-3.14l1.239 2.975c-.694-1.686-1.157-3.47-1.454-5.288.165 1.124.297 2.181.463 3.305-.199-1.686-.166-3.338 0-5.089-.166 1.123-.298 2.181-.463 3.304.248-1.85.744-3.635 1.487-5.37l-1.239 2.975a27.81 27.81 0 011.57-2.942c1.189-1.85-.298.694-.694.827.198-.083 1.024-1.157 1.189-1.355.331-.364.694-.694 1.074-1.025 1.818-1.57-.826.661-.859.628-.083-.165 3.222-1.851 3.47-1.95l-2.974 1.24a23.487 23.487 0 015.205-1.488c-1.124.166-2.181.298-3.305.463 1.9-.248 3.718-.248 5.618 0-1.124-.165-2.181-.297-3.305-.463 1.653.248 3.222.694 4.759 1.322l-2.974-1.239c1.156.496 2.28 1.074 3.338 1.785 1.074.694 1.454 1.652-.794-.661.414.462.942.826 1.355 1.239.133.132 1.322 1.322 1.24 1.355 0 0-2.148-3.007-.661-.793a18.889 18.889 0 011.784 3.337l-1.239-2.974c.628 1.52 1.024 3.14 1.322 4.759-.165-1.124-.298-2.181-.463-3.305.182 1.041.265 2 .265 2.942.082 6.476 5.617 12.689 12.392 12.392 6.659-.297 12.475-5.453 12.393-12.392-.165-11.897-6.857-23.712-17.879-28.784-12.69-5.866-28.618-3.85-38.086 7.072-9.22 10.608-11.401 26.239-3.801 38.467 7.518 12.095 22.555 18.307 36.385 14.292 13.797-3.998 23.166-16.721 23.381-30.981.082-6.477-5.784-12.69-12.393-12.393-6.775.215-12.31 5.387-12.393 12.327l.001-.001z"/><path d="M185.831 215.216c-8.84 8.427-17.647 16.887-26.47 25.314a103075.744 103075.744 0 01-42.267 40.399c-3.272 3.107-6.477 6.197-9.749 9.336-4.709 4.494-4.874 13.053 0 17.515 5.04 4.627 12.524 4.792 17.515 0 8.839-8.427 17.647-16.887 26.47-25.314 14.078-13.467 28.173-26.933 42.267-40.4 3.272-3.107 6.477-6.196 9.749-9.336 4.709-4.494 4.874-13.053 0-17.514-4.99-4.627-12.475-4.792-17.515 0zM305.925 261.099c-8.344-5.651-16.721-11.368-25.082-17.019-13.335-9.055-26.686-18.093-40.02-27.132-3.057-2.065-6.147-4.164-9.22-6.246-5.37-3.635-13.963-1.19-16.937 4.461-3.304 6.279-1.289 13.054 4.462 16.937 8.344 5.651 16.721 11.368 25.082 17.019 13.335 9.055 26.686 18.093 40.02 27.132 3.057 2.065 6.147 4.163 9.22 6.246 5.37 3.635 13.962 1.189 16.937-4.462 3.304-6.229 1.272-13.004-4.462-16.936zM401.828 125.705c-2.842 4.461-5.701 8.89-8.51 13.334-6.807 10.707-13.632 21.348-20.489 32.055-8.262 12.922-16.523 25.86-24.785 38.798-7.138 11.202-14.293 22.339-21.448 33.542-3.47 5.42-7.105 10.774-10.409 16.325a.72.72 0 01-.165.248c-3.503 5.453-1.322 13.93 4.461 16.937 6.147 3.222 13.219 1.404 16.936-4.462 2.842-4.461 5.701-8.889 8.51-13.334 6.808-10.707 13.632-21.348 20.489-32.055 8.262-12.922 16.523-25.859 24.785-38.797 7.139-11.203 14.293-22.34 21.448-33.543 3.47-5.419 7.105-10.773 10.409-16.325a.719.719 0 01.166-.248c3.503-5.453 1.322-13.929-4.462-16.937-6.146-3.238-13.202-1.371-16.936 4.462z"/></svg>