<svg viewBox="0 0 128 128" xmlns="http://www.w3.org/2000/svg">
  <path d="M27.433 110.499l12.353-18.87a41.08 41.08 0 01-15.66-22.863c-2.82-10.601-1.265-21.694 4.279-31.227 5.544-9.53 14.398-16.34 25.098-19.163 10.601-2.82 21.693-1.265 31.227 4.279 9.534 5.544 16.244 14.492 19.068 25.098 2.82 10.704 1.262 21.791-4.282 31.326-5.544 9.533-14.492 16.244-25.098 19.067L27.433 110.5zm36.478-88.62c-3.017 0-6.13.388-9.241 1.167-9.34 2.432-17.217 8.462-22.18 16.83-4.864 8.367-6.224 18.189-3.792 27.53 2.333 8.853 7.88 16.437 15.564 21.4l2.044 1.36-8.074 12.353 34.825-9.142c19.356-5.058 31.029-24.999 25.877-44.36C94.846 32.773 80.061 21.88 63.911 21.88z"/>
  <path d="M45.915 53.593h38.424v6.224H45.915v-6.224zm0 12.447h20.622v6.224H45.915V66.04zm0-24.22h38.424v6.225H45.915V41.82z"/>
</svg>
