<svg width="512" height="512" viewBox="0 0 512 512" fill="none" xmlns="http://www.w3.org/2000/svg"><path d="M109.731 441.996l49.412-75.478c-30.733-22.191-52.91-54.49-62.638-91.454-11.277-42.405-5.061-86.774 17.114-124.91 22.176-38.12 57.591-65.357 100.393-76.649 42.404-11.277 86.773-5.061 124.909 17.115 38.135 22.175 64.976 57.968 76.272 100.392 11.277 42.816 5.046 87.166-17.13 125.302-22.175 38.136-57.968 64.976-100.392 76.272l-187.94 49.41zm145.913-354.48c-12.068 0-24.517 1.551-36.965 4.667-37.36 9.727-68.867 33.849-88.719 67.318-19.455 33.469-24.896 72.758-15.169 110.12 9.333 35.414 31.524 65.75 62.257 85.602l8.177 5.441-32.298 49.412 139.302-36.569c77.423-20.23 124.115-99.995 103.509-177.438-16.355-64.976-75.494-108.551-140.093-108.551l-.001-.001z"/><path d="M183.66 214.372h153.695v24.896H183.66v-24.896zM183.66 264.161h82.486v24.896H183.66v-24.896zM183.66 167.283h153.695v24.896H183.66v-24.896z"/></svg>