<svg width="512" height="512" viewBox="0 0 512 512" fill="none" xmlns="http://www.w3.org/2000/svg"><path d="M256.003 46C140.176 46 46 140.174 46 255.999c0 113.677 90.762 206.402 203.649 209.789 2.064.212 4.234.212 6.351.212s4.287 0 6.351-.212C375.238 462.401 466 369.676 466 255.999 466 140.174 371.824 46 255.997 46h.006zm-13.548 30.06v64.778h-48.691c2.356-6.298 4.737-12.463 7.41-17.993 12.173-25.192 26.78-40.75 41.281-46.784zm27.097 0c14.501 6.034 29.108 21.593 41.281 46.784 2.673 5.531 5.054 11.696 7.41 17.994h-48.69l-.001-64.778zm-76.848 8.468c-5.821 8.044-11.166 16.935-15.877 26.673-4.393 9.13-8.363 19.132-11.855 29.637h-51.019a183.164 183.164 0 0178.751-56.31zm126.598 0a183.167 183.167 0 0178.752 56.31h-51.019c-3.493-10.505-7.462-20.507-11.855-29.637-4.71-9.738-10.056-18.629-15.878-26.673zM95.54 167.932h61.816c-5.372 22.942-8.679 48.027-9.526 74.515H73.523c1.984-26.858 9.738-52.155 22.016-74.515h.001zm89.76 0h57.158v74.515h-67.532c.953-26.858 4.684-52.129 10.373-74.515h.001zm84.259 0h57.158c5.689 22.386 9.42 47.657 10.373 74.515h-67.532l.001-74.515zm85.099 0h61.815c12.279 22.36 20.032 47.657 22.017 74.515h-74.308c-.847-26.488-4.154-51.573-9.526-74.515h.002zM73.524 269.544h74.307c.847 26.461 4.181 51.6 9.526 74.516H95.542c-12.252-22.387-20.085-47.658-22.017-74.516h-.001zm101.405 0h67.531v74.516h-57.158c-5.689-22.36-9.447-47.631-10.373-74.516zm94.63 0h67.531c-.926 26.885-4.683 52.156-10.372 74.516h-57.159v-74.516zm94.63 0h74.307c-1.931 26.858-9.764 52.129-22.016 74.516h-61.816c5.346-22.916 8.68-48.055 9.526-74.516h-.001zM113.75 371.157h51.23c3.52 10.558 7.437 20.454 11.855 29.637a178.53 178.53 0 0016.089 26.885c-31.251-11.484-58.613-31.146-79.178-56.522h.004zm80.018 0h48.69v64.99c-14.501-6.113-29.108-22.016-41.281-47.208-2.673-5.531-5.054-11.485-7.41-17.782h.001zm75.791 0h48.69c-2.355 6.297-4.737 12.251-7.41 17.782-12.172 25.192-26.779 41.095-41.281 47.208l.001-64.99zm77.484 0h51.231c-20.561 25.376-47.923 45.037-79.178 56.522a178.43 178.43 0 0016.089-26.885c4.419-9.183 8.336-19.079 11.855-29.637h.003z"/></svg>