<svg viewBox="0 0 513 512" xmlns="http://www.w3.org/2000/svg">
  <path d="M172.67 81.821c-27.364 0-54.802 10.828-75.089 32.667-40.593 43.697-40.537 112.82 0 156.534l141.455 152.543a23.682 23.682 0 0017.369 7.594 23.648 23.648 0 0017.368-7.594c47.226-50.829 94.377-101.568 141.606-152.396 40.593-43.697 40.593-112.688 0-156.383-40.592-43.698-109.438-43.698-150.03 0l-8.722 9.312-9.016-9.608c-20.287-21.839-47.579-32.666-74.942-32.666l.001-.003zm0 46.118c14.356 0 28.675 6.208 40.352 18.772l26.163 28.233a23.681 23.681 0 0017.368 7.594 23.644 23.644 0 0017.368-7.594l26.015-28.085c23.355-25.146 57.498-25.146 80.855 0 23.354 25.147 23.354 66.939 0 92.089-41.406 44.584-82.903 89.203-124.309 133.769L132.173 238.801c-23.355-25.183-23.355-66.939 0-92.088 11.677-12.564 26.144-18.773 40.5-18.773l-.003-.001z"/>
</svg>
