<svg viewBox="0 0 512 512" xmlns="http://www.w3.org/2000/svg">
  <path d="M255.537 86.008c-3.164.06-6.39 1.189-9.514 3.225l-196.08 154.8c-5.039 4.998-8.587 15.762-3.386 22.414 5.2 6.651 16.105 7.538 22.414 1.935l186.565-147.22 186.565 147.22c6.309 5.603 17.455 4.877 22.414-1.935 4.354-5.987 3.285-17.435-3.386-22.414l-71.436-56.44v-86.11c0-8.547-6.934-15.48-15.48-15.48h-41.28c-8.566 0-15.48 6.933-15.48 15.48v29.186l-52.404-41.442c-3.225-2.257-6.35-3.285-9.514-3.225l.002.006zm92.88 30.96h10.32v46.279l-10.32-8.224v-38.055zm-216.72 120.13l-30.96 24.51v149.48c0 8.546 6.913 15.48 15.48 15.48h98.04c8.546 0 15.48-6.934 15.48-15.48v-61.92c0-14.553 11.247-25.8 25.8-25.8s25.8 11.247 25.8 25.8v61.92c0 8.546 6.913 15.48 15.48 15.48h98.04c8.546 0 15.48-6.934 15.48-15.48v-149.48l-30.96-24.51v158.51h-67.08v-46.44c0-31.182-25.578-56.76-56.76-56.76s-56.76 25.578-56.76 56.76v46.44h-67.08v-158.51z"/>
</svg>
