<svg width="512" height="512" viewBox="0 0 512 512" xmlns="http://www.w3.org/2000/svg">
  <path d="M262.58 191.723c-9.778 9.778-25.651 9.778-35.428 0-9.796-9.795-9.796-25.651 0-35.446l70.874-70.875c39.128-39.127 102.585-39.127 141.731 0 39.146 39.146 39.146 102.603 0 141.75l-70.874 70.856c-9.778 9.796-25.651 9.796-35.428 0-9.778-9.777-9.778-25.633 0-35.428l70.874-70.875c19.555-19.555 19.555-51.283 0-70.856-19.572-19.573-51.301-19.573-70.874 0l-70.875 70.874zm0 141.731c9.795-9.795 25.65-9.795 35.446 0 9.777 9.778 9.777 25.651 0 35.429l-70.875 70.874c-39.145 39.146-102.602 39.146-141.75 0-39.127-39.145-39.127-102.602 0-141.731l70.875-70.875c9.796-9.777 25.651-9.777 35.429 0 9.795 9.778 9.795 25.651 0 35.429l-70.857 70.874c-19.572 19.573-19.572 51.301 0 70.875 19.573 19.555 51.301 19.555 70.857 0l70.875-70.875zm70.875-141.749c9.777 9.795 9.777 25.651 0 35.446L227.154 333.452c-9.778 9.777-25.651 9.777-35.428 0-9.796-9.796-9.796-25.651 0-35.446l106.3-106.301c9.778-9.778 25.651-9.778 35.429 0z"/>
</svg>
