<svg width="512" height="512" viewBox="0 0 512 512" fill="none" xmlns="http://www.w3.org/2000/svg"><g clip-path="url(#clip0)"><path d="M355.112 65.807a11.924 11.924 0 00-8.149 3.444L110.28 305.934a11.824 11.824 0 00-3.503 8.401l-.342 79.34a11.866 11.866 0 003.474 8.447 11.902 11.902 0 008.446 3.473l79.325-.356h-.015a11.852 11.852 0 008.357-3.503L442.69 165.053c4.601-4.632 4.601-12.113 0-16.744L363.707 69.25a11.849 11.849 0 00-8.595-3.414v-.029zm.282 28.663l62.164 62.15-28.812 28.811-62.107-62.21 28.755-28.75zm-45.6 45.57l62.164 62.164-179.269 179.284-62.419.253.253-62.419L309.794 140.04zM76.881 422.414v.015c-6.457.475-11.341 6.027-11 12.484.327 6.457 5.76 11.459 12.232 11.266H394.12c6.457-.133 11.608-5.418 11.608-11.875s-5.151-11.726-11.608-11.875H78.113a16.87 16.87 0 00-1.232 0v-.015z"/></g><defs><clipPath id="clip0"><path transform="translate(66 66)" d="M0 0h380v380H0z"/></clipPath></defs></svg>