<svg viewBox="0 0 512 512" xmlns="http://www.w3.org/2000/svg">
  <path d="M256 197.75a43.683 43.683 0 0030.891-74.579 43.686 43.686 0 10-61.783 61.783A43.688 43.688 0 00256 197.75zm0-58.25a14.563 14.563 0 110 29.126 14.563 14.563 0 010-29.126zm203.875 301.589l-58.25-189.312a14.565 14.565 0 00-14.563-10.339h-28.397a241.417 241.417 0 0012.961-60.144c.536-4.202.828-8.433.874-12.669a116.5 116.5 0 10-233 0c-.006 4.137.237 8.27.728 12.378a241.164 241.164 0 0013.106 60.435h-28.397a14.556 14.556 0 00-14.562 10.339l-58.25 189.312a14.567 14.567 0 002.423 13.159 14.562 14.562 0 0012.14 5.627h378.624a14.558 14.558 0 0012.14-5.627 14.57 14.57 0 002.423-13.159zM256 81.25a87.373 87.373 0 0187.375 87.375c.19 3.201.19 6.41 0 9.611-5.097 72.813-62.182 153.635-87.375 184.944-24.465-31.309-81.55-111.986-87.375-185.672a80.744 80.744 0 010-8.883A87.374 87.374 0 01256 81.25zM86.347 430.75l49.366-160.187h29.125a563.607 563.607 0 0080.24 126.111 14.562 14.562 0 0021.989 0 563.733 563.733 0 0080.094-126.111h29.125l49.221 160.187H86.347z"/>
</svg>
