<svg viewBox="0 0 512 512" xmlns="http://www.w3.org/2000/svg">
  <path d="M398.72 342.72a191.992 191.992 0 0041.792-209.629A191.981 191.981 0 00398.72 70.72a16 16 0 00-22.56 0L352.8 94.56A144 144 0 00150.56 296.8L128 320a16 16 0 000 22.56 191.04 191.04 0 00128 55.84V432h-32a16.004 16.004 0 00-11.314 4.686 16.004 16.004 0 000 22.628c3.001 3 7.071 4.686 11.314 4.686h96a16.003 16.003 0 0016-16 16.003 16.003 0 00-16-16h-32v-34.88a190.881 190.881 0 00110.72-54.4zM183.84 128a112 112 0 11158.4 158.383A112 112 0 01183.84 128zm-10.72 192a144 144 0 00202.4-202.88l11.36-11.36a160.002 160.002 0 01-115.892 260.943A159.998 159.998 0 01161.76 330.88L173.12 320z"/>
</svg>
