<svg viewBox="0 0 512 512" xmlns="http://www.w3.org/2000/svg">
  <path d="M448.497 400.442L330.552 282.497c15.316-22.84 23.548-49.688 23.548-77.801 0-37.406-14.565-72.588-41.029-99.038-26.449-26.449-61.617-41.014-99.023-41.014-37.405 0-72.587 14.565-99.038 41.014-26.45 26.449-41.013 61.632-41.013 99.038s14.564 72.573 41.028 99.038c26.449 26.449 61.617 41.029 99.038 41.029 28.423 0 55.563-8.424 78.567-24.078l117.828 117.828c3.976 3.976 11.295 3.107 16.331-1.93l19.808-19.807c5.021-5.036 5.89-12.355 1.899-16.331l.001-.003zM214.048 306.81c-56.316 0-102.114-45.798-102.114-102.114 0-56.301 45.813-102.114 102.114-102.114s102.114 45.813 102.114 102.114S270.364 306.81 214.048 306.81z"/>
</svg>
