<svg viewBox="0 0 512 512" xmlns="http://www.w3.org/2000/svg">
  <path d="M253.63 46.004C139.06 46.004 46.002 140.339 46.002 256c-.069 4.671 1.754 9.183 5.036 12.532a17.515 17.515 0 0012.464 5.218c4.693 0 9.182-1.891 12.463-5.218 3.281-3.349 5.104-7.861 5.036-12.532 0-96.978 77.197-174.997 172.629-174.997 64.096 0 120.153 35.181 150.025 87.499h-48.489a17.388 17.388 0 00-12.532 5.035 17.42 17.42 0 00-5.218 12.464 17.5 17.5 0 005.218 12.464 17.49 17.49 0 0012.532 5.036h81.666c9.661 0 17.499-7.839 17.499-17.5v-81.665a17.597 17.597 0 00-5.058-12.692 17.56 17.56 0 00-12.624-5.173 17.544 17.544 0 00-12.396 5.31 17.604 17.604 0 00-4.921 12.554v24.427C381.234 78.45 320.989 46 253.633 46l-.003.004zm194.685 192.135a17.536 17.536 0 00-12.396 5.309 17.604 17.604 0 00-4.922 12.555C430.997 352.98 353.8 431 258.368 431c-64.282 0-120.585-35.273-150.387-87.86h48.854a17.488 17.488 0 0012.532-5.036c3.327-3.304 5.218-7.793 5.218-12.464 0-4.694-1.891-9.183-5.218-12.464a17.39 17.39 0 00-12.532-5.035H75.169c-9.66 0-17.5 7.838-17.5 17.499v81.666a17.552 17.552 0 004.923 12.532 17.474 17.474 0 0012.395 5.332 17.49 17.49 0 0012.624-5.196 17.54 17.54 0 005.058-12.669v-24.062c38.099 50.357 98.343 82.762 165.699 82.762 114.571 0 207.629-94.335 207.629-209.997a17.592 17.592 0 00-5.059-12.691 17.56 17.56 0 00-12.623-5.173v-.005z"/>
</svg>
