<svg viewBox="0 0 512 512" xmlns="http://www.w3.org/2000/svg">
  <path fill-rule="evenodd" clip-rule="evenodd" d="M161.515 298.365c7.952 0 14.411 6.536 14.411 14.656 0 5.103-2.574 9.582-6.49 12.218-33.393 23.918-56.444 61.776-60.648 105.347 0 .015.015.015.015.015 0 8.089-6.459 14.64-14.412 14.64-7.968 0-14.396-6.551-14.396-14.64l-.122.061c4.25-53.458 32.144-100.027 72.926-129.25 2.437-1.889 5.438-3.047 8.714-3.047h.002zm263.186 132.233l.228 2.636c-.061-.808-.183-1.6-.259-2.422-.137 7.983-6.505 14.427-14.381 14.427-7.953 0-14.412-6.567-14.412-14.641h-.03c-7.16-74.205-68.632-132.202-143.446-132.233l-.061-.015c-.152 0-.259.015-.411.015-63.161 0-114.364-52.1-114.364-116.361 0-64.244 51.203-116.329 114.364-116.329.076 0 .152.016.198.016.061 0 .137-.016.213-.016 63.118 0 114.317 52.073 114.317 116.298 0 24.04-7.358 46.207-19.653 64.717-.122.198-.243.366-.365.564a109.233 109.233 0 01-5.713 7.754c-.686.884-1.417 1.706-2.118 2.575-1.828 2.132-3.656 4.281-5.652 6.291-1.432 1.493-2.97 2.849-4.493 4.251-2.225 2.056-4.525 4.052-6.932 5.926-2.422 1.889-4.845 3.717-7.404 5.408-.457.289-.853.67-1.31.944 60.36 23.05 104.614 79.342 111.302 146.984.214 1.036.381 2.102.381 3.214l.001-.003zM252.34 268.993c2.879 0 5.728-.168 8.546-.457 43.037-4.555 76.569-41.543 76.569-86.533 0-48.048-38.284-86.99-85.527-86.99-2.88 0-5.744.152-8.547.427-43.036 4.555-76.6 41.558-76.6 86.533 0 48.048 38.3 87.017 85.559 87.017"/>
</svg>
