<svg width="128" height="128" viewBox="0 0 128 128" fill="none" xmlns="http://www.w3.org/2000/svg">
<path d="M68.45 104.404L94.5279 78.3299C96.9302 75.9276 96.9302 71.9226 94.5279 69.5203C92.1256 67.118 88.1206 67.118 85.7183 69.5203L70.2305 84.9146V27.9546C70.2305 24.4851 67.4701 21.7246 64.0005 21.7246C60.5309 21.7246 57.7705 24.4851 57.7705 27.9546L57.7705 84.9146L42.3726 69.5168C39.9704 67.1145 35.9654 67.1145 33.5631 69.5168C32.3185 70.7613 31.6926 72.364 31.6926 73.9668C31.6926 75.5695 32.3149 77.1722 33.5631 78.4168L59.5502 104.404C60.7079 105.562 62.3106 106.274 64.0002 106.274C65.6897 106.274 67.2925 105.652 68.4502 104.404L68.45 104.404Z" fill="black"/>
<path d="M59.05 23.5958L32.9721 49.6701C30.5698 52.0724 30.5698 56.0774 32.9721 58.4797C35.3744 60.882 39.3794 60.882 41.7817 58.4797L57.2695 43.0854V100.045C57.2695 103.515 60.0299 106.275 63.4995 106.275C66.9691 106.275 69.7295 103.515 69.7295 100.045V43.0854L85.1274 58.4832C87.5296 60.8855 91.5346 60.8855 93.9369 58.4832C95.1815 57.2387 95.8074 55.636 95.8074 54.0332C95.8074 52.4305 95.1851 50.8278 93.9369 49.5832L67.9498 23.5961C66.7921 22.4384 65.1894 21.7257 63.4998 21.7257C61.8103 21.7257 60.2075 22.348 59.0498 23.5961L59.05 23.5958Z" fill="black"/>
</svg>
