<svg viewBox="0 0 129 128" xmlns="http://www.w3.org/2000/svg">
  <path d="M43.167 20.455c-6.84 0-13.7 2.707-18.772 8.167-10.148 10.924-10.134 28.205 0 39.134L59.76 105.89a5.913 5.913 0 008.684 0l35.402-38.099c10.148-10.924 10.148-28.172 0-39.096-10.148-10.924-27.36-10.924-37.508 0l-2.18 2.328-2.254-2.401c-5.072-5.46-11.895-8.167-18.736-8.167zm0 11.53c3.59 0 7.17 1.552 10.089 4.693l6.54 7.058a5.911 5.911 0 008.684 0l6.504-7.021c5.839-6.287 14.375-6.287 20.214 0 5.838 6.286 5.838 16.735 0 23.022-10.352 11.146-20.726 22.3-31.078 33.442L33.043 59.7c-5.838-6.296-5.838-16.735 0-23.022 2.92-3.14 6.536-4.693 10.125-4.693z"/>
</svg>
