<svg viewBox="0 0 129 128" xmlns="http://www.w3.org/2000/svg">
  <path d="M64.134 21.502c-.79.015-1.597.297-2.378.806l-49.02 38.7c-1.26 1.25-2.147 3.94-.847 5.604 1.3 1.663 4.026 1.884 5.604.483l46.64-36.805 46.642 36.805c1.577 1.401 4.364 1.22 5.604-.483 1.088-1.497.821-4.36-.847-5.604l-17.859-14.11V25.371a3.871 3.871 0 00-3.87-3.87h-10.32a3.868 3.868 0 00-3.87 3.87v7.296l-13.1-10.36c-.807-.564-1.588-.822-2.38-.806h.001zm23.22 7.74h2.58v11.57l-2.58-2.056v-9.514zm-54.18 30.032l-7.74 6.128v37.37a3.868 3.868 0 003.87 3.87h24.51a3.871 3.871 0 003.87-3.87v-15.48c0-3.638 2.812-6.45 6.45-6.45 3.638 0 6.45 2.812 6.45 6.45v15.48a3.868 3.868 0 003.87 3.87h24.51a3.871 3.871 0 003.87-3.87v-37.37l-7.74-6.128v39.628h-16.77v-11.61c0-7.796-6.394-14.19-14.19-14.19-7.795 0-14.19 6.394-14.19 14.19v11.61h-16.77V59.274z"/>
</svg>
