<svg viewBox="0 0 128 128" xmlns="http://www.w3.org/2000/svg">
  <path d="M65.645 47.93a6.265 6.265 0 01-8.857-8.86l17.719-17.72c9.782-9.781 25.646-9.781 35.432 0 9.787 9.787 9.787 25.651 0 35.438L92.221 74.502a6.257 6.257 0 01-8.857 0 6.265 6.265 0 010-8.857l17.718-17.719c4.889-4.888 4.889-12.82 0-17.714-4.893-4.893-12.825-4.893-17.718 0L65.645 47.931zm0 35.434a6.265 6.265 0 018.862 8.857l-17.72 17.718c-9.785 9.787-25.65 9.787-35.436 0-9.782-9.786-9.782-25.65 0-35.433l17.718-17.718a6.265 6.265 0 018.857 0 6.258 6.258 0 010 8.857L30.212 83.364c-4.893 4.893-4.893 12.825 0 17.718 4.893 4.889 12.825 4.889 17.714 0l17.719-17.718zm17.719-35.438a6.27 6.27 0 010 8.862L56.788 83.363a6.265 6.265 0 01-8.857-8.862l26.576-26.575a6.265 6.265 0 018.857 0z"/>
</svg>
