<svg xmlns="http://www.w3.org/2000/svg" viewBox="0 0 128 128">
  <g clip-path="url(#lock__clip0)">
    <path d="M39 118h50c6.902 0 12.5-5.598 12.5-12.5V63.832c0-6.902-5.598-12.5-12.5-12.5V43c0-8.93-4.766-17.184-12.5-21.652a25.005 25.005 0 00-25 0A25.01 25.01 0 0039 43v8.332c-6.902 0-12.5 5.598-12.5 12.5V105.5c0 6.902 5.598 12.5 12.5 12.5zm8.332-75c0-5.953 3.18-11.457 8.336-14.434a16.665 16.665 0 0116.664 0A16.67 16.67 0 0180.668 43v8.332H47.332V43zm-12.5 20.832c0-2.3 1.867-4.164 4.168-4.164h50a4.167 4.167 0 014.168 4.164V105.5a4.164 4.164 0 01-1.223 2.945A4.163 4.163 0 0189 109.668H39a4.17 4.17 0 01-4.168-4.168V63.832z"/>
    <path d="M59.832 92.234v4.934c0 2.3 1.867 4.164 4.168 4.164 2.3 0 4.168-1.864 4.168-4.164v-4.934A12.501 12.501 0 1051.68 78.336a12.503 12.503 0 008.153 13.898h-.001zM64 76.332a4.165 4.165 0 013.848 2.574 4.158 4.158 0 01-.903 4.54 4.158 4.158 0 01-4.539.902A4.165 4.165 0 0164 76.332z"/>
  </g>
  <defs>
    <clipPath id="lock__clip0">
      <path fill="#fff" transform="translate(14 18)" d="M0 0h100v100H0z"/>
    </clipPath>
  </defs>
</svg>
