<svg viewBox="0 0 128 128" xmlns="http://www.w3.org/2000/svg">
  <g clip-path="url(#pencil__clip0)">
    <path d="M88.778 16.452a2.98 2.98 0 00-2.037.86L27.57 76.484a2.957 2.957 0 00-.876 2.1L26.61 98.42a2.965 2.965 0 002.98 2.98l19.831-.089h-.004a2.966 2.966 0 002.09-.876l59.166-59.17a2.969 2.969 0 000-4.187L90.927 17.313a2.962 2.962 0 00-2.149-.854v-.007zm.07 7.165l15.542 15.538-7.203 7.203L81.66 30.805l7.189-7.188zm-11.4 11.393L92.99 50.55 48.172 95.372l-15.604.063.063-15.605 44.817-44.82zM19.22 105.603v.004a2.972 2.972 0 00-2.75 3.121 2.97 2.97 0 003.058 2.817H98.53a2.967 2.967 0 002.902-2.969 2.97 2.97 0 00-2.902-2.969H19.528a3.954 3.954 0 00-.308 0v-.004z"/>
  </g>
  <defs>
    <clipPath id="pencil__clip0">
      <path fill="#fff" transform="translate(16.5 16.5)" d="M0 0h95v95H0z"/>
    </clipPath>
  </defs>
</svg>
