<svg xmlns="http://www.w3.org/2000/svg" viewBox="0 0 128 128"><path d="M115.315 112.006 83.092 80.041c4.184-6.19 6.433-13.466 6.433-21.085 0-10.138-3.979-19.672-11.21-26.84C71.09 24.946 61.483 21 51.264 21c-10.22 0-19.832 3.947-27.058 11.115C16.98 39.283 13 48.818 13 58.956c0 10.137 3.98 19.668 11.21 26.84 7.225 7.169 16.833 11.12 27.057 11.12 7.765 0 15.18-2.283 21.464-6.525l32.191 31.932c1.087 1.078 3.086.843 4.462-.522l5.411-5.368c1.372-1.365 1.61-3.349.519-4.426l.001-.001ZM51.262 86.63c-15.385 0-27.898-12.412-27.898-27.674 0-15.258 12.517-27.674 27.898-27.674 15.382 0 27.898 12.416 27.898 27.674S66.648 86.63 51.262 86.63Z"/></svg>