<svg viewBox="0 0 128 128" xmlns="http://www.w3.org/2000/svg">
  <path fill-rule="evenodd" clip-rule="evenodd" d="M40.379 74.591c1.988 0 3.603 1.634 3.603 3.664a3.67 3.67 0 01-1.623 3.055 36.717 36.717 0 00-15.162 26.336c0 .004.004.004.004.004 0 2.023-1.615 3.66-3.603 3.66-1.992 0-3.6-1.637-3.6-3.66l-.03.015A44.014 44.014 0 0138.2 75.353a3.544 3.544 0 012.178-.762zm65.796 33.059l.057.658c-.015-.201-.045-.399-.064-.605-.035 1.996-1.627 3.607-3.596 3.607-1.988 0-3.603-1.642-3.603-3.66h-.007C97.172 89.098 81.804 74.599 63.1 74.591l-.015-.004c-.038 0-.065.004-.103.004-15.79 0-28.59-13.025-28.59-29.09 0-16.061 12.8-29.082 28.59-29.082.02 0 .038.004.05.004.015 0 .034-.004.053-.004 15.78 0 28.58 13.018 28.58 29.074 0 6.01-1.84 11.552-4.914 16.18-.03.049-.06.09-.091.14-.45.667-.922 1.314-1.428 1.939-.172.22-.355.426-.53.644-.457.533-.914 1.07-1.413 1.573-.358.373-.743.712-1.123 1.062a26.864 26.864 0 01-1.733 1.482c-.606.472-1.211.929-1.851 1.352-.114.072-.213.167-.328.236 15.09 5.762 26.154 19.835 27.826 36.746.053.259.095.525.095.803zm-43.09-40.402c.72 0 1.432-.042 2.137-.114C75.98 65.995 84.364 56.748 84.364 45.5c0-12.012-9.571-21.748-21.382-21.748-.72 0-1.436.038-2.137.107-10.759 1.139-19.15 10.39-19.15 21.633 0 12.012 9.575 21.754 21.39 21.754"/>
</svg>
