<?xml version="1.0" encoding="utf-8"?>
<!-- Generator: Adobe Illustrator 24.3.0, SVG Export Plug-In . SVG Version: 6.00 Build 0)  -->
<svg version="1.1" id="Layer_1" xmlns="http://www.w3.org/2000/svg" xmlns:xlink="http://www.w3.org/1999/xlink" x="0px" y="0px"
	 viewBox="0 0 935.4 935.4" style="enable-background:new 0 0 935.4 935.4;" xml:space="preserve">
<g id="Ikonit">
	<path d="M591,196.7V179h-70.4v-71.1H414.8V179h-70.4v17.7H215.9v630.8h503.7V196.7H591z M467.7,127.8c11.5,0,20.7,9.3,20.7,20.7
		c0,11.5-9.3,20.7-20.7,20.7c-11.5,0-20.7-9.3-20.7-20.7C447,137.1,456.2,127.8,467.7,127.8L467.7,127.8L467.7,127.8z M363.6,228.9
		h208.1v30.8H363.7L363.6,228.9z M687.4,795.4H248.1V228.9h96.4V279h246.6v-50.1h96.4L687.4,795.4z"/>
	<path d="M375,737.3h-96.5v-96.5H375V737.3z M295.2,720.6h63.1v-63.1h-63.1V720.6z"/>
	<rect x="429.4" y="680.7" width="218.1" height="16.7"/>
	<rect x="429.4" y="413.5" width="218.1" height="16.7"/>
	<path d="M402.6,385.4l-11.5-12.2L375,388.4v-14.8h-96.5v96.5H375v-58.7L402.6,385.4z M358.3,453.4h-63.1v-63.1h63.1v13.9l-20,18.9
		l-16.4-25.7l-14.2,9L335,449l23.2-21.9L358.3,453.4z"/>
	<rect x="429.4" y="547.8" width="218.1" height="16.7"/>
	<path d="M402.6,519.7l-11.5-12.2L375,522.7v-14.8h-96.5v96.5H375v-58.6L402.6,519.7z M358.3,587.7h-63.1v-63.1h63.1v13.9l-20,18.9
		l-16.4-25.7l-14.2,8.9l27.3,42.7l23.2-21.9L358.3,587.7z"/>
</g>
</svg>
