<?xml version="1.0" encoding="utf-8"?>
<!-- Generator: Adobe Illustrator 24.3.0, SVG Export Plug-In . SVG Version: 6.00 Build 0)  -->
<svg version="1.1" id="Layer_1" xmlns="http://www.w3.org/2000/svg" xmlns:xlink="http://www.w3.org/1999/xlink" x="0px" y="0px"
	 viewBox="0 0 935.4 935.4" style="enable-background:new 0 0 935.4 935.4;" xml:space="preserve">
<g id="Ikonit">
	<circle cx="276.9" cy="249.5" r="67.1"/>
	<path d="M521,483.7l-49.2-134.8c0,0-44.9-174.9-49.5-190.8c-4.3-15-15.5-27.1-30.2-32.6l-140.7-69l-0.3,61.8l112,59.7l21,110.9
		l-100.2,53.6c-15.7,7.7-19.1,16.5-22.5,24.3c-13.8,30.7-50.9,125.1-50.9,125.1s-9.6,31.8,16.1,48.3
		c23.1,14.7,124.1,37.2,155.9,46.9c-8.1,8-40.7,37-53.5,48.6c-25.6,23.1-26.4,56.2-26.4,56.2l-17.3,176l66.3,3.4l22.1-182.8
		l106.4-90.4l190.5,280.9l56.1-29.7L521,483.7z M272.6,500.1l40.8-73.1l64.3,106.7L272.6,500.1z"/>
</g>
</svg>
