<?xml version="1.0" encoding="utf-8"?>
<!-- Generator: Adobe Illustrator 24.3.0, SVG Export Plug-In . SVG Version: 6.00 Build 0)  -->
<svg version="1.1" id="Layer_1" xmlns="http://www.w3.org/2000/svg" xmlns:xlink="http://www.w3.org/1999/xlink" x="0px" y="0px"
	 viewBox="0 0 935.4 935.4" style="enable-background:new 0 0 935.4 935.4;" xml:space="preserve">
<g id="Ikonit">
	<circle cx="339.7" cy="303.1" r="64"/>
	<path d="M537.7,330.2c14.9,32,53,45.9,85,30.9c11.8-5.5,21.7-14.5,28.2-25.8c10,24,33,40,59,40.9c-1.1-29.9-22.1-55.4-51.2-62.3
		c0.6-3.6,0.9-7.2,0.9-10.8c0-35.3-28.7-64-64-64c-35.3,0-64,28.7-64,64c0,3.3,0.3,6.6,0.8,9.9c-31.2,5.1-54.5,31.5-55.6,63.1
		C504.8,375.2,529.1,356.8,537.7,330.2z"/>
	<path d="M746.5,463.2l-60.9-60.9c-13.7-13.7-32.3-21.4-51.7-21.4h-76.5c-19.4,0-38,7.7-51.7,21.4l-38,38l-38-38
		c-13.7-13.7-32.3-21.4-51.7-21.4h-76.5c-19.4,0-38,7.7-51.8,21.4l-60.9,60.9l22.9,54.9l73.1-73.1l-36.6,256h54.8l13.5-82.3
		c6-12.8,21.3-18.3,34-12.3c5.4,2.5,9.7,6.9,12.3,12.3l13.4,82.3h54.9l-36.6-256l73.1,73.1l0,0l73.1-73.1l-50.5,186.7h23.8
		l-9.9,69.4h54.9l11.3-69.6l25.2-0.1l25.2,0.1l11.3,69.6h54.9l-9.9-69.4h23.8l-50.5-186.7l73.1,73.1L746.5,463.2z"/>
</g>
</svg>
