<?xml version="1.0" encoding="utf-8"?>
<!-- Generator: Adobe Illustrator 24.3.0, SVG Export Plug-In . SVG Version: 6.00 Build 0)  -->
<svg version="1.1" id="Layer_1" xmlns="http://www.w3.org/2000/svg" xmlns:xlink="http://www.w3.org/1999/xlink" x="0px" y="0px"
	 viewBox="0 0 935.4 935.4" style="enable-background:new 0 0 935.4 935.4;" xml:space="preserve">
<g id="Ikonit">
	<rect x="442.7" y="99.5" width="48.9" height="71.7"/>
	<polygon points="307.8,138.6 266.8,164.6 306.7,224.8 347.8,198.7 	"/>
	<polygon points="175.4,269.1 155.5,312.8 222.5,342 242.5,298.3 	"/>
	<polygon points="137.1,449.1 144.8,496.3 217.3,485.1 209.6,437.9 	"/>
	<polygon points="205.4,620.4 238.1,656 292.7,608 259.9,572.5 	"/>
	<polygon points="708.6,643.9 739.3,606.7 682.3,561.6 651.5,598.8 	"/>
	<polygon points="720.2,472.2 793.2,479.7 798.3,432.2 725.3,424.7 	"/>
	<polygon points="772.7,297 750.5,254.4 685,287 707.3,329.6 	"/>
	<polygon points="653.6,154.7 611.2,130.8 574.5,192.9 616.9,216.8 	"/>
	<path d="M565.2,544.5c-4.8,3.6-9.9,7.1-15.2,10.3c-21.5,12.8-33.8,36.3-33.8,61v29.3h-97.9v-29.3c0-24.6-12.3-48.1-33.8-61
		c-5.2-3.2-10.3-6.7-15.1-10.3c-41.4-31.6-66.4-82.8-60.2-139.3c7.8-71.3,66.6-129.3,139.6-137.4c96-10.6,177.6,62.6,177.6,154.3
		C626.3,471.8,602.3,516,565.2,544.5 M453.7,219.3C352,225.6,268.5,305.4,260,404.7c-6.5,76.1,30,144.3,88.4,184
		c13.1,8.8,20.9,23.4,21,39.1v65v5.4v89.9l34.5,47.8h126.7l34.5-47.8V627.9c-0.1-15.5,7.6-30,20.4-38.7
		c54.2-36.7,89.8-97.9,89.8-167.1C675.2,305.5,574.7,211.9,453.7,219.3"/>
</g>
</svg>
