<?xml version="1.0" encoding="utf-8"?>
<!-- Generator: Adobe Illustrator 24.3.0, SVG Export Plug-In . SVG Version: 6.00 Build 0)  -->
<svg version="1.1" id="Layer_1" xmlns="http://www.w3.org/2000/svg" xmlns:xlink="http://www.w3.org/1999/xlink" x="0px" y="0px"
	 viewBox="0 0 935.4 935.4" style="enable-background:new 0 0 935.4 935.4;" xml:space="preserve">
<g id="Ikonit">
	<path d="M396.2,321.4v-47.5c-33,0-49.1-3.6-66-7.4c-18.8-4.2-38.2-8.5-76.4-8.5v47.5c33,0,49.1,3.6,66,7.4
		C338.6,317.1,358,321.4,396.2,321.4z"/>
	<path d="M736.7,424.2c-9.7,0-19.4,0.9-29,2.7l-51.7-148.5c-20.3-57.8-56.4-83.6-116.9-83.6h-39.8v47.5h39.9
		c40.7,0,58.3,12.6,72,51.8l20.5,58.9H311.7l-51.4,83.7c-80.5-34-173.3,3.7-207.4,84.2s3.7,173.3,84.2,207.4
		c80.5,34,173.3-3.7,207.4-84.2c5.1-12.1,8.7-24.8,10.7-37.9h1.2c58.5-0.2,112.7-30.6,143.5-80.3l34.6-56.4
		c24.7-40,67.1-65.5,114-68.7l14.5,41.7c-77.3,40.8-106.9,136.5-66.1,213.8S733.3,763,810.6,722.3c77.3-40.8,106.9-136.5,66.1-213.8
		C849.3,456.6,795.4,424.1,736.7,424.2L736.7,424.2z M198.8,693.2C137.6,693.2,88,643.7,88,582.5s49.5-110.8,110.7-110.8
		c12.4,0,24.7,2.1,36.5,6.1l-56.6,92.3l20.3,36H307C295.8,656.9,250.8,693.1,198.8,693.2z M307,558.7h-65.8l34.4-56
		C291.3,517.8,302.2,537.3,307,558.7L307,558.7z M494,444.7L459.5,501c-22.1,35.7-61,57.5-103,57.7h-1.2
		c-5.7-38-25.1-72.5-54.5-97.2l37.5-61.1h193.2C516.8,413.1,504.1,428,494,444.7L494,444.7z M736.8,693.2
		c-61.2,0.1-110.8-49.4-110.9-110.6c-0.1-38.6,20-74.5,52.9-94.6l35.5,102.1l44.8-15.6l-35.5-102.1c60.7-7.2,115.8,36.1,123.1,96.8
		c7.2,60.7-36.1,115.8-96.8,123.1C745.5,692.9,741.1,693.2,736.8,693.2L736.8,693.2z"/>
</g>
</svg>
