<?xml version="1.0" encoding="utf-8"?>
<!-- Generator: Adobe Illustrator 24.3.0, SVG Export Plug-In . SVG Version: 6.00 Build 0)  -->
<svg version="1.1" id="Layer_1" xmlns="http://www.w3.org/2000/svg" xmlns:xlink="http://www.w3.org/1999/xlink" x="0px" y="0px"
	 viewBox="0 0 935.4 935.4" style="enable-background:new 0 0 935.4 935.4;" xml:space="preserve">
<g id="Ikonit">
	<path d="M695.9,411.6c-6-8.2-6-19.3,0-27.4l4-5.4c23-30.8,28.2-71.5,13.5-107c-8.1-19.9-21.6-37-39.1-49.4
		c-9-6.4-19-11.4-29.5-14.8c-11.1-3.6-22.6-5.4-34.3-5.4c-4.2,0-8.5,0.2-12.7,0.7l-6.6,0.7c-0.8,0.1-1.7,0.1-2.6,0.1
		c-4.5,0-8.9-1.3-12.7-3.7c-3.8-2.5-6.8-6-8.6-10.1l-2.7-6.1c-8.9-20.5-23.9-37.9-43-49.7c-36.2-22.1-81.8-22.1-118,0
		c-19.1,11.8-34,29.1-43,49.7l-2.7,6.1c-1.8,4.1-4.8,7.6-8.6,10.1c-3.8,2.4-8.2,3.7-12.7,3.7c-0.8,0-1.7,0-2.5-0.1l-6.6-0.7
		c-4.2-0.4-8.4-0.7-12.6-0.7c-37.6,0-72.7,19.1-93,50.8c-11.7,18-17.9,39.1-18,60.6c0.1,23.5,7.7,46.4,21.8,65.2l3.9,5.4
		c6,8.2,6,19.3,0,27.4l-3.9,5.4c-23,30.8-28.2,71.5-13.5,107.1c8.1,19.9,21.7,37,39.1,49.5c9,6.4,19,11.4,29.5,14.8
		c11.1,3.6,22.6,5.4,34.3,5.4c4.2,0,8.4-0.2,12.6-0.7l6.7-0.7l0,0c0.8-0.1,1.7-0.1,2.5-0.1c4.5,0,8.9,1.3,12.7,3.7
		c3.8,2.5,6.8,6,8.6,10.1l2.7,6.1c8.9,20.5,23.9,37.8,42.9,49.5c9.6,5.9,20,10.2,30.9,13v143.2h56.3V674.7
		c10.9-2.8,21.3-7.1,30.8-13c19-11.8,34-29.1,43-49.7l2.7-6.1c1.8-4.1,4.8-7.7,8.6-10.1c3.8-2.4,8.2-3.7,12.7-3.7
		c0.9,0,1.7,0,2.5,0.1l6.6,0.7c4.2,0.4,8.4,0.7,12.7,0.7c15.4,0,30.6-3.1,44.7-9.4c40.2-18,66.2-57.9,66.4-102
		c-0.1-23.5-7.7-46.4-21.7-65.2L695.9,411.6z M650.4,351c-20.5,27.9-20.5,65.8,0,93.7l3.9,5.4c7,9.2,10.8,20.5,10.9,32.1
		c0,7.1-1.4,14.2-4.1,20.7c-4.1,10-10.8,18.6-19.6,24.8c-4.4,3.1-9.2,5.5-14.3,7.2c-5.4,1.7-11.1,2.6-16.8,2.6
		c-2.2,0-4.4-0.1-6.6-0.4l-6.6-0.7c-2.9-0.3-5.8-0.5-8.6-0.5c-31.5,0-60,18.5-72.8,47.3l-2.7,6.1c-4.3,10.2-11.7,18.8-21.1,24.6
		c-0.4,0.3-0.8,0.5-1.2,0.7V531l104.3-103.9l-39.8-39.7l-64.6,64.2v-70.2l66.8-66.6l-39.8-39.6l-55.2,54.9l-55.2-54.9l-39.8,39.7
		l66.8,66.6v70.2L370,387.4l-39.8,39.7l0,0L434.5,531v83.7c-0.4-0.2-0.8-0.4-1.2-0.7c-9.4-5.8-16.8-14.4-21.1-24.6l-2.7-6.1
		c-12.8-28.8-41.3-47.4-72.8-47.3c-2.9,0-5.8,0.2-8.7,0.5l-6.6,0.7c-2.2,0.2-4.3,0.4-6.5,0.4c-7.5,0-15-1.5-21.9-4.5
		c-9.8-4.4-18.1-11.5-23.9-20.6c-5.9-9-9-19.5-9.1-30.2c0-11.6,3.8-22.8,10.8-32.1l4-5.4c20.5-27.9,20.5-65.8,0-93.7l-3.9-5.4
		c-7-9.2-10.8-20.5-10.9-32.1c0-7.1,1.4-14.2,4.2-20.8c4-10,10.8-18.6,19.6-24.8c4.4-3.1,9.2-5.5,14.2-7.2
		c5.4-1.7,11.1-2.6,16.8-2.6c2.2,0,4.4,0.1,6.5,0.4l6.7,0.7c2.9,0.3,5.7,0.5,8.6,0.5c31.5,0.1,60-18.5,72.8-47.3l0,0l2.7-6.1
		c4.3-10.2,11.7-18.8,21.1-24.6c18.1-10.9,40.7-10.9,58.8,0c9.4,5.8,16.8,14.4,21.1,24.6l2.7,6.1c12.8,28.8,41.3,47.4,72.8,47.3
		c2.9,0,5.8-0.2,8.6-0.5l6.6-0.7c2.2-0.2,4.4-0.4,6.6-0.4c7.5-0.1,15,1.5,21.9,4.5c9.8,4.4,18.1,11.5,23.9,20.6c5.8,9,9,19.5,9,30.2
		c0,11.6-3.8,22.9-10.9,32.1L650.4,351z"/>
</g>
</svg>
