<svg viewBox="0 0 425 83" xmlns="http://www.w3.org/2000/svg">
  <g clip-path="url(#greenreality-white__clip0)" fill="#fff">
    <path d="M48.903 31.218V60.67c-6.089 2.945-13.159 5.105-21.408 5.105C14.926 65.774 0 60.473 0 35.538 0 10.602 14.926 5.3 27.495 5.3c7.07 0 13.552 1.767 19.443 3.927v9.817c-5.498-2.552-11.783-4.32-18.46-4.32-9.231 0-17.873 2.553-17.873 20.616 0 18.26 8.642 20.812 17.872 20.812 3.732 0 7.267-.589 10.41-1.57V40.446H24.941v-9.424h23.96v.196zm28.28-10.602v9.031c-5.891 0-9.82.982-11.39 1.571v33.77H55.187v-39.66c.197 0 9.624-4.516 21.996-4.712zm12.963 19.241h17.675c-.589-5.498-3.339-10.799-8.838-10.799-5.302 0-8.248 2.945-8.837 10.799zm25.924 13.351v8.443c-4.125 2.16-9.427 3.927-16.497 3.927-8.642 0-20.426-3.535-20.426-21.99 0-13.155 5.303-23.169 19.64-23.169 13.748 0 19.64 10.21 19.64 21.205 0 1.963 0 3.73-.197 5.498H90.146c.589 8.442 6.088 9.62 11.194 9.62 6.088 0 10.998-1.767 14.73-3.534zm17.283-13.351h17.675c-.589-5.498-3.339-10.799-8.838-10.799-5.302 0-8.248 2.945-8.837 10.799zm25.924 13.351v8.443c-4.125 2.16-9.427 3.927-16.497 3.927-8.642 0-20.426-3.535-20.426-21.99 0-13.155 5.303-23.169 19.64-23.169 13.748 0 19.64 10.21 19.64 21.205 0 1.963 0 3.73-.197 5.498h-28.084c.589 8.442 6.088 9.62 11.194 9.62 6.088 0 10.998-1.767 14.73-3.534zm46.938-14.529v26.31h-10.409V37.894c0-3.927-.785-8.05-10.409-8.05-2.946 0-5.695.392-8.248.785v34.36h-10.213V25.524c.393-.196 9.034-4.908 20.033-4.908 12.176 0 19.246 6.675 19.246 18.063zm11.588-17.082h2.749l.393 6.087h.393c4.124-1.963 7.463-3.338 10.212-4.516 2.75-1.178 5.107-1.963 7.463-2.16h1.179v3.535h-.982c-2.553.196-5.303.981-8.249 2.356-2.946 1.374-6.284 2.748-9.623 4.32V65.38h-3.339V21.597h-.196zm42.814 2.356c-5.106 0-8.838 1.571-11.391 4.516-2.553 2.945-3.928 7.461-4.321 13.548h28.281c-.196-3.142-.393-5.89-.982-8.247-.589-2.356-1.178-4.123-2.16-5.693-.982-1.375-2.357-2.553-3.732-3.142-1.571-.589-3.535-.982-5.695-.982zm.785 41.82c-6.481 0-11.587-1.766-14.926-5.497-3.338-3.73-5.106-9.031-5.106-16.1 0-7.657 1.571-13.35 4.91-17.277 3.339-3.927 8.052-5.89 14.337-5.89 5.106 0 9.034 1.57 11.784 4.908 2.749 3.338 4.124 8.05 4.124 14.53v2.944c0 .785-.196 1.375-.196 1.767h-31.424c.393 11.78 5.892 17.474 17.087 17.474 1.964 0 3.928-.196 6.088-.588a71.481 71.481 0 006.874-1.768l.393 2.945a35.192 35.192 0 01-6.874 1.768c-2.75.589-4.91.785-7.071.785zm32.799-3.533c2.356 0 4.909-.59 7.659-1.57 2.75-.983 5.695-2.553 9.034-4.517v-13.35l-10.802.98c-2.749.197-4.909.59-6.677 1.179-1.768.393-3.339 1.178-4.517 1.963-1.178.786-1.964 1.964-2.357 3.142-.393 1.178-.785 2.748-.785 4.516-.197 5.104 2.749 7.657 8.445 7.657zm-.59 3.141c-7.659 0-11.587-3.534-11.587-10.798 0-4.124 1.375-7.265 3.928-9.425 2.749-2.16 7.07-3.337 12.962-4.123l11.587-.982v-4.32c0-2.159-.196-3.926-.589-5.497-.393-1.57-.982-2.748-1.964-3.534-.982-.981-2.16-1.57-3.731-1.963-1.571-.393-3.535-.59-5.696-.59-2.16 0-4.124.197-6.284.393-1.964.197-4.517.59-7.267 1.179l-.393-3.142c2.946-.589 5.499-.982 7.66-1.178 2.16-.196 4.32-.393 6.481-.393 5.302 0 9.23 1.178 11.587 3.338 2.357 2.16 3.731 5.89 3.731 10.799v29.647h-2.749l-.393-5.694h-.589c-6.481 4.32-11.98 6.283-16.694 6.283zM327.981 0h-3.339v64.989h3.339V0zm10.801 21.597h3.339V64.99h-3.339V21.596zm1.572-10.406c-1.768 0-2.554-.785-2.554-2.552s.786-2.749 2.554-2.749c1.767 0 2.749.982 2.749 2.749 0 1.767-.982 2.552-2.749 2.552zm31.226 54.387c-7.463 0-11.194-3.73-11.194-11.388V24.739h-10.409v-3.142h10.409l.393-9.817 2.749-.392v10.21h14.534v3.14h-14.337v28.666c0 6.087 2.749 9.032 8.445 9.032 1.964 0 4.32-.393 6.677-.982v3.142c-2.749.785-5.303.982-7.267.982zm23.175 16.296v-.59l7.267-16.492-18.461-42.606v-.589h3.535l14.729 34.36 1.964 4.908h.393l1.964-4.908 15.515-34.36H425v.59l-27.495 60.669-2.75-.982z"/>
  </g>
  <defs>
    <clipPath id="greenreality-white__clip0">
      <path fill="#fff" d="M0 0h425v82.856H0z"/>
    </clipPath>
  </defs>
</svg>
