<svg fill="none" xmlns="http://www.w3.org/2000/svg" viewBox="0 0 256 256">
  <g clip-path="url(#icon__clip0)" fill="#000">
    <path d="M248.139 71.706v68.008c0 12.981-10.706 23.583-23.893 23.583H151.48c-8.741 0-17.015 3.155-23.48 8.999-6.465-5.793-14.739-8.999-23.48-8.999H31.6c-13.085 0-23.687-10.55-23.687-23.583V71.706h240.226zM131.879 178.76c5.223-5.223 12.205-8.119 19.652-8.119h72.715c17.221 0 31.237-13.86 31.237-30.927V64.31H.517v75.352c0 17.067 13.912 30.927 31.082 30.927h72.921c7.396 0 14.378 2.896 19.653 8.12l3.879 3.878 3.827-3.827z"/>
    <path d="M220.16 102.684c0 2.276-1.81 3.931-4.086 3.931-2.275 0-4.085-1.655-4.085-3.931 0-2.275 1.81-3.93 4.085-3.93 2.276-.104 4.086 1.551 4.086 3.93zm-7.654 32.117h7.085v-25.186h-7.085v25.186zm-12.723-15.205l9.258 15.205h-7.706l-6.206-10.085-3.362 4.241v5.844h-7.033V98.599h7.033v16.704c0 3.103-.362 6.206-.362 6.206h.155s1.655-2.741 3.052-4.706l5.378-7.188h8.275l-8.482 9.981zm-22.186-.931c0-6.258-3.052-9.671-7.913-9.671-4.137 0-6.309 2.431-7.551 4.758h-.155l.362-4.137h-7.033v25.186h7.033v-14.946c0-2.897 1.707-4.914 4.344-4.914 2.638 0 3.776 1.759 3.776 5.12v14.74h7.085l.052-16.136zm-29.065-15.981c0 2.276-1.81 3.931-4.086 3.931-2.275 0-4.086-1.655-4.086-3.931 0-2.275 1.811-3.93 4.086-3.93 2.327-.104 4.086 1.551 4.086 3.93zm-7.654 32.117h7.085v-25.186h-7.085v25.186zm-12.206-7.034c0-2.017-2.792-2.43-6.051-3.361-3.775-.983-8.533-2.897-8.533-7.706 0-4.758 4.551-7.758 9.93-7.758 5.016 0 9.619 2.379 11.533 5.741l-6.051 3.413c-.621-2.224-2.483-3.982-5.275-3.982-1.81 0-3.31.776-3.31 2.275 0 1.914 3.31 2.121 7.033 3.31 3.931 1.242 7.551 3.052 7.551 7.655 0 5.068-4.706 8.067-10.137 8.067-5.895 0-10.55-2.482-12.619-6.516l6.155-3.465c.776 2.741 2.999 4.81 6.361 4.81 2.017 0 3.413-.828 3.413-2.483zm-22.393-28.961h-7.085v29.013c0 2.586.569 4.499 1.655 5.689 1.137 1.189 2.896 1.758 5.326 1.758.828 0 1.707-.103 2.535-.258.879-.207 1.551-.466 2.12-.776l.621-4.758c-.569.207-1.035.362-1.5.414-.414.103-.931.103-1.5.103-.931 0-1.345-.258-1.655-.724-.362-.465-.517-1.293-.517-2.482v-27.98zm-23.583 15.256c-2.586 0-4.706 1.862-5.275 5.275h9.93c.051-2.999-1.914-5.275-4.655-5.275zm10.912 10.033h-16.29c.31 4.086 2.585 6.103 5.533 6.103 2.638 0 4.448-1.758 4.861-4.137l5.948 3.361c-1.758 3.207-5.534 5.999-10.809 5.999-7.034 0-12.205-4.913-12.205-13.187 0-8.224 5.275-13.188 12.05-13.188s11.274 4.809 11.274 11.636c-.052 2.017-.362 3.413-.362 3.413zm-36.047 10.706h7.344V100.15h-7.344v13.705H43.753v-13.653h-7.344v34.599h7.344v-14.326H57.56v14.326z"/>
  </g>
  <defs>
    <clipPath id="icon__clip0">
      <path fill="#fff" transform="translate(0 64)" d="M0 0h256v118.949H0z"/>
    </clipPath>
  </defs>
</svg>
