<svg viewBox="0 0 128 128" xmlns="http://www.w3.org/2000/svg">
  <path d="M95.706 26.176h-6.748v-2.292c0-2.01-1.593-3.634-3.563-3.634-1.97 0-3.563 1.624-3.563 3.634v2.292H66.087v-2.292c0-2.01-1.593-3.634-3.562-3.634-1.97 0-3.563 1.624-3.563 3.634v2.292h-15.84v-2.292c0-2.01-1.592-3.634-3.562-3.634-1.97 0-3.468 1.624-3.468 3.634v2.292h-6.748c-6.28 0-11.344 5.161-11.344 11.57v58.506c0 6.405 5.06 11.57 11.344 11.57H95.71c6.279 0 11.344-5.161 11.344-11.57l-.004-58.506c0-6.405-5.06-11.57-11.344-11.57zm-66.362 7.17h6.748v2.293c0 2.01 1.593 3.634 3.563 3.634 1.97 0 3.562-1.625 3.562-3.634v-2.293h15.84v2.293c0 2.01 1.593 3.634 3.562 3.634 1.97 0 3.563-1.625 3.563-3.634v-2.293h15.84v2.293c0 2.01 1.592 3.634 3.562 3.634 1.97 0 3.563-1.625 3.563-3.634v-2.293h6.748c2.344 0 4.314 2.01 4.314 4.4v6.789h-75.18v-6.79c0-2.487 1.97-4.399 4.314-4.399zm66.362 67.208H29.344c-2.344 0-4.314-2.009-4.314-4.399v-44.45h74.989v44.551c0 2.387-1.97 4.299-4.313 4.299v-.001z"/>
  <path d="M44.811 59.636h-8.532c-1.592 0-2.907 1.337-2.907 2.966v6.692c0 1.624 1.311 2.965 2.907 2.965h8.532c1.593 0 2.907-1.337 2.907-2.965v-6.692c-.003-1.722-1.314-2.965-2.907-2.965zm43.96 0H80.24c-1.593 0-2.907 1.337-2.907 2.966v6.692c0 1.624 1.31 2.965 2.907 2.965h8.531c1.593 0 2.908-1.337 2.908-2.965v-6.692c0-1.722-1.315-2.965-2.908-2.965zm-21.932 0h-8.532c-1.593 0-2.907 1.337-2.907 2.966v6.692c0 1.624 1.31 2.965 2.907 2.965h8.532c1.593 0 2.907-1.337 2.907-2.965v-6.692c-.095-1.722-1.41-2.965-2.907-2.965zM44.811 80.098h-8.532c-1.592 0-2.907 1.337-2.907 2.965v6.692c0 1.624 1.311 2.965 2.907 2.965h8.532c1.593 0 2.907-1.337 2.907-2.965v-6.692c-.003-1.628-1.314-2.965-2.907-2.965zm43.96 0H80.24c-1.593 0-2.907 1.337-2.907 2.965v6.692c0 1.624 1.31 2.965 2.907 2.965l8.531-.004c1.593 0 2.908-1.337 2.908-2.965V83.06c0-1.624-1.315-2.961-2.908-2.961zm-21.932 0h-8.532c-1.593 0-2.907 1.337-2.907 2.965v6.692c0 1.624 1.31 2.965 2.907 2.965h8.532c1.593 0 2.907-1.337 2.907-2.965v-6.692c-.095-1.628-1.41-2.965-2.907-2.965z"/>
</svg>
