<svg width="512" height="512" viewBox="0 0 512 512" fill="none" xmlns="http://www.w3.org/2000/svg"><path d="M256.5 68.776c-51.533 0-98.242 20.879-132.199 54.598-.148.185-.388.204-.536.388-.184.148-.203.351-.351.536-33.738 33.96-54.636 80.67-54.636 132.199 0 19.77 3.049 39.207 8.98 57.739 2.512 7.778 10.882 12.065 18.587 9.515 7.779-2.476 12.028-10.827 9.552-18.587-5.007-15.613-7.557-32.001-7.557-48.667 0-38.284 14.227-72.965 36.916-100.328l110.768 110.767a14.877 14.877 0 0010.476 4.342c1.884 0 3.806-.388 5.653-1.127 5.525-2.273 9.128-7.686 9.128-13.654V99.853c80.206 7.594 143.376 74.498 143.376 156.644 0 87.212-70.95 158.162-158.162 158.162-49.017 0-94.454-22.172-124.645-60.842-5.026-6.449-14.301-7.631-20.749-2.569-6.449 5.026-7.576 14.301-2.55 20.749 35.844 45.878 89.761 72.228 147.94 72.228 103.507 0 187.724-84.218 187.724-187.725 0-103.506-84.217-187.724-187.724-187.724h.009zm-100.328 66.48c23.761-19.678 53.118-32.334 85.547-35.401V220.82l-85.547-85.564z"/></svg>