<svg viewBox="0 0 128 128" xmlns="http://www.w3.org/2000/svg">
  <path d="M64 9.442C33.867 9.442 9.443 33.867 9.443 64c0 30.132 24.425 54.557 54.557 54.557S118.558 94.132 118.558 64c0-30.133-24.426-54.558-54.558-54.558zm0 100.023c-25.07 0-45.465-20.395-45.465-45.465 0-25.07 20.395-45.465 45.465-45.465 25.07 0 45.465 20.395 45.465 45.465 0 25.07-20.395 45.465-45.465 45.465z"/>
  <path d="M72.882 93.03c0 5.15-4 8.725-8.83 8.725s-8.935-3.575-8.935-8.725c0-5.25 4.1-8.728 8.935-8.728 4.835 0 8.83 3.47 8.83 8.728zm-.945-57.82c0 15.663-2.732 42.68-2.732 42.68H58.902s-2.735-27.017-2.735-42.68v-7.46h15.77v7.46z"/>
</svg>
