<svg viewBox="0 0 128 128" xmlns="http://www.w3.org/2000/svg">
  <path d="M64 11.5c-28.956 0-52.5 23.544-52.5 52.5 0 28.42 22.69 51.6 50.912 52.447.516.053 1.059.053 1.588.053.53 0 1.072 0 1.588-.053C93.81 115.6 116.5 92.419 116.5 64c0-28.956-23.544-52.5-52.5-52.5zm-3.386 7.515V35.21H48.44c.589-1.575 1.184-3.116 1.853-4.499 3.043-6.298 6.694-10.188 10.32-11.696zm6.774 0c3.625 1.508 7.277 5.398 10.32 11.696.668 1.383 1.264 2.924 1.853 4.498H67.388V19.015zm-19.212 2.117a44.162 44.162 0 00-3.97 6.668c-1.098 2.283-2.09 4.783-2.963 7.41H28.488a45.79 45.79 0 0119.688-14.078zm31.65 0A45.79 45.79 0 0199.513 35.21H86.76c-.874-2.627-1.866-5.127-2.964-7.41a44.146 44.146 0 00-3.97-6.668zm-55.94 20.85h15.453c-1.343 5.736-2.17 12.008-2.381 18.63H18.38a45.65 45.65 0 015.504-18.63zm22.439 0h14.29v18.63H43.731c.238-6.715 1.17-13.032 2.593-18.63zm21.065 0h14.29c1.422 5.598 2.354 11.915 2.592 18.63H67.39v-18.63zm21.274 0h15.454a45.642 45.642 0 015.504 18.63H91.046c-.212-6.622-1.04-12.894-2.382-18.63zM18.381 67.387h18.577c.212 6.615 1.045 12.9 2.381 18.629H23.886a45.581 45.581 0 01-5.505-18.629zm25.351 0h16.883v18.629h-14.29c-1.422-5.59-2.361-11.908-2.593-18.629zm23.658 0h16.883c-.232 6.721-1.171 13.039-2.594 18.629H67.39v-18.63zm23.657 0h18.577a45.58 45.58 0 01-5.504 18.629H88.666c1.336-5.729 2.17-12.014 2.382-18.629zM28.437 92.79h12.808c.88 2.64 1.86 5.114 2.964 7.409a44.612 44.612 0 004.022 6.722c-7.813-2.871-14.653-7.787-19.794-14.13zm20.005 0h12.172v16.248c-3.625-1.529-7.277-5.504-10.32-11.802-.668-1.383-1.263-2.871-1.852-4.446zm18.948 0h12.172c-.588 1.575-1.184 3.063-1.852 4.446-3.043 6.298-6.695 10.273-10.32 11.802V92.789zm19.37 0h12.808c-5.14 6.344-11.98 11.259-19.794 14.131a44.603 44.603 0 004.022-6.722c1.105-2.295 2.084-4.77 2.964-7.409z"/>
</svg>
