<svg viewBox="0 0 128 128" xmlns="http://www.w3.org/2000/svg">
  <path d="M63 50a9 9 0 100-18 9 9 0 000 18zm0-12a3 3 0 110 5.999A3 3 0 0163 38zm42 62.13l-12-39A3 3 0 0090 59h-5.85c1.415-4 2.312-8.163 2.67-12.39.11-.866.17-1.737.18-2.61a24 24 0 10-48 0c-.001.852.049 1.704.15 2.55A49.683 49.683 0 0041.85 59H36a3 3 0 00-3 2.13l-12 39a3 3 0 003 3.87h78a3.004 3.004 0 002.501-1.159 2.998 2.998 0 00.499-2.711zM63 26a18 18 0 0118 18c.04.66.04 1.32 0 1.98-1.05 15-12.81 31.65-18 38.1-5.04-6.45-16.8-23.07-18-38.25-.034-.61-.034-1.22 0-1.83a18 18 0 0118-18zM28.05 98l10.17-33h6a116.102 116.102 0 0016.53 25.98 2.999 2.999 0 004.53 0A116.127 116.127 0 0081.78 65h6l10.14 33H28.05z"/>
</svg>
