<svg viewBox="0 0 128 128" xmlns="http://www.w3.org/2000/svg">
  <path d="M112.124 100.11L82.638 70.624c3.829-5.71 5.887-12.422 5.887-19.45 0-9.351-3.641-18.147-10.257-24.76-6.612-6.612-15.404-10.253-24.756-10.253-9.351 0-18.147 3.641-24.76 10.253C22.14 33.028 18.5 41.822 18.5 51.175c0 9.351 3.641 18.143 10.257 24.76 6.613 6.612 15.405 10.257 24.76 10.257 7.105 0 13.89-2.106 19.642-6.02l29.456 29.457c.995.994 2.824.777 4.083-.482l4.952-4.952c1.256-1.259 1.473-3.089.475-4.083v-.001zM53.512 76.703c-14.08 0-25.529-11.45-25.529-25.53 0-14.074 11.454-25.528 25.529-25.528S79.04 37.1 79.04 51.174 67.591 76.703 53.512 76.703z"/>
</svg>
