<svg viewBox="0 0 128 128" xmlns="http://www.w3.org/2000/svg">
  <path d="M63.407 11.5c-28.642 0-51.906 23.585-51.906 52.5a4.38 4.38 0 004.375 4.438A4.38 4.38 0 0020.25 64c0-24.244 19.3-43.75 43.157-43.75 16.024 0 30.039 8.796 37.507 21.875H88.791a4.348 4.348 0 00-3.132 1.26 4.375 4.375 0 003.133 7.49h20.416a4.376 4.376 0 004.375-4.375V26.084a4.397 4.397 0 00-1.265-3.173 4.39 4.39 0 00-6.255.034 4.4 4.4 0 00-1.23 3.139v6.107C95.308 19.613 80.247 11.5 63.408 11.5zm48.672 48.035a4.384 4.384 0 00-3.099 1.327 4.4 4.4 0 00-1.231 3.139c0 24.244-19.299 43.749-43.157 43.749-16.07 0-30.146-8.818-37.597-21.965H39.21a4.371 4.371 0 003.133-1.259 4.399 4.399 0 001.304-3.116 4.379 4.379 0 00-4.437-4.375H18.792a4.376 4.376 0 00-4.375 4.375v20.416a4.387 4.387 0 001.23 3.133 4.362 4.362 0 003.1 1.333 4.37 4.37 0 003.156-1.298 4.387 4.387 0 001.264-3.168v-6.015c9.525 12.589 24.586 20.69 41.425 20.69 28.643 0 51.907-23.584 51.907-52.499a4.4 4.4 0 00-1.264-3.173 4.39 4.39 0 00-3.156-1.293v-.001z"/>
</svg>
