<?xml version="1.0" standalone="no"?>
<!DOCTYPE svg PUBLIC "-//W3C//DTD SVG 20010904//EN"
 "http://www.w3.org/TR/2001/REC-SVG-20010904/DTD/svg10.dtd">
<svg version="1.0" xmlns="http://www.w3.org/2000/svg"
 width="784.000000pt" height="784.000000pt" viewBox="0 0 784.000000 784.000000"
 preserveAspectRatio="xMidYMid meet">
<metadata>
Created by potrace 1.11, written by Peter Selinger 2001-2013
</metadata>
<g transform="translate(0.000000,784.000000) scale(0.100000,-0.100000)"
fill="#000000" stroke="none">
<path d="M343 4908 c1 -1613 6 -2953 11 -2978 4 -25 12 -65 17 -90 6 -25 13
-56 15 -70 19 -99 119 -338 189 -451 75 -118 246 -314 341 -389 197 -156 429
-262 679 -310 33 -6 139 -14 234 -16 96 -2 177 -5 180 -5 4 -1 11 0 16 1 6 1
39 2 75 1 36 -1 72 -2 80 -2 57 2 179 2 257 1 50 -1 96 1 102 5 6 3 11 2 11
-2 0 -5 15 -9 33 -9 39 0 163 -13 191 -19 12 -3 32 -7 46 -9 59 -10 187 -40
210 -49 14 -5 180 -60 190 -63 36 -9 231 -104 288 -141 29 -18 55 -33 59 -33
3 0 21 -11 39 -25 18 -14 35 -25 38 -25 3 0 14 -7 23 -14 10 -8 41 -32 69 -53
48 -35 141 -112 170 -140 17 -17 34 -16 34 2 0 8 4 15 9 15 6 0 23 12 38 26
45 43 172 138 264 197 186 122 493 250 674 283 11 2 54 10 95 18 172 32 231
35 770 40 206 2 389 6 405 10 17 3 41 7 55 9 35 5 132 27 150 34 8 3 23 8 32
9 21 5 165 62 192 77 12 6 28 12 36 13 8 2 16 8 18 13 2 6 9 11 15 11 14 0
161 93 184 115 8 8 18 15 23 15 5 0 60 51 123 113 110 109 188 206 254 315 31
51 104 197 109 217 2 6 15 44 29 85 15 41 28 82 30 90 1 8 8 35 15 60 7 25 14
54 15 65 13 90 17 118 21 175 4 49 8 5735 5 5798 -1 9 -724 12 -3581 12
l-3580 0 3 -2932z m6604 -267 c-1 -1450 -6 -2647 -10 -2661 -5 -14 -10 -36
-13 -50 -23 -119 -101 -290 -178 -390 -57 -74 -162 -177 -188 -186 -10 -3 -18
-9 -18 -14 0 -21 -217 -129 -295 -146 -120 -27 -191 -32 -533 -33 -424 -1
-570 -7 -668 -25 -11 -2 -39 -7 -64 -10 -25 -3 -56 -8 -70 -11 -14 -3 -34 -7
-45 -9 -11 -2 -42 -10 -70 -16 -27 -6 -61 -14 -74 -16 -14 -3 -28 -7 -33 -10
-4 -3 -17 -7 -28 -9 -41 -8 -260 -86 -327 -116 -107 -48 -243 -119 -301 -156
-29 -18 -56 -33 -61 -33 -5 0 -14 -6 -20 -14 -12 -14 -51 -11 -51 4 0 4 -8 10
-17 13 -10 4 -40 20 -68 36 -75 46 -235 128 -296 151 -30 12 -68 28 -86 37
-17 8 -37 16 -45 17 -7 2 -22 6 -33 10 -11 5 -38 15 -60 23 -22 8 -48 16 -57
18 -9 2 -51 13 -94 25 -42 12 -86 24 -98 26 -12 2 -32 6 -46 9 -48 10 -135 24
-177 30 -24 3 -60 7 -81 10 -41 6 -177 16 -202 16 -8 -1 -35 -1 -60 0 -25 0
-207 1 -405 3 -198 2 -371 6 -385 8 -21 4 -41 9 -102 24 -5 1 -10 3 -13 4 -3
1 -8 3 -12 4 -50 11 -124 46 -213 100 -53 32 -69 45 -155 131 -127 127 -213
276 -255 441 -11 43 -24 90 -27 104 -4 14 -9 1211 -10 2662 l-3 2636 3025 0
3025 0 -3 -2637z"/>
<path d="M4559 5785 c-1 0 -3 -279 -4 -620 -2 -341 -3 -623 -4 -626 -2 -11
-1250 -6 -1254 5 -2 6 -3 284 -3 618 1 398 -2 609 -9 611 -5 1 -154 3 -330 2
l-320 -1 -3 -1570 -2 -1570 332 1 333 0 0 642 c0 353 3 645 7 648 5 5 1067 10
1228 6 l25 -1 -1 -645 c0 -445 3 -645 10 -646 6 -1 156 -2 333 -3 l322 -1 -1
1572 0 1573 -26 1 c-19 0 -580 4 -633 4z"/>
</g>
</svg>
