<svg version="1.1" id="Layer_1" xmlns="http://www.w3.org/2000/svg" x="0" y="0" viewBox="0 0 91 90" xml:space="preserve"><style>.st0{fill-rule:evenodd;clip-rule:evenodd;fill:#ffc61e}.st1{fill:#06783b}</style><g id="actions-illustration"><circle id="Oval" class="st0" cx="48" cy="49" r="10"/><ellipse class="st0" cx="79" cy="44.5" rx="10" ry="9.5"/><ellipse class="st0" cx="34" cy="16.5" rx="18" ry="13.5"/><path id="Rectangle" class="st0" d="M3 64h15v23H3z"/><path class="st0" d="M32 67h20v9H32zM68 67h15v20H68z"/><circle class="st0" cx="11" cy="46" r="9"/><g id="np_group_1893244_000000"><path id="Shape" class="st1" d="M45 60.5c6.4 0 11.6-5.2 11.6-11.6 0-6.4-5.2-11.6-11.6-11.6-6.4 0-11.6 5.2-11.6 11.6.1 6.4 5.3 11.6 11.6 11.6zm0-19.2c4.2 0 7.6 3.4 7.6 7.6s-3.4 7.6-7.6 7.6-7.6-3.4-7.6-7.6c.1-4.2 3.5-7.6 7.6-7.6z"/><path class="st1" d="M78.4 60.5c6.4 0 11.6-5.2 11.6-11.6 0-6.4-5.2-11.6-11.6-11.6-6.4 0-11.6 5.2-11.6 11.6S72 60.5 78.4 60.5zm0-19.2c4.2 0 7.6 3.4 7.6 7.6s-3.4 7.6-7.6 7.6-7.6-3.4-7.6-7.6 3.4-7.6 7.6-7.6zM83.2 62h-6.3c-2.8 0-5.6 1.2-7.4 3.4l-5.2 6c-.7.8-1.7 1.3-2.7 1.4v-3c0-4.2-3.5-7.7-7.7-7.7h-1.2c-.7 0-.7 0-7.1 5.4l-6.5-5c-.4-.3-.9-.4-1.3-.4h-1.1c-4.2 0-7.7 3.5-7.7 7.7v3c-1.1-.1-2.1-.6-2.8-1.4l-5.2-6c-2.3-2.1-5-3.4-7.8-3.4H6.9C3.1 62 0 65.1 0 68.9v18.2c0 1.1.9 2 2 2s2-.9 2-2V68.9C4 67.3 5.3 66 6.8 66h6.3c1.7 0 3.3.7 4.4 2l5.2 6c1.6 1.8 3.8 2.8 6.2 2.8h4.9c.8 0 1.5.7 1.5 1.5s-.7 1.5-1.5 1.5h-8.4c-.6 0-1.1-.2-1.5-.6L18.1 74c-.8-.7-2.1-.7-2.8.1-.7.8-.7 2.1.1 2.8l1.7 1.6v8.6c0 1.1.9 2 2 2s2-.9 2-2v-4.9l.1.1c.6.6 1.4 1 2.2 1.3v3.6c0 1.1.9 2 2 2s2-.9 2-2V84h35v3.2c0 1.1.9 2 2 2s2-.9 2-2v-3.6c.8-.3 1.6-.7 2.2-1.3l.1-.1v4.9c0 1.1.9 2 2 2s2-.9 2-2v-8.6l1.7-1.6c.8-.7.9-2 .1-2.8-.7-.8-2-.9-2.8-.1L66 79.3c-.4.4-1 .6-1.5.6h-8.4c-.8 0-1.5-.7-1.5-1.5s.7-1.5 1.5-1.5H61c2.4 0 4.6-1 6.2-2.8l5.2-6c1.1-1.3 2.7-2 4.4-2h6.3c1.6 0 2.8 1.3 2.8 2.8v18.2c0 1.1.9 2 2 2s2-.9 2-2V68.9c.1-3.8-3-6.9-6.7-6.9zM50.5 78.4c0 .5.1 1 .2 1.5H39.2c.1-.5.2-1 .2-1.5 0-3-2.5-5.5-5.5-5.5h-1.3v-3.1c0-2 1.7-3.7 3.7-3.7h.6l7.3 5.6c.8.6 1.8.5 2.5-.1 0 0 4.8-4.1 6.4-5.5h.5c2.1 0 3.7 1.7 3.7 3.7v3.1h-1.4c-2.9-.1-5.4 2.4-5.4 5.5zM11.6 60.5c6.4 0 11.6-5.2 11.6-11.6 0-6.4-5.2-11.6-11.6-11.6C5.2 37.3 0 42.5 0 48.9c0 6.4 5.2 11.6 11.6 11.6zm0-19.2c4.2 0 7.6 3.4 7.6 7.6s-3.4 7.6-7.6 7.6S4 53.1 4 48.9s3.4-7.6 7.6-7.6zM21.3 37.4c.4.3.8.5 1.3.5.3 0 .6-.1.9-.2L34 32.3h3.5c8.6 0 15.7-7 15.7-15.7C53.2 8 46.2.9 37.5.9h-9.3c-8.6 0-15.7 7-15.7 15.7 0 6.3 3.7 11.8 9.3 14.3l-1.2 4.4c-.2.7.1 1.6.7 2.1zm-4.7-20.8c0-6.4 5.2-11.7 11.7-11.7h9.3c6.4 0 11.7 5.2 11.7 11.7 0 6.4-5.2 11.7-11.7 11.7h-4-.5c-.1 0-.1 0-.2.1-.1 0-.1.1-.2.1h-.1L25.7 32l.5-1.8V30v-.2-.2-.2-.2-.2c0-.1 0-.1-.1-.2 0-.1 0-.1-.1-.2 0-.1-.1-.1-.1-.2s-.1-.1-.1-.2-.1-.1-.1-.1l-.1-.1c-.1 0-.1-.1-.2-.1s-.1-.1-.2-.1-.1-.1-.2-.1-.1-.1-.2-.1c-4.8-1.3-8.2-5.9-8.2-11z"/><path id="Path" class="st1" d="M30.7 23.1c.4.4.9.6 1.4.6h.2c.6-.1 1.1-.4 1.5-.8L41 12.7c.6-.9.4-2.1-.5-2.8-.9-.6-2.1-.4-2.8.5l-5.9 8.2-4-4c-.8-.8-2-.8-2.8 0s-.8 2 0 2.8l5.7 5.7z"/></g></g></svg>