<?xml version="1.0" encoding="utf-8"?>
<!-- Generator: Adobe Illustrator 23.1.1, SVG Export Plug-In . SVG Version: 6.00 Build 0)  -->
<svg version="1.1" id="Layer_1" xmlns="http://www.w3.org/2000/svg" xmlns:xlink="http://www.w3.org/1999/xlink" x="0px" y="0px"
	 viewBox="0 0 91 90" style="enable-background:new 0 0 91 90;" xml:space="preserve">
<style type="text/css">
	.st0{fill-rule:evenodd;clip-rule:evenodd;fill:#FFC61E;}
	.st1{fill:#06783B;}
</style>
<title>actions-illustration</title>
<desc>Created with Sketch.</desc>
<g id="actions-illustration">
	<circle id="Oval" class="st0" cx="48" cy="49" r="10"/>
	<ellipse class="st0" cx="79" cy="44.5" rx="10" ry="9.5"/>
	<ellipse class="st0" cx="34" cy="16.5" rx="18" ry="13.5"/>
	<rect id="Rectangle" x="3" y="64" class="st0" width="15" height="23"/>
	<rect x="32" y="67" class="st0" width="20" height="9"/>
	<rect x="68" y="67" class="st0" width="15" height="20"/>
	<circle class="st0" cx="11" cy="46" r="9"/>
	<g id="np_group_1893244_000000">
		<path id="Shape" class="st1" d="M45,60.5c6.4,0,11.6-5.2,11.6-11.6c0-6.4-5.2-11.6-11.6-11.6c-6.4,0-11.6,5.2-11.6,11.6
			C33.5,55.3,38.7,60.5,45,60.5z M45,41.3c4.2,0,7.6,3.4,7.6,7.6s-3.4,7.6-7.6,7.6s-7.6-3.4-7.6-7.6C37.5,44.7,40.9,41.3,45,41.3z"
			/>
		<path class="st1" d="M78.4,60.5c6.4,0,11.6-5.2,11.6-11.6c0-6.4-5.2-11.6-11.6-11.6c-6.4,0-11.6,5.2-11.6,11.6S72,60.5,78.4,60.5z
			 M78.4,41.3c4.2,0,7.6,3.4,7.6,7.6s-3.4,7.6-7.6,7.6s-7.6-3.4-7.6-7.6S74.2,41.3,78.4,41.3z"/>
		<path class="st1" d="M83.2,62l-6.3,0c-2.8,0-5.6,1.2-7.4,3.4l-5.2,6c-0.7,0.8-1.7,1.3-2.7,1.4l0-3c0-4.2-3.5-7.7-7.7-7.7h-1.2
			c-0.7,0-0.7,0-7.1,5.4l-6.5-5c-0.4-0.3-0.9-0.4-1.3-0.4c-0.2,0-1.1,0-1.1,0c-4.2,0-7.7,3.5-7.7,7.7v3c-1.1-0.1-2.1-0.6-2.8-1.4
			l-5.2-6C18.7,63.3,16,62,13.2,62l-6.3,0C3.1,62,0,65.1,0,68.9v18.2c0,1.1,0.9,2,2,2s2-0.9,2-2V68.9C4,67.3,5.3,66,6.8,66l6.3,0
			c1.7,0,3.3,0.7,4.4,2l5.2,6c1.6,1.8,3.8,2.8,6.2,2.8h1.6h0h0h3.3c0.8,0,1.5,0.7,1.5,1.5c0,0.8-0.7,1.5-1.5,1.5h-8.4
			c-0.6,0-1.1-0.2-1.5-0.6L18.1,74c-0.8-0.7-2.1-0.7-2.8,0.1c-0.7,0.8-0.7,2.1,0.1,2.8l1.7,1.6v8.6c0,1.1,0.9,2,2,2c1.1,0,2-0.9,2-2
			l0-4.9l0.1,0.1c0.6,0.6,1.4,1,2.2,1.3v3.6c0,1.1,0.9,2,2,2c1.1,0,2-0.9,2-2v-3.2h6.4c0.1,0,0.2,0,0.3,0c0.1,0,0.2,0,0.3,0h21.1
			c0.1,0,0.2,0,0.3,0c0.1,0,0.2,0,0.2,0h6.4v3.2c0,1.1,0.9,2,2,2c1.1,0,2-0.9,2-2v-3.6c0.8-0.3,1.6-0.7,2.2-1.3l0.1-0.1v4.9
			c0,1.1,0.9,2,2,2c1.1,0,2-0.9,2-2l0-8.6l1.7-1.6c0.8-0.7,0.9-2,0.1-2.8c-0.7-0.8-2-0.9-2.8-0.1L66,79.3c-0.4,0.4-1,0.6-1.5,0.6
			h-8.4c-0.8,0-1.5-0.7-1.5-1.5c0-0.8,0.7-1.5,1.5-1.5h3.4h0h0H61c2.4,0,4.6-1,6.2-2.8l5.2-6c1.1-1.3,2.7-2,4.4-2l6.3,0
			c1.6,0,2.8,1.3,2.8,2.8v18.2c0,1.1,0.9,2,2,2c1.1,0,2-0.9,2-2l0-18.2C90,65.1,86.9,62,83.2,62L83.2,62z M50.5,78.4
			c0,0.5,0.1,1,0.2,1.5H39.2c0.1-0.5,0.2-1,0.2-1.5c0-3-2.5-5.5-5.5-5.5h-1.3v-3.1c0-2,1.7-3.7,3.7-3.7c0.2,0,0.4,0,0.6,0l7.3,5.6
			c0.8,0.6,1.8,0.5,2.5-0.1c0,0,4.8-4.1,6.4-5.5h0.5c2.1,0,3.7,1.7,3.7,3.7v3.1h-1.4C53,72.8,50.5,75.3,50.5,78.4L50.5,78.4z"/>
		<path class="st1" d="M11.6,60.5c6.4,0,11.6-5.2,11.6-11.6c0-6.4-5.2-11.6-11.6-11.6C5.2,37.3,0,42.5,0,48.9
			C0,55.3,5.2,60.5,11.6,60.5z M11.6,41.3c4.2,0,7.6,3.4,7.6,7.6s-3.4,7.6-7.6,7.6S4,53.1,4,48.9S7.4,41.3,11.6,41.3z"/>
		<path class="st1" d="M21.3,37.4c0.4,0.3,0.8,0.5,1.3,0.5c0.3,0,0.6-0.1,0.9-0.2L34,32.3h3.5c8.6,0,15.7-7,15.7-15.7
			c0-8.6-7-15.7-15.7-15.7h-9.3c-8.6,0-15.7,7-15.7,15.7c0,6.3,3.7,11.8,9.3,14.3l-1.2,4.4C20.4,36,20.7,36.9,21.3,37.4L21.3,37.4z
			 M16.6,16.6c0-6.4,5.2-11.7,11.7-11.7h9.3c6.4,0,11.7,5.2,11.7,11.7c0,6.4-5.2,11.7-11.7,11.7h-4c0,0,0,0-0.1,0
			c-0.1,0-0.1,0-0.2,0c-0.1,0-0.1,0-0.2,0c-0.1,0-0.1,0-0.2,0.1c-0.1,0-0.1,0.1-0.2,0.1c0,0,0,0-0.1,0L25.7,32l0.5-1.8
			c0-0.1,0-0.1,0-0.2c0-0.1,0-0.1,0-0.2c0-0.1,0-0.1,0-0.2c0-0.1,0-0.1,0-0.2c0-0.1,0-0.1,0-0.2c0-0.1,0-0.1,0-0.2
			c0-0.1,0-0.1-0.1-0.2c0-0.1,0-0.1-0.1-0.2c0-0.1-0.1-0.1-0.1-0.2c0-0.1-0.1-0.1-0.1-0.2c0-0.1-0.1-0.1-0.1-0.1
			c0,0-0.1-0.1-0.1-0.1c-0.1,0-0.1-0.1-0.2-0.1c-0.1,0-0.1-0.1-0.2-0.1c-0.1,0-0.1-0.1-0.2-0.1c-0.1,0-0.1-0.1-0.2-0.1
			C20,26.3,16.6,21.7,16.6,16.6L16.6,16.6z"/>
		<path id="Path" class="st1" d="M30.7,23.1c0.4,0.4,0.9,0.6,1.4,0.6c0.1,0,0.1,0,0.2,0c0.6-0.1,1.1-0.4,1.5-0.8L41,12.7
			c0.6-0.9,0.4-2.1-0.5-2.8c-0.9-0.6-2.1-0.4-2.8,0.5l-5.9,8.2l-4-4c-0.8-0.8-2-0.8-2.8,0s-0.8,2,0,2.8L30.7,23.1z"/>
	</g>
</g>
</svg>
