<svg xmlns="http://www.w3.org/2000/svg" viewBox="0 0 80 100"><defs><style>.a{fill:#fff}.b{fill:#009246}.c{fill:#ffd400}</style></defs><path class="a" d="M62.5 4.58H46.7a5.35 5.35 0 00-5.34 5.35V19a5.35 5.35 0 005.34 5.35h3.66L56.24 30v-5.7h6.26a5.36 5.36 0 005.35-5.3v-9a5.36 5.36 0 00-5.35-5.42z"/><path class="b" d="M56.24 31.53a1.55 1.55 0 01-1.05-.42l-5.44-5.28h-3A6.86 6.86 0 0139.86 19v-9a6.85 6.85 0 016.84-6.92h15.8a6.86 6.86 0 016.85 6.85V19a6.87 6.87 0 01-6.85 6.85h-4.76V30a1.49 1.49 0 01-.92 1.38 1.47 1.47 0 01-.58.15zM46.7 6.08a3.85 3.85 0 00-3.84 3.85V19a3.85 3.85 0 003.84 3.85h3.66a1.49 1.49 0 011 .42l3.34 3.23v-2.17a1.5 1.5 0 011.5-1.5h6.3A3.86 3.86 0 0066.35 19v-9a3.86 3.86 0 00-3.85-3.92z"/><path class="c" d="M26.89 97.27c0-1.83-.13-5.51-.08-9.79a14.77 14.77 0 00-2.73-8.76l-3.46-4.47-1.69-3.48-8.23-.83-.88.89a16.17 16.17 0 00-4.76 11.46v15z"/><circle class="a" cx="24.42" cy="13.86" r="9.47"/><path class="b" d="M24.42 24.83a11 11 0 1111-11 11 11 0 01-11 11zm0-18.93a8 8 0 108 8 8 8 0 00-8-8z"/><circle class="a" cx="15.48" cy="61.43" r="9.47"/><path class="b" d="M15.48 72.4a11 11 0 1111-11 11 11 0 01-11 11zm0-18.93a8 8 0 108 8 8 8 0 00-8-8z"/><path class="a" d="M49.12 14.63l3.38 4.57 7.45-8.82"/><path class="b" d="M52.5 20.7a1.48 1.48 0 01-1.16-.61l-3.38-4.57a1.49 1.49 0 01.32-2.09 1.51 1.51 0 012.1.31l2.24 3 6.18-7.32a1.5 1.5 0 012.29 1.93l-7.45 8.82a1.47 1.47 0 01-1.14.53zM5.07 98.42a1.5 1.5 0 01-1.5-1.5V82a17.62 17.62 0 015.18-12.58l.89-.89a1.5 1.5 0 012.12 2.13l-.88.88A14.63 14.63 0 006.57 82v15a1.5 1.5 0 01-1.5 1.42zM15.48 64.08a1.5 1.5 0 01-1.5-1.5v-2.29a1.5 1.5 0 013 0v2.29a1.5 1.5 0 01-1.5 1.5zM20.35 64.08a1.5 1.5 0 01-1.5-1.5v-2.29a1.5 1.5 0 013 0v2.29a1.5 1.5 0 01-1.5 1.5zM22 16.1a1.5 1.5 0 01-1.5-1.5v-2.3a1.5 1.5 0 013 0v2.3a1.5 1.5 0 01-1.5 1.5zM26.86 16.1a1.5 1.5 0 01-1.5-1.5v-2.3a1.5 1.5 0 113 0v2.3a1.5 1.5 0 01-1.5 1.5zM26.89 98.42a1.5 1.5 0 01-1.5-1.5v-2.36c0-1.92-.09-4.56-.05-7.45a13.23 13.23 0 00-2.45-7.87l-3.42-4.42A1.5 1.5 0 0121.81 73l3.46 4.48a16.18 16.18 0 013 9.69c0 2.84 0 5.45.05 7.36v2.41a1.5 1.5 0 01-1.43 1.48z"/><path class="c" d="M17.84 78.88l3 3.09a3.67 3.67 0 005.15.08l2.61-1.94 4.4 4.44-4.75 4.21a7 7 0 01-9.71.12l-5.72-5.38"/><path class="b" d="M23.3 92.3a8.49 8.49 0 01-5.82-2.3l-5.7-5.38a1.5 1.5 0 112.07-2.18l5.69 5.38a5.45 5.45 0 007.62-.1l6.6-6.56a1.59 1.59 0 00-1.08-2.73 1.62 1.62 0 00-1.15.45l-4.46 4.28a5.17 5.17 0 01-7.25-.16l-3.05-3.09a1.5 1.5 0 012.14-2.1l3 3.09A2.18 2.18 0 0025 81l4.45-4.28a4.71 4.71 0 013.31-1.28A4.64 4.64 0 0136 76.86a4.59 4.59 0 01-.12 6.4l-6.61 6.56a8.44 8.44 0 01-5.97 2.48z"/><path class="c" d="M52.93 78.94c0-1.83.14-5.51.08-9.79a14.81 14.81 0 012.73-8.75l3.46-4.48 1.69-3.47 8.24-.83.88.88A16.23 16.23 0 0174.76 64v15z"/><path class="b" d="M74.76 80.09a1.5 1.5 0 01-1.5-1.5v-15A14.63 14.63 0 0069 53.21l-.89-.88a1.5 1.5 0 112.13-2.12l.88.88a17.6 17.6 0 015.19 12.53v15a1.5 1.5 0 01-1.55 1.47zM52.94 80.09a1.5 1.5 0 01-1.5-1.5v-2.41c0-1.91.08-4.52 0-7.36a16.19 16.19 0 013-9.64L58 54.66a1.5 1.5 0 012.38 1.83L56.93 61a13.1 13.1 0 00-2.42 7.81v9.81a1.5 1.5 0 01-1.57 1.47z"/><path class="c" d="M62 60.55l-3 3.1a3.66 3.66 0 01-5.15.07l-2.61-1.93-4.33 4.43 4.76 4.21a7 7 0 009.7.13L67 65.18"/><path class="b" d="M56.52 74a8.45 8.45 0 01-6-2.47L44 64.94a4.59 4.59 0 013.11-7.86 4.38 4.38 0 013.31 1.28l4.46 4.28a2.18 2.18 0 003 0l3-3.09a1.5 1.5 0 112.14 2.11L60 64.7a5.19 5.19 0 01-7.26.1l-4.46-4.28a1.52 1.52 0 00-1.15-.44 1.58 1.58 0 00-1.12.5 1.6 1.6 0 000 2.23l6.6 6.56a5.45 5.45 0 007.62.09L66 64.09a1.5 1.5 0 112 2.18l-5.7 5.38A8.44 8.44 0 0156.52 74z"/><circle class="a" cx="63.42" cy="41.88" r="9.47"/><path class="b" d="M63.42 52.85a11 11 0 1111-11 11 11 0 01-11 11zm0-18.93a8 8 0 108 8 8 8 0 00-8-8z"/><path class="b" d="M58 44.53a1.5 1.5 0 01-1.5-1.5v-2.29a1.5 1.5 0 013 0V43a1.5 1.5 0 01-1.5 1.53zM62.9 44.53A1.5 1.5 0 0161.4 43v-2.26a1.5 1.5 0 013 0V43a1.5 1.5 0 01-1.5 1.53z"/><path class="c" d="M39.06 51.27l6.49-8.39a6.94 6.94 0 00-2-10.21l-12.18-7.19-1.84 1.83a7.41 7.41 0 01-10.49 0l-1.83-1.83L16 26.72a13.53 13.53 0 00-4 9.57v5.59L20.35 43h14.54L33 46.24z"/><path class="b" d="M34.89 44.53H8a1.5 1.5 0 110-3h26.89a1.5 1.5 0 010 3z"/><path class="b" d="M34.55 56A5.49 5.49 0 0130 47.46a.94.94 0 01.09-.12l7.24-8.67a1.5 1.5 0 012.3 1.93l-7.19 8.6a2.51 2.51 0 004.1 2.88L44.36 42a5.44 5.44 0 00-1.54-8l-11.21-6.6-1 1a8.92 8.92 0 01-12.61 0l-.77-.78-.18.18a11.94 11.94 0 00-3.53 8.51v5.59a1.5 1.5 0 01-3 0v-5.61a15 15 0 014.41-10.63l1.24-1.24a1.51 1.51 0 012.12 0l1.83 1.83a5.92 5.92 0 008.37 0l1.84-1.83a1.48 1.48 0 011.82-.23l12.21 7.19a8.43 8.43 0 012.37 12.42l-7.81 10.11A5.52 5.52 0 0134.55 56z"/></svg>