<?xml version="1.0" encoding="utf-8"?>
<!-- Generator: Adobe Illustrator 23.1.1, SVG Export Plug-In . SVG Version: 6.00 Build 0)  -->
<svg version="1.1" id="Layer_1" xmlns="http://www.w3.org/2000/svg" xmlns:xlink="http://www.w3.org/1999/xlink" x="0px" y="0px"
	 viewBox="0 0 100 100" style="enable-background:new 0 0 100 100;" xml:space="preserve">
<style type="text/css">
	.st0{fill-rule:evenodd;clip-rule:evenodd;fill:#FFC61E;}
	.st1{fill:#06783B;}
</style>
<title>indicators-illustration</title>
<desc>Created with Sketch.</desc>
<g id="indicators-illustration">
	<path id="Oval" class="st0" d="M52.1,23.5c17.1,0,35,15.4,35,34.5s-17.9,34.5-35,34.5S21.1,77,21.1,58S35,23.5,52.1,23.5z"/>
	<g id="np_meter_1340817_000000">
		<path id="Shape" class="st1" d="M50.5,82.5c-6.7,0-12.1-5.4-12.1-12.1c0-2.1,0.5-4.2,1.6-6l-2.5-19.5c-0.1-0.9,0.4-1.8,1.2-2.2
			c0.9-0.4,1.9-0.1,2.4,0.6l12.4,15.4c5.3,1.4,9.1,6.2,9.1,11.7C62.6,77,57.2,82.5,50.5,82.5L50.5,82.5z M42.5,51.5l1.7,13
			c0.1,0.5-0.1,1-0.3,1.4c-0.9,1.3-1.3,2.8-1.3,4.4c0,4.4,3.6,8,8,8c4.4,0,8-3.6,8-8c0-3.8-2.7-7.1-6.5-7.8
			c-0.5-0.1-0.9-0.4-1.2-0.7L42.5,51.5z"/>
		<path class="st1" d="M50,99.8c-13.3,0-25.8-5.2-35.2-14.6C5.3,75.8,0.2,63.3,0.2,50c0-13.3,5.2-25.8,14.6-35.2
			C24.2,5.3,36.7,0.2,50,0.2s25.8,5.2,35.2,14.6c9.4,9.4,14.6,21.9,14.6,35.2c0,13.3-5.2,25.8-14.6,35.2
			C75.8,94.7,63.3,99.8,50,99.8z M50,4.3c-12.2,0-23.7,4.8-32.3,13.4C9.1,26.3,4.3,37.8,4.3,50c0,12.2,4.8,23.7,13.4,32.3
			c8.6,8.6,20.1,13.4,32.3,13.4c12.2,0,23.7-4.8,32.3-13.4c8.6-8.6,13.4-20.1,13.4-32.3c0-12.2-4.8-23.7-13.4-32.3
			C73.7,9.1,62.2,4.3,50,4.3z M50,90.2c-10.7,0-20.8-4.2-28.5-11.8C13.9,70.8,9.8,60.8,9.8,50c0-10.8,4.2-20.9,11.8-28.5
			C29.2,13.9,39.3,9.8,50,9.8s20.9,4.2,28.5,11.8c7.6,7.6,11.8,17.7,11.8,28.5c0,10.7-4.2,20.8-11.8,28.4
			C70.8,86.1,60.7,90.2,50,90.2L50,90.2z M50,13.9c-9.6,0-18.7,3.8-25.5,10.6C17.7,31.3,13.9,40.4,13.9,50c0,9.6,3.8,18.7,10.6,25.5
			c6.8,6.8,15.9,10.6,25.5,10.6c9.6,0,18.7-3.8,25.5-10.6c6.8-6.8,10.6-15.9,10.6-25.5c0-9.6-3.8-18.7-10.6-25.5
			C68.7,17.7,59.6,13.9,50,13.9L50,13.9z"/>
		<path id="Path" class="st1" d="M50,28.1c-1.1,0-2.1-0.9-2.1-2.1v-5.1c0-1.1,0.9-2.1,2.1-2.1s2.1,0.9,2.1,2.1V26
			C52.1,27.1,51.2,28.1,50,28.1z"/>
		<path class="st1" d="M67.3,35.2c-0.5,0-1.1-0.2-1.5-0.6c-0.8-0.8-0.8-2.1,0-2.9l3.6-3.6c0.8-0.8,2.1-0.8,2.9,0s0.8,2.1,0,2.9
			l-3.6,3.6C68.4,35,67.8,35.2,67.3,35.2L67.3,35.2z"/>
		<path class="st1" d="M79.5,52.5h-5.1c-1.1,0-2.1-0.9-2.1-2.1s0.9-2.1,2.1-2.1h5.1c1.1,0,2.1,0.9,2.1,2.1
			C81.6,51.6,80.7,52.5,79.5,52.5z"/>
		<path class="st1" d="M25.5,52.5h-5.1c-1.1,0-2.1-0.9-2.1-2.1s0.9-2.1,2.1-2.1h5.1c1.1,0,2.1,0.9,2.1,2.1S26.7,52.5,25.5,52.5z"/>
		<path class="st1" d="M32.7,35.2c-0.5,0-1.1-0.2-1.5-0.6L27.7,31c-0.8-0.8-0.8-2.1,0-2.9s2.1-0.8,2.9,0l3.6,3.6
			c0.8,0.8,0.8,2.1,0,2.9C33.8,35,33.2,35.2,32.7,35.2L32.7,35.2z"/>
		<path class="st1" d="M58.8,29.7c-0.2,0-0.5,0-0.8-0.1c-1.1-0.4-1.6-1.6-1.2-2.7l1.8-4.7c0.4-1.1,1.6-1.6,2.7-1.2
			c1.1,0.4,1.6,1.6,1.2,2.7l-1.8,4.7C60.4,29.2,59.6,29.7,58.8,29.7L58.8,29.7z"/>
		<path class="st1" d="M72.4,42.6c-0.8,0-1.6-0.5-1.9-1.2c-0.5-1.1,0-2.3,1.1-2.8l4.6-2.1c1.1-0.5,2.3,0,2.8,1.1
			c0.5,1.1,0,2.3-1.1,2.8l-4.6,2.1C72.9,42.5,72.6,42.6,72.4,42.6L72.4,42.6z"/>
		<path class="st1" d="M27.2,43.7c-0.2,0-0.5,0-0.8-0.1l-4.7-1.8c-1.1-0.4-1.6-1.6-1.2-2.7c0.4-1.1,1.6-1.6,2.7-1.2l4.7,1.8
			c1.1,0.4,1.6,1.6,1.2,2.7C28.8,43.2,28,43.7,27.2,43.7L27.2,43.7z"/>
		<path class="st1" d="M40.1,30.2c-0.8,0-1.6-0.5-1.9-1.2l-2.1-4.6c-0.5-1.1,0-2.3,1.1-2.7c1-0.5,2.3,0,2.7,1.1l2.1,4.6
			c0.5,1.1,0,2.3-1.1,2.7C40.6,30.1,40.4,30.2,40.1,30.2L40.1,30.2z"/>
		<path class="st1" d="M50.5,76.4c-3.3,0-6-2.7-6-6s2.7-6,6-6s6,2.7,6,6S53.8,76.4,50.5,76.4L50.5,76.4z M50.5,67.7
			c-1.5,0-2.7,1.2-2.7,2.7s1.2,2.7,2.7,2.7s2.7-1.2,2.7-2.7S52,67.7,50.5,67.7z"/>
	</g>
</g>
</svg>
