<svg version="1.1" id="Layer_1" xmlns="http://www.w3.org/2000/svg" x="0" y="0" viewBox="0 0 100 100" xml:space="preserve"><style>.st1{fill:#06783b}</style><g id="indicators-illustration"><path id="Oval" d="M52.1 23.5c17.1 0 35 15.4 35 34.5s-17.9 34.5-35 34.5-31-15.5-31-34.5 13.9-34.5 31-34.5z" fill-rule="evenodd" clip-rule="evenodd" fill="#ffc61e"/><g id="np_meter_1340817_000000"><path id="Shape" class="st1" d="M50.5 82.5c-6.7 0-12.1-5.4-12.1-12.1 0-2.1.5-4.2 1.6-6l-2.5-19.5c-.1-.9.4-1.8 1.2-2.2.9-.4 1.9-.1 2.4.6l12.4 15.4c5.3 1.4 9.1 6.2 9.1 11.7 0 6.6-5.4 12.1-12.1 12.1zm-8-31l1.7 13c.1.5-.1 1-.3 1.4-.9 1.3-1.3 2.8-1.3 4.4 0 4.4 3.6 8 8 8s8-3.6 8-8c0-3.8-2.7-7.1-6.5-7.8-.5-.1-.9-.4-1.2-.7l-8.4-10.3z"/><path class="st1" d="M50 99.8c-13.3 0-25.8-5.2-35.2-14.6C5.3 75.8.2 63.3.2 50c0-13.3 5.2-25.8 14.6-35.2C24.2 5.3 36.7.2 50 .2s25.8 5.2 35.2 14.6c9.4 9.4 14.6 21.9 14.6 35.2 0 13.3-5.2 25.8-14.6 35.2-9.4 9.5-21.9 14.6-35.2 14.6zm0-95.5c-12.2 0-23.7 4.8-32.3 13.4C9.1 26.3 4.3 37.8 4.3 50c0 12.2 4.8 23.7 13.4 32.3 8.6 8.6 20.1 13.4 32.3 13.4 12.2 0 23.7-4.8 32.3-13.4 8.6-8.6 13.4-20.1 13.4-32.3 0-12.2-4.8-23.7-13.4-32.3C73.7 9.1 62.2 4.3 50 4.3zm0 85.9c-10.7 0-20.8-4.2-28.5-11.8C13.9 70.8 9.8 60.8 9.8 50c0-10.8 4.2-20.9 11.8-28.5C29.2 13.9 39.3 9.8 50 9.8S70.9 14 78.5 21.6c7.6 7.6 11.8 17.7 11.8 28.5 0 10.7-4.2 20.8-11.8 28.4-7.7 7.6-17.8 11.7-28.5 11.7zm0-76.3c-9.6 0-18.7 3.8-25.5 10.6-6.8 6.8-10.6 15.9-10.6 25.5s3.8 18.7 10.6 25.5c6.8 6.8 15.9 10.6 25.5 10.6s18.7-3.8 25.5-10.6c6.8-6.8 10.6-15.9 10.6-25.5s-3.8-18.7-10.6-25.5C68.7 17.7 59.6 13.9 50 13.9z"/><path id="Path" class="st1" d="M50 28.1c-1.1 0-2.1-.9-2.1-2.1v-5.1c0-1.1.9-2.1 2.1-2.1s2.1.9 2.1 2.1V26c0 1.1-.9 2.1-2.1 2.1z"/><path class="st1" d="M67.3 35.2c-.5 0-1.1-.2-1.5-.6-.8-.8-.8-2.1 0-2.9l3.6-3.6c.8-.8 2.1-.8 2.9 0s.8 2.1 0 2.9l-3.6 3.6c-.3.4-.9.6-1.4.6zM79.5 52.5h-5.1c-1.1 0-2.1-.9-2.1-2.1s.9-2.1 2.1-2.1h5.1c1.1 0 2.1.9 2.1 2.1 0 1.2-.9 2.1-2.1 2.1zM25.5 52.5h-5.1c-1.1 0-2.1-.9-2.1-2.1s.9-2.1 2.1-2.1h5.1c1.1 0 2.1.9 2.1 2.1s-.9 2.1-2.1 2.1zM32.7 35.2c-.5 0-1.1-.2-1.5-.6L27.7 31c-.8-.8-.8-2.1 0-2.9s2.1-.8 2.9 0l3.6 3.6c.8.8.8 2.1 0 2.9-.4.4-1 .6-1.5.6zM58.8 29.7c-.2 0-.5 0-.8-.1-1.1-.4-1.6-1.6-1.2-2.7l1.8-4.7c.4-1.1 1.6-1.6 2.7-1.2 1.1.4 1.6 1.6 1.2 2.7l-1.8 4.7c-.3.8-1.1 1.3-1.9 1.3zM72.4 42.6c-.8 0-1.6-.5-1.9-1.2-.5-1.1 0-2.3 1.1-2.8l4.6-2.1c1.1-.5 2.3 0 2.8 1.1s0 2.3-1.1 2.8l-4.6 2.1c-.4 0-.7.1-.9.1zM27.2 43.7c-.2 0-.5 0-.8-.1l-4.7-1.8c-1.1-.4-1.6-1.6-1.2-2.7.4-1.1 1.6-1.6 2.7-1.2l4.7 1.8c1.1.4 1.6 1.6 1.2 2.7-.3.8-1.1 1.3-1.9 1.3zM40.1 30.2c-.8 0-1.6-.5-1.9-1.2l-2.1-4.6c-.5-1.1 0-2.3 1.1-2.7 1-.5 2.3 0 2.7 1.1l2.1 4.6c.5 1.1 0 2.3-1.1 2.7-.3 0-.5.1-.8.1zM50.5 76.4c-3.3 0-6-2.7-6-6s2.7-6 6-6 6 2.7 6 6-2.7 6-6 6zm0-8.7c-1.5 0-2.7 1.2-2.7 2.7s1.2 2.7 2.7 2.7 2.7-1.2 2.7-2.7-1.2-2.7-2.7-2.7z"/></g></g></svg>