<svg xmlns="http://www.w3.org/2000/svg" viewBox="0 0 80 100"><defs><style>.a{fill:#fff}.b{fill:#009246}.c{fill:#ffd400}</style></defs><circle class="a" cx="29.29" cy="28.98" r="26.98"/><path class="b" d="M29.29 57.45A28.48 28.48 0 1157.76 29a28.51 28.51 0 01-28.47 28.45zm0-53.95A25.48 25.48 0 1054.76 29 25.51 25.51 0 0029.29 3.5z"/><rect class="c" x="39.56" y="62.7" width="36.55" height="33.39" rx="6.67"/><path class="b" d="M69.44 97.59H46.23a8.19 8.19 0 01-8.17-8.17v-20a8.19 8.19 0 018.17-8.17h23.21a8.19 8.19 0 018.17 8.17v20a8.19 8.19 0 01-8.17 8.17zM46.23 64.2a5.18 5.18 0 00-5.17 5.17v20a5.18 5.18 0 005.17 5.17h23.21a5.18 5.18 0 005.17-5.17v-20a5.18 5.18 0 00-5.17-5.17zM34.79 82.45H29.5A1.5 1.5 0 0128 81V62.13a1.5 1.5 0 113 0v17.32h3.79a1.5 1.5 0 110 3z"/><circle class="c" cx="29.29" cy="28.98" r="20.26"/><path class="b" d="M29.29 50.74A21.77 21.77 0 1151.05 29a21.79 21.79 0 01-21.76 21.74zm0-40.53A18.77 18.77 0 1048.05 29a18.79 18.79 0 00-18.76-18.79z"/><path class="b" d="M29.71 17.6a1.5 1.5 0 01-1.5-1.5v-5.31a1.5 1.5 0 013 0v5.31a1.5 1.5 0 01-1.5 1.5z"/><path class="a" d="M22.37 12.25l2.03 4.9"/><path class="b" d="M24.4 18.65a1.47 1.47 0 01-1.4-.92l-2-4.91a1.5 1.5 0 012.78-1.14l2 4.9a1.51 1.51 0 01-.81 2 1.49 1.49 0 01-.57.07z"/><path class="a" d="M16.15 16.41l3.75 3.75"/><path class="b" d="M19.9 21.66a1.51 1.51 0 01-1.06-.44l-3.75-3.75a1.5 1.5 0 112.12-2.12L21 19.1a1.5 1.5 0 01-1.06 2.56z"/><path class="a" d="M11.99 22.63l4.91 2.03"/><path class="b" d="M16.89 26.16a1.65 1.65 0 01-.57-.11l-4.9-2a1.5 1.5 0 011.15-2.77l4.9 2a1.5 1.5 0 01-.58 2.89z"/><path class="a" d="M10.53 29.97h5.31"/><path class="b" d="M15.84 31.47h-5.31a1.5 1.5 0 010-3h5.31a1.5 1.5 0 110 3z"/><path class="a" d="M43.58 29.97h5.31"/><path class="b" d="M48.89 31.47h-5.31a1.5 1.5 0 010-3h5.31a1.5 1.5 0 010 3z"/><path class="a" d="M42.52 24.66l4.91-2.03"/><path class="b" d="M42.52 26.16a1.48 1.48 0 01-1.38-.93 1.5 1.5 0 01.81-2l4.9-2A1.5 1.5 0 1148 24l-4.9 2a1.7 1.7 0 01-.58.16z"/><path class="a" d="M39.51 20.16l3.76-3.75"/><path class="b" d="M39.51 21.66a1.53 1.53 0 01-1.06-.44 1.51 1.51 0 010-2.12l3.76-3.75a1.5 1.5 0 012.12 2.12l-3.75 3.75a1.53 1.53 0 01-1.07.44z"/><path class="a" d="M35.02 17.15l2.03-4.9"/><path class="b" d="M35 18.65a1.44 1.44 0 01-.57-.11 1.5 1.5 0 01-.81-2l2-4.9a1.5 1.5 0 112.77 1.14l-2 4.91a1.5 1.5 0 01-1.39.96z"/><circle class="a" cx="29.88" cy="34.2" r="3.92"/><path class="b" d="M29.88 39.61a5.39 5.39 0 01-4.81-2.92 5.43 5.43 0 012.31-7.3 5.41 5.41 0 017.3 2.31 5.41 5.41 0 01-2.31 7.3 5.33 5.33 0 01-2.49.61zm0-7.83a2.41 2.41 0 00-1.1.27 2.36 2.36 0 00-1.19 1.42 2.4 2.4 0 00.15 1.84 2.43 2.43 0 001.42 1.19A2.42 2.42 0 0032 33.08a2.43 2.43 0 00-2.13-1.3z"/><path class="a" d="M28.07 30.72l-4.59-8.86"/><path class="b" d="M28.08 32.22a1.5 1.5 0 01-1.34-.81l-4.59-8.86a1.5 1.5 0 112.66-1.38l4.6 8.83a1.5 1.5 0 01-.64 2 1.47 1.47 0 01-.69.22z"/><path class="a" d="M56 87a1.53 1.53 0 01-1.16-.61l-4.74-6.33a1.5 1.5 0 012.41-1.78l3.57 4.83 9.14-10.82a1.5 1.5 0 012.29 1.94L57.15 86.49A1.52 1.52 0 0156 87z"/><path class="b" d="M56 85.31a1.53 1.53 0 01-1.16-.61l-4.74-6.35a1.5 1.5 0 112.41-1.79l3.57 4.83 9.14-10.82a1.5 1.5 0 012.29 1.94L57.15 84.78a1.54 1.54 0 01-1.15.53z"/></svg>