<?xml version="1.0" encoding="utf-8"?>
<!-- Generator: Adobe Illustrator 23.1.1, SVG Export Plug-In . SVG Version: 6.00 Build 0)  -->
<svg version="1.1" id="Layer_1" xmlns="http://www.w3.org/2000/svg" xmlns:xlink="http://www.w3.org/1999/xlink" x="0px" y="0px"
	 viewBox="0 0 516 145" style="enable-background:new 0 0 516 145;" xml:space="preserve">
<style type="text/css">
	.st0{fill-rule:evenodd;clip-rule:evenodd;fill:#06783B;stroke:#FFFFFF;stroke-width:2;}
	.st1{fill-rule:evenodd;clip-rule:evenodd;fill:#FFC61E;stroke:#FFFFFF;stroke-width:2;}
	.st2{fill-rule:evenodd;clip-rule:evenodd;fill:#2FAB69;stroke:#FFFFFF;stroke-width:2;}
	.st3{fill:none;stroke:#FFFFFF;stroke-width:2;stroke-linecap:square;}
	.st4{enable-background:new    ;}
	.st5{fill:#FFFFFF;}
	.st6{fill:#EBEDF1;}
	.st7{fill-rule:evenodd;clip-rule:evenodd;fill:#FFFFFF;}
	.st8{fill:#DEDFE1;}
</style>
<title>main-graph-horizontal</title>
<desc>Created with Sketch.</desc>
<g id="main-graph-horizontal">
	<rect id="Rectangle-Copy-16" x="2" y="43" class="st0" width="512" height="30"/>
	<rect id="Rectangle-Copy-17" x="142" y="43" class="st1" width="372" height="30"/>
	<rect id="Rectangle-Copy-18" x="429.5" y="43" class="st2" width="85" height="30"/>
	<path id="Line-Copy-6" class="st3" d="M140.5,145l0.5-62"/>
	<path id="Line-Copy-7" class="st3" d="M0.5,144L1,82"/>
	<path id="Line-Copy-8" class="st3" d="M428.5,144l0.5-62"/>
	<g class="st4">
		<path class="st5" d="M446.4,110.3c-2.2,4.2-3.4,8.3-3.9,12.7h-3.4c0.5-4.3,2.4-8.8,4.1-11.8h-4.3v3.3l-2.8-1.4v-4.6h10.3V110.3z"
			/>
		<path class="st5" d="M452.7,108.2c3.4,0,5.7,2.6,5.7,7.5s-2.3,7.6-5.7,7.6c-3.4,0-5.7-2.7-5.7-7.6S449.3,108.2,452.7,108.2z
			 M452.7,120.6c2,0,2.6-2.4,2.6-4.9s-0.6-4.8-2.6-4.8c-2,0-2.5,2.4-2.5,4.8S450.8,120.6,452.7,120.6z"/>
		<path class="st5" d="M460,114.2c0,0-0.2-0.6-0.2-1.4c0-2.8,2.3-4.6,5.1-4.6c2.8,0,4.9,1.7,4.9,4.5c0,4.3-5.3,6.3-5.9,7.6v0h5.8
			v2.7h-9.5c0,0-0.1-0.3-0.1-0.8c0-4.2,6.6-5.9,6.6-9.4c0-1.2-0.7-2-1.9-2c-1.3,0-2.1,1-2.1,2.6c0,1,0.2,1.7,0.4,2.2L460,114.2z"/>
	</g>
	<g class="st4">
		<path class="st5" d="M149.7,107.9c0,0-0.4-1.1-0.4-2.4c0-4.9,3.9-7.8,8.7-7.8c4.7,0,8.4,2.9,8.4,7.6c0,7.4-9.1,10.8-10,13v0.1h10
			v4.6h-16.3c0,0-0.1-0.6-0.1-1.3c0-7.3,11.3-10.2,11.3-16.1c0-2.1-1.3-3.5-3.3-3.5c-2.3,0-3.6,1.7-3.6,4.4c0,1.7,0.4,2.9,0.6,3.7
			L149.7,107.9z"/>
		<path class="st5" d="M176.8,117.5l4.9-2.7c0.3,2.3,1.5,4.1,4,4.1s3.8-2.1,3.8-4.6s-1.4-4.5-3.7-4.5c-2,0-3.2,1.4-3.7,2.8l-4.5-2.1
			l1.5-12.5h13.8v4.5h-9.6l-0.3,2.5c-0.2,1.5-0.5,3-0.5,3h0c0.9-1,2.5-2.1,4.7-2.1c4,0,7.4,3.1,7.4,8.4c0,5.5-3.7,9.1-8.8,9.1
			C181,123.4,177.8,120.8,176.8,117.5z"/>
		<path class="st5" d="M196.6,117.5l4.9-2.7c0.3,2.3,1.5,4.1,4,4.1s3.8-2.1,3.8-4.6s-1.4-4.5-3.7-4.5c-2,0-3.2,1.4-3.7,2.8l-4.5-2.1
			l1.5-12.5h13.8v4.5h-9.6l-0.3,2.5c-0.2,1.5-0.5,3-0.5,3h0c0.9-1,2.5-2.1,4.7-2.1c4,0,7.4,3.1,7.4,8.4c0,5.5-3.7,9.1-8.8,9.1
			C200.8,123.4,197.6,120.8,196.6,117.5z"/>
		<path class="st5" d="M217.2,118.4l4.6-2.7c0.3,1.8,1.3,3.5,3.6,3.5c3.1,0,4.1-2.7,4.3-7.2l-0.1,0c-1.1,1.7-3.2,2.6-5.4,2.6
			c-3.9,0-7.7-2.9-7.7-8.2c0-5.2,3.8-8.6,8.9-8.6c5.8,0,9.3,3.9,9.3,11.6c0,8.5-2.5,14.1-9.3,14.1
			C221.3,123.4,218.6,121.6,217.2,118.4z M225.4,110.6c2.5,0,4-1.8,4-4.4c0-2.6-1.5-4.4-4-4.4s-4,1.8-4,4.4
			C221.4,108.8,222.8,110.6,225.4,110.6z"/>
	</g>
	<g class="st4">
		<path class="st5" d="M8.6,119.8l2.8-1.6c0.2,1.4,0.9,2.4,2.4,2.4c1.4,0,2.2-1,2.2-2.4c0-1.3-0.9-2.3-2.2-2.3c-1,0-1.7,0.4-2.3,0.8
			l-1-2.5l3.9-3.2H9.2v-2.6h9.4v2.2l-2.7,2.2c-0.7,0.6-2,1.3-2,1.3l0,0.1c0,0,0.4-0.1,0.7-0.1c2.4,0,4.3,1.7,4.3,4.4
			c0,2.9-2.2,4.8-5.1,4.8C11.2,123.3,9.2,121.7,8.6,119.8z"/>
		<path class="st5" d="M24.9,119.8l2.8-1.6c0.2,1.3,0.9,2.4,2.3,2.4s2.2-1.2,2.2-2.7c0-1.5-0.8-2.6-2.2-2.6c-1.2,0-1.8,0.8-2.1,1.7
			l-2.6-1.2l0.9-7.3h8v2.6h-5.6l-0.2,1.4c-0.1,0.9-0.3,1.7-0.3,1.7h0c0.5-0.6,1.4-1.2,2.8-1.2c2.3,0,4.3,1.8,4.3,4.9
			c0,3.2-2.2,5.3-5.1,5.3C27.4,123.3,25.5,121.7,24.9,119.8z"/>
		<path class="st5" d="M39.1,112.1c-0.5,0.6-1.5,1.3-2.4,1.5l-1.2-2.6c1.7-0.4,3.4-1.4,4.4-2.5h2.3V123h-3v-8.7
			C39.1,113.3,39.2,112.1,39.1,112.1L39.1,112.1z"/>
		<path class="st5" d="M44.7,119.3l-0.7-1.8c1.5-2.6,2.5-5.4,2.5-9.3l2.8,1.4c-0.1,3.2-1.3,5.3-2.4,7.1h3.4v-8.3h2.9v8.3h1.7v2.6
			h-1.7v3.7h-2.9v-3.7H44.7z"/>
	</g>
	<g class="st4">
		<path class="st6" d="M10.2,134.4c-0.3,0.4-0.9,0.8-1.5,0.9l-0.6-1.1c1-0.3,2-0.9,2.4-1.5h1v8.3h-1.4v-5.3
			C10.2,135.1,10.2,134.4,10.2,134.4L10.2,134.4z"/>
		<path class="st6" d="M13.2,139.4l1.2-0.8c0.1,0.7,0.5,1.3,1.4,1.3c1.2,0,1.6-1.1,1.6-2.8l0,0c-0.4,0.6-1.1,1-1.9,1
			c-1.4,0-2.6-1-2.6-2.7c0-1.7,1.2-2.9,2.8-2.9c1.9,0,3,1.3,3,3.9c0,2.7-0.7,4.7-2.9,4.7C14.4,141.1,13.5,140.4,13.2,139.4z
			 M15.7,137.1c1,0,1.5-0.7,1.5-1.7c0-1-0.6-1.7-1.5-1.7c-1,0-1.5,0.7-1.5,1.7C14.2,136.4,14.8,137.1,15.7,137.1z"/>
		<path class="st6" d="M19.9,139.4l1.2-0.8c0.1,0.7,0.5,1.3,1.4,1.3c1.2,0,1.6-1.1,1.6-2.8l0,0c-0.4,0.6-1.1,1-1.9,1
			c-1.4,0-2.6-1-2.6-2.7c0-1.7,1.2-2.9,2.8-2.9c1.9,0,3,1.3,3,3.9c0,2.7-0.7,4.7-2.9,4.7C21.2,141.1,20.3,140.4,19.9,139.4z
			 M22.5,137.1c1,0,1.5-0.7,1.5-1.7c0-1-0.6-1.7-1.5-1.7c-1,0-1.5,0.7-1.5,1.7C21,136.4,21.6,137.1,22.5,137.1z"/>
		<path class="st6" d="M29.7,132.6c1.9,0,3.1,1.5,3.1,4.3c0,2.7-1.2,4.3-3.1,4.3c-1.9,0-3.1-1.6-3.1-4.3
			C26.6,134.1,27.8,132.6,29.7,132.6z M29.7,139.9c1.3,0,1.7-1.5,1.7-3.1s-0.4-3.1-1.7-3.1c-1.3,0-1.7,1.5-1.7,3.1
			S28.4,139.9,29.7,139.9z"/>
	</g>
	<g class="st4">
		<path class="st6" d="M148.8,136.1c0,0-0.2-0.4-0.2-1c0-1.6,1.2-2.6,2.7-2.6c1.5,0,2.6,1,2.6,2.5c0,2.6-3.1,3.8-3.6,4.7v0h3.6v1.2
			h-5.2c0,0,0-0.2,0-0.4c0-2.2,3.8-3.2,3.8-5.5c0-0.8-0.5-1.4-1.3-1.4c-0.9,0-1.4,0.6-1.4,1.6c0,0.6,0.1,1.1,0.3,1.4L148.8,136.1z"
			/>
		<path class="st6" d="M158,132.6c1.9,0,3.1,1.5,3.1,4.3c0,2.7-1.2,4.3-3.1,4.3c-1.9,0-3.1-1.6-3.1-4.3
			C154.9,134.1,156.1,132.6,158,132.6z M158,139.9c1.3,0,1.7-1.5,1.7-3.1s-0.4-3.1-1.7-3.1c-1.3,0-1.7,1.5-1.7,3.1
			S156.7,139.9,158,139.9z"/>
		<path class="st6" d="M163.7,134.4c-0.3,0.4-0.9,0.8-1.5,0.9l-0.6-1.1c1-0.3,2-0.9,2.4-1.5h1v8.3h-1.4v-5.3
			C163.7,135.1,163.7,134.4,163.7,134.4L163.7,134.4z"/>
		<path class="st6" d="M166.4,138.7c0-1.3,1-1.9,1.7-2.1v0c-0.6-0.3-1.4-0.8-1.4-1.8c0-1.3,1.1-2.2,2.7-2.2c1.5,0,2.7,0.9,2.7,2.2
			c0,1-0.7,1.5-1.4,1.8v0c0.7,0.2,1.7,0.8,1.7,2.1c0,1.5-1.3,2.5-3,2.5C167.8,141.1,166.4,140.2,166.4,138.7z M169.4,140
			c0.9,0,1.6-0.5,1.6-1.4s-0.8-1.4-1.6-1.4s-1.6,0.5-1.6,1.4S168.5,140,169.4,140z M169.4,136c0.8,0,1.4-0.5,1.4-1.2
			c0-0.7-0.6-1.2-1.4-1.2c-0.8,0-1.4,0.5-1.4,1.2C168,135.6,168.6,136,169.4,136z"/>
	</g>
	<polygon id="Triangle" class="st7" points="142,38 136,26 148,26 	"/>
	<g class="st4">
		<path class="st6" d="M436.8,136.1c0,0-0.2-0.4-0.2-1c0-1.6,1.2-2.6,2.7-2.6c1.5,0,2.6,1,2.6,2.5c0,2.6-3.1,3.8-3.6,4.7v0h3.6v1.2
			h-5.2c0,0,0-0.2,0-0.4c0-2.2,3.8-3.2,3.8-5.5c0-0.8-0.5-1.4-1.3-1.4c-0.9,0-1.4,0.6-1.4,1.6c0,0.6,0.1,1.1,0.3,1.4L436.8,136.1z"
			/>
		<path class="st6" d="M446,132.6c1.9,0,3.1,1.5,3.1,4.3c0,2.7-1.2,4.3-3.1,4.3c-1.9,0-3.1-1.6-3.1-4.3
			C442.9,134.1,444.1,132.6,446,132.6z M446,139.9c1.3,0,1.7-1.5,1.7-3.1s-0.4-3.1-1.7-3.1c-1.3,0-1.7,1.5-1.7,3.1
			S444.7,139.9,446,139.9z"/>
		<path class="st6" d="M449.9,139.1l1.3-0.7c0.1,0.9,0.6,1.6,1.5,1.6c0.9,0,1.5-0.7,1.5-1.6c0-0.9-0.6-1.6-1.5-1.6
			c-0.6,0-1,0.3-1.4,0.5l-0.5-1.1l2.6-2.2h-3.2v-1.2h5.1v1l-1.6,1.4c-0.4,0.3-1,0.8-1,0.8l0,0c0,0,0.2-0.1,0.5-0.1
			c1.4,0,2.5,1,2.5,2.5c0,1.7-1.2,2.8-2.8,2.8C451.2,141.1,450.2,140.2,449.9,139.1z"/>
		<path class="st6" d="M456.5,139.1l1.3-0.7c0.1,0.8,0.6,1.6,1.5,1.6c1,0,1.5-0.9,1.5-1.8s-0.6-1.8-1.5-1.8c-0.7,0-1.2,0.5-1.4,1.1
			l-1.2-0.6l0.5-4.2h4.3v1.2h-3.2l-0.1,1.1c-0.1,0.6-0.2,1-0.2,1l0,0c0.3-0.4,0.9-0.8,1.6-0.8c1.4,0,2.5,1.1,2.5,2.8
			c0,1.8-1.2,3-2.8,3C457.8,141.1,456.7,140.2,456.5,139.1z"/>
	</g>
	<g class="st4">
		<path class="st5" d="M11.2,9H5.4v6H2.3V0.5h3.1v5.8h5.8V0.5h3.1V15h-3.1V9z"/>
		<path class="st5" d="M19.1,10.5c0.1,1.7,1.1,2.6,2.3,2.6c1.1,0,1.9-0.7,2-1.7l2.5,1.4c-0.7,1.3-2.3,2.5-4.5,2.5
			c-3,0-5.1-2.1-5.1-5.5c0-3.4,2.2-5.5,5.1-5.5c2.8,0,4.7,2,4.7,4.9c0,0.9-0.1,1.4-0.1,1.4H19.1z M19.1,8.5h4.2c0-1.3-0.8-2.2-2-2.2
			C20.3,6.3,19.4,7.1,19.1,8.5z"/>
		<path class="st5" d="M27.9-0.2h3V15h-3V-0.2z"/>
		<path class="st5" d="M39.2,12.1c0-0.8-1.2-1-2.5-1.4c-1.6-0.4-3.6-1.2-3.6-3.2c0-2,1.9-3.3,4.2-3.3c2.1,0,4,1,4.9,2.4L39.6,8
			c-0.3-0.9-1-1.7-2.2-1.7c-0.8,0-1.4,0.3-1.4,0.9c0,0.8,1.4,0.9,3,1.4c1.7,0.5,3.2,1.3,3.2,3.2c0,2.1-2,3.4-4.3,3.4
			c-2.5,0-4.4-1-5.3-2.7l2.6-1.4c0.3,1.2,1.3,2,2.7,2C38.6,13.1,39.2,12.7,39.2,12.1z"/>
		<path class="st5" d="M47.1,1.5c0,1-0.8,1.7-1.7,1.7s-1.7-0.7-1.7-1.7c0-1,0.8-1.7,1.7-1.7S47.1,0.5,47.1,1.5z M43.9,4.4h3V15h-3
			V4.4z"/>
		<path class="st5" d="M58.7,15h-3V8.8c0-1.4-0.5-2.1-1.6-2.1s-1.8,0.8-1.8,2.1V15h-3V4.4h3l-0.1,1.7h0.1c0.5-1,1.4-2,3.2-2
			c2,0,3.3,1.4,3.3,4.1V15z"/>
		<path class="st5" d="M65.2,4.2c0.9,0,1.5,0.2,2.2,0.2c0.9,0,1.2-0.5,1.2-1.3c0-0.4-0.1-0.8-0.1-1l2.7,1.6c0,1.4-0.7,2-1.9,2
			c-0.3,0-0.7-0.1-0.8-0.1v0.1c0.6,0.5,1.3,1.2,1.3,2.4c0,2.1-2,3.4-4.5,3.4c-1.2,0-2.1,0.4-2.1,0.9c0,0.4,0.4,0.6,1.3,0.6
			c0.9,0,1.9-0.2,3-0.2c2.3,0,3.8,0.9,3.8,3c0,2.5-2.8,3.5-5.9,3.5c-2.9,0-5.5-0.8-5.5-2.7c0-1.1,1.2-1.8,2.2-2v-0.1
			c-0.8-0.3-1.5-0.8-1.5-1.7c0-1.2,1.2-1.8,2.5-2.1v-0.1c-1.2-0.5-2.1-1.4-2.1-3C60.8,5.6,62.7,4.2,65.2,4.2z M65.3,17.4
			c2,0,3.1-0.4,3.1-1.3c0-0.7-1-0.9-2.3-0.9c-1.3,0-3.8,0.1-3.8,1.1C62.3,17.1,63.6,17.4,65.3,17.4z M65.3,9.5c1,0,1.8-0.7,1.8-1.7
			s-0.8-1.7-1.8-1.7s-1.8,0.7-1.8,1.7S64.3,9.5,65.3,9.5z"/>
		<path class="st5" d="M75.6,1.5c0,1-0.8,1.7-1.7,1.7s-1.7-0.7-1.7-1.7c0-1,0.8-1.7,1.7-1.7S75.6,0.5,75.6,1.5z M72.4,4.4h3V15h-3
			V4.4z"/>
		<path class="st5" d="M87.2,15h-3V8.8c0-1.4-0.5-2.1-1.6-2.1s-1.8,0.8-1.8,2.1V15h-3V4.4h3l-0.1,1.7h0.1c0.5-1,1.4-2,3.2-2
			c2,0,3.3,1.4,3.3,4.1V15z"/>
		<path class="st5" d="M98.1,12.2L98.1,12.2c0.1,0,0.5-1.8,0.8-3.2l1.3-4.6h3L99.8,15h-3.5L92.9,4.4H96L97.3,9
			C97.6,10.4,98.1,12.2,98.1,12.2z"/>
		<path class="st5" d="M104.4,4.4h3v6.2c0,1.4,0.4,2.1,1.6,2.1s1.8-0.8,1.8-2V4.4h3V15h-3l0.1-1.7h-0.1c-0.5,1-1.4,2-3.1,2
			c-2,0-3.3-1.4-3.3-4.1V4.4z"/>
		<path class="st5" d="M115.6,9.7c0-3.4,2.2-5.5,5.1-5.5c2.9,0,5.1,2.1,5.1,5.5s-2.2,5.5-5.1,5.5C117.8,15.3,115.6,13.2,115.6,9.7z
			 M120.7,13c1.4,0,2.1-1.4,2.1-3.3s-0.7-3.3-2.1-3.3c-1.5,0-2.1,1.4-2.1,3.3S119.2,13,120.7,13z"/>
		<path class="st5" d="M133.4,12.1c0-0.8-1.2-1-2.5-1.4c-1.6-0.4-3.6-1.2-3.6-3.2c0-2,1.9-3.3,4.2-3.3c2.1,0,4,1,4.9,2.4L133.8,8
			c-0.3-0.9-1-1.7-2.2-1.7c-0.8,0-1.4,0.3-1.4,0.9c0,0.8,1.4,0.9,3,1.4c1.7,0.5,3.2,1.3,3.2,3.2c0,2.1-2,3.4-4.3,3.4
			c-2.5,0-4.4-1-5.3-2.7l2.6-1.4c0.3,1.2,1.3,2,2.7,2C132.9,13.1,133.4,12.7,133.4,12.1z"/>
		<path class="st5" d="M141.4,1.5c0,1-0.8,1.7-1.7,1.7s-1.7-0.7-1.7-1.7c0-1,0.8-1.7,1.7-1.7S141.4,0.5,141.4,1.5z M138.1,4.4h3V15
			h-3V4.4z"/>
		<path class="st5" d="M146.4,6.2c0.5-1,1.5-2,3.1-2c2.2,0,4.1,2.2,4.1,5.5s-1.9,5.5-4.1,5.5c-1.6,0-2.5-1-3-1.7h0v5.6h-3V4.4h3
			L146.4,6.2L146.4,6.2z M148.6,12.9c1.4,0,2.1-1.3,2.1-3.2s-0.8-3.2-2.1-3.2s-2.1,1.3-2.1,3.2S147.2,12.9,148.6,12.9z"/>
		<path class="st5" d="M157.5,8.5l-2.6-1.4c0.8-1.8,2.6-3,5-3c2.4,0,4.3,1.3,4.3,3.9v4.2c0,1.1,0,1.9,0.3,2.7h-2.2
			c-0.3-0.5-0.5-0.8-0.6-1.3h-0.1c-0.4,0.7-1.4,1.6-3,1.6c-1.9,0-3.3-1.2-3.3-3.1c0-2.4,2.2-3,3.9-3.3c1.4-0.3,2.3-0.5,2.3-1.2
			c0-0.7-0.7-1.2-1.5-1.2C158.6,6.4,157.8,7.3,157.5,8.5z M159.3,1.6c0,0.9-0.7,1.6-1.6,1.6c-0.9,0-1.6-0.7-1.6-1.6
			c0-0.9,0.7-1.6,1.6-1.6C158.6,0,159.3,0.7,159.3,1.6z M161.5,9.8c-0.3,0.4-0.9,0.6-1.7,0.8c-0.9,0.2-1.7,0.5-1.7,1.3
			c0,0.7,0.5,1.1,1.4,1.1c1,0,2-0.7,2-2V9.8z M163.4,1.6c0,0.9-0.7,1.6-1.6,1.6c-0.9,0-1.6-0.7-1.6-1.6c0-0.9,0.7-1.6,1.6-1.6
			C162.8,0,163.4,0.7,163.4,1.6z"/>
		<path class="st5" d="M168.5,8.5l-2.6-1.4c0.8-1.8,2.6-3,5-3c2.4,0,4.3,1.3,4.3,3.9v4.2c0,1.1,0,1.9,0.3,2.7h-2.2
			c-0.3-0.5-0.5-0.8-0.6-1.3h-0.1c-0.4,0.7-1.4,1.6-3,1.6c-1.9,0-3.3-1.2-3.3-3.1c0-2.4,2.2-3,3.9-3.3c1.4-0.3,2.3-0.5,2.3-1.2
			c0-0.7-0.7-1.2-1.5-1.2C169.6,6.4,168.8,7.3,168.5,8.5z M170.2,1.6c0,0.9-0.7,1.6-1.6,1.6c-0.9,0-1.6-0.7-1.6-1.6
			c0-0.9,0.7-1.6,1.6-1.6C169.6,0,170.2,0.7,170.2,1.6z M172.4,9.8c-0.3,0.4-0.9,0.6-1.7,0.8c-0.9,0.2-1.7,0.5-1.7,1.3
			c0,0.7,0.5,1.1,1.4,1.1c1,0,2-0.7,2-2V9.8z M174.4,1.6c0,0.9-0.7,1.6-1.6,1.6c-0.9,0-1.6-0.7-1.6-1.6c0-0.9,0.7-1.6,1.6-1.6
			C173.7,0,174.4,0.7,174.4,1.6z"/>
		<path class="st5" d="M183.4,12.1c0-0.8-1.2-1-2.5-1.4c-1.6-0.4-3.6-1.2-3.6-3.2c0-2,1.9-3.3,4.2-3.3c2.1,0,4,1,4.9,2.4L183.8,8
			c-0.3-0.9-1-1.7-2.2-1.7c-0.8,0-1.4,0.3-1.4,0.9c0,0.8,1.4,0.9,3,1.4c1.7,0.5,3.2,1.3,3.2,3.2c0,2.1-2,3.4-4.3,3.4
			c-2.5,0-4.4-1-5.3-2.7l2.6-1.4c0.3,1.2,1.3,2,2.7,2C182.8,13.1,183.4,12.7,183.4,12.1z"/>
		<path class="st5" d="M194.5,14.3c-0.4,0.3-1.3,0.9-2.6,0.9c-1.8,0-3-0.9-3-3.2V6.7h-1.7V4.4h1.7V2.3l2.9-1.6v3.8h2.4v2.3h-2.4v5.1
			c0,0.8,0.3,1.1,0.7,1.1c0.4,0,0.7-0.4,0.8-0.7L194.5,14.3z"/>
		<path class="st5" d="M195.2,9.7c0-3.4,2.2-5.5,5.1-5.5c2.9,0,5.1,2.1,5.1,5.5s-2.2,5.5-5.1,5.5C197.4,15.3,195.2,13.2,195.2,9.7z
			 M199.8,1.6c0,0.9-0.7,1.6-1.6,1.6c-0.9,0-1.6-0.7-1.6-1.6c0-0.9,0.7-1.6,1.6-1.6C199.1,0,199.8,0.7,199.8,1.6z M200.3,13
			c1.4,0,2.1-1.4,2.1-3.3s-0.7-3.3-2.1-3.3c-1.5,0-2.1,1.4-2.1,3.3S198.8,13,200.3,13z M204,1.6c0,0.9-0.7,1.6-1.6,1.6
			c-0.9,0-1.6-0.7-1.6-1.6c0-0.9,0.7-1.6,1.6-1.6C203.3,0,204,0.7,204,1.6z"/>
		<path class="st5" d="M213.2,14.3c-0.4,0.3-1.3,0.9-2.6,0.9c-1.8,0-3-0.9-3-3.2V6.7h-1.7V4.4h1.7V2.3l2.9-1.6v3.8h2.4v2.3h-2.4v5.1
			c0,0.8,0.3,1.1,0.7,1.1c0.4,0,0.7-0.4,0.8-0.7L213.2,14.3z"/>
		<path class="st5" d="M225.5,14.3c-0.4,0.3-1.3,0.9-2.6,0.9c-1.8,0-3-0.9-3-3.2V6.7h-1.7V4.4h1.7V2.3l2.9-1.6v3.8h2.4v2.3h-2.4v5.1
			c0,0.8,0.3,1.1,0.7,1.1c0.4,0,0.7-0.4,0.8-0.7L225.5,14.3z"/>
		<path class="st5" d="M229,8.5l-2.6-1.4c0.8-1.8,2.6-3,5-3c2.4,0,4.3,1.3,4.3,3.9v4.2c0,1.1,0,1.9,0.3,2.7h-2.2
			c-0.3-0.5-0.5-0.8-0.6-1.3H233c-0.4,0.7-1.4,1.6-3,1.6c-1.9,0-3.3-1.2-3.3-3.1c0-2.4,2.2-3,3.9-3.3c1.4-0.3,2.3-0.5,2.3-1.2
			c0-0.7-0.7-1.2-1.5-1.2C230.1,6.4,229.3,7.3,229,8.5z M230.7,1.6c0,0.9-0.7,1.6-1.6,1.6c-0.9,0-1.6-0.7-1.6-1.6
			c0-0.9,0.7-1.6,1.6-1.6C230.1,0,230.7,0.7,230.7,1.6z M232.9,9.8c-0.3,0.4-0.9,0.6-1.7,0.8c-0.9,0.2-1.7,0.5-1.7,1.3
			c0,0.7,0.5,1.1,1.4,1.1c1,0,2-0.7,2-2V9.8z M234.9,1.6c0,0.9-0.7,1.6-1.6,1.6c-0.9,0-1.6-0.7-1.6-1.6c0-0.9,0.7-1.6,1.6-1.6
			C234.2,0,234.9,0.7,234.9,1.6z"/>
		<path class="st5" d="M238-0.2h3V15h-3V-0.2z"/>
		<path class="st5" d="M243.5-0.2h3V15h-3V-0.2z"/>
		<path class="st5" d="M250.8,8.5l-2.6-1.4c0.8-1.8,2.6-3,5-3c2.4,0,4.3,1.3,4.3,3.9v4.2c0,1.1,0,1.9,0.3,2.7h-2.2
			c-0.3-0.5-0.5-0.8-0.6-1.3h-0.1c-0.4,0.7-1.4,1.6-3,1.6c-1.9,0-3.3-1.2-3.3-3.1c0-2.4,2.2-3,3.9-3.3c1.4-0.3,2.3-0.5,2.3-1.2
			c0-0.7-0.7-1.2-1.5-1.2C251.9,6.4,251.1,7.3,250.8,8.5z M252.6,1.6c0,0.9-0.7,1.6-1.6,1.6c-0.9,0-1.6-0.7-1.6-1.6
			c0-0.9,0.7-1.6,1.6-1.6C251.9,0,252.6,0.7,252.6,1.6z M254.8,9.8c-0.3,0.4-0.9,0.6-1.7,0.8c-0.9,0.2-1.7,0.5-1.7,1.3
			c0,0.7,0.5,1.1,1.4,1.1c1,0,2-0.7,2-2V9.8z M256.7,1.6c0,0.9-0.7,1.6-1.6,1.6c-0.9,0-1.6-0.7-1.6-1.6c0-0.9,0.7-1.6,1.6-1.6
			C256.1,0,256.7,0.7,256.7,1.6z"/>
		<path class="st5" d="M273.9,15h-3V8.8c0-1.4-0.5-2.1-1.6-2.1s-1.8,0.8-1.8,2.1V15h-3V-0.2h3v3.8c0,1.3-0.1,2.6-0.1,2.6h0.1
			c0.5-1,1.4-2,3.2-2c2,0,3.3,1.4,3.3,4.1V15z"/>
		<path class="st5" d="M278.6,10.5c0.1,1.7,1.1,2.6,2.3,2.6c1.1,0,1.9-0.7,2-1.7l2.5,1.4c-0.7,1.3-2.3,2.5-4.5,2.5
			c-3,0-5.1-2.1-5.1-5.5c0-3.4,2.2-5.5,5.1-5.5c2.8,0,4.7,2,4.7,4.9c0,0.9-0.1,1.4-0.1,1.4H278.6z M278.6,8.5h4.2
			c0-1.3-0.8-2.2-2-2.2C279.7,6.3,278.8,7.1,278.6,8.5z"/>
		<path class="st5" d="M293.7,14.3c-0.4,0.3-1.3,0.9-2.6,0.9c-1.8,0-3-0.9-3-3.2V6.7h-1.7V4.4h1.7V2.3l2.9-1.6v3.8h2.4v2.3H291v5.1
			c0,0.8,0.3,1.1,0.7,1.1c0.4,0,0.7-0.4,0.8-0.7L293.7,14.3z"/>
		<path class="st5" d="M301.3,8.6l3.9,6.4h-3.2l-2.6-4.2l-1.4,1.8V15h-3V-0.2h3v7c0,1.3-0.1,2.6-0.1,2.6h0.1c0,0,0.7-1.2,1.3-2
			l2.3-3h3.5L301.3,8.6z"/>
		<path class="st5" d="M308.2,10.5c0.1,1.7,1.1,2.6,2.3,2.6c1.1,0,1.9-0.7,2-1.7l2.5,1.4c-0.7,1.3-2.3,2.5-4.5,2.5
			c-3,0-5.1-2.1-5.1-5.5c0-3.4,2.2-5.5,5.1-5.5c2.8,0,4.7,2,4.7,4.9c0,0.9-0.1,1.4-0.1,1.4H308.2z M308.3,8.5h4.2
			c0-1.3-0.8-2.2-2-2.2C309.4,6.3,308.5,7.1,308.3,8.5z"/>
		<path class="st5" d="M317.1-0.2h3V15h-3V-0.2z"/>
		<path class="st5" d="M322.5-0.2h3V15h-3V-0.2z"/>
		<path class="st5" d="M329.8,8.5l-2.6-1.4c0.8-1.8,2.6-3,5-3c2.4,0,4.3,1.3,4.3,3.9v4.2c0,1.1,0,1.9,0.3,2.7h-2.2
			c-0.3-0.5-0.5-0.8-0.6-1.3h-0.1c-0.4,0.7-1.4,1.6-3,1.6c-1.9,0-3.3-1.2-3.3-3.1c0-2.4,2.2-3,3.9-3.3c1.4-0.3,2.3-0.5,2.3-1.2
			c0-0.7-0.7-1.2-1.5-1.2C331,6.4,330.1,7.3,329.8,8.5z M331.6,1.6c0,0.9-0.7,1.6-1.6,1.6c-0.9,0-1.6-0.7-1.6-1.6
			c0-0.9,0.7-1.6,1.6-1.6C330.9,0,331.6,0.7,331.6,1.6z M333.8,9.8c-0.3,0.4-0.9,0.6-1.7,0.8c-0.9,0.2-1.7,0.5-1.7,1.3
			c0,0.7,0.5,1.1,1.4,1.1c1,0,2-0.7,2-2V9.8z M335.8,1.6c0,0.9-0.7,1.6-1.6,1.6c-0.9,0-1.6-0.7-1.6-1.6c0-0.9,0.7-1.6,1.6-1.6
			C335.1,0,335.8,0.7,335.8,1.6z"/>
	</g>
	<g class="st4">
		<path class="st6" d="M244.9,118.3l2.3,3.7h-1.5l-1.7-2.7l-1,1.2v1.5h-1.3v-8.7h1.3v4.2c0,0.7-0.1,1.5-0.1,1.5h0
			c0,0,0.4-0.7,0.8-1.1l1.6-1.9h1.6L244.9,118.3z"/>
		<path class="st6" d="M251.3,121.6c-0.2,0.2-0.7,0.6-1.4,0.6c-0.9,0-1.6-0.4-1.6-1.7V117h-1V116h1v-1.3l1.3-0.8v2.1h1.5v1.1h-1.5
			v3.3c0,0.5,0.2,0.7,0.5,0.7c0.3,0,0.5-0.3,0.6-0.5L251.3,121.6z"/>
		<path class="st6" d="M254.7,117.8c0-2.7,1.7-4.3,3.7-4.3c1.8,0,3.1,1.3,3.4,2.7l-1.3,0.8c-0.1-1.2-0.7-2.3-2.1-2.3
			c-1.5,0-2.3,1.3-2.3,3s0.8,3.1,2.3,3.1c1.3,0,2-1.1,2.1-2.3l1.3,0.8c-0.2,1.3-1.5,2.7-3.4,2.7
			C256.3,122.1,254.7,120.5,254.7,117.8z"/>
		<path class="st6" d="M262.6,117.8c0-2.7,1.7-4.3,3.8-4.3c2.1,0,3.8,1.6,3.8,4.3s-1.7,4.3-3.8,4.3
			C264.3,122.1,262.6,120.5,262.6,117.8z M266.4,114.8c-1.6,0-2.4,1.3-2.4,3s0.8,3.1,2.4,3.1c1.6,0,2.4-1.4,2.4-3.1
			S268,114.8,266.4,114.8z"/>
		<path class="st6" d="M271.1,120.2c0,0-0.1-0.2-0.1-0.5c0-1,0.8-1.6,1.8-1.6c1,0,1.8,0.6,1.8,1.6c0,1.5-1.9,2.2-2.1,2.7v0h2.1v0.9
			h-3.5c0,0,0-0.1,0-0.3c0-1.5,2.4-2.1,2.4-3.3c0-0.4-0.3-0.7-0.7-0.7c-0.5,0-0.8,0.4-0.8,0.9c0,0.3,0.1,0.6,0.1,0.8L271.1,120.2z"
			/>
		<path class="st6" d="M276.7,119.3c0.1,1.1,0.7,1.8,1.6,1.8c0.8,0,1.2-0.5,1.4-1.2l1.2,0.7c-0.4,0.8-1.3,1.6-2.5,1.6
			c-1.7,0-2.8-1.2-2.8-3.2c0-1.9,1.2-3.2,2.8-3.2c1.6,0,2.6,1.2,2.6,2.8c0,0.4-0.1,0.7-0.1,0.7H276.7z M276.7,118.4h2.9
			c0-0.8-0.5-1.5-1.3-1.5C277.4,116.8,276.9,117.4,276.7,118.4z"/>
	</g>
	<g class="st4">
		<path class="st6" d="M478.9,119.3l2.3,3.7h-1.5l-1.7-2.7l-1,1.2v1.5h-1.3v-8.7h1.3v4.2c0,0.7-0.1,1.5-0.1,1.5h0
			c0,0,0.4-0.7,0.8-1.1l1.6-1.9h1.6L478.9,119.3z"/>
		<path class="st6" d="M485.3,122.6c-0.2,0.2-0.7,0.6-1.4,0.6c-0.9,0-1.6-0.4-1.6-1.7V118h-1V117h1v-1.3l1.3-0.8v2.1h1.5v1.1h-1.5
			v3.3c0,0.5,0.2,0.7,0.5,0.7c0.3,0,0.5-0.3,0.6-0.5L485.3,122.6z"/>
		<path class="st6" d="M488.7,118.8c0-2.7,1.7-4.3,3.7-4.3c1.8,0,3.1,1.3,3.4,2.7l-1.3,0.8c-0.1-1.2-0.7-2.3-2.1-2.3
			c-1.5,0-2.3,1.3-2.3,3s0.8,3.1,2.3,3.1c1.3,0,2-1.1,2.1-2.3l1.3,0.8c-0.2,1.3-1.5,2.7-3.4,2.7
			C490.3,123.1,488.7,121.5,488.7,118.8z"/>
		<path class="st6" d="M496.6,118.8c0-2.7,1.7-4.3,3.8-4.3c2.1,0,3.8,1.6,3.8,4.3s-1.7,4.3-3.8,4.3
			C498.3,123.1,496.6,121.5,496.6,118.8z M500.4,115.8c-1.6,0-2.4,1.3-2.4,3s0.8,3.1,2.4,3.1c1.6,0,2.4-1.4,2.4-3.1
			S502,115.8,500.4,115.8z"/>
		<path class="st6" d="M505.1,121.2c0,0-0.1-0.2-0.1-0.5c0-1,0.8-1.6,1.8-1.6c1,0,1.8,0.6,1.8,1.6c0,1.5-1.9,2.2-2.1,2.7v0h2.1v0.9
			h-3.5c0,0,0-0.1,0-0.3c0-1.5,2.4-2.1,2.4-3.3c0-0.4-0.3-0.7-0.7-0.7c-0.5,0-0.8,0.4-0.8,0.9c0,0.3,0.1,0.6,0.1,0.8L505.1,121.2z"
			/>
		<path class="st6" d="M510.7,120.3c0.1,1.1,0.7,1.8,1.6,1.8c0.8,0,1.2-0.5,1.4-1.2l1.2,0.7c-0.4,0.8-1.3,1.6-2.5,1.6
			c-1.7,0-2.8-1.2-2.8-3.2c0-1.9,1.2-3.2,2.8-3.2c1.6,0,2.6,1.2,2.6,2.8c0,0.4-0.1,0.7-0.1,0.7H510.7z M510.7,119.4h2.9
			c0-0.8-0.5-1.5-1.3-1.5C511.4,117.8,510.9,118.4,510.7,119.4z"/>
	</g>
	<g class="st4">
		<path class="st6" d="M64.9,119.3l2.3,3.7h-1.5l-1.7-2.7l-1,1.2v1.5h-1.3v-8.7h1.3v4.2c0,0.7-0.1,1.5-0.1,1.5h0
			c0,0,0.4-0.7,0.8-1.1l1.6-1.9H67L64.9,119.3z"/>
		<path class="st6" d="M71.3,122.6c-0.2,0.2-0.7,0.6-1.4,0.6c-0.9,0-1.6-0.4-1.6-1.7V118h-1V117h1v-1.3l1.3-0.8v2.1h1.5v1.1h-1.5
			v3.3c0,0.5,0.2,0.7,0.5,0.7c0.3,0,0.5-0.3,0.6-0.5L71.3,122.6z"/>
		<path class="st6" d="M74.7,118.8c0-2.7,1.7-4.3,3.7-4.3c1.8,0,3.1,1.3,3.4,2.7l-1.3,0.8c-0.1-1.2-0.7-2.3-2.1-2.3
			c-1.5,0-2.3,1.3-2.3,3s0.8,3.1,2.3,3.1c1.3,0,2-1.1,2.1-2.3l1.3,0.8c-0.2,1.3-1.5,2.7-3.4,2.7C76.3,123.1,74.7,121.5,74.7,118.8z"
			/>
		<path class="st6" d="M82.6,118.8c0-2.7,1.7-4.3,3.8-4.3c2.1,0,3.8,1.6,3.8,4.3s-1.7,4.3-3.8,4.3C84.3,123.1,82.6,121.5,82.6,118.8
			z M86.4,115.8c-1.6,0-2.4,1.3-2.4,3s0.8,3.1,2.4,3.1c1.6,0,2.4-1.4,2.4-3.1S88,115.8,86.4,115.8z"/>
		<path class="st6" d="M91.1,121.2c0,0-0.1-0.2-0.1-0.5c0-1,0.8-1.6,1.8-1.6c1,0,1.8,0.6,1.8,1.6c0,1.5-1.9,2.2-2.1,2.7v0h2.1v0.9
			h-3.5c0,0,0-0.1,0-0.3c0-1.5,2.4-2.1,2.4-3.3c0-0.4-0.3-0.7-0.7-0.7c-0.5,0-0.8,0.4-0.8,0.9c0,0.3,0.1,0.6,0.1,0.8L91.1,121.2z"/>
		<path class="st6" d="M96.7,120.3c0.1,1.1,0.7,1.8,1.6,1.8c0.8,0,1.2-0.5,1.4-1.2l1.2,0.7c-0.4,0.8-1.3,1.6-2.5,1.6
			c-1.7,0-2.8-1.2-2.8-3.2c0-1.9,1.2-3.2,2.8-3.2c1.6,0,2.6,1.2,2.6,2.8c0,0.4-0.1,0.7-0.1,0.7H96.7z M96.7,119.4h2.9
			c0-0.8-0.5-1.5-1.3-1.5C97.4,117.8,96.9,118.4,96.7,119.4z"/>
	</g>
</g>
<g>
	<path class="st8" d="M13.8,54.3v5.2c0,2.1-0.8,3.3-2.5,3.3c-1.8,0-2.6-1.2-2.6-2.7c0-0.3,0-0.4,0-0.6l1.1-0.6c0,0-0.1,0.6-0.1,0.9
		c0,1.2,0.5,2,1.5,2c1.1,0,1.5-0.8,1.5-2.2v-5.3H13.8z"/>
	<path class="st8" d="M15.2,59.6c0-1.8,1.1-3.2,2.7-3.2s2.7,1.3,2.7,3.2s-1.1,3.2-2.7,3.2S15.2,61.4,15.2,59.6z M17.9,61.9
		c1.2,0,1.7-1.1,1.7-2.3s-0.6-2.3-1.7-2.3s-1.7,1.1-1.7,2.3S16.8,61.9,17.9,61.9z"/>
	<path class="st8" d="M26.7,61.5L26.7,61.5c0,0,0.3-1,0.6-1.8l1-3.1h1l-2.2,6h-1l-2.2-6h1.1l1,3.1C26.4,60.5,26.7,61.5,26.7,61.5z"
		/>
	<path class="st8" d="M30.9,58.9L30,58.3c0.3-1.1,1.3-1.9,2.6-1.9c1.2,0,2.3,0.6,2.3,2.1v2.8c0,0.7,0.1,1,0.1,1.3h-0.8
		c-0.2-0.3-0.2-0.5-0.3-0.8h0c-0.3,0.4-0.9,1-1.9,1c-1.1,0-1.9-0.6-1.9-1.8c0-1.3,1.2-1.6,2.3-1.8c0.9-0.2,1.4-0.3,1.4-0.8
		c0-0.6-0.6-1-1.3-1C31.6,57.3,31.1,58,30.9,58.9z M32.1,54.9c0,0.4-0.3,0.7-0.7,0.7s-0.7-0.3-0.7-0.7c0-0.4,0.3-0.7,0.7-0.7
		S32.1,54.5,32.1,54.9z M33.9,59.4c-0.2,0.3-0.6,0.4-1.3,0.6c-0.7,0.2-1.5,0.3-1.5,1c0,0.5,0.4,0.9,1.1,0.9c0.9,0,1.7-0.6,1.7-1.6
		V59.4z M34.3,54.9c0,0.4-0.3,0.7-0.7,0.7s-0.7-0.3-0.7-0.7c0-0.4,0.3-0.7,0.7-0.7S34.3,54.5,34.3,54.9z"/>
	<path class="st8" d="M41.4,62.6h-1V59c0-1.2-0.5-1.7-1.3-1.7c-0.9,0-1.5,0.8-1.5,1.7v3.6h-1V54h1v2.2c0,0.7-0.1,1.5-0.1,1.5h0
		c0.2-0.5,0.8-1.2,1.9-1.2c1.2,0,2.1,0.8,2.1,2.4V62.6z"/>
	<path class="st8" d="M43.7,59.9c0.1,1.2,0.7,2.1,1.8,2.1c0.9,0,1.4-0.6,1.5-1.4l0.9,0.6c-0.3,0.9-1.2,1.7-2.5,1.7
		c-1.7,0-2.8-1.3-2.8-3.2c0-1.8,1.1-3.2,2.7-3.2c1.6,0,2.5,1.2,2.5,2.7c0,0.4-0.1,0.7-0.1,0.7H43.7z M43.8,59H47
		c0-0.9-0.5-1.8-1.5-1.8C44.5,57.3,43.9,58.1,43.8,59z"/>
	<path class="st8" d="M54.3,62.6h-1V59c0-1.2-0.5-1.7-1.3-1.7c-0.9,0-1.5,0.8-1.5,1.7v3.6h-1v-6h1l-0.1,1.1h0
		c0.2-0.5,0.8-1.2,1.9-1.2c1.2,0,2.1,0.8,2.1,2.4V62.6z"/>
	<path class="st8" d="M60.9,62.6h-1V59c0-1.2-0.5-1.7-1.3-1.7c-0.9,0-1.5,0.8-1.5,1.7v3.6h-1v-6h1l-0.1,1.1h0
		c0.2-0.5,0.8-1.2,1.9-1.2c1.2,0,2.1,0.8,2.1,2.4V62.6z"/>
	<path class="st8" d="M63.2,59.9c0.1,1.2,0.7,2.1,1.8,2.1c0.9,0,1.4-0.6,1.5-1.4l0.9,0.6c-0.3,0.9-1.2,1.7-2.5,1.7
		c-1.7,0-2.8-1.3-2.8-3.2c0-1.8,1.1-3.2,2.7-3.2c1.6,0,2.5,1.2,2.5,2.7c0,0.4-0.1,0.7-0.1,0.7H63.2z M63.2,59h3.3
		c0-0.9-0.5-1.8-1.5-1.8C64,57.3,63.4,58.1,63.2,59z"/>
	<path class="st8" d="M71.9,62.2c-0.2,0.3-0.7,0.6-1.3,0.6c-0.8,0-1.4-0.3-1.4-1.6v-3.8h-1.1v-0.9h1.1v-1.4l1-0.6v2h1.3v0.9h-1.3
		v3.7c0,0.6,0.2,0.8,0.5,0.8c0.3,0,0.6-0.3,0.6-0.6L71.9,62.2z M75.8,62.2c-0.2,0.3-0.7,0.6-1.3,0.6c-0.8,0-1.4-0.3-1.4-1.6v-3.8H72
		v-0.9h1.1v-1.4l1-0.6v2h1.6v0.9h-1.6v3.7c0,0.6,0.2,0.8,0.5,0.8c0.3,0,0.6-0.3,0.6-0.6L75.8,62.2z"/>
	<path class="st8" d="M78.8,61.3c0,0,0.3-0.9,0.5-1.6l1-3.1h1l-2.2,6.3c-0.3,0.8-0.7,1.8-1.8,2.2l-0.8-0.7c0.8-0.2,1.4-0.8,1.7-1.6
		l0.1-0.2l-2.2-6.1h1.1l1.1,3.1C78.4,60.4,78.8,61.3,78.8,61.3L78.8,61.3z"/>
</g>
<g>
	<path d="M154.3,60.3c0.2,0.4,0.4,1.2,0.4,1.2h0c0,0,0.3-0.8,0.4-1.2l2.1-5.9h1.1l-3,8.3H154l-3-8.3h1.1L154.3,60.3z"/>
	<path d="M160.5,54.9c0,0.4-0.3,0.7-0.7,0.7s-0.7-0.3-0.7-0.7c0-0.4,0.3-0.7,0.7-0.7S160.5,54.5,160.5,54.9z M159.3,56.6h1v6h-1
		V56.6z"/>
	<path d="M162.7,59.9c0.1,1.2,0.7,2.1,1.8,2.1c0.9,0,1.4-0.6,1.5-1.4l0.9,0.6c-0.3,0.9-1.2,1.7-2.5,1.7c-1.7,0-2.8-1.3-2.8-3.2
		c0-1.8,1.1-3.2,2.7-3.2c1.6,0,2.5,1.2,2.5,2.7c0,0.4-0.1,0.7-0.1,0.7H162.7z M162.7,59h3.3c0-0.9-0.5-1.8-1.5-1.8
		C163.4,57.3,162.9,58.1,162.7,59z"/>
	<path d="M168.3,54h1v8.7h-1V54z"/>
	<path d="M171.7,58.9l-0.9-0.6c0.3-1.1,1.3-1.9,2.6-1.9c1.2,0,2.3,0.6,2.3,2.1v2.8c0,0.7,0.1,1,0.1,1.3h-0.8
		c-0.2-0.3-0.2-0.5-0.3-0.8h0c-0.3,0.4-0.9,1-1.9,1c-1.1,0-1.9-0.6-1.9-1.8c0-1.3,1.2-1.6,2.3-1.8c0.9-0.2,1.4-0.3,1.4-0.8
		c0-0.6-0.6-1-1.3-1C172.3,57.3,171.8,58,171.7,58.9z M172.9,54.9c0,0.4-0.3,0.7-0.7,0.7s-0.7-0.3-0.7-0.7c0-0.4,0.3-0.7,0.7-0.7
		S172.9,54.5,172.9,54.9z M174.7,59.4c-0.2,0.3-0.6,0.4-1.3,0.6c-0.7,0.2-1.5,0.3-1.5,1c0,0.5,0.4,0.9,1.1,0.9
		c0.9,0,1.7-0.6,1.7-1.6V59.4z M175.1,54.9c0,0.4-0.3,0.7-0.7,0.7s-0.7-0.3-0.7-0.7c0-0.4,0.3-0.7,0.7-0.7S175.1,54.5,175.1,54.9z"
		/>
	<path d="M181.9,61.5L181.9,61.5c0,0,0.3-1,0.6-1.8l1-3.1h1l-2.2,6h-1l-2.2-6h1.1l1,3.1C181.6,60.5,181.9,61.5,181.9,61.5z"/>
	<path d="M186.1,58.9l-0.9-0.6c0.3-1.1,1.3-1.9,2.6-1.9c1.2,0,2.3,0.6,2.3,2.1v2.8c0,0.7,0.1,1,0.1,1.3h-0.8
		c-0.2-0.3-0.2-0.5-0.3-0.8h0c-0.3,0.4-0.9,1-1.9,1c-1.1,0-1.9-0.6-1.9-1.8c0-1.3,1.2-1.6,2.3-1.8c0.9-0.2,1.4-0.3,1.4-0.8
		c0-0.6-0.6-1-1.3-1C186.8,57.3,186.3,58,186.1,58.9z M187.4,54.9c0,0.4-0.3,0.7-0.7,0.7s-0.7-0.3-0.7-0.7c0-0.4,0.3-0.7,0.7-0.7
		S187.4,54.5,187.4,54.9z M189.1,59.4c-0.2,0.3-0.6,0.4-1.3,0.6c-0.7,0.2-1.5,0.3-1.5,1c0,0.5,0.4,0.9,1.1,0.9
		c0.9,0,1.7-0.6,1.7-1.6V59.4z M189.5,54.9c0,0.4-0.3,0.7-0.7,0.7s-0.7-0.3-0.7-0.7c0-0.4,0.3-0.7,0.7-0.7S189.5,54.5,189.5,54.9z"
		/>
	<path d="M196.6,62.6h-1V59c0-1.2-0.5-1.7-1.3-1.7c-0.9,0-1.5,0.8-1.5,1.7v3.6h-1V54h1v2.2c0,0.7-0.1,1.5-0.1,1.5h0
		c0.2-0.5,0.8-1.2,1.9-1.2c1.2,0,2.1,0.8,2.1,2.4V62.6z"/>
	<path d="M199,59.9c0.1,1.2,0.7,2.1,1.8,2.1c0.9,0,1.4-0.6,1.5-1.4l0.9,0.6c-0.3,0.9-1.2,1.7-2.5,1.7c-1.7,0-2.8-1.3-2.8-3.2
		c0-1.8,1.1-3.2,2.7-3.2c1.6,0,2.5,1.2,2.5,2.7c0,0.4-0.1,0.7-0.1,0.7H199z M199,59h3.3c0-0.9-0.5-1.8-1.5-1.8
		C199.7,57.3,199.1,58.1,199,59z"/>
	<path d="M209.5,62.6h-1V59c0-1.2-0.5-1.7-1.3-1.7c-0.9,0-1.5,0.8-1.5,1.7v3.6h-1v-6h1l-0.1,1.1h0c0.2-0.5,0.8-1.2,1.9-1.2
		c1.2,0,2.1,0.8,2.1,2.4V62.6z"/>
	<path d="M216.1,62.6h-1V59c0-1.2-0.5-1.7-1.3-1.7c-0.9,0-1.5,0.8-1.5,1.7v3.6h-1v-6h1l-0.1,1.1h0c0.2-0.5,0.8-1.2,1.9-1.2
		c1.2,0,2.1,0.8,2.1,2.4V62.6z"/>
	<path d="M218.4,59.9c0.1,1.2,0.7,2.1,1.8,2.1c0.9,0,1.4-0.6,1.5-1.4l0.9,0.6c-0.3,0.9-1.2,1.7-2.5,1.7c-1.7,0-2.8-1.3-2.8-3.2
		c0-1.8,1.1-3.2,2.7-3.2c1.6,0,2.5,1.2,2.5,2.7c0,0.4-0.1,0.7-0.1,0.7H218.4z M218.4,59h3.3c0-0.9-0.5-1.8-1.5-1.8
		C219.2,57.3,218.6,58.1,218.4,59z"/>
	<path d="M227.1,62.2c-0.2,0.3-0.7,0.6-1.3,0.6c-0.8,0-1.4-0.3-1.4-1.6v-3.8h-1.1v-0.9h1.1v-1.4l1-0.6v2h1.3v0.9h-1.3v3.7
		c0,0.6,0.2,0.8,0.5,0.8c0.3,0,0.6-0.3,0.6-0.6L227.1,62.2z M231,62.2c-0.2,0.3-0.7,0.6-1.3,0.6c-0.8,0-1.4-0.3-1.4-1.6v-3.8h-1.1
		v-0.9h1.1v-1.4l1-0.6v2h1.6v0.9h-1.6v3.7c0,0.6,0.2,0.8,0.5,0.8c0.3,0,0.6-0.3,0.6-0.6L231,62.2z"/>
	<path d="M232.7,58.9l-0.9-0.6c0.3-1.1,1.3-1.9,2.6-1.9c1.2,0,2.3,0.6,2.3,2.1v2.8c0,0.7,0.1,1,0.1,1.3H236
		c-0.2-0.3-0.2-0.5-0.3-0.8h0c-0.3,0.4-0.9,1-1.9,1c-1.1,0-1.9-0.6-1.9-1.8c0-1.3,1.2-1.6,2.3-1.8c0.9-0.2,1.4-0.3,1.4-0.8
		c0-0.6-0.6-1-1.3-1C233.4,57.3,232.9,58,232.7,58.9z M234,54.9c0,0.4-0.3,0.7-0.7,0.7s-0.7-0.3-0.7-0.7c0-0.4,0.3-0.7,0.7-0.7
		S234,54.5,234,54.9z M235.7,59.4c-0.2,0.3-0.6,0.4-1.3,0.6c-0.7,0.2-1.5,0.3-1.5,1c0,0.5,0.4,0.9,1.1,0.9c0.9,0,1.7-0.6,1.7-1.6
		V59.4z M236.1,54.9c0,0.4-0.3,0.7-0.7,0.7s-0.7-0.3-0.7-0.7c0-0.4,0.3-0.7,0.7-0.7S236.1,54.5,236.1,54.9z"/>
	<path d="M240.2,61.5L240.2,61.5c0,0,0.3-1,0.6-1.8l1-3.1h1l-2.2,6h-1l-2.2-6h1.1l1,3.1C239.8,60.5,240.2,61.5,240.2,61.5z"/>
	<path d="M244.4,58.9l-0.9-0.6c0.3-1.1,1.3-1.9,2.6-1.9c1.2,0,2.3,0.6,2.3,2.1v2.8c0,0.7,0.1,1,0.1,1.3h-0.8
		c-0.2-0.3-0.2-0.5-0.3-0.8h0c-0.3,0.4-0.9,1-1.9,1c-1.1,0-1.9-0.6-1.9-1.8c0-1.3,1.2-1.6,2.3-1.8c0.9-0.2,1.4-0.3,1.4-0.8
		c0-0.6-0.6-1-1.3-1C245,57.3,244.5,58,244.4,58.9z M245.6,54.9c0,0.4-0.3,0.7-0.7,0.7s-0.7-0.3-0.7-0.7c0-0.4,0.3-0.7,0.7-0.7
		S245.6,54.5,245.6,54.9z M247.3,59.4c-0.2,0.3-0.6,0.4-1.3,0.6c-0.7,0.2-1.5,0.3-1.5,1c0,0.5,0.4,0.9,1.1,0.9
		c0.9,0,1.7-0.6,1.7-1.6V59.4z M247.7,54.9c0,0.4-0.3,0.7-0.7,0.7s-0.7-0.3-0.7-0.7c0-0.4,0.3-0.7,0.7-0.7S247.7,54.5,247.7,54.9z"
		/>
</g>
<g>
	<path d="M436,54.3h6.3v1h-2.6v7.3h-1.1v-7.3H436V54.3z"/>
	<path d="M443.2,58.9l-0.9-0.6c0.3-1.1,1.3-1.9,2.6-1.9c1.2,0,2.3,0.6,2.3,2.1v2.8c0,0.7,0.1,1,0.1,1.3h-0.8
		c-0.2-0.3-0.2-0.5-0.3-0.8h0c-0.3,0.4-0.9,1-1.9,1c-1.1,0-1.9-0.6-1.9-1.8c0-1.3,1.2-1.6,2.3-1.8c0.9-0.2,1.4-0.3,1.4-0.8
		c0-0.6-0.6-1-1.3-1C443.8,57.3,443.3,58,443.2,58.9z M446.2,59.4c-0.2,0.3-0.6,0.4-1.3,0.6c-0.7,0.2-1.5,0.3-1.5,1
		c0,0.5,0.4,0.9,1.1,0.9c0.9,0,1.7-0.6,1.7-1.6V59.4z"/>
	<path d="M450.6,61.5L450.6,61.5c0,0,0.3-1,0.6-1.8l1-3.1h1l-2.2,6h-1l-2.2-6h1.1l1,3.1C450.3,60.5,450.6,61.5,450.6,61.5z"/>
	<path d="M453.8,59.6c0-1.8,1.1-3.2,2.7-3.2c1.7,0,2.7,1.3,2.7,3.2s-1.1,3.2-2.7,3.2C454.9,62.8,453.8,61.4,453.8,59.6z M456.5,61.9
		c1.2,0,1.7-1.1,1.7-2.3s-0.6-2.3-1.7-2.3c-1.2,0-1.7,1.1-1.7,2.3S455.4,61.9,456.5,61.9z"/>
	<path d="M461.9,54.9c0,0.4-0.3,0.7-0.7,0.7c-0.4,0-0.7-0.3-0.7-0.7c0-0.4,0.3-0.7,0.7-0.7C461.6,54.2,461.9,54.5,461.9,54.9z
		 M460.7,56.6h1v6h-1V56.6z"/>
	<path d="M466.5,62.2c-0.2,0.3-0.7,0.6-1.3,0.6c-0.8,0-1.4-0.3-1.4-1.6v-3.8h-1.1v-0.9h1.1v-1.4l1-0.6v2h1.6v0.9h-1.6v3.7
		c0,0.6,0.2,0.8,0.5,0.8c0.3,0,0.6-0.3,0.6-0.6L466.5,62.2z"/>
	<path d="M468.1,59.9c0.1,1.2,0.7,2.1,1.8,2.1c0.9,0,1.4-0.6,1.5-1.4l0.9,0.6c-0.3,0.9-1.2,1.7-2.5,1.7c-1.7,0-2.8-1.3-2.8-3.2
		c0-1.8,1.1-3.2,2.7-3.2c1.6,0,2.5,1.2,2.5,2.7c0,0.4-0.1,0.7-0.1,0.7H468.1z M468.2,59h3.3c0-0.9-0.5-1.8-1.5-1.8
		C468.9,57.3,468.3,58.1,468.2,59z"/>
</g>
<g>
	<g class="st4">
		<path d="M299,59l2.4,3.6h-1.2l-1.9-2.9l-1.1,1.3v1.6h-1V54h1v4.4c0,0.7-0.1,1.5-0.1,1.5h0c0,0,0.5-0.6,0.9-1.1l1.8-2.1h1.2L299,59
			z"/>
		<path d="M305.3,62.2c-0.2,0.3-0.7,0.6-1.3,0.6c-0.8,0-1.4-0.3-1.4-1.6v-3.8h-1.1v-0.9h1.1v-1.4l1-0.6v2h1.6v0.9h-1.6v3.7
			c0,0.6,0.2,0.8,0.5,0.8c0.3,0,0.6-0.3,0.6-0.6L305.3,62.2z"/>
		<path d="M308.8,58.5c0-2.7,1.6-4.3,3.6-4.3c1.9,0,3.2,1.4,3.3,2.7l-1,0.6c-0.1-1.3-0.8-2.4-2.3-2.4c-1.7,0-2.6,1.4-2.6,3.3
			s0.9,3.4,2.6,3.4c1.5,0,2.2-1.1,2.3-2.4l1,0.6c-0.1,1.3-1.4,2.8-3.3,2.8C310.4,62.8,308.8,61.2,308.8,58.5z"/>
		<path d="M316.8,58.5c0-2.7,1.7-4.3,3.7-4.3s3.7,1.6,3.7,4.3s-1.7,4.3-3.7,4.3S316.8,61.2,316.8,58.5z M320.6,55.2
			c-1.7,0-2.7,1.4-2.7,3.3s0.9,3.4,2.7,3.4s2.7-1.5,2.7-3.4S322.3,55.2,320.6,55.2z"/>
		<path d="M325.4,60.9c0,0-0.1-0.3-0.1-0.6c0-1,0.8-1.6,1.8-1.6c0.9,0,1.7,0.6,1.7,1.5c0,1.6-2,2.3-2.3,2.8v0h2.3v0.8h-3.3
			c0,0,0-0.1,0-0.3c0-1.4,2.4-2,2.4-3.4c0-0.5-0.3-0.8-0.8-0.8c-0.6,0-0.9,0.4-0.9,1c0,0.4,0.1,0.7,0.2,0.9L325.4,60.9z"/>
		<path d="M330.6,59.9c0.1,1.2,0.7,2.1,1.8,2.1c0.9,0,1.4-0.6,1.5-1.4l0.9,0.6c-0.3,0.9-1.2,1.7-2.5,1.7c-1.7,0-2.8-1.3-2.8-3.2
			c0-1.8,1.1-3.2,2.7-3.2c1.6,0,2.5,1.2,2.5,2.7c0,0.4-0.1,0.7-0.1,0.7H330.6z M330.6,59h3.3c0-0.9-0.5-1.8-1.5-1.8
			C331.4,57.3,330.8,58.1,330.6,59z"/>
	</g>
</g>
<g class="st4">
	<path class="st5" d="M86.7,61.6l2.1-1.2c0.1,0.8,0.6,1.5,1.6,1.5c1.4,0,1.8-1.2,1.9-3.2l0,0c-0.5,0.8-1.4,1.2-2.4,1.2
		c-1.7,0-3.4-1.3-3.4-3.6c0-2.3,1.7-3.8,4-3.8c2.6,0,4.1,1.7,4.1,5.2c0,3.8-1.1,6.3-4.1,6.3C88.5,63.8,87.3,63,86.7,61.6z
		 M90.3,58.1c1.1,0,1.8-0.8,1.8-1.9c0-1.2-0.7-2-1.8-2c-1.1,0-1.8,0.8-1.8,2C88.6,57.3,89.2,58.1,90.3,58.1z"/>
	<path class="st5" d="M95.4,61.2l2.2-1.2c0.1,1,0.7,1.8,1.8,1.8s1.7-0.9,1.7-2.1s-0.6-2-1.6-2c-0.9,0-1.4,0.6-1.6,1.3l-2-0.9
		l0.7-5.6h6.1v2h-4.3l-0.1,1.1c-0.1,0.7-0.2,1.3-0.2,1.3h0c0.4-0.5,1.1-0.9,2.1-0.9c1.8,0,3.3,1.4,3.3,3.7c0,2.4-1.6,4-3.9,4
		C97.3,63.8,95.9,62.7,95.4,61.2z"/>
	<path class="st5" d="M104.2,61.2l2.2-1.2c0.1,1,0.7,1.8,1.8,1.8s1.7-0.9,1.7-2.1s-0.6-2-1.6-2c-0.9,0-1.4,0.6-1.6,1.3l-2-0.9
		l0.7-5.6h6.1v2h-4.3l-0.1,1.1c-0.1,0.7-0.2,1.3-0.2,1.3h0c0.4-0.5,1.1-0.9,2.1-0.9c1.8,0,3.3,1.4,3.3,3.7c0,2.4-1.6,4-3.9,4
		C106.1,63.8,104.7,62.7,104.2,61.2z"/>
</g>
<g class="st4">
	<path d="M257.3,55.4c-0.4,0.5-1.2,1-1.8,1.1l-0.9-2c1.3-0.3,2.6-1,3.3-1.9h1.7v11.1h-2.3V57C257.3,56.3,257.3,55.4,257.3,55.4
		L257.3,55.4z"/>
	<path d="M264.7,60.5c0-1.8,1.4-2.5,2.2-2.8v0c-0.8-0.3-1.8-1-1.8-2.4c0-1.8,1.6-2.9,3.7-2.9c2.1,0,3.7,1.2,3.7,2.9
		c0,1.4-1,2.1-1.8,2.4v0c0.8,0.3,2.2,1.1,2.2,2.8c0,2-1.8,3.3-4.1,3.3S264.7,62.6,264.7,60.5z M268.9,62c1,0,1.9-0.6,1.9-1.6
		s-0.9-1.6-1.9-1.6s-1.9,0.6-1.9,1.6S267.8,62,268.9,62z M268.9,56.9c0.9,0,1.6-0.5,1.6-1.3s-0.7-1.3-1.6-1.3
		c-0.9,0-1.7,0.5-1.7,1.3S267.9,56.9,268.9,56.9z"/>
	<path d="M273.9,61.2l2.2-1.2c0.1,1,0.7,1.8,1.8,1.8c1.1,0,1.7-0.9,1.7-2.1s-0.6-2-1.6-2c-0.9,0-1.4,0.6-1.6,1.3l-2-0.9l0.7-5.6h6.1
		v2h-4.3l-0.1,1.1c-0.1,0.7-0.2,1.3-0.2,1.3h0c0.4-0.5,1.1-0.9,2.1-0.9c1.8,0,3.3,1.4,3.3,3.7c0,2.4-1.6,4-3.9,4
		C275.8,63.8,274.4,62.7,273.9,61.2z"/>
	<path d="M290.2,54c-1.6,3.2-2.6,6.3-3,9.7h-2.6c0.4-3.3,1.8-6.7,3.1-9h-3.2v2.5l-2.1-1.1v-3.5h7.9V54z"/>
</g>
</svg>
