<svg version="1.1" id="Layer_1" xmlns="http://www.w3.org/2000/svg" x="0" y="0" viewBox="0 0 327 168" xml:space="preserve"><style>.st0,.st1{fill-rule:evenodd;clip-rule:evenodd;fill:#ffc61e}.st1{fill:#06783b}</style><g id="main-illustration"><g id="Group-2" transform="translate(8 1)"><path id="Rectangle" class="st0" d="M0 4h43v137H0z"/><path id="Rectangle-Copy" class="st0" d="M43 35h31v95H43z"/><path id="Rectangle-Copy-3" class="st0" d="M163 0h41v123h-41z"/><path id="Rectangle-Copy-4" class="st0" d="M204 44h31v85h-31z"/><circle id="Oval-Copy" class="st0" cx="281" cy="30" r="12"/><ellipse class="st0" cx="306" cy="89" rx="11" ry="22"/><ellipse class="st0" cx="277" cy="97.5" rx="9" ry="13.5"/><ellipse class="st0" cx="251.5" cy="92.5" rx="9.5" ry="19.5"/><ellipse class="st0" cx="141" cy="90" rx="12" ry="18"/><ellipse class="st0" cx="113" cy="98.5" rx="9" ry="15.5"/><ellipse class="st0" cx="88.5" cy="92.5" rx="8.5" ry="18.5"/></g><g id="Group"><g id="Group-48"><path id="Fill-1" class="st1" d="M3.4 136.6c2.9 0 4.3.8 6 1.8 1.9 1 3.9 2.3 8.1 2.3s6.2-1.2 8.1-2.3c1.7-1 3.1-1.8 6-1.8s4.3.8 6 1.8c1.9 1 3.9 2.3 8.1 2.3s6.2-1.2 8.1-2.3c1.7-1 3.1-1.8 6-1.8s4.3.8 6 1.8c1.9 1 3.9 2.3 8.1 2.3 4.1 0 6.2-1.2 8.1-2.3 1.7-1 3.1-1.8 6-1.8s4.3.8 6 1.8c1.9 1 3.9 2.3 8.1 2.3 4.1 0 6.2-1.2 8.1-2.3 1.7-1 3.1-1.8 6-1.8s4.3.8 6 1.8c1.9 1 3.9 2.3 8.1 2.3 4.1 0 6.2-1.2 8.1-2.3 1.7-1 3.1-1.8 6-1.8s4.3.8 6 1.8c1.9 1 3.9 2.3 8.1 2.3 1.2 0 2.1-.8 2.1-2s-.8-2-2.1-2c-2.9 0-4.3-.8-6-1.8-1.9-1-3.9-2.3-8.1-2.3s-6.2 1.2-8.1 2.3c-1.7 1-3.1 1.8-6 1.8s-4.3-.8-6-1.8c-1.9-1-3.9-2.3-8.1-2.3-4.1 0-6.2 1.2-8.1 2.3-1.7 1-3.1 1.8-6 1.8s-4.3-.8-6-1.8c-1.9-1-3.9-2.3-8.1-2.3-4.1 0-6.2 1.2-8.1 2.3-1.7 1-3.1 1.8-6 1.8s-4.3-.8-6-1.8c-1.9-1-3.9-2.3-8.1-2.3s-6.2 1.2-8.1 2.3c-1.7 1-3.1 1.8-6 1.8s-4.3-.8-6-1.8c-1.9-1-3.9-2.3-8.1-2.3s-6.2 1.2-8.1 2.3c-1.7 1-3.1 1.8-6 1.8s-4.3-.8-6-1.8c-1.9-1-3.9-2.3-8.1-2.3-1.2 0-2.1.8-2.1 2 .1 1.2.9 2 2.1 2z"/><path id="Fill-2" class="st1" d="M3.4 150.2c2.9 0 4.3.8 6 1.8 1.9 1 3.9 2.3 8.1 2.3s6.2-1.2 8.1-2.3c1.7-1 3.1-1.8 6-1.8s4.3.8 6 1.8c1.9 1 3.9 2.3 8.1 2.3s6.2-1.2 8.1-2.3c1.7-1 3.1-1.8 6-1.8s4.3.8 6 1.8c1.9 1 3.9 2.3 8.1 2.3 4.1 0 6.2-1.2 8.1-2.3 1.7-1 3.1-1.8 6-1.8s4.3.8 6 1.8c1.9 1 3.9 2.3 8.1 2.3 4.1 0 6.2-1.2 8.1-2.3 1.7-1 3.1-1.8 6-1.8s4.3.8 6 1.8c1.9 1 3.9 2.3 8.1 2.3s6.2-1.2 8.1-2.3c1.7-1 3.1-1.8 6-1.8s4.3.8 6 1.8c1.9 1 3.9 2.3 8.1 2.3 1.2 0 2.1-.8 2.1-2s-.8-2-2.1-2c-2.9 0-4.3-.8-6-1.8-1.9-1-3.9-2.3-8.1-2.3s-6.2 1.2-8.1 2.3c-1.7 1-3.1 1.8-6 1.8s-4.3-.8-6-1.8c-1.9-1-3.9-2.3-8.1-2.3s-6.2 1.2-8.1 2.3c-1.7 1-3.1 1.8-6 1.8s-4.3-.8-6-1.8c-1.9-1-3.9-2.3-8.1-2.3s-6.2 1.2-8.1 2.3c-1.7 1-3.1 1.8-6 1.8s-4.3-.8-6-1.8c-1.9-1-3.9-2.3-8.1-2.3s-6.2 1.2-8.1 2.3c-1.7 1-3.1 1.8-6 1.8s-4.3-.8-6-1.8c-1.9-1-3.9-2.3-8.1-2.3s-6.2 1.2-8.1 2.3c-1.7 1-3.1 1.8-6 1.8s-4.3-.8-6-1.8c-1.9-1-3.9-2.3-8.1-2.3-1.2 0-2.1.8-2.1 2s.9 2 2.1 2z"/><path id="Fill-3" class="st1" d="M3.4 163.9c2.9 0 4.3.8 6 1.8 1.9 1 3.9 2.3 8.1 2.3s6.2-1.2 8.1-2.3c1.7-1 3.1-1.8 6-1.8s4.3.8 6 1.8c1.9 1 3.9 2.3 8.1 2.3s6.2-1.2 8.1-2.3c1.7-1 3.1-1.8 6-1.8s4.3.8 6 1.8c1.9 1 3.9 2.3 8.1 2.3 4.1 0 6.2-1.2 8.1-2.3 1.7-1 3.1-1.8 6-1.8s4.3.8 6 1.8c1.9 1 3.9 2.3 8.1 2.3 4.1 0 6.2-1.2 8.1-2.3 1.7-1 3.1-1.8 6-1.8s4.3.8 6 1.8c1.9 1 3.9 2.3 8.1 2.3s6.2-1.2 8.1-2.3c1.7-1 3.1-1.8 6-1.8s4.3.8 6 1.8c1.9 1 3.9 2.3 8.1 2.3 1.2 0 2.1-.8 2.1-2s-.8-2-2.1-2c-2.9 0-4.3-.8-6-1.8-1.9-1-3.9-2.3-8.1-2.3s-6.2 1.2-8.1 2.3c-1.7 1-3.1 1.8-6 1.8s-4.3-.8-6-1.8c-1.9-1-3.9-2.3-8.1-2.3s-6.2 1.2-8.1 2.3c-1.7 1-3.1 1.8-6 1.8s-4.3-.8-6-1.8c-1.9-1-3.9-2.3-8.1-2.3s-6.2 1.2-8.1 2.3c-1.7 1-3.1 1.8-6 1.8s-4.3-.8-6-1.8c-1.9-1-3.9-2.3-8.1-2.3s-6.2 1.2-8.1 2.3c-1.7 1-3.1 1.8-6 1.8s-4.3-.8-6-1.8c-1.9-1-3.9-2.3-8.1-2.3s-6.2 1.2-8.1 2.3c-1.7 1-3.1 1.8-6 1.8s-4.3-.8-6-1.8c-1.9-1-3.9-2.3-8.1-2.3-1.2 0-2.1.8-2.1 2s.9 2 2.1 2z"/><path id="Fill-4" class="st1" d="M2.1 122.9h156.5c1.3 0 2.1-.8 2.1-2.1s-.8-2.1-2.1-2.1h-6.9v-11.2c6.5-1.2 11.3-8.9 11.3-18.2 0-10.3-5.8-18.4-13.3-18.4-7.5 0-13.3 8.1-13.3 18.4 0 9.3 4.8 16.8 11.3 18.2v11h-22.5v-7.2c5-1.2 8.8-7.2 8.8-14.5 0-8.3-4.8-14.7-10.8-14.7-6 0-10.8 6.6-10.8 14.9 0 7.2 3.8 13.2 8.8 14.5v7.2h-20.8v-8.1c5-1.4 8.8-8.5 8.8-17.2C108.8 83.6 104 76 98 76c-6 0-10.8 7.7-10.8 17.4 0 8.7 3.8 15.7 8.8 17.2v8.1H83.4v-82c0-1.2-.8-2.1-2.1-2.1h-4c-.4-3.5-2.3-6.4-4.6-7.9-.2-4.3-2.7-8.3-5.6-8.3h-1.5V6.8c0-1.2-.8-2.1-2.1-2.1s-2.1.8-2.1 2.1v11.6H60c-2.9 0-5.4 3.9-5.6 8.3-2.3 1.4-4.2 4.3-4.6 7.9h-1.9V2.1c0-1.2-.8-2.1-2.1-2.1H8.5c-1.2 0-2 .8-2 2.1v116.5H2.1c-1.3 0-2.1.8-2.1 2.1 0 1.2.8 2.2 2.1 2.2zm138.4-33.5c0-7.7 4.2-14.3 9.2-14.3 5 0 9.2 6.6 9.2 14.3 0 6.6-3.1 12.4-7.1 13.9V89.4c0-1.2-.8-2.1-2.1-2.1s-2.1.8-2.1 2.1v13.9c-4-1.5-7.1-7.3-7.1-13.9zm-24.2 7.7c0-5.8 3.1-10.6 6.7-10.6 3.5 0 6.7 4.8 6.7 10.6 0 4.6-1.9 8.5-4.6 9.9v-9.9c0-1.2-.8-2.1-2.1-2.1s-2.1.8-2.1 2.1v9.9c-2.7-1.5-4.6-5.4-4.6-9.9zm-25-3.8c0-7.9 3.5-13.5 6.7-13.5 3.1 0 6.7 5.6 6.7 13.5 0 6.2-2.1 10.8-4.6 12.6v-9.7c0-1.2-.8-2.1-2.1-2.1s-2.1.8-2.1 2.1v9.7c-2.5-1.6-4.6-6.4-4.6-12.6zM60 22.6h6.9c.4.2 1.3 1.4 1.5 2.9h-9.8c.4-1.7 1-2.7 1.4-2.9zm-2.5 7h11.9c1 0 3.1 2.1 3.8 5H53.8c.6-3.1 2.9-5 3.7-5zm21.7 9.1v80.1h-31L48 38.7h31.2zM10.6 4.1h32.9v114.4H10.6V4.1z"/><path id="Fill-5" class="st1" d="M18.5 12.3c-1.2 0-2.1.7-2.1 1.9V20c0 1.1.8 1.9 2.1 1.9 1.2 0 2.1-.7 2.1-1.9v-5.8c-.1-1.2-1.1-1.9-2.1-1.9z"/><path id="Fill-6" class="st1" d="M28.1 12.3c-1.2 0-2.1.7-2.1 1.9V20c0 1.1.8 1.9 2.1 1.9s2.1-.7 2.1-1.9v-5.8c-.1-1.2-1.1-1.9-2.1-1.9z"/><path id="Fill-7" class="st1" d="M36.3 12.3c-1.2 0-2.1.7-2.1 1.9V20c0 1.1.8 1.9 2.1 1.9 1.2 0 2.1-.7 2.1-1.9v-5.8c0-1.2-1.1-1.9-2.1-1.9z"/><path id="Fill-8" class="st1" d="M18.5 28.7c-1.2 0-2.1.7-2.1 1.9v5.8c0 1.1.8 1.9 2.1 1.9 1.2 0 2.1-.7 2.1-1.9v-5.8c-.1-1-1.1-1.9-2.1-1.9z"/><path id="Fill-9" class="st1" d="M28.1 28.7c-1.2 0-2.1.7-2.1 1.9v5.8c0 1.1.8 1.9 2.1 1.9s2.1-.7 2.1-1.9v-5.8c-.1-1-1.1-1.9-2.1-1.9z"/><path id="Fill-10" class="st1" d="M36.3 28.7c-1.2 0-2.1.7-2.1 1.9v5.8c0 1.1.8 1.9 2.1 1.9 1.2 0 2.1-.7 2.1-1.9v-5.8c0-1-1.1-1.9-2.1-1.9z"/><path id="Fill-11" class="st1" d="M18.5 46.4c-1.2 0-2.1.7-2.1 1.9v5.8c0 1.1.8 1.9 2.1 1.9 1.2 0 2.1-.7 2.1-1.9v-5.8c-.1-.9-1.1-1.9-2.1-1.9z"/><path id="Fill-12" class="st1" d="M28.1 46.4c-1.2 0-2.1.7-2.1 1.9v5.8c0 1.1.8 1.9 2.1 1.9s2.1-.7 2.1-1.9v-5.8c-.1-.9-1.1-1.9-2.1-1.9z"/><path id="Fill-13" class="st1" d="M36.3 46.4c-1.2 0-2.1.7-2.1 1.9v5.8c0 1.1.8 1.9 2.1 1.9 1.2 0 2.1-.7 2.1-1.9v-5.8c0-.9-1.1-1.9-2.1-1.9z"/><path id="Fill-14" class="st1" d="M18.5 62.8c-1.2 0-2.1.7-2.1 1.9v5.8c0 1.1.8 1.9 2.1 1.9 1.2 0 2.1-.7 2.1-1.9v-5.8c-.1-1.1-1.1-1.9-2.1-1.9z"/><path id="Fill-15" class="st1" d="M28.1 62.8c-1.2 0-2.1.7-2.1 1.9v5.8c0 1.1.8 1.9 2.1 1.9s2.1-.7 2.1-1.9v-5.8c-.1-1.1-1.1-1.9-2.1-1.9z"/><path id="Fill-16" class="st1" d="M36.3 62.8c-1.2 0-2.1.7-2.1 1.9v5.8c0 1.1.8 1.9 2.1 1.9 1.2 0 2.1-.7 2.1-1.9v-5.8c0-1.1-1.1-1.9-2.1-1.9z"/><path id="Fill-17" class="st1" d="M18.5 80.6c-1.2 0-2.1.7-2.1 1.9v5.8c0 1.1.8 1.9 2.1 1.9 1.2 0 2.1-.7 2.1-1.9v-5.8c-.1-1-1.1-1.9-2.1-1.9z"/><path id="Fill-18" class="st1" d="M28.1 80.6c-1.2 0-2.1.7-2.1 1.9v5.8c0 1.1.8 1.9 2.1 1.9s2.1-.7 2.1-1.9v-5.8c-.1-1-1.1-1.9-2.1-1.9z"/><path id="Fill-19" class="st1" d="M36.3 80.6c-1.2 0-2.1.7-2.1 1.9v5.8c0 1.1.8 1.9 2.1 1.9 1.2 0 2.1-.7 2.1-1.9v-5.8c0-1-1.1-1.9-2.1-1.9z"/><path id="Fill-20" class="st1" d="M18.5 97c-1.2 0-2.1.7-2.1 1.9v5.8c0 1.1.8 1.9 2.1 1.9 1.2 0 2.1-.7 2.1-1.9v-5.8c-.1-1.2-1.1-1.9-2.1-1.9z"/><path id="Fill-21" class="st1" d="M28.1 97c-1.2 0-2.1.7-2.1 1.9v5.8c0 1.1.8 1.9 2.1 1.9s2.1-.7 2.1-1.9v-5.8c-.1-1.2-1.1-1.9-2.1-1.9z"/><path id="Fill-22" class="st1" d="M36.3 97c-1.2 0-2.1.7-2.1 1.9v5.8c0 1.1.8 1.9 2.1 1.9 1.2 0 2.1-.7 2.1-1.9v-5.8c0-1.2-1.1-1.9-2.1-1.9z"/><path id="Fill-23" class="st1" d="M54.1 56c1.2 0 2.1-.7 2.1-1.9v-5.8c0-1.1-.8-1.9-2.1-1.9s-2.1.7-2.1 1.9v5.8c.1 1 1.1 1.9 2.1 1.9z"/><path id="Fill-24" class="st1" d="M63.7 56c1.2 0 2.1-.7 2.1-1.9v-5.8c0-1.1-.8-1.9-2.1-1.9s-2.1.7-2.1 1.9v5.8c0 1 1.1 1.9 2.1 1.9z"/><path id="Fill-25" class="st1" d="M71.9 56c1.2 0 2.1-.7 2.1-1.9v-5.8c0-1.1-.8-1.9-2.1-1.9s-2.1.7-2.1 1.9v5.8c.1 1 1.1 1.9 2.1 1.9z"/><path id="Fill-26" class="st1" d="M54.1 72.4c1.2 0 2.1-.7 2.1-1.9v-5.8c0-1.1-.8-1.9-2.1-1.9s-2.1.7-2.1 1.9v5.8c.1 1.1 1.1 1.9 2.1 1.9z"/><path id="Fill-27" class="st1" d="M63.7 72.4c1.2 0 2.1-.7 2.1-1.9v-5.8c0-1.1-.8-1.9-2.1-1.9s-2.1.7-2.1 1.9v5.8c0 1.1 1.1 1.9 2.1 1.9z"/><path id="Fill-28" class="st1" d="M71.9 72.4c1.2 0 2.1-.7 2.1-1.9v-5.8c0-1.1-.8-1.9-2.1-1.9s-2.1.7-2.1 1.9v5.8c.1 1.1 1.1 1.9 2.1 1.9z"/><path id="Fill-29" class="st1" d="M54.1 90.1c1.2 0 2.1-.7 2.1-1.9v-5.8c0-1.1-.8-1.9-2.1-1.9s-2.1.7-2.1 1.9v5.8c.1 1 1.1 1.9 2.1 1.9z"/><path id="Fill-30" class="st1" d="M63.7 90.1c1.2 0 2.1-.7 2.1-1.9v-5.8c0-1.1-.8-1.9-2.1-1.9s-2.1.7-2.1 1.9v5.8c0 1 1.1 1.9 2.1 1.9z"/><path id="Fill-31" class="st1" d="M71.9 90.1c1.2 0 2.1-.7 2.1-1.9v-5.8c0-1.1-.8-1.9-2.1-1.9s-2.1.7-2.1 1.9v5.8c.1 1 1.1 1.9 2.1 1.9z"/><path id="Fill-32" class="st1" d="M54.1 106.5c1.2 0 2.1-.7 2.1-1.9v-5.8c0-1.1-.8-1.9-2.1-1.9s-2.1.7-2.1 1.9v5.8c.1 1.2 1.1 1.9 2.1 1.9z"/><path id="Fill-33" class="st1" d="M63.7 106.5c1.2 0 2.1-.7 2.1-1.9v-5.8c0-1.1-.8-1.9-2.1-1.9s-2.1.7-2.1 1.9v5.8c0 1.2 1.1 1.9 2.1 1.9z"/><path id="Fill-34" class="st1" d="M71.9 106.5c1.2 0 2.1-.7 2.1-1.9v-5.8c0-1.1-.8-1.9-2.1-1.9s-2.1.7-2.1 1.9v5.8c.1 1.2 1.1 1.9 2.1 1.9z"/></g><g id="Group-48-Copy"><path class="st1" d="M3.4 136.6c2.9 0 4.4.8 6 1.8 1.9 1 4 2.3 8.1 2.3s6.2-1.2 8.1-2.3c1.7-1 3.1-1.8 6-1.8s4.4.8 6 1.8c1.9 1 4 2.3 8.1 2.3s6.2-1.2 8.1-2.3c1.7-1 3.1-1.8 6-1.8s4.4.8 6 1.8c1.9 1 4 2.3 8.1 2.3s6.2-1.2 8.1-2.3c1.7-1 3.1-1.8 6-1.8s4.4.8 6 1.8c1.9 1 4 2.3 8.1 2.3s6.2-1.2 8.1-2.3c1.7-1 3.1-1.8 6-1.8s4.4.8 6 1.8c1.9 1 4 2.3 8.1 2.3 4.2 0 6.2-1.2 8.1-2.3 1.7-1 3.1-1.8 6-1.8s4.4.8 6 1.8c1.9 1 4 2.3 8.1 2.3 1.3 0 2.1-.8 2.1-2s-.8-2-2.1-2c-2.9 0-4.4-.8-6-1.8-1.9-1-4-2.3-8.1-2.3s-6.2 1.2-8.1 2.3c-1.7 1-3.1 1.8-6 1.8s-4.4-.8-6-1.8c-1.9-1-4-2.3-8.1-2.3-4.2 0-6.2 1.2-8.1 2.3-1.7 1-3.1 1.8-6 1.8s-4.4-.8-6-1.8c-1.9-1-4-2.3-8.1-2.3s-6.2 1.2-8.1 2.3c-1.7 1-3.1 1.8-6 1.8s-4.4-.8-6-1.8c-1.9-1-4-2.3-8.1-2.3s-6.2 1.2-8.1 2.3c-1.7 1-3.1 1.8-6 1.8s-4.4-.8-6-1.8c-1.9-1-4-2.3-8.1-2.3s-6.2 1.2-8.1 2.3c-1.7 1-3.1 1.8-6 1.8s-4.4-.8-6-1.8c-1.9-1-4-2.3-8.1-2.3-1.3 0-2.1.8-2.1 2 .1 1.2.9 2 2.1 2zM3.4 150.2c2.9 0 4.4.8 6 1.8 1.9 1 4 2.3 8.1 2.3s6.2-1.2 8.1-2.3c1.7-1 3.1-1.8 6-1.8s4.4.8 6 1.8c1.9 1 4 2.3 8.1 2.3s6.2-1.2 8.1-2.3c1.7-1 3.1-1.8 6-1.8s4.4.8 6 1.8c1.9 1 4 2.3 8.1 2.3s6.2-1.2 8.1-2.3c1.7-1 3.1-1.8 6-1.8s4.4.8 6 1.8c1.9 1 4 2.3 8.1 2.3s6.2-1.2 8.1-2.3c1.7-1 3.1-1.8 6-1.8s4.4.8 6 1.8c1.9 1 4 2.3 8.1 2.3 4.2 0 6.2-1.2 8.1-2.3 1.7-1 3.1-1.8 6-1.8s4.4.8 6 1.8c1.9 1 4 2.3 8.1 2.3 1.3 0 2.1-.8 2.1-2s-.8-2-2.1-2c-2.9 0-4.4-.8-6-1.8-1.9-1-4-2.3-8.1-2.3s-6.2 1.2-8.1 2.3c-1.7 1-3.1 1.8-6 1.8s-4.4-.8-6-1.8c-1.9-1-4-2.3-8.1-2.3-4.2 0-6.2 1.2-8.1 2.3-1.7 1-3.1 1.8-6 1.8s-4.4-.8-6-1.8c-1.9-1-4-2.3-8.1-2.3s-6.2 1.2-8.1 2.3c-1.7 1-3.1 1.8-6 1.8s-4.4-.8-6-1.8c-1.9-1-4-2.3-8.1-2.3s-6.2 1.2-8.1 2.3c-1.7 1-3.1 1.8-6 1.8s-4.4-.8-6-1.8c-1.9-1-4-2.3-8.1-2.3s-6.2 1.2-8.1 2.3c-1.7 1-3.1 1.8-6 1.8s-4.4-.8-6-1.8c-1.9-1-4-2.3-8.1-2.3-1.3 0-2.1.8-2.1 2s.9 2 2.1 2zM3.4 163.9c2.9 0 4.4.8 6 1.8 1.9 1 4 2.3 8.1 2.3s6.2-1.2 8.1-2.3c1.7-1 3.1-1.8 6-1.8s4.4.8 6 1.8c1.9 1 4 2.3 8.1 2.3s6.2-1.2 8.1-2.3c1.7-1 3.1-1.8 6-1.8s4.4.8 6 1.8c1.9 1 4 2.3 8.1 2.3s6.2-1.2 8.1-2.3c1.7-1 3.1-1.8 6-1.8s4.4.8 6 1.8c1.9 1 4 2.3 8.1 2.3s6.2-1.2 8.1-2.3c1.7-1 3.1-1.8 6-1.8s4.4.8 6 1.8c1.9 1 4 2.3 8.1 2.3 4.2 0 6.2-1.2 8.1-2.3 1.7-1 3.1-1.8 6-1.8s4.4.8 6 1.8c1.9 1 4 2.3 8.1 2.3 1.3 0 2.1-.8 2.1-2s-.8-2-2.1-2c-2.9 0-4.4-.8-6-1.8-1.9-1-4-2.3-8.1-2.3s-6.2 1.2-8.1 2.3c-1.7 1-3.1 1.8-6 1.8s-4.4-.8-6-1.8c-1.9-1-4-2.3-8.1-2.3-4.2 0-6.2 1.2-8.1 2.3-1.7 1-3.1 1.8-6 1.8s-4.4-.8-6-1.8c-1.9-1-4-2.3-8.1-2.3s-6.2 1.2-8.1 2.3c-1.7 1-3.1 1.8-6 1.8s-4.4-.8-6-1.8c-1.9-1-4-2.3-8.1-2.3s-6.2 1.2-8.1 2.3c-1.7 1-3.1 1.8-6 1.8s-4.4-.8-6-1.8c-1.9-1-4-2.3-8.1-2.3s-6.2 1.2-8.1 2.3c-1.7 1-3.1 1.8-6 1.8s-4.4-.8-6-1.8c-1.9-1-4-2.3-8.1-2.3-1.3 0-2.1.8-2.1 2s.9 2 2.1 2zM2.1 122.9h157.5c1.3 0 2.1-.8 2.1-2.1s-.8-2.1-2.1-2.1h-6.9v-11.2c6.5-1.2 11.3-8.9 11.3-18.2 0-10.3-5.9-18.4-13.4-18.4-7.6 0-13.4 8.1-13.4 18.4 0 9.3 4.8 16.8 11.3 18.2v11h-22.7v-7.2c5-1.2 8.8-7.2 8.8-14.5 0-8.3-4.8-14.7-10.9-14.7s-10.9 6.6-10.9 14.9c0 7.2 3.8 13.2 8.8 14.5v7.2h-21v-8.1c5-1.4 8.8-8.5 8.8-17.2 0-9.9-4.8-17.6-10.9-17.6-6.1 0-10.9 7.7-10.9 17.4 0 8.7 3.8 15.7 8.8 17.2v8.1H83.9v-82c0-1.2-.8-2.1-2.1-2.1h-4c-.4-3.5-2.3-6.4-4.6-7.9-.2-4.3-2.7-8.3-5.7-8.3H66V6.8c0-1.2-.8-2.1-2.1-2.1s-2.1.8-2.1 2.1v11.6h-1.5c-2.9 0-5.5 3.9-5.7 8.3-2.3 1.4-4.2 4.3-4.6 7.9h-1.9V2.1C48.1.9 47.3 0 46 0H8.6C7.3 0 6.5.8 6.5 2.1v116.5H2.1c-1.3 0-2.1.8-2.1 2.1 0 1.2.8 2.2 2.1 2.2zm139.3-33.5c0-7.7 4.2-14.3 9.2-14.3 5 0 9.2 6.6 9.2 14.3 0 6.6-3.1 12.4-7.1 13.9V89.4c0-1.2-.8-2.1-2.1-2.1s-2.1.8-2.1 2.1v13.9c-4-1.5-7.1-7.3-7.1-13.9zM117 97.1c0-5.8 3.1-10.6 6.7-10.6s6.7 4.8 6.7 10.6c0 4.6-1.9 8.5-4.6 9.9v-9.9c0-1.2-.8-2.1-2.1-2.1s-2.1.8-2.1 2.1v9.9c-2.7-1.5-4.6-5.4-4.6-9.9zm-25.1-3.8c0-7.9 3.6-13.5 6.7-13.5s6.7 5.6 6.7 13.5c0 6.2-2.1 10.8-4.6 12.6v-9.7c0-1.2-.8-2.1-2.1-2.1s-2.1.8-2.1 2.1v9.7c-2.5-1.6-4.6-6.4-4.6-12.6zM60.4 22.6h6.9c.4.2 1.3 1.4 1.5 2.9h-9.9c.4-1.7 1.1-2.7 1.5-2.9zm-2.5 7h12c1 0 3.1 2.1 3.8 5H54.1c.6-3.1 2.9-5 3.8-5zm21.8 9.1v80.1H48.4l-.2-80.1h31.5zm-69-34.6h33.1v114.4H10.7V4.1z" transform="translate(163)"/><path class="st1" d="M18.5 12.3c-1.2 0-2.1.7-2.1 1.9V20c0 1.1.8 1.9 2.1 1.9s2-.7 2-1.9v-5.8c0-1.2-1-1.9-2-1.9zM28 12.3c-1.2 0-2 .7-2 1.9V20c0 1.1.8 1.9 2 1.9s2.1-.7 2.1-1.9v-5.8c0-1.2-1.1-1.9-2.1-1.9zM36.2 12.3c-1.2 0-2 .7-2 1.9V20c0 1.1.8 1.9 2 1.9s2-.7 2-1.9v-5.8c.1-1.2-1-1.9-2-1.9zM18.5 28.7c-1.2 0-2.1.7-2.1 1.9v5.8c0 1.1.8 1.9 2.1 1.9s2-.7 2-1.9v-5.8c0-1-1-1.9-2-1.9zM28 28.7c-1.2 0-2 .7-2 1.9v5.8c0 1.1.8 1.9 2 1.9s2.1-.7 2.1-1.9v-5.8c0-1-1.1-1.9-2.1-1.9zM36.2 28.7c-1.2 0-2 .7-2 1.9v5.8c0 1.1.8 1.9 2 1.9s2-.7 2-1.9v-5.8c.1-1-1-1.9-2-1.9zM18.5 46.4c-1.2 0-2.1.7-2.1 1.9v5.8c0 1.1.8 1.9 2.1 1.9s2-.7 2-1.9v-5.8c0-.9-1-1.9-2-1.9zM28 46.4c-1.2 0-2 .7-2 1.9v5.8c0 1.1.8 1.9 2 1.9s2.1-.7 2.1-1.9v-5.8c0-.9-1.1-1.9-2.1-1.9zM36.2 46.4c-1.2 0-2 .7-2 1.9v5.8c0 1.1.8 1.9 2 1.9s2-.7 2-1.9v-5.8c.1-.9-1-1.9-2-1.9zM18.5 62.8c-1.2 0-2.1.7-2.1 1.9v5.8c0 1.1.8 1.9 2.1 1.9s2-.7 2-1.9v-5.8c0-1.1-1-1.9-2-1.9zM28 62.8c-1.2 0-2 .7-2 1.9v5.8c0 1.1.8 1.9 2 1.9s2.1-.7 2.1-1.9v-5.8c0-1.1-1.1-1.9-2.1-1.9zM36.2 62.8c-1.2 0-2 .7-2 1.9v5.8c0 1.1.8 1.9 2 1.9s2-.7 2-1.9v-5.8c.1-1.1-1-1.9-2-1.9zM18.5 80.6c-1.2 0-2.1.7-2.1 1.9v5.8c0 1.1.8 1.9 2.1 1.9s2-.7 2-1.9v-5.8c0-1-1-1.9-2-1.9zM28 80.6c-1.2 0-2 .7-2 1.9v5.8c0 1.1.8 1.9 2 1.9s2.1-.7 2.1-1.9v-5.8c0-1-1.1-1.9-2.1-1.9zM36.2 80.6c-1.2 0-2 .7-2 1.9v5.8c0 1.1.8 1.9 2 1.9s2-.7 2-1.9v-5.8c.1-1-1-1.9-2-1.9zM18.5 97c-1.2 0-2.1.7-2.1 1.9v5.8c0 1.1.8 1.9 2.1 1.9s2-.7 2-1.9v-5.8c0-1.2-1-1.9-2-1.9zM28 97c-1.2 0-2 .7-2 1.9v5.8c0 1.1.8 1.9 2 1.9s2.1-.7 2.1-1.9v-5.8c0-1.2-1.1-1.9-2.1-1.9zM36.2 97c-1.2 0-2 .7-2 1.9v5.8c0 1.1.8 1.9 2 1.9s2-.7 2-1.9v-5.8c.1-1.2-1-1.9-2-1.9zM55.3 56c1.2 0 2.1-.7 2.1-1.9v-5.8c0-1.1-.8-1.9-2.1-1.9-1.2 0-2 .7-2 1.9v5.8c0 1 1 1.9 2 1.9zM63.5 56c1.2 0 2-.7 2-1.9v-5.8c0-1.1-.8-1.9-2-1.9s-2 .7-2 1.9v5.8c0 1 1 1.9 2 1.9zM73.1 56c1.2 0 2-.7 2-1.9v-5.8c0-1.1-.8-1.9-2-1.9s-2.1.7-2.1 1.9v5.8c.1 1 1.1 1.9 2.1 1.9zM55.3 72.4c1.2 0 2.1-.7 2.1-1.9v-5.8c0-1.1-.8-1.9-2.1-1.9-1.2 0-2 .7-2 1.9v5.8c0 1.1 1 1.9 2 1.9zM63.5 72.4c1.2 0 2-.7 2-1.9v-5.8c0-1.1-.8-1.9-2-1.9s-2 .7-2 1.9v5.8c0 1.1 1 1.9 2 1.9zM73.1 72.4c1.2 0 2-.7 2-1.9v-5.8c0-1.1-.8-1.9-2-1.9s-2.1.7-2.1 1.9v5.8c.1 1.1 1.1 1.9 2.1 1.9zM55.3 90.1c1.2 0 2.1-.7 2.1-1.9v-5.8c0-1.1-.8-1.9-2.1-1.9-1.2 0-2 .7-2 1.9v5.8c0 1 1 1.9 2 1.9zM63.5 90.1c1.2 0 2-.7 2-1.9v-5.8c0-1.1-.8-1.9-2-1.9s-2 .7-2 1.9v5.8c0 1 1 1.9 2 1.9zM73.1 90.1c1.2 0 2-.7 2-1.9v-5.8c0-1.1-.8-1.9-2-1.9s-2.1.7-2.1 1.9v5.8c.1 1 1.1 1.9 2.1 1.9zM55.3 106.5c1.2 0 2.1-.7 2.1-1.9v-5.8c0-1.1-.8-1.9-2.1-1.9-1.2 0-2 .7-2 1.9v5.8c0 1.2 1 1.9 2 1.9zM63.5 106.5c1.2 0 2-.7 2-1.9v-5.8c0-1.1-.8-1.9-2-1.9s-2 .7-2 1.9v5.8c0 1.2 1 1.9 2 1.9zM73.1 106.5c1.2 0 2-.7 2-1.9v-5.8c0-1.1-.8-1.9-2-1.9s-2.1.7-2.1 1.9v5.8c.1 1.2 1.1 1.9 2.1 1.9zM132.6 30c0-4.6-3.8-8.2-8.2-8.2-4.4 0-8.2 3.8-8.2 8.2 0 4.4 3.8 8.2 8.2 8.2 4.4 0 8.2-3.6 8.2-8.2zm-8.4 4.5c-2.4 0-4.2-2-4.2-4.2s2-4.2 4.2-4.2 4.2 2 4.2 4.2-1.8 4.2-4.2 4.2zM123.7 17.8c1.2 0 2-.9 2-2.2v-5.2c0-1.3-.8-2.2-2-2.2s-2.1.9-2.1 2.2v5.2c0 1.3 1.1 2.2 2.1 2.2zM130.7 20.3c.3.2.5.2.8.2.5 0 1.2-.5 1.5-1.2l2-4.9c.5-1.2.2-2.5-.7-3.2-.8-.7-1.8-.2-2.3.9l-2 4.9c-.4 1.2-.1 2.6.7 3.3zM135.7 25.1c.5.5 1.1.9 2.1.9.5 0 .7 0 1.1-.2l4.8-2.1c1.1-.5 1.4-1.5.9-2.4-.7-.9-2.1-1-3.2-.7l-4.8 2.1c-1.4.5-1.6 1.5-.9 2.4zM136.7 29.4c0 1 1.1 2 2.2 2h5.2c1.3 0 2.2-1 2.2-2 0-1.2-1.1-2-2.2-2h-5.2c-1.4-.1-2.2.9-2.2 2zM142.5 42.3c.9 0 1.6-.3 2.1-.8.7-.8.2-1.9-.9-2.4l-4.8-2c-1.1-.5-2.5-.2-3.2.7-.7.8-.2 1.9.9 2.4l4.8 2c.2.1.6.1 1.1.1zM132.2 49.4c.3.7.8 1.2 1.5 1.2.3 0 .7 0 .8-.2.8-.7 1-2.1.5-3.3l-2.1-4.9c-.5-1.2-1.5-1.4-2.3-.7-.8.7-1 2.1-.5 3.3l2.1 4.6zM123.6 43.7c-1.2 0-2 1.1-2 2.2l.2 5.2c0 1.1 1 2.2 2 2.2 1.2 0 2-1.1 2-2.2v-5.4c-.3-1.1-1-2.2-2.2-2zM115.7 50.3c.2.2.5.2.9.2.7 0 1.2-.5 1.5-1.2l1.9-4.9c.5-1.2.2-2.5-.7-3.2-.9-.7-1.9-.2-2.4.9l-1.9 5.1c-.5 1-.1 2.4.7 3.1zM115.8 39c-.7-.8-2.1-1-3.3-.5l-4.7 2.1c-1.2.5-1.4 1.5-.7 2.3.5.5 1.2.8 1.9.8.5 0 .9-.2 1.2-.3l4.7-2.1c1.4-.5 1.6-1.5.9-2.3zM104.5 34.1c.2 0 .2 0 0 0l5.5-.2c1.3 0 2.2-1 2-2 0-1.2-1.1-2-2.2-1.8l-5.3.2c-1.3 0-2.2 1-2 2 0 1 .9 1.8 2 1.8zM105.1 23.8l5 1.9c.2.2.7.2 1.1.2.9 0 1.6-.4 2-.9.4-.9.2-1.9-.9-2.3l-5.2-2.1c-1.1-.4-2.5-.2-2.9.7-.7.9-.2 2 .9 2.5zM114.5 19.6c.3.7.8.9 1.3.9.3 0 .7-.2 1-.5.8-.7 1-2.1.5-3.3l-2.1-4.7c-.5-1.2-1.5-1.4-2.3-.7-.8.7-1 2.1-.5 3.3l2.1 5z" transform="translate(163)"/></g></g></g></svg>