<svg xmlns="http://www.w3.org/2000/svg" viewBox="0 0 516 166.49"><defs><style>.a,.d{fill:none;stroke:#fff;stroke-width:2px;}.b{fill:#ffc61e;}.c{fill:#29b770;}.d{stroke-linecap:square;}.e{isolation:isolate;}.f,.i{fill:#fff;}.g{fill:#ffd400;}.h{fill:#ebedf1;}.i{fill-rule:evenodd;}.j{fill:#dedfe1;}</style></defs><title>teroArtboard 1</title><rect class="a" x="2" y="42.28" width="512" height="41"/><rect class="b" x="142" y="47.78" width="287.5" height="30"/><rect class="c" x="429.5" y="47.78" width="79.75" height="30"/><path class="d" d="M141.5,115.82l.5-25.71"/><path class="d" d="M1.5,115.38,2,89.67"/><path class="d" d="M428.5,115.38l.5-25.71"/><g class="e"><path class="f" d="M436.41,136a36.46,36.46,0,0,0-3.93,12.66H429.1a36.78,36.78,0,0,1,4-11.84h-4.26v3.32l-2.81-1.43v-4.58h10.33Z"/><path class="f" d="M442.73,133.89c3.4,0,5.71,2.65,5.71,7.47s-2.31,7.56-5.71,7.56-5.69-2.73-5.69-7.56S439.35,133.89,442.73,133.89Zm0,12.39c2,0,2.56-2.44,2.56-4.92s-.59-4.82-2.56-4.82-2.54,2.35-2.54,4.82S440.78,146.28,442.73,146.28Z"/><path class="f" d="M450,139.87a5,5,0,0,1-.21-1.42c0-2.84,2.27-4.56,5.06-4.56s4.92,1.7,4.92,4.45c0,4.33-5.34,6.32-5.86,7.6v0h5.84v2.69h-9.54a4.66,4.66,0,0,1-.06-.75c0-4.25,6.59-5.95,6.59-9.39a1.86,1.86,0,0,0-1.93-2c-1.32,0-2.12,1-2.12,2.59a7,7,0,0,0,.38,2.18Z"/></g><g class="e"><path class="g" d="M138.73,130.59a8.59,8.59,0,0,1-.36-2.45c0-4.86,3.89-7.81,8.67-7.81s8.43,2.92,8.43,7.63c0,7.42-9.15,10.84-10.05,13v.07h10v4.61H139.09a7.72,7.72,0,0,1-.11-1.29c0-7.28,11.3-10.19,11.3-16.09a3.19,3.19,0,0,0-3.31-3.5c-2.27,0-3.64,1.73-3.64,4.43A12.09,12.09,0,0,0,144,133Z"/><path class="g" d="M165.76,140.16l4.86-2.66c.29,2.3,1.51,4.14,4,4.14s3.78-2.12,3.78-4.64-1.4-4.5-3.71-4.5a3.82,3.82,0,0,0-3.67,2.84l-4.46-2.05,1.55-12.53h13.78v4.5h-9.64l-.33,2.49a25.46,25.46,0,0,1-.54,2.95h0a6.1,6.1,0,0,1,4.71-2c4,0,7.38,3.09,7.38,8.35,0,5.47-3.7,9.1-8.78,9.1C170,146.1,166.77,143.48,165.76,140.16Z"/><path class="g" d="M185.64,140.16l4.85-2.66c.29,2.3,1.52,4.14,4,4.14s3.78-2.12,3.78-4.64-1.4-4.5-3.7-4.5a3.83,3.83,0,0,0-3.68,2.84l-4.46-2.05,1.55-12.53h13.79v4.5h-9.65l-.33,2.49a25.46,25.46,0,0,1-.54,2.95h0a6.1,6.1,0,0,1,4.72-2c4,0,7.37,3.09,7.37,8.35,0,5.47-3.7,9.1-8.78,9.1C189.85,146.1,186.64,143.48,185.64,140.16Z"/><path class="g" d="M206.15,141.06l4.65-2.73c.25,1.8,1.26,3.45,3.6,3.45,3.06,0,4.1-2.73,4.32-7.2l-.11,0a6.45,6.45,0,0,1-5.44,2.59c-3.92,0-7.7-2.88-7.7-8.17s3.82-8.64,8.89-8.64c5.8,0,9.25,3.89,9.25,11.63,0,8.49-2.48,14.14-9.28,14.14A8.36,8.36,0,0,1,206.15,141.06Zm8.21-7.77c2.52,0,4-1.8,4-4.36s-1.51-4.42-4-4.42-4,1.83-4,4.39S211.84,133.29,214.36,133.29Z"/></g><g class="e"><path class="f" d="M.65,132.46l2.83-1.55c.19,1.38.94,2.41,2.37,2.41A2.12,2.12,0,0,0,8,131a2.16,2.16,0,0,0-2.24-2.31,4,4,0,0,0-2.31.82l-1-2.5,3.93-3.21H1.21v-2.63h9.37v2.16l-2.73,2.17a19.81,19.81,0,0,1-2,1.28l0,.06a3.92,3.92,0,0,1,.71-.08A4.16,4.16,0,0,1,11,131.09a4.79,4.79,0,0,1-5.09,4.83A5.2,5.2,0,0,1,.65,132.46Z"/><path class="f" d="M16.92,132.46l2.83-1.55c.17,1.34.89,2.41,2.31,2.41s2.21-1.24,2.21-2.71S23.45,128,22.11,128A2.23,2.23,0,0,0,20,129.65l-2.6-1.2.9-7.31h8v2.63H20.68l-.19,1.44a15.27,15.27,0,0,1-.32,1.73h0a3.55,3.55,0,0,1,2.75-1.2c2.33,0,4.3,1.81,4.3,4.87a5,5,0,0,1-5.12,5.31A5.15,5.15,0,0,1,16.92,132.46Z"/><path class="f" d="M31.12,124.79a5,5,0,0,1-2.42,1.47l-1.24-2.58a8.34,8.34,0,0,0,4.37-2.54H34.1v14.53h-3V127c0-1,.09-2.21.09-2.21Z"/><path class="f" d="M36.7,132,36,130.19a18.18,18.18,0,0,0,2.54-9.3l2.83,1.43A13.62,13.62,0,0,1,39,129.43h3.45v-8.29h2.94v8.29h1.7V132h-1.7v3.65H42.48V132Z"/></g><g class="e"><path class="h" d="M3.83,31.88a2.52,2.52,0,0,1-1.24.78l-.5-.94a4.08,4.08,0,0,0,2-1.29H5v6.92H3.83V32.94c0-.53,0-1.06,0-1.06Z"/><path class="h" d="M6.3,36l1-.63A1.13,1.13,0,0,0,8.48,36.5c1,0,1.3-.94,1.36-2.34h0A1.8,1.8,0,0,1,8.22,35,2.14,2.14,0,0,1,6.09,32.7a2.28,2.28,0,0,1,2.36-2.39c1.58,0,2.47,1.07,2.47,3.25s-.6,3.91-2.45,3.91A2.16,2.16,0,0,1,6.3,36Zm2.15-2a1.25,1.25,0,0,0,1.28-1.39,1.29,1.29,0,0,0-1.28-1.43,1.42,1.42,0,0,0,0,2.82Z"/><path class="h" d="M12,36l1-.63a1.13,1.13,0,0,0,1.14,1.11c1,0,1.3-.94,1.36-2.34h0a1.8,1.8,0,0,1-1.59.82,2.14,2.14,0,0,1-2.13-2.27,2.28,2.28,0,0,1,2.36-2.39c1.58,0,2.47,1.07,2.47,3.25s-.6,3.91-2.45,3.91A2.16,2.16,0,0,1,12,36Zm2.15-2a1.25,1.25,0,0,0,1.28-1.39,1.29,1.29,0,0,0-1.28-1.43,1.42,1.42,0,0,0,0,2.82Z"/><path class="h" d="M20.06,30.31c1.56,0,2.58,1.27,2.58,3.56s-1,3.6-2.58,3.6-2.59-1.31-2.59-3.6S18.49,30.31,20.06,30.31Zm0,6.15c1.07,0,1.4-1.27,1.4-2.59s-.33-2.55-1.4-2.55-1.41,1.23-1.41,2.55S19,36.46,20.06,36.46Z"/></g><polygon class="i" points="142 34.67 136 22.67 148 22.67 142 34.67"/><g class="e"><path class="h" d="M429.4,33.24a2.62,2.62,0,0,1-.13-.8,2.09,2.09,0,0,1,2.28-2.13,2,2,0,0,1,2.18,2.07c0,2.13-2.57,3.13-3,3.92v0h3v1h-4.33a2.47,2.47,0,0,1,0-.34c0-1.83,3.18-2.68,3.18-4.55a1.05,1.05,0,0,0-1.08-1.17c-.73,0-1.16.52-1.16,1.32a3.65,3.65,0,0,0,.21,1.2Z"/><path class="h" d="M437.1,30.31c1.56,0,2.58,1.27,2.58,3.56s-1,3.6-2.58,3.6-2.59-1.31-2.59-3.6S435.53,30.31,437.1,30.31Zm0,6.15c1.07,0,1.4-1.27,1.4-2.59s-.33-2.55-1.4-2.55-1.41,1.23-1.41,2.55S436,36.46,437.1,36.46Z"/><path class="h" d="M440.36,35.77l1.07-.62a1.33,1.33,0,0,0,1.29,1.34,1.22,1.22,0,0,0,1.22-1.36,1.21,1.21,0,0,0-1.24-1.3,1.92,1.92,0,0,0-1.14.41l-.39-.94,2.13-1.86h-2.7v-1h4.25v.83l-1.36,1.19c-.33.28-.87.64-.87.64v0a1.55,1.55,0,0,1,.38-.06,2,2,0,0,1,2.05,2.1,2.22,2.22,0,0,1-2.32,2.31A2.32,2.32,0,0,1,440.36,35.77Z"/><path class="h" d="M445.82,35.77l1.07-.62c.08.7.46,1.34,1.27,1.34s1.24-.71,1.24-1.53a1.3,1.3,0,0,0-1.22-1.46,1.21,1.21,0,0,0-1.16.88l-1-.49.44-3.46h3.61v1h-2.7l-.12.92a8,8,0,0,1-.16.85h0a1.71,1.71,0,0,1,1.35-.63A2.14,2.14,0,0,1,450.52,35a2.31,2.31,0,0,1-2.35,2.51A2.29,2.29,0,0,1,445.82,35.77Z"/></g><g class="e"><path class="f" d="M42.19,9.79H37.5v4.88H35V2.91h2.5V7.57h4.69V2.91h2.5V14.67h-2.5Z"/><path class="f" d="M48.56,11c.11,1.4.89,2.08,1.89,2.08A1.62,1.62,0,0,0,52.1,11.7l2,1.14a4.12,4.12,0,0,1-3.67,2c-2.4,0-4.15-1.67-4.15-4.49S48.09,5.9,50.4,5.9a3.7,3.7,0,0,1,3.82,4A5.2,5.2,0,0,1,54.1,11Zm0-1.59H52a1.66,1.66,0,0,0-1.6-1.81C49.52,7.63,48.8,8.26,48.61,9.44Z"/><path class="f" d="M55.72,2.36h2.41V14.67H55.72Z"/><path class="f" d="M64.87,12.29c0-.68-1-.83-2.06-1.14-1.29-.34-2.91-1-2.91-2.62S61.45,5.9,63.28,5.9a4.61,4.61,0,0,1,3.93,1.95L65.15,9a1.79,1.79,0,0,0-1.78-1.36c-.61,0-1.12.27-1.12.77s1.12.71,2.39,1.12,2.57,1,2.57,2.6-1.6,2.74-3.45,2.74a4.58,4.58,0,0,1-4.28-2.21l2.09-1.18a2.15,2.15,0,0,0,2.16,1.63C64.39,13.12,64.87,12.84,64.87,12.29Z"/><path class="f" d="M71.27,3.74A1.39,1.39,0,1,1,69.88,2.4,1.33,1.33,0,0,1,71.27,3.74ZM68.67,6.1h2.42v8.57H68.67Z"/><path class="f" d="M80.64,14.67H78.23v-5c0-1.14-.39-1.74-1.29-1.74a1.49,1.49,0,0,0-1.48,1.67v5.08h-2.4V6.1h2.4l-.12,1.41h0A2.77,2.77,0,0,1,78,5.9c1.64,0,2.68,1.16,2.68,3.28Z"/><path class="f" d="M85.88,5.9c.76,0,1.2.15,1.78.15s1-.41,1-1a4.45,4.45,0,0,0-.09-.82l2.2,1.26c0,1.12-.55,1.65-1.52,1.65a2.71,2.71,0,0,1-.68-.1v.07a2.44,2.44,0,0,1,1.06,2c0,1.7-1.64,2.77-3.66,2.77-.93,0-1.73.29-1.73.75s.3.51,1,.51,1.53-.14,2.46-.14c1.86,0,3.08.75,3.08,2.41,0,2-2.24,2.81-4.78,2.81-2.34,0-4.48-.66-4.48-2.18,0-.92.93-1.46,1.8-1.61v0a1.5,1.5,0,0,1-1.23-1.36c0-1,1-1.5,2-1.7v-.05a2.53,2.53,0,0,1-1.71-2.45C82.38,7.06,83.85,5.9,85.88,5.9ZM86,16.61c1.58,0,2.5-.31,2.5-1,0-.56-.83-.75-1.86-.75s-3,.09-3,.88C83.58,16.34,84.59,16.61,86,16.61Zm0-6.41a1.35,1.35,0,1,0-1.46-1.34A1.36,1.36,0,0,0,86,10.2Z"/><path class="f" d="M94.34,3.74A1.39,1.39,0,1,1,93,2.4,1.33,1.33,0,0,1,94.34,3.74ZM91.74,6.1h2.42v8.57H91.74Z"/><path class="f" d="M103.71,14.67H101.3v-5c0-1.14-.4-1.74-1.3-1.74a1.49,1.49,0,0,0-1.47,1.67v5.08h-2.4V6.1h2.4l-.12,1.41h0A2.77,2.77,0,0,1,101,5.9c1.65,0,2.69,1.16,2.69,3.28Z"/><path class="f" d="M112.5,12.41h0s.34-1.5.63-2.57l1-3.74h2.46l-2.75,8.57h-2.88L108.3,6.1h2.53l1,3.74C112.16,10.91,112.5,12.41,112.5,12.41Z"/><path class="f" d="M117.67,6.1h2.39v5c0,1.14.36,1.73,1.26,1.73s1.43-.66,1.43-1.65V6.1h2.41v8.57h-2.41l.12-1.41h-.05a2.72,2.72,0,0,1-2.52,1.62c-1.65,0-2.63-1.16-2.63-3.29Z"/><path class="f" d="M126.68,10.39c0-2.79,1.8-4.49,4.14-4.49S135,7.6,135,10.39s-1.81,4.49-4.14,4.49S126.68,13.17,126.68,10.39ZM130.82,13c1.18,0,1.7-1.12,1.7-2.65s-.52-2.65-1.7-2.65-1.71,1.12-1.71,2.65S129.63,13,130.82,13Z"/><path class="f" d="M141.14,12.29c0-.68-.95-.83-2-1.14-1.29-.34-2.91-1-2.91-2.62s1.55-2.63,3.38-2.63a4.61,4.61,0,0,1,3.93,1.95L141.43,9a1.79,1.79,0,0,0-1.78-1.36c-.61,0-1.12.27-1.12.77s1.12.71,2.39,1.12,2.57,1,2.57,2.6-1.6,2.74-3.45,2.74a4.58,4.58,0,0,1-4.28-2.21l2.09-1.18A2.15,2.15,0,0,0,140,13.12C140.67,13.12,141.14,12.84,141.14,12.29Z"/><path class="f" d="M147.55,3.74a1.39,1.39,0,1,1-1.39-1.34A1.33,1.33,0,0,1,147.55,3.74ZM145,6.1h2.42v8.57H145Z"/><path class="f" d="M151.67,7.51a2.75,2.75,0,0,1,2.51-1.61c1.82,0,3.35,1.75,3.35,4.49s-1.53,4.49-3.35,4.49a2.76,2.76,0,0,1-2.41-1.42h0V18h-2.39V6.1h2.39l-.1,1.41ZM153.38,13c1.11,0,1.72-1,1.72-2.56s-.61-2.57-1.72-2.57-1.71,1-1.71,2.57S152.28,13,153.38,13Z"/><path class="f" d="M160.63,9.44l-2.11-1.13a4.32,4.32,0,0,1,4-2.41c1.94,0,3.47,1,3.47,3.2v3.41a8.06,8.06,0,0,0,.21,2.16h-1.81A2.81,2.81,0,0,1,164,13.6h-.05a2.85,2.85,0,0,1-2.43,1.28,2.49,2.49,0,0,1-2.71-2.52c0-1.92,1.77-2.41,3.15-2.69,1.17-.25,1.83-.4,1.83-1s-.52-.93-1.22-.93A2,2,0,0,0,160.63,9.44ZM162,3.81a1.29,1.29,0,0,1-2.57,0,1.29,1.29,0,0,1,2.57,0Zm1.78,6.66a2.54,2.54,0,0,1-1.34.67c-.73.18-1.4.37-1.4,1s.38.88,1.13.88a1.55,1.55,0,0,0,1.61-1.63Zm1.6-6.66a1.29,1.29,0,0,1-2.57,0,1.29,1.29,0,0,1,2.57,0Z"/><path class="f" d="M169.52,9.44l-2.11-1.13a4.32,4.32,0,0,1,4-2.41c1.94,0,3.47,1,3.47,3.2v3.41a8.06,8.06,0,0,0,.21,2.16h-1.81a2.81,2.81,0,0,1-.47-1.07h0a2.84,2.84,0,0,1-2.43,1.28,2.49,2.49,0,0,1-2.71-2.52c0-1.92,1.77-2.41,3.15-2.69,1.17-.25,1.83-.4,1.83-1s-.52-.93-1.22-.93A2,2,0,0,0,169.52,9.44Zm1.41-5.63a1.29,1.29,0,0,1-2.57,0,1.29,1.29,0,0,1,2.57,0Zm1.78,6.66a2.5,2.5,0,0,1-1.34.67c-.73.18-1.39.37-1.39,1s.37.88,1.12.88a1.55,1.55,0,0,0,1.61-1.63Zm1.6-6.66a1.29,1.29,0,0,1-2.57,0,1.29,1.29,0,0,1,2.57,0Z"/><path class="f" d="M181.6,12.29c0-.68-.95-.83-2-1.14-1.3-.34-2.91-1-2.91-2.62S178.19,5.9,180,5.9A4.61,4.61,0,0,1,184,7.85L181.89,9a1.79,1.79,0,0,0-1.78-1.36c-.61,0-1.12.27-1.12.77s1.12.71,2.39,1.12,2.57,1,2.57,2.6-1.6,2.74-3.45,2.74a4.6,4.6,0,0,1-4.29-2.21l2.1-1.18a2.15,2.15,0,0,0,2.15,1.63C181.13,13.12,181.6,12.84,181.6,12.29Z"/><path class="f" d="M190.56,14.13a3.28,3.28,0,0,1-2.07.75A2.26,2.26,0,0,1,186,12.29V7.94h-1.37V6.1H186V4.37L188.4,3V6.1h1.94V7.94H188.4v4.11c0,.67.21.89.6.89s.56-.33.66-.55Z"/><path class="f" d="M191.12,10.39c0-2.79,1.81-4.49,4.15-4.49s4.13,1.7,4.13,4.49-1.8,4.49-4.13,4.49S191.12,13.17,191.12,10.39Zm3.74-6.58a1.28,1.28,0,0,1-2.56,0,1.28,1.28,0,1,1,2.56,0Zm.41,9.23c1.17,0,1.7-1.12,1.7-2.65s-.53-2.65-1.7-2.65-1.72,1.12-1.72,2.65S194.08,13,195.27,13Zm3-9.23A1.24,1.24,0,0,1,197,5.08a1.22,1.22,0,0,1-1.27-1.27A1.24,1.24,0,0,1,197,2.53,1.26,1.26,0,0,1,198.25,3.81Z"/><path class="f" d="M205.73,14.13a3.29,3.29,0,0,1-2.08.75,2.26,2.26,0,0,1-2.46-2.59V7.94h-1.38V6.1h1.38V4.37L203.57,3V6.1h1.94V7.94h-1.94v4.11c0,.67.2.89.59.89s.56-.33.67-.55Z"/><path class="f" d="M210.44,7.55a4.06,4.06,0,0,1-.17-1.16c0-2.29,1.83-3.69,4.09-3.69s4,1.38,4,3.61c0,3.5-4.32,5.11-4.74,6.15v0h4.72v2.17h-7.71a3.13,3.13,0,0,1-.06-.61c0-3.43,5.34-4.81,5.34-7.6a1.5,1.5,0,0,0-1.56-1.65c-1.07,0-1.72.82-1.72,2.09a5.71,5.71,0,0,0,.31,1.77Z"/><path class="f" d="M224.07,2.7c2.75,0,4.62,2.15,4.62,6.06s-1.87,6.12-4.62,6.12-4.61-2.21-4.61-6.12S221.33,2.7,224.07,2.7Zm0,10c1.6,0,2.07-2,2.07-4s-.47-3.91-2.07-3.91S222,6.75,222,8.76,222.49,12.73,224.07,12.73Z"/><path class="f" d="M232.13,5.87a4,4,0,0,1-2,1.19l-1-2.1a6.73,6.73,0,0,0,3.54-2h1.83V14.67h-2.43v-7c0-.83.07-1.78.07-1.78Z"/><path class="f" d="M236.21,11.37a3.16,3.16,0,0,1,2.38-3V8.33a2.64,2.64,0,0,1-1.94-2.52c0-1.88,1.72-3.11,4-3.11s4,1.23,4,3.11a2.65,2.65,0,0,1-1.92,2.52v.05a3.16,3.16,0,0,1,2.36,3c0,2.18-1.94,3.51-4.4,3.51S236.21,13.55,236.21,11.37Zm4.42,1.53a1.81,1.81,0,0,0,2-1.71c0-1.11-.94-1.7-2-1.7s-2,.59-2,1.7A1.81,1.81,0,0,0,240.63,12.9Zm0-5.37c1,0,1.75-.54,1.75-1.43s-.78-1.42-1.75-1.42-1.77.54-1.77,1.42S239.64,7.53,240.63,7.53Z"/></g><g class="e"><path class="h" d="M232.29,141.62l1.93,3H233l-1.42-2.24-.81,1v1.25h-1.11v-7.24h1.11V141c0,.61-.06,1.25-.06,1.25h0a11,11,0,0,1,.67-.95l1.31-1.62H234Z"/><path class="h" d="M237.61,144.31a1.56,1.56,0,0,1-1.14.48c-.75,0-1.3-.36-1.3-1.4v-2.87h-.87v-.89h.87v-1.09l1.08-.65v1.74h1.23v.89h-1.23v2.77c0,.43.14.58.4.58a.56.56,0,0,0,.47-.4Z"/><path class="h" d="M240.38,141.19c0-2.23,1.39-3.56,3.11-3.56a2.8,2.8,0,0,1,2.8,2.23l-1.09.68c0-1-.6-1.88-1.71-1.88-1.29,0-1.93,1.11-1.93,2.53s.64,2.57,1.93,2.57c1.11,0,1.66-.88,1.71-1.92l1.09.68a2.83,2.83,0,0,1-2.8,2.27C241.77,144.79,240.38,143.43,240.38,141.19Z"/><path class="h" d="M247,141.19c0-2.24,1.41-3.56,3.16-3.56s3.17,1.32,3.17,3.56-1.41,3.6-3.17,3.6S247,143.43,247,141.19Zm3.16-2.53c-1.31,0-2,1.11-2,2.53s.67,2.57,2,2.57,2-1.15,2-2.57S251.49,138.66,250.17,138.66Z"/><path class="h" d="M254.11,143.16a1.25,1.25,0,0,1-.07-.41,1.39,1.39,0,0,1,1.54-1.34,1.34,1.34,0,0,1,1.48,1.31c0,1.26-1.62,1.86-1.79,2.23v0h1.79v.78h-2.89a1.25,1.25,0,0,1,0-.22c0-1.24,2-1.75,2-2.76a.57.57,0,0,0-.6-.61c-.41,0-.65.3-.65.77a2.19,2.19,0,0,0,.11.64Z"/><path class="h" d="M258.75,142.43c.06.89.55,1.49,1.31,1.49a1.12,1.12,0,0,0,1.13-1l1,.57a2.3,2.3,0,0,1-2.11,1.3,2.36,2.36,0,0,1-2.37-2.64,2.4,2.4,0,0,1,2.35-2.64,2.13,2.13,0,0,1,2.18,2.3,2.53,2.53,0,0,1-.07.62Zm0-.8h2.38a1.16,1.16,0,0,0-1.12-1.27A1.32,1.32,0,0,0,258.78,141.63Z"/></g><g class="e"><path class="h" d="M468.29,145.62l1.93,3H469l-1.42-2.24-.81,1v1.25h-1.11v-7.24h1.11V145c0,.61-.06,1.25-.06,1.25h0a11,11,0,0,1,.67-.95l1.31-1.62H470Z"/><path class="h" d="M473.61,148.31a1.56,1.56,0,0,1-1.14.48c-.75,0-1.3-.36-1.3-1.4v-2.87h-.87v-.89h.87v-1.09l1.08-.65v1.74h1.23v.89h-1.23v2.77c0,.43.14.58.4.58a.56.56,0,0,0,.47-.4Z"/><path class="h" d="M476.38,145.19c0-2.23,1.39-3.56,3.11-3.56a2.8,2.8,0,0,1,2.8,2.23l-1.09.68c-.05-1-.6-1.88-1.71-1.88-1.29,0-1.93,1.11-1.93,2.53s.64,2.57,1.93,2.57c1.11,0,1.66-.88,1.71-1.92l1.09.68a2.83,2.83,0,0,1-2.8,2.27C477.77,148.79,476.38,147.43,476.38,145.19Z"/><path class="h" d="M483,145.19c0-2.24,1.41-3.56,3.16-3.56s3.17,1.32,3.17,3.56-1.41,3.6-3.17,3.6S483,147.43,483,145.19Zm3.16-2.53c-1.31,0-2,1.11-2,2.53s.67,2.57,2,2.57,2-1.15,2-2.57S487.49,142.66,486.17,142.66Z"/><path class="h" d="M490.11,147.16a1.25,1.25,0,0,1-.07-.41,1.39,1.39,0,0,1,1.54-1.34,1.34,1.34,0,0,1,1.48,1.31c0,1.26-1.62,1.86-1.79,2.23v0h1.79v.78h-2.89a1.25,1.25,0,0,1,0-.22c0-1.24,2-1.75,2-2.76a.57.57,0,0,0-.6-.61c-.41,0-.65.3-.65.77a2.19,2.19,0,0,0,.11.64Z"/><path class="h" d="M494.75,146.43c.06.89.55,1.49,1.31,1.49a1.12,1.12,0,0,0,1.13-1l1,.57a2.3,2.3,0,0,1-2.11,1.3,2.36,2.36,0,0,1-2.37-2.64,2.4,2.4,0,0,1,2.35-2.64,2.13,2.13,0,0,1,2.18,2.3,2.53,2.53,0,0,1-.07.62Zm0-.8h2.38a1.16,1.16,0,0,0-1.12-1.27A1.32,1.32,0,0,0,494.78,145.63Z"/></g><g class="e"><path class="h" d="M426.33,120.87h4.52v1h-3.37v1.85h3.2v1h-3.2v2h3.45v1h-4.6Z"/><path class="h" d="M436.23,127.78h-1.11v-3c0-.84-.32-1.22-.95-1.22a1.12,1.12,0,0,0-1.09,1.24v3H432v-5h1.11l-.06.86h0a1.65,1.65,0,0,1,1.54-1c1,0,1.65.68,1.65,2Z"/><path class="h" d="M438.75,121.34a.69.69,0,1,1-.69-.67A.66.66,0,0,1,438.75,121.34Zm-1.25,1.4h1.12v5H437.5Z"/><path class="h" d="M444.18,127.78h-1.11v-3c0-.84-.32-1.22-.95-1.22a1.12,1.12,0,0,0-1.09,1.24v3h-1.11v-5H441l-.06.86h0a1.65,1.65,0,0,1,1.54-1c1,0,1.65.68,1.65,2Z"/><path class="h" d="M448.06,127.42a1.56,1.56,0,0,1-1.14.48c-.75,0-1.3-.36-1.3-1.4v-2.87h-.87v-.89h.87v-1.09l1.08-.65v1.74h1.23v.89H446.7v2.77c0,.43.14.58.4.58a.56.56,0,0,0,.47-.4Z"/><path class="h" d="M449.6,124.68l-1-.56a2.32,2.32,0,0,1,2.25-1.5,1.75,1.75,0,0,1,2,1.82v2.17a4,4,0,0,0,.12,1.17h-.86a1.59,1.59,0,0,1-.25-.66h0a1.74,1.74,0,0,1-1.49.78,1.44,1.44,0,0,1-1.58-1.48c0-1.1,1-1.38,1.87-1.56s1.14-.24,1.14-.63-.39-.72-.9-.72A1.28,1.28,0,0,0,449.6,124.68Zm.93-3.33a.66.66,0,1,1-1.32,0,.66.66,0,0,1,1.32,0Zm1.27,3.82a1.52,1.52,0,0,1-.93.45c-.52.12-1.05.25-1.05.75s.27.65.79.65a1.14,1.14,0,0,0,1.19-1.17Zm.61-3.82a.66.66,0,0,1-1.32,0,.66.66,0,0,1,1.32,0Z"/><path class="h" d="M454.81,124.68l-1-.56a2.32,2.32,0,0,1,2.25-1.5,1.75,1.75,0,0,1,2,1.82v2.17a4,4,0,0,0,.12,1.17h-.86a1.59,1.59,0,0,1-.25-.66h0a1.74,1.74,0,0,1-1.49.78,1.44,1.44,0,0,1-1.58-1.48c0-1.1,1-1.38,1.87-1.56s1.14-.24,1.14-.63-.39-.72-.9-.72A1.28,1.28,0,0,0,454.81,124.68Zm.93-3.33a.66.66,0,1,1-1.32,0,.66.66,0,0,1,1.32,0Zm1.27,3.82a1.52,1.52,0,0,1-.93.45c-.52.12-1.05.25-1.05.75s.27.65.79.65a1.14,1.14,0,0,0,1.19-1.17Zm.61-3.82a.66.66,0,1,1-1.32,0,.66.66,0,0,1,1.32,0Z"/><path class="h" d="M463.57,127.78h-1.11v-3c0-.84-.32-1.22-.95-1.22a1.12,1.12,0,0,0-1.09,1.24v3h-1.11v-5h1.11l-.06.86h0a1.65,1.65,0,0,1,1.54-1c1,0,1.65.68,1.65,2Z"/></g><g class="e"><path class="h" d="M425.08,163.18c1-.2,1.26-.59,1.26-1.67V156.8h1.12v4.92c0,1.2-.4,1.95-1.38,2.2Zm2.51-7.79a.69.69,0,0,1-1.38,0,.69.69,0,0,1,1.38,0Z"/><path class="h" d="M428.5,159.32a2.37,2.37,0,1,1,2.35,2.64A2.38,2.38,0,0,1,428.5,159.32Zm2.35,1.75c.83,0,1.24-.78,1.24-1.75s-.41-1.75-1.24-1.75-1.24.78-1.24,1.75S430,161.07,430.85,161.07Z"/><path class="h" d="M436.87,158.79l1.93,3.05h-1.23l-1.42-2.24-.81,1v1.25h-1.11V154.6h1.11v3.52c0,.61-.06,1.25-.06,1.25h0a11,11,0,0,1,.67-1l1.31-1.62h1.31Z"/><path class="h" d="M440.12,158.74l-1-.56a2.36,2.36,0,0,1,2.26-1.5,1.75,1.75,0,0,1,2,1.82v2.17a4,4,0,0,0,.12,1.17h-.86a1.59,1.59,0,0,1-.25-.66h0a1.74,1.74,0,0,1-1.49.78,1.45,1.45,0,0,1-1.59-1.48c0-1.1,1-1.38,1.88-1.56s1.14-.24,1.14-.63-.39-.72-.9-.72A1.27,1.27,0,0,0,440.12,158.74Zm2.19.49a1.52,1.52,0,0,1-.93.45c-.52.12-1.05.25-1.05.75s.27.65.79.65a1.14,1.14,0,0,0,1.19-1.17Z"/><path class="h" d="M449.52,158.79l1.93,3.05h-1.23l-1.42-2.24-.81,1v1.25h-1.11V154.6H448v3.52c0,.61-.06,1.25-.06,1.25h0a11,11,0,0,1,.67-1l1.31-1.62h1.31Z"/><path class="h" d="M451.69,159.32A2.37,2.37,0,1,1,454,162,2.38,2.38,0,0,1,451.69,159.32Zm2.35,1.75c.83,0,1.24-.78,1.24-1.75s-.41-1.75-1.24-1.75-1.24.78-1.24,1.75S453.2,161.07,454,161.07Z"/><path class="h" d="M457.42,156.8h1.1l-.07.86h0a1.59,1.59,0,0,1,1.44-1,1.31,1.31,0,0,1,1.34,1h0a1.65,1.65,0,0,1,1.53-1c1,0,1.59.67,1.59,1.86v3.3h-1.1v-3.08c0-.76-.3-1.12-.86-1.12s-1,.5-1,1.27v2.93h-1.09v-3.19c0-.68-.34-1-.86-1s-1,.48-1,1.22v3h-1.1Z"/><path class="h" d="M466.75,157.66a1.69,1.69,0,0,1,1.55-1c1.11,0,2,1.06,2,2.64s-.93,2.64-2,2.64a1.7,1.7,0,0,1-1.49-.86h0v2.7h-1.11v-7h1.11l-.06.86Zm1.24,3.39c.81,0,1.24-.76,1.24-1.73s-.43-1.73-1.24-1.73-1.24.76-1.24,1.73S467.18,161.05,468,161.05Z"/><path class="h" d="M472.22,159.6c.06.89.55,1.49,1.31,1.49a1.12,1.12,0,0,0,1.13-1l1,.57a2.3,2.3,0,0,1-2.11,1.3,2.36,2.36,0,0,1-2.36-2.64,2.39,2.39,0,0,1,2.34-2.64,2.13,2.13,0,0,1,2.18,2.3,2.53,2.53,0,0,1-.07.62Zm0-.8h2.38a1.16,1.16,0,0,0-1.12-1.27A1.32,1.32,0,0,0,472.25,158.8Z"/><path class="h" d="M481,161.84h-1.11v-3c0-.84-.32-1.22-.95-1.22a1.12,1.12,0,0,0-1.09,1.24v3h-1.11v-5h1.11l-.06.86h0a1.65,1.65,0,0,1,1.54-1c1,0,1.65.68,1.65,2Z"/><path class="h" d="M485.15,160.48c0-.51-.62-.62-1.3-.81s-1.73-.55-1.73-1.51a1.66,1.66,0,0,1,1.84-1.48,2.47,2.47,0,0,1,2.25,1.24l-1,.57a1.22,1.22,0,0,0-1.22-1c-.42,0-.81.2-.81.59s.75.55,1.48.78,1.55.6,1.55,1.53a1.7,1.7,0,0,1-1.9,1.54,2.43,2.43,0,0,1-2.44-1.44l1-.57a1.37,1.37,0,0,0,1.41,1.17C484.76,161.12,485.15,160.9,485.15,160.48Z"/><path class="h" d="M487,159.32a2.37,2.37,0,1,1,2.36,2.64A2.39,2.39,0,0,1,487,159.32Zm2.36,1.75c.83,0,1.24-.78,1.24-1.75s-.41-1.75-1.24-1.75-1.24.78-1.24,1.75S488.49,161.07,489.33,161.07Z"/><path class="h" d="M494,155.39a.7.7,0,1,1-.69-.67A.66.66,0,0,1,494,155.39Zm-1.25,1.41h1.12v5h-1.12Z"/><path class="h" d="M498.46,161a1.7,1.7,0,0,1-1.55,1c-1.11,0-2.05-1.06-2.05-2.64s.94-2.64,2.05-2.64a1.69,1.69,0,0,1,1.48.85h0V154.6h1.1v7.24h-1.1l.06-.86Zm0-1.66c0-1-.43-1.73-1.24-1.73s-1.24.76-1.24,1.73.42,1.73,1.24,1.73S498.46,160.29,498.46,159.32Z"/><path class="h" d="M501.53,158.74l-1-.56a2.34,2.34,0,0,1,2.26-1.5,1.75,1.75,0,0,1,2,1.82v2.17a4,4,0,0,0,.12,1.17H504a1.59,1.59,0,0,1-.25-.66h0a1.74,1.74,0,0,1-1.49.78,1.45,1.45,0,0,1-1.59-1.48c0-1.1,1-1.38,1.88-1.56s1.14-.24,1.14-.63-.39-.72-.9-.72A1.28,1.28,0,0,0,501.53,158.74Zm2.2.49a1.52,1.52,0,0,1-.93.45c-.52.12-1.05.25-1.05.75s.27.65.79.65a1.14,1.14,0,0,0,1.19-1.17Z"/><path class="h" d="M506.74,158.74l-1-.56a2.34,2.34,0,0,1,2.26-1.5,1.75,1.75,0,0,1,2,1.82v2.17a4,4,0,0,0,.12,1.17h-.86a1.59,1.59,0,0,1-.25-.66h0a1.74,1.74,0,0,1-1.49.78,1.45,1.45,0,0,1-1.59-1.48c0-1.1,1-1.38,1.88-1.56s1.14-.24,1.14-.63-.39-.72-.9-.72A1.28,1.28,0,0,0,506.74,158.74Zm2.2.49a1.52,1.52,0,0,1-.93.45c-.52.12-1.05.25-1.05.75s.27.65.79.65a1.14,1.14,0,0,0,1.19-1.17Z"/><path class="h" d="M515.5,161.84h-1.11v-3c0-.84-.32-1.22-.95-1.22a1.12,1.12,0,0,0-1.09,1.24v3h-1.11v-5h1.11l-.06.86h0a1.65,1.65,0,0,1,1.54-1c1,0,1.65.68,1.65,2Z"/></g><g class="e"><path class="h" d="M55.29,132.62l1.93,3H56l-1.42-2.24-.81,1v1.25H52.65v-7.24h1.11V132c0,.61-.06,1.25-.06,1.25h0a11,11,0,0,1,.67-.95l1.31-1.62H57Z"/><path class="h" d="M60.61,135.31a1.56,1.56,0,0,1-1.14.48c-.75,0-1.3-.36-1.3-1.4v-2.87H57.3v-.89h.87v-1.09l1.08-.65v1.74h1.23v.89H59.25v2.77c0,.43.14.58.4.58a.56.56,0,0,0,.47-.4Z"/><path class="h" d="M63.38,132.19c0-2.23,1.39-3.56,3.11-3.56a2.8,2.8,0,0,1,2.8,2.23l-1.09.68c0-1-.6-1.88-1.71-1.88-1.29,0-1.93,1.11-1.93,2.53s.64,2.57,1.93,2.57c1.11,0,1.66-.88,1.71-1.92l1.09.68a2.83,2.83,0,0,1-2.8,2.27C64.77,135.79,63.38,134.43,63.38,132.19Z"/><path class="h" d="M70,132.19c0-2.24,1.41-3.56,3.16-3.56s3.17,1.32,3.17,3.56-1.41,3.6-3.17,3.6S70,134.43,70,132.19Zm3.16-2.53c-1.31,0-2,1.11-2,2.53s.67,2.57,2,2.57,2-1.15,2-2.57S74.49,129.66,73.17,129.66Z"/><path class="h" d="M77.11,134.16a1.25,1.25,0,0,1-.07-.41,1.39,1.39,0,0,1,1.54-1.34,1.34,1.34,0,0,1,1.48,1.31c0,1.26-1.62,1.86-1.79,2.23v0h1.79v.78H77.17a1.25,1.25,0,0,1,0-.22c0-1.24,2-1.75,2-2.76a.57.57,0,0,0-.6-.61c-.41,0-.65.3-.65.77a2.19,2.19,0,0,0,.11.64Z"/><path class="h" d="M81.75,133.43c.06.89.55,1.49,1.31,1.49a1.12,1.12,0,0,0,1.13-1l1,.57a2.3,2.3,0,0,1-2.11,1.3,2.36,2.36,0,0,1-2.37-2.64A2.4,2.4,0,0,1,83,130.51a2.13,2.13,0,0,1,2.18,2.3,2.53,2.53,0,0,1-.07.62Zm0-.8h2.38A1.16,1.16,0,0,0,83,131.36,1.32,1.32,0,0,0,81.78,132.63Z"/></g><path class="j" d="M11.67,64.62c.14.46.36,1.25.36,1.25h0s.22-.81.37-1.25L14.3,59h1.45l-2.89,8.3H11.19L8.31,59H9.8Z"/><path class="j" d="M17.42,63.6l-1.19-.67a2.8,2.8,0,0,1,2.71-1.8,2.1,2.1,0,0,1,2.37,2.18v2.61a4.78,4.78,0,0,0,.14,1.4h-1a2,2,0,0,1-.3-.79h0a2.1,2.1,0,0,1-1.79.93,1.73,1.73,0,0,1-1.9-1.77c0-1.32,1.25-1.66,2.25-1.87S20,63.53,20,63.06s-.47-.86-1.08-.86A1.54,1.54,0,0,0,17.42,63.6Zm1.11-4a.79.79,0,1,1-1.58,0,.79.79,0,0,1,1.58,0Zm1.53,4.58a1.86,1.86,0,0,1-1.12.54c-.62.14-1.26.3-1.26.9s.33.78.95.78A1.38,1.38,0,0,0,20.06,65Zm.73-4.58a.77.77,0,0,1-.79.79.76.76,0,0,1-.79-.79.75.75,0,0,1,.79-.78A.76.76,0,0,1,20.79,59.61Z"/><path class="j" d="M27.93,67.32H26.6V63.74c0-1-.39-1.46-1.14-1.46a1.34,1.34,0,0,0-1.31,1.49v3.55H22.82V58.63h1.33v2.19c0,.73-.07,1.48-.07,1.48h0A2,2,0,0,1,26,61.13c1.21,0,2,.82,2,2.36Z"/><path class="j" d="M30.4,64.63c.07,1.07.66,1.79,1.57,1.79a1.35,1.35,0,0,0,1.36-1.2l1.17.68A2.74,2.74,0,0,1,32,67.46c-1.71,0-2.84-1.25-2.84-3.16A2.88,2.88,0,0,1,32,61.13a2.55,2.55,0,0,1,2.61,2.76,3.16,3.16,0,0,1-.08.74Zm0-1h2.85A1.38,1.38,0,0,0,32,62.15,1.57,1.57,0,0,0,30.44,63.67Z"/><path class="j" d="M40.88,67.32H39.55V63.74c0-1-.39-1.46-1.14-1.46a1.34,1.34,0,0,0-1.31,1.49v3.55H35.77v-6H37.1l-.07,1h0a2,2,0,0,1,1.85-1.17c1.21,0,2,.82,2,2.36Z"/><path class="j" d="M47.51,67.32H46.18V63.74c0-1-.38-1.46-1.14-1.46a1.35,1.35,0,0,0-1.31,1.49v3.55H42.4v-6h1.33l-.07,1h0a2,2,0,0,1,1.84-1.17c1.21,0,2,.82,2,2.36Z"/><path class="j" d="M50,64.63c.07,1.07.66,1.79,1.57,1.79a1.35,1.35,0,0,0,1.35-1.2l1.18.68a2.75,2.75,0,0,1-2.53,1.56c-1.72,0-2.85-1.25-2.85-3.16a2.88,2.88,0,0,1,2.82-3.17,2.55,2.55,0,0,1,2.62,2.76,2.83,2.83,0,0,1-.09.74Zm0-1h2.86a1.39,1.39,0,0,0-1.35-1.52A1.58,1.58,0,0,0,50,63.67Z"/><path class="j" d="M58.64,66.89a1.89,1.89,0,0,1-1.37.57c-.9,0-1.56-.43-1.56-1.68V62.34h-1V61.27h1V60l1.3-.78v2.08h1.23v1.07H57v3.32c0,.52.16.7.48.7s.48-.28.56-.48Zm4,0a1.92,1.92,0,0,1-1.38.57c-.9,0-1.56-.43-1.56-1.68V62.34h-1V61.27h1V60l1.31-.78v2.08h1.47v1.07H61.06v3.32c0,.52.16.7.48.7s.48-.28.56-.48Z"/><path class="j" d="M65.84,65.74s.25-.94.47-1.66l.86-2.81h1.35L66.4,67.56a3.27,3.27,0,0,1-1.83,2.25l-1.07-.9a2.2,2.2,0,0,0,1.64-1.44l0-.13L63,61.27h1.42l.9,2.77c.22.7.51,1.7.51,1.7Z"/><path d="M154.38,64.62c.14.46.35,1.25.35,1.25h0s.23-.81.37-1.25L157,59h1.45l-2.89,8.3H153.9L151,59h1.48Z"/><path d="M160.12,63.6l-1.18-.67a2.8,2.8,0,0,1,2.71-1.8A2.1,2.1,0,0,1,164,63.31v2.61a5.15,5.15,0,0,0,.14,1.4h-1a2,2,0,0,1-.3-.79h0a2.11,2.11,0,0,1-1.79.93,1.74,1.74,0,0,1-1.91-1.77c0-1.32,1.25-1.66,2.26-1.87s1.36-.29,1.36-.76-.46-.86-1.07-.86A1.54,1.54,0,0,0,160.12,63.6Zm1.12-4a.77.77,0,0,1-.79.79.76.76,0,0,1-.79-.79.75.75,0,0,1,.79-.78A.76.76,0,0,1,161.24,59.61Zm1.52,4.58a1.83,1.83,0,0,1-1.11.54c-.63.14-1.26.3-1.26.9s.32.78,1,.78A1.37,1.37,0,0,0,162.76,65Zm.73-4.58a.79.79,0,0,1-1.58,0,.79.79,0,0,1,1.58,0Z"/><path d="M170.63,67.32H169.3V63.74c0-1-.38-1.46-1.14-1.46a1.34,1.34,0,0,0-1.3,1.49v3.55h-1.34V58.63h1.34v2.19c0,.73-.08,1.48-.08,1.48h0a2,2,0,0,1,1.84-1.17c1.22,0,2,.82,2,2.36Z"/><path d="M173.11,64.63c.07,1.07.66,1.79,1.57,1.79a1.34,1.34,0,0,0,1.35-1.2l1.18.68a2.74,2.74,0,0,1-2.53,1.56c-1.72,0-2.84-1.25-2.84-3.16a2.87,2.87,0,0,1,2.82-3.17,2.55,2.55,0,0,1,2.61,2.76,3.16,3.16,0,0,1-.08.74Zm0-1H176a1.39,1.39,0,0,0-1.34-1.52A1.58,1.58,0,0,0,173.14,63.67Z"/><path d="M183.58,67.32h-1.33V63.74c0-1-.38-1.46-1.14-1.46a1.35,1.35,0,0,0-1.31,1.49v3.55h-1.33v-6h1.33l-.07,1h0a2,2,0,0,1,1.84-1.17c1.21,0,2,.82,2,2.36Z"/><path d="M190.22,67.32h-1.33V63.74c0-1-.39-1.46-1.14-1.46a1.34,1.34,0,0,0-1.31,1.49v3.55h-1.33v-6h1.33l-.07,1h0a2,2,0,0,1,1.85-1.17c1.21,0,2,.82,2,2.36Z"/><path d="M192.69,64.63c.07,1.07.66,1.79,1.57,1.79a1.35,1.35,0,0,0,1.36-1.2l1.17.68a2.74,2.74,0,0,1-2.53,1.56c-1.71,0-2.84-1.25-2.84-3.16a2.88,2.88,0,0,1,2.82-3.17,2.55,2.55,0,0,1,2.61,2.76,3.16,3.16,0,0,1-.08.74Zm0-1h2.85a1.38,1.38,0,0,0-1.34-1.52A1.57,1.57,0,0,0,192.73,63.67Z"/><path d="M201.34,66.89a1.87,1.87,0,0,1-1.37.57c-.89,0-1.55-.43-1.55-1.68V62.34h-1V61.27h1V60l1.29-.78v2.08H201v1.07h-1.24v3.32c0,.52.17.7.48.7s.48-.28.56-.48Zm4.06,0a1.94,1.94,0,0,1-1.38.57c-.9,0-1.56-.43-1.56-1.68V62.34h-1V61.27h1V60l1.3-.78v2.08h1.48v1.07h-1.48v3.32c0,.52.16.7.48.7s.48-.28.57-.48Z"/><path d="M207.25,63.6l-1.19-.67a2.8,2.8,0,0,1,2.71-1.8,2.1,2.1,0,0,1,2.36,2.18v2.61a4.72,4.72,0,0,0,.15,1.4h-1a1.73,1.73,0,0,1-.3-.79h0a2.1,2.1,0,0,1-1.79.93,1.73,1.73,0,0,1-1.9-1.77c0-1.32,1.24-1.66,2.25-1.87s1.37-.29,1.37-.76-.47-.86-1.08-.86A1.53,1.53,0,0,0,207.25,63.6Zm1.11-4a.79.79,0,0,1-1.58,0,.79.79,0,0,1,1.58,0Zm1.53,4.58a1.86,1.86,0,0,1-1.12.54c-.62.14-1.26.3-1.26.9s.32.78,1,.78A1.38,1.38,0,0,0,209.89,65Zm.73-4.58a.8.8,0,0,1-1.59,0,.8.8,0,0,1,1.59,0Z"/><path d="M211.8,61.27h1.4l.9,2.88c.24.78.53,1.8.53,1.8h0s.29-1,.53-1.8l.9-2.88h1.36l-2.08,6h-1.49Z"/><path d="M219.09,63.6l-1.19-.67a2.82,2.82,0,0,1,2.71-1.8A2.1,2.1,0,0,1,223,63.31v2.61a4.78,4.78,0,0,0,.14,1.4h-1a2,2,0,0,1-.3-.79h0a2.09,2.09,0,0,1-1.78.93,1.74,1.74,0,0,1-1.91-1.77c0-1.32,1.25-1.66,2.25-1.87s1.37-.29,1.37-.76-.47-.86-1.08-.86A1.54,1.54,0,0,0,219.09,63.6Zm1.12-4a.8.8,0,0,1-1.59,0,.8.8,0,0,1,1.59,0Zm1.52,4.58a1.83,1.83,0,0,1-1.12.54c-.62.14-1.25.3-1.25.9s.32.78.94.78A1.38,1.38,0,0,0,221.73,65Zm.73-4.58a.79.79,0,0,1-1.58,0,.79.79,0,0,1,1.58,0Z"/><path d="M225.34,63.6l-1.18-.67a2.8,2.8,0,0,1,2.71-1.8,2.1,2.1,0,0,1,2.36,2.18v2.61a5.15,5.15,0,0,0,.14,1.4h-1a2,2,0,0,1-.3-.79h0a2.11,2.11,0,0,1-1.79.93,1.74,1.74,0,0,1-1.91-1.77c0-1.32,1.25-1.66,2.26-1.87s1.36-.29,1.36-.76-.46-.86-1.08-.86A1.54,1.54,0,0,0,225.34,63.6Zm1.12-4a.77.77,0,0,1-.79.79.76.76,0,0,1-.79-.79.75.75,0,0,1,.79-.78A.76.76,0,0,1,226.46,59.61ZM228,64.19a1.83,1.83,0,0,1-1.11.54c-.63.14-1.26.3-1.26.9s.32.78.94.78A1.38,1.38,0,0,0,228,65Zm.73-4.58a.79.79,0,0,1-1.58,0,.79.79,0,0,1,1.58,0Z"/><path d="M436.06,59h6.46v1.25H440v7h-1.39v-7h-2.53Z"/><path d="M443.43,63.6l-1.19-.67a2.8,2.8,0,0,1,2.71-1.8,2.1,2.1,0,0,1,2.36,2.18v2.61a4.72,4.72,0,0,0,.15,1.4h-1a1.88,1.88,0,0,1-.31-.79h0a2.1,2.1,0,0,1-1.79.93,1.73,1.73,0,0,1-1.9-1.77c0-1.32,1.24-1.66,2.25-1.87s1.37-.29,1.37-.76-.47-.86-1.08-.86A1.52,1.52,0,0,0,443.43,63.6Zm2.64.59a1.86,1.86,0,0,1-1.12.54c-.62.14-1.26.3-1.26.9s.32.78.95.78A1.38,1.38,0,0,0,446.07,65Z"/><path d="M448,61.27h1.4l.9,2.88c.24.78.53,1.8.53,1.8h0s.29-1,.53-1.8l.9-2.88h1.36l-2.08,6h-1.49Z"/><path d="M454,64.3a2.84,2.84,0,1,1,2.83,3.16A2.86,2.86,0,0,1,454,64.3Zm2.83,2.09c1,0,1.49-.93,1.49-2.09s-.5-2.1-1.49-2.1-1.49.93-1.49,2.1S455.81,66.39,456.82,66.39Z"/><path d="M462.38,59.58a.84.84,0,1,1-.83-.8A.81.81,0,0,1,462.38,59.58Zm-1.5,1.69h1.34v6h-1.34Z"/><path d="M467.13,66.89a1.89,1.89,0,0,1-1.37.57c-.9,0-1.56-.43-1.56-1.68V62.34h-1V61.27h1V60l1.29-.78v2.08H467v1.07h-1.48v3.32c0,.52.17.7.48.7s.48-.28.57-.48Z"/><path d="M468.91,64.63c.08,1.07.66,1.79,1.58,1.79a1.35,1.35,0,0,0,1.35-1.2l1.18.68a2.77,2.77,0,0,1-2.53,1.56c-1.72,0-2.85-1.25-2.85-3.16a2.88,2.88,0,0,1,2.82-3.17,2.55,2.55,0,0,1,2.62,2.76,2.83,2.83,0,0,1-.09.74Zm0-1h2.85a1.38,1.38,0,0,0-1.34-1.52A1.58,1.58,0,0,0,469,63.67Z"/><g class="e"><path d="M278.28,63.66l2.31,3.66h-1.47l-1.7-2.69-1,1.19v1.5h-1.34V58.63h1.34v4.23c0,.73-.08,1.5-.08,1.5h0a12.4,12.4,0,0,1,.8-1.14l1.57-1.95h1.57Z"/><path d="M284.66,66.89a1.84,1.84,0,0,1-1.36.57c-.9,0-1.56-.43-1.56-1.68V62.34h-1.05V61.27h1.05V60l1.29-.78v2.08h1.48v1.07H283v3.32c0,.52.17.7.48.7s.48-.28.57-.48Z"/><path d="M288,63.14c0-2.67,1.67-4.26,3.73-4.26a3.37,3.37,0,0,1,3.36,2.67l-1.31.82c-.06-1.25-.72-2.26-2-2.26-1.55,0-2.31,1.33-2.31,3s.76,3.09,2.31,3.09c1.33,0,2-1.06,2-2.31l1.31.82a3.41,3.41,0,0,1-3.36,2.72C289.66,67.46,288,65.83,288,63.14Z"/><path d="M296,63.14c0-2.68,1.69-4.26,3.79-4.26s3.8,1.58,3.8,4.26-1.69,4.32-3.8,4.32S296,65.83,296,63.14Zm3.79-3c-1.58,0-2.38,1.33-2.38,3s.8,3.09,2.38,3.09,2.38-1.38,2.38-3.09S301.32,60.11,299.74,60.11Z"/><path d="M304.47,65.51a1.44,1.44,0,0,1-.09-.49,1.67,1.67,0,0,1,1.85-1.61A1.61,1.61,0,0,1,308,65c0,1.51-1.94,2.23-2.14,2.67v0H308v.93h-3.46a1.2,1.2,0,0,1,0-.26c0-1.49,2.41-2.1,2.41-3.31a.68.68,0,0,0-.71-.73c-.5,0-.79.36-.79.92a2.52,2.52,0,0,0,.14.77Z"/><path d="M310,64.63c.07,1.07.66,1.79,1.57,1.79a1.35,1.35,0,0,0,1.36-1.2l1.17.68a2.74,2.74,0,0,1-2.53,1.56c-1.71,0-2.84-1.25-2.84-3.16a2.88,2.88,0,0,1,2.82-3.17,2.55,2.55,0,0,1,2.61,2.76,3.16,3.16,0,0,1-.08.74Zm0-1h2.85a1.38,1.38,0,0,0-1.34-1.52A1.57,1.57,0,0,0,310.07,63.67Z"/></g><g class="e"><g class="e"><path class="f" d="M73.69,66.27l2.06-1.22a1.58,1.58,0,0,0,1.61,1.54c1.36,0,1.82-1.22,1.92-3.2l0,0a2.85,2.85,0,0,1-2.42,1.15,3.41,3.41,0,0,1-3.42-3.63,3.73,3.73,0,0,1,4-3.84c2.58,0,4.11,1.73,4.11,5.17,0,3.78-1.1,6.29-4.13,6.29A3.71,3.71,0,0,1,73.69,66.27Zm3.65-3.46a1.75,1.75,0,0,0,1.79-1.93,1.79,1.79,0,1,0-3.57,0A1.75,1.75,0,0,0,77.34,62.81Z"/><path class="f" d="M82.41,65.87l2.16-1.19c.13,1,.67,1.85,1.76,1.85s1.68-1,1.68-2.07-.62-2-1.65-2a1.71,1.71,0,0,0-1.63,1.26l-2-.91.68-5.57h6.13v2H85.27l-.14,1.11a11,11,0,0,1-.24,1.31h0A2.73,2.73,0,0,1,87,60.75c1.78,0,3.29,1.37,3.29,3.71a3.81,3.81,0,0,1-3.91,4.05A3.92,3.92,0,0,1,82.41,65.87Z"/><path class="f" d="M91.24,65.87l2.16-1.19c.13,1,.68,1.85,1.76,1.85s1.68-1,1.68-2.07-.62-2-1.64-2a1.71,1.71,0,0,0-1.64,1.26l-2-.91.69-5.57H98.4v2H94.11L94,60.35a11,11,0,0,1-.24,1.31h0a2.73,2.73,0,0,1,2.1-.91c1.77,0,3.28,1.37,3.28,3.71a3.81,3.81,0,0,1-3.91,4.05A3.92,3.92,0,0,1,91.24,65.87Z"/></g></g><g class="e"><g class="e"><path d="M236.28,60a3.72,3.72,0,0,1-1.84,1.12l-.94-2a6.31,6.31,0,0,0,3.32-1.94h1.73V68.32h-2.29V61.71c0-.79.07-1.68.07-1.68Z"/><path d="M243.7,65.21a3,3,0,0,1,2.24-2.81v0A2.48,2.48,0,0,1,244.12,60c0-1.78,1.62-2.93,3.74-2.93s3.73,1.15,3.73,2.93a2.49,2.49,0,0,1-1.8,2.37v0A3,3,0,0,1,252,65.21c0,2.05-1.82,3.3-4.15,3.3S243.7,67.26,243.7,65.21Zm4.16,1.44c1,0,1.93-.57,1.93-1.61s-.88-1.6-1.93-1.6-1.92.56-1.92,1.6A1.7,1.7,0,0,0,247.86,66.65Zm0-5.05c.92,0,1.65-.52,1.65-1.35s-.73-1.34-1.65-1.34-1.66.51-1.66,1.34S246.94,61.6,247.86,61.6Z"/><path d="M252.92,65.87l2.16-1.19c.13,1,.67,1.85,1.76,1.85s1.68-1,1.68-2.07-.62-2-1.65-2a1.7,1.7,0,0,0-1.63,1.26l-2-.91.68-5.57h6.13v2h-4.29l-.14,1.11a11,11,0,0,1-.24,1.31h0a2.73,2.73,0,0,1,2.09-.91c1.78,0,3.28,1.37,3.28,3.71a3.8,3.8,0,0,1-3.9,4.05A3.92,3.92,0,0,1,252.92,65.87Z"/><path d="M269.16,58.67a27.7,27.7,0,0,0-3,9.65h-2.58a28.09,28.09,0,0,1,3.09-9h-3.25v2.53l-2.14-1.09V57.24h7.87Z"/></g></g></svg>