<?xml version="1.0" encoding="utf-8"?>
<!-- Generator: Adobe Illustrator 23.1.1, SVG Export Plug-In . SVG Version: 6.00 Build 0)  -->
<svg version="1.1" id="Layer_1" xmlns="http://www.w3.org/2000/svg" xmlns:xlink="http://www.w3.org/1999/xlink" x="0px" y="0px"
	 viewBox="0 0 327 168" style="enable-background:new 0 0 327 168;" xml:space="preserve">
<style type="text/css">
	.st0{fill-rule:evenodd;clip-rule:evenodd;fill:#FFC61E;}
	.st1{fill-rule:evenodd;clip-rule:evenodd;fill:#06783B;}
</style>
<title>main-illustration</title>
<desc>Created with Sketch.</desc>
<g id="main-illustration">
	<g id="Group-2" transform="translate(8.000000, 1.000000)">
		<rect id="Rectangle" y="4" class="st0" width="43" height="137"/>
		<rect id="Rectangle-Copy" x="43" y="35" class="st0" width="31" height="95"/>
		<rect id="Rectangle-Copy-3" x="163" class="st0" width="41" height="123"/>
		<rect id="Rectangle-Copy-4" x="204" y="44" class="st0" width="31" height="85"/>
		<circle id="Oval-Copy" class="st0" cx="281" cy="30" r="12"/>
		<ellipse class="st0" cx="306" cy="89" rx="11" ry="22"/>
		<ellipse class="st0" cx="277" cy="97.5" rx="9" ry="13.5"/>
		<ellipse class="st0" cx="251.5" cy="92.5" rx="9.5" ry="19.5"/>
		<ellipse class="st0" cx="141" cy="90" rx="12" ry="18"/>
		<ellipse class="st0" cx="113" cy="98.5" rx="9" ry="15.5"/>
		<ellipse class="st0" cx="88.5" cy="92.5" rx="8.5" ry="18.5"/>
	</g>
	<g id="Group">
		<g id="Group-48">
			<path id="Fill-1" class="st1" d="M3.4,136.6c2.9,0,4.3,0.8,6,1.8c1.9,1,3.9,2.3,8.1,2.3s6.2-1.2,8.1-2.3c1.7-1,3.1-1.8,6-1.8
				s4.3,0.8,6,1.8c1.9,1,3.9,2.3,8.1,2.3s6.2-1.2,8.1-2.3c1.7-1,3.1-1.8,6-1.8c2.9,0,4.3,0.8,6,1.8c1.9,1,3.9,2.3,8.1,2.3
				c4.1,0,6.2-1.2,8.1-2.3c1.7-1,3.1-1.8,6-1.8c2.9,0,4.3,0.8,6,1.8c1.9,1,3.9,2.3,8.1,2.3c4.1,0,6.2-1.2,8.1-2.3
				c1.7-1,3.1-1.8,6-1.8s4.3,0.8,6,1.8c1.9,1,3.9,2.3,8.1,2.3c4.1,0,6.2-1.2,8.1-2.3c1.7-1,3.1-1.8,6-1.8s4.3,0.8,6,1.8
				c1.9,1,3.9,2.3,8.1,2.3c1.2,0,2.1-0.8,2.1-2s-0.8-2-2.1-2c-2.9,0-4.3-0.8-6-1.8c-1.9-1-3.9-2.3-8.1-2.3s-6.2,1.2-8.1,2.3
				c-1.7,1-3.1,1.8-6,1.8c-2.9,0-4.3-0.8-6-1.8c-1.9-1-3.9-2.3-8.1-2.3c-4.1,0-6.2,1.2-8.1,2.3c-1.7,1-3.1,1.8-6,1.8
				c-2.9,0-4.3-0.8-6-1.8c-1.9-1-3.9-2.3-8.1-2.3c-4.1,0-6.2,1.2-8.1,2.3c-1.7,1-3.1,1.8-6,1.8c-2.9,0-4.3-0.8-6-1.8
				c-1.9-1-3.9-2.3-8.1-2.3s-6.2,1.2-8.1,2.3c-1.7,1-3.1,1.8-6,1.8c-2.9,0-4.3-0.8-6-1.8c-1.9-1-3.9-2.3-8.1-2.3s-6.2,1.2-8.1,2.3
				c-1.7,1-3.1,1.8-6,1.8s-4.3-0.8-6-1.8c-1.9-1-3.9-2.3-8.1-2.3c-1.2,0-2.1,0.8-2.1,2C1.4,135.8,2.2,136.6,3.4,136.6L3.4,136.6z"/>
			<path id="Fill-2" class="st1" d="M3.4,150.2c2.9,0,4.3,0.8,6,1.8c1.9,1,3.9,2.3,8.1,2.3s6.2-1.2,8.1-2.3c1.7-1,3.1-1.8,6-1.8
				s4.3,0.8,6,1.8c1.9,1,3.9,2.3,8.1,2.3s6.2-1.2,8.1-2.3c1.7-1,3.1-1.8,6-1.8s4.3,0.8,6,1.8c1.9,1,3.9,2.3,8.1,2.3
				c4.1,0,6.2-1.2,8.1-2.3c1.7-1,3.1-1.8,6-1.8s4.3,0.8,6,1.8c1.9,1,3.9,2.3,8.1,2.3c4.1,0,6.2-1.2,8.1-2.3c1.7-1,3.1-1.8,6-1.8
				s4.3,0.8,6,1.8c1.9,1,3.9,2.3,8.1,2.3s6.2-1.2,8.1-2.3c1.7-1,3.1-1.8,6-1.8c2.9,0,4.3,0.8,6,1.8c1.9,1,3.9,2.3,8.1,2.3
				c1.2,0,2.1-0.8,2.1-2s-0.8-2-2.1-2c-2.9,0-4.3-0.8-6-1.8c-1.9-1-3.9-2.3-8.1-2.3s-6.2,1.2-8.1,2.3c-1.7,1-3.1,1.8-6,1.8
				c-2.9,0-4.3-0.8-6-1.8c-1.9-1-3.9-2.3-8.1-2.3s-6.2,1.2-8.1,2.3c-1.7,1-3.1,1.8-6,1.8s-4.3-0.8-6-1.8c-1.9-1-3.9-2.3-8.1-2.3
				s-6.2,1.2-8.1,2.3c-1.7,1-3.1,1.8-6,1.8s-4.3-0.8-6-1.8c-1.9-1-3.9-2.3-8.1-2.3s-6.2,1.2-8.1,2.3c-1.7,1-3.1,1.8-6,1.8
				c-2.9,0-4.3-0.8-6-1.8c-1.9-1-3.9-2.3-8.1-2.3s-6.2,1.2-8.1,2.3c-1.7,1-3.1,1.8-6,1.8s-4.3-0.8-6-1.8c-1.9-1-3.9-2.3-8.1-2.3
				c-1.2,0-2.1,0.8-2.1,2S2.2,150.2,3.4,150.2z"/>
			<path id="Fill-3" class="st1" d="M3.4,163.9c2.9,0,4.3,0.8,6,1.8c1.9,1,3.9,2.3,8.1,2.3s6.2-1.2,8.1-2.3c1.7-1,3.1-1.8,6-1.8
				s4.3,0.8,6,1.8c1.9,1,3.9,2.3,8.1,2.3s6.2-1.2,8.1-2.3c1.7-1,3.1-1.8,6-1.8s4.3,0.8,6,1.8c1.9,1,3.9,2.3,8.1,2.3
				c4.1,0,6.2-1.2,8.1-2.3c1.7-1,3.1-1.8,6-1.8s4.3,0.8,6,1.8c1.9,1,3.9,2.3,8.1,2.3c4.1,0,6.2-1.2,8.1-2.3c1.7-1,3.1-1.8,6-1.8
				s4.3,0.8,6,1.8c1.9,1,3.9,2.3,8.1,2.3s6.2-1.2,8.1-2.3c1.7-1,3.1-1.8,6-1.8c2.9,0,4.3,0.8,6,1.8c1.9,1,3.9,2.3,8.1,2.3
				c1.2,0,2.1-0.8,2.1-2c0-1.2-0.8-2-2.1-2c-2.9,0-4.3-0.8-6-1.8c-1.9-1-3.9-2.3-8.1-2.3s-6.2,1.2-8.1,2.3c-1.7,1-3.1,1.8-6,1.8
				c-2.9,0-4.3-0.8-6-1.8c-1.9-1-3.9-2.3-8.1-2.3s-6.2,1.2-8.1,2.3c-1.7,1-3.1,1.8-6,1.8s-4.3-0.8-6-1.8c-1.9-1-3.9-2.3-8.1-2.3
				s-6.2,1.2-8.1,2.3c-1.7,1-3.1,1.8-6,1.8s-4.3-0.8-6-1.8c-1.9-1-3.9-2.3-8.1-2.3s-6.2,1.2-8.1,2.3c-1.7,1-3.1,1.8-6,1.8
				c-2.9,0-4.3-0.8-6-1.8c-1.9-1-3.9-2.3-8.1-2.3s-6.2,1.2-8.1,2.3c-1.7,1-3.1,1.8-6,1.8s-4.3-0.8-6-1.8c-1.9-1-3.9-2.3-8.1-2.3
				c-1.2,0-2.1,0.8-2.1,2S2.2,163.9,3.4,163.9z"/>
			<path id="Fill-4" class="st1" d="M2.1,122.9h156.5c1.3,0,2.1-0.8,2.1-2.1s-0.8-2.1-2.1-2.1h-6.9v-11.2
				c6.5-1.2,11.3-8.9,11.3-18.2c0-10.3-5.8-18.4-13.3-18.4c-7.5,0-13.3,8.1-13.3,18.4c0,9.3,4.8,16.8,11.3,18.2v11h-22.5v-7.2
				c5-1.2,8.8-7.2,8.8-14.5c0-8.3-4.8-14.7-10.8-14.7c-6,0-10.8,6.6-10.8,14.9c0,7.2,3.8,13.2,8.8,14.5v7.2h-20.8v-8.1
				c5-1.4,8.8-8.5,8.8-17.2C108.8,83.6,104,76,98,76c-6,0-10.8,7.7-10.8,17.4c0,8.7,3.8,15.7,8.8,17.2v8.1H83.4v-82
				c0-1.2-0.8-2.1-2.1-2.1h-4c-0.4-3.5-2.3-6.4-4.6-7.9c-0.2-4.3-2.7-8.3-5.6-8.3h-1.5V6.8c0-1.2-0.8-2.1-2.1-2.1
				c-1.3,0-2.1,0.8-2.1,2.1v11.6H60c-2.9,0-5.4,3.9-5.6,8.3c-2.3,1.4-4.2,4.3-4.6,7.9h-1.9l0-32.5c0-1.2-0.8-2.1-2.1-2.1H8.5
				C7.3,0,6.5,0.8,6.5,2.1v116.5H2.1c-1.3,0-2.1,0.8-2.1,2.1C0,121.9,0.8,122.9,2.1,122.9L2.1,122.9z M140.5,89.4
				c0-7.7,4.2-14.3,9.2-14.3c5,0,9.2,6.6,9.2,14.3c0,6.6-3.1,12.4-7.1,13.9V89.4c0-1.2-0.8-2.1-2.1-2.1c-1.3,0-2.1,0.8-2.1,2.1v13.9
				C143.6,101.8,140.5,96,140.5,89.4z M116.3,97.1c0-5.8,3.1-10.6,6.7-10.6c3.5,0,6.7,4.8,6.7,10.6c0,4.6-1.9,8.5-4.6,9.9v-9.9
				c0-1.2-0.8-2.1-2.1-2.1c-1.3,0-2.1,0.8-2.1,2.1v9.9C118.2,105.5,116.3,101.6,116.3,97.1z M91.3,93.3c0-7.9,3.5-13.5,6.7-13.5
				c3.1,0,6.7,5.6,6.7,13.5c0,6.2-2.1,10.8-4.6,12.6v-9.7c0-1.2-0.8-2.1-2.1-2.1c-1.3,0-2.1,0.8-2.1,2.1v9.7
				C93.4,104.3,91.3,99.5,91.3,93.3z M60,22.6h6.9c0.4,0.2,1.3,1.4,1.5,2.9h-9.8C59,23.8,59.6,22.8,60,22.6L60,22.6z M57.5,29.6
				h11.9c1,0,3.1,2.1,3.8,5H53.8C54.4,31.5,56.7,29.6,57.5,29.6z M79.2,38.7v80.1H48.2l-0.2-80.1H79.2z M10.6,4.1h32.9v114.4H10.6
				V4.1z"/>
			<path id="Fill-5" class="st1" d="M18.5,12.3c-1.2,0-2.1,0.7-2.1,1.9V20c0,1.1,0.8,1.9,2.1,1.9c1.2,0,2.1-0.7,2.1-1.9v-5.8
				C20.5,13,19.5,12.3,18.5,12.3z"/>
			<path id="Fill-6" class="st1" d="M28.1,12.3c-1.2,0-2.1,0.7-2.1,1.9V20c0,1.1,0.8,1.9,2.1,1.9s2.1-0.7,2.1-1.9v-5.8
				C30.1,13,29.1,12.3,28.1,12.3z"/>
			<path id="Fill-7" class="st1" d="M36.3,12.3c-1.2,0-2.1,0.7-2.1,1.9V20c0,1.1,0.8,1.9,2.1,1.9c1.2,0,2.1-0.7,2.1-1.9v-5.8
				C38.4,13,37.3,12.3,36.3,12.3z"/>
			<path id="Fill-8" class="st1" d="M18.5,28.7c-1.2,0-2.1,0.7-2.1,1.9v5.8c0,1.1,0.8,1.9,2.1,1.9c1.2,0,2.1-0.7,2.1-1.9v-5.8
				C20.5,29.6,19.5,28.7,18.5,28.7z"/>
			<path id="Fill-9" class="st1" d="M28.1,28.7c-1.2,0-2.1,0.7-2.1,1.9v5.8c0,1.1,0.8,1.9,2.1,1.9s2.1-0.7,2.1-1.9v-5.8
				C30.1,29.6,29.1,28.7,28.1,28.7z"/>
			<path id="Fill-10" class="st1" d="M36.3,28.7c-1.2,0-2.1,0.7-2.1,1.9v5.8c0,1.1,0.8,1.9,2.1,1.9c1.2,0,2.1-0.7,2.1-1.9v-5.8
				C38.4,29.6,37.3,28.7,36.3,28.7z"/>
			<path id="Fill-11" class="st1" d="M18.5,46.4c-1.2,0-2.1,0.7-2.1,1.9v5.8c0,1.1,0.8,1.9,2.1,1.9c1.2,0,2.1-0.7,2.1-1.9v-5.8
				C20.5,47.4,19.5,46.4,18.5,46.4z"/>
			<path id="Fill-12" class="st1" d="M28.1,46.4c-1.2,0-2.1,0.7-2.1,1.9v5.8c0,1.1,0.8,1.9,2.1,1.9s2.1-0.7,2.1-1.9v-5.8
				C30.1,47.4,29.1,46.4,28.1,46.4z"/>
			<path id="Fill-13" class="st1" d="M36.3,46.4c-1.2,0-2.1,0.7-2.1,1.9v5.8c0,1.1,0.8,1.9,2.1,1.9c1.2,0,2.1-0.7,2.1-1.9v-5.8
				C38.4,47.4,37.3,46.4,36.3,46.4z"/>
			<path id="Fill-14" class="st1" d="M18.5,62.8c-1.2,0-2.1,0.7-2.1,1.9v5.8c0,1.1,0.8,1.9,2.1,1.9c1.2,0,2.1-0.7,2.1-1.9v-5.8
				C20.5,63.6,19.5,62.8,18.5,62.8z"/>
			<path id="Fill-15" class="st1" d="M28.1,62.8c-1.2,0-2.1,0.7-2.1,1.9v5.8c0,1.1,0.8,1.9,2.1,1.9s2.1-0.7,2.1-1.9v-5.8
				C30.1,63.6,29.1,62.8,28.1,62.8z"/>
			<path id="Fill-16" class="st1" d="M36.3,62.8c-1.2,0-2.1,0.7-2.1,1.9v5.8c0,1.1,0.8,1.9,2.1,1.9c1.2,0,2.1-0.7,2.1-1.9v-5.8
				C38.4,63.6,37.3,62.8,36.3,62.8z"/>
			<path id="Fill-17" class="st1" d="M18.5,80.6c-1.2,0-2.1,0.7-2.1,1.9v5.8c0,1.1,0.8,1.9,2.1,1.9c1.2,0,2.1-0.7,2.1-1.9v-5.8
				C20.5,81.5,19.5,80.6,18.5,80.6z"/>
			<path id="Fill-18" class="st1" d="M28.1,80.6c-1.2,0-2.1,0.7-2.1,1.9v5.8c0,1.1,0.8,1.9,2.1,1.9s2.1-0.7,2.1-1.9v-5.8
				C30.1,81.5,29.1,80.6,28.1,80.6z"/>
			<path id="Fill-19" class="st1" d="M36.3,80.6c-1.2,0-2.1,0.7-2.1,1.9v5.8c0,1.1,0.8,1.9,2.1,1.9c1.2,0,2.1-0.7,2.1-1.9v-5.8
				C38.4,81.5,37.3,80.6,36.3,80.6z"/>
			<path id="Fill-20" class="st1" d="M18.5,97c-1.2,0-2.1,0.7-2.1,1.9v5.8c0,1.1,0.8,1.9,2.1,1.9c1.2,0,2.1-0.7,2.1-1.9v-5.8
				C20.5,97.7,19.5,97,18.5,97z"/>
			<path id="Fill-21" class="st1" d="M28.1,97c-1.2,0-2.1,0.7-2.1,1.9v5.8c0,1.1,0.8,1.9,2.1,1.9s2.1-0.7,2.1-1.9v-5.8
				C30.1,97.7,29.1,97,28.1,97z"/>
			<path id="Fill-22" class="st1" d="M36.3,97c-1.2,0-2.1,0.7-2.1,1.9v5.8c0,1.1,0.8,1.9,2.1,1.9c1.2,0,2.1-0.7,2.1-1.9v-5.8
				C38.4,97.7,37.3,97,36.3,97z"/>
			<path id="Fill-23" class="st1" d="M54.1,56c1.2,0,2.1-0.7,2.1-1.9v-5.8c0-1.1-0.8-1.9-2.1-1.9s-2.1,0.7-2.1,1.9v5.8
				C52.1,55.1,53.1,56,54.1,56z"/>
			<path id="Fill-24" class="st1" d="M63.7,56c1.2,0,2.1-0.7,2.1-1.9v-5.8c0-1.1-0.8-1.9-2.1-1.9s-2.1,0.7-2.1,1.9v5.8
				C61.6,55.1,62.7,56,63.7,56z"/>
			<path id="Fill-25" class="st1" d="M71.9,56c1.2,0,2.1-0.7,2.1-1.9v-5.8c0-1.1-0.8-1.9-2.1-1.9s-2.1,0.7-2.1,1.9v5.8
				C69.9,55.1,70.9,56,71.9,56z"/>
			<path id="Fill-26" class="st1" d="M54.1,72.4c1.2,0,2.1-0.7,2.1-1.9v-5.8c0-1.1-0.8-1.9-2.1-1.9s-2.1,0.7-2.1,1.9v5.8
				C52.1,71.6,53.1,72.4,54.1,72.4z"/>
			<path id="Fill-27" class="st1" d="M63.7,72.4c1.2,0,2.1-0.7,2.1-1.9v-5.8c0-1.1-0.8-1.9-2.1-1.9s-2.1,0.7-2.1,1.9v5.8
				C61.6,71.6,62.7,72.4,63.7,72.4z"/>
			<path id="Fill-28" class="st1" d="M71.9,72.4c1.2,0,2.1-0.7,2.1-1.9v-5.8c0-1.1-0.8-1.9-2.1-1.9s-2.1,0.7-2.1,1.9v5.8
				C69.9,71.6,70.9,72.4,71.9,72.4z"/>
			<path id="Fill-29" class="st1" d="M54.1,90.1c1.2,0,2.1-0.7,2.1-1.9v-5.8c0-1.1-0.8-1.9-2.1-1.9s-2.1,0.7-2.1,1.9v5.8
				C52.1,89.2,53.1,90.1,54.1,90.1z"/>
			<path id="Fill-30" class="st1" d="M63.7,90.1c1.2,0,2.1-0.7,2.1-1.9v-5.8c0-1.1-0.8-1.9-2.1-1.9s-2.1,0.7-2.1,1.9v5.8
				C61.6,89.2,62.7,90.1,63.7,90.1z"/>
			<path id="Fill-31" class="st1" d="M71.9,90.1c1.2,0,2.1-0.7,2.1-1.9v-5.8c0-1.1-0.8-1.9-2.1-1.9s-2.1,0.7-2.1,1.9v5.8
				C69.9,89.2,70.9,90.1,71.9,90.1z"/>
			<path id="Fill-32" class="st1" d="M54.1,106.5c1.2,0,2.1-0.7,2.1-1.9v-5.8c0-1.1-0.8-1.9-2.1-1.9s-2.1,0.7-2.1,1.9v5.8
				C52.1,105.8,53.1,106.5,54.1,106.5z"/>
			<path id="Fill-33" class="st1" d="M63.7,106.5c1.2,0,2.1-0.7,2.1-1.9v-5.8c0-1.1-0.8-1.9-2.1-1.9s-2.1,0.7-2.1,1.9v5.8
				C61.6,105.8,62.7,106.5,63.7,106.5z"/>
			<path id="Fill-34" class="st1" d="M71.9,106.5c1.2,0,2.1-0.7,2.1-1.9v-5.8c0-1.1-0.8-1.9-2.1-1.9s-2.1,0.7-2.1,1.9v5.8
				C69.9,105.8,70.9,106.5,71.9,106.5z"/>
		</g>
		<g id="Group-48-Copy" transform="translate(163.000000, 0.000000)">
			<path class="st1" d="M3.4,136.6c2.9,0,4.4,0.8,6,1.8c1.9,1,4,2.3,8.1,2.3s6.2-1.2,8.1-2.3c1.7-1,3.1-1.8,6-1.8s4.4,0.8,6,1.8
				c1.9,1,4,2.3,8.1,2.3s6.2-1.2,8.1-2.3c1.7-1,3.1-1.8,6-1.8s4.4,0.8,6,1.8c1.9,1,4,2.3,8.1,2.3s6.2-1.2,8.1-2.3
				c1.7-1,3.1-1.8,6-1.8c2.9,0,4.4,0.8,6,1.8c1.9,1,4,2.3,8.1,2.3s6.2-1.2,8.1-2.3c1.7-1,3.1-1.8,6-1.8c2.9,0,4.4,0.8,6,1.8
				c1.9,1,4,2.3,8.1,2.3c4.2,0,6.2-1.2,8.1-2.3c1.7-1,3.1-1.8,6-1.8s4.4,0.8,6,1.8c1.9,1,4,2.3,8.1,2.3c1.3,0,2.1-0.8,2.1-2
				s-0.8-2-2.1-2c-2.9,0-4.4-0.8-6-1.8c-1.9-1-4-2.3-8.1-2.3s-6.2,1.2-8.1,2.3c-1.7,1-3.1,1.8-6,1.8c-2.9,0-4.4-0.8-6-1.8
				c-1.9-1-4-2.3-8.1-2.3c-4.2,0-6.2,1.2-8.1,2.3c-1.7,1-3.1,1.8-6,1.8s-4.4-0.8-6-1.8c-1.9-1-4-2.3-8.1-2.3s-6.2,1.2-8.1,2.3
				c-1.7,1-3.1,1.8-6,1.8c-2.9,0-4.4-0.8-6-1.8c-1.9-1-4-2.3-8.1-2.3s-6.2,1.2-8.1,2.3c-1.7,1-3.1,1.8-6,1.8s-4.4-0.8-6-1.8
				c-1.9-1-4-2.3-8.1-2.3s-6.2,1.2-8.1,2.3c-1.7,1-3.1,1.8-6,1.8s-4.4-0.8-6-1.8c-1.9-1-4-2.3-8.1-2.3c-1.3,0-2.1,0.8-2.1,2
				C1.4,135.8,2.2,136.6,3.4,136.6L3.4,136.6z"/>
			<path class="st1" d="M3.4,150.2c2.9,0,4.4,0.8,6,1.8c1.9,1,4,2.3,8.1,2.3s6.2-1.2,8.1-2.3c1.7-1,3.1-1.8,6-1.8s4.4,0.8,6,1.8
				c1.9,1,4,2.3,8.1,2.3s6.2-1.2,8.1-2.3c1.7-1,3.1-1.8,6-1.8c2.9,0,4.4,0.8,6,1.8c1.9,1,4,2.3,8.1,2.3s6.2-1.2,8.1-2.3
				c1.7-1,3.1-1.8,6-1.8s4.4,0.8,6,1.8c1.9,1,4,2.3,8.1,2.3s6.2-1.2,8.1-2.3c1.7-1,3.1-1.8,6-1.8s4.4,0.8,6,1.8c1.9,1,4,2.3,8.1,2.3
				c4.2,0,6.2-1.2,8.1-2.3c1.7-1,3.1-1.8,6-1.8c2.9,0,4.4,0.8,6,1.8c1.9,1,4,2.3,8.1,2.3c1.3,0,2.1-0.8,2.1-2s-0.8-2-2.1-2
				c-2.9,0-4.4-0.8-6-1.8c-1.9-1-4-2.3-8.1-2.3s-6.2,1.2-8.1,2.3c-1.7,1-3.1,1.8-6,1.8c-2.9,0-4.4-0.8-6-1.8c-1.9-1-4-2.3-8.1-2.3
				c-4.2,0-6.2,1.2-8.1,2.3c-1.7,1-3.1,1.8-6,1.8s-4.4-0.8-6-1.8c-1.9-1-4-2.3-8.1-2.3s-6.2,1.2-8.1,2.3c-1.7,1-3.1,1.8-6,1.8
				s-4.4-0.8-6-1.8c-1.9-1-4-2.3-8.1-2.3s-6.2,1.2-8.1,2.3c-1.7,1-3.1,1.8-6,1.8c-2.9,0-4.4-0.8-6-1.8c-1.9-1-4-2.3-8.1-2.3
				s-6.2,1.2-8.1,2.3c-1.7,1-3.1,1.8-6,1.8s-4.4-0.8-6-1.8c-1.9-1-4-2.3-8.1-2.3c-1.3,0-2.1,0.8-2.1,2S2.2,150.2,3.4,150.2z"/>
			<path class="st1" d="M3.4,163.9c2.9,0,4.4,0.8,6,1.8c1.9,1,4,2.3,8.1,2.3s6.2-1.2,8.1-2.3c1.7-1,3.1-1.8,6-1.8s4.4,0.8,6,1.8
				c1.9,1,4,2.3,8.1,2.3s6.2-1.2,8.1-2.3c1.7-1,3.1-1.8,6-1.8c2.9,0,4.4,0.8,6,1.8c1.9,1,4,2.3,8.1,2.3s6.2-1.2,8.1-2.3
				c1.7-1,3.1-1.8,6-1.8s4.4,0.8,6,1.8c1.9,1,4,2.3,8.1,2.3s6.2-1.2,8.1-2.3c1.7-1,3.1-1.8,6-1.8s4.4,0.8,6,1.8c1.9,1,4,2.3,8.1,2.3
				c4.2,0,6.2-1.2,8.1-2.3c1.7-1,3.1-1.8,6-1.8c2.9,0,4.4,0.8,6,1.8c1.9,1,4,2.3,8.1,2.3c1.3,0,2.1-0.8,2.1-2c0-1.2-0.8-2-2.1-2
				c-2.9,0-4.4-0.8-6-1.8c-1.9-1-4-2.3-8.1-2.3s-6.2,1.2-8.1,2.3c-1.7,1-3.1,1.8-6,1.8c-2.9,0-4.4-0.8-6-1.8c-1.9-1-4-2.3-8.1-2.3
				c-4.2,0-6.2,1.2-8.1,2.3c-1.7,1-3.1,1.8-6,1.8s-4.4-0.8-6-1.8c-1.9-1-4-2.3-8.1-2.3s-6.2,1.2-8.1,2.3c-1.7,1-3.1,1.8-6,1.8
				s-4.4-0.8-6-1.8c-1.9-1-4-2.3-8.1-2.3s-6.2,1.2-8.1,2.3c-1.7,1-3.1,1.8-6,1.8c-2.9,0-4.4-0.8-6-1.8c-1.9-1-4-2.3-8.1-2.3
				s-6.2,1.2-8.1,2.3c-1.7,1-3.1,1.8-6,1.8s-4.4-0.8-6-1.8c-1.9-1-4-2.3-8.1-2.3c-1.3,0-2.1,0.8-2.1,2S2.2,163.9,3.4,163.9z"/>
			<path class="st1" d="M2.1,122.9h157.5c1.3,0,2.1-0.8,2.1-2.1s-0.8-2.1-2.1-2.1h-6.9v-11.2c6.5-1.2,11.3-8.9,11.3-18.2
				c0-10.3-5.9-18.4-13.4-18.4c-7.6,0-13.4,8.1-13.4,18.4c0,9.3,4.8,16.8,11.3,18.2v11h-22.7v-7.2c5-1.2,8.8-7.2,8.8-14.5
				c0-8.3-4.8-14.7-10.9-14.7s-10.9,6.6-10.9,14.9c0,7.2,3.8,13.2,8.8,14.5v7.2h-21v-8.1c5-1.4,8.8-8.5,8.8-17.2
				c0-9.9-4.8-17.6-10.9-17.6c-6.1,0-10.9,7.7-10.9,17.4c0,8.7,3.8,15.7,8.8,17.2v8.1H83.9v-82c0-1.2-0.8-2.1-2.1-2.1h-4
				c-0.4-3.5-2.3-6.4-4.6-7.9c-0.2-4.3-2.7-8.3-5.7-8.3h-1.5V6.8c0-1.2-0.8-2.1-2.1-2.1c-1.3,0-2.1,0.8-2.1,2.1v11.6h-1.5
				c-2.9,0-5.5,3.9-5.7,8.3c-2.3,1.4-4.2,4.3-4.6,7.9h-1.9l0-32.5c0-1.2-0.8-2.1-2.1-2.1H8.6C7.3,0,6.5,0.8,6.5,2.1v116.5H2.1
				c-1.3,0-2.1,0.8-2.1,2.1C0,121.9,0.8,122.9,2.1,122.9L2.1,122.9z M141.4,89.4c0-7.7,4.2-14.3,9.2-14.3c5,0,9.2,6.6,9.2,14.3
				c0,6.6-3.1,12.4-7.1,13.9V89.4c0-1.2-0.8-2.1-2.1-2.1c-1.3,0-2.1,0.8-2.1,2.1v13.9C144.5,101.8,141.4,96,141.4,89.4z M117,97.1
				c0-5.8,3.1-10.6,6.7-10.6s6.7,4.8,6.7,10.6c0,4.6-1.9,8.5-4.6,9.9v-9.9c0-1.2-0.8-2.1-2.1-2.1s-2.1,0.8-2.1,2.1v9.9
				C118.9,105.5,117,101.6,117,97.1z M91.9,93.3c0-7.9,3.6-13.5,6.7-13.5c3.1,0,6.7,5.6,6.7,13.5c0,6.2-2.1,10.8-4.6,12.6v-9.7
				c0-1.2-0.8-2.1-2.1-2.1c-1.3,0-2.1,0.8-2.1,2.1v9.7C94,104.3,91.9,99.5,91.9,93.3z M60.4,22.6h6.9c0.4,0.2,1.3,1.4,1.5,2.9h-9.9
				C59.3,23.8,60,22.8,60.4,22.6L60.4,22.6z M57.9,29.6h12c1,0,3.1,2.1,3.8,5H54.1C54.7,31.5,57,29.6,57.9,29.6z M79.7,38.7v80.1
				H48.4l-0.2-80.1H79.7z M10.7,4.1h33.1v114.4H10.7V4.1z"/>
			<path class="st1" d="M18.5,12.3c-1.2,0-2.1,0.7-2.1,1.9V20c0,1.1,0.8,1.9,2.1,1.9s2-0.7,2-1.9v-5.8C20.5,13,19.5,12.3,18.5,12.3z
				"/>
			<path class="st1" d="M28,12.3c-1.2,0-2,0.7-2,1.9V20c0,1.1,0.8,1.9,2,1.9s2.1-0.7,2.1-1.9v-5.8C30.1,13,29,12.3,28,12.3z"/>
			<path class="st1" d="M36.2,12.3c-1.2,0-2,0.7-2,1.9V20c0,1.1,0.8,1.9,2,1.9c1.2,0,2-0.7,2-1.9v-5.8C38.3,13,37.2,12.3,36.2,12.3z
				"/>
			<path class="st1" d="M18.5,28.7c-1.2,0-2.1,0.7-2.1,1.9v5.8c0,1.1,0.8,1.9,2.1,1.9s2-0.7,2-1.9v-5.8
				C20.5,29.6,19.5,28.7,18.5,28.7z"/>
			<path class="st1" d="M28,28.7c-1.2,0-2,0.7-2,1.9v5.8c0,1.1,0.8,1.9,2,1.9s2.1-0.7,2.1-1.9v-5.8C30.1,29.6,29,28.7,28,28.7z"/>
			<path class="st1" d="M36.2,28.7c-1.2,0-2,0.7-2,1.9v5.8c0,1.1,0.8,1.9,2,1.9c1.2,0,2-0.7,2-1.9v-5.8
				C38.3,29.6,37.2,28.7,36.2,28.7z"/>
			<path class="st1" d="M18.5,46.4c-1.2,0-2.1,0.7-2.1,1.9v5.8c0,1.1,0.8,1.9,2.1,1.9s2-0.7,2-1.9v-5.8
				C20.5,47.4,19.5,46.4,18.5,46.4z"/>
			<path class="st1" d="M28,46.4c-1.2,0-2,0.7-2,1.9v5.8c0,1.1,0.8,1.9,2,1.9s2.1-0.7,2.1-1.9v-5.8C30.1,47.4,29,46.4,28,46.4z"/>
			<path class="st1" d="M36.2,46.4c-1.2,0-2,0.7-2,1.9v5.8c0,1.1,0.8,1.9,2,1.9c1.2,0,2-0.7,2-1.9v-5.8
				C38.3,47.4,37.2,46.4,36.2,46.4z"/>
			<path class="st1" d="M18.5,62.8c-1.2,0-2.1,0.7-2.1,1.9v5.8c0,1.1,0.8,1.9,2.1,1.9s2-0.7,2-1.9v-5.8
				C20.5,63.6,19.5,62.8,18.5,62.8z"/>
			<path class="st1" d="M28,62.8c-1.2,0-2,0.7-2,1.9v5.8c0,1.1,0.8,1.9,2,1.9s2.1-0.7,2.1-1.9v-5.8C30.1,63.6,29,62.8,28,62.8z"/>
			<path class="st1" d="M36.2,62.8c-1.2,0-2,0.7-2,1.9v5.8c0,1.1,0.8,1.9,2,1.9c1.2,0,2-0.7,2-1.9v-5.8
				C38.3,63.6,37.2,62.8,36.2,62.8z"/>
			<path class="st1" d="M18.5,80.6c-1.2,0-2.1,0.7-2.1,1.9v5.8c0,1.1,0.8,1.9,2.1,1.9s2-0.7,2-1.9v-5.8
				C20.5,81.5,19.5,80.6,18.5,80.6z"/>
			<path class="st1" d="M28,80.6c-1.2,0-2,0.7-2,1.9v5.8c0,1.1,0.8,1.9,2,1.9s2.1-0.7,2.1-1.9v-5.8C30.1,81.5,29,80.6,28,80.6z"/>
			<path class="st1" d="M36.2,80.6c-1.2,0-2,0.7-2,1.9v5.8c0,1.1,0.8,1.9,2,1.9c1.2,0,2-0.7,2-1.9v-5.8
				C38.3,81.5,37.2,80.6,36.2,80.6z"/>
			<path class="st1" d="M18.5,97c-1.2,0-2.1,0.7-2.1,1.9v5.8c0,1.1,0.8,1.9,2.1,1.9s2-0.7,2-1.9v-5.8C20.5,97.7,19.5,97,18.5,97z"/>
			<path class="st1" d="M28,97c-1.2,0-2,0.7-2,1.9v5.8c0,1.1,0.8,1.9,2,1.9s2.1-0.7,2.1-1.9v-5.8C30.1,97.7,29,97,28,97z"/>
			<path class="st1" d="M36.2,97c-1.2,0-2,0.7-2,1.9v5.8c0,1.1,0.8,1.9,2,1.9c1.2,0,2-0.7,2-1.9v-5.8C38.3,97.7,37.2,97,36.2,97z"/>
			<path class="st1" d="M55.3,56c1.2,0,2.1-0.7,2.1-1.9v-5.8c0-1.1-0.8-1.9-2.1-1.9c-1.2,0-2,0.7-2,1.9v5.8
				C53.3,55.1,54.3,56,55.3,56z"/>
			<path class="st1" d="M63.5,56c1.2,0,2-0.7,2-1.9v-5.8c0-1.1-0.8-1.9-2-1.9s-2,0.7-2,1.9v5.8C61.5,55.1,62.5,56,63.5,56z"/>
			<path class="st1" d="M73.1,56c1.2,0,2-0.7,2-1.9v-5.8c0-1.1-0.8-1.9-2-1.9c-1.2,0-2.1,0.7-2.1,1.9v5.8C71.1,55.1,72.1,56,73.1,56
				z"/>
			<path class="st1" d="M55.3,72.4c1.2,0,2.1-0.7,2.1-1.9v-5.8c0-1.1-0.8-1.9-2.1-1.9c-1.2,0-2,0.7-2,1.9v5.8
				C53.3,71.6,54.3,72.4,55.3,72.4z"/>
			<path class="st1" d="M63.5,72.4c1.2,0,2-0.7,2-1.9v-5.8c0-1.1-0.8-1.9-2-1.9s-2,0.7-2,1.9v5.8C61.5,71.6,62.5,72.4,63.5,72.4z"/>
			<path class="st1" d="M73.1,72.4c1.2,0,2-0.7,2-1.9v-5.8c0-1.1-0.8-1.9-2-1.9c-1.2,0-2.1,0.7-2.1,1.9v5.8
				C71.1,71.6,72.1,72.4,73.1,72.4z"/>
			<path class="st1" d="M55.3,90.1c1.2,0,2.1-0.7,2.1-1.9v-5.8c0-1.1-0.8-1.9-2.1-1.9c-1.2,0-2,0.7-2,1.9v5.8
				C53.3,89.2,54.3,90.1,55.3,90.1z"/>
			<path class="st1" d="M63.5,90.1c1.2,0,2-0.7,2-1.9v-5.8c0-1.1-0.8-1.9-2-1.9s-2,0.7-2,1.9v5.8C61.5,89.2,62.5,90.1,63.5,90.1z"/>
			<path class="st1" d="M73.1,90.1c1.2,0,2-0.7,2-1.9v-5.8c0-1.1-0.8-1.9-2-1.9c-1.2,0-2.1,0.7-2.1,1.9v5.8
				C71.1,89.2,72.1,90.1,73.1,90.1z"/>
			<path class="st1" d="M55.3,106.5c1.2,0,2.1-0.7,2.1-1.9v-5.8c0-1.1-0.8-1.9-2.1-1.9c-1.2,0-2,0.7-2,1.9v5.8
				C53.3,105.8,54.3,106.5,55.3,106.5z"/>
			<path class="st1" d="M63.5,106.5c1.2,0,2-0.7,2-1.9v-5.8c0-1.1-0.8-1.9-2-1.9s-2,0.7-2,1.9v5.8C61.5,105.8,62.5,106.5,63.5,106.5
				z"/>
			<path class="st1" d="M73.1,106.5c1.2,0,2-0.7,2-1.9v-5.8c0-1.1-0.8-1.9-2-1.9c-1.2,0-2.1,0.7-2.1,1.9v5.8
				C71.1,105.8,72.1,106.5,73.1,106.5z"/>
			<path class="st1" d="M132.6,30c0-4.6-3.8-8.2-8.2-8.2c-4.4,0-8.2,3.8-8.2,8.2c0,4.4,3.8,8.2,8.2,8.2
				C128.8,38.2,132.6,34.6,132.6,30z M124.2,34.5c-2.4,0-4.2-2-4.2-4.2s2-4.2,4.2-4.2c2.2,0,4.2,2,4.2,4.2
				C128.4,32.5,126.6,34.5,124.2,34.5z"/>
			<path class="st1" d="M123.7,17.8c1.2,0,2-0.9,2-2.2v-5.2c0-1.3-0.8-2.2-2-2.2s-2.1,0.9-2.1,2.2v5.2
				C121.6,16.9,122.7,17.8,123.7,17.8z"/>
			<path class="st1" d="M130.7,20.3c0.3,0.2,0.5,0.2,0.8,0.2c0.5,0,1.2-0.5,1.5-1.2l2-4.9c0.5-1.2,0.2-2.5-0.7-3.2
				c-0.8-0.7-1.8-0.2-2.3,0.9l-2,4.9C129.6,18.2,129.9,19.6,130.7,20.3L130.7,20.3z"/>
			<path class="st1" d="M135.7,25.1c0.5,0.5,1.1,0.9,2.1,0.9c0.5,0,0.7,0,1.1-0.2l4.8-2.1c1.1-0.5,1.4-1.5,0.9-2.4
				c-0.7-0.9-2.1-1-3.2-0.7l-4.8,2.1C135.2,23.2,135,24.2,135.7,25.1L135.7,25.1z"/>
			<path class="st1" d="M136.7,29.4c0,1,1.1,2,2.2,2h5.2c1.3,0,2.2-1,2.2-2c0-1.2-1.1-2-2.2-2h-5.2
				C137.5,27.3,136.7,28.3,136.7,29.4z"/>
			<path class="st1" d="M142.5,42.3c0.9,0,1.6-0.3,2.1-0.8c0.7-0.8,0.2-1.9-0.9-2.4l-4.8-2c-1.1-0.5-2.5-0.2-3.2,0.7
				c-0.7,0.8-0.2,1.9,0.9,2.4l4.8,2C141.6,42.3,142,42.3,142.5,42.3L142.5,42.3z"/>
			<path class="st1" d="M132.2,49.4c0.3,0.7,0.8,1.2,1.5,1.2c0.3,0,0.7,0,0.8-0.2c0.8-0.7,1-2.1,0.5-3.3l-2.1-4.9
				c-0.5-1.2-1.5-1.4-2.3-0.7c-0.8,0.7-1,2.1-0.5,3.3L132.2,49.4z"/>
			<path class="st1" d="M123.6,43.7c-1.2,0-2,1.1-2,2.2l0.2,5.2c0,1.1,1,2.2,2,2.2c1.2,0,2-1.1,2-2.2l0-5.4
				C125.5,44.6,124.8,43.5,123.6,43.7L123.6,43.7z"/>
			<path class="st1" d="M115.7,50.3c0.2,0.2,0.5,0.2,0.9,0.2c0.7,0,1.2-0.5,1.5-1.2l1.9-4.9c0.5-1.2,0.2-2.5-0.7-3.2
				c-0.9-0.7-1.9-0.2-2.4,0.9l-1.9,5.1C114.5,48.2,114.9,49.6,115.7,50.3L115.7,50.3z"/>
			<path class="st1" d="M115.8,39c-0.7-0.8-2.1-1-3.3-0.5l-4.7,2.1c-1.2,0.5-1.4,1.5-0.7,2.3c0.5,0.5,1.2,0.8,1.9,0.8
				c0.5,0,0.9-0.2,1.2-0.3l4.7-2.1C116.3,40.8,116.5,39.8,115.8,39L115.8,39z"/>
			<path class="st1" d="M104.5,34.1C104.7,34.1,104.7,34.1,104.5,34.1l5.5-0.2c1.3,0,2.2-1,2-2c0-1.2-1.1-2-2.2-1.8l-5.3,0.2
				c-1.3,0-2.2,1-2,2C102.5,33.3,103.4,34.1,104.5,34.1L104.5,34.1z"/>
			<path class="st1" d="M105.1,23.8l5,1.9c0.2,0.2,0.7,0.2,1.1,0.2c0.9,0,1.6-0.4,2-0.9c0.4-0.9,0.2-1.9-0.9-2.3l-5.2-2.1
				c-1.1-0.4-2.5-0.2-2.9,0.7C103.5,22.2,104,23.3,105.1,23.8L105.1,23.8z"/>
			<path class="st1" d="M114.5,19.6c0.3,0.7,0.8,0.9,1.3,0.9c0.3,0,0.7-0.2,1-0.5c0.8-0.7,1-2.1,0.5-3.3l-2.1-4.7
				c-0.5-1.2-1.5-1.4-2.3-0.7c-0.8,0.7-1,2.1-0.5,3.3L114.5,19.6z"/>
		</g>
	</g>
</g>
</svg>
