<?xml version="1.0" encoding="utf-8"?>
<!-- Generator: Adobe Illustrator 23.1.1, SVG Export Plug-In . SVG Version: 6.00 Build 0)  -->
<svg version="1.1" xmlns="http://www.w3.org/2000/svg" xmlns:xlink="http://www.w3.org/1999/xlink" x="0px" y="0px"
	 viewBox="0 0 516 166.5" style="enable-background:new 0 0 516 166.5;" xml:space="preserve">
<style type="text/css">
	.st0{display:none;}
	.st1{display:inline;fill-rule:evenodd;clip-rule:evenodd;fill:#009246;}
	.st2{fill-rule:evenodd;clip-rule:evenodd;fill:none;stroke:#FFFFFF;stroke-width:2;}
	.st3{fill-rule:evenodd;clip-rule:evenodd;fill:#FFC61E;}
	.st4{fill-rule:evenodd;clip-rule:evenodd;fill:#29B770;}
	.st5{fill:none;stroke:#FFFFFF;stroke-width:2;stroke-linecap:square;}
	.st6{enable-background:new    ;}
	.st7{fill:#FFFFFF;}
	.st8{fill:#FFD400;}
	.st9{fill:#EBEDF1;}
	.st10{fill-rule:evenodd;clip-rule:evenodd;fill:#FFFFFF;}
	.st11{fill:#DEDFE1;}
</style>
<g id="Layer_2" class="st0">
	<rect x="-20.1" y="-14.7" class="st1" width="549.1" height="223.9"/>
</g>
<g id="Layer_1">
	<title>main-graph-horizontal</title>
	<desc>Created with Sketch.</desc>
	<rect id="Rectangle-Copy-16" x="2" y="42.3" class="st2" width="512" height="41"/>
	<rect id="Rectangle-Copy-17" x="142" y="47.8" class="st3" width="287.5" height="30"/>
	<rect id="Rectangle-Copy-18" x="429.5" y="47.8" class="st4" width="79.8" height="30"/>
	<path id="Line-Copy-6" class="st5" d="M141.5,115.8l0.5-25.7"/>
	<path id="Line-Copy-7" class="st5" d="M1.5,115.4L2,89.7"/>
	<path id="Line-Copy-8" class="st5" d="M428.5,115.4l0.5-25.7"/>
	<g class="st6">
		<path class="st7" d="M436.4,136c-2.2,4.2-3.4,8.3-3.9,12.7h-3.4c0.5-4.3,2.4-8.8,4.1-11.8h-4.3v3.3l-2.8-1.4v-4.6h10.3V136z"/>
		<path class="st7" d="M442.7,133.9c3.4,0,5.7,2.6,5.7,7.5s-2.3,7.6-5.7,7.6c-3.4,0-5.7-2.7-5.7-7.6S439.3,133.9,442.7,133.9z
			 M442.7,146.3c2,0,2.6-2.4,2.6-4.9s-0.6-4.8-2.6-4.8c-2,0-2.5,2.4-2.5,4.8S440.8,146.3,442.7,146.3z"/>
		<path class="st7" d="M450,139.9c0,0-0.2-0.6-0.2-1.4c0-2.8,2.3-4.6,5.1-4.6c2.8,0,4.9,1.7,4.9,4.5c0,4.3-5.3,6.3-5.9,7.6v0h5.8
			v2.7h-9.5c0,0-0.1-0.3-0.1-0.8c0-4.2,6.6-5.9,6.6-9.4c0-1.2-0.7-2-1.9-2c-1.3,0-2.1,1-2.1,2.6c0,1,0.2,1.7,0.4,2.2L450,139.9z"/>
	</g>
	<g class="st6">
		<path class="st8" d="M138.7,130.6c0,0-0.4-1.1-0.4-2.4c0-4.9,3.9-7.8,8.7-7.8c4.7,0,8.4,2.9,8.4,7.6c0,7.4-9.1,10.8-10,13v0.1h10
			v4.6h-16.3c0,0-0.1-0.6-0.1-1.3c0-7.3,11.3-10.2,11.3-16.1c0-2.1-1.3-3.5-3.3-3.5c-2.3,0-3.6,1.7-3.6,4.4c0,1.7,0.4,2.9,0.6,3.7
			L138.7,130.6z"/>
		<path class="st8" d="M165.8,140.2l4.9-2.7c0.3,2.3,1.5,4.1,4,4.1s3.8-2.1,3.8-4.6s-1.4-4.5-3.7-4.5c-2,0-3.2,1.4-3.7,2.8l-4.5-2.1
			l1.5-12.5h13.8v4.5h-9.6l-0.3,2.5c-0.2,1.5-0.5,3-0.5,3h0c0.9-1,2.5-2.1,4.7-2.1c4,0,7.4,3.1,7.4,8.4c0,5.5-3.7,9.1-8.8,9.1
			C170,146.1,166.8,143.5,165.8,140.2z"/>
		<path class="st8" d="M185.6,140.2l4.9-2.7c0.3,2.3,1.5,4.1,4,4.1s3.8-2.1,3.8-4.6s-1.4-4.5-3.7-4.5c-2,0-3.2,1.4-3.7,2.8l-4.5-2.1
			l1.5-12.5h13.8v4.5h-9.6l-0.3,2.5c-0.2,1.5-0.5,3-0.5,3h0c0.9-1,2.5-2.1,4.7-2.1c4,0,7.4,3.1,7.4,8.4c0,5.5-3.7,9.1-8.8,9.1
			C189.8,146.1,186.6,143.5,185.6,140.2z"/>
		<path class="st8" d="M206.2,141.1l4.6-2.7c0.3,1.8,1.3,3.5,3.6,3.5c3.1,0,4.1-2.7,4.3-7.2l-0.1,0c-1.1,1.7-3.2,2.6-5.4,2.6
			c-3.9,0-7.7-2.9-7.7-8.2c0-5.2,3.8-8.6,8.9-8.6c5.8,0,9.3,3.9,9.3,11.6c0,8.5-2.5,14.1-9.3,14.1
			C210.3,146.1,207.6,144.2,206.2,141.1z M214.4,133.3c2.5,0,4-1.8,4-4.4c0-2.6-1.5-4.4-4-4.4s-4,1.8-4,4.4
			C210.4,131.5,211.8,133.3,214.4,133.3z"/>
	</g>
	<g class="st6">
		<path class="st7" d="M0.6,132.5l2.8-1.6c0.2,1.4,0.9,2.4,2.4,2.4c1.4,0,2.2-1,2.2-2.4c0-1.3-0.9-2.3-2.2-2.3c-1,0-1.7,0.4-2.3,0.8
			l-1-2.5l3.9-3.2H1.2v-2.6h9.4v2.2l-2.7,2.2c-0.7,0.6-2,1.3-2,1.3l0,0.1c0,0,0.4-0.1,0.7-0.1c2.4,0,4.3,1.7,4.3,4.4
			c0,2.9-2.2,4.8-5.1,4.8C3.2,135.9,1.2,134.4,0.6,132.5z"/>
		<path class="st7" d="M16.9,132.5l2.8-1.6c0.2,1.3,0.9,2.4,2.3,2.4s2.2-1.2,2.2-2.7c0-1.5-0.8-2.6-2.2-2.6c-1.2,0-1.8,0.8-2.1,1.7
			l-2.6-1.2l0.9-7.3h8v2.6h-5.6l-0.2,1.4c-0.1,0.9-0.3,1.7-0.3,1.7h0c0.5-0.6,1.4-1.2,2.8-1.2c2.3,0,4.3,1.8,4.3,4.9
			c0,3.2-2.2,5.3-5.1,5.3C19.4,135.9,17.5,134.4,16.9,132.5z"/>
		<path class="st7" d="M31.1,124.8c-0.5,0.6-1.5,1.3-2.4,1.5l-1.2-2.6c1.7-0.4,3.4-1.4,4.4-2.5h2.3v14.5h-3V127
			C31.1,126,31.2,124.8,31.1,124.8L31.1,124.8z"/>
		<path class="st7" d="M36.7,132l-0.7-1.8c1.5-2.6,2.5-5.4,2.5-9.3l2.8,1.4c-0.1,3.2-1.3,5.3-2.4,7.1h3.4v-8.3h2.9v8.3h1.7v2.6h-1.7
			v3.7h-2.9V132H36.7z"/>
	</g>
	<g class="st6">
		<path class="st9" d="M3.8,31.9c-0.2,0.3-0.8,0.7-1.2,0.8l-0.5-0.9c0.9-0.2,1.6-0.8,2-1.3H5v6.9H3.8v-4.4
			C3.8,32.4,3.9,31.9,3.8,31.9L3.8,31.9z"/>
		<path class="st9" d="M6.3,36l1-0.6c0.1,0.6,0.4,1.1,1.1,1.1c1,0,1.3-0.9,1.4-2.3l0,0C9.5,34.7,8.9,35,8.2,35
			c-1.1,0-2.1-0.9-2.1-2.3c0-1.4,1-2.4,2.4-2.4c1.6,0,2.5,1.1,2.5,3.2c0,2.3-0.6,3.9-2.4,3.9C7.3,37.5,6.6,36.9,6.3,36z M8.4,34.1
			c0.8,0,1.3-0.6,1.3-1.4c0-0.8-0.5-1.4-1.3-1.4c-0.8,0-1.3,0.6-1.3,1.4C7.2,33.5,7.7,34.1,8.4,34.1z"/>
		<path class="st9" d="M11.9,36l1-0.6c0.1,0.6,0.4,1.1,1.1,1.1c1,0,1.3-0.9,1.4-2.3l0,0c-0.3,0.5-0.9,0.8-1.6,0.8
			c-1.1,0-2.1-0.9-2.1-2.3c0-1.4,1-2.4,2.4-2.4c1.6,0,2.5,1.1,2.5,3.2c0,2.3-0.6,3.9-2.4,3.9C13,37.5,12.3,36.9,11.9,36z M14.1,34.1
			c0.8,0,1.3-0.6,1.3-1.4c0-0.8-0.5-1.4-1.3-1.4c-0.8,0-1.3,0.6-1.3,1.4C12.8,33.5,13.3,34.1,14.1,34.1z"/>
		<path class="st9" d="M20.1,30.3c1.6,0,2.6,1.3,2.6,3.6c0,2.3-1,3.6-2.6,3.6c-1.6,0-2.6-1.3-2.6-3.6C17.5,31.6,18.5,30.3,20.1,30.3
			z M20.1,36.5c1.1,0,1.4-1.3,1.4-2.6c0-1.3-0.3-2.5-1.4-2.5c-1.1,0-1.4,1.2-1.4,2.5C18.6,35.2,19,36.5,20.1,36.5z"/>
	</g>
	<polygon id="Triangle" class="st10" points="142,34.7 136,22.7 148,22.7 	"/>
	<g class="st6">
		<path class="st9" d="M429.4,33.2c0,0-0.1-0.4-0.1-0.8c0-1.3,1-2.1,2.3-2.1c1.2,0,2.2,0.8,2.2,2.1c0,2.1-2.6,3.1-3,3.9v0h3v1h-4.3
			c0,0,0-0.1,0-0.3c0-1.8,3.2-2.7,3.2-4.5c0-0.7-0.4-1.2-1.1-1.2c-0.7,0-1.2,0.5-1.2,1.3c0,0.5,0.1,0.9,0.2,1.2L429.4,33.2z"/>
		<path class="st9" d="M437.1,30.3c1.6,0,2.6,1.3,2.6,3.6c0,2.3-1,3.6-2.6,3.6c-1.6,0-2.6-1.3-2.6-3.6
			C434.5,31.6,435.5,30.3,437.1,30.3z M437.1,36.5c1.1,0,1.4-1.3,1.4-2.6c0-1.3-0.3-2.5-1.4-2.5c-1.1,0-1.4,1.2-1.4,2.5
			C435.7,35.2,436,36.5,437.1,36.5z"/>
		<path class="st9" d="M440.4,35.8l1.1-0.6c0.1,0.7,0.5,1.3,1.3,1.3c0.7,0,1.2-0.6,1.2-1.4c0-0.8-0.5-1.3-1.2-1.3
			c-0.5,0-0.9,0.2-1.1,0.4l-0.4-0.9l2.1-1.9h-2.7v-1h4.2v0.8l-1.4,1.2c-0.3,0.3-0.9,0.6-0.9,0.6l0,0c0,0,0.2-0.1,0.4-0.1
			c1.2,0,2,0.8,2,2.1c0,1.4-1,2.3-2.3,2.3C441.4,37.5,440.6,36.7,440.4,35.8z"/>
		<path class="st9" d="M445.8,35.8l1.1-0.6c0.1,0.7,0.5,1.3,1.3,1.3c0.8,0,1.2-0.7,1.2-1.5s-0.5-1.5-1.2-1.5c-0.6,0-1,0.4-1.2,0.9
			l-1-0.5l0.4-3.5h3.6v1h-2.7l-0.1,0.9c-0.1,0.5-0.2,0.8-0.2,0.8l0,0c0.3-0.3,0.7-0.6,1.3-0.6c1.1,0,2.1,0.9,2.1,2.4
			c0,1.5-1,2.5-2.3,2.5C446.9,37.5,446,36.7,445.8,35.8z"/>
	</g>
	<g class="st6">
		<path class="st7" d="M42.2,9.8h-4.7v4.9H35V2.9h2.5v4.7h4.7V2.9h2.5v11.8h-2.5V9.8z"/>
		<path class="st7" d="M48.6,11c0.1,1.4,0.9,2.1,1.9,2.1c0.9,0,1.5-0.6,1.6-1.4l2,1.1c-0.6,1.1-1.9,2-3.7,2c-2.4,0-4.1-1.7-4.1-4.5
			c0-2.8,1.8-4.5,4.1-4.5c2.3,0,3.8,1.6,3.8,4c0,0.7-0.1,1.2-0.1,1.2H48.6z M48.6,9.4H52c0-1-0.7-1.8-1.6-1.8
			C49.5,7.6,48.8,8.3,48.6,9.4z"/>
		<path class="st7" d="M55.7,2.4h2.4v12.3h-2.4V2.4z"/>
		<path class="st7" d="M64.9,12.3c0-0.7-1-0.8-2.1-1.1c-1.3-0.3-2.9-1-2.9-2.6c0-1.6,1.5-2.6,3.4-2.6c1.7,0,3.3,0.8,3.9,2L65.2,9
			c-0.2-0.8-0.8-1.4-1.8-1.4c-0.6,0-1.1,0.3-1.1,0.8c0,0.6,1.1,0.7,2.4,1.1c1.3,0.4,2.6,1,2.6,2.6c0,1.7-1.6,2.7-3.5,2.7
			c-2,0-3.6-0.8-4.3-2.2l2.1-1.2c0.3,0.9,1,1.6,2.2,1.6C64.4,13.1,64.9,12.8,64.9,12.3z"/>
		<path class="st7" d="M71.3,3.7c0,0.8-0.6,1.3-1.4,1.3c-0.8,0-1.4-0.6-1.4-1.3c0-0.8,0.6-1.3,1.4-1.3C70.7,2.4,71.3,3,71.3,3.7z
			 M68.7,6.1h2.4v8.6h-2.4V6.1z"/>
		<path class="st7" d="M80.6,14.7h-2.4v-5c0-1.1-0.4-1.7-1.3-1.7s-1.5,0.7-1.5,1.7v5.1h-2.4V6.1h2.4l-0.1,1.4h0.1
			c0.4-0.8,1.2-1.6,2.6-1.6c1.6,0,2.7,1.2,2.7,3.3V14.7z"/>
		<path class="st7" d="M85.9,5.9c0.8,0,1.2,0.2,1.8,0.2c0.7,0,1-0.4,1-1.1c0-0.3-0.1-0.6-0.1-0.8l2.2,1.3c0,1.1-0.5,1.6-1.5,1.6
			C89,7.1,88.7,7,88.6,7v0.1c0.5,0.4,1.1,1,1.1,2c0,1.7-1.6,2.8-3.7,2.8c-0.9,0-1.7,0.3-1.7,0.7c0,0.4,0.3,0.5,1,0.5
			c0.7,0,1.5-0.1,2.5-0.1c1.9,0,3.1,0.7,3.1,2.4c0,2-2.2,2.8-4.8,2.8c-2.3,0-4.5-0.7-4.5-2.2c0-0.9,0.9-1.5,1.8-1.6v-0.1
			c-0.6-0.2-1.2-0.6-1.2-1.4c0-1,1-1.5,2-1.7v-0.1c-0.9-0.4-1.7-1.1-1.7-2.4C82.4,7.1,83.9,5.9,85.9,5.9z M86,16.6
			c1.6,0,2.5-0.3,2.5-1c0-0.6-0.8-0.7-1.9-0.7c-1,0-3,0.1-3,0.9C83.6,16.3,84.6,16.6,86,16.6z M86,10.2c0.8,0,1.5-0.5,1.5-1.3
			c0-0.8-0.6-1.3-1.5-1.3S84.6,8,84.6,8.9C84.6,9.7,85.2,10.2,86,10.2z"/>
		<path class="st7" d="M94.3,3.7c0,0.8-0.6,1.3-1.4,1.3c-0.8,0-1.4-0.6-1.4-1.3c0-0.8,0.6-1.3,1.4-1.3C93.7,2.4,94.3,3,94.3,3.7z
			 M91.7,6.1h2.4v8.6h-2.4V6.1z"/>
		<path class="st7" d="M103.7,14.7h-2.4v-5c0-1.1-0.4-1.7-1.3-1.7s-1.5,0.7-1.5,1.7v5.1h-2.4V6.1h2.4l-0.1,1.4h0.1
			c0.4-0.8,1.2-1.6,2.6-1.6c1.6,0,2.7,1.2,2.7,3.3V14.7z"/>
		<path class="st7" d="M112.5,12.4L112.5,12.4c0.1,0,0.4-1.5,0.7-2.6l1-3.7h2.5l-2.8,8.6h-2.9l-2.8-8.6h2.5l1,3.7
			C112.2,10.9,112.5,12.4,112.5,12.4z"/>
		<path class="st7" d="M117.7,6.1h2.4v5c0,1.1,0.4,1.7,1.3,1.7s1.4-0.7,1.4-1.6V6.1h2.4v8.6h-2.4l0.1-1.4h-0.1
			c-0.4,0.8-1.1,1.6-2.5,1.6c-1.6,0-2.6-1.2-2.6-3.3V6.1z"/>
		<path class="st7" d="M126.7,10.4c0-2.8,1.8-4.5,4.1-4.5c2.3,0,4.1,1.7,4.1,4.5c0,2.8-1.8,4.5-4.1,4.5
			C128.5,14.9,126.7,13.2,126.7,10.4z M130.8,13c1.2,0,1.7-1.1,1.7-2.7c0-1.5-0.5-2.7-1.7-2.7c-1.2,0-1.7,1.1-1.7,2.7
			C129.1,11.9,129.6,13,130.8,13z"/>
		<path class="st7" d="M141.1,12.3c0-0.7-1-0.8-2.1-1.1c-1.3-0.3-2.9-1-2.9-2.6c0-1.6,1.5-2.6,3.4-2.6c1.7,0,3.3,0.8,3.9,2L141.4,9
			c-0.2-0.8-0.8-1.4-1.8-1.4c-0.6,0-1.1,0.3-1.1,0.8c0,0.6,1.1,0.7,2.4,1.1c1.3,0.4,2.6,1,2.6,2.6c0,1.7-1.6,2.7-3.5,2.7
			c-2,0-3.6-0.8-4.3-2.2l2.1-1.2c0.3,0.9,1,1.6,2.2,1.6C140.7,13.1,141.1,12.8,141.1,12.3z"/>
		<path class="st7" d="M147.6,3.7c0,0.8-0.6,1.3-1.4,1.3c-0.8,0-1.4-0.6-1.4-1.3c0-0.8,0.6-1.3,1.4-1.3C146.9,2.4,147.6,3,147.6,3.7
			z M145,6.1h2.4v8.6H145V6.1z"/>
		<path class="st7" d="M151.7,7.5c0.4-0.8,1.2-1.6,2.5-1.6c1.8,0,3.3,1.8,3.3,4.5c0,2.7-1.5,4.5-3.3,4.5c-1.3,0-2-0.8-2.4-1.4h0V18
			h-2.4V6.1h2.4L151.7,7.5L151.7,7.5z M153.4,13c1.1,0,1.7-1,1.7-2.6c0-1.5-0.6-2.6-1.7-2.6c-1.1,0-1.7,1-1.7,2.6
			C151.7,11.9,152.3,13,153.4,13z"/>
		<path class="st7" d="M160.6,9.4l-2.1-1.1c0.7-1.4,2.1-2.4,4-2.4c1.9,0,3.5,1.1,3.5,3.2v3.4c0,0.9,0,1.5,0.2,2.2h-1.8
			c-0.3-0.4-0.4-0.7-0.5-1.1h-0.1c-0.3,0.5-1.1,1.3-2.4,1.3c-1.5,0-2.7-0.9-2.7-2.5c0-1.9,1.8-2.4,3.1-2.7c1.2-0.3,1.8-0.4,1.8-1
			c0-0.6-0.5-0.9-1.2-0.9C161.5,7.7,160.9,8.4,160.6,9.4z M162,3.8c0,0.7-0.5,1.3-1.3,1.3c-0.7,0-1.3-0.5-1.3-1.3
			c0-0.7,0.5-1.3,1.3-1.3C161.5,2.5,162,3.1,162,3.8z M163.8,10.5c-0.2,0.3-0.7,0.5-1.3,0.7c-0.7,0.2-1.4,0.4-1.4,1.1
			c0,0.5,0.4,0.9,1.1,0.9c0.9,0,1.6-0.6,1.6-1.6V10.5z M165.4,3.8c0,0.7-0.5,1.3-1.3,1.3c-0.7,0-1.3-0.5-1.3-1.3
			c0-0.7,0.5-1.3,1.3-1.3C164.9,2.5,165.4,3.1,165.4,3.8z"/>
		<path class="st7" d="M169.5,9.4l-2.1-1.1c0.7-1.4,2.1-2.4,4-2.4c1.9,0,3.5,1.1,3.5,3.2v3.4c0,0.9,0,1.5,0.2,2.2h-1.8
			c-0.3-0.4-0.4-0.7-0.5-1.1h-0.1c-0.3,0.5-1.1,1.3-2.4,1.3c-1.5,0-2.7-0.9-2.7-2.5c0-1.9,1.8-2.4,3.1-2.7c1.2-0.3,1.8-0.4,1.8-1
			c0-0.6-0.5-0.9-1.2-0.9C170.4,7.7,169.8,8.4,169.5,9.4z M170.9,3.8c0,0.7-0.5,1.3-1.3,1.3c-0.7,0-1.3-0.5-1.3-1.3
			c0-0.7,0.5-1.3,1.3-1.3C170.4,2.5,170.9,3.1,170.9,3.8z M172.7,10.5c-0.2,0.3-0.7,0.5-1.3,0.7c-0.7,0.2-1.4,0.4-1.4,1.1
			c0,0.5,0.4,0.9,1.1,0.9c0.9,0,1.6-0.6,1.6-1.6V10.5z M174.3,3.8c0,0.7-0.5,1.3-1.3,1.3c-0.7,0-1.3-0.5-1.3-1.3
			c0-0.7,0.5-1.3,1.3-1.3C173.8,2.5,174.3,3.1,174.3,3.8z"/>
		<path class="st7" d="M181.6,12.3c0-0.7-1-0.8-2.1-1.1c-1.3-0.3-2.9-1-2.9-2.6c0-1.6,1.5-2.6,3.4-2.6c1.7,0,3.3,0.8,3.9,2L181.9,9
			c-0.2-0.8-0.8-1.4-1.8-1.4c-0.6,0-1.1,0.3-1.1,0.8c0,0.6,1.1,0.7,2.4,1.1c1.3,0.4,2.6,1,2.6,2.6c0,1.7-1.6,2.7-3.5,2.7
			c-2,0-3.6-0.8-4.3-2.2l2.1-1.2c0.3,0.9,1,1.6,2.2,1.6C181.1,13.1,181.6,12.8,181.6,12.3z"/>
		<path class="st7" d="M190.6,14.1c-0.3,0.3-1.1,0.7-2.1,0.7c-1.5,0-2.5-0.8-2.5-2.6V7.9h-1.4V6.1h1.4V4.4l2.4-1.3v3.1h1.9v1.8h-1.9
			v4.1c0,0.7,0.2,0.9,0.6,0.9c0.4,0,0.6-0.3,0.7-0.5L190.6,14.1z"/>
		<path class="st7" d="M191.1,10.4c0-2.8,1.8-4.5,4.1-4.5c2.3,0,4.1,1.7,4.1,4.5c0,2.8-1.8,4.5-4.1,4.5
			C192.9,14.9,191.1,13.2,191.1,10.4z M194.9,3.8c0,0.7-0.5,1.3-1.3,1.3c-0.7,0-1.3-0.5-1.3-1.3c0-0.7,0.5-1.3,1.3-1.3
			C194.3,2.5,194.9,3.1,194.9,3.8z M195.3,13c1.2,0,1.7-1.1,1.7-2.7c0-1.5-0.5-2.7-1.7-2.7c-1.2,0-1.7,1.1-1.7,2.7
			C193.6,11.9,194.1,13,195.3,13z M198.2,3.8c0,0.7-0.5,1.3-1.3,1.3c-0.7,0-1.3-0.5-1.3-1.3c0-0.7,0.5-1.3,1.3-1.3
			C197.7,2.5,198.2,3.1,198.2,3.8z"/>
		<path class="st7" d="M205.7,14.1c-0.3,0.3-1.1,0.7-2.1,0.7c-1.5,0-2.5-0.8-2.5-2.6V7.9h-1.4V6.1h1.4V4.4l2.4-1.3v3.1h1.9v1.8h-1.9
			v4.1c0,0.7,0.2,0.9,0.6,0.9c0.4,0,0.6-0.3,0.7-0.5L205.7,14.1z"/>
		<path class="st7" d="M210.4,7.5c0,0-0.2-0.5-0.2-1.2c0-2.3,1.8-3.7,4.1-3.7c2.2,0,4,1.4,4,3.6c0,3.5-4.3,5.1-4.7,6.2v0h4.7v2.2
			h-7.7c0,0-0.1-0.3-0.1-0.6c0-3.4,5.3-4.8,5.3-7.6c0-1-0.6-1.6-1.6-1.6c-1.1,0-1.7,0.8-1.7,2.1c0,0.8,0.2,1.4,0.3,1.8L210.4,7.5z"
			/>
		<path class="st7" d="M224.1,2.7c2.8,0,4.6,2.1,4.6,6.1c0,3.9-1.9,6.1-4.6,6.1c-2.7,0-4.6-2.2-4.6-6.1
			C219.5,4.8,221.3,2.7,224.1,2.7z M224.1,12.7c1.6,0,2.1-2,2.1-4s-0.5-3.9-2.1-3.9c-1.6,0-2.1,1.9-2.1,3.9S222.5,12.7,224.1,12.7z"
			/>
		<path class="st7" d="M232.1,5.9c-0.4,0.5-1.2,1-2,1.2l-1-2.1c1.4-0.3,2.8-1.1,3.5-2.1h1.8v11.8h-2.4v-7
			C232.1,6.8,232.2,5.9,232.1,5.9L232.1,5.9z"/>
		<path class="st7" d="M236.2,11.4c0-1.9,1.5-2.7,2.4-3V8.3c-0.9-0.3-1.9-1.1-1.9-2.5c0-1.9,1.7-3.1,4-3.1c2.3,0,4,1.2,4,3.1
			c0,1.5-1.1,2.2-1.9,2.5v0.1c0.9,0.3,2.4,1.1,2.4,3c0,2.2-1.9,3.5-4.4,3.5C238.2,14.9,236.2,13.5,236.2,11.4z M240.6,12.9
			c1.1,0,2-0.6,2-1.7c0-1.1-0.9-1.7-2-1.7c-1.1,0-2,0.6-2,1.7C238.6,12.3,239.5,12.9,240.6,12.9z M240.6,7.5c1,0,1.8-0.5,1.8-1.4
			s-0.8-1.4-1.8-1.4c-1,0-1.8,0.5-1.8,1.4S239.6,7.5,240.6,7.5z"/>
	</g>
	<g class="st6">
		<path class="st9" d="M232.3,141.6l1.9,3H233l-1.4-2.2l-0.8,1v1.2h-1.1v-7.2h1.1v3.5c0,0.6-0.1,1.2-0.1,1.2h0c0,0,0.3-0.6,0.7-0.9
			l1.3-1.6h1.3L232.3,141.6z"/>
		<path class="st9" d="M237.6,144.3c-0.2,0.2-0.6,0.5-1.1,0.5c-0.7,0-1.3-0.4-1.3-1.4v-2.9h-0.9v-0.9h0.9v-1.1l1.1-0.6v1.7h1.2v0.9
			h-1.2v2.8c0,0.4,0.1,0.6,0.4,0.6c0.2,0,0.4-0.2,0.5-0.4L237.6,144.3z"/>
		<path class="st9" d="M240.4,141.2c0-2.2,1.4-3.6,3.1-3.6c1.5,0,2.6,1.1,2.8,2.2l-1.1,0.7c0-1-0.6-1.9-1.7-1.9
			c-1.3,0-1.9,1.1-1.9,2.5c0,1.4,0.6,2.6,1.9,2.6c1.1,0,1.7-0.9,1.7-1.9l1.1,0.7c-0.2,1.1-1.3,2.3-2.8,2.3
			C241.8,144.8,240.4,143.4,240.4,141.2z"/>
		<path class="st9" d="M247,141.2c0-2.2,1.4-3.6,3.2-3.6c1.8,0,3.2,1.3,3.2,3.6c0,2.2-1.4,3.6-3.2,3.6
			C248.4,144.8,247,143.4,247,141.2z M250.2,138.7c-1.3,0-2,1.1-2,2.5c0,1.4,0.7,2.6,2,2.6c1.3,0,2-1.1,2-2.6
			C252.2,139.8,251.5,138.7,250.2,138.7z"/>
		<path class="st9" d="M254.1,143.2c0,0-0.1-0.2-0.1-0.4c0-0.8,0.7-1.3,1.5-1.3c0.8,0,1.5,0.5,1.5,1.3c0,1.3-1.6,1.9-1.8,2.2v0h1.8
			v0.8h-2.9c0,0,0-0.1,0-0.2c0-1.2,2-1.7,2-2.8c0-0.4-0.2-0.6-0.6-0.6c-0.4,0-0.6,0.3-0.6,0.8c0,0.3,0.1,0.5,0.1,0.6L254.1,143.2z"
			/>
		<path class="st9" d="M258.7,142.4c0.1,0.9,0.5,1.5,1.3,1.5c0.6,0,1-0.4,1.1-1l1,0.6c-0.3,0.7-1.1,1.3-2.1,1.3
			c-1.4,0-2.4-1-2.4-2.6c0-1.6,1-2.6,2.3-2.6c1.3,0,2.2,1,2.2,2.3c0,0.4-0.1,0.6-0.1,0.6H258.7z M258.8,141.6h2.4
			c0-0.7-0.4-1.3-1.1-1.3C259.4,140.4,258.9,140.9,258.8,141.6z"/>
	</g>
	<g class="st6">
		<path class="st9" d="M468.3,145.6l1.9,3H469l-1.4-2.2l-0.8,1v1.2h-1.1v-7.2h1.1v3.5c0,0.6-0.1,1.2-0.1,1.2h0c0,0,0.3-0.6,0.7-0.9
			l1.3-1.6h1.3L468.3,145.6z"/>
		<path class="st9" d="M473.6,148.3c-0.2,0.2-0.6,0.5-1.1,0.5c-0.8,0-1.3-0.4-1.3-1.4v-2.9h-0.9v-0.9h0.9v-1.1l1.1-0.6v1.7h1.2v0.9
			h-1.2v2.8c0,0.4,0.1,0.6,0.4,0.6c0.2,0,0.4-0.2,0.5-0.4L473.6,148.3z"/>
		<path class="st9" d="M476.4,145.2c0-2.2,1.4-3.6,3.1-3.6c1.5,0,2.6,1.1,2.8,2.2l-1.1,0.7c-0.1-1-0.6-1.9-1.7-1.9
			c-1.3,0-1.9,1.1-1.9,2.5c0,1.4,0.6,2.6,1.9,2.6c1.1,0,1.7-0.9,1.7-1.9l1.1,0.7c-0.2,1.1-1.3,2.3-2.8,2.3
			C477.8,148.8,476.4,147.4,476.4,145.2z"/>
		<path class="st9" d="M483,145.2c0-2.2,1.4-3.6,3.2-3.6c1.8,0,3.2,1.3,3.2,3.6c0,2.2-1.4,3.6-3.2,3.6
			C484.4,148.8,483,147.4,483,145.2z M486.2,142.7c-1.3,0-2,1.1-2,2.5c0,1.4,0.7,2.6,2,2.6c1.3,0,2-1.1,2-2.6
			C488.2,143.8,487.5,142.7,486.2,142.7z"/>
		<path class="st9" d="M490.1,147.2c0,0-0.1-0.2-0.1-0.4c0-0.8,0.7-1.3,1.5-1.3c0.8,0,1.5,0.5,1.5,1.3c0,1.3-1.6,1.9-1.8,2.2v0h1.8
			v0.8h-2.9c0,0,0-0.1,0-0.2c0-1.2,2-1.7,2-2.8c0-0.4-0.2-0.6-0.6-0.6c-0.4,0-0.6,0.3-0.6,0.8c0,0.3,0.1,0.5,0.1,0.6L490.1,147.2z"
			/>
		<path class="st9" d="M494.7,146.4c0.1,0.9,0.5,1.5,1.3,1.5c0.6,0,1-0.4,1.1-1l1,0.6c-0.3,0.7-1.1,1.3-2.1,1.3
			c-1.4,0-2.4-1-2.4-2.6c0-1.6,1-2.6,2.3-2.6c1.3,0,2.2,1,2.2,2.3c0,0.4-0.1,0.6-0.1,0.6H494.7z M494.8,145.6h2.4
			c0-0.7-0.4-1.3-1.1-1.3C495.4,144.4,494.9,144.9,494.8,145.6z"/>
	</g>
	<g class="st6">
		<path class="st9" d="M426.3,120.9h4.5v1h-3.4v1.8h3.2v1h-3.2v2h3.4v1h-4.6V120.9z"/>
		<path class="st9" d="M436.2,127.8h-1.1v-3c0-0.8-0.3-1.2-0.9-1.2c-0.7,0-1.1,0.5-1.1,1.2v3H432v-5h1.1l-0.1,0.9h0
			c0.2-0.5,0.7-1,1.5-1c1,0,1.6,0.7,1.6,2V127.8z"/>
		<path class="st9" d="M438.8,121.3c0,0.4-0.3,0.7-0.7,0.7c-0.4,0-0.7-0.3-0.7-0.7c0-0.4,0.3-0.7,0.7-0.7
			C438.5,120.7,438.8,120.9,438.8,121.3z M437.5,122.7h1.1v5h-1.1V122.7z"/>
		<path class="st9" d="M444.2,127.8h-1.1v-3c0-0.8-0.3-1.2-0.9-1.2c-0.7,0-1.1,0.5-1.1,1.2v3h-1.1v-5h1.1l-0.1,0.9h0
			c0.2-0.5,0.7-1,1.5-1c1,0,1.6,0.7,1.6,2V127.8z"/>
		<path class="st9" d="M448.1,127.4c-0.2,0.2-0.6,0.5-1.1,0.5c-0.7,0-1.3-0.4-1.3-1.4v-2.9h-0.9v-0.9h0.9v-1.1l1.1-0.6v1.7h1.2v0.9
			h-1.2v2.8c0,0.4,0.1,0.6,0.4,0.6c0.2,0,0.4-0.2,0.5-0.4L448.1,127.4z"/>
		<path class="st9" d="M449.6,124.7l-1-0.6c0.3-0.9,1.2-1.5,2.3-1.5c1.1,0,2,0.6,2,1.8v2.2c0,0.5,0,0.8,0.1,1.2h-0.9
			c-0.2-0.3-0.2-0.4-0.2-0.7h0c-0.2,0.3-0.7,0.8-1.5,0.8c-0.9,0-1.6-0.5-1.6-1.5c0-1.1,1-1.4,1.9-1.6c0.7-0.2,1.1-0.2,1.1-0.6
			c0-0.4-0.4-0.7-0.9-0.7C450.1,123.5,449.7,124,449.6,124.7z M450.5,121.4c0,0.4-0.3,0.7-0.7,0.7c-0.4,0-0.7-0.3-0.7-0.7
			c0-0.4,0.3-0.6,0.7-0.6C450.3,120.7,450.5,121,450.5,121.4z M451.8,125.2c-0.2,0.2-0.5,0.3-0.9,0.4c-0.5,0.1-1,0.2-1,0.8
			c0,0.4,0.3,0.6,0.8,0.6c0.6,0,1.2-0.4,1.2-1.2V125.2z M452.4,121.4c0,0.4-0.3,0.7-0.7,0.7c-0.4,0-0.7-0.3-0.7-0.7
			c0-0.4,0.3-0.6,0.7-0.6C452.1,120.7,452.4,121,452.4,121.4z"/>
		<path class="st9" d="M454.8,124.7l-1-0.6c0.3-0.9,1.2-1.5,2.3-1.5c1.1,0,2,0.6,2,1.8v2.2c0,0.5,0,0.8,0.1,1.2h-0.9
			c-0.2-0.3-0.2-0.4-0.2-0.7h0c-0.2,0.3-0.7,0.8-1.5,0.8c-0.9,0-1.6-0.5-1.6-1.5c0-1.1,1-1.4,1.9-1.6c0.7-0.2,1.1-0.2,1.1-0.6
			c0-0.4-0.4-0.7-0.9-0.7C455.4,123.5,454.9,124,454.8,124.7z M455.7,121.4c0,0.4-0.3,0.7-0.7,0.7c-0.4,0-0.7-0.3-0.7-0.7
			c0-0.4,0.3-0.6,0.7-0.6C455.5,120.7,455.7,121,455.7,121.4z M457,125.2c-0.2,0.2-0.5,0.3-0.9,0.4c-0.5,0.1-1,0.2-1,0.8
			c0,0.4,0.3,0.6,0.8,0.6c0.6,0,1.2-0.4,1.2-1.2V125.2z M457.6,121.4c0,0.4-0.3,0.7-0.7,0.7c-0.4,0-0.7-0.3-0.7-0.7
			c0-0.4,0.3-0.6,0.7-0.6C457.3,120.7,457.6,121,457.6,121.4z"/>
		<path class="st9" d="M463.6,127.8h-1.1v-3c0-0.8-0.3-1.2-0.9-1.2c-0.7,0-1.1,0.5-1.1,1.2v3h-1.1v-5h1.1l-0.1,0.9h0
			c0.2-0.5,0.7-1,1.5-1c1,0,1.6,0.7,1.6,2V127.8z"/>
	</g>
	<g class="st6">
		<path class="st9" d="M425.1,163.2c1-0.2,1.3-0.6,1.3-1.7v-4.7h1.1v4.9c0,1.2-0.4,1.9-1.4,2.2L425.1,163.2z M427.6,155.4
			c0,0.4-0.3,0.7-0.7,0.7c-0.4,0-0.7-0.3-0.7-0.7c0-0.4,0.3-0.7,0.7-0.7C427.3,154.7,427.6,155,427.6,155.4z"/>
		<path class="st9" d="M428.5,159.3c0-1.6,1-2.6,2.4-2.6c1.4,0,2.3,1.1,2.3,2.6s-1,2.6-2.3,2.6C429.5,162,428.5,160.9,428.5,159.3z
			 M430.9,161.1c0.8,0,1.2-0.8,1.2-1.7s-0.4-1.7-1.2-1.7c-0.8,0-1.2,0.8-1.2,1.7S430,161.1,430.9,161.1z"/>
		<path class="st9" d="M436.9,158.8l1.9,3h-1.2l-1.4-2.2l-0.8,1v1.2h-1.1v-7.2h1.1v3.5c0,0.6-0.1,1.2-0.1,1.2h0c0,0,0.3-0.6,0.7-0.9
			l1.3-1.6h1.3L436.9,158.8z"/>
		<path class="st9" d="M440.1,158.7l-1-0.6c0.3-0.9,1.2-1.5,2.3-1.5c1.1,0,2,0.6,2,1.8v2.2c0,0.5,0,0.8,0.1,1.2h-0.9
			c-0.2-0.3-0.2-0.4-0.2-0.7h0c-0.2,0.3-0.7,0.8-1.5,0.8c-0.9,0-1.6-0.5-1.6-1.5c0-1.1,1-1.4,1.9-1.6c0.7-0.2,1.1-0.2,1.1-0.6
			c0-0.4-0.4-0.7-0.9-0.7C440.7,157.6,440.2,158.1,440.1,158.7z M442.3,159.2c-0.1,0.2-0.5,0.3-0.9,0.4c-0.5,0.1-1,0.2-1,0.8
			c0,0.4,0.3,0.6,0.8,0.6c0.6,0,1.2-0.4,1.2-1.2V159.2z"/>
		<path class="st9" d="M449.5,158.8l1.9,3h-1.2l-1.4-2.2l-0.8,1v1.2h-1.1v-7.2h1.1v3.5c0,0.6-0.1,1.2-0.1,1.2h0c0,0,0.3-0.6,0.7-0.9
			l1.3-1.6h1.3L449.5,158.8z"/>
		<path class="st9" d="M451.7,159.3c0-1.6,1-2.6,2.4-2.6s2.3,1.1,2.3,2.6s-1,2.6-2.3,2.6S451.7,160.9,451.7,159.3z M454,161.1
			c0.8,0,1.2-0.8,1.2-1.7s-0.4-1.7-1.2-1.7c-0.8,0-1.2,0.8-1.2,1.7S453.2,161.1,454,161.1z"/>
		<path class="st9" d="M457.4,156.8h1.1l-0.1,0.9h0c0.2-0.4,0.6-1,1.4-1c0.7,0,1.1,0.3,1.3,1h0c0.2-0.5,0.7-1,1.5-1
			c1,0,1.6,0.7,1.6,1.9v3.3h-1.1v-3.1c0-0.8-0.3-1.1-0.9-1.1c-0.6,0-1,0.5-1,1.3v2.9h-1.1v-3.2c0-0.7-0.3-1-0.9-1
			c-0.6,0-1,0.5-1,1.2v3h-1.1V156.8z"/>
		<path class="st9" d="M466.8,157.7c0.2-0.5,0.7-1,1.5-1c1.1,0,2,1.1,2,2.6s-0.9,2.6-2,2.6c-0.8,0-1.3-0.5-1.5-0.9h0v2.7h-1.1v-7
			h1.1L466.8,157.7L466.8,157.7z M468,161c0.8,0,1.2-0.8,1.2-1.7s-0.4-1.7-1.2-1.7s-1.2,0.8-1.2,1.7S467.2,161,468,161z"/>
		<path class="st9" d="M472.2,159.6c0.1,0.9,0.5,1.5,1.3,1.5c0.6,0,1-0.4,1.1-1l1,0.6c-0.3,0.7-1.1,1.3-2.1,1.3
			c-1.4,0-2.4-1-2.4-2.6c0-1.6,1-2.6,2.3-2.6c1.3,0,2.2,1,2.2,2.3c0,0.4-0.1,0.6-0.1,0.6H472.2z M472.3,158.8h2.4
			c0-0.7-0.4-1.3-1.1-1.3C472.8,157.5,472.4,158,472.3,158.8z"/>
		<path class="st9" d="M481,161.8h-1.1v-3c0-0.8-0.3-1.2-0.9-1.2c-0.7,0-1.1,0.5-1.1,1.2v3h-1.1v-5h1.1l-0.1,0.9h0
			c0.2-0.5,0.7-1,1.5-1c1,0,1.6,0.7,1.6,2V161.8z"/>
		<path class="st9" d="M485.2,160.5c0-0.5-0.6-0.6-1.3-0.8c-0.8-0.2-1.7-0.5-1.7-1.5c0-0.9,0.9-1.5,1.8-1.5c1,0,1.9,0.5,2.2,1.2
			l-1,0.6c-0.1-0.5-0.5-1-1.2-1c-0.4,0-0.8,0.2-0.8,0.6c0,0.5,0.8,0.5,1.5,0.8c0.8,0.3,1.5,0.6,1.5,1.5c0,1-0.9,1.5-1.9,1.5
			c-1.2,0-2.1-0.6-2.4-1.4l1-0.6c0.1,0.6,0.6,1.2,1.4,1.2C484.8,161.1,485.2,160.9,485.2,160.5z"/>
		<path class="st9" d="M487,159.3c0-1.6,1-2.6,2.4-2.6c1.4,0,2.3,1.1,2.3,2.6s-1,2.6-2.3,2.6C487.9,162,487,160.9,487,159.3z
			 M489.3,161.1c0.8,0,1.2-0.8,1.2-1.7s-0.4-1.7-1.2-1.7c-0.8,0-1.2,0.8-1.2,1.7S488.5,161.1,489.3,161.1z"/>
		<path class="st9" d="M494,155.4c0,0.4-0.3,0.7-0.7,0.7c-0.4,0-0.7-0.3-0.7-0.7c0-0.4,0.3-0.7,0.7-0.7
			C493.7,154.7,494,155,494,155.4z M492.7,156.8h1.1v5h-1.1V156.8z"/>
		<path class="st9" d="M498.5,161c-0.2,0.5-0.7,1-1.5,1c-1.1,0-2-1.1-2-2.6s0.9-2.6,2-2.6c0.8,0,1.3,0.5,1.5,0.8h0v-2.9h1.1v7.2
			h-1.1L498.5,161L498.5,161z M498.5,159.3c0-1-0.4-1.7-1.2-1.7c-0.8,0-1.2,0.8-1.2,1.7s0.4,1.7,1.2,1.7
			C498,161,498.5,160.3,498.5,159.3z"/>
		<path class="st9" d="M501.5,158.7l-1-0.6c0.3-0.9,1.2-1.5,2.3-1.5c1.1,0,2,0.6,2,1.8v2.2c0,0.5,0,0.8,0.1,1.2H504
			c-0.2-0.3-0.2-0.4-0.2-0.7h0c-0.2,0.3-0.7,0.8-1.5,0.8c-0.9,0-1.6-0.5-1.6-1.5c0-1.1,1-1.4,1.9-1.6c0.7-0.2,1.1-0.2,1.1-0.6
			c0-0.4-0.4-0.7-0.9-0.7C502.1,157.6,501.7,158.1,501.5,158.7z M503.7,159.2c-0.1,0.2-0.5,0.3-0.9,0.4c-0.5,0.1-1,0.2-1,0.8
			c0,0.4,0.3,0.6,0.8,0.6c0.6,0,1.2-0.4,1.2-1.2V159.2z"/>
		<path class="st9" d="M506.7,158.7l-1-0.6c0.3-0.9,1.2-1.5,2.3-1.5c1.1,0,2,0.6,2,1.8v2.2c0,0.5,0,0.8,0.1,1.2h-0.9
			c-0.2-0.3-0.2-0.4-0.2-0.7h0c-0.2,0.3-0.7,0.8-1.5,0.8c-0.9,0-1.6-0.5-1.6-1.5c0-1.1,1-1.4,1.9-1.6c0.7-0.2,1.1-0.2,1.1-0.6
			c0-0.4-0.4-0.7-0.9-0.7C507.3,157.6,506.9,158.1,506.7,158.7z M508.9,159.2c-0.1,0.2-0.5,0.3-0.9,0.4c-0.5,0.1-1,0.2-1,0.8
			c0,0.4,0.3,0.6,0.8,0.6c0.6,0,1.2-0.4,1.2-1.2V159.2z"/>
		<path class="st9" d="M515.5,161.8h-1.1v-3c0-0.8-0.3-1.2-0.9-1.2c-0.7,0-1.1,0.5-1.1,1.2v3h-1.1v-5h1.1l-0.1,0.9h0
			c0.2-0.5,0.7-1,1.5-1c1,0,1.6,0.7,1.6,2V161.8z"/>
	</g>
	<g class="st6">
		<path class="st9" d="M55.3,132.6l1.9,3H56l-1.4-2.2l-0.8,1v1.2h-1.1v-7.2h1.1v3.5c0,0.6-0.1,1.2-0.1,1.2h0c0,0,0.3-0.6,0.7-0.9
			l1.3-1.6H57L55.3,132.6z"/>
		<path class="st9" d="M60.6,135.3c-0.2,0.2-0.6,0.5-1.1,0.5c-0.7,0-1.3-0.4-1.3-1.4v-2.9h-0.9v-0.9h0.9v-1.1l1.1-0.6v1.7h1.2v0.9
			h-1.2v2.8c0,0.4,0.1,0.6,0.4,0.6c0.2,0,0.4-0.2,0.5-0.4L60.6,135.3z"/>
		<path class="st9" d="M63.4,132.2c0-2.2,1.4-3.6,3.1-3.6c1.5,0,2.6,1.1,2.8,2.2l-1.1,0.7c0-1-0.6-1.9-1.7-1.9
			c-1.3,0-1.9,1.1-1.9,2.5c0,1.4,0.6,2.6,1.9,2.6c1.1,0,1.7-0.9,1.7-1.9l1.1,0.7c-0.2,1.1-1.3,2.3-2.8,2.3
			C64.8,135.8,63.4,134.4,63.4,132.2z"/>
		<path class="st9" d="M70,132.2c0-2.2,1.4-3.6,3.2-3.6c1.8,0,3.2,1.3,3.2,3.6c0,2.2-1.4,3.6-3.2,3.6C71.4,135.8,70,134.4,70,132.2z
			 M73.2,129.7c-1.3,0-2,1.1-2,2.5c0,1.4,0.7,2.6,2,2.6c1.3,0,2-1.1,2-2.6C75.2,130.8,74.5,129.7,73.2,129.7z"/>
		<path class="st9" d="M77.1,134.2c0,0-0.1-0.2-0.1-0.4c0-0.8,0.7-1.3,1.5-1.3c0.8,0,1.5,0.5,1.5,1.3c0,1.3-1.6,1.9-1.8,2.2v0h1.8
			v0.8h-2.9c0,0,0-0.1,0-0.2c0-1.2,2-1.7,2-2.8c0-0.4-0.2-0.6-0.6-0.6c-0.4,0-0.6,0.3-0.6,0.8c0,0.3,0.1,0.5,0.1,0.6L77.1,134.2z"/>
		<path class="st9" d="M81.7,133.4c0.1,0.9,0.5,1.5,1.3,1.5c0.6,0,1-0.4,1.1-1l1,0.6c-0.3,0.7-1.1,1.3-2.1,1.3c-1.4,0-2.4-1-2.4-2.6
			c0-1.6,1-2.6,2.3-2.6c1.3,0,2.2,1,2.2,2.3c0,0.4-0.1,0.6-0.1,0.6H81.7z M81.8,132.6h2.4c0-0.7-0.4-1.3-1.1-1.3
			C82.4,131.4,81.9,131.9,81.8,132.6z"/>
	</g>
	<g>
		<path class="st11" d="M11.7,64.6c0.1,0.5,0.4,1.2,0.4,1.2h0c0,0,0.2-0.8,0.4-1.2l1.9-5.6h1.5l-2.9,8.3h-1.7L8.3,59h1.5L11.7,64.6z
			"/>
		<path class="st11" d="M17.4,63.6l-1.2-0.7c0.4-1,1.4-1.8,2.7-1.8c1.3,0,2.4,0.7,2.4,2.2v2.6c0,0.7,0,1,0.1,1.4h-1
			c-0.2-0.3-0.3-0.5-0.3-0.8h0c-0.3,0.4-0.8,0.9-1.8,0.9c-1.1,0-1.9-0.6-1.9-1.8c0-1.3,1.2-1.7,2.3-1.9c0.9-0.2,1.4-0.3,1.4-0.8
			c0-0.5-0.5-0.9-1.1-0.9C18.1,62.2,17.6,62.8,17.4,63.6z M18.5,59.6c0,0.5-0.3,0.8-0.8,0.8c-0.5,0-0.8-0.3-0.8-0.8
			c0-0.5,0.3-0.8,0.8-0.8C18.2,58.8,18.5,59.2,18.5,59.6z M20.1,64.2c-0.2,0.3-0.6,0.4-1.1,0.5c-0.6,0.1-1.3,0.3-1.3,0.9
			c0,0.5,0.3,0.8,0.9,0.8c0.7,0,1.4-0.5,1.4-1.4V64.2z M20.8,59.6c0,0.5-0.3,0.8-0.8,0.8c-0.5,0-0.8-0.3-0.8-0.8
			c0-0.5,0.3-0.8,0.8-0.8C20.5,58.8,20.8,59.2,20.8,59.6z"/>
		<path class="st11" d="M27.9,67.3h-1.3v-3.6c0-1-0.4-1.5-1.1-1.5c-0.8,0-1.3,0.6-1.3,1.5v3.5h-1.3v-8.7h1.3v2.2
			c0,0.7-0.1,1.5-0.1,1.5h0c0.3-0.5,0.8-1.2,1.8-1.2c1.2,0,2,0.8,2,2.4V67.3z"/>
		<path class="st11" d="M30.4,64.6c0.1,1.1,0.7,1.8,1.6,1.8c0.8,0,1.2-0.5,1.4-1.2l1.2,0.7c-0.4,0.8-1.3,1.6-2.5,1.6
			c-1.7,0-2.8-1.2-2.8-3.2c0-1.9,1.2-3.2,2.8-3.2c1.6,0,2.6,1.2,2.6,2.8c0,0.4-0.1,0.7-0.1,0.7H30.4z M30.4,63.7h2.9
			c0-0.8-0.5-1.5-1.3-1.5C31.1,62.1,30.6,62.8,30.4,63.7z"/>
		<path class="st11" d="M40.9,67.3h-1.3v-3.6c0-1-0.4-1.5-1.1-1.5c-0.8,0-1.3,0.6-1.3,1.5v3.5h-1.3v-6h1.3l-0.1,1h0
			c0.3-0.5,0.8-1.2,1.8-1.2c1.2,0,2,0.8,2,2.4V67.3z"/>
		<path class="st11" d="M47.5,67.3h-1.3v-3.6c0-1-0.4-1.5-1.1-1.5c-0.8,0-1.3,0.6-1.3,1.5v3.5h-1.3v-6h1.3l-0.1,1h0
			c0.3-0.5,0.8-1.2,1.8-1.2c1.2,0,2,0.8,2,2.4V67.3z"/>
		<path class="st11" d="M50,64.6c0.1,1.1,0.7,1.8,1.6,1.8c0.8,0,1.2-0.5,1.4-1.2l1.2,0.7c-0.4,0.8-1.3,1.6-2.5,1.6
			c-1.7,0-2.8-1.2-2.8-3.2c0-1.9,1.2-3.2,2.8-3.2c1.6,0,2.6,1.2,2.6,2.8c0,0.4-0.1,0.7-0.1,0.7H50z M50,63.7h2.9
			c0-0.8-0.5-1.5-1.3-1.5C50.7,62.1,50.2,62.8,50,63.7z"/>
		<path class="st11" d="M58.6,66.9c-0.2,0.2-0.7,0.6-1.4,0.6c-0.9,0-1.6-0.4-1.6-1.7v-3.4h-1v-1.1h1V60l1.3-0.8v2.1h1.2v1.1H57v3.3
			c0,0.5,0.2,0.7,0.5,0.7c0.3,0,0.5-0.3,0.6-0.5L58.6,66.9z M62.7,66.9c-0.2,0.2-0.7,0.6-1.4,0.6c-0.9,0-1.6-0.4-1.6-1.7v-3.4h-1
			v-1.1h1V60l1.3-0.8v2.1h1.5v1.1h-1.5v3.3c0,0.5,0.2,0.7,0.5,0.7c0.3,0,0.5-0.3,0.6-0.5L62.7,66.9z"/>
		<path class="st11" d="M65.8,65.7c0,0,0.3-0.9,0.5-1.7l0.9-2.8h1.4l-2.1,6.3c-0.3,0.9-0.8,1.9-1.8,2.3l-1.1-0.9
			c0.8-0.2,1.4-0.7,1.6-1.4l0-0.1L63,61.3h1.4l0.9,2.8C65.5,64.7,65.8,65.7,65.8,65.7L65.8,65.7z"/>
	</g>
	<g>
		<path d="M154.4,64.6c0.1,0.5,0.4,1.2,0.4,1.2h0c0,0,0.2-0.8,0.4-1.2L157,59h1.5l-2.9,8.3h-1.7L151,59h1.5L154.4,64.6z"/>
		<path d="M160.1,63.6l-1.2-0.7c0.4-1,1.4-1.8,2.7-1.8c1.3,0,2.4,0.7,2.4,2.2v2.6c0,0.7,0,1,0.1,1.4h-1c-0.2-0.3-0.3-0.5-0.3-0.8h0
			c-0.3,0.4-0.8,0.9-1.8,0.9c-1.1,0-1.9-0.6-1.9-1.8c0-1.3,1.2-1.7,2.3-1.9c0.9-0.2,1.4-0.3,1.4-0.8c0-0.5-0.5-0.9-1.1-0.9
			C160.8,62.2,160.3,62.8,160.1,63.6z M161.2,59.6c0,0.5-0.3,0.8-0.8,0.8c-0.5,0-0.8-0.3-0.8-0.8c0-0.5,0.3-0.8,0.8-0.8
			C160.9,58.8,161.2,59.2,161.2,59.6z M162.8,64.2c-0.2,0.3-0.6,0.4-1.1,0.5c-0.6,0.1-1.3,0.3-1.3,0.9c0,0.5,0.3,0.8,0.9,0.8
			c0.7,0,1.4-0.5,1.4-1.4V64.2z M163.5,59.6c0,0.5-0.3,0.8-0.8,0.8c-0.5,0-0.8-0.3-0.8-0.8c0-0.5,0.3-0.8,0.8-0.8
			C163.2,58.8,163.5,59.2,163.5,59.6z"/>
		<path d="M170.6,67.3h-1.3v-3.6c0-1-0.4-1.5-1.1-1.5c-0.8,0-1.3,0.6-1.3,1.5v3.5h-1.3v-8.7h1.3v2.2c0,0.7-0.1,1.5-0.1,1.5h0
			c0.3-0.5,0.8-1.2,1.8-1.2c1.2,0,2,0.8,2,2.4V67.3z"/>
		<path d="M173.1,64.6c0.1,1.1,0.7,1.8,1.6,1.8c0.8,0,1.2-0.5,1.4-1.2l1.2,0.7c-0.4,0.8-1.3,1.6-2.5,1.6c-1.7,0-2.8-1.2-2.8-3.2
			c0-1.9,1.2-3.2,2.8-3.2c1.6,0,2.6,1.2,2.6,2.8c0,0.4-0.1,0.7-0.1,0.7H173.1z M173.1,63.7h2.9c0-0.8-0.5-1.5-1.3-1.5
			C173.8,62.1,173.3,62.8,173.1,63.7z"/>
		<path d="M183.6,67.3h-1.3v-3.6c0-1-0.4-1.5-1.1-1.5c-0.8,0-1.3,0.6-1.3,1.5v3.5h-1.3v-6h1.3l-0.1,1h0c0.3-0.5,0.8-1.2,1.8-1.2
			c1.2,0,2,0.8,2,2.4V67.3z"/>
		<path d="M190.2,67.3h-1.3v-3.6c0-1-0.4-1.5-1.1-1.5c-0.8,0-1.3,0.6-1.3,1.5v3.5h-1.3v-6h1.3l-0.1,1h0c0.3-0.5,0.8-1.2,1.8-1.2
			c1.2,0,2,0.8,2,2.4V67.3z"/>
		<path d="M192.7,64.6c0.1,1.1,0.7,1.8,1.6,1.8c0.8,0,1.2-0.5,1.4-1.2l1.2,0.7c-0.4,0.8-1.3,1.6-2.5,1.6c-1.7,0-2.8-1.2-2.8-3.2
			c0-1.9,1.2-3.2,2.8-3.2c1.6,0,2.6,1.2,2.6,2.8c0,0.4-0.1,0.7-0.1,0.7H192.7z M192.7,63.7h2.9c0-0.8-0.5-1.5-1.3-1.5
			C193.4,62.1,192.9,62.8,192.7,63.7z"/>
		<path d="M201.3,66.9c-0.2,0.2-0.7,0.6-1.4,0.6c-0.9,0-1.6-0.4-1.6-1.7v-3.4h-1v-1.1h1V60l1.3-0.8v2.1h1.2v1.1h-1.2v3.3
			c0,0.5,0.2,0.7,0.5,0.7c0.3,0,0.5-0.3,0.6-0.5L201.3,66.9z M205.4,66.9c-0.2,0.2-0.7,0.6-1.4,0.6c-0.9,0-1.6-0.4-1.6-1.7v-3.4h-1
			v-1.1h1V60l1.3-0.8v2.1h1.5v1.1h-1.5v3.3c0,0.5,0.2,0.7,0.5,0.7c0.3,0,0.5-0.3,0.6-0.5L205.4,66.9z"/>
		<path d="M207.2,63.6l-1.2-0.7c0.4-1,1.4-1.8,2.7-1.8c1.3,0,2.4,0.7,2.4,2.2v2.6c0,0.7,0,1,0.1,1.4h-1c-0.2-0.3-0.3-0.5-0.3-0.8h0
			c-0.3,0.4-0.8,0.9-1.8,0.9c-1.1,0-1.9-0.6-1.9-1.8c0-1.3,1.2-1.7,2.3-1.9c0.9-0.2,1.4-0.3,1.4-0.8c0-0.5-0.5-0.9-1.1-0.9
			C207.9,62.2,207.4,62.8,207.2,63.6z M208.4,59.6c0,0.5-0.3,0.8-0.8,0.8c-0.5,0-0.8-0.3-0.8-0.8c0-0.5,0.3-0.8,0.8-0.8
			C208,58.8,208.4,59.2,208.4,59.6z M209.9,64.2c-0.2,0.3-0.6,0.4-1.1,0.5c-0.6,0.1-1.3,0.3-1.3,0.9c0,0.5,0.3,0.8,0.9,0.8
			c0.7,0,1.4-0.5,1.4-1.4V64.2z M210.6,59.6c0,0.5-0.3,0.8-0.8,0.8c-0.5,0-0.8-0.3-0.8-0.8c0-0.5,0.3-0.8,0.8-0.8
			C210.3,58.8,210.6,59.2,210.6,59.6z"/>
		<path d="M211.8,61.3h1.4l0.9,2.9c0.2,0.8,0.5,1.8,0.5,1.8h0c0,0,0.3-1,0.5-1.8l0.9-2.9h1.4l-2.1,6h-1.5L211.8,61.3z"/>
		<path d="M219.1,63.6l-1.2-0.7c0.4-1,1.4-1.8,2.7-1.8c1.3,0,2.4,0.7,2.4,2.2v2.6c0,0.7,0,1,0.1,1.4h-1c-0.2-0.3-0.3-0.5-0.3-0.8h0
			c-0.3,0.4-0.8,0.9-1.8,0.9c-1.1,0-1.9-0.6-1.9-1.8c0-1.3,1.2-1.7,2.3-1.9c0.9-0.2,1.4-0.3,1.4-0.8c0-0.5-0.5-0.9-1.1-0.9
			C219.7,62.2,219.2,62.8,219.1,63.6z M220.2,59.6c0,0.5-0.3,0.8-0.8,0.8c-0.5,0-0.8-0.3-0.8-0.8c0-0.5,0.3-0.8,0.8-0.8
			C219.9,58.8,220.2,59.2,220.2,59.6z M221.7,64.2c-0.2,0.3-0.6,0.4-1.1,0.5c-0.6,0.1-1.3,0.3-1.3,0.9c0,0.5,0.3,0.8,0.9,0.8
			c0.7,0,1.4-0.5,1.4-1.4V64.2z M222.5,59.6c0,0.5-0.3,0.8-0.8,0.8c-0.5,0-0.8-0.3-0.8-0.8c0-0.5,0.3-0.8,0.8-0.8
			C222.1,58.8,222.5,59.2,222.5,59.6z"/>
		<path d="M225.3,63.6l-1.2-0.7c0.4-1,1.4-1.8,2.7-1.8c1.3,0,2.4,0.7,2.4,2.2v2.6c0,0.7,0,1,0.1,1.4h-1c-0.2-0.3-0.3-0.5-0.3-0.8h0
			c-0.3,0.4-0.8,0.9-1.8,0.9c-1.1,0-1.9-0.6-1.9-1.8c0-1.3,1.2-1.7,2.3-1.9c0.9-0.2,1.4-0.3,1.4-0.8c0-0.5-0.5-0.9-1.1-0.9
			C226,62.2,225.5,62.8,225.3,63.6z M226.5,59.6c0,0.5-0.3,0.8-0.8,0.8c-0.5,0-0.8-0.3-0.8-0.8c0-0.5,0.3-0.8,0.8-0.8
			C226.1,58.8,226.5,59.2,226.5,59.6z M228,64.2c-0.2,0.3-0.6,0.4-1.1,0.5c-0.6,0.1-1.3,0.3-1.3,0.9c0,0.5,0.3,0.8,0.9,0.8
			c0.7,0,1.4-0.5,1.4-1.4V64.2z M228.7,59.6c0,0.5-0.3,0.8-0.8,0.8c-0.5,0-0.8-0.3-0.8-0.8c0-0.5,0.3-0.8,0.8-0.8
			C228.4,58.8,228.7,59.2,228.7,59.6z"/>
	</g>
	<g>
		<path d="M436.1,59h6.5v1.2H440v7.1h-1.4v-7.1h-2.5V59z"/>
		<path d="M443.4,63.6l-1.2-0.7c0.4-1,1.4-1.8,2.7-1.8c1.3,0,2.4,0.7,2.4,2.2v2.6c0,0.7,0,1,0.1,1.4h-1c-0.2-0.3-0.3-0.5-0.3-0.8h0
			c-0.3,0.4-0.8,0.9-1.8,0.9c-1.1,0-1.9-0.6-1.9-1.8c0-1.3,1.2-1.7,2.3-1.9c0.9-0.2,1.4-0.3,1.4-0.8c0-0.5-0.5-0.9-1.1-0.9
			C444.1,62.2,443.6,62.8,443.4,63.6z M446.1,64.2c-0.2,0.3-0.6,0.4-1.1,0.5c-0.6,0.1-1.3,0.3-1.3,0.9c0,0.5,0.3,0.8,0.9,0.8
			c0.7,0,1.4-0.5,1.4-1.4V64.2z"/>
		<path d="M448,61.3h1.4l0.9,2.9c0.2,0.8,0.5,1.8,0.5,1.8h0c0,0,0.3-1,0.5-1.8l0.9-2.9h1.4l-2.1,6h-1.5L448,61.3z"/>
		<path d="M454,64.3c0-1.9,1.2-3.2,2.8-3.2s2.8,1.3,2.8,3.2c0,1.9-1.2,3.2-2.8,3.2S454,66.2,454,64.3z M456.8,66.4
			c1,0,1.5-0.9,1.5-2.1s-0.5-2.1-1.5-2.1c-1,0-1.5,0.9-1.5,2.1S455.8,66.4,456.8,66.4z"/>
		<path d="M462.4,59.6c0,0.5-0.4,0.8-0.8,0.8c-0.5,0-0.8-0.3-0.8-0.8c0-0.5,0.4-0.8,0.8-0.8C462,58.8,462.4,59.1,462.4,59.6z
			 M460.9,61.3h1.3v6h-1.3V61.3z"/>
		<path d="M467.1,66.9c-0.2,0.2-0.7,0.6-1.4,0.6c-0.9,0-1.6-0.4-1.6-1.7v-3.4h-1v-1.1h1V60l1.3-0.8v2.1h1.5v1.1h-1.5v3.3
			c0,0.5,0.2,0.7,0.5,0.7c0.3,0,0.5-0.3,0.6-0.5L467.1,66.9z"/>
		<path d="M468.9,64.6c0.1,1.1,0.7,1.8,1.6,1.8c0.8,0,1.2-0.5,1.4-1.2l1.2,0.7c-0.4,0.8-1.3,1.6-2.5,1.6c-1.7,0-2.8-1.2-2.8-3.2
			c0-1.9,1.2-3.2,2.8-3.2c1.6,0,2.6,1.2,2.6,2.8c0,0.4-0.1,0.7-0.1,0.7H468.9z M469,63.7h2.9c0-0.8-0.5-1.5-1.3-1.5
			C469.6,62.1,469.1,62.8,469,63.7z"/>
	</g>
	<g>
		<g class="st6">
			<path d="M278.3,63.7l2.3,3.7h-1.5l-1.7-2.7l-1,1.2v1.5h-1.3v-8.7h1.3v4.2c0,0.7-0.1,1.5-0.1,1.5h0c0,0,0.4-0.7,0.8-1.1l1.6-1.9
				h1.6L278.3,63.7z"/>
			<path d="M284.7,66.9c-0.2,0.2-0.7,0.6-1.4,0.6c-0.9,0-1.6-0.4-1.6-1.7v-3.4h-1v-1.1h1V60l1.3-0.8v2.1h1.5v1.1H283v3.3
				c0,0.5,0.2,0.7,0.5,0.7c0.3,0,0.5-0.3,0.6-0.5L284.7,66.9z"/>
			<path d="M288,63.1c0-2.7,1.7-4.3,3.7-4.3c1.8,0,3.1,1.3,3.4,2.7l-1.3,0.8c-0.1-1.2-0.7-2.3-2.1-2.3c-1.5,0-2.3,1.3-2.3,3
				s0.8,3.1,2.3,3.1c1.3,0,2-1.1,2.1-2.3l1.3,0.8c-0.2,1.3-1.5,2.7-3.4,2.7C289.7,67.5,288,65.8,288,63.1z"/>
			<path d="M295.9,63.1c0-2.7,1.7-4.3,3.8-4.3c2.1,0,3.8,1.6,3.8,4.3s-1.7,4.3-3.8,4.3C297.6,67.5,295.9,65.8,295.9,63.1z
				 M299.7,60.1c-1.6,0-2.4,1.3-2.4,3s0.8,3.1,2.4,3.1c1.6,0,2.4-1.4,2.4-3.1S301.3,60.1,299.7,60.1z"/>
			<path d="M304.5,65.5c0,0-0.1-0.2-0.1-0.5c0-1,0.8-1.6,1.8-1.6c1,0,1.8,0.6,1.8,1.6c0,1.5-1.9,2.2-2.1,2.7v0h2.1v0.9h-3.5
				c0,0,0-0.1,0-0.3c0-1.5,2.4-2.1,2.4-3.3c0-0.4-0.3-0.7-0.7-0.7c-0.5,0-0.8,0.4-0.8,0.9c0,0.3,0.1,0.6,0.1,0.8L304.5,65.5z"/>
			<path d="M310,64.6c0.1,1.1,0.7,1.8,1.6,1.8c0.8,0,1.2-0.5,1.4-1.2l1.2,0.7c-0.4,0.8-1.3,1.6-2.5,1.6c-1.7,0-2.8-1.2-2.8-3.2
				c0-1.9,1.2-3.2,2.8-3.2c1.6,0,2.6,1.2,2.6,2.8c0,0.4-0.1,0.7-0.1,0.7H310z M310.1,63.7h2.9c0-0.8-0.5-1.5-1.3-1.5
				C310.8,62.1,310.2,62.8,310.1,63.7z"/>
		</g>
	</g>
	<g class="st6">
		<path class="st7" d="M73.7,66.3l2.1-1.2c0.1,0.8,0.6,1.5,1.6,1.5c1.4,0,1.8-1.2,1.9-3.2l0,0c-0.5,0.8-1.4,1.2-2.4,1.2
			c-1.7,0-3.4-1.3-3.4-3.6c0-2.3,1.7-3.8,4-3.8c2.6,0,4.1,1.7,4.1,5.2c0,3.8-1.1,6.3-4.1,6.3C75.5,68.5,74.3,67.7,73.7,66.3z
			 M77.3,62.8c1.1,0,1.8-0.8,1.8-1.9c0-1.2-0.7-2-1.8-2c-1.1,0-1.8,0.8-1.8,2C75.6,62,76.2,62.8,77.3,62.8z"/>
		<path class="st7" d="M82.4,65.9l2.2-1.2c0.1,1,0.7,1.8,1.8,1.8s1.7-0.9,1.7-2.1s-0.6-2-1.6-2c-0.9,0-1.4,0.6-1.6,1.3l-2-0.9
			l0.7-5.6h6.1v2h-4.3l-0.1,1.1c-0.1,0.7-0.2,1.3-0.2,1.3h0c0.4-0.5,1.1-0.9,2.1-0.9c1.8,0,3.3,1.4,3.3,3.7c0,2.4-1.6,4-3.9,4
			C84.3,68.5,82.9,67.3,82.4,65.9z"/>
		<path class="st7" d="M91.2,65.9l2.2-1.2c0.1,1,0.7,1.8,1.8,1.8s1.7-0.9,1.7-2.1s-0.6-2-1.6-2c-0.9,0-1.4,0.6-1.6,1.3l-2-0.9
			l0.7-5.6h6.1v2h-4.3L94,60.3c-0.1,0.7-0.2,1.3-0.2,1.3h0c0.4-0.5,1.1-0.9,2.1-0.9c1.8,0,3.3,1.4,3.3,3.7c0,2.4-1.6,4-3.9,4
			C93.1,68.5,91.7,67.3,91.2,65.9z"/>
	</g>
	<g class="st6">
		<path d="M236.3,60c-0.4,0.5-1.2,1-1.8,1.1l-0.9-2c1.3-0.3,2.6-1,3.3-1.9h1.7v11.1h-2.3v-6.6C236.3,60.9,236.3,60,236.3,60
			L236.3,60z"/>
		<path d="M243.7,65.2c0-1.8,1.4-2.5,2.2-2.8v0c-0.8-0.3-1.8-1-1.8-2.4c0-1.8,1.6-2.9,3.7-2.9c2.1,0,3.7,1.2,3.7,2.9
			c0,1.4-1,2.1-1.8,2.4v0c0.8,0.3,2.2,1.1,2.2,2.8c0,2-1.8,3.3-4.1,3.3C245.5,68.5,243.7,67.3,243.7,65.2z M247.9,66.7
			c1,0,1.9-0.6,1.9-1.6s-0.9-1.6-1.9-1.6c-1,0-1.9,0.6-1.9,1.6S246.8,66.7,247.9,66.7z M247.9,61.6c0.9,0,1.6-0.5,1.6-1.3
			s-0.7-1.3-1.6-1.3c-0.9,0-1.7,0.5-1.7,1.3S246.9,61.6,247.9,61.6z"/>
		<path d="M252.9,65.9l2.2-1.2c0.1,1,0.7,1.8,1.8,1.8s1.7-0.9,1.7-2.1s-0.6-2-1.6-2c-0.9,0-1.4,0.6-1.6,1.3l-2-0.9l0.7-5.6h6.1v2
			h-4.3l-0.1,1.1c-0.1,0.7-0.2,1.3-0.2,1.3h0c0.4-0.5,1.1-0.9,2.1-0.9c1.8,0,3.3,1.4,3.3,3.7c0,2.4-1.6,4-3.9,4
			C254.8,68.5,253.4,67.3,252.9,65.9z"/>
		<path d="M269.2,58.7c-1.6,3.2-2.6,6.3-3,9.7h-2.6c0.4-3.3,1.8-6.7,3.1-9h-3.2v2.5l-2.1-1.1v-3.5h7.9V58.7z"/>
	</g>
</g>
</svg>
