<svg id="Layer_1" data-name="Layer 1" xmlns="http://www.w3.org/2000/svg" viewBox="0 0 512 512"><title>chart-line</title><path d="M129.15,356.25a9.55,9.55,0,1,1-9.55,9.54A9.33,9.33,0,0,1,129.15,356.25ZM315.3,279.88a9.55,9.55,0,1,1-9.55,9.54A9.33,9.33,0,0,1,315.3,279.88ZM219.83,222.6a9.55,9.55,0,1,1-9.54,9.55A9.33,9.33,0,0,1,219.83,222.6ZM406,146.23a9.55,9.55,0,1,1-9.54,9.55A9.34,9.34,0,0,1,406,146.23Zm0-28.64a38.4,38.4,0,0,0-38.18,38.19,37.2,37.2,0,0,0,5.82,19.84l-53.25,75.92a37,37,0,0,0-5.07-.3,37.62,37.62,0,0,0-24.46,8.95L257.13,240.5a37.75,37.75,0,0,0,.89-8.35,38.19,38.19,0,1,0-76.37,0A37.14,37.14,0,0,0,187.47,252L134.22,327.9a38.21,38.21,0,1,0,33.11,37.89,38.23,38.23,0,0,0-8.05-23.42L210.59,269a37.37,37.37,0,0,0,9.25,1.34,38,38,0,0,0,20.88-6.26l36.54,21.33a35.66,35.66,0,0,0-.15,4A38.19,38.19,0,1,0,345.43,266l51.31-73.38A37.37,37.37,0,0,0,406,194a38.39,38.39,0,0,0,38.18-38.18c.3-24.09-19.09-38.45-38.18-38.19Zm-348.43-62A14.32,14.32,0,0,0,43.23,69.86V451.71A14.33,14.33,0,0,0,57.55,466H458.49a14.32,14.32,0,0,0,0-28.64H71.87V69.86A14.32,14.32,0,0,0,57.55,55.55Z"/></svg>