<svg id="Layer_1" data-name="Layer 1" xmlns="http://www.w3.org/2000/svg" viewBox="0 0 512 512"><title>chart-pie</title><path d="M384.15,233.05H306.88L423.74,116.19a189.74,189.74,0,0,1,30.92,46.18Zm88.49,0H410.55l51.93-51.83h0a192.12,192.12,0,0,1,10.18,51.83Zm-179-90.56L364.27,71.8a189.36,189.36,0,0,1,46.17,30.91L293.59,219.76Zm0-88.49a191.76,191.76,0,0,1,51.83,10l-51.83,52.11Zm-9.42-18.86a9.43,9.43,0,0,0-9.43,9.42V242.47a9.57,9.57,0,0,0,.76,3.58,9.4,9.4,0,0,0,5.09,5.09,9.57,9.57,0,0,0,3.58.76H482.08a9.44,9.44,0,0,0,9.42-9.43A207.35,207.35,0,0,0,284.17,35.14ZM237.05,91.69V280.17a9.39,9.39,0,0,0,9.42,9.42H435a188.48,188.48,0,1,1-197.9-197.9Zm9.41,395.81A207.36,207.36,0,0,0,453.81,280.17a9.47,9.47,0,0,0-9.44-9.43H255.9V82.27a9.47,9.47,0,0,0-9.43-9.44,207.34,207.34,0,0,0,0,414.67Z"/></svg>