<svg xmlns="http://www.w3.org/2000/svg" viewBox="0 0 512 512"><path d="M286.69,166.16A30.69,30.69,0,1,1,256,135.48a30.67,30.67,0,0,1,30.69,30.68"/><path d="M281.53,250.22V351.36a25.53,25.53,0,1,1-51.06,0V250.22a25.53,25.53,0,1,1,51.06,0Z"/><path d="M384.44,384.44a181.64,181.64,0,1,1,54.3-128.77A181.65,181.65,0,0,1,384.44,384.44ZM256,35.08C134,35.08,35.08,134,35.08,256S134,476.92,256,476.92,476.92,378,476.92,256,378,35.08,256,35.08Z"/><path d="M384.44,384.44a181.64,181.64,0,1,1,54.3-128.77A181.65,181.65,0,0,1,384.44,384.44ZM256,35.08C134,35.08,35.08,134,35.08,256S134,476.92,256,476.92,476.92,378,476.92,256,378,35.08,256,35.08Z"/></svg>