<svg xmlns="http://www.w3.org/2000/svg" viewBox="0 0 425 77"><path d="M415.607 29.363c-1.91 0-3.409.907-3.409 2.59 0 1.682 1.499 2.573 3.409 2.573 1.911 0 3.393-.908 3.393-2.574s-1.499-2.59-3.393-2.59Zm3.129 9.254c0-1.254-.971-2.277-3.079-2.277-2.109 0-3.097 1.023-3.097 2.277v13.51c0 1.253.972 2.26 3.097 2.26 2.124 0 3.079-1.007 3.079-2.26v-13.51Zm-30.157 6.103c6.901.28 9.635 4.536 9.52 6.598-.115 2.062.988 3.135 3.096 3.135 2.422 0 3.08-1.155 3.08-2.293 0-2.656-1.235-7.341-8.531-9.122 3.491-.693 6.785-2.755 6.785-4.85 0-1.007-1.037-1.65-2.783-1.65a3.846 3.846 0 0 0-2.981 1.37 10.772 10.772 0 0 1-8.236 3.513v-9.683c0-1.254-.971-2.276-3.08-2.276-2.108 0-3.096 1.022-3.096 2.276v20.389c0 1.253.988 2.26 3.096 2.26 2.109 0 3.08-1.007 3.08-2.26l.05-7.407Zm-24.591 9.568c5.814 0 10.146-1.782 10.146-6.005 0-7.373-16.207-4.685-16.207-7.093 0-.825 1.285-.874 2.207-.874h9.01c1.647 0 2.981-.594 2.981-1.88 0-1.288-1.351-1.881-2.981-1.881h-8.647c-5.666 0-8.746 1.435-8.746 4.602 0 7.308 16.207 3.497 16.207 7.093 0 1.88-1.96 2.26-4.431 2.26h-9.256c-1.647 0-3.047.594-3.047 1.897s1.35 1.88 3.047 1.88h9.717Zm-25.957-8.875c0 2.804-1.96 5.312-6.177 5.312-4.216 0-6.176-2.508-6.176-5.312 0-2.804 1.96-5.295 6.176-5.295 4.217 0 6.177 2.507 6.177 5.295Zm6.473 0c0-5.097-4.629-9.073-12.65-9.073s-12.649 3.976-12.649 9.073 4.661 9.023 12.682 9.023 12.732-3.926 12.732-9.023h-.115Zm-46.744-.693c6.885.28 9.619 4.536 9.52 6.598-.099 2.062.972 3.135 3.08 3.135 2.421 0 3.08-1.155 3.08-2.293 0-2.656-1.235-7.341-8.532-9.122 3.492-.693 6.786-2.755 6.786-4.85 0-1.007-1.021-1.65-2.783-1.65a3.854 3.854 0 0 0-2.982 1.37 10.71 10.71 0 0 1-8.235 3.513v-9.683c0-1.254-.988-2.276-3.096-2.276-2.109 0-3.08 1.022-3.08 2.276v20.389c0 1.253.971 2.26 3.08 2.26 2.108 0 3.096-1.007 3.096-2.26l.066-7.407Zm-23.306 3.3c0 1.979-2.998 3.166-5.88 3.166-2.882 0-4.727-.94-4.727-2.358 0-1.42 3.442-3.052 10.607-3.052v2.243Zm5.864-5.477c0-4.306-3.196-5.939-8.647-5.939h-9.01c-1.647 0-3.03.594-3.03 1.88 0 1.287 1.334 1.881 3.03 1.881h9.421c1.384 0 2.059.495 2.059 2.277h-2.157c-6.029 0-14.313 1.369-14.313 6.383 0 3.3 3.804 5.526 9.009 5.526 3.541 0 6.325-.643 7.972-2.029.148 1.32.922 2.03 2.619 2.03 2.273 0 3.047-.875 3.047-2.31v-9.7Zm-47.452.725a6.007 6.007 0 0 1 5.715-3.3 5.874 5.874 0 0 1 5.666 3.3h-11.381Zm14.576 11.02c1.647 0 2.982-.594 2.982-1.88 0-1.288-1.335-1.898-2.982-1.898h-6.588c-4.332 0-7.988-.874-8.4-4.14H248.2c2.174 0 2.52-.875 2.52-2.062 0-4.091-3.541-7.968-12.139-7.968-7.873 0-12.913 4.091-12.913 9.32 0 5.23 5.139 8.628 14.313 8.628h7.461ZM203.96 44.72c6.901.28 9.619 4.536 9.52 6.598-.099 2.062 1.021 3.118 3.047 3.118 2.421 0 3.097-1.155 3.097-2.293 0-2.656-1.236-7.34-8.549-9.122 3.509-.693 6.803-2.755 6.803-4.85 0-1.006-1.038-1.65-2.784-1.65a3.82 3.82 0 0 0-2.981 1.37 10.807 10.807 0 0 1-8.235 3.513v-9.666c0-1.254-.972-2.276-3.08-2.276-2.109 0-3.097 1.022-3.097 2.276v20.389c0 1.253.972 2.26 3.097 2.26 2.124 0 3.08-1.007 3.08-2.26l.082-7.407Zm-17.08-12.982c0-1.254-.988-2.276-3.096-2.276-2.109 0-3.08 1.022-3.08 2.276v20.389c0 1.253.971 2.26 3.08 2.26 2.108 0 3.096-1.007 3.096-2.26v-20.39ZM162.751 47.97c0 1.98-2.982 3.167-5.864 3.167-2.882 0-4.743-.94-4.743-2.359s3.458-3.052 10.607-3.052v2.244Zm5.863-5.477c0-4.305-3.195-5.938-8.647-5.938h-9.042c-1.647 0-3.031.593-3.031 1.88s1.334 1.88 3.031 1.88h9.421c1.383 0 2.059.495 2.059 2.277h-2.158c-6.028 0-14.313 1.37-14.313 6.384 0 3.3 3.821 5.526 9.01 5.526 3.557 0 6.324-.643 7.971-2.029.165 1.32.923 2.029 2.636 2.029 2.256 0 3.03-.874 3.03-2.31l.033-9.699Zm-41.621 7.143a30.456 30.456 0 0 1-7.099-15.985c-.313-2.128-.527-3.48-3.755-3.48-1.812 0-3.294.693-3.294 2.507 0 4.784 4.216 14.005 7.873 18.146 1.746 1.979 2.981 3.629 6.226 3.629 3.244 0 4.463-1.65 6.225-3.63 3.64-4.19 7.873-13.41 7.873-18.145 0-1.814-1.449-2.507-3.294-2.507-3.294 0-3.459 1.352-3.755 3.48a30.588 30.588 0 0 1-7.099 15.985" fill="#1D1D1B"/><path d="M66.793 47.03a8.67 8.67 0 0 0 .28 2.655c.428.973.692 1.88.972 2.722.592 2.264.665 4.632.214 6.928a24.884 24.884 0 0 1-2.438 6.648 18.278 18.278 0 0 1-5.962 5.675 20.84 20.84 0 0 1-9.883 2.16c-3.903 0-7.032-.89-12.847-3.299-5.814-2.408-8.96-5.823-11.743-7.67-2.784-1.848-10.377-7.654-11.842-8.825a37.398 37.398 0 0 1-5.386-5.048c-2.982-3.662-1.96-5.163-1.96-5.163s-.857-1.65 2.487-4.949a38.27 38.27 0 0 1 5.88-4.47c1.647-.99 9.75-5.972 12.699-7.522 2.948-1.551 6.456-4.553 12.484-6.4 6.029-1.848 9.257-2.459 13.177-1.98a20.7 20.7 0 0 1 9.635 3.183 18.138 18.138 0 0 1 5.337 6.269 25.091 25.091 0 0 1 1.729 6.928 14.87 14.87 0 0 1-.939 6.862c-.478.94-.675 1.518-1.252 2.607a9.351 9.351 0 0 0-.56 2.622" fill="#A42523"/><mask id="valkeakoski-logo__a" style="mask-type:alpha" maskUnits="userSpaceOnUse" x="6" y="18" width="64" height="56"><path d="M66.793 47.03a8.67 8.67 0 0 0 .28 2.655c.428.973.692 1.88.972 2.722.592 2.264.665 4.632.214 6.928a24.885 24.885 0 0 1-2.438 6.648 18.277 18.277 0 0 1-5.962 5.675 20.842 20.842 0 0 1-9.883 2.16c-3.903 0-7.032-.89-12.847-3.299-5.814-2.408-8.96-5.823-11.743-7.67-2.784-1.848-10.377-7.654-11.842-8.825a37.398 37.398 0 0 1-5.386-5.048c-2.982-3.662-1.96-5.163-1.96-5.163s-.857-1.65 2.487-4.949a38.27 38.27 0 0 1 5.88-4.47c1.647-.99 9.75-5.972 12.699-7.522 2.948-1.551 6.456-4.553 12.484-6.4 6.029-1.848 9.257-2.459 13.177-1.98a20.698 20.698 0 0 1 9.635 3.183 18.138 18.138 0 0 1 5.337 6.269 25.091 25.091 0 0 1 1.729 6.928 14.87 14.87 0 0 1-.939 6.862c-.478.94-.675 1.518-1.252 2.607a9.353 9.353 0 0 0-.56 2.623" fill="#A42523"/></mask><g style="mix-blend-mode:multiply" mask="url(#valkeakoski-logo__a)" fill="#A42523"><path d="M55.412 31.886a2.378 2.378 0 0 0-2.343-2.829 2.369 2.369 0 0 0-2.184 1.484 2.38 2.38 0 0 0 .538 2.587 2.371 2.371 0 0 0 3.989-1.242m-7.445 4.784a2.081 2.081 0 0 0-.896-2.126 2.073 2.073 0 0 0-3.063.95 2.081 2.081 0 0 0 1.521 2.826 2.07 2.07 0 0 0 2.132-.896 2.08 2.08 0 0 0 .306-.754Z" style="mix-blend-mode:multiply"/><path d="M51.755 34.229a2.263 2.263 0 0 0-.978-2.309 2.254 2.254 0 0 0-3.328 1.035 2.263 2.263 0 0 0 1.655 3.072 2.27 2.27 0 0 0 2.651-1.798m-7.543 4.849a1.932 1.932 0 0 0-1.893-2.307 1.925 1.925 0 0 0-1.78 1.197 1.933 1.933 0 0 0 1.416 2.628 1.925 1.925 0 0 0 2.257-1.517m-3.805 2.391a1.651 1.651 0 0 0-1.659-1.881 1.645 1.645 0 0 0-1.488 1.006 1.652 1.652 0 0 0 1.121 2.245 1.644 1.644 0 0 0 1.792-.727 1.64 1.64 0 0 0 .234-.643Zm-3.788 2.376a1.57 1.57 0 0 0-1.257-1.719 1.563 1.563 0 0 0-1.807 1.125 1.569 1.569 0 0 0 1.257 1.719 1.563 1.563 0 0 0 1.807-1.125m-3.821 2.424a1.356 1.356 0 0 0-1.055-1.649 1.333 1.333 0 0 0-1.42 1.074 1.338 1.338 0 0 0 .91 1.532 1.334 1.334 0 0 0 1.647-1.039m-3.887 2.442a1.123 1.123 0 0 0-1.107-1.332 1.118 1.118 0 0 0-1.091 1.344 1.122 1.122 0 0 0 1.724.708 1.12 1.12 0 0 0 .474-.72Zm-3.723 2.507a.941.941 0 0 0-.923-1.12.938.938 0 0 0-.918 1.125.941.941 0 0 0 1.105.737.938.938 0 0 0 .737-.742Zm-3.969 2.26a.594.594 0 0 0-.92-.594.594.594 0 0 0 .228 1.072.61.61 0 0 0 .692-.478m-3.986 2.359a.231.231 0 0 0-.18-.264.212.212 0 0 0-.23.085.215.215 0 0 0-.034.08.231.231 0 0 0 .18.28.246.246 0 0 0 .264-.181m17.739-6.912a1.367 1.367 0 1 0-1.883 1.911 1.366 1.366 0 0 0 1.52-.014 1.351 1.351 0 0 0 .363-1.897m7.511-5.064a1.648 1.648 0 0 0-2.515-.192 1.65 1.65 0 0 0 1.144 2.803 1.646 1.646 0 0 0 1.642-2 1.651 1.651 0 0 0-.271-.611m3.705-2.54a1.878 1.878 0 0 0-2.602-.495 1.864 1.864 0 0 0 1.782 3.25 1.862 1.862 0 0 0 1.137-1.724 1.866 1.866 0 0 0-.316-1.032" style="mix-blend-mode:multiply"/><path d="M53.748 36.29a2.191 2.191 0 0 0-3.37-.313 2.196 2.196 0 0 0 1.562 3.738 2.183 2.183 0 0 0 1.215-.373 2.211 2.211 0 0 0 .593-3.051" style="mix-blend-mode:multiply"/><path d="M57.47 33.717a2.323 2.323 0 0 0-2.388-.923 2.322 2.322 0 0 0-1.785 1.838 2.33 2.33 0 0 0 .988 2.366 2.32 2.32 0 0 0 2.56.019 2.338 2.338 0 0 0 .997-2.448 2.343 2.343 0 0 0-.371-.852" style="mix-blend-mode:multiply"/><path d="M61.078 31.342a2.405 2.405 0 0 0-4.227 2.257 2.408 2.408 0 0 0 2.248 1.47 2.402 2.402 0 0 0 2.327-1.947 2.412 2.412 0 0 0-.348-1.78M31.25 51.4a1.108 1.108 0 1 0-1.52 1.557 1.106 1.106 0 0 0 1.69-1.158 1.11 1.11 0 0 0-.17-.398m-3.805 2.639a.873.873 0 0 0-1.186-.23.858.858 0 0 0 .955 1.418.875.875 0 0 0 .23-1.188m-3.87 2.59a.512.512 0 0 0-.787-.069.512.512 0 1 0 .787.069m15.219-10.293a1.466 1.466 0 0 0-2.564 1.393 1.467 1.467 0 0 0 2.169.652 1.468 1.468 0 0 0 .395-2.045Zm11.332-7.589a2.067 2.067 0 0 0-2.123-.872 2.063 2.063 0 0 0-1.617 1.63 2.071 2.071 0 0 0 1.63 2.427 2.06 2.06 0 0 0 2.117-.887 2.069 2.069 0 0 0-.007-2.297m-8.977 11.217a1.433 1.433 0 0 0-2.367.01 1.405 1.405 0 0 0 .94 2.166 1.436 1.436 0 0 0 1.665-1.167 1.442 1.442 0 0 0-.238-1.075m-3.788 2.623a1.202 1.202 0 1 0-1.846 1.528 1.203 1.203 0 0 0 1.846-1.529m-3.772 2.59a.956.956 0 1 0-1.581 1.074.956.956 0 0 0 1.581-1.074m-3.821 2.623a.709.709 0 0 0-.988-.198.726.726 0 0 0-.181.99.708.708 0 0 0 1.17-.792m15.086-10.293a1.65 1.65 0 0 0-1.765-.972 1.646 1.646 0 0 0-1.384 1.465 1.653 1.653 0 0 0 .464 1.321 1.649 1.649 0 0 0 2.432.71 1.647 1.647 0 0 0 .632-1.915 1.648 1.648 0 0 0-.379-.61ZM25.93 60.292a.412.412 0 0 0-.577-.116.411.411 0 0 0-.099.578.396.396 0 0 0 .56.099.396.396 0 0 0 .115-.561Zm22.712-15.407a1.811 1.811 0 0 0-2.997.018 1.783 1.783 0 0 0 .016 1.995 1.795 1.795 0 0 0 2.487.494 1.831 1.831 0 0 0 .494-2.507m7.461-5.031a2.14 2.14 0 0 0-2.948-.561 2.155 2.155 0 0 0 2.372 3.596 2.128 2.128 0 0 0 .576-2.953" style="mix-blend-mode:multiply"/><path d="M59.793 37.38a2.24 2.24 0 0 0-3.924 2.118 2.241 2.241 0 0 0 3.315 1 2.277 2.277 0 0 0 .609-3.119m-7.379 5.048a1.977 1.977 0 0 0-3.039-.29 1.98 1.98 0 0 0 1.398 3.377c.39 0 .773-.116 1.098-.332a1.996 1.996 0 0 0 .543-2.755" style="mix-blend-mode:multiply"/><path d="M63.499 34.872a2.339 2.339 0 0 0-4.081 2.234 2.34 2.34 0 0 0 2.144 1.446 2.336 2.336 0 0 0 2.312-1.894 2.346 2.346 0 0 0-.375-1.786" style="mix-blend-mode:multiply"/><path d="M67.122 32.414a2.405 2.405 0 0 0-3.713-.383 2.41 2.41 0 0 0 1.734 4.11 2.402 2.402 0 0 0 1.337-.428 2.392 2.392 0 0 0 .642-3.299" style="mix-blend-mode:multiply"/><path d="M69.56 35.977a2.406 2.406 0 0 0-2.474-1.044 2.403 2.403 0 0 0-1.898 1.903 2.412 2.412 0 0 0 1.045 2.477 2.402 2.402 0 0 0 3.676-1.555 2.411 2.411 0 0 0-.349-1.78m-4.81-7.193a2.456 2.456 0 0 0-2.524-1.03 2.453 2.453 0 0 0-1.917 1.942 2.461 2.461 0 0 0 1.056 2.517 2.451 2.451 0 0 0 3.763-1.585 2.462 2.462 0 0 0-.377-1.844" style="mix-blend-mode:multiply"/><path d="M65.887 38.468a2.34 2.34 0 0 0-3.589-.292 2.344 2.344 0 0 0 1.67 3.98 2.336 2.336 0 0 0 2.302-1.906 2.347 2.347 0 0 0-.383-1.782" style="mix-blend-mode:multiply"/><path d="M62.23 41.041a2.176 2.176 0 0 0-2.238-.913 2.174 2.174 0 0 0-1.698 1.724 2.18 2.18 0 0 0 .943 2.23 2.171 2.171 0 0 0 2.417-.022 2.16 2.16 0 0 0 .577-3.019m5.946 1.139a2.174 2.174 0 0 0-3.813 2.05 2.176 2.176 0 0 0 2.012 1.339c.43-.001.85-.13 1.208-.37a2.159 2.159 0 0 0 .923-2.236 2.163 2.163 0 0 0-.33-.783M56.384 24.001a2.487 2.487 0 0 0-4.436.955 2.494 2.494 0 0 0 1.912 2.957 2.486 2.486 0 0 0 2.97-2.012 2.492 2.492 0 0 0-.446-1.9" style="mix-blend-mode:multiply"/><path d="M59.99 21.445a2.553 2.553 0 0 0-3.93-.376 2.559 2.559 0 0 0 1.822 4.359 2.55 2.55 0 0 0 2.495-2.067 2.56 2.56 0 0 0-.386-1.916m-1.269 6.169a2.438 2.438 0 0 0-4.265 2.314 2.441 2.441 0 0 0 2.255 1.498 2.435 2.435 0 0 0 1.352-.414 2.458 2.458 0 0 0 .658-3.398Z" style="mix-blend-mode:multiply"/><path d="M62.412 25.09a2.554 2.554 0 0 0-2.625-1.067 2.55 2.55 0 0 0-1.992 2.017 2.56 2.56 0 0 0 1.093 2.617 2.55 2.55 0 0 0 3.919-1.641 2.56 2.56 0 0 0-.395-1.926m-8.515-4.652a2.489 2.489 0 0 0-2.557-1.058 2.486 2.486 0 0 0-1.952 1.963 2.495 2.495 0 0 0 1.067 2.556 2.484 2.484 0 0 0 2.766-.013 2.474 2.474 0 0 0 .676-3.448" style="mix-blend-mode:multiply"/><path d="M57.504 18.03a2.538 2.538 0 0 0-2.612-1.074 2.536 2.536 0 0 0-1.985 2.01 2.544 2.544 0 0 0 1.099 2.604 2.534 2.534 0 0 0 2.822-.026 2.525 2.525 0 0 0 .676-3.514m5.88 1.27a2.505 2.505 0 0 0-2.575-1.055 2.503 2.503 0 0 0-1.959 1.979 2.51 2.51 0 0 0 2.47 2.985 2.501 2.501 0 0 0 2.446-2.029 2.511 2.511 0 0 0-.382-1.88" style="mix-blend-mode:multiply"/><path d="M65.87 22.78a2.504 2.504 0 0 0-3.853-.362 2.51 2.51 0 0 0 1.79 4.272 2.502 2.502 0 0 0 1.388-.429 2.524 2.524 0 0 0 .676-3.48" style="mix-blend-mode:multiply"/><path d="M68.259 26.393a2.456 2.456 0 0 0-2.525-1.03 2.453 2.453 0 0 0-1.917 1.942 2.462 2.462 0 0 0 1.057 2.517 2.451 2.451 0 0 0 3.762-1.585 2.464 2.464 0 0 0-.377-1.844" style="mix-blend-mode:multiply"/><path d="M70.548 30.121a2.405 2.405 0 0 0-3.71-.398 2.41 2.41 0 0 0 1.713 4.118c.478-.004.944-.15 1.338-.42a2.393 2.393 0 0 0 .66-3.3" style="mix-blend-mode:multiply"/><path d="M73.068 33.668a2.405 2.405 0 0 0-4.227 2.257 2.408 2.408 0 0 0 2.248 1.47 2.402 2.402 0 0 0 2.328-1.947 2.411 2.411 0 0 0-.349-1.78M51.541 16.875a2.486 2.486 0 0 0-4.435.955 2.494 2.494 0 0 0 1.911 2.957 2.482 2.482 0 0 0 2.61-1.084 2.494 2.494 0 0 0-.086-2.828m19.765 23.177a2.19 2.19 0 0 0-3.03-.578 2.18 2.18 0 0 0-.585 3.027 2.179 2.179 0 0 0 2.239.916c.28-.058.546-.17.783-.33a2.21 2.21 0 0 0 .593-3.035" style="mix-blend-mode:multiply"/><path d="M72.541 38.501a2.175 2.175 0 0 0-2.234-.923 2.173 2.173 0 0 0-1.705 1.715 2.181 2.181 0 0 0 .93 2.234 2.172 2.172 0 0 0 2.416-.007 2.16 2.16 0 0 0 .593-3.019m-8.037 6.153a2.141 2.141 0 0 0-3.753 2.025 2.143 2.143 0 0 0 1.988 1.314 2.14 2.14 0 0 0 1.188-.37 2.125 2.125 0 0 0 .902-2.2 2.13 2.13 0 0 0-.325-.769m-6.012-1.171a2.076 2.076 0 0 0-3.634 1.967 2.078 2.078 0 0 0 1.923 1.274 2.073 2.073 0 0 0 2.028-1.682 2.079 2.079 0 0 0-.317-1.56m-3.756 2.525a1.927 1.927 0 0 0-3.381 1.813 1.929 1.929 0 0 0 1.784 1.188 1.925 1.925 0 0 0 1.885-1.556 1.931 1.931 0 0 0-.288-1.445Zm6.094 1.154a1.934 1.934 0 1 0-1.969 2.98 1.957 1.957 0 0 0 1.46-.29 1.93 1.93 0 0 0 .51-2.69m6.077 1.172a2.01 2.01 0 0 0-3.094-.298 2.014 2.014 0 0 0 1.435 3.43 2.008 2.008 0 0 0 1.116-.345 2.03 2.03 0 0 0 .543-2.787" style="mix-blend-mode:multiply"/><path d="M70.136 45.94a2.01 2.01 0 0 0-2.783-.527 1.997 1.997 0 0 0 .77 3.565 1.99 1.99 0 0 0 1.47-.266 2.013 2.013 0 0 0 .543-2.788M63.17 50.84a1.864 1.864 0 1 0-3.097 2.078 1.865 1.865 0 0 0 2.586.512 1.865 1.865 0 0 0 .79-1.918 1.869 1.869 0 0 0-.28-.672Zm6.011 1.155a1.861 1.861 0 0 0-3.263 1.755 1.863 1.863 0 0 0 1.72 1.149c.367 0 .727-.11 1.033-.315a1.88 1.88 0 0 0 .51-2.59m-18.2-3.431a1.647 1.647 0 0 0-2.854 1.597 1.648 1.648 0 1 0 2.854-1.596Zm6.111 1.155a1.78 1.78 0 0 0-3.13 1.66 1.78 1.78 0 0 0 1.646 1.1c.353 0 .697-.105.99-.302a1.764 1.764 0 0 0 .494-2.458m8.416 4.718a1.649 1.649 0 0 0-1.784-.754 1.646 1.646 0 0 0-.62.292 1.748 1.748 0 0 0-.094 3.015 1.744 1.744 0 0 0 2.037-.128 1.75 1.75 0 0 0 .461-2.425m-12.122-2.21a1.648 1.648 0 0 0-2.542-.267 1.652 1.652 0 0 0 1.181 2.818 1.645 1.645 0 0 0 1.598-1.33 1.652 1.652 0 0 0-.237-1.221m6.061 1.138a1.647 1.647 0 0 0-2.355-.462 1.693 1.693 0 0 0 1.894 2.804 1.649 1.649 0 0 0 .461-2.342Zm-9.833 1.418a1.437 1.437 0 1 0-2.355 1.65 1.438 1.438 0 0 0 2.001.355 1.438 1.438 0 0 0 .354-2.005m8.416 4.735a1.433 1.433 0 0 0-1.976-.396 1.451 1.451 0 0 0-.379 1.98 1.437 1.437 0 1 0 2.356-1.65m-2.323-3.646a1.549 1.549 0 1 0-2.134 2.16 1.546 1.546 0 0 0 1.723-.015 1.534 1.534 0 0 0 .411-2.145m6.062 1.237a1.648 1.648 0 1 0-2.306 2.232 1.644 1.644 0 0 0 1.86-.054 1.65 1.65 0 0 0 .429-2.178m6.16 1.122a1.647 1.647 0 0 0-2.273-.429 1.65 1.65 0 0 0-.428 2.26 1.647 1.647 0 0 0 2.256.446 1.65 1.65 0 0 0 .445-2.277m3.294-2.359a1.647 1.647 0 0 0-2.273-.429 1.65 1.65 0 0 0-.428 2.26 1.647 1.647 0 0 0 2.256.446 1.65 1.65 0 0 0 .445-2.277m-7.082 4.866a1.484 1.484 0 0 0-2.06-.395 1.468 1.468 0 1 0 2.057 2.02 1.47 1.47 0 0 0 .003-1.625m-16.85-9.534a1.535 1.535 0 0 0-1.609-.858 1.532 1.532 0 0 0-1.247 1.936 1.534 1.534 0 0 0 2.304.87 1.534 1.534 0 0 0 .552-1.948Zm-7.56 5.047a1.136 1.136 0 0 0-1.961 1.115 1.138 1.138 0 0 0 1.648.535 1.138 1.138 0 0 0 .313-1.65m3.789-2.54a1.318 1.318 0 0 0-1.829-.346 1.303 1.303 0 0 0-.362 1.83 1.322 1.322 0 1 0 2.19-1.484m2.389 3.646a1.268 1.268 0 0 0-2.23 1.187 1.27 1.27 0 0 0 1.884.561 1.25 1.25 0 0 0 .536-1.294 1.256 1.256 0 0 0-.19-.454m6.078 1.121a1.335 1.335 0 1 0-1.843 1.865 1.332 1.332 0 0 0 1.48 0 1.352 1.352 0 0 0 .362-1.865m8.401 4.801a1.285 1.285 0 0 0-2.26 1.204 1.286 1.286 0 0 0 1.914.56 1.269 1.269 0 0 0 .345-1.764Zm-6.078-1.155a1.236 1.236 0 1 0-1.721 1.688 1.233 1.233 0 0 0 1.88-.798 1.238 1.238 0 0 0-.16-.89Zm-6.144-1.023a1.17 1.17 0 1 0-1.605 1.648 1.17 1.17 0 0 0 1.605-1.648M35.91 58.741a.906.906 0 0 0-1.251-.247.889.889 0 0 0-.247 1.27.906.906 0 0 0 1.252.248.89.89 0 0 0 .247-1.27Zm2.356 3.629a.807.807 0 0 0-1.411.769.808.808 0 0 0 1.197.353.789.789 0 0 0 .342-.832.792.792 0 0 0-.128-.29m8.449 4.8a.808.808 0 0 0-1.103-.214.792.792 0 1 0 1.104 1.093.792.792 0 0 0 0-.878m-2.323-3.679a.909.909 0 0 0-.94-.388.914.914 0 0 0-.576 1.41.913.913 0 0 0 1.522-.004.91.91 0 0 0-.006-1.018m8.433 4.833a.905.905 0 0 0-1.235-.247.875.875 0 0 0-.149 1.204.858.858 0 0 0 1.22.231.872.872 0 0 0 .379-.903.875.875 0 0 0-.133-.318m-2.372-3.662a1.054 1.054 0 1 0-1.455 1.467 1.053 1.053 0 0 0 1.175-.015 1.072 1.072 0 0 0 .28-1.452m-8.449-4.8a1.054 1.054 0 1 0-1.647 1.188 1.037 1.037 0 0 0 1.45.28 1.055 1.055 0 0 0 .28-1.468m14.411 5.939a1.071 1.071 0 0 0-1.515-.297 1.094 1.094 0 0 0 1.219 1.814 1.071 1.071 0 0 0 .296-1.517m6.094 1.138a1.136 1.136 0 0 0-1.877 1.27 1.138 1.138 0 0 0 1.625.383 1.136 1.136 0 0 0 .462-1.237 1.14 1.14 0 0 0-.21-.416m-3.771 2.54a.956.956 0 1 0-.248 1.32.941.941 0 0 0 .248-1.32m7.51-5.113a1.301 1.301 0 0 0-1.812-.364 1.32 1.32 0 0 0 1.227 2.323 1.318 1.318 0 0 0 .585-1.96m-25.776 1.733a.676.676 0 1 0-1.12.758.676.676 0 1 0 1.12-.758Zm14.444 5.921a.692.692 0 1 0-.18.974.71.71 0 0 0 .18-.974ZM32.09 61.298a.593.593 0 0 0-.857-.165.618.618 0 0 0 .692 1.023.595.595 0 0 0 .165-.858m16.931 9.634a.628.628 0 1 0-1.037.71.642.642 0 0 0 .872.164.628.628 0 0 0 .165-.874ZM34.428 65.01a.51.51 0 0 0-.708-.132.512.512 0 0 0 .56.841.528.528 0 0 0 .148-.71m8.482 4.785a.51.51 0 0 0-.84.56.527.527 0 0 0 .709.149.512.512 0 0 0 .132-.71m-6.161-1.138a.362.362 0 0 0-.493-.082.35.35 0 1 0 .544.35.363.363 0 0 0-.05-.268m-8.466-4.734a.344.344 0 0 0-.494-.099.347.347 0 0 0-.1.478.346.346 0 0 0 .495.1.346.346 0 0 0 .099-.479M12.555 48.3a.36.36 0 0 0-.51-.1.369.369 0 1 0 .51.1m2.389 3.629a.32.32 0 1 0-.528.362.313.313 0 0 0 .445 0 .33.33 0 0 0 .083-.445m-4.678-7.176a.445.445 0 0 0-.61-.115.429.429 0 0 0-.115.594.428.428 0 0 0 .791-.15.446.446 0 0 0-.066-.329Zm10.146-.808a1.008 1.008 0 0 0-.99-1.203 1.003 1.003 0 0 0-.979 1.21 1.006 1.006 0 0 0 .8.785.985.985 0 0 0 1.169-.792m2.405 3.58a.958.958 0 0 0-.771-1.005.954.954 0 0 0-1.132 1.042.958.958 0 0 0 1.168.828.955.955 0 0 0 .735-.865m-3.921 1.864a.708.708 0 0 0-.971-.182.693.693 0 0 0-.181.957.676.676 0 0 0 .955.198.693.693 0 0 0 .197-.973m30.438-18.64a2.295 2.295 0 0 0-2.258-2.73 2.286 2.286 0 0 0-2.108 1.425 2.296 2.296 0 0 0 3.403 2.775 2.277 2.277 0 0 0 .963-1.47" style="mix-blend-mode:multiply"/><path d="M53.09 28.274a2.394 2.394 0 0 0-1.031-2.448 2.386 2.386 0 0 0-3.526 1.093 2.396 2.396 0 0 0 .53 2.603 2.387 2.387 0 0 0 4.026-1.248m-7.477 4.8a2.147 2.147 0 0 0-1.702-2.447 2.139 2.139 0 0 0-2.498 1.622 2.146 2.146 0 0 0 1.702 2.447 2.139 2.139 0 0 0 2.498-1.622Zm-3.805 2.425a1.981 1.981 0 0 0-2.019-2.274 1.975 1.975 0 0 0-1.778 1.264 1.983 1.983 0 0 0 .465 2.133 1.976 1.976 0 0 0 3.332-1.123m-3.706 2.441a1.834 1.834 0 0 0-.775-1.887 1.827 1.827 0 0 0-2.806 1.895 1.832 1.832 0 0 0 1.456 1.427 1.81 1.81 0 0 0 2.125-1.435M34.23 40.3a1.651 1.651 0 0 0-1.203-2.266 1.644 1.644 0 0 0-1.813.94 1.663 1.663 0 0 0-.146.715 1.652 1.652 0 0 0 1.204 2.265 1.643 1.643 0 0 0 1.813-.94c.101-.225.15-.469.146-.715Zm-7.494 4.733a1.189 1.189 0 0 0-.938-1.385 1.185 1.185 0 0 0-1.413 1.173 1.189 1.189 0 0 0 1.428 1.155 1.185 1.185 0 0 0 .924-.943Zm3.706-2.375a1.42 1.42 0 0 0-1.384-1.708 1.415 1.415 0 0 0-1.313.88 1.421 1.421 0 0 0 1.05 1.933 1.414 1.414 0 0 0 1.647-1.105m-14 3.035a.713.713 0 1 0-1.186.79.713.713 0 0 0 1.186-.79Zm-2.388-3.629a.758.758 0 1 0-1.266.834.758.758 0 0 0 1.266-.834m-2.388-3.596a.762.762 0 0 0-.793-.334.758.758 0 0 0-.278.12.774.774 0 0 0-.214 1.088.777.777 0 1 0 1.285-.874m-3.887 2.607a.444.444 0 0 0-.733.503.446.446 0 1 0 .733-.504Zm10.261-.842a1.024 1.024 0 0 0-1.009-1.22 1.02 1.02 0 0 0-.992 1.234 1.023 1.023 0 0 0 .815.794 1.002 1.002 0 0 0 1.186-.808m-2.388-3.596a1.09 1.09 0 0 0-.84-1.254 1.07 1.07 0 0 0-1.252.908 1.041 1.041 0 0 0 .84 1.237 1.07 1.07 0 0 0 1.252-.825m8.614 4.751a1.238 1.238 0 0 0-1.466-1.522 1.235 1.235 0 0 0-.726 1.938 1.235 1.235 0 0 0 2.192-.416Zm-2.388-3.514a1.273 1.273 0 0 0-1.264-1.492 1.266 1.266 0 0 0-1.16.791 1.271 1.271 0 0 0 1.427 1.724 1.267 1.267 0 0 0 .997-1.023Zm-2.405-3.695a1.306 1.306 0 0 0-1.275-1.558 1.3 1.3 0 0 0-1.278 1.556 1.304 1.304 0 0 0 1.021 1.025 1.283 1.283 0 0 0 1.532-1.023Zm8.631 4.817a1.471 1.471 0 0 0-.644-1.515 1.464 1.464 0 0 0-2.168.719 1.47 1.47 0 0 0 1.164 1.967 1.464 1.464 0 0 0 1.648-1.171m-2.405-3.596a1.52 1.52 0 0 0-1.186-1.765 1.497 1.497 0 0 0-1.746 1.188 1.471 1.471 0 0 0 1.17 1.748 1.497 1.497 0 0 0 1.762-1.171m-2.421-3.596a1.536 1.536 0 0 0-1.503-1.836 1.53 1.53 0 0 0-1.415.95 1.536 1.536 0 0 0 1.122 2.09 1.53 1.53 0 0 0 1.796-1.204Zm8.581 4.817a1.652 1.652 0 0 0-.707-1.692A1.646 1.646 0 0 0 28.63 36.7a1.65 1.65 0 0 0 1.303 1.289 1.645 1.645 0 0 0 1.927-1.303m-2.357-3.612a1.652 1.652 0 0 0-1.648-1.901 1.646 1.646 0 0 0-1.6 1.943 1.65 1.65 0 0 0 1.914 1.33 1.645 1.645 0 0 0 1.334-1.372m-2.453-3.596a1.652 1.652 0 0 0-1.663-1.885 1.645 1.645 0 0 0-1.488 1.013 1.652 1.652 0 0 0 1.141 2.241 1.645 1.645 0 0 0 2.01-1.37Zm8.63 4.8a1.866 1.866 0 0 0-1.832-2.227 1.86 1.86 0 0 0-1.717 1.16 1.867 1.867 0 0 0 1.375 2.535 1.858 1.858 0 0 0 2.174-1.468Zm-2.355-3.579a1.868 1.868 0 0 0-.8-1.936 1.86 1.86 0 0 0-.683-.275 1.892 1.892 0 0 0-2.273 1.86 1.898 1.898 0 0 0 1.177 1.755 1.89 1.89 0 0 0 2.579-1.404m-2.421-3.563a1.936 1.936 0 0 0-1.524-2.269 1.927 1.927 0 0 0-2.265 1.526 1.938 1.938 0 0 0 .827 1.982 1.929 1.929 0 0 0 2.962-1.24m16.058.001a2.38 2.38 0 0 0-1.021-2.437 2.369 2.369 0 0 0-3.505 1.091 2.379 2.379 0 0 0 1.76 3.226 2.369 2.369 0 0 0 2.766-1.88" style="mix-blend-mode:multiply"/><path d="M50.602 24.628a2.428 2.428 0 0 0-1.939-2.69 2.418 2.418 0 0 0-2.804 1.766 2.428 2.428 0 0 0 1.88 2.995 2.417 2.417 0 0 0 2.543-1.14c.17-.285.278-.602.32-.93m-7.395 4.881a2.197 2.197 0 0 0-1.018-2.186 2.189 2.189 0 0 0-3.187 1.062 2.197 2.197 0 0 0 1.603 2.956 2.186 2.186 0 0 0 2.3-1c.156-.253.259-.536.302-.831" style="mix-blend-mode:multiply"/><path d="M39.452 31.903a2.052 2.052 0 0 0-1.622-2.4 2.044 2.044 0 0 0-2.397 1.625 2.054 2.054 0 0 0 .883 2.098 2.045 2.045 0 0 0 3.136-1.323m5.122-8.38a2.396 2.396 0 0 0-1.03-2.448 2.386 2.386 0 0 0-3.527 1.094 2.395 2.395 0 0 0 1.757 3.251 2.385 2.385 0 0 0 2.8-1.897" style="mix-blend-mode:multiply"/><path d="M48.23 21.082a2.445 2.445 0 0 0-1.114-2.456 2.435 2.435 0 0 0-3.562 1.178 2.445 2.445 0 0 0 1.81 3.29 2.42 2.42 0 0 0 2.867-1.93m-7.429 4.734a2.213 2.213 0 0 0-1.745-2.606 2.22 2.22 0 0 0-2.287.946 2.23 2.23 0 0 0 1.004 3.297 2.22 2.22 0 0 0 3.028-1.637" style="mix-blend-mode:multiply"/><path d="M37.08 28.29a2.081 2.081 0 0 0-.896-2.125 2.073 2.073 0 0 0-3.063.948 2.082 2.082 0 0 0 1.521 2.827 2.073 2.073 0 0 0 2.438-1.65m5.04-8.396a2.395 2.395 0 0 0-1.03-2.448 2.386 2.386 0 0 0-3.527 1.093 2.395 2.395 0 0 0 1.757 3.252 2.387 2.387 0 0 0 2.8-1.897" style="mix-blend-mode:multiply"/><path d="M38.398 22.368a2.23 2.23 0 0 0-.945-2.29 2.22 2.22 0 0 0-3.292 1.006 2.23 2.23 0 0 0 1.634 3.033 2.22 2.22 0 0 0 2.603-1.749Z" style="mix-blend-mode:multiply"/><path d="M34.675 24.744a2.082 2.082 0 0 0-.897-2.13 2.072 2.072 0 0 0-3.065.958 2.08 2.08 0 0 0 1.541 2.821 2.073 2.073 0 0 0 2.421-1.65" style="mix-blend-mode:multiply"/></g><path d="M79.212 39.903a8.798 8.798 0 0 0-1.12 2.442c-.127.948-.303 1.89-.527 2.82a15.546 15.546 0 0 1-3.294 6.087 24.945 24.945 0 0 1-5.502 4.537 18.095 18.095 0 0 1-8.054 1.946 20.666 20.666 0 0 1-9.635-3.299c-3.393-1.913-5.616-4.338-9.372-9.403-3.755-5.064-4.776-9.567-6.226-12.586-1.449-3.019-5.073-11.877-5.748-13.625a38.157 38.157 0 0 1-2.075-7.077c-.708-4.685.939-5.444.939-5.444s0-1.814 4.644-2.985a36.182 36.182 0 0 1 7.313-.858c1.878 0 11.43-.198 14.824 0 3.393.198 7.873-.643 14.016.825C75.54 4.75 78.602 5.873 81.7 8.23a20.743 20.743 0 0 1 6.687 7.638 18.172 18.172 0 0 1 1.416 8.116 24.593 24.593 0 0 1-2.124 6.862 14.628 14.628 0 0 1-4.283 5.444c-.873.56-1.35.956-2.388 1.65a9.706 9.706 0 0 0-1.812 1.979" fill="#C51A1B"/><mask id="valkeakoski-logo__b" style="mask-type:alpha" maskUnits="userSpaceOnUse" x="27" y="2" width="63" height="56"><path d="M79.212 39.903a8.798 8.798 0 0 0-1.12 2.442c-.127.948-.303 1.89-.527 2.82a15.546 15.546 0 0 1-3.294 6.087 24.945 24.945 0 0 1-5.502 4.537 18.095 18.095 0 0 1-8.054 1.946 20.666 20.666 0 0 1-9.635-3.299c-3.393-1.913-5.616-4.338-9.372-9.403-3.755-5.064-4.776-9.567-6.226-12.586-1.449-3.019-5.073-11.877-5.748-13.625a38.157 38.157 0 0 1-2.075-7.077c-.708-4.685.939-5.444.939-5.444s0-1.814 4.644-2.985a36.182 36.182 0 0 1 7.313-.858c1.878 0 11.43-.198 14.824 0 3.393.198 7.873-.643 14.016.825C75.54 4.75 78.602 5.873 81.7 8.23a20.743 20.743 0 0 1 6.687 7.638 18.172 18.172 0 0 1 1.416 8.116 24.593 24.593 0 0 1-2.124 6.862 14.628 14.628 0 0 1-4.283 5.444c-.873.56-1.35.956-2.388 1.65a9.706 9.706 0 0 0-1.812 1.979" fill="#C51A1B"/></mask><g mask="url(#valkeakoski-logo__b)"><path d="M77.07 21.065a2.36 2.36 0 0 0-1.908-3.926 2.352 2.352 0 0 0-2.08 1.605 2.363 2.363 0 0 0 .695 2.536 2.37 2.37 0 0 0 3.294-.215m-8.829.38a2.08 2.08 0 0 0-1.69-3.442 2.074 2.074 0 0 0-1.833 1.392 2.082 2.082 0 0 0 1.278 2.646 2.071 2.071 0 0 0 2.245-.596" fill="#E42313"/><path d="M72.722 21.23a2.262 2.262 0 0 0-1.842-3.753 2.255 2.255 0 0 0-1.988 1.54 2.263 2.263 0 0 0 .668 2.428 2.24 2.24 0 0 0 3.179-.198m-8.96.313a1.915 1.915 0 0 0-1.55-3.176 1.909 1.909 0 0 0-1.689 1.285 1.917 1.917 0 0 0 1.182 2.434 1.908 1.908 0 0 0 2.057-.543m-4.497.132a1.65 1.65 0 0 0-.148-2.441 1.729 1.729 0 0 0-2.874 1.4 1.733 1.733 0 0 0 2.168 1.57 1.73 1.73 0 0 0 .854-.529Zm-4.447.148a1.552 1.552 0 0 0-1.272-2.514 1.547 1.547 0 0 0-1.05.469 1.555 1.555 0 0 0 1.254 2.582 1.549 1.549 0 0 0 1.068-.52m-4.529.099a1.328 1.328 0 0 0-1.084-2.198 1.322 1.322 0 0 0-.909.45 1.328 1.328 0 0 0 1.084 2.198c.35-.024.677-.185.909-.45m-4.48.115a1.14 1.14 0 0 0-.938-1.868 1.135 1.135 0 0 0-1.037 1.403 1.138 1.138 0 0 0 1.615.75c.138-.07.26-.166.36-.285m-4.431.199a.94.94 0 0 0-.082-1.337.944.944 0 0 0-1.57.768c.016.25.13.485.318.65a.94.94 0 0 0 1.334 0m-4.628-.081a.578.578 0 0 0-.73-.886.576.576 0 1 0 .73.885m-4.612.001a.23.23 0 0 0 0-.33.23.23 0 0 0-.313 0 .232.232 0 0 0 0 .33.247.247 0 0 0 .33 0m18.776 3.067a1.37 1.37 0 0 0-1.703-1.258 1.367 1.367 0 0 0-.893 1.922 1.369 1.369 0 0 0 1.312.772 1.383 1.383 0 0 0 1.284-1.436m9.026-.593a1.65 1.65 0 0 0-1.812-1.65 1.707 1.707 0 0 0-1.597 1.815 1.712 1.712 0 0 0 1.812 1.6 1.644 1.644 0 0 0 1.572-1.133 1.66 1.66 0 0 0 .075-.682m4.43-.198a1.883 1.883 0 0 0-1.259-1.673 1.875 1.875 0 0 0-2.477 1.528 1.883 1.883 0 0 0 .925 1.879 1.875 1.875 0 0 0 2.811-1.734" fill="#E42313"/><path d="M73.43 23.985a2.196 2.196 0 0 0-1.462-1.951 2.187 2.187 0 0 0-2.359.609 2.196 2.196 0 0 0 1.763 3.651 2.206 2.206 0 0 0 2.059-2.31" fill="#E42313"/><path d="M77.91 23.688a2.329 2.329 0 0 0-1.569-2.05 2.318 2.318 0 0 0-2.491.666 2.327 2.327 0 0 0 1.887 3.858 2.338 2.338 0 0 0 2.174-2.474" fill="#E42313"/><path d="M82.275 23.424a2.41 2.41 0 0 0-1.62-2.125 2.401 2.401 0 0 0-3.162 1.953 2.412 2.412 0 0 0 1.17 2.404c.41.24.882.353 1.356.325a2.42 2.42 0 0 0 2.256-2.557M46.37 25.618a1.122 1.122 0 0 0-1.172-.935 1.12 1.12 0 0 0-1.052 1.067 1.14 1.14 0 0 0 1.186 1.04 1.103 1.103 0 0 0 1.038-1.172m-4.629.33a.858.858 0 0 0-.89-.808.841.841 0 0 0-.79.907.842.842 0 1 0 1.68-.1Zm-4.628.247a.511.511 0 1 0-1.02.068.511.511 0 0 0 1.02-.068m18.315-1.121a1.47 1.47 0 0 0-1.04-1.225 1.464 1.464 0 0 0-1.87 1.233 1.47 1.47 0 0 0 1.527 1.641 1.465 1.465 0 0 0 1.383-1.65m13.605-.775a2.064 2.064 0 0 0-1.392-1.816 2.056 2.056 0 0 0-2.703 1.679 2.064 2.064 0 0 0 1.006 2.056c.351.205.756.3 1.162.275a2.074 2.074 0 0 0 1.927-2.194m-13.407 5.097a1.436 1.436 0 0 0-1.789-1.32 1.432 1.432 0 0 0-1.062 1.195 1.436 1.436 0 0 0 1.517 1.627 1.432 1.432 0 0 0 1.334-1.502m-4.562.297a1.205 1.205 0 0 0-1.507-1.096 1.202 1.202 0 0 0-.773 1.697 1.203 1.203 0 0 0 1.16.67 1.186 1.186 0 0 0 1.12-1.27m-4.563.297a.974.974 0 0 0-1.021-.908.988.988 0 0 0-.906 1.023.974.974 0 0 0 1.42.917.97.97 0 0 0 .507-1.033m-4.595.281a.71.71 0 0 0-.758-.66.69.69 0 0 0-.659.742.713.713 0 0 0 .468.635c.088.032.18.046.274.042a.724.724 0 0 0 .675-.76m18.249-1.138A1.651 1.651 0 0 0 59.11 27.6a1.645 1.645 0 0 0-2.229 1.286 1.652 1.652 0 0 0 .8 1.675 1.645 1.645 0 0 0 2.034-.302 1.65 1.65 0 0 0 .441-1.128ZM37.278 30.55a.413.413 0 0 0-.703-.291.413.413 0 0 0 .582.583.413.413 0 0 0 .12-.292Zm27.341-1.715a1.8 1.8 0 0 0-1.213-1.597 1.793 1.793 0 0 0-2.36 1.48 1.8 1.8 0 0 0 .903 1.79 1.79 1.79 0 0 0 1.023.224 1.778 1.778 0 0 0 1.647-1.897m9.009-.545a2.098 2.098 0 0 0-1.42-1.875 2.089 2.089 0 0 0-.82-.104 2.124 2.124 0 0 0-1.993 2.243 2.098 2.098 0 0 0 1.42 1.875c.264.09.543.125.82.105a2.124 2.124 0 0 0 1.993-2.244Z" fill="#E42313"/><path d="M78.059 28.043a2.248 2.248 0 0 0-2.38-2.103 2.242 2.242 0 0 0-1.983 1.514 2.25 2.25 0 0 0 .638 2.415 2.242 2.242 0 0 0 3.168-.199 2.25 2.25 0 0 0 .557-1.627m-8.911.577a1.981 1.981 0 0 0-1.336-1.74 1.975 1.975 0 0 0-2.594 1.607 1.983 1.983 0 0 0 .957 1.975 1.98 1.98 0 0 0 1.112.27 2.008 2.008 0 0 0 1.861-2.112" fill="#E42313"/><path d="M82.522 27.746a2.345 2.345 0 0 0-1.58-2.064 2.335 2.335 0 0 0-2.508.669 2.344 2.344 0 0 0 1.898 3.886 2.354 2.354 0 0 0 2.19-2.491" fill="#E42313"/><path d="M86.903 27.482a2.41 2.41 0 0 0-1.61-2.138 2.401 2.401 0 0 0-2.587.673 2.41 2.41 0 0 0 1.941 4.005 2.403 2.403 0 0 0 2.256-2.54" fill="#E42313"/><path d="M87.183 31.787a2.41 2.41 0 0 0-1.62-2.125 2.4 2.4 0 0 0-2.581.683 2.41 2.41 0 0 0 1.945 4 2.4 2.4 0 0 0 2.131-1.624c.103-.3.146-.617.125-.934m-.493-8.693a2.46 2.46 0 0 0-1.651-2.171 2.45 2.45 0 0 0-3.23 1.99 2.46 2.46 0 0 0 1.19 2.454c.419.246.9.362 1.385.333a2.47 2.47 0 0 0 2.305-2.606" fill="#E42313"/><path d="M82.737 32.068a2.345 2.345 0 0 0-1.57-2.077 2.335 2.335 0 0 0-2.515.66 2.344 2.344 0 0 0 3.505 3.112 2.326 2.326 0 0 0 .58-1.695" fill="#E42313"/><path d="M78.322 32.414a2.18 2.18 0 0 0-1.462-1.923 2.171 2.171 0 0 0-2.861 1.763 2.18 2.18 0 0 0 1.055 2.175c.37.217.797.32 1.226.295a2.19 2.19 0 0 0 2.042-2.31m4.53 4.009a2.18 2.18 0 0 0-1.463-1.924 2.17 2.17 0 0 0-2.335.616 2.179 2.179 0 0 0 1.755 3.617 2.172 2.172 0 0 0 1.929-1.465 2.18 2.18 0 0 0 .114-.844m-.988-21.676a2.494 2.494 0 0 0-1.676-2.202 2.484 2.484 0 0 0-3.272 2.026 2.495 2.495 0 0 0 1.219 2.485 2.483 2.483 0 0 0 3.112-.508 2.493 2.493 0 0 0 .617-1.8Z" fill="#E42313"/><path d="M86.278 14.45a2.559 2.559 0 0 0-1.717-2.263 2.55 2.55 0 0 0-2.744.723 2.56 2.56 0 0 0 2.072 4.246 2.551 2.551 0 0 0 2.389-2.706m-4.184 4.62a2.445 2.445 0 0 0-1.64-2.157 2.435 2.435 0 0 0-3.208 1.978 2.444 2.444 0 0 0 1.184 2.438 2.434 2.434 0 0 0 3.537-1.314 2.45 2.45 0 0 0 .127-.946" fill="#E42313"/><path d="M86.541 18.772a2.56 2.56 0 0 0-1.695-2.288 2.549 2.549 0 0 0-2.757.704 2.559 2.559 0 0 0 2.064 4.257 2.551 2.551 0 0 0 2.388-2.706m-4.974-8.314a2.493 2.493 0 0 0-1.675-2.202 2.484 2.484 0 0 0-2.673.71 2.491 2.491 0 0 0 2.026 4.132 2.466 2.466 0 0 0 2.197-1.676 2.48 2.48 0 0 0 .125-.964" fill="#E42313"/><path d="M85.899 10.194a2.542 2.542 0 0 0-1.706-2.248 2.533 2.533 0 0 0-2.727.72 2.542 2.542 0 0 0 2.061 4.217 2.535 2.535 0 0 0 2.372-2.689m4.414 4.075a2.51 2.51 0 0 0-1.686-2.218 2.5 2.5 0 0 0-3.294 2.038 2.51 2.51 0 0 0 1.225 2.503 2.5 2.5 0 0 0 3.134-.511 2.51 2.51 0 0 0 .621-1.812" fill="#E42313"/><path d="M90.692 18.541a2.51 2.51 0 0 0-1.686-2.218 2.5 2.5 0 0 0-3.294 2.038 2.51 2.51 0 0 0 1.225 2.503 2.5 2.5 0 0 0 1.416.333 2.485 2.485 0 0 0 2.212-1.686c.106-.311.15-.641.127-.97" fill="#E42313"/><path d="M90.972 22.913a2.46 2.46 0 0 0-1.651-2.172 2.45 2.45 0 0 0-2.635.694 2.46 2.46 0 0 0 1.98 4.084 2.47 2.47 0 0 0 2.306-2.606Z" fill="#E42313"/><path d="M90.972 27.235a2.41 2.41 0 0 0-1.62-2.126 2.401 2.401 0 0 0-3.163 1.953 2.412 2.412 0 0 0 1.17 2.405 2.403 2.403 0 0 0 3.613-2.232Z" fill="#E42313"/><path d="M91.384 31.59a2.41 2.41 0 0 0-1.61-2.139 2.402 2.402 0 0 0-3.173 1.944 2.413 2.413 0 0 0 1.167 2.41 2.401 2.401 0 0 0 3.011-.478c.423-.477.64-1.101.605-1.738M81.353 6.17a2.493 2.493 0 0 0-1.671-2.203 2.484 2.484 0 0 0-3.275 2.014 2.495 2.495 0 0 0 1.205 2.49c.423.248.912.366 1.402.338a2.502 2.502 0 0 0 2.339-2.64m5.271 30.023a2.18 2.18 0 0 0-1.463-1.924 2.17 2.17 0 0 0-2.335.616 2.18 2.18 0 0 0 .529 3.322 2.172 2.172 0 0 0 3.155-1.17 2.18 2.18 0 0 0 .114-.844" fill="#E42313"/><path d="M88.485 35.466a2.18 2.18 0 0 0-1.473-1.91 2.17 2.17 0 0 0-2.329.624 2.18 2.18 0 0 0 1.76 3.612 2.19 2.19 0 0 0 2.042-2.326Zm-10.047 1.221A2.147 2.147 0 0 0 77 34.78a2.138 2.138 0 0 0-2.306.606 2.146 2.146 0 0 0 3.215 2.844 2.13 2.13 0 0 0 .528-1.544Zm-4.596-4.058a2.08 2.08 0 0 0-1.401-1.832 2.072 2.072 0 0 0-2.726 1.691 2.081 2.081 0 0 0 1.013 2.073 2.073 2.073 0 0 0 3.008-1.126 2.08 2.08 0 0 0 .106-.806m-4.512.264a1.93 1.93 0 0 0-1.29-1.72 1.925 1.925 0 0 0-2.544 1.564 1.931 1.931 0 0 0 3.357 1.543 1.914 1.914 0 0 0 .476-1.387" fill="#E42313"/><path d="M74.007 36.983a1.964 1.964 0 0 0-2.059-1.83 1.942 1.942 0 0 0-1.718 1.307 1.949 1.949 0 0 0 1.57 2.563 1.941 1.941 0 0 0 1.943-.942 1.95 1.95 0 0 0 .264-1.098m4.628 4.091a1.998 1.998 0 0 0-1.346-1.754 1.99 1.99 0 0 0-2.617 1.618 1.998 1.998 0 0 0 .964 1.992 1.99 1.99 0 0 0 2.898-1.078c.085-.25.12-.514.101-.778" fill="#E42313"/><path d="M82.638 40.662a1.998 1.998 0 0 0-1.347-1.754 1.99 1.99 0 0 0-2.135.567 1.998 1.998 0 0 0 1.604 3.315 2.008 2.008 0 0 0 1.878-2.128m-8.483.676a1.866 1.866 0 0 0-1.254-1.644 1.859 1.859 0 0 0-2.447 1.512 1.866 1.866 0 0 0 1.955 2.112 1.877 1.877 0 0 0 1.746-1.98m4.579 4.058a1.866 1.866 0 0 0-1.244-1.657 1.858 1.858 0 0 0-2.458 1.503 1.866 1.866 0 0 0 .904 1.866c.318.186.684.274 1.052.251a1.842 1.842 0 0 0 1.65-1.243 1.85 1.85 0 0 0 .096-.72ZM64.817 33.19a1.654 1.654 0 0 0-1.131-1.575 1.645 1.645 0 0 0-2.08 1.05 1.652 1.652 0 0 0 1.298 2.144 1.645 1.645 0 0 0 1.913-1.62m4.743 4.091a1.783 1.783 0 0 0-1.198-1.58 1.776 1.776 0 0 0-2.342 1.454 1.784 1.784 0 0 0 .883 1.778 1.777 1.777 0 0 0 2.657-1.652m4.76 8.397a1.75 1.75 0 0 0-1.168-1.55 1.743 1.743 0 0 0-2.304 1.407 1.751 1.751 0 0 0 .84 1.75c.298.176.64.26.985.24a1.725 1.725 0 0 0 1.557-1.168c.075-.218.106-.449.09-.68Zm-9.306-8.117a1.652 1.652 0 0 0-1.046-1.531 1.645 1.645 0 0 0-2.23 1.287 1.652 1.652 0 0 0 .8 1.674 1.645 1.645 0 0 0 2.476-1.43Zm4.645 4.059a1.651 1.651 0 0 0-1.103-1.427 1.646 1.646 0 0 0-2.163 1.282 1.652 1.652 0 0 0 .719 1.655 1.645 1.645 0 0 0 2.547-1.51Zm-9.191-3.778a1.42 1.42 0 0 0-.96-1.243 1.414 1.414 0 0 0-1.856 1.154 1.42 1.42 0 0 0 1.482 1.607 1.414 1.414 0 0 0 1.334-1.518Zm4.842 8.347a1.422 1.422 0 0 0-1.506-1.328 1.419 1.419 0 0 0-1.326 1.51 1.423 1.423 0 0 0 1.507 1.328 1.417 1.417 0 0 0 1.326-1.51m-.116-4.355a1.535 1.535 0 0 0-1.647-1.451 1.546 1.546 0 0 0-1.48 1.02 1.553 1.553 0 0 0 1.044 2.025c.207.057.422.07.634.04a1.513 1.513 0 0 0 1.433-1.65m4.611 4.157a1.568 1.568 0 0 0-1.954-1.432 1.564 1.564 0 0 0-1.158 1.303 1.57 1.57 0 0 0 2.724 1.26 1.551 1.551 0 0 0 .389-1.131m4.71 4.058a1.651 1.651 0 0 0-1.046-1.532 1.644 1.644 0 0 0-1.807.412 1.65 1.65 0 0 0 1.322 2.77 1.646 1.646 0 0 0 1.531-1.65Zm4.003-.347a1.65 1.65 0 0 0-2.02-1.601 1.646 1.646 0 0 0-1.257 1.368 1.652 1.652 0 0 0 1.761 1.883 1.646 1.646 0 0 0 1.516-1.65m-8.516.611a1.485 1.485 0 0 0-1.896-1.255 1.482 1.482 0 0 0-1.049 1.25 1.487 1.487 0 0 0 1.562 1.654 1.482 1.482 0 0 0 1.383-1.65ZM60.337 33.47a1.536 1.536 0 0 0-1.042-1.338 1.528 1.528 0 0 0-1.636.442 1.535 1.535 0 0 0 1.228 2.546 1.531 1.531 0 0 0 1.45-1.65Zm-9.092.544a1.14 1.14 0 0 0-1.22-1.055 1.119 1.119 0 0 0-1.053 1.204 1.14 1.14 0 0 0 1.202 1.072 1.169 1.169 0 0 0 1.07-1.22m4.53-.248a1.304 1.304 0 0 0-1.4-1.237 1.317 1.317 0 0 0-1.189 1.655 1.32 1.32 0 0 0 1.097.97 1.315 1.315 0 0 0 1.492-1.388m.231 4.338a1.272 1.272 0 0 0-.858-1.118 1.267 1.267 0 0 0-1.665 1.036 1.272 1.272 0 0 0 1.337 1.435 1.284 1.284 0 0 0 1.186-1.353m4.661 4.075a1.353 1.353 0 0 0-1.417-1.27 1.347 1.347 0 0 0-1.308.882 1.354 1.354 0 0 0 1.473 1.806 1.333 1.333 0 0 0 1.252-1.418m4.809 8.396a1.287 1.287 0 0 0-1.343-1.085 1.285 1.285 0 0 0-1.12 1.759 1.287 1.287 0 0 0 1.269.81 1.283 1.283 0 0 0 1.194-1.484m-4.645-4.074a1.27 1.27 0 0 0-1.317-1.172 1.251 1.251 0 0 0-.744 2.17 1.219 1.219 0 0 0 .892.305 1.235 1.235 0 0 0 1.17-1.303Zm-4.727-4.075a1.172 1.172 0 0 0-1.466-1.063 1.17 1.17 0 0 0-.75 1.65 1.17 1.17 0 0 0 2.216-.587m-9.437-8.132a.924.924 0 0 0-.972-.858.923.923 0 1 0 .115 1.831.905.905 0 0 0 .857-.973m.198 4.338a.81.81 0 0 0-.857-.759.823.823 0 0 0-.758.858.826.826 0 0 0 1.441.499.827.827 0 0 0 .207-.598m4.793 8.429a.775.775 0 0 0-.84-.742.79.79 0 0 0-.471 1.382c.156.139.36.21.57.202a.79.79 0 0 0 .74-.842m-.131-4.371a.907.907 0 0 0-1.507-.352.908.908 0 0 0-.256.55.91.91 0 0 0 .964.85.907.907 0 0 0 .848-.965m4.776 8.363a.893.893 0 0 0-.938-.841.89.89 0 0 0-.545 1.555.89.89 0 0 0 1.483-.714m-.098-4.339a1.06 1.06 0 0 0-1.12-.99 1.053 1.053 0 0 0-.934.713c-.044.132-.063.27-.055.41a1.057 1.057 0 0 0 2.109-.133Zm-4.843-8.412a1.057 1.057 0 0 0-1.32-.969 1.054 1.054 0 0 0-.676 1.493 1.055 1.055 0 0 0 1.025.58 1.037 1.037 0 0 0 .971-1.104m9.471 12.47a1.092 1.092 0 0 0-1.153-1.022 1.088 1.088 0 0 0-1.021 1.154 1.09 1.09 0 0 0 1.902.658 1.092 1.092 0 0 0 .272-.79m4.677 4.091a1.14 1.14 0 0 0-1.42-1.033 1.137 1.137 0 0 0-.737 1.596 1.139 1.139 0 0 0 1.087.642 1.152 1.152 0 0 0 1.07-1.205Zm-4.545.264a.957.957 0 0 0-1.618-.506.957.957 0 0 0 1.12 1.523.955.955 0 0 0 .498-1.017m9.059-.561a1.337 1.337 0 0 0-1.4-1.237 1.317 1.317 0 0 0-1.22 1.403 1.288 1.288 0 0 0 1.384 1.22 1.317 1.317 0 0 0 1.236-1.386M47.012 43.02a.677.677 0 0 0-.708-.642.692.692 0 0 0-.626.725.677.677 0 0 0 .962.563.659.659 0 0 0 .372-.645Zm9.454 12.439a.71.71 0 0 0-.741-.66.724.724 0 0 0-.66.742.71.71 0 0 0 .742.66.708.708 0 0 0 .659-.742ZM42.087 34.641a.66.66 0 0 0-.675-.594.626.626 0 1 0 .675.594Zm9.718 16.776a.61.61 0 0 0-.66-.577.625.625 0 0 0-.385 1.088.609.609 0 0 0 .452.15.624.624 0 0 0 .593-.66m-9.603-12.471a.513.513 0 0 0-.543-.479.494.494 0 0 0-.478.528.512.512 0 0 0 .544.478.495.495 0 0 0 .477-.527m4.892 8.429a.513.513 0 0 0-.502-.603.51.51 0 0 0-.503.603.497.497 0 0 0 .528.478.527.527 0 0 0 .477-.544m-4.744-4.042a.348.348 0 0 0-.608-.21.347.347 0 0 0 .28.573.329.329 0 0 0 .329-.363m-4.892-8.396a.348.348 0 0 0-.609-.211.347.347 0 0 0 .28.574.33.33 0 0 0 .329-.363m-5.633-21.444a.379.379 0 0 0-.741 0 .396.396 0 0 0 .395.346.379.379 0 0 0 .346-.396m.214 4.388a.313.313 0 0 0-.33-.28.298.298 0 0 0-.296.33.33.33 0 0 0 .33.296.316.316 0 0 0 .284-.22.312.312 0 0 0 .012-.126m-.362-8.66a.446.446 0 0 0-.628-.372.427.427 0 0 0-.245.421.447.447 0 0 0 .436.53.445.445 0 0 0 .437-.53m9.174 4.454a1.007 1.007 0 0 0-.099-1.419.987.987 0 0 0-1.621.34 1.008 1.008 0 0 0 1.02 1.371 1.003 1.003 0 0 0 .7-.374m.263 4.387a.974.974 0 0 0 0-1.352.954.954 0 0 0-1.63.676.957.957 0 0 0 1.141.938.954.954 0 0 0 .49-.262Zm-4.331-.396a.71.71 0 0 0-.736-.567.708.708 0 0 0-.665.65.71.71 0 0 0 .736.567.708.708 0 0 0 .665-.65m35.675-.577a2.311 2.311 0 0 0-1.882-3.816 2.304 2.304 0 0 0-2.037 1.537 2.313 2.313 0 0 0 .625 2.477 2.288 2.288 0 0 0 3.294-.198" fill="#E42313"/><path d="M76.824 16.727a2.393 2.393 0 0 0-1.914-4.005 2.386 2.386 0 0 0-2.115 1.642 2.396 2.396 0 0 0 .734 2.577 2.386 2.386 0 0 0 3.295-.214m-8.796.379a2.146 2.146 0 0 0-1.726-3.568 2.14 2.14 0 0 0-1.897 1.444 2.147 2.147 0 0 0 .61 2.306 2.122 2.122 0 0 0 3.013-.182m-4.513.165a1.98 1.98 0 0 0-1.598-3.286 1.975 1.975 0 0 0-1.75 1.324 1.982 1.982 0 0 0 .548 2.127 1.96 1.96 0 0 0 2.8-.165Zm-4.397.165a1.816 1.816 0 0 0-1.463-3.012 1.81 1.81 0 0 0-1.605 1.21 1.818 1.818 0 0 0 .498 1.95 1.826 1.826 0 0 0 2.57-.148Zm-4.546.116a1.652 1.652 0 0 0-1.362-2.483 1.646 1.646 0 0 0-1.706 1.59 1.652 1.652 0 0 0 1.187 1.643 1.645 1.645 0 0 0 1.88-.75Zm-8.944.23a1.188 1.188 0 0 0-1.595-1.745 1.188 1.188 0 0 0-.052 1.844 1.218 1.218 0 0 0 1.647-.099m4.48-.132a1.42 1.42 0 0 0-.131-1.995 1.399 1.399 0 0 0-2.227 1.173c.01.351.153.686.398.938a1.415 1.415 0 0 0 1.993-.115m-13.654-4.454a.71.71 0 0 0-.741-.677.724.724 0 0 0-.675.76.711.711 0 0 0 .757.659.69.69 0 0 0 .66-.742Zm-.214-4.388a.727.727 0 0 0-.79-.693.757.757 0 0 0-.709.792.76.76 0 0 0 1.08.637.741.741 0 0 0 .419-.736m-.214-4.306a.775.775 0 0 0-.84-.725.757.757 0 0 0-.725.824.777.777 0 0 0 .824.726.79.79 0 0 0 .74-.825m-4.677.281a.462.462 0 0 0-.477-.43.444.444 0 0 0-.412.48.446.446 0 1 0 .89 0m9.256 4.436a1.04 1.04 0 0 0-.083-1.451 1.02 1.02 0 0 0-1.433.099 1.007 1.007 0 0 0 0 1.435 1.02 1.02 0 0 0 1.433-.082m-.148-4.322a1.073 1.073 0 0 0-1.346-1.656 1.072 1.072 0 1 0 1.346 1.656m4.974 8.528a1.204 1.204 0 0 0-.099-1.732 1.234 1.234 0 0 0-1.745.099 1.255 1.255 0 0 0 .115 1.748 1.218 1.218 0 0 0 1.647-.115m-.149-4.305a1.255 1.255 0 0 0-.098-1.798 1.286 1.286 0 1 0-1.647 1.913 1.251 1.251 0 0 0 1.795-.115m-.346-4.339a1.304 1.304 0 0 0-1.06-2.158 1.3 1.3 0 0 0-1.178 1.63 1.304 1.304 0 0 0 1.833.84 1.3 1.3 0 0 0 .405-.312m5.056 8.545a1.486 1.486 0 0 0-.131-2.078 1.464 1.464 0 0 0-2.059.132 1.468 1.468 0 1 0 2.19 1.946m-.263-4.338a1.486 1.486 0 0 0-1.211-2.456 1.481 1.481 0 0 0-1.343 1.854c.073.283.228.538.446.734a1.497 1.497 0 0 0 2.108-.132ZM49.4 4.718a1.552 1.552 0 0 0-.132-2.161 1.531 1.531 0 0 0-2.546 1.24 1.535 1.535 0 0 0 1.921 1.39c.293-.078.557-.241.757-.47m4.958 8.48a1.655 1.655 0 0 0-1.335-2.748 1.65 1.65 0 0 0-1.549 1.75 1.656 1.656 0 0 0 1.11 1.463 1.65 1.65 0 0 0 1.774-.465m-.198-4.273a1.651 1.651 0 0 0-1.38-2.686 1.645 1.645 0 0 0-1.444 1.077 1.653 1.653 0 0 0 .976 2.118 1.644 1.644 0 0 0 1.848-.509m-.313-4.338a1.65 1.65 0 0 0-1.373-2.695 1.646 1.646 0 0 0-1.446 1.083 1.652 1.652 0 0 0 .985 2.114 1.645 1.645 0 0 0 1.834-.502m5.007 8.512a1.852 1.852 0 0 0-2.767-2.458 1.854 1.854 0 0 0 1.494 3.077c.49-.029.948-.252 1.273-.62m-.231-4.288a1.898 1.898 0 0 0-1.533-3.153 1.892 1.892 0 0 0-1.675 1.279 1.9 1.9 0 0 0 .54 2.039 1.892 1.892 0 0 0 2.669-.165M58.36 4.52a1.931 1.931 0 0 0-1.558-3.208 1.925 1.925 0 0 0-1.705 1.298 1.933 1.933 0 0 0 .545 2.075 1.925 1.925 0 0 0 2.718-.165m13.835 8.165a2.36 2.36 0 0 0-1.888-3.936 2.353 2.353 0 0 0-2.089 1.595 2.361 2.361 0 0 0 .683 2.54 2.37 2.37 0 0 0 3.294-.199" fill="#E42313"/><path d="M76.593 12.372a2.41 2.41 0 0 0-1.962-3.989 2.403 2.403 0 0 0-2.122 1.619 2.412 2.412 0 0 0 .674 2.584 2.42 2.42 0 0 0 3.41-.214Zm-8.845.445a2.212 2.212 0 0 0-1.775-3.678 2.205 2.205 0 0 0-1.957 1.482 2.213 2.213 0 0 0 .62 2.378 2.192 2.192 0 0 0 2.427.342c.261-.127.494-.305.685-.524" fill="#E42313"/><path d="M63.318 12.966a2.047 2.047 0 0 0-1.667-3.387 2.04 2.04 0 0 0-1.802 1.373 2.048 2.048 0 0 0 .57 2.195 2.057 2.057 0 0 0 2.899-.181m8.663-4.603a2.393 2.393 0 0 0-1.916-4.042 2.386 2.386 0 0 0-1.658.875 2.361 2.361 0 0 0 .198 3.3 2.387 2.387 0 0 0 3.376-.199" fill="#E42313"/><path d="M76.362 8.116a2.443 2.443 0 0 0-1.98-4.052 2.435 2.435 0 0 0-2.153 1.644 2.444 2.444 0 0 0 1.514 3.102 2.434 2.434 0 0 0 2.62-.694m-8.845.379a2.23 2.23 0 0 0-1.785-3.71 2.221 2.221 0 0 0-1.972 1.496 2.23 2.23 0 0 0 .627 2.396 2.222 2.222 0 0 0 3.13-.182" fill="#E42313"/><path d="M63.087 8.644a2.063 2.063 0 0 0-1.675-3.418 2.057 2.057 0 0 0-1.819 1.385 2.064 2.064 0 0 0 2.074 2.731 2.056 2.056 0 0 0 1.42-.698m8.614-4.669A2.393 2.393 0 0 0 69.755.011a2.386 2.386 0 0 0-2.108 1.611 2.394 2.394 0 0 0 .678 2.568 2.37 2.37 0 0 0 3.376-.215" fill="#E42313"/><path d="M67.238 4.206a2.228 2.228 0 0 0-1.805-3.7 2.222 2.222 0 0 0-1.964 1.506 2.23 2.23 0 0 0 .64 2.392 2.222 2.222 0 0 0 3.129-.198" fill="#E42313"/><path d="M62.807 4.388A2.063 2.063 0 0 0 61.132.97a2.057 2.057 0 0 0-1.819 1.386 2.066 2.066 0 0 0 1.275 2.621 2.056 2.056 0 0 0 2.22-.59" fill="#E42313"/><path d="M79.047 57.9a.494.494 0 0 0 .659-.264.512.512 0 0 0-.264-.66.527.527 0 0 0-.658.264.513.513 0 0 0 .263.66m-.609-1.814a.412.412 0 0 0 .527-.215.396.396 0 0 0-.214-.544.41.41 0 0 0-.313.759Zm-.643-1.782a.28.28 0 0 0 .335-.358.28.28 0 1 0-.335.358Zm2.85-3.167a.147.147 0 0 0 .109-.137.148.148 0 0 0-.01-.061.164.164 0 0 0-.215 0 .165.165 0 0 0 0 .198.148.148 0 0 0 .198 0m-1.729.676a.132.132 0 0 0 0-.181.113.113 0 0 0-.083-.035.114.114 0 0 0-.082.035.148.148 0 0 0 0 .165.165.165 0 0 0 .181 0m2.734 2.985a.427.427 0 0 0 .593-.395.43.43 0 0 0-.591-.397.43.43 0 0 0-.232.232.413.413 0 0 0 .23.56m-1.68.677a.41.41 0 0 0 .544-.215.43.43 0 0 0-.23-.544.412.412 0 0 0-.528.214.396.396 0 0 0 .214.545m-.346-1.782a.313.313 0 0 0 .165-.38.297.297 0 1 0-.165.38m.988 3.563a.5.5 0 0 0 .557-.813.503.503 0 1 0-.556.813m.708-4.256a.296.296 0 0 0 .165-.395.297.297 0 0 0-.38-.166.313.313 0 0 0-.164.396.314.314 0 0 0 .379.165m1.614-.676a.313.313 0 1 0-.246-.577.313.313 0 0 0 .246.577m.395 1.815a.444.444 0 0 0 .6-.393.412.412 0 0 0-.254-.4.428.428 0 0 0-.571.558.445.445 0 0 0 .225.235M82.39 56.58a.527.527 0 0 0 .717-.478.512.512 0 0 0-.321-.478.51.51 0 0 0-.717.466.528.528 0 0 0 .322.49Zm1.68-.676a.543.543 0 0 0 .709-.28.545.545 0 0 0-.297-.71.543.543 0 0 0-.411.99m1.696-.676a.543.543 0 0 0 .725-.28.56.56 0 1 0-1.021-.43.545.545 0 0 0 .296.71m-2.734 3.134a.609.609 0 0 0 .794-.796.61.61 0 1 0-.794.796m1.697-.627a.641.641 0 0 0 .823-.33.627.627 0 0 0-.346-.825.606.606 0 0 0-.823.33.627.627 0 0 0 .345.825Z" fill="#608D33" style="mix-blend-mode:overlay"/></g><mask id="valkeakoski-logo__c" style="mask-type:alpha" maskUnits="userSpaceOnUse" x="76" y="49" width="12" height="19"><path d="M78.53 61c2.892 3.233 5.664 4.602 9.308 6.633-1.835-1.616-1.835-3.462-2.24-5.82-.247-1.652-.137-3.718-.688-5.705-1.836-4.239-5.204-5.007-6.737-6.73-.055-.114-.12-.176-.193-.176-.918 0-2.35 8.566.55 11.799" fill="#F0F"/></mask><g mask="url(#valkeakoski-logo__c)"><path d="m81.304 41.783-14.57 18.345L84.15 74l14.57-18.345-17.415-13.873Z" fill="url(#valkeakoski-logo__d)"/></g><mask id="valkeakoski-logo__e" style="mask-type:alpha" maskUnits="userSpaceOnUse" x="79" y="47" width="25" height="9"><path d="M91.473 47.7c-4.828.698-8.747 1.988-12.447.054 4.71 4.212 9.079 8.742 14.063 8.01a7.852 7.852 0 0 0 1.413-.345 11.15 11.15 0 0 0 3.672-2.217c.431-.37.863-.785 1.303-1.245a33.352 33.352 0 0 0 3.727-4.813c-3.277 3.206-7.967 1.087-11.703.557" fill="#F0F"/></mask><g mask="url(#valkeakoski-logo__e)"><path d="m81.177 40.246-3.475 15.076 25.967 6.004 3.475-15.076-25.967-6.004Z" fill="url(#valkeakoski-logo__f)"/><path d="M91.96 52.638a.132.132 0 0 0-.181 0 .132.132 0 0 0 0 .181.114.114 0 0 0 .14.033.115.115 0 0 0 .041-.033.114.114 0 0 0 .035-.082.115.115 0 0 0-.035-.083m12.798-4.091a.808.808 0 1 0-1.546-.47.808.808 0 0 0 1.546.47Zm-1.697.924a.746.746 0 0 0-.477-.924.732.732 0 1 0 .123 1.351.725.725 0 0 0 .354-.427m-1.68.743a.66.66 0 0 0-.428-.825.674.674 0 0 0-.824.429.68.68 0 0 0 .445.824.641.641 0 0 0 .807-.428m-1.713.907a.545.545 0 0 0-.362-.693.557.557 0 0 0-.7.371.56.56 0 0 0 .37.701.56.56 0 0 0 .692-.38Zm-1.696.743a.48.48 0 0 0-.313-.595.478.478 0 1 0-.28.908.459.459 0 0 0 .593-.314m-1.664.907a.396.396 0 0 0-.247-.495.398.398 0 0 0-.479.56.398.398 0 0 0 .232.2.378.378 0 0 0 .494-.265m-1.762.743a.25.25 0 0 0-.259-.324.23.23 0 0 0-.202.175.25.25 0 0 0 .046.301.247.247 0 0 0 .415-.152m5.946-1.287a.576.576 0 0 0-.774-.247.577.577 0 0 0-.23.775.576.576 0 0 0 .773.247.578.578 0 0 0 .231-.775m3.36-1.782a.701.701 0 0 0-.414-.352.696.696 0 0 0-.541.056.698.698 0 0 0-.374.416.714.714 0 0 0 .478.91.708.708 0 0 0 .554-.073.694.694 0 0 0 .297-.956m-5.057 2.672a.462.462 0 0 0-.626-.182.464.464 0 0 0 .429.825.495.495 0 0 0 .197-.643m-1.713.94a.329.329 0 0 0-.477-.148.348.348 0 0 0-.148.478.354.354 0 1 0 .625-.33Zm5.09-2.722a.628.628 0 0 0-1.086.157.626.626 0 0 0-.001.437.598.598 0 0 0 .358.3.591.591 0 0 0 .465-.052.602.602 0 0 0 .311-.365.608.608 0 0 0-.047-.477m-11.052-.346a.165.165 0 0 0-.198 0 .148.148 0 0 0 0 .214.148.148 0 0 0 .198 0 .147.147 0 0 0 .034-.165.148.148 0 0 0-.034-.05m-.824-1.616a.164.164 0 0 0-.247 0 .181.181 0 0 0 0 .248.181.181 0 0 0 .247 0 .181.181 0 0 0 0-.248Zm4.316.099a.43.43 0 0 0-.28-.528.428.428 0 0 0-.5.605.413.413 0 0 0 .253.204.427.427 0 0 0 .527-.28m.84 1.649a.397.397 0 0 0-.565-.464.395.395 0 0 0 .07.728.395.395 0 0 0 .495-.264Zm-1.73.577a.297.297 0 0 0-.395-.132.298.298 0 0 0 .28.528.278.278 0 0 0 .153-.287.279.279 0 0 0-.038-.109m10.196-4.751a.843.843 0 0 0-.723-1.084.836.836 0 0 0-.823.445.845.845 0 0 0 .099.932.834.834 0 0 0 1.043.2.842.842 0 0 0 .404-.493Zm-1.664.875a.76.76 0 0 0-.494-.957.774.774 0 0 0-.907 1.093.766.766 0 0 0 1.034.327.737.737 0 0 0 .367-.463m-1.713.792a.683.683 0 0 0-.972-.792.676.676 0 0 0-.28.915c.082.16.225.282.396.338a.708.708 0 0 0 .856-.462m-3.393 1.65a.494.494 0 0 0-.701-.587.495.495 0 0 0-.237.29.496.496 0 0 0 .852.47c.04-.052.07-.11.086-.173Zm1.697-.792a.594.594 0 0 0-.396-.742.56.56 0 0 0-.724.38.58.58 0 0 0 .379.742.592.592 0 0 0 .74-.38m-5.978.611a.313.313 0 0 0-.412-.132.313.313 0 0 0-.115.412.297.297 0 0 0 .395.115.297.297 0 0 0 .132-.395m-.84-1.633a.313.313 0 0 0-.428-.133.33.33 0 0 0-.132.43.314.314 0 0 0 .525.054.315.315 0 0 0 .06-.11c.012-.04.016-.081.012-.123a.314.314 0 0 0-.037-.118m1.746-.627a.446.446 0 0 0-.28-.545.427.427 0 0 0-.527.28.414.414 0 0 0 .28.545.427.427 0 0 0 .527-.28m2.553.841a.522.522 0 0 0-.338-.652.52.52 0 0 0-.65.338.512.512 0 0 0 .345.644.51.51 0 0 0 .643-.33m-.84-1.617a.534.534 0 0 0-1.022-.313.545.545 0 0 0 .346.676.542.542 0 0 0 .676-.363m2.553.776a.612.612 0 0 0-.412-.76.608.608 0 0 0-.78.53.612.612 0 0 0 .671.663.609.609 0 0 0 .52-.433m1.664-.825a.677.677 0 0 0-.494-.825.69.69 0 1 0-.412 1.32.676.676 0 0 0 .857-.462m-10.162.907a.181.181 0 0 0-.248 0 .214.214 0 0 0 0 .248.198.198 0 0 0 .264 0 .181.181 0 0 0 0-.248m1.696-.973a.33.33 0 0 0-.214-.396.33.33 0 0 0-.412.214.33.33 0 0 0 .215.396.33.33 0 0 0 .411-.214" fill="#608D33" style="mix-blend-mode:overlay"/></g><mask id="valkeakoski-logo__g" style="mask-type:alpha" maskUnits="userSpaceOnUse" x="79" y="36" width="24" height="12"><path d="M88.894 36.617c-5.508.884-11.456 11.552-9.491 10.686a12.066 12.066 0 0 1 3.148.089c2.79.472 5.663.04 8.17-1.228 2.056-1.448 3.588-3.48 5.121-4.848 2.176-1.943 3.672-3.639 6.582-3.754A51.239 51.239 0 0 0 92.96 36.3a25.45 25.45 0 0 0-4.03.326" fill="#F0F"/></mask><g mask="url(#valkeakoski-logo__g)"><path d="m78.3 33.126-.477 13.7 26.255.917.477-13.7-26.254-.917Z" fill="url(#valkeakoski-logo__h)"/><g style="mix-blend-mode:overlay" fill="#608D33"><path d="M83.461 44.538a.135.135 0 0 0-.08-.062.133.133 0 0 0-.15.194.148.148 0 0 0 .18 0 .132.132 0 0 0 0-.181m14.528-4.899a.875.875 0 0 0-1.243-1.032.873.873 0 1 0 1.243 1.032m-1.68.907a.809.809 0 0 0-1.144-.96.808.808 0 1 0 1.144.96m-1.697.825a.727.727 0 0 0-1.03-.857.725.725 0 1 0 1.03.857m-1.68.825a.645.645 0 0 0-.55-.826.642.642 0 0 0-.257 1.255.625.625 0 0 0 .807-.43m-1.712.842a.561.561 0 1 0-.692.363.543.543 0 0 0 .691-.363m-1.679.825a.478.478 0 0 0-.313-.594.445.445 0 0 0-.594.313.464.464 0 0 0 .671.554.495.495 0 0 0 .235-.273m-1.663.841a.397.397 0 1 0-.494.264.411.411 0 0 0 .494-.264Zm-1.796.792a.23.23 0 0 0-.067-.253.247.247 0 0 0-.393.12.248.248 0 0 0 .46.133m5.98-1.286a.577.577 0 0 0-1.058.105.578.578 0 0 0 .036.438.576.576 0 0 0 1.057-.105.578.578 0 0 0-.036-.439m3.361-1.781a.726.726 0 0 0-1.254-.19.728.728 0 0 0 .41 1.15.723.723 0 0 0 .843-.96m-5.073 2.688a.463.463 0 0 0-.625-.198.479.479 0 0 0-.198.627.494.494 0 0 0 .642.198.462.462 0 0 0 .181-.627m-1.696.924a.395.395 0 0 0-.494-.148.38.38 0 0 0-.148.478.364.364 0 0 0 .494.148.363.363 0 0 0 .148-.478m5.073-2.705a.61.61 0 0 0-1.135.106.627.627 0 0 0 .048.471.642.642 0 0 0 .84.264.626.626 0 0 0 .247-.841m-11.035-.396a.146.146 0 0 0-.107-.046.148.148 0 0 0-.108.046.132.132 0 0 0 0 .198.149.149 0 0 0 .215 0 .165.165 0 0 0 0-.198m-.824-1.649a.181.181 0 0 0-.288.055.166.166 0 0 0 .041.192.181.181 0 0 0 .247 0 .18.18 0 0 0 .083-.248m4.216.198a.43.43 0 0 0-.28-.527.427.427 0 0 0-.527.28.446.446 0 0 0 .28.528.428.428 0 0 0 .527-.28m.84 1.599a.413.413 0 0 0-.264-.511.396.396 0 0 0-.494.264.413.413 0 0 0 .264.511.392.392 0 0 0 .421-.127.394.394 0 0 0 .073-.137Zm-1.713.594a.297.297 0 0 0-.395-.115.296.296 0 0 0-.132.396.296.296 0 0 0 .395.115.296.296 0 0 0 .132-.396Z" style="mix-blend-mode:overlay"/><path d="M97.115 38.04a.892.892 0 0 0-.616-.914.888.888 0 0 0-1.104 1.16.891.891 0 0 0 1.331.426.891.891 0 0 0 .39-.673" style="mix-blend-mode:overlay"/><path d="M95.419 38.897a.859.859 0 0 0-.544-1.056.837.837 0 0 0-1.054.561.862.862 0 0 0 1.231 1.006.861.861 0 0 0 .416-.511m-1.713.825a.76.76 0 1 0-1.451-.445.76.76 0 0 0 1.451.445Zm-1.713.841a.679.679 0 0 0-.444-.858.707.707 0 0 0-.857.462.694.694 0 0 0 .461.841.674.674 0 0 0 .84-.445m-3.376 1.633a.495.495 0 1 0-.95-.282.495.495 0 0 0 .95.282m1.68-.825a.58.58 0 0 0-.831-.698.594.594 0 0 0 .334 1.117.575.575 0 0 0 .497-.419m-5.963.644a.3.3 0 0 0-.403-.124.3.3 0 0 0-.048.495.297.297 0 0 0 .336.025.297.297 0 0 0 .115-.396m-.856-1.617a.297.297 0 0 0-.412-.132.313.313 0 0 0 .28.561.314.314 0 0 0 .132-.429m1.763-.594a.43.43 0 1 0-.797.077.412.412 0 0 0 .253.204.427.427 0 0 0 .543-.28m-.906-1.617a.446.446 0 0 0-.296-.545.427.427 0 0 0-.56.297.415.415 0 0 0 .296.545.445.445 0 0 0 .56-.297m3.443 2.408a.512.512 0 0 0-.346-.643.51.51 0 0 0-.606.731.527.527 0 0 0 .51.28.509.509 0 0 0 .442-.368Zm-.84-1.6a.531.531 0 0 0-.346-.676.526.526 0 0 0-.622.745.528.528 0 0 0 .968-.069m-.84-1.633a.546.546 0 0 0-.777-.639.544.544 0 0 0 .102 1.002.527.527 0 0 0 .675-.363Zm3.393 2.408a.627.627 0 0 0-.412-.775.608.608 0 0 0-.758.412.614.614 0 0 0 .87.724.615.615 0 0 0 .3-.36Zm-.857-1.616a.628.628 0 0 0-.899-.796.627.627 0 0 0-.287.433.611.611 0 0 0 .412.775.625.625 0 0 0 .774-.412Zm-.84-1.617a.645.645 0 0 0-.672-.906.641.641 0 0 0-.546.543.628.628 0 0 0 .662.819.64.64 0 0 0 .556-.456m3.377 2.408a.7.7 0 0 0-1.205-.652.699.699 0 1 0 1.205.652Zm-.824-1.616a.727.727 0 0 0-.617-.937.724.724 0 0 0-.637 1.18.725.725 0 0 0 1.254-.243Zm2.52.775a.793.793 0 0 0-.828-1.006.774.774 0 0 0-.67.544.793.793 0 0 0 .828 1.006.774.774 0 0 0 .67-.544m-.84-1.6a.793.793 0 0 0-.679-1.017.79.79 0 0 0-.864.864.793.793 0 0 0 1.159.623.79.79 0 0 0 .384-.47Zm4.184-.049a.925.925 0 0 0-.787-1.192.92.92 0 0 0-1.013 1.006.924.924 0 0 0 .647.796.905.905 0 0 0 1.153-.61" style="mix-blend-mode:overlay"/><path d="M94.595 37.28a.859.859 0 0 0-.56-1.072.872.872 0 0 0-1.087.578.862.862 0 0 0 .577 1.072.858.858 0 0 0 1.07-.578Z" style="mix-blend-mode:overlay"/><path d="M93.755 35.664a.866.866 0 0 0-.902-1.116.86.86 0 0 0-.745.604.865.865 0 0 0 .569 1.08.86.86 0 0 0 1.078-.568Zm4.135-.034a1.008 1.008 0 0 0-.853-1.302 1.004 1.004 0 0 0-1.106 1.095 1.007 1.007 0 0 0 1.468.796c.235-.124.41-.335.49-.588Z" style="mix-blend-mode:overlay"/><path d="M98.828 37.214a1.007 1.007 0 0 0-1.426-1.193 1.006 1.006 0 0 0 .174 1.853.986.986 0 0 0 1.252-.66" style="mix-blend-mode:overlay"/><path d="M100.393 36.29a1.026 1.026 0 0 0-.675-1.253 1.004 1.004 0 0 0-1.252.66 1.024 1.024 0 0 0 .675 1.253 1.004 1.004 0 0 0 1.252-.66Z" style="mix-blend-mode:overlay"/><path d="M102.122 35.581a1.093 1.093 0 1 0-2.135-.218 1.087 1.087 0 0 0 .392.741 1.099 1.099 0 0 0 1.21.124 1.1 1.1 0 0 0 .533-.647Zm-.757 2.359a1.059 1.059 0 0 0-.895-1.365 1.053 1.053 0 0 0-1.16 1.146 1.056 1.056 0 0 0 .737.912 1.07 1.07 0 0 0 1.318-.693" style="mix-blend-mode:overlay"/><path d="M99.718 38.913a1.007 1.007 0 0 0-.867-1.284 1.003 1.003 0 0 0-1.098 1.093 1.007 1.007 0 0 0 .696.868 1.02 1.02 0 0 0 1.269-.677" style="mix-blend-mode:overlay"/></g></g><defs><linearGradient id="valkeakoski-logo__d" x1="82.549" y1="63.726" x2="88.815" y2="55.86" gradientUnits="userSpaceOnUse"><stop stop-color="#fff"/><stop offset=".01" stop-color="#FCFDF3"/><stop offset=".04" stop-color="#F5F7D2"/><stop offset=".08" stop-color="#EAEE9C"/><stop offset=".12" stop-color="#DAE252"/><stop offset=".17" stop-color="#C8D400"/><stop offset=".4" stop-color="#87AD28"/><stop offset="1" stop-color="#00803B"/></linearGradient><linearGradient id="valkeakoski-logo__f" x1="92.173" y1="55.045" x2="94.864" y2="43.41" gradientUnits="userSpaceOnUse"><stop stop-color="#fff"/><stop offset=".01" stop-color="#FCFDF3"/><stop offset=".04" stop-color="#F5F7D2"/><stop offset=".08" stop-color="#EAEE9C"/><stop offset=".12" stop-color="#DAE252"/><stop offset=".17" stop-color="#C8D400"/><stop offset=".4" stop-color="#87AD28"/><stop offset="1" stop-color="#00803B"/></linearGradient><linearGradient id="valkeakoski-logo__h" x1="93.962" y1="34.004" x2="93.527" y2="46.434" gradientUnits="userSpaceOnUse"><stop stop-color="#fff"/><stop offset=".01" stop-color="#FCFDF3"/><stop offset=".04" stop-color="#F5F7D2"/><stop offset=".08" stop-color="#EAEE9C"/><stop offset=".12" stop-color="#DAE252"/><stop offset=".17" stop-color="#C8D400"/><stop offset=".4" stop-color="#87AD28"/><stop offset="1" stop-color="#00803B"/></linearGradient></defs></svg>