<svg xmlns="http://www.w3.org/2000/svg" viewBox="0 0 425 213"><g clip-path="url(#akaa-logo__a)"><path d="M233.896 198.337a20.953 20.953 0 0 1-11.37-3.25 41.354 41.354 0 0 1-9.628-8.561 77.215 77.215 0 0 1-8.198-11.961 216.044 216.044 0 0 1-7.004-13.553 395.51 395.51 0 0 1-6.037-13.384 112.358 112.358 0 0 0-5.496-11.252 42.651 42.651 0 0 0 8.276-3.959 29.885 29.885 0 0 0 6.684-5.629 23.447 23.447 0 0 0 4.458-7.612 29.136 29.136 0 0 0 1.593-10.062c0-4.009-.69-7.07-2.069-9.185a12.012 12.012 0 0 0-5.333-4.596 21.073 21.073 0 0 0-7.31-1.664 134.276 134.276 0 0 0-8.042-.234c-1.906 0-4.053.943-6.442 2.847a42.903 42.903 0 0 0-7.18 7.528 86.045 86.045 0 0 0-12.01 21.945c.314-4.967.842-10.698 1.586-17.194a809.478 809.478 0 0 1 2.389-18.928 1881.58 1881.58 0 0 0 2.226-16.563c.505-3.386.823-6.798.953-10.219a5.84 5.84 0 0 0-1.743-3.965 15.538 15.538 0 0 0-4.379-3.25 27.634 27.634 0 0 0-5.731-2.139 20.512 20.512 0 0 0-5.725-.708 9.726 9.726 0 0 0-4.373 1.033 3.18 3.18 0 0 0-1.312 1.253 3.162 3.162 0 0 0-.411 1.764c0 .65-.137 2.535-.405 5.707-.267 3.172-.607 7.046-1.031 11.642-.424 4.596-.848 9.646-1.273 15.132a4214.74 4214.74 0 0 1-1.272 16.082 636.659 636.659 0 0 0-1.032 14.58c-.261 4.492-.398 8.009-.398 10.537 0 7.926.82 14.793 2.461 20.6 1.64 5.807 3.738 10.561 6.292 14.261a26.224 26.224 0 0 0 8.59 8.236 18.982 18.982 0 0 0 9.386 2.698c1.481 0 2.304-.267 2.467-.793.163-.527-.059-1.58-.653-3.172a597.535 597.535 0 0 1-2.46-6.806 64.034 64.034 0 0 1-2.709-11.915 69.718 69.718 0 0 1 1.429-12.832c3.29.741 6.207 2.88 8.753 6.416a91.538 91.538 0 0 1 7.48 12.676 3715.52 3715.52 0 0 1 7.715 15.6 91.22 91.22 0 0 0 9.393 15.211 48.943 48.943 0 0 0 12.486 11.571c4.787 3.059 10.461 4.589 17.023 4.589 3.481 0 6.266-.449 8.355-1.346 2.069-.897 3.472-1.878 4.216-2.925.744-1.046.816-2.034.242-2.938-.575-.904-1.717-1.313-3.427-1.313Zm-49.959-79.7a34.707 34.707 0 0 1-7.878 9.1c-3.342 2.808-7.663 4.622-12.963 5.474 1.906-7.398 4.319-13.681 7.239-18.851s5.748-9.027 8.485-11.571c2.759-2.535 5.119-3.748 7.082-3.64 1.962.108 2.944 1.744 2.944 4.908a30.513 30.513 0 0 1-1.032 5.466 35.456 35.456 0 0 1-3.877 9.114Zm194.352-.65a1.421 1.421 0 0 0-1.116-.878 2.198 2.198 0 0 0-1.508.475 3.006 3.006 0 0 0-1.116 1.826c-.217.637-.827 2.371-1.827 5.201a1381.873 1381.873 0 0 1-3.669 10.218 897.827 897.827 0 0 1-4.686 12.682 432.955 432.955 0 0 1-4.856 12.351c-1.541 3.737-2.944 6.871-4.217 9.354-1.273 2.483-2.173 3.724-2.702 3.724-1.275 0-2.23-1.636-2.866-4.907a89.753 89.753 0 0 1-1.351-11.649 225.151 225.151 0 0 1-.398-13.651c.005-4.606-.048-8.277-.156-11.011v-2.535c0-1.69-1.062-3.406-3.186-5.148-2.123-1.742-5.624-2.609-10.502-2.601-2.441 0-4.297.317-5.568.95a6.837 6.837 0 0 0-2.78 2.294 6.487 6.487 0 0 0-1.038 2.938 28.073 28.073 0 0 0-.157 2.691 32.083 32.083 0 0 1-.796 5.935c-.529 2.6-1.194 5.421-1.991 8.483a143.573 143.573 0 0 1-2.78 9.347c-1.058 3.166-2.148 6.078-3.264 8.717a42.053 42.053 0 0 1-3.263 6.416c-1.064 1.645-1.958 2.457-2.703 2.457a3.36 3.36 0 0 1-2.865-1.586 11.234 11.234 0 0 1-1.671-3.9 28.537 28.537 0 0 1-.718-4.986 85.459 85.459 0 0 1-.157-4.907 93.755 93.755 0 0 1 2.37-21.172 82.32 82.32 0 0 1 6.436-18.376c2.71-5.391 5.841-9.696 9.392-12.916 3.551-3.22 7.291-4.832 11.22-4.836a4.123 4.123 0 0 1 3.577 2.06 17.824 17.824 0 0 1 2.148 4.836 29.465 29.465 0 0 1 1.037 5.467c.157 1.794.235 3.168.235 4.121a1.633 1.633 0 0 0 .875 1.658 3.143 3.143 0 0 0 1.991.162 4.647 4.647 0 0 0 1.958-.955 1.988 1.988 0 0 0 .875-1.502c0-5.811-.69-10.275-2.07-13.39a14.096 14.096 0 0 0-5.809-6.813 20.986 20.986 0 0 0-8.831-2.541c-3.394-.254-7.18-.39-11.292-.39a22.902 22.902 0 0 0-15.437 5.622 47.187 47.187 0 0 0-10.9 13.944 72.613 72.613 0 0 0-6.527 17.83 79.072 79.072 0 0 0-2.141 17.271 59.235 59.235 0 0 0 .561 8.385 518.803 518.803 0 0 1-2.075 5.155c-1.536 3.757-2.942 6.875-4.217 9.354-1.275 2.479-2.175 3.72-2.702 3.725-1.273 0-2.232-1.638-2.865-4.908a89.544 89.544 0 0 1-1.351-11.648c-.27-4.494-.403-9.045-.399-13.651.005-4.607-.05-8.277-.163-11.012v-2.535c0-1.69-1.059-3.406-3.179-5.148-2.119-1.742-5.619-2.609-10.502-2.6-2.441 0-4.297.316-5.567.949a6.903 6.903 0 0 0-2.787 2.295 6.53 6.53 0 0 0-1.032 2.938 26.022 26.022 0 0 0-.156 2.691 32.193 32.193 0 0 1-.797 5.935c-.535 2.6-1.194 5.421-1.958 8.483-.763 3.061-1.723 6.181-2.787 9.347-1.064 3.166-2.147 6.078-3.263 8.717a42.242 42.242 0 0 1-3.264 6.416c-1.064 1.644-1.958 2.457-2.709 2.457a3.345 3.345 0 0 1-2.859-1.586 11.151 11.151 0 0 1-1.671-3.9 27.967 27.967 0 0 1-.718-4.986 85.404 85.404 0 0 1-.156-4.908 93.684 93.684 0 0 1 2.382-21.236 82.395 82.395 0 0 1 6.442-18.377c2.707-5.391 5.838-9.696 9.393-12.916 3.555-3.22 7.293-4.832 11.214-4.836a4.141 4.141 0 0 1 2.07.55 4.112 4.112 0 0 1 1.513 1.511 17.764 17.764 0 0 1 2.147 4.836 28.956 28.956 0 0 1 1.032 5.467c.156 1.794.241 3.165.241 4.121a1.622 1.622 0 0 0 .875 1.657c.628.27 1.327.327 1.991.163a4.62 4.62 0 0 0 1.958-.956 1.994 1.994 0 0 0 .881-1.501c0-5.812-.698-10.277-2.069-13.391a14.107 14.107 0 0 0-5.809-6.812 20.995 20.995 0 0 0-8.832-2.542c-3.394-.253-7.179-.39-11.298-.39a22.9 22.9 0 0 0-15.43 5.623 47.068 47.068 0 0 0-10.855 13.963 72.613 72.613 0 0 0-6.527 17.83 79.079 79.079 0 0 0-2.147 17.271 49.032 49.032 0 0 0 1.749 14.021 25.996 25.996 0 0 0 4.856 9.432 18.484 18.484 0 0 0 7.239 5.304 23.557 23.557 0 0 0 8.909 1.664 9.95 9.95 0 0 0 5.809-1.82 21.898 21.898 0 0 0 4.693-4.439 33.74 33.74 0 0 0 3.662-5.779 196.417 196.417 0 0 0 2.781-5.785 116.21 116.21 0 0 0 1.912-4.44c.483-1.19.816-1.82 1.031-1.82.216 0 .477.767.797 2.294.32 1.528.796 3.439 1.436 5.708a119.632 119.632 0 0 0 2.382 7.443 37.284 37.284 0 0 0 3.577 7.449 23.807 23.807 0 0 0 4.935 5.707 10.048 10.048 0 0 0 6.605 2.295 5.172 5.172 0 0 0 2.546-.475c2.223-.741 4.503-2.747 6.84-6.019a82.835 82.835 0 0 0 6.756-11.571c.491-1.001.974-2.017 1.449-3.048a24.492 24.492 0 0 0 4.118 7.332 18.484 18.484 0 0 0 7.239 5.304 23.557 23.557 0 0 0 8.909 1.664 9.95 9.95 0 0 0 5.809-1.82 21.898 21.898 0 0 0 4.693-4.439 33.74 33.74 0 0 0 3.662-5.779 205.688 205.688 0 0 0 2.787-5.785c.797-1.749 1.43-3.25 1.906-4.44.477-1.19.823-1.82 1.038-1.82.215 0 .477.767.79 2.294.313 1.528.796 3.439 1.436 5.708a115.455 115.455 0 0 0 2.389 7.443 37.23 37.23 0 0 0 3.577 7.449 23.536 23.536 0 0 0 4.934 5.707 10.018 10.018 0 0 0 6.619 2.295 5.13 5.13 0 0 0 2.545-.475c2.224-.741 4.504-2.747 6.841-6.019a82.815 82.815 0 0 0 6.762-11.571c2.175-4.433 4.218-9.184 6.129-14.255a445.83 445.83 0 0 0 5.091-14.183c1.484-4.382 2.676-8.132 3.577-11.252.907-3.114 1.403-4.993 1.514-5.623a3.412 3.412 0 0 0-.085-2.217v-.019Zm-240.851 63.937a62.56 62.56 0 0 1-3.818-8.243 116.623 116.623 0 0 1-4.132-13.072 151.352 151.352 0 0 1-3.505-18.935c-.64-4.854-1.075-10.663-1.306-17.427a732.705 732.705 0 0 1-.398-21.451c-.052-7.54-.024-15.144.085-22.81.109-7.666.213-14.797.313-21.392.105-6.596.131-12.38.079-17.35-.052-4.97-.183-8.51-.392-10.621a11.627 11.627 0 0 0-4.458-7.521 18.031 18.031 0 0 0-8.198-3.9 13.922 13.922 0 0 0-7.95 1.033c-7.03 2.848-19.105 33.36-26.317 51.847-2.07 5.304-4.66 14.047-6.939 19.852-2.278 5.804-5.41 13.293-7.832 19.208-6.893 4.433-14.49 8.879-21.488 13.995a161.508 161.508 0 0 0-17.708 14.736 106.666 106.666 0 0 0-14.483 16.901c-3.878 5.703-6.136 11.293-6.776 16.771a37.263 37.263 0 0 0 .079 8.717 15.462 15.462 0 0 0 3.028 7.365 18.815 18.815 0 0 0 7.239 5.466c3.18 1.474 7.315 2.531 12.401 3.172 2.973.312 6.101-.745 9.387-3.172a51.827 51.827 0 0 0 10.012-10.264 128.917 128.917 0 0 0 10.182-15.847c3.395-6.124 6.763-12.7 10.104-19.729 3.342-7.027 4.498-9.367 7.578-16.972 3.081-7.605 3.199-8.021 5.96-15.308 6.396-4.381 17.832-7.554 22.557-8.496.105 7.501.085 5.018.405 12.201.174 5.403.658 10.792 1.449 16.14 1.162 9.187 3.151 17.163 5.966 23.928 2.815 6.764 5.89 12.335 9.223 16.712 3.346 4.39 6.714 7.586 10.104 9.588 3.4 2.002 6.364 2.854 8.916 2.535 1.69-.214 2.754-.5 3.179-.871.424-.371.398-1.086-.079-2.139-.476-1.053-1.279-2.626-2.447-4.628l-.02-.019Zm-90.59-35.238a247.931 247.931 0 0 1-12.017 21.893c-3.916 6.288-7.706 11.252-11.37 14.892-3.664 3.64-7.032 5.295-10.104 4.966a6.071 6.071 0 0 1-4.693-2.529c-1.012-1.488-1.305-3.1-1.658-4.894a22.482 22.482 0 0 1 0-7.047c.425-3.809 2.082-7.15 5.268-11.635a60.965 60.965 0 0 1 9.053-10.329c4.68-4.496 9.625-8.71 14.81-12.617a183.794 183.794 0 0 1 20.234-12.617c-3.923 8.977-5.437 11.622-9.523 19.917Zm52.909-51.444c-4.57 1.04-10.143 2.405-15.365 5.201 3.08-8.45 15.012-41.245 16.474-46.1-.11 5.07-1.11 36.005-1.11 40.9Z" fill="#C16022"/><path d="m370.887 44.189 32.062-4.622L423 64.905l-12.01 29.96-32.061 4.622-20.052-25.338 12.01-29.96Z" fill="#F1B351"/><path d="m327.103 26.775 24.849-3.582 15.535 19.637-9.308 23.213-24.842 3.582-15.541-19.638 9.307-23.212Z" fill="#DF8C37"/><path d="M364.889 3.127 386.572 0l13.563 17.141-8.119 20.268-21.69 3.127-13.563-17.141 8.126-20.268Z" fill="#C16022"/></g><defs><clipPath id="akaa-logo__a"><path fill="#fff" transform="translate(2)" d="M0 0h421v206.891H0z"/></clipPath></defs></svg>