<svg fill="none" xmlns="http://www.w3.org/2000/svg" viewBox="0 0 110 125">
  <g clip-path="url(#tampere-logo__clip0)">
    <path d="M.597.596h109.897v76.05c0 23.297-24.617 48.354-54.948 48.354C26.533 125 .597 99.504.597 76.645V.596z" fill="#ED1D24"/>
    <path d="M1.915 85.437c4.396-6.154 7.913-.44 11.43-9.231 1.758-5.715.44-11.43 13.187-14.507 14.067-3.517 3.517-16.265 21.54-20.66 13.627-3.517 2.638-18.024 22.42-21.1 10.989-1.76 4.395-14.947 17.583-18.903h21.979v18.463c-17.583 1.318-10.11 18.023-23.738 19.781-17.583 2.638-6.154 18.023-24.617 21.1-13.627 2.638-4.835 16.265-19.341 19.782-14.507 3.956-10.111 9.231-14.507 15.825-4.396 6.154-10.99 3.956-14.946 9.671-3.956-4.396-9.67-13.188-10.99-20.221zm82.643-1.758c0 1.758-4.836 3.077-4.396 3.077l4.396 2.198c3.077-1.319 4.396-3.956 4.396-6.594-.44-3.077-3.077-4.396-6.154-3.517-.44 0-1.759.88-1.32 1.759 0 .879 1.76-.44 1.76 0s-.44 0-.88.879.88 1.758 1.758.879c0 .44.44.88.44 1.319z" fill="#FDB924"/>
    <path d="M84.558 83.679c0 1.758-4.836 3.077-4.396 3.077l4.396 2.198c3.077-1.319 4.396-3.956 4.396-6.594-.44-3.077-3.077-4.396-6.154-3.517-.44 0-1.759.88-1.32 1.759 0 .879 1.76-.44 1.76 0s-.44 0-.88.879.88 1.758 1.758.879c0 .44.44.88.44 1.319z" stroke="#ED1D24" stroke-width=".138" stroke-miterlimit="3.864"/>
    <path d="M75.766 110.054v2.198c-3.077.439-1.319 2.637-3.517 2.637-2.197-.439-.879-4.396 1.32-5.275.878.44.878 0 2.197.44z" fill="#FDB924"/>
    <path d="M75.766 110.054v2.198c-3.077.439-1.319 2.637-3.517 2.637-2.197-.439-.879-4.396 1.32-5.275.878.44.878 0 2.197.44z" stroke="#ED1D24" stroke-width=".138" stroke-miterlimit="3.864"/>
    <path d="M70.491 64.776s.88 2.638 1.758 3.517c.88.88 3.078 2.198 3.078-1.319-1.32-.879-2.198-2.198-2.198-3.956 0-2.638 2.198-4.396 4.395-4.396 2.638 0 4.396 2.198 4.396 4.396 0 1.758-.879 3.077-2.198 3.956 0 3.957 2.198 2.638 3.078 1.32.879-1.32 1.758-3.518 1.758-3.518 11.43.44 12.308-1.758 12.748-.879.44 2.638-6.594 3.956-5.715 3.956 2.198.88 5.275-.44 4.836.44-.44 2.638-6.594 2.638-6.594 3.517s3.956.44 4.396 1.319c.44 1.758-7.034 1.758-7.473 1.758-.44.44 3.077.44 2.637 1.319-.44 1.318-5.714 0-5.714 0-.88.44 2.198 1.318 1.319 2.198-.44.44-3.517.44-5.276-1.32v37.805c0 2.198-3.956 2.638-3.516 0V77.085c-1.759 1.758-5.275 1.758-5.275 1.758-.88-.879 2.198-1.319 1.319-2.198 0 0-5.276 1.319-5.715 0 0-.879 3.077-.879 2.637-1.319-.44 0-7.912 0-7.473-1.758 0-.44 4.396-.44 4.396-1.319-.44-.44-6.154-.44-6.594-3.516 0-.88 2.638.44 4.836-.44.88-.44-6.154-1.319-5.715-3.956 0-1.319.44.44 11.87.44z" fill="#FDB924"/>
    <path d="M80.162 87.195c6.594 1.32 9.231 9.232 1.758 11.43 0 0-.879-.44-2.197-.88v-1.318c3.956-1.759 3.516-5.715-2.638-6.594-10.11-1.758-10.99-3.956-10.99-7.034 0-2.197 2.638-5.275 5.715-3.956.44 0 1.758.88 1.758 2.198-.44.88-2.198-.44-2.198 0s1.32 0 1.759.44c.44.879-1.319 1.758-2.638.879-.44 0-.44.88-.44 1.319.44 1.319 2.199 1.319 5.715 2.198 1.759.879 2.638.879 4.396 1.318z" fill="#FDB924"/>
    <path d="M80.162 87.195c6.594 1.32 9.231 9.232 1.758 11.43 0 0-.879-.44-2.197-.88v-1.318c3.956-1.759 3.516-5.715-2.638-6.594-10.11-1.758-10.99-3.956-10.99-7.034 0-2.197 2.638-5.275 5.715-3.956.44 0 1.758.88 1.758 2.198-.44.88-2.198-.44-2.198 0s1.32 0 1.759.44c.44.879-1.319 1.758-2.638.879-.44 0-.44.88-.44 1.319.44 1.319 2.199 1.319 5.715 2.198 1.759.879 2.638.879 4.396 1.318z" stroke="#ED1D24" stroke-width=".138" stroke-miterlimit="3.864"/>
    <path d="M71.81 88.954s2.198.879 3.517.879v1.319c-1.32.44-2.198 1.318-2.198 2.198 0 1.758.44 2.637 5.275 3.956 8.352 1.758 7.473 6.154 7.033 7.473-.44 1.758-2.198 3.077-3.956 3.517-.44 0-.44-.44-1.319-.88v-.879s1.758-1.319 1.758-2.637c0-.88 0-2.638-3.956-3.517-12.308-1.758-10.11-9.231-6.154-11.43z" fill="#FDB924"/>
    <path d="M71.81 88.954s2.198.879 3.517.879v1.319c-1.32.44-2.198 1.318-2.198 2.198 0 1.758.44 2.637 5.275 3.956 8.352 1.758 7.473 6.154 7.033 7.473-.44 1.758-2.198 3.077-3.956 3.517-.44 0-.44-.44-1.319-.88v-.879s1.758-1.319 1.758-2.637c0-.88 0-2.638-3.956-3.517-12.308-1.758-10.11-9.231-6.154-11.43z" stroke="#ED1D24" stroke-width=".138" stroke-miterlimit="3.864"/>
    <path d="M70.93 107.417c1.32 1.318 3.957 2.198 3.957 2.198 2.198.879 2.638.879 3.956 1.758 3.077.879 2.638 3.517 3.956 3.077 1.759-.44.88-3.956-1.758-5.715-2.198-1.318-3.077-1.318-4.396-2.198-3.956-1.758-4.396-3.956-1.319-6.154-1.318-.879-2.197-.879-3.077-1.319-2.197 1.319-4.395 5.275-1.318 8.353z" fill="#FDB924"/>
    <path d="M70.93 107.417c1.32 1.318 3.957 2.198 3.957 2.198 2.198.879 2.638.879 3.956 1.758 3.077.879 2.638 3.517 3.956 3.077 1.759-.44.88-3.956-1.758-5.715-2.198-1.318-3.077-1.318-4.396-2.198-3.956-1.758-4.396-3.956-1.319-6.154-1.318-.879-2.197-.879-3.077-1.319-2.197 1.319-4.395 5.275-1.318 8.353z" stroke="#ED1D24" stroke-width=".138" stroke-miterlimit="3.864"/>
    <path d="M30.928 24.774H17.741v30.331h13.187V24.774zM8.51 8.509h26.814l7.473 6.594v8.352H8.51V8.509z" fill="#FDB924"/>
  </g>
  <defs>
    <clipPath id="tampere-logo__clip0">
      <path fill="#fff" d="M0 0h110v125H0z"/>
    </clipPath>
  </defs>
</svg>
