<svg width="494" height="125" viewBox="0 0 494 125" fill="none" xmlns="http://www.w3.org/2000/svg">
<g clip-path="url(#clip0)">
<path d="M13.4036 75.9685C15.5213 70.5206 14.3112 64.77 27.0173 61.4407C41.236 57.8087 30.6476 45.0969 48.4966 40.8596C62.1103 37.5303 51.2193 22.6998 71.1861 19.6731C82.077 17.8571 75.724 5.14528 88.1275 0.90799H1C1 0.90799 1 55.9927 1 76.8765C1 79.6005 1.60505 82.6271 2.2101 85.6538C6.748 79.2978 10.0758 85.0484 13.4036 75.9685ZM31.5551 55.3874H18.244V24.8184H31.5551V55.3874V55.3874ZM8.56315 8.77724H35.7905L43.0511 15.1332V23.6077H31.5551H18.244H8.56315V8.77724Z" fill="white"/>
<path d="M110.514 0.605347V18.7652C92.968 20.2785 100.229 36.6223 86.6149 38.7409C68.7659 41.1622 80.2619 56.5981 62.1103 59.9274C48.4966 62.6513 56.9674 75.9685 43.0511 79.6005C28.5299 83.5351 33.0678 88.6804 28.5299 95.339C24.2945 101.695 17.3364 99.2736 13.7061 105.024C12.496 104.116 11.5884 102.603 10.3783 101.09C20.3617 114.407 37.6057 124.697 56.0598 124.697C86.3124 124.697 110.817 99.8789 110.817 76.5739L110.514 0.605347ZM72.3962 114.407C70.2785 113.801 71.4886 110.169 73.9088 109.261C75.1189 109.867 75.1189 109.564 76.0265 109.867V111.985C73.0012 112.288 74.5139 114.709 72.3962 114.407ZM92.0604 67.7966C94.1781 68.7046 97.2033 67.1913 97.2033 68.0993C96.5983 70.8233 90.8503 70.8233 90.5478 71.4286C90.2452 72.3366 94.7831 72.0339 94.7831 72.6392C95.0857 74.1526 87.825 74.4552 87.22 74.4552C86.6149 75.0605 90.2452 75.0605 89.9427 75.6659C89.3377 77.1792 84.4972 75.6659 84.1947 75.6659C83.5897 76.2712 86.6149 76.8765 85.7073 77.7845C85.4048 78.0872 82.077 78.0872 80.2619 76.2712V86.8644H80.5644C80.8669 86.8644 81.1694 86.8644 81.472 87.1671C81.1694 87.1671 80.8669 86.8644 80.5644 86.8644C79.9593 86.5618 84.7998 85.3511 84.7998 83.5351C84.7998 82.9298 84.4972 82.6271 84.1947 82.3245C82.9846 83.2325 81.7745 82.3245 82.3796 81.7191C82.9846 80.8111 83.5897 81.4165 83.5897 80.8111C83.5897 80.5085 81.7745 81.7191 81.7745 80.8111C81.7745 79.9032 82.6821 78.9952 83.2871 78.9952C86.0099 78.0872 89.0351 79.6005 89.3377 82.6271C89.6402 85.3511 88.4301 87.7724 85.1023 88.9831C85.1023 88.9831 84.7998 88.6804 84.1947 88.6804C87.825 91.4044 88.4301 96.8523 82.6821 98.6683C82.6821 98.6683 81.472 98.3656 80.5644 97.7603V96.5496C83.8922 95.0363 83.8922 92.0097 80.2619 90.799V97.7603C86.9174 99.8789 86.3124 103.511 85.7073 104.722C85.1023 106.538 83.5897 107.748 81.7745 108.354C81.472 108.354 81.1694 108.051 80.5644 107.446V106.538C80.5644 106.538 82.3796 105.327 82.3796 103.814C82.3796 102.906 82.3796 101.998 80.2619 101.09V107.748C80.5644 108.051 81.1694 108.051 81.472 108.354C84.1947 109.867 85.1023 113.499 83.2871 114.104C82.077 114.407 82.3796 112.288 80.2619 111.38V114.407C80.2619 116.525 76.329 117.131 76.6316 114.407V109.867C76.329 109.867 76.0265 109.564 75.724 109.564C75.724 109.564 73.3038 108.959 71.7911 107.446C68.7659 104.419 70.8836 100.484 73.0012 99.2736C73.9088 99.8789 74.8164 99.8789 76.0265 100.484C73.0012 102.603 73.0012 104.419 76.329 106.235V100.182C66.3457 97.7603 68.4634 90.799 72.3962 88.9831C72.3962 88.9831 74.5139 89.5884 76.0265 90.1937V91.4044C74.5139 91.707 73.6063 92.9177 73.6063 93.523C73.6063 95.0363 73.9088 95.6417 76.329 96.8523V90.1937C67.8583 88.3777 66.9507 86.2591 66.9507 83.5351C66.9507 81.4165 69.3709 78.3898 72.6987 79.2978C73.3038 79.6005 74.5139 80.5085 74.5139 81.4165C74.2113 82.3245 72.3962 81.1138 72.3962 81.7191C72.3962 82.0218 73.9088 82.0218 74.2113 82.3245C74.8164 82.9298 73.0012 84.1404 71.4886 82.9298C71.1861 83.2325 70.8836 83.8378 71.1861 84.4431C71.7911 85.6538 73.0012 85.9564 76.329 86.8644V76.8765C74.5139 78.6925 71.1861 78.6925 70.8836 78.3898C69.976 77.7845 73.0012 76.8765 72.3962 76.2712C72.0937 75.9685 67.2532 77.7845 66.6482 76.2712C66.3457 75.3632 69.976 75.6659 69.3709 75.0605C68.7659 75.0605 61.5052 75.0605 61.8078 73.2446C62.1103 72.6392 66.3457 72.9419 66.0431 72.0339C65.7406 71.4286 59.6901 71.4286 59.3876 68.7046C59.085 67.7966 62.1103 69.3099 64.5305 68.4019C65.4381 68.0993 58.1775 66.8886 58.7825 64.1647C59.085 63.2567 59.9926 65.3753 71.4886 64.77C71.4886 64.77 72.0937 67.1913 73.3038 68.4019C73.9088 69.3099 76.329 70.8233 76.329 66.8886C74.8164 65.9806 73.9088 64.4673 73.9088 62.954C73.9088 60.5327 76.0265 58.4141 78.4467 58.4141C80.8669 58.4141 82.9846 60.5327 82.9846 62.954C82.9846 64.77 82.077 65.9806 80.5644 66.8886C80.5644 70.8233 82.9846 69.3099 83.5897 68.4019C84.7998 67.1913 85.4048 64.77 85.4048 64.77C96.9008 65.0726 97.5059 63.2567 98.1109 64.1647C98.4134 66.586 91.1528 67.494 92.0604 67.7966Z" fill="white"/>
<path d="M28.5299 95.6416C33.0678 88.983 28.5299 83.8378 43.0511 79.9031C57.2699 76.2712 48.4966 62.6513 62.1103 60.23C80.2619 56.5981 69.0684 41.4649 86.6149 39.0436C100.229 37.2276 92.968 20.5811 110.514 19.0678V0.90799H88.1275C75.724 4.84261 82.077 17.8571 71.1861 19.6731C51.2194 22.6998 62.1103 37.5303 48.4966 40.8596C30.6476 45.0968 41.236 57.8087 27.0173 61.4407C14.3112 64.77 15.8238 70.5206 13.4036 75.9685C10.0758 84.7458 6.74801 79.2978 2.21011 85.3511C2.21011 85.6538 2.51264 86.2591 2.51264 86.5617C2.81517 87.4697 3.11769 88.3777 3.42022 89.2857C3.42022 89.5884 3.42022 89.5884 3.72274 89.891C4.3278 91.1017 4.93285 92.615 5.5379 93.8257C5.5379 94.1283 5.84043 94.1283 5.84043 94.431C6.44548 95.339 7.05053 96.5496 7.65558 97.4576C7.95811 97.7603 8.26064 98.3656 8.56316 98.6683C9.16822 99.5763 9.77327 100.484 10.6808 101.392C11.891 102.906 13.1011 104.116 14.0086 105.327C17.3364 99.5763 23.992 101.998 28.5299 95.6416Z" stroke="white" stroke-width="0.5" stroke-miterlimit="3.8637"/>
<path d="M164.364 38.4383V79.6005H152.868V38.4383H137.439V28.753H179.793V38.4383H164.364Z" fill="white"/>
<path d="M190.684 69.6126L186.751 79.6005H174.953L197.037 28.753H208.835L230.617 79.6005H218.214L214.281 69.6126H190.684ZM202.482 40.5569L194.617 60.23H210.651L202.482 40.5569Z" fill="white"/>
<path d="M280.837 79.6005V45.0968L267.223 74.4552H259.66L246.046 45.3995V79.6005H235.76V28.753H248.466L263.29 59.9274L278.114 28.753H290.82V79.6005H280.837Z" fill="white"/>
<path d="M323.795 28.753C336.804 28.753 344.065 35.109 344.065 46.3075C344.065 58.1114 336.804 65.0726 323.795 65.0726H313.812V79.6005H302.316V28.753H323.795ZM313.812 55.3874H323.19C329.543 55.3874 333.174 52.3608 333.174 46.6102C333.174 40.8596 329.543 38.1356 323.19 38.1356H313.812V55.3874Z" fill="white"/>
<path d="M362.821 38.1356V49.0315H387.326V58.414H362.821V69.6126H390.956V78.9952H351.325V28.753H390.049V38.1356H362.821Z" fill="white"/>
<path d="M423.024 65.0726H421.814H411.226V79.6005H399.73V28.753H421.814C435.125 28.753 442.688 35.109 442.688 46.3075C442.688 54.1768 439.36 59.9274 433.31 62.6513L444.201 79.2978H431.192L423.024 65.0726ZM422.116 55.3874C428.47 55.3874 432.1 52.3608 432.1 46.6102C432.1 40.8596 428.47 38.1356 422.116 38.1356H411.528V55.3874H422.116Z" fill="white"/>
<path d="M463.865 38.1356V49.0315H488.37V58.414H463.865V69.6126H492V78.9952H452.369V28.753H491.092V38.1356H463.865Z" fill="white"/>
</g>
<defs>
<clipPath id="clip0">
<rect width="491" height="125" fill="white" transform="translate(3)"/>
</clipPath>
</defs>
</svg>
