<svg width="494" height="125" viewBox="0 0 494 125" fill="none" xmlns="http://www.w3.org/2000/svg">
<g clip-path="url(#clip0)">
<g clip-path="url(#clip1)">
<path d="M-1 0H109.401V76.3382C109.401 99.7567 84.7664 124.696 54.3528 124.696C25.1557 125 -1 99.4526 -1 76.6423C-1 55.3528 -1 0 -1 0Z" fill="#ED1C24"/>
<path d="M0.216522 85.1581C4.77857 79.0754 8.12407 84.5498 11.4696 75.7299C13.5985 70.2554 12.382 64.4768 25.1557 61.1313C39.4501 57.4817 28.8053 44.708 46.7494 40.4501C60.4355 37.1046 49.4866 22.2019 69.5596 19.1605C80.8126 17.3357 74.1216 4.25785 86.8954 0.304077H109.097V18.5523C91.4574 20.0729 98.7567 36.4963 85.0705 38.6252C67.1265 41.0583 78.6837 56.5693 60.4355 59.9148C46.7494 62.652 55.2652 76.034 41.2749 79.6836C26.6764 83.6374 31.2384 88.8077 26.6764 95.4987C22.4185 101.886 15.4233 99.4525 11.7737 105.231C7.21166 100.973 1.7372 92.4574 0.216522 85.1581Z" fill="#FDB924"/>
<path d="M83.2457 83.6375C83.2457 85.4623 78.3795 86.6788 78.9878 86.983C81.725 88.1995 83.2457 89.1119 83.2457 89.1119C86.5912 87.8954 87.8078 85.1581 87.5036 82.725C87.1995 79.6837 84.1581 78.163 81.4209 79.0754C80.8126 79.3795 79.9002 79.9878 79.9002 80.9002C79.9002 81.8126 81.725 80.5961 81.725 80.9002C81.725 81.5085 81.1168 80.9002 80.5085 81.8126C80.2043 82.4209 81.4209 83.3333 82.3333 82.4209C82.9416 82.725 83.2457 83.0292 83.2457 83.6375Z" fill="#FDB924" stroke="#ED1C24" stroke-width="0.2203" stroke-miterlimit="3.8637"/>
<path d="M74.4258 109.793V111.922C71.3844 112.226 72.9051 114.659 70.7762 114.355C68.6472 113.747 69.8637 110.097 72.2968 109.185C73.2092 109.793 73.2092 109.489 74.4258 109.793Z" fill="#FDB924" stroke="#ED1C24" stroke-width="0.2203" stroke-miterlimit="3.8637"/>
<path d="M69.2555 64.1728C69.2555 64.1728 69.8637 66.6058 71.0803 67.8224C71.6886 68.7348 74.1217 70.2555 74.1217 66.3017C72.601 65.3893 71.6886 63.8686 71.6886 62.3479C71.6886 59.9148 73.8175 57.7859 76.2506 57.7859C78.6837 57.7859 80.8127 59.9148 80.8127 62.3479C80.8127 64.1728 79.9002 65.3893 78.6837 66.3017C78.6837 70.2555 81.1168 68.7348 81.7251 67.8224C82.9416 66.6058 83.5499 64.1728 83.5499 64.1728C95.1071 64.4769 95.7153 62.6521 96.3236 63.5645C96.9319 66.3017 89.6326 67.5182 90.545 67.8224C92.674 68.7348 95.7153 67.2141 95.7153 68.1265C95.1071 70.8637 89.3285 70.8637 89.0243 71.472C88.7202 72.3844 93.2822 72.0803 93.2822 72.6886C93.5864 74.2092 86.2871 74.5134 85.6788 74.5134C85.0706 75.1217 88.7202 75.1217 88.4161 75.7299C87.8078 77.2506 82.9416 75.7299 82.6375 75.7299C82.0292 76.3382 85.0706 76.9465 84.1581 77.8589C83.854 78.163 80.5085 78.163 78.6837 76.3382L78.3796 114.355C78.3796 116.484 74.4258 117.092 74.7299 114.355V76.0341C72.9051 77.8589 69.5596 77.8589 69.2555 77.5547C68.3431 76.9465 71.3844 76.0341 70.7762 75.4258C70.472 75.1217 65.6058 76.9465 64.9976 75.4258C64.6934 74.5134 68.3431 74.8175 67.7348 74.2092C67.1265 74.2092 59.8272 74.2092 60.1314 72.3844C60.4355 71.7762 64.6934 72.0803 64.3893 71.1679C64.0852 70.5596 58.0024 70.5596 57.6983 67.8224C57.3942 66.91 60.4355 68.4307 62.8686 67.5183C63.781 67.2141 56.4818 65.9976 57.09 63.2603C57.09 62.6521 58.0024 64.4769 69.2555 64.1728Z" fill="#FDB924"/>
<path d="M78.9878 86.9829C85.3747 88.1995 88.1119 96.4111 80.8126 98.5401C80.8126 98.5401 79.5961 97.9318 78.6837 97.6277V96.4111C82.9416 94.8905 82.0292 90.9367 76.2506 90.0243C65.91 88.1995 65.3017 86.0705 65.3017 82.725C65.3017 80.5961 67.7348 77.5547 71.0803 78.4671C71.6886 78.7712 73.2092 79.6837 72.9051 80.5961C72.601 81.5085 70.7762 80.2919 70.7762 80.9002C70.7762 81.2043 72.2968 81.2043 72.601 81.5085C73.2092 82.1167 71.3844 83.3333 69.8637 82.1167C69.5596 82.4209 69.2555 83.0292 69.5596 83.6374C70.1679 84.854 71.6886 85.1581 75.3382 86.0705C76.2506 86.3746 76.8589 86.3746 78.9878 86.9829Z" fill="#FDB924" stroke="#ED1C24" stroke-width="0.2203" stroke-miterlimit="3.8637"/>
<path d="M70.4721 88.8078C70.4721 88.8078 72.601 89.4161 74.1217 90.0243V91.2409C72.601 91.545 71.6886 92.7616 71.6886 93.3698C71.3845 95.1947 71.9927 95.8029 76.8589 97.3236C85.3747 99.1484 84.4623 103.406 84.1582 104.927C83.5499 106.752 82.0292 107.968 80.2044 108.577C79.9003 108.577 79.5961 108.273 78.9879 107.664V106.752C78.9879 106.752 80.8127 105.535 80.8127 104.015C80.8127 102.798 80.8127 101.582 76.5548 100.365C64.3893 98.5402 66.5183 90.9368 70.4721 88.8078Z" fill="#FDB924" stroke="#ED1C24" stroke-width="0.2203" stroke-miterlimit="3.8637"/>
<path d="M69.8638 107.36C71.3844 108.881 73.8175 109.489 73.8175 109.489C76.2506 110.706 76.2506 110.706 77.7713 111.314C80.8127 112.53 80.2044 114.963 81.7251 114.659C83.5499 114.051 82.6375 110.401 79.9003 108.881C77.7713 107.664 76.5548 107.36 75.3382 106.752C71.3844 104.927 71.0803 102.798 74.1217 100.365C72.601 99.7567 71.9927 99.7566 71.0803 99.1484C68.6472 100.365 66.5183 104.015 69.8638 107.36Z" fill="#FDB924" stroke="#ED1C24" stroke-width="0.2203" stroke-miterlimit="3.8637"/>
<path d="M29.7178 24.3309V55.0486H16.3358V24.3309H29.7178Z" fill="#FDB924"/>
<path d="M6.60339 8.21173H33.9757L41.2749 14.2945V22.8103H29.7177H16.3358H6.60339V8.21173Z" fill="#FDB924"/>
<path d="M166.275 40.146V81.5085H154.718V40.146H139.207V30.4136H181.786V40.146H166.275Z" fill="white"/>
<path d="M192.735 71.472L188.781 81.5085H176.92L199.122 30.4136H210.983L232.881 81.5085H220.411L216.457 71.472H192.735ZM204.596 42.5791L196.689 62.3479H212.808L204.596 42.5791Z" fill="white"/>
<path d="M283.367 81.5085V47.1411L269.681 76.3382H262.078L248.392 47.1411V81.5085H238.051V30.4136H250.825L265.728 61.7397L280.63 30.4136H293.404V81.5085H283.367Z" fill="white"/>
<path d="M326.555 30.4136C339.633 30.4136 346.932 36.8005 346.932 48.0535C346.932 59.9149 339.633 66.91 326.555 66.91H316.518V81.5085H304.961V30.4136H326.555ZM316.518 57.1776H325.947C332.333 57.1776 335.983 54.1363 335.983 48.3577C335.983 42.5791 332.333 39.8419 325.947 39.8419H316.518V57.1776Z" fill="white"/>
<path d="M365.788 39.8419V50.7908H390.423V60.219H365.788V71.472H394.073V80.9003H354.231V30.4136H393.161V39.8419H365.788Z" fill="white"/>
<path d="M426.311 66.91H425.095H414.45V81.5085H402.893V30.4136H425.095C438.477 30.4136 446.08 36.8005 446.08 48.0535C446.08 55.9611 442.735 61.7397 436.652 64.4769L447.601 81.2044H434.523L426.311 66.91ZM425.399 57.1776C431.786 57.1776 435.436 54.1363 435.436 48.3577C435.436 42.5791 431.786 39.8419 425.399 39.8419H414.754V57.1776H425.399Z" fill="white"/>
<path d="M467.37 39.8419V50.7908H492.005V60.219H467.37V71.472H495.655V80.9003H455.813V30.4136H494.742V39.8419H467.37Z" fill="white"/>
</g>
</g>
<defs>
<clipPath id="clip0">
<rect width="494" height="125" fill="white"/>
</clipPath>
<clipPath id="clip1">
<rect width="496.655" height="125" fill="white" transform="translate(-1)"/>
</clipPath>
</defs>
</svg>
