<svg xmlns="http://www.w3.org/2000/svg" viewBox="0 0 425 582"><path d="M72.032 561.329h-4.721v8.785h-4.202v-30.559h9.112a10.766 10.766 0 0 1 10.032 14.555 10.77 10.77 0 0 1-4.272 5.283 12.22 12.22 0 0 1-5.76 1.936h-.189Zm-4.532-4.251h4.72a6.654 6.654 0 0 0 6.658-6.659 6.654 6.654 0 0 0-6.657-6.66H67.5v13.319Zm22.237 8.171-2.125 4.723h-4.721l13.22-30.7 13.266 30.7h-4.721l-2.03-4.723h-12.89Zm6.468-14.642-4.721 10.675h9.442l-4.721-10.675Zm38.1 19.365h-4.721l-5.146-10.013h-5.949v10.013h-4.107v-30.606h8.734a10.342 10.342 0 0 1 10.009 10.297 10.26 10.26 0 0 1-4.721 8.549l5.901 11.76Zm-5.24-20.215a6.19 6.19 0 0 0-6.138-6.14h-4.438v12.28h4.438a6.138 6.138 0 0 0 6.138-6.14Zm15.957 15.492-2.171 4.723h-4.722l13.267-30.7 13.267 30.7h-4.722l-2.077-4.723h-12.842Zm6.468-14.642-4.721 10.675h9.443l-4.722-10.675Zm25.259 19.365a11.562 11.562 0 0 1-9.159-4.345l1.747-2.975a9.765 9.765 0 0 0 7.459 3.731h1.134a5.381 5.381 0 0 0 5.523-5.29c0-2.976-2.36-4.204-5.523-4.723a20.215 20.215 0 0 0-2.031-.331c-4.343-.85-8.215-3.353-8.215-7.935a8.407 8.407 0 0 1 8.215-8.454h.661a10.521 10.521 0 0 1 7.838 3.353l-1.984 3.637a7.876 7.876 0 0 0-5.854-3.07h-.661a4.72 4.72 0 0 0-4.249 4.723c0 2.314 1.605 3.59 4.249 3.92h2.125c5.193.662 9.112 3.637 9.112 8.785a9.089 9.089 0 0 1-2.738 6.402 9.064 9.064 0 0 1-6.468 2.572h-1.181Zm36.967-30.511v4.062l-10.245-.048.095 26.639h-4.344l.047-26.639h-10.103v-4.014h24.55Zm4.627 25.788-2.172 4.723h-4.721l13.267-30.7 13.266 30.7h-4.721l-2.03-4.723h-12.889Zm6.468-14.642-4.721 10.675h9.443l-4.722-10.675Zm35.787 14.642-2.172 4.723h-4.721l13.267-30.7 13.267 30.7h-4.722l-2.077-4.723h-12.842Zm6.468-14.642-4.721 10.675h9.442l-4.721-10.675Zm20.915-11.099h-4.249v30.653h4.249v-30.653Zm16.855 17.948 9.915 12.611h-4.958l-7.223-8.36-4.91 8.36h-3.966v-30.512h3.966v22.624l12.417-22.624h4.863l-10.104 17.901Zm20.254 7.793-2.124 4.723h-4.722l13.22-30.7 13.267 30.7h-4.722l-2.03-4.723H325.09Zm6.468-14.642-4.721 10.675h9.443l-4.722-10.675Zm23.465 14.642-2.125 4.723h-4.721l13.22-30.7 13.266 30.7h-4.721l-2.03-4.723h-12.889Zm6.468-14.642-4.721 10.675h9.442l-4.721-10.675ZM180.857 500.4v11.477h-39.47v-58.189h11.473V500.4h27.997Zm55.568 11.477h-15.107l-14.023-16.011-7.459 11.336v4.675h-11.473v-58.189h11.473v32.684l21.482-32.684h13.455l-21.057 32.165 22.709 26.024Zm120.486-58.189v58.189h-11.425v-5.242l-25.259-33.818v39.06h-11.472v-58.189h11.472l25.259 33.818v-33.818h11.425Zm50.943 46.712v11.477h-40.131v-58.189h38.242v11.43h-26.817v17.712h17.044v11.477h-17.044v6.093h28.706ZM48.379 453.641H31.524v58.331h11.425v-10.958h5.43c14.683 0 26.722-10.013 26.722-24.041s-12.04-23.238-26.722-23.238v-.094Zm0 37.454h-5.43v-27.441h5.43c8.923 0 16.24 4.723 16.24 13.319s-7.317 14.17-16.24 14.17m47.684-44.398a5.617 5.617 0 0 1-5.618-5.621 5.622 5.622 0 0 1 5.618-5.62 5.618 5.618 0 0 1 5.618 5.62 5.618 5.618 0 0 1-5.618 5.621Zm20.585 0a5.42 5.42 0 0 1-4.901-3.527 5.455 5.455 0 0 1-.34-2.094 5.529 5.529 0 0 1 5.571-5.573 5.619 5.619 0 0 1 5.618 5.621 5.62 5.62 0 0 1-5.618 5.62l-.33-.047Zm18.649 65.227-23.371-58.237h-11.425l-23.37 58.237h11.425l4.297-10.533a28.326 28.326 0 0 0 13.314 3.307 28.61 28.61 0 0 0 13.408-3.307l4.249 10.533h11.473Zm-29.13-43.878 3.446 8.596 5.949 14.831a18.503 18.503 0 0 1-9.443 2.503 18.031 18.031 0 0 1-9.442-2.551l9.49-23.379Zm157.5-21.349a5.43 5.43 0 0 1-5.335-5.668 5.527 5.527 0 0 1 5.477-5.573 5.62 5.62 0 0 1 0 11.241h-.142Zm20.584 0a5.433 5.433 0 0 1-3.863-1.707 5.432 5.432 0 0 1-1.472-3.961 5.53 5.53 0 0 1 5.571-5.573 5.62 5.62 0 0 1 0 11.241h-.236Zm18.697 65.227-23.606-58.237h-11.473l-23.087 58.237h11.425l4.297-10.533a28.324 28.324 0 0 0 13.314 3.307 28.61 28.61 0 0 0 13.408-3.307l4.249 10.533h11.473Zm-29.13-43.878 3.446 8.596 5.949 14.831a18.651 18.651 0 0 1-18.885 0l9.49-23.427Zm-1.889-415.025a5.619 5.619 0 0 0-5.618-5.668h-.425a5.662 5.662 0 0 0-5.665 5.668v6.045h11.708V53.07ZM37.85 365.554c2.928 5.856 6.232 12.563 13.078 12.563 6.846 0 10.104-6.707 13.078-12.563 2.974-5.857 5.335-10.722 10.103-10.722 4.769 0 7.366 5.196 10.151 10.722s6.232 12.563 13.078 12.563c6.846 0 10.103-6.707 13.03-12.563 2.928-5.857 5.383-10.722 10.151-10.722h1.086c4.721 0 7.365 5.196 10.103 10.722 2.739 5.526 6.28 12.563 13.078 12.563 6.799 0 10.151-6.707 13.078-12.563 2.927-5.857 5.335-10.722 10.151-10.722 4.815 0 7.365 5.196 10.103 10.722 2.739 5.526 6.28 12.563 13.078 12.563 6.799 0 10.151-6.707 13.078-12.563 2.927-5.857 5.335-10.722 10.151-10.722h1.605v-3.448h-1.605c-6.846 0-10.151 6.66-13.078 12.564-2.928 5.904-5.382 11.052-10.151 11.052-4.768 0-7.365-5.195-10.103-10.722-2.739-5.526-6.28-12.894-13.031-12.894s-10.151 6.66-13.078 12.564c-2.927 5.904-5.382 10.721-10.151 10.721-4.768 0-7.365-5.195-10.103-10.721-2.738-5.526-6.09-12.186-12.511-12.517H120c-6.421.331-9.679 6.802-12.511 12.517-2.833 5.715-5.524 11.052-10.246 11.052-4.72 0-7.412-5.195-10.15-10.722-2.739-5.526-6.138-12.894-12.984-12.894-6.845 0-10.15 6.66-13.077 12.564C58.104 369.852 55.697 375 50.928 375c-4.768 0-7.412-5.195-10.15-10.722-2.739-5.526-6.233-12.563-13.078-12.563h-1.653v3.306H27.7c4.72 0 7.412 5.196 10.15 10.722m368.068-226.335h-1.794c-6.846 0-10.198 6.707-13.172 12.658-2.975 5.952-5.383 10.769-10.198 10.769-4.816 0-7.413-5.243-10.151-10.769-2.738-5.526-6.327-12.658-13.172-12.658-6.846 0-10.198 6.707-13.172 12.658-2.975 5.952-5.336 10.769-10.151 10.769-4.816 0-7.318-5.101-10.245-10.769-2.927-5.667-6.09-12.233-12.559-12.61h-2.266c-6.468.377-9.442 6.848-12.558 12.61-3.116 5.763-5.383 10.769-10.198 10.769-4.816 0-7.413-5.243-10.198-10.769-2.786-5.526-6.279-12.658-13.125-12.658s-10.198 6.707-13.172 12.658c-2.975 5.952-5.383 10.769-10.198 10.769-4.816 0-7.224-5.101-10.151-10.769-2.927-5.667-6.279-12.658-13.125-12.658h-1.652v3.354h1.652c4.721 0 7.412 5.242 10.198 10.769 2.785 5.526 6.279 12.61 13.125 12.61s10.198-6.707 13.172-12.61c2.975-5.904 5.382-10.769 10.198-10.769 4.816 0 7.412 5.242 10.151 10.769 2.738 5.526 6.326 12.61 13.172 12.61 6.846 0 10.198-6.707 13.172-12.61 2.975-5.904 5.382-10.769 10.151-10.769h1.086c4.721 0 7.412 5.242 10.198 10.769 2.785 5.526 6.279 12.61 13.172 12.61 6.893 0 10.198-6.707 13.125-12.61 2.927-5.904 5.382-10.769 10.198-10.769 4.815 0 7.412 5.242 10.198 10.769 2.785 5.526 6.279 12.61 13.125 12.61 6.845 0 10.245-6.707 13.172-12.61 2.927-5.904 5.382-10.769 10.198-10.769h1.652l.142-3.354Z" fill="#fff"/><path d="M216.455 166.189c4.721 0 7.412 5.242 10.197 10.816 2.786 5.573 6.28 12.611 13.126 12.611 6.845 0 10.197-6.707 13.172-12.611 2.974-5.904 5.382-10.816 10.198-10.816 4.815 0 7.412 5.242 10.15 10.816 2.739 5.573 6.327 12.611 13.173 12.611 6.845 0 10.197-6.707 13.172-12.611 2.974-5.904 5.382-10.816 10.151-10.816h1.085c4.722 0 7.46 5.242 10.198 10.816 2.738 5.573 6.28 12.611 13.173 12.611s10.197-6.707 13.124-12.611c2.928-5.904 5.383-10.816 10.198-10.816 4.816 0 7.413 5.242 10.198 10.816 2.786 5.573 6.28 12.611 13.125 12.611 6.846 0 10.245-6.707 13.173-12.611 2.927-5.904 5.382-10.816 10.198-10.816h1.652v-3.307h-1.794c-6.846 0-10.198 6.707-13.172 12.611-2.975 5.904-5.383 10.816-10.198 10.816-4.816 0-7.413-5.242-10.151-10.816-2.738-5.573-6.326-12.611-13.172-12.611-6.846 0-10.198 6.707-13.172 12.611-2.975 5.904-5.336 10.816-10.151 10.816-4.816 0-7.46-5.242-10.198-10.816-2.738-5.573-6.091-12.233-12.559-12.563h-2.266c-6.468.33-9.442 6.848-12.558 12.563-3.116 5.715-5.382 10.816-10.198 10.816-4.816 0-7.412-5.242-10.198-10.816-2.785-5.573-6.279-12.611-13.125-12.611s-10.198 6.707-13.172 12.611c-2.975 5.904-5.383 10.816-10.198 10.816-4.816 0-7.412-5.242-10.198-10.816-2.785-5.573-6.279-12.611-13.125-12.611h-19.688v1.37a28.342 28.342 0 0 0-1.652-9.446l16.524-7.038-1.274-3.023-16.572 7.038a28.03 28.03 0 0 0-4.249-6.235l12.747-12.752-2.313-2.314-12.747 12.752a28.324 28.324 0 0 0-17.186-7.179V118.06h-3.305v17.995c-3.25.163-6.447.898-9.442 2.172l1.369-.614-7.035-16.578-3.021 1.275 7.034 16.579 1.37-.567a28.805 28.805 0 0 0-14.495 14.17l-16.666-6.707-1.227 3.022 16.713 6.755a27.607 27.607 0 0 0-1.511 8.879v-1.559h-18.035v3.259h18.035v-1.416a28.637 28.637 0 0 0 1.653 9.446l-16.525 7.037 1.275 3.023 16.572-7.085a27.22 27.22 0 0 0 4.249 6.282l-12.747 12.753 2.313 2.314 12.747-12.752a28.327 28.327 0 0 0 17.233 7.132v18.042h3.257v-18.042a27.614 27.614 0 0 0 9.443-2.126l-1.369.614 7.034 16.578 3.022-1.275-7.035-16.625-1.369.614a28.33 28.33 0 0 0 14.494-14.17l16.666 6.754 1.228-3.07-16.666-6.707a27.778 27.778 0 0 0 1.463-8.879v1.558h19.688l.142.048Zm-48.063 23.616a25.298 25.298 0 0 1-14.059-4.267 25.316 25.316 0 0 1-10.76-25.989 25.31 25.31 0 0 1 19.883-19.89 25.293 25.293 0 0 1 25.977 10.764 25.323 25.323 0 0 1 4.265 14.065 25.366 25.366 0 0 1-7.425 17.888 25.352 25.352 0 0 1-17.881 7.429" fill="#fff"/><path d="m189.543 183.55-2.303 2.304 12.752 12.758 2.304-2.304-12.753-12.758Zm-52.732-53.147-2.304 2.304 12.753 12.758 2.304-2.304-12.753-12.758Zm31.581 18.735a15.297 15.297 0 0 0-14.132 9.447 15.31 15.31 0 0 0 3.316 16.677 15.292 15.292 0 0 0 23.535-2.319 15.304 15.304 0 0 0-12.719-23.805m15.988-28.232-6.738 16.736 3.022 1.218 6.738-16.736-3.022-1.218Zm-28.091 69.399-6.739 16.736 3.022 1.218 6.738-16.736-3.021-1.218Zm57.899 68.127h48.251l-24.125-24.135-24.126 24.135Zm72.33 24.136 24.125-24.136h-48.204l24.079 24.136Z" fill="#fff"/><path d="m286.518 234.297-24.079-24.136v48.271l24.079-24.135Zm24.125-24.136-24.125 24.136 24.125 24.135v-48.271Zm-72.329 72.407 24.125 24.135v-48.271l-24.125 24.136Zm144.517-48.318h24.031v-24.041l-24.031 24.041Zm24.031 24.04v-24.04l-24.031 24.04h24.031Zm-48.062 0h24.031L358.8 234.25l-24.031 24.04H358.8Zm48.062 24.041V258.29l-24.031 24.041h24.031Zm-48.062 0h24.031L358.8 258.29l-24.031 24.041H358.8Zm24.031-48.081L358.8 210.209l-24.031 24.041h48.062Zm-72.093 24.04v24.041h24.031l-24.031-24.041Zm0-24.04v24.04h24.031l-24.031-24.04Zm0-24.041v24.041h24.031l-24.031-24.041Z" fill="#fff"/><path d="M383.209 305.569h-1.133L358.8 282.331l-23.229 23.238h-1.557l-23.276-23.238v24.041h18.224a24.038 24.038 0 0 0-17.563 19.554 24.28 24.28 0 0 0-16.619-19.27h15.863l-24.078-24.136-24.078 24.136h18.035a24.187 24.187 0 0 0-16.619 20.026 24.134 24.134 0 0 0-23.37-21.113h-.425a24.024 24.024 0 0 0-16.465 6.533 24.044 24.044 0 0 0-7.519 16.044h-1.652c-6.799 0-10.104 6.66-13.031 12.564-2.927 5.904-5.476 10.674-10.245 10.674-4.768 0-7.365-5.195-10.151-10.721-2.785-5.526-6.232-12.564-13.03-12.564-6.799 0-10.151 6.66-13.078 12.564-2.927 5.904-5.382 10.721-10.151 10.721-4.768 0-7.365-5.195-10.103-10.721-2.739-5.526-6.091-12.186-12.511-12.517h-2.219c-6.421.331-9.679 6.802-12.512 12.517-2.832 5.715-5.476 10.721-10.198 10.721-4.72 0-7.412-5.195-10.15-10.721-2.739-5.526-6.232-12.564-13.078-12.564-6.846 0-10.15 6.66-13.078 12.564-2.927 5.904-5.24 10.721-10.009 10.721-4.768 0-7.412-5.195-10.15-10.721-2.739-5.526-6.233-12.564-13.078-12.564h-1.653v3.306H27.7c4.72 0 7.412 5.196 10.15 10.722 2.739 5.526 6.232 12.563 13.078 12.563 6.846 0 10.104-6.659 13.078-12.563 2.974-5.904 5.335-10.722 10.103-10.722 4.769 0 7.366 5.196 10.151 10.722 2.786 5.526 6.232 12.563 13.078 12.563 6.846 0 10.103-6.659 13.03-12.563 2.928-5.904 5.383-10.722 10.151-10.722h1.086c4.721 0 7.365 5.196 10.103 10.722 2.739 5.526 6.28 12.563 13.078 12.563 6.799 0 10.151-6.659 13.078-12.563 2.927-5.904 5.335-10.722 10.151-10.722 4.815 0 7.365 5.196 10.103 10.722 2.739 5.526 6.28 12.563 13.078 12.563 6.799 0 10.151-6.659 13.078-12.563 2.927-5.904 5.335-10.722 10.103-10.722h1.653v-.425a24.137 24.137 0 0 0 20.773 22.388A24.032 24.032 0 0 0 216.077 375a11.03 11.03 0 0 0-1.747-.331c-6.799-.378-10.103 6.66-13.031 12.517-2.927 5.856-5.382 10.721-10.15 10.721-4.769 0-7.365-5.195-10.151-10.721-2.785-5.526-6.232-12.517-13.03-12.517-6.799 0-10.151 6.66-13.078 12.517-2.927 5.856-5.382 10.721-10.151 10.721-4.768 0-7.365-5.195-10.103-10.721-2.739-5.526-6.091-12.139-12.512-12.517h-2.219c-6.421.378-9.678 6.802-12.511 12.517-2.833 5.715-5.335 10.721-10.103 10.721-4.769 0-7.413-5.195-10.151-10.721-2.738-5.526-6.232-12.517-13.078-12.517-6.846 0-10.15 6.66-13.078 12.517-2.927 5.856-5.335 10.721-10.103 10.721-4.769 0-7.412-5.195-10.15-10.721-2.74-5.526-6.233-12.517-13.079-12.517H26v3.259h1.652c4.722 0 7.413 5.243 10.151 10.722 2.738 5.479 6.232 12.564 13.078 12.564 6.846 0 10.103-6.66 13.078-12.564 2.974-5.904 5.335-10.722 10.103-10.722 4.769 0 7.365 5.243 10.15 10.722 2.786 5.479 6.233 12.564 13.079 12.564 6.845 0 10.103-6.66 13.03-12.564 2.927-5.904 5.383-10.722 10.151-10.722h1.086c4.721 0 7.365 5.243 10.103 10.722 2.739 5.479 6.279 12.564 13.078 12.564 6.799 0 10.151-6.66 13.078-12.564 2.927-5.904 5.335-10.722 10.151-10.722 4.815 0 7.365 5.243 10.103 10.722 2.738 5.479 6.279 12.564 13.078 12.564 6.798 0 10.15-6.66 13.078-12.564 2.927-5.904 5.335-10.958 10.103-10.722l1.7.331v.331a24.04 24.04 0 0 0 7.518 16.044 24.025 24.025 0 0 0 16.466 6.532h.425a24.163 24.163 0 0 0 15.592-6.227 24.189 24.189 0 0 0 7.778-14.885 24.085 24.085 0 0 0 23.842 21.112h.425a24.115 24.115 0 0 0 15.325-5.958 24.136 24.136 0 0 0 7.95-14.398 24.043 24.043 0 0 0 8.058 14.525 24.017 24.017 0 0 0 15.549 5.831h.472a24.166 24.166 0 0 0 15.593-6.227 24.187 24.187 0 0 0 7.777-14.885 24.047 24.047 0 0 0 7.836 14.996 24.023 24.023 0 0 0 15.77 6.116h.425a23.973 23.973 0 0 0 16.304-6.635 23.998 23.998 0 0 0-13.566-41.163 23.981 23.981 0 0 0 14.798-7.28 24.003 24.003 0 0 0 1.886-30.926 23.986 23.986 0 0 0-13.804-9.026h18.083v-24.041l-23.229 23.238h-.425l.331.236Zm-6.941.567a24.078 24.078 0 0 0-11.928 7.457 24.095 24.095 0 0 0-5.729 12.853 24.187 24.187 0 0 0-17.752-20.31h35.409Zm-8.687 23.238a24.031 24.031 0 0 0 14.825-14.453 24.228 24.228 0 0 0 14.872 14.453 24.029 24.029 0 0 0-14.872 14.406 23.845 23.845 0 0 0-14.825-14.406Zm13.409 21.065a21.149 21.149 0 0 1-19.641-19.459 21.195 21.195 0 0 1 13.413 6.069 21.218 21.218 0 0 1 6.228 13.343v.047Zm-19.357-22.671a21.103 21.103 0 0 1 19.64-19.412 21.21 21.21 0 0 1-6.228 13.343 21.192 21.192 0 0 1-13.412 6.069Zm-5.477 3.354a21.165 21.165 0 0 1-6.203 13.383 21.145 21.145 0 0 1-13.437 6.076 21.16 21.16 0 0 1 19.64-19.459Zm-21.104 12.752a23.853 23.853 0 0 0-14.825-14.405 24.027 24.027 0 0 0 14.825-14.453 24.236 24.236 0 0 0 14.872 14.453 24.026 24.026 0 0 0-14.872 14.405Zm1.464-35.518a21.1 21.1 0 0 1 13.433 6.047 21.115 21.115 0 0 1 6.207 13.365 21.144 21.144 0 0 1-13.423-6.058 21.16 21.16 0 0 1-6.217-13.354Zm-2.88 0a21.21 21.21 0 0 1-6.228 13.343 21.195 21.195 0 0 1-13.413 6.069 21.103 21.103 0 0 1 19.641-19.412Zm0 42.178a21.161 21.161 0 0 1-19.641-19.459 21.199 21.199 0 0 1 19.641 19.412v.047Zm-24.881-22.766a21.154 21.154 0 0 1-19.64-19.412 21.1 21.1 0 0 1 13.433 6.047 21.12 21.12 0 0 1 6.207 13.365Zm0 3.354a21.165 21.165 0 0 1-6.203 13.383 21.145 21.145 0 0 1-13.437 6.076 21.212 21.212 0 0 1 6.213-13.373 21.192 21.192 0 0 1 13.427-6.086Zm-21.057 12.752a24.048 24.048 0 0 0-5.806-8.887 24.019 24.019 0 0 0-9.066-5.518 24.228 24.228 0 0 0 14.872-14.453 24.027 24.027 0 0 0 14.825 14.453 23.836 23.836 0 0 0-14.825 14.405Zm-1.463-35.518a21.207 21.207 0 0 1-19.641 19.412 21.103 21.103 0 0 1 19.641-19.412Zm0 42.178a21.15 21.15 0 0 1-13.438-6.076 21.165 21.165 0 0 1-6.203-13.383 21.16 21.16 0 0 1 19.641 19.412v.047Zm-44.758-42.225a21.103 21.103 0 0 1 19.641 19.412 21.195 21.195 0 0 1-13.413-6.069 21.21 21.21 0 0 1-6.228-13.343Zm13.409 21.112a23.843 23.843 0 0 0-14.825 14.406 24.048 24.048 0 0 0-14.872-14.406 24.224 24.224 0 0 0 14.872-14.452 24.04 24.04 0 0 0 14.825 14.452Zm6.232 1.654a21.165 21.165 0 0 1-6.203 13.383 21.15 21.15 0 0 1-13.438 6.076 21.213 21.213 0 0 1 6.214-13.373 21.19 21.19 0 0 1 13.427-6.086Zm-22.521-22.766a21.162 21.162 0 0 1-6.217 13.354 21.149 21.149 0 0 1-13.423 6.058c.397-5.056 2.6-9.8 6.207-13.365a21.1 21.1 0 0 1 13.433-6.047Zm-19.64 22.766a21.144 21.144 0 0 1 13.423 6.058 21.16 21.16 0 0 1 6.217 13.354 21.15 21.15 0 0 1-13.437-6.076 21.162 21.162 0 0 1-6.203-13.384v.048Zm19.64 24.749a21.16 21.16 0 0 1-19.64 19.459 21.16 21.16 0 0 1 19.64-19.459Zm0 42.225a21.1 21.1 0 0 1-13.433-6.047 21.115 21.115 0 0 1-6.207-13.365 21.149 21.149 0 0 1 13.423 6.058 21.162 21.162 0 0 1 6.217 13.354Zm1.464-6.66a24.213 24.213 0 0 0-14.872-14.452 24.032 24.032 0 0 0 14.872-14.17 23.848 23.848 0 0 0 14.825 14.17 24.025 24.025 0 0 0-14.825 14.452Zm1.416 6.66a21.21 21.21 0 0 1 6.228-13.343 21.195 21.195 0 0 1 13.413-6.069 21.103 21.103 0 0 1-19.641 19.412Zm0-42.178a21.15 21.15 0 0 1 13.438 6.076 21.168 21.168 0 0 1 6.203 13.384 21.2 21.2 0 0 1-19.641-19.413v-.047Zm1.747-2.645a24.164 24.164 0 0 0 13.858-6.966 24.192 24.192 0 0 0 6.774-13.957 24.048 24.048 0 0 0 6.729 13.97 24.028 24.028 0 0 0 13.856 6.953 23.938 23.938 0 0 0-20.585 20.877 24.094 24.094 0 0 0-6.77-13.946 24.07 24.07 0 0 0-13.862-6.931Zm42.869 2.881a21.211 21.211 0 0 1-6.214 13.373 21.191 21.191 0 0 1-13.426 6.087 21.165 21.165 0 0 1 6.203-13.384 21.145 21.145 0 0 1 13.437-6.076Zm0 42.225a21.098 21.098 0 0 1-13.434-6.047 21.116 21.116 0 0 1-6.206-13.365 21.154 21.154 0 0 1 19.64 19.412Zm1.463-6.659a24.238 24.238 0 0 0-5.811-8.899 24.206 24.206 0 0 0-9.061-5.554 24.034 24.034 0 0 0 14.872-14.17 23.854 23.854 0 0 0 14.825 14.17 24.046 24.046 0 0 0-14.825 14.453Zm1.417 6.659a21.208 21.208 0 0 1 19.64-19.412 21.112 21.112 0 0 1-19.64 19.412Zm0-42.177a21.16 21.16 0 0 1 19.64 19.459 21.154 21.154 0 0 1-19.64-19.412v-.047Zm1.699-2.645a24.174 24.174 0 0 0 20.585-20.168 24.044 24.044 0 0 0 20.49 20.168 23.972 23.972 0 0 0-13.587 6.654 23.997 23.997 0 0 0-6.903 13.466 24.088 24.088 0 0 0-20.585-20.12Zm42.869 2.645a21.21 21.21 0 0 1-6.213 13.372 21.196 21.196 0 0 1-13.427 6.087 21.16 21.16 0 0 1 19.64-19.459Zm0 42.225a21.11 21.11 0 0 1-19.64-19.413 21.2 21.2 0 0 1 19.64 19.413Zm1.417-6.66a24.027 24.027 0 0 0-14.825-14.453 23.849 23.849 0 0 0 14.825-14.169 24.034 24.034 0 0 0 14.872 14.169 24.232 24.232 0 0 0-14.872 14.453Zm1.463 6.66a21.16 21.16 0 0 1 19.641-19.413 21.12 21.12 0 0 1-6.207 13.365 21.1 21.1 0 0 1-13.434 6.048Zm0-42.178a21.145 21.145 0 0 1 13.438 6.076 21.165 21.165 0 0 1 6.203 13.383 21.139 21.139 0 0 1-13.423-6.058 21.163 21.163 0 0 1-6.218-13.354v-.047Zm1.7-2.645a24.222 24.222 0 0 0 20.679-20.924 24.042 24.042 0 0 0 20.585 20.924 23.934 23.934 0 0 0-13.86 6.917 23.95 23.95 0 0 0-6.725 13.959 24.141 24.141 0 0 0-6.797-13.95 24.121 24.121 0 0 0-13.882-6.926Zm43.058 2.645a21.216 21.216 0 0 1-6.214 13.373 21.195 21.195 0 0 1-13.427 6.086 21.165 21.165 0 0 1 6.203-13.383 21.145 21.145 0 0 1 13.438-6.076Zm0 42.225a21.103 21.103 0 0 1-19.641-19.412 21.195 21.195 0 0 1 13.413 6.069 21.21 21.21 0 0 1 6.228 13.343Zm1.416-6.66a24.04 24.04 0 0 0-14.825-14.453 23.849 23.849 0 0 0 14.825-14.169 24.033 24.033 0 0 0 14.872 14.169 24.228 24.228 0 0 0-14.872 14.453Zm1.464 6.66a21.154 21.154 0 0 1 19.64-19.412 21.12 21.12 0 0 1-6.207 13.365 21.1 21.1 0 0 1-13.433 6.047Zm19.64-22.766a21.256 21.256 0 0 1-19.688-19.412 21.2 21.2 0 0 1 19.688 19.459v-.047Zm-19.64-24.749a21.16 21.16 0 0 1 19.64-19.46 21.165 21.165 0 0 1-6.203 13.384 21.15 21.15 0 0 1-13.437 6.076Zm19.64-22.813a21.256 21.256 0 0 1-19.688-19.412 21.1 21.1 0 0 1 13.463 6.032 21.121 21.121 0 0 1 6.225 13.38" fill="#fff"/><path d="M214.189 258.385v33.676a48.616 48.616 0 0 0-12.625-21.215 48.572 48.572 0 0 0-21.416-12.272 48.49 48.49 0 0 0 25.799-17.227 48.52 48.52 0 0 0 10.083-29.344l22.284 22.294 24.173-24.136h-15.816a34.415 34.415 0 0 0 6.373-9.918c2.739-5.526 5.382-10.769 10.198-10.769 4.816 0 7.412 5.243 10.198 10.769 2.786 5.526 6.279 12.611 13.125 12.611s10.198-6.707 13.172-12.611c2.975-5.904 5.382-10.769 10.198-10.769h1.039c4.721 0 7.459 5.243 10.198 10.769 2.738 5.526 6.279 12.611 13.172 12.611 6.893 0 10.198-6.707 13.125-12.611 2.927-5.904 5.382-10.769 10.198-10.769 4.815 0 7.412 5.243 10.198 10.769 2.785 5.526 6.279 12.611 13.172 12.611 6.893 0 10.198-6.707 13.125-12.611 2.927-5.904 5.382-10.769 10.198-10.769h1.652v-3.401h-1.888c-6.846 0-10.198 6.707-13.172 12.611-2.975 5.904-5.241 11.005-10.009 11.005-4.769 0-7.46-5.243-10.198-10.769-2.739-5.526-6.327-12.611-13.173-12.611-6.845 0-10.198 6.707-13.125 12.611-2.927 5.904-5.382 10.769-10.197 10.769-4.816 0-7.46-5.243-10.198-10.769-2.739-5.526-6.091-12.233-12.559-12.611h-2.266c-6.468.378-9.443 6.849-12.559 12.611-3.116 5.762-5.382 10.769-10.197 10.769-4.816 0-7.413-5.243-10.198-10.769-2.786-5.526-6.279-12.611-13.125-12.611s-10.198 6.707-13.173 12.611c-2.974 5.904-5.382 10.769-10.197 10.769-4.816 0-7.413-5.243-10.198-10.769-2.786-5.526-6.28-12.847-13.125-12.847h-1.653v3.306h1.653c4.721 0 7.412 5.243 10.197 10.769a34.427 34.427 0 0 0 6.327 9.824h-18.602a48.429 48.429 0 0 0-29.453 10.021 48.463 48.463 0 0 0-17.287 25.876 48.553 48.553 0 0 0-16.522-25.243 48.518 48.518 0 0 0-28.235-10.606 48.514 48.514 0 0 0-10.388-28.679 48.48 48.48 0 0 0-25.447-16.805 48.539 48.539 0 0 0 25.397-16.756 48.565 48.565 0 0 0 10.438-28.587 48.52 48.52 0 0 0 28.547-10.456 48.553 48.553 0 0 0 16.729-25.393 48.51 48.51 0 0 0 17.295 25.866 48.469 48.469 0 0 0 29.446 10.03h1.558c4.721 0 7.412 5.243 10.197 10.816 2.786 5.574 6.28 12.611 13.126 12.611 6.845 0 10.197-6.707 13.172-12.611 2.974-5.903 5.382-10.816 10.198-10.816 4.815 0 7.412 5.243 10.197 10.816 2.786 5.574 6.28 12.611 13.126 12.611 6.845 0 10.197-6.707 13.172-12.611 2.974-5.903 5.382-10.816 10.198-10.816h1.038c4.722 0 7.46 5.243 10.198 10.816 2.738 5.574 6.28 12.611 13.173 12.611s10.197-6.707 13.124-12.611c2.928-5.903 5.383-10.816 10.198-10.816 4.816 0 7.413 5.243 10.198 10.816 2.786 5.574 6.28 12.611 13.173 12.611s10.197-6.707 13.125-12.611c2.927-5.903 5.382-10.816 10.198-10.816h1.652v-3.306h-1.794c-6.846 0-10.198 6.707-13.172 12.611-2.975 5.904-5.383 10.816-10.151 10.816-4.769 0-7.46-5.243-10.198-10.816-2.738-5.573-5.949-11.855-12.039-12.564v-7.887l9.442-12.564a33.374 33.374 0 0 0 9.065 2.031h2.502a23.884 23.884 0 0 0 17.327-7.038 24.28 24.28 0 0 0 6.893-19.837 31.98 31.98 0 0 0-2.549-10.25v-.519l-.519-.236a29.978 29.978 0 0 0-10.151-2.692 24.446 24.446 0 0 0-19.972 7.002 24.469 24.469 0 0 0-7.034 19.967 32.757 32.757 0 0 0 2.314 9.447l-7.129 9.446v-39.58a34.616 34.616 0 0 0 8.073-5.054 24.085 24.085 0 0 0 9.141-18.893 24.097 24.097 0 0 0-9.141-18.892A31.161 31.161 0 0 0 357.761 15h-1.038a31.055 31.055 0 0 0-9.112 5.243 24.517 24.517 0 0 0 0 38.21 30.594 30.594 0 0 0 7.931 4.723v39.628l-7.081-9.447a34.383 34.383 0 0 0 2.171-9.446 24.102 24.102 0 0 0-6.881-19.896 24.082 24.082 0 0 0-19.888-6.884 35.673 35.673 0 0 0-10.292 2.55l-.473.236-.283.52a33.843 33.843 0 0 0-2.691 10.155 24.148 24.148 0 0 0 7.035 19.979 23.598 23.598 0 0 0 17.327 7.179h2.643a31.533 31.533 0 0 0 8.924-2.173l9.442 12.564v8.313c-5.477 1.181-8.451 7.084-11.048 12.374-2.596 5.29-5.382 10.817-10.197 10.817-4.816 0-7.46-5.243-10.198-10.817-2.739-5.573-4.91-10.438-9.632-12.185V94.16l-.283-.944-46.929-70.187h-2.786l-46.693 70.187-.283.944v21.963h-.944a48.66 48.66 0 0 0-10.511-28.46 48.625 48.625 0 0 0-25.323-16.693 48.488 48.488 0 0 0 25.855-17.302 48.518 48.518 0 0 0 10.026-29.458v-1.653h-1.652a48.476 48.476 0 0 0-29.527 10.04 48.509 48.509 0 0 0-17.308 25.95 48.51 48.51 0 0 0-17.313-25.88 48.472 48.472 0 0 0-29.474-10.016 48.52 48.52 0 0 0-29.439 10.04 48.555 48.555 0 0 0-17.302 25.857 48.461 48.461 0 0 0-17.305-25.89A48.427 48.427 0 0 0 27.747 22.65h-1.653v1.655A48.52 48.52 0 0 0 36.12 53.763a48.486 48.486 0 0 0 25.856 17.301 48.534 48.534 0 0 0-25.817 17.271 48.568 48.568 0 0 0-10.065 29.394v.283a48.52 48.52 0 0 0 10.012 29.487 48.485 48.485 0 0 0 25.87 17.32 48.529 48.529 0 0 0-25.86 17.328 48.565 48.565 0 0 0-10.022 29.479v.283a48.567 48.567 0 0 0 10.022 29.479 48.54 48.54 0 0 0 25.86 17.328 48.482 48.482 0 0 0-25.713 17.162 48.521 48.521 0 0 0-10.121 29.219v3.306h1.652c4.721 0 7.365 5.196 10.15 10.722 2.786 5.526 6.233 12.516 13.078 12.516 6.846 0 10.104-6.659 13.078-12.516 2.975-5.857 5.335-10.722 10.104-10.722 4.768 0 7.365 5.196 10.15 10.722 2.786 5.526 6.233 12.516 13.078 12.516 6.846 0 10.104-6.659 13.031-12.516 2.927-5.857 5.382-10.722 10.151-10.722h1.085c4.722 0 7.366 5.196 10.104 10.722 2.738 5.526 6.279 12.516 13.078 12.516 6.798 0 10.15-6.659 13.077-12.516 2.928-5.857 5.336-10.722 10.151-10.722 4.816 0 7.365 5.196 10.104 10.722 2.738 5.526 6.279 12.516 13.077 12.516 6.799 0 10.151-6.659 13.078-12.516a26.346 26.346 0 0 1 6.28-9.446l3.777-3.732.708-.708.472-.473 21.717-21.112 1.039-1.039-24.172-24.23ZM377.638 94.538a30.685 30.685 0 0 1-7.082-1.464l4.296-4.25h19.829a21.049 21.049 0 0 1-16.902 5.714h-.141Zm-1.606-30.559a20.543 20.543 0 0 1 6.374-2.928v15.775l-6.61 6.377.236-19.224Zm23.607.33a29.687 29.687 0 0 1 1.369 11.667h-13.031l11.662-11.666Zm-21.293 21.302 6.421-6.423h15.674a20.409 20.409 0 0 1-2.88 6.423h-19.215Zm11.614-25.174a28.3 28.3 0 0 1 6.987 1.559l-11.566 11.571V60.484a24.64 24.64 0 0 1 4.721 0l-.142-.047Zm-17.28 6.329v19.743l-4.438 4.392a28.989 28.989 0 0 1-1.51-6.99 20.784 20.784 0 0 1 5.948-17.145Zm-25.211 16.72a33.099 33.099 0 0 1-1.416 7.085l-4.297-4.251V66.577a20.74 20.74 0 0 1 5.713 16.909Zm-30.499 1.748a18.895 18.895 0 0 1-2.927-6.377h15.721l6.421 6.377H316.97Zm-3.541-14.17c.213-2.384.72-4.731 1.511-6.99l11.614 11.619h-13.125a25.178 25.178 0 0 1 0-4.723v.094Zm25.117 11.95-6.374-6.377V60.91a19.496 19.496 0 0 1 6.374 2.881v19.224Zm-14.164-22.719a24.576 24.576 0 0 1 4.721 0v13.036l-11.661-11.666a33.788 33.788 0 0 1 7.082-1.417l-.142.047Zm-4.579 28.292h19.687l4.391 4.393a23.033 23.033 0 0 1-24.078-4.393Zm39.139-48.649 11.142-11.146a19.447 19.447 0 0 1 2.455 6.565L358.753 49.1l.189-9.163Zm-3.211 8.88-13.597-13.556a20.294 20.294 0 0 1 2.455-6.612l11.142 11.147v9.02Zm9.443 6.754a30.736 30.736 0 0 1-6.044 4.015V53.54l14.164-13.933a20.787 20.787 0 0 1-7.884 15.964h-.236Zm3.446-29.473-9.442 9.447V19.062a30.253 30.253 0 0 1 6.043 3.967 29.8 29.8 0 0 1 3.21 3.26l.189-.19Zm-18.649-3.259a30.34 30.34 0 0 1 5.996-3.873v15.965l-9.442-9.447a23.919 23.919 0 0 1 3.257-3.306l.189.662Zm-8.12 16.154 14.163 13.933v6.235a23.098 23.098 0 0 1-14.163-20.168ZM212.914 303.255a45.076 45.076 0 0 1-30.168-13.179 45.113 45.113 0 0 1-13.173-30.18 45.083 45.083 0 0 1 30.167 13.179 45.114 45.114 0 0 1 13.174 30.18ZM87.282 70.545a48.577 48.577 0 0 0 21.738-12.603 48.61 48.61 0 0 0 12.538-21.782 48.6 48.6 0 0 0 34.276 34.385 48.623 48.623 0 0 0-21.743 12.627 48.655 48.655 0 0 0-12.533 21.804 48.655 48.655 0 0 0-12.533-21.804 48.625 48.625 0 0 0-21.743-12.627Zm32.529 45.106a45.173 45.173 0 0 1-30.189-13.205 45.21 45.21 0 0 1-13.2-30.201A45.223 45.223 0 0 1 106.6 85.46a45.26 45.26 0 0 1 13.211 30.19Zm-10.576 1.795a48.569 48.569 0 0 0-21.854 12.512 48.611 48.611 0 0 0-12.658 21.778 48.562 48.562 0 0 0-12.652-21.783 48.53 48.53 0 0 0-21.86-12.507 48.575 48.575 0 0 0 21.865-12.533 48.609 48.609 0 0 0 12.647-21.805 48.696 48.696 0 0 0 34.512 34.338ZM76.187 256.921a45.255 45.255 0 0 1 13.09-30.081 45.222 45.222 0 0 1 29.967-13.325v2.692a45.205 45.205 0 0 1-13.98 28.448 45.175 45.175 0 0 1-29.219 12.266h.142Zm44.71-31.834a48.796 48.796 0 0 0 12.634 21.222 48.766 48.766 0 0 0 21.406 12.312 48.624 48.624 0 0 0-21.411 12.277 48.666 48.666 0 0 0-12.629 21.21 48.511 48.511 0 0 0-12.595-21.215 48.477 48.477 0 0 0-21.398-12.272 48.622 48.622 0 0 0 21.393-12.307 48.65 48.65 0 0 0 12.6-21.227Zm-46.552 20.971a48.557 48.557 0 0 0-12.732-21.888 48.524 48.524 0 0 0-22.016-12.497 48.533 48.533 0 0 0 22.016-12.497 48.562 48.562 0 0 0 12.732-21.888 48.751 48.751 0 0 0 12.753 21.867 48.72 48.72 0 0 0 21.996 12.518 48.72 48.72 0 0 0-21.996 12.518 48.746 48.746 0 0 0-12.753 21.867Zm44.899 54.977v2.645a45.169 45.169 0 0 1-29.964-13.296 45.208 45.208 0 0 1-13.093-30.063 45.085 45.085 0 0 1 29.24 12.244 45.113 45.113 0 0 1 13.959 28.47h-.142Zm3.494 0a45.113 45.113 0 0 1 13.959-28.47 45.085 45.085 0 0 1 29.24-12.244 45.21 45.21 0 0 1-13.093 30.063 45.169 45.169 0 0 1-29.964 13.296v-2.645h-.142Zm90.081-87.52a45.21 45.21 0 0 1-13.182 30.186 45.178 45.178 0 0 1-30.159 13.22 45.118 45.118 0 0 1 13.158-30.21 45.076 45.076 0 0 1 30.183-13.196Zm-46.74 43.406a45.176 45.176 0 0 1-29.219-12.266 45.205 45.205 0 0 1-13.98-28.448v-2.692a45.22 45.22 0 0 1 29.967 13.325 45.252 45.252 0 0 1 13.09 30.081h.142Zm-46.504-47.232a45.22 45.22 0 0 1-30.177-13.217 45.255 45.255 0 0 1-13.211-30.189 45.175 45.175 0 0 1 30.189 13.205 45.213 45.213 0 0 1 13.199 30.201Zm-43.388-46.807a45.258 45.258 0 0 1 13.211-30.189 45.225 45.225 0 0 1 30.177-13.217 45.213 45.213 0 0 1-13.199 30.202 45.174 45.174 0 0 1-30.19 13.204Zm46.882-46.948a45.209 45.209 0 0 1 13.199-30.201 45.174 45.174 0 0 1 30.189-13.205 45.211 45.211 0 0 1-13.199 30.201 45.17 45.17 0 0 1-30.189 13.205Zm173.599 12.658c-2.785 5.574-5.382 10.816-10.197 10.816-4.816 0-7.413-5.242-10.198-10.816a37.311 37.311 0 0 0-5.902-9.446h32.199a37.311 37.311 0 0 0-5.902 9.446Zm-75.87-34.054 45.088-67.73 44.993 67.73v21.349h-33.048v-10.485a11.293 11.293 0 0 0-3.322-7.952 11.282 11.282 0 0 0-7.962-3.29h-.85a11.24 11.24 0 0 0-11.236 11.242v10.485h-33.427l-.236-21.349Zm35.079 24.655a37.329 37.329 0 0 0-5.902 9.446c-2.738 5.574-5.382 10.817-10.197 10.817-4.816 0-7.413-5.243-10.198-10.817a35.966 35.966 0 0 0-5.902-9.446h32.199Zm-42.491-3.259a45.079 45.079 0 0 1-30.213-13.18 45.113 45.113 0 0 1-13.175-30.226 45.217 45.217 0 0 1 30.176 13.217 45.255 45.255 0 0 1 13.212 30.189Zm0-90.165a45.21 45.21 0 0 1-13.215 30.171 45.173 45.173 0 0 1-30.173 13.188 45.116 45.116 0 0 1 13.19-30.196 45.082 45.082 0 0 1 30.198-13.163Zm-46.788 43.358a45.126 45.126 0 0 1-30.185-13.175A45.163 45.163 0 0 1 123.21 25.77a45.175 45.175 0 0 1 30.174 13.187 45.209 45.209 0 0 1 13.214 30.171ZM119.717 25.77a45.214 45.214 0 0 1-13.215 30.171 45.175 45.175 0 0 1-30.174 13.188 45.21 45.21 0 0 1 13.215-30.172 45.174 45.174 0 0 1 30.174-13.187Zm-90.176 0a45.08 45.08 0 0 1 30.198 13.163 45.115 45.115 0 0 1 13.19 30.195A45.174 45.174 0 0 1 42.756 55.94 45.21 45.21 0 0 1 29.54 25.77Zm43.388 46.76a45.117 45.117 0 0 1-13.175 30.225 45.08 45.08 0 0 1-30.213 13.18 45.256 45.256 0 0 1 13.211-30.19A45.22 45.22 0 0 1 72.93 72.529Zm-43.388 46.947a45.178 45.178 0 0 1 30.189 13.205 45.21 45.21 0 0 1 13.2 30.201 45.173 45.173 0 0 1-30.19-13.204 45.21 45.21 0 0 1-13.2-30.202Zm43.388 46.807a45.21 45.21 0 0 1-13.2 30.201 45.168 45.168 0 0 1-30.188 13.205 45.21 45.21 0 0 1 13.2-30.201 45.174 45.174 0 0 1 30.188-13.205Zm-43.388 47.232a45.08 45.08 0 0 1 30.213 13.18 45.116 45.116 0 0 1 13.175 30.226 45.22 45.22 0 0 1-30.177-13.217 45.258 45.258 0 0 1-13.211-30.189Zm43.388 46.806a45.115 45.115 0 0 1-13.19 30.196A45.08 45.08 0 0 1 29.54 303.68a45.208 45.208 0 0 1 13.215-30.171 45.178 45.178 0 0 1 30.173-13.188Zm34.654 57.245c-2.738 5.479-5.335 10.722-10.104 10.722-4.768 0-7.412-5.243-10.15-10.722-2.738-5.479-6.232-12.563-13.078-12.563-6.846 0-10.15 6.659-13.078 12.563-2.927 5.904-5.335 10.722-10.103 10.722-4.769 0-7.413-5.243-10.15-10.722a28.34 28.34 0 0 0-7.602-10.816 48.62 48.62 0 0 0 26.115-11.468 48.653 48.653 0 0 0 15.196-24.144 48.652 48.652 0 0 0 14.947 23.918 48.627 48.627 0 0 0 25.703 11.6 27.817 27.817 0 0 0-7.696 10.91Zm93.905 0c-2.785 5.479-5.382 10.722-10.15 10.722-4.769 0-7.365-5.243-10.151-10.722-2.785-5.479-6.232-12.563-13.031-12.563-6.798 0-10.15 6.659-13.077 12.563-2.928 5.904-5.383 10.722-10.151 10.722-4.769 0-7.365-5.243-10.104-10.722a28.333 28.333 0 0 0-7.742-10.91 48.62 48.62 0 0 0 25.73-11.588 48.65 48.65 0 0 0 14.967-23.93 48.556 48.556 0 0 0 15.097 24.07 48.529 48.529 0 0 0 25.978 11.495 29.902 29.902 0 0 0-7.366 10.863" fill="#fff"/></svg>