<svg fill="none" xmlns="http://www.w3.org/2000/svg" viewBox="0 0 257 250">
  <g clip-path="url(#european-green-leaf__clip0)">
    <path d="M128.5 250c-34.297 0-66.536-13.026-91.002-36.563C13.262 189.671 0 158.364 0 125s13.262-64.9 37.727-88.437C61.964 13.026 94.203 0 128.5 0s66.536 13.026 91.002 36.563c24.236 23.538 37.727 55.073 37.727 88.437s-13.262 64.671-37.727 88.437C195.265 236.974 162.797 250 128.5 250zm0-244.744c-32.925 0-63.793 12.34-86.886 34.963C18.292 63.071 5.488 93.007 5.488 125c0 66.042 55.104 119.516 123.012 119.516S251.512 191.042 251.512 125c0-31.993-12.804-61.929-36.126-84.552C192.293 17.825 161.425 5.256 128.5 5.256z" fill="#A6CE39"/>
    <path d="M171.714 117.23l1.83-5.484-4.802-3.428h5.945l1.829-5.256 1.829 5.256h5.945l-4.802 3.428 1.83 5.484-4.802-3.427-4.802 3.427zm9.604 20.796l2.743-7.999-7.088-5.027h8.689l2.744-8.227 2.743 8.227h8.689l-7.088 5.027 2.744 7.999-7.088-5.028-7.088 5.028zm5.258-36.335l1.144-3.656-2.973-2.285h3.887l1.144-3.657 1.143 3.657h3.887l-3.201 2.285 1.372 3.656-3.201-2.285-3.202 2.285z" fill="#00A79E"/>
    <path d="M196.866 57.815c-5.488 3.428-24.237 14.397-49.16 17.825-25.608 3.656-42.985 5.027-67.45 19.424-25.838 15.311-28.353 32.678-28.582 39.991 0 .914.229 2.285.229 2.285 31.553-23.537 49.845-10.283 84.142-21.481 45.501-14.854 58.306-50.045 60.821-58.044z" fill="#39B54A"/>
    <path d="M91.916 84.78c-4.344 2.057-8.917 4.343-13.718 7.085A87.837 87.837 0 0064.25 101.92V70.612l13.719-18.738 13.719 18.738.228 14.169zm80.713-19.195c-7.317 2.742-15.777 5.027-25.151 6.399V55.302l12.575-12.34 12.576 12.34v10.283zm-28.352 6.855c-5.488.686-10.518 1.372-15.548 2.057V45.475h15.548v26.966zm-18.749 2.743a210.62 210.62 0 00-16.463 3.427V58.959h16.463v16.225zm-19.893 4.342c-3.429 1.142-7.088 2.285-10.746 3.884V57.36l5.259-27.423 5.259 27.422.228 22.167zm-53.732 79.296v-17.368H62.65v1.6h-8.918v5.713h8.003l-.457 1.6h-7.546s.229.457.229.914v5.713h8.917v1.599H51.903v.229zm23.779.228c-3.887 0-6.63-2.056-6.63-7.541v-10.055h1.829v10.055c0 4.114 1.6 5.713 4.801 5.713s4.802-1.599 4.802-5.713v-10.055h1.83v10.055c0 5.485-2.745 7.541-6.632 7.541zm23.094-.228l-3.887-6.399c0-.228-.229-.685-.229-.914h-3.43v7.313h-1.829v-17.368h5.26c4.343 0 5.944 2.057 5.944 5.028 0 2.514-1.372 4.342-4.344 4.799l4.801 7.312h-2.286v.229zm-4.116-15.768h-3.43v6.627h3.43c2.515 0 4.116-.685 4.116-3.199s-1.6-3.428-4.116-3.428zm18.749 15.996c-5.487 0-6.859-3.884-6.859-9.14 0-4.799 1.372-8.913 6.859-8.913 5.488 0 7.088 3.885 7.088 8.913 0 5.484-1.372 9.14-7.088 9.14zm0-16.225c-4.115 0-5.03 2.514-5.03 7.085 0 5.027 1.143 7.541 5.03 7.541 4.116 0 5.031-2.514 5.031-7.541.228-4.571-.915-7.085-5.031-7.085zm19.207 9.37h-3.659v6.627h-1.829v-17.368h5.488c4.344 0 5.944 2.514 5.944 5.485 0 2.971-1.6 5.256-5.944 5.256zm0-9.141h-3.659v7.313h3.659c2.515 0 4.115-.914 4.115-3.657 0-2.285-1.6-3.656-4.115-3.656zm12.575 15.768v-17.368h10.747v1.6h-8.918v5.713h8.003l-.457 1.6h-7.546s.229.457.229.914v5.713h8.917v1.599h-10.975v.229zm29.267 0l-1.829-5.256h-6.859l-1.83 5.256h-1.829l6.174-17.368h2.286l6.174 17.368h-2.287zm-5.03-13.711c-.229-.457-.229-1.143-.457-1.828-.229.685-.458 1.371-.458 1.828l-2.286 6.627h5.716l-2.515-6.627zm24.923 13.711l-10.061-14.397c0 .229.229.686.229 1.143v13.254h-1.829v-17.368h1.829l10.06 14.397c0-.457-.228-.685-.228-.914v-13.254h1.829v17.367h-1.829v-.228z" fill="#00A79E"/>
    <path d="M95.117 57.358l5.259-27.422 5.259 27.422" fill="#00A79E"/>
    <path d="M145.649 196.527s14.862-1.829 15.319-2.057c.686 0 1.143-.229 1.829-.457 1.143-.229 2.287-.914 3.201-1.371.915-.686 1.829-1.6 2.744-2.514.457-.686 1.143-1.371 1.601-2.285v-.457c-.686.914-1.372 1.828-1.83 2.513-.914.915-1.829 1.6-2.743 2.286-.915.685-2.058 1.142-3.201 1.371-.458.228-1.144.228-1.601.228-.457 0-.915 0-1.143.229l-13.948 1.371v1.143h-.228z" fill="#BCBEC0"/>
    <path d="M165.541 194.013c-.915.457-2.058.914-3.201 1.142-.457 0-1.143.229-1.601.229h-1.829c-4.573.457-9.146.914-13.261 1.142v.915c4.344-.457 8.688-1.143 13.261-1.6h.686c.457 0 .686 0 1.143-.229.686 0 1.144-.228 1.83-.228 1.143-.229 2.286-.686 3.201-1.371.914-.457 1.829-1.371 2.743-2.285.458-.686 1.144-1.372 1.83-2.286v-.457c-.686.914-1.372 1.6-2.058 2.286-.915 1.599-1.829 2.285-2.744 2.742z" fill="#BCBEC0"/>
    <path d="M168.056 193.784c-.915.914-1.829 1.371-2.744 1.828-.914.457-2.058.686-3.201.914-.457 0-1.143.229-1.6.229l-14.862 1.143v.914l13.033-1.371 1.6-.229c.686 0 1.143-.229 1.601-.229 1.143-.228 2.286-.685 3.201-1.142.914-.457 2.057-1.371 2.972-2.057.686-.685 1.143-1.371 1.829-2.056v-.229c-.457.914-1.143 1.6-1.829 2.285zm-3.658 4.799c-.915.457-1.601.686-2.744.914-.686 0-1.601.229-2.287.229h-1.143c-2.286.228-4.344.228-6.631.457l-6.173.457v.914l6.173-.457c2.058-.229 4.345-.457 6.631-.457l1.601-.229c.686 0 1.143 0 1.6-.228a36.848 36.848 0 003.201-.686c1.144-.457 2.058-.914 2.973-1.599.914-.686 2.058-1.829 2.058-1.829v-.228c-.686.686-1.144 1.143-2.058 1.828-.458.229-2.287.457-3.201.914z" fill="#BCBEC0"/>
    <path d="M164.855 200.411c-.915.229-2.058.457-3.201.457h-3.201c-4.116.229-8.231.457-12.804.686v.914c4.344-.228 8.46-.685 12.804-.914h1.6c.686 0 1.144 0 1.601-.229 1.143-.228 2.286-.457 3.201-.685 1.143-.229 2.058-.914 2.972-1.371a45.743 45.743 0 002.287-1.6c-.915.686-1.601.914-2.287 1.371-.914.686-2.057 1.143-2.972 1.371z" fill="#BCBEC0"/>
    <path d="M164.626 202.011c-.914.229-2.057.457-3.201.457h-3.201c-4.115.229-8.231.229-12.575.457v.914c4.344-.228 8.46-.457 12.575-.914h1.601c.686 0 1.143 0 1.6-.228 1.372 0 2.287-.229 3.201-.457 1.144-.229 2.058-.686 3.201-1.143.686-.457 1.601-.914 2.287-1.371v-.457c-.915.685-1.601 1.142-2.515 1.599-.915.457-1.829.915-2.973 1.143z" fill="#BCBEC0"/>
    <path d="M164.398 203.611c-.915.228-2.058.228-3.201.228h-1.601l-14.176.457v.914l12.576-.685h3.201c1.143 0 2.286-.229 3.201-.457 1.143-.229 2.057-.457 3.201-.914.914-.229 1.6-.686 2.515-1.143v-.457c-.915.457-1.829.914-2.515 1.143-.915.228-2.058.685-3.201.914z" fill="#BCBEC0"/>
    <path d="M164.398 204.982c-1.829.228-3.43.228-5.259.228h-1.143l-12.347.229v.914l12.347-.457h1.143c1.829 0 3.43-.229 5.259-.457 1.143-.229 2.286-.457 3.201-.686.914-.228 1.6-.685 2.515-1.142v-.229c-.915.457-1.829.686-2.744.914-.914.457-1.829.686-2.972.686zm0 1.599c-1.601.229-3.201.229-4.802.229h-13.947v.914c3.887-.228 8.231-.228 12.347-.457h1.6c1.601 0 3.201 0 4.802-.229 1.143-.228 2.286-.228 3.201-.457.914-.228 1.829-.457 2.744-.914v-.228c-.915.228-1.83.685-2.744.685-1.143.229-2.058.457-3.201.457zm-.229 1.6H145.42v.914l5.945-.229c2.058 0 4.115 0 6.402-.228h3.201c.915 0 2.058 0 3.201-.229 1.143 0 2.286-.228 3.201-.228.915-.229 1.829-.229 2.744-.457v-.229c-.915.229-1.829.457-2.744.457-.915 0-2.058 0-3.201.229zm-3.201 1.371h-3.201c-4.116 0-8.003-.228-12.347-.228v.914h18.749c2.286 0 4.116-.229 5.945-.457v-.229c-1.829.229-3.887.229-5.945.229-.915-.229-2.058-.229-3.201-.229zm9.146 1.6l-24.465-.457v.914h24.465v-.457zm-2.058-15.54c-.915.686-1.6 1.143-2.744 1.6-.914.457-2.058.457-3.201.686-.686 0-1.6.228-2.286.228h-.915l-12.804.914v.914l13.033-1.142 1.6-.229c.686 0 1.144-.228 1.601-.228 1.143-.229 2.286-.457 3.201-.914a20.872 20.872 0 002.972-1.829 6.962 6.962 0 001.83-1.828v-.228c-.915.685-1.601 1.371-2.287 2.056zm12.576-7.998s4.344 6.856 5.259 7.998c.914 1.143 1.829 2.286 5.03 2.971 3.201.686 4.801.914 4.801.914v.229s-2.057-.457-4.801-.914c-2.744-.686-3.659-.686-5.03-2.514-.915-1.371-5.259-7.313-5.259-7.313v-1.371zm0 7.77l5.259 5.256c1.143 1.143 2.743 1.6 5.03 2.057 2.058.457 4.801.685 4.801.685v.229s-2.515-.457-4.801-.686c-2.287-.457-3.659-.457-5.03-1.599-1.144-1.143-5.259-4.799-5.259-4.799v-1.143z" fill="#BCBEC0"/>
    <path d="M180.632 197.212s3.887 3.428 5.259 4.57c1.143 1.143 2.286 1.372 5.03 1.829a98.57 98.57 0 004.801.685v.229s-2.515-.457-4.801-.686c-2.287-.457-3.659-.457-5.03-1.6-1.601-1.142-5.259-4.113-5.259-4.113v-.914z" fill="#BCBEC0"/>
    <path d="M180.632 199.269s4.344 3.428 5.259 3.885c.914.685 1.829 1.371 5.03 1.828l4.801.685v.229s-2.743-.457-4.801-.686c-1.829-.228-3.43-.228-5.03-1.371-1.601-1.142-5.259-3.428-5.259-3.428v-1.142z" fill="#BCBEC0"/>
    <path d="M180.632 201.097s4.344 2.742 5.259 3.199c.914.457 1.829 1.143 5.03 1.6l4.801.685v.229s-2.743-.229-4.801-.457c-2.058-.229-3.43-.457-5.03-1.371-1.601-.914-5.259-2.971-5.259-2.971v-.914z" fill="#BCBEC0"/>
    <path d="M180.632 202.925s3.887 2.057 5.259 2.742c1.371.686 2.743 1.143 5.03 1.371 2.286.229 4.801.457 4.801.457v.229s-2.286-.229-4.801-.457c-2.515-.229-3.201-.229-5.03-1.143-1.601-.685-5.259-2.285-5.259-2.285v-.914z" fill="#BCBEC0"/>
    <path d="M180.632 204.982s2.972 1.371 5.259 2.056c2.057.914 3.658.914 5.03.914.457 0 4.801.457 4.801.457v.229s-2.515-.229-4.801-.457c-2.287-.229-3.201-.229-5.03-.914-1.83-.457-5.259-1.6-5.259-1.6v-.685zm0 1.828s3.201.914 5.259 1.371c2.057.457 4.115.686 5.03.914.914.229 4.801.457 4.801.457v.229s-2.057-.229-4.801-.229c-2.058-.228-3.887-.228-5.03-.457-1.372-.228-5.259-1.142-5.259-1.142v-1.143zm0 2.057s2.515.457 5.259.914c2.057.228 4.801.457 5.03.457.228 0 4.801.228 4.801.228v.229s-2.743-.229-4.801-.229c-2.058 0-3.887-.228-5.03-.228-2.516-.229-5.259-.686-5.259-.686v-.685zm0 1.828s3.887.228 5.259.228c1.143 0 9.831.457 9.831.457v.229h-15.09v-.914zm10.289-10.969c-3.659-.686-4.345-2.057-5.03-2.742-.686-.914-5.259-7.541-5.259-7.541v1.371c.228.228 4.115 5.256 5.259 6.627 1.143 1.599 3.201 2.056 5.03 2.285 1.829.685 4.801 1.142 4.801 1.142v-.228c-.228 0-3.887-.686-4.801-.914z" fill="#BCBEC0"/>
    <path d="M190.921 200.64c-2.973-.457-4.116-1.371-5.03-2.514-.915-1.143-5.259-6.627-5.259-6.627v1.371c.228.229 4.115 4.799 5.259 5.942 1.143 1.371 2.972 1.599 5.03 1.828 2.058.685 4.801 1.142 4.801 1.142v-.228c-.228 0-3.201-.457-4.801-.914z" fill="#BCBEC0"/>
    <path d="M190.921 201.782c-2.973-.685-3.659-1.142-5.03-2.513-.915-.914-5.031-5.713-5.259-5.942v1.371s3.887 4.114 5.259 5.256c1.6 1.6 3.201 1.6 5.03 1.828 1.829.458 4.801 1.143 4.801 1.143v-.228c-.228-.229-3.658-.686-4.801-.915z" fill="#BCBEC0"/>
    <path d="M177.431 197.441h-21.493v13.939h21.493v-13.939z" fill="#034EA2"/>
    <path d="M166.913 199.497h.686l-.686.457.228.686-.457-.457-.686.457.229-.686-.686-.457h.914l.229-.685.229.685zm0 9.37h.686l-.686.457.228.685-.457-.457-.686.457.229-.685-.686-.457h.914l.229-.686.229.686zm2.286-.686h.686l-.457.457.229.686-.686-.458-.458.458.229-.686-.686-.457h.686l.229-.686.228.686zm0-7.998h.686l-.457.457.229.685-.686-.457-.458.457.229-.685-.686-.457h.686l.229-.686.228.686zm1.829 1.599h.686l-.686.458.458.685-.686-.457-.686.457.228-.685-.457-.458h.686l.229-.685.228.685zm0 4.799h.686l-.686.457.458.686-.686-.457-.686.457.228-.686-.457-.457h.686l.229-.685.228.685zm.686-2.513h.686l-.686.457.229.685-.457-.228-.686.228.228-.685-.457-.457h.686l.229-.686.228.686zm-7.316-3.885h.686l-.458.457.229.685-.686-.457-.686.457.229-.685-.458-.457h.686l.229-.686.229.686zm-1.601 1.599h.686l-.686.458.229.685-.458-.228-.685.228.228-.685-.686-.458h.915l.228-.685.229.685zm-.686 2.514h.686l-.686.229.229.685-.457-.228-.686.228.228-.685-.457-.229h.686l.229-.685.228.685zm.686 2.285h.686l-.686.457.229.686-.458-.457-.685.457.228-.686-.686-.457h.915l.228-.685.229.685zm1.601 1.6h.686l-.458.457.229.686-.686-.458-.457.458.228-.686-.686-.457h.686l.229-.686.229.686z" fill="#FFF200"/>
    <path d="M74.996 203.382l-.457-1.599h-2.058l-.686 1.599h-.914l2.972-5.484h.915l1.372 5.484h-1.144zm-.914-4.113v-.457.457l-1.143 1.828h1.6l-.457-1.828zm6.402 1.599l-.229 2.514h-.914l.457-2.514v-.228c0-.457-.229-.686-.686-.686-.457 0-.686.229-.914.229l-.458.228-.228 2.971h-.915l.686-4.113h.686v.457c.457-.229.686-.457 1.372-.457s1.143.457 1.143 1.142v.457zm3.658 2.514h-.914l.686-4.113h.914l-.686 4.113zm.915-5.027h-.915l.229-.686h.915l-.23.686zm4.116 2.513l-.23 2.514h-.914l.458-2.514v-.228c0-.457-.229-.686-.686-.686-.458 0-.686.229-.915.229l-.457.228-.229 2.971h-.914l.686-4.113h.686v.457c.457-.229.685-.457 1.371-.457.686 0 1.144.457 1.144 1.142v.457zm1.6 2.514h-.914l.686-4.113h.914l-.686 4.113zm.915-5.027h-.915l.229-.686h.914l-.228.686zm3.201 1.599h-1.143l-.23 2.286v.228c0 .229.23.457.458.457.229 0 .457 0 .686-.228l.457.457c-.457.457-.914.457-1.371.457-.686 0-.915-.457-.915-.914v-.229l.229-2.057v-.228h-.686v-.686h.686l.228-1.371.915-.228-.457 1.371h1.371l-.228.685zm1.371 3.428h-.914l.686-4.113h.915l-.686 4.113zm.687-5.027h-.915v-.686h.915v.686zm4.115 2.056l-.457 2.971h-.686v-.228c-.457.228-.915.457-1.372.457-.914 0-1.372-.457-1.372-1.143v-.228c.229-1.143.915-1.372 1.83-1.372.457 0 .685 0 1.143.229v-.686c0-.228-.229-.457-.686-.457-.458 0-.915 0-1.144.457l-.457-.457c.457-.685 1.143-.685 1.83-.685 1.143 0 1.371.457 1.371 1.142zm-1.829 1.143c-.686 0-1.143.229-1.143.914 0 .457.228.457.457.457.457 0 .915-.228 1.372-.457l.229-.914h-.915zm5.488-1.6h-1.144l-.228 2.286v.228a.49.49 0 00.457.457c.229 0 .457 0 .686-.228l.457.457c-.457.457-.914.457-1.372.457-.686 0-.914-.457-.914-.914v-.229l.228-2.057.229-.228h-.686v-.686h.686l.229-1.371.914-.228-.228 1.599h1.372l-.686.457zm1.372 3.428h-.915l.686-4.113h.914l-.685 4.113zm.914-5.027h-.914l.228-.686h.915l-.229.686zm2.287 5.027h-.915l-.915-4.113h.915l.686 2.514v.457c0-.229.229-.457.229-.457l1.371-2.514h.915l-2.286 4.113zm6.173-2.057v.229h-2.972v.457c0 .686.228.914.914.914.458 0 .915-.228 1.143-.685l.686.228c-.457.686-.914.914-2.057.914-1.144 0-1.601-.457-1.601-1.599v-.686c.229-1.371.915-2.057 2.287-2.057 1.371 0 1.6.914 1.6 1.6v.685zm-1.6-1.371c-.686 0-1.144.229-1.372 1.143h2.057v-.229c0-.685-.228-.914-.685-.914zm8.231 1.371c-.229 1.372-.915 2.057-2.287 2.057-1.143 0-1.6-.685-1.6-1.599v-.458c.228-1.371.914-2.056 2.286-2.056 1.144 0 1.601.685 1.601 1.599v.457zm-1.601-1.371c-.686 0-1.143.457-1.372 1.371v.686c0 .686.229.914.915.914s1.143-.457 1.372-1.6v-.457c0-.685-.457-.914-.915-.914zm5.717-1.599c-.458 0-.458-.229-.915-.229s-.686.229-.915.686v.457h1.372l-.228.685h-1.144l-.686 4.571h-.914l.686-4.342v-.229h-.686v-.685h.686v-.457c.228-1.143.914-1.371 1.829-1.371h.915v.914zm4.801 1.599h-1.143l-.457 2.286v.228a.49.49 0 00.457.457c.229 0 .457 0 .686-.228l.457.457c-.457.457-.914.457-1.372.457-.686 0-.914-.457-.914-.914v-.229l.228-2.057.229-.228h-.686v-.686h.686l.229-1.371.914-.228-.228 1.599h1.371l-.457.457zm4.573.914l-.457 2.514h-.915l.457-2.514v-.228c0-.457-.228-.686-.685-.686-.458 0-.915.229-1.144.457l-.457 2.971h-.915l.915-5.941h.915l-.229 1.828-.229.457c.458-.229.915-.457 1.372-.457.457 0 1.143.457 1.143 1.142l.229.457zm4.573.457v.229h-2.972v.457c0 .686.228.914.914.914.457 0 .915-.228 1.143-.685l.686.228c-.457.686-.914.914-2.057.914-1.144 0-1.601-.457-1.601-1.599v-.686c.229-1.371.915-2.057 2.286-2.057 1.372 0 1.601.914 1.601 1.6v.685zm-1.601-1.371c-.685 0-1.143.229-1.371 1.143h2.057v-.229c.229-.685 0-.914-.686-.914zm-75.682 6.856h-2.744l-.228 1.599h2.515l-.457.686h-2.287v.229l-.229 1.599h2.744v.686h-3.658l.914-5.485h3.43v.686zm3.659 4.799h-.687v-.457c-.457.228-.914.457-1.371.457-.686 0-1.144-.457-1.144-1.143v-.457l.458-2.514h.914l-.686 2.514v.229c0 .457.229.685.686.685.458 0 .915-.228 1.144-.457l.457-2.971h.914l-.685 4.114zm4.115-3.428h-.457c-.229 0-.457 0-.686.228l-.229.229-.686 2.971h-.914l.686-4.114h.686v.457c.457-.228.685-.457 1.143-.457h.457v.686zm3.888 1.371c-.23 1.371-.915 2.057-2.287 2.057-1.144 0-1.6-.686-1.6-1.6v-.457c.228-1.371.914-2.057 2.286-2.057 1.143 0 1.6.686 1.6 1.6v.457zm-1.601-1.371c-.686 0-1.144.457-1.372 1.371v.686c0 .685.228.914.914.914s1.144-.457 1.372-1.371v-.457c0-.915-.228-1.143-.914-1.143zm6.401 1.371c-.228 1.371-.914 2.285-2.286 2.285-.228 0-.686 0-.914-.228l-.229 2.056h-.915l.915-5.941h.457v.457c.458-.457.915-.457 1.144-.457 1.143 0 1.6.686 1.6 1.6l.229.228zm-1.6-1.371c-.457 0-.686 0-1.143.457l-.229 2.285c.229.229.686.229.915.229.686 0 1.143-.457 1.372-1.6v-.457c0-.685-.229-.914-.915-.914zm6.174 1.371v.229H80.94v.457c0 .685.229.914.915.914.457 0 .914-.229 1.143-.686l.686.229c-.457.685-.915.914-2.058.914-1.143 0-1.6-.457-1.6-1.6v-.685c.228-1.372.914-2.057 2.286-2.057 1.372 0 1.6.914 1.6 1.599v.686zm-1.6-1.371c-.687 0-1.144.228-1.373 1.143H83v-.229c.229-.686 0-.914-.686-.914zm5.944.457l-.457 2.971h-.686v-.229c-.458.229-.915.457-1.372.457-.915 0-1.372-.457-1.372-1.142v-.229c.229-1.142.915-1.371 1.83-1.371.456 0 .685 0 1.142.229v-.686c0-.229-.228-.457-.686-.457-.457 0-.914.228-1.143.457l-.457-.457c.457-.686 1.143-.686 1.83-.686 1.142 0 1.371.457 1.371 1.143zm-1.83 1.143c-.685 0-1.142.228-1.142.914 0 .457.228.457.457.457.457 0 .914-.229 1.372-.457l.228-.914h-.914zm6.632-.686l-.458 2.514h-.914l.457-2.514v-.229c0-.457-.229-.685-.686-.685-.457 0-.686.228-.915.228l-.457.229-.457 2.971h-.457l.686-4.114h.686v.457c.457-.228.685-.457 1.371-.457.686 0 1.144.457 1.144 1.143v.457zm7.316-1.371h-.686c0-.457-.228-.914-1.143-.914-1.372 0-1.6.914-1.829 2.057v.914c0 .685.229 1.371 1.372 1.371.686 0 1.143-.229 1.372-.914l.686.457c-.458.685-.915 1.142-2.058 1.142-1.372 0-2.058-.914-2.058-2.056v-.686c.229-1.828.915-2.742 2.744-2.742 1.143-.229 1.6.457 1.6 1.371zm4.345 1.828c-.229 1.371-.915 2.057-2.287 2.057-1.143 0-1.6-.686-1.6-1.6v-.457c.228-1.371.914-2.057 2.286-2.057 1.143 0 1.601.686 1.601 1.6v.457zm-1.601-1.371c-.686 0-1.143.457-1.372 1.371v.686c0 .685.229.914.915.914s1.143-.457 1.372-1.371v-.457c0-.915-.229-1.143-.915-1.143zm8.46.914l-.457 2.514h-.915l.457-2.514v-.457c0-.457-.228-.686-.457-.686a1.75 1.75 0 00-1.143.457v.457l-.457 2.743h-.915l.457-2.743v-.228c0-.457-.228-.457-.457-.457-.457 0-.915.228-1.143.457l-.457 2.971h-.915l.686-4.114h.686v.457c.457-.228.914-.457 1.372-.457.457 0 .914 0 1.143.686.457-.229.915-.686 1.372-.686.686 0 1.143.457 1.143 1.143v.457zm7.088 0l-.457 2.514h-.915l.458-2.514v-.457c0-.457 0-.686-.458-.686a1.75 1.75 0 00-1.143.457v.457l-.457 2.743h-.915l.457-2.743v-.228c0-.457-.228-.457-.457-.457-.457 0-.914.228-1.143.457l-.457 2.971h-.915l.686-4.114h.686v.457c.457-.228.915-.457 1.372-.457.457 0 .914 0 1.143.686.457-.229.915-.686 1.372-.686.686 0 1.143.457 1.143 1.143v.457zm1.372 2.514h-.915l.686-4.114h.915l-.686 4.114zm.915-5.028h-.915l.229-.685h.914l-.228.685zm3.201 1.828c-.229-.228-.458-.457-.915-.457s-.914.229-.914.686c0 .228 0 .228.457.457l.914.229c.458 0 .915.457.915.914 0 1.142-.915 1.599-2.058 1.599-.686 0-1.372-.228-1.6-.914l.686-.228c.228.457.457.457.914.457s1.143-.229 1.143-.686a.491.491 0 00-.457-.457l-.914-.228c-.458 0-.915-.457-.915-.915 0-1.142.915-1.371 1.829-1.371.686 0 1.143.229 1.372.686l-.457.228zm4.115 0c-.228-.228-.457-.457-.914-.457-.458 0-.915.229-.915.686 0 .228 0 .228.457.457l.915.229c.457 0 .915.457.915.914 0 1.142-.915 1.599-2.058 1.599-.686 0-1.372-.228-1.601-.914l.686-.228c.229.457.458.457.915.457s1.143-.229 1.143-.686a.492.492 0 00-.457-.457l-.915-.228c-.457 0-.914-.457-.914-.915 0-1.142.914-1.371 1.829-1.371.686 0 1.143.229 1.372.686l-.458.228zm2.058 3.2h-.914l.686-4.114h.914l-.686 4.114zm.915-5.028h-.915l.229-.685h.914l-.228.685zm4.344 2.971c-.229 1.371-.915 2.057-2.286 2.057-1.144 0-1.601-.686-1.601-1.6v-.457c.229-1.371.915-2.057 2.286-2.057 1.144 0 1.601.686 1.601 1.6v.457zm-1.829-1.371c-.686 0-1.143.457-1.372 1.371v.686c0 .685.229.914.915.914.685 0 1.143-.457 1.371-1.371v-.457c0-.915-.228-1.143-.914-1.143zm6.402.914l-.457 2.514h-.915l.457-2.514v-.229c0-.457-.228-.685-.686-.685-.457 0-.685.228-.914.228l-.457.229-.458 2.971h-.914l.686-4.114h.686v.457c.457-.228.686-.457 1.371-.457.686 0 1.144.457 1.144 1.143l.457.457z" fill="#39B54A"/>
    <path d="M56.705 178.474c-3.887 0-5.488-2.057-5.488-5.713 0-3.657 1.372-5.713 5.488-5.713 3.2 0 4.573 1.599 4.801 3.884h-2.744c-.228-.914-.685-1.599-2.057-1.599-1.83 0-2.515.914-2.515 3.428 0 2.742.685 3.427 2.743 3.427.686 0 1.372-.228 1.83-.457v-1.371h-1.83l-.686-2.285h5.26v4.799c-1.373.914-2.745 1.6-4.802 1.6zm18.063-.229l-2.515-3.656-.229-.457h-.686v4.113h-2.744v-11.197h4.116c3.201 0 4.573 1.371 4.573 3.427 0 1.6-.686 2.514-2.287 3.2l2.973 4.342h-3.201v.228zm-2.058-8.912h-1.372v2.742h1.372c1.372 0 1.6-.686 1.6-1.371 0-.914-.228-1.371-1.6-1.371zm11.89 8.912v-11.197h8.231v2.285h-5.259v2.056h4.802l-.686 2.286h-4.345l.23.228v2.057h5.258v2.285H84.6zm15.319 0v-11.197h8.231v2.285h-5.487v2.056h5.03l-.686 2.286h-4.344v2.285h5.487v2.285h-8.231zm22.865 0l-5.03-6.398c0 .228.228.457.228.685v5.713h-2.744v-11.197h2.516l5.03 6.398c0-.228-.229-.457-.229-.685v-5.713h2.744v11.197h-2.515zm18.978 0v-11.197h2.743v8.683h4.573v2.514h-7.316zm14.176 0v-11.197h8.46v2.285h-5.488v2.056h4.802l-.686 2.286h-4.345l.229.228v2.057h5.488v2.285h-8.46zm23.093 0l-.915-2.285h-3.887l-.914 2.285h-2.744l4.344-11.197h2.516l4.344 11.197h-2.744zm-2.744-6.856l-.228-.457v.457l-.915 2.286h2.058l-.915-2.286zm19.435-2.056h-4.344v2.056h3.887v2.286h-4.116l.229.228v4.342h-2.972v-11.197h8.231l-.915 2.285z" fill="#A6CE39"/>
  </g>
  <defs>
    <clipPath id="european-green-leaf__clip0">
      <path fill="#fff" d="M0 0h257v250H0z"/>
    </clipPath>
  </defs>
</svg>
