<svg xmlns="http://www.w3.org/2000/svg" viewBox="0 0 256 256">
  <path d="M248.235 131.809a13.712 13.712 0 00-5.41-3.87 13.487 13.487 0 00-6.561-.841c-10.085 1.211-20.755 12.759-19.091 30.568a67.423 67.423 0 002.692 14.678c.313.955 1.231.842 1.453-.174 2.017-9.187 8.451-14.319 15.752-17.06 6.667-2.505 13.383-5.913 13.898-14.196a13.439 13.439 0 00-2.733-9.105zm-45.582 13.232a12.77 12.77 0 00-6.658-6.288 13.227 13.227 0 00-6.443-.594 13.285 13.285 0 00-5.965 2.534c-7.967 5.97-11.434 20.944-1.487 35.082a64.72 64.72 0 009.326 10.944c.719.647 1.448.1 1.142-.865-2.708-8.686.276-16.188 5.141-22.088 4.432-5.343 8.479-11.532 4.944-18.725zm-29.051 68.593c-6.668-6.153-7.785-14.144-6.5-21.708 1.175-6.898 1.63-14.283-5.019-18.726a12.66 12.66 0 00-8.891-2.077 13.369 13.369 0 00-5.901 2.741 13.495 13.495 0 00-3.928 5.21c-3.952 9.214.474 23.905 16.132 31.101a63.532 63.532 0 0013.554 4.8c.938.179 1.294-.656.553-1.341zm-1.415 32.047c-8.969-2.017-13.991-8.451-16.682-15.752-2.451-6.666-5.786-13.382-13.881-13.896a12.91 12.91 0 00-8.888 2.723 13.661 13.661 0 00-3.811 5.408 13.712 13.712 0 00-.829 6.572c1.185 10.084 12.484 20.764 29.909 19.09a64.868 64.868 0 0014.362-2.693c.914-.313.824-1.23-.18-1.452zm76.048-169.843a13.68 13.68 0 00-5.405-3.89 13.463 13.463 0 00-6.566-.852c-10.085 1.211-20.756 12.76-19.091 30.569a67.42 67.42 0 002.692 14.679c.313.955 1.231.842 1.453-.174 2.017-9.177 8.451-14.31 15.753-17.06 6.666-2.505 13.393-5.913 13.897-14.197a13.383 13.383 0 00-2.733-9.075zM117.17 245.681c-9.177-2.017-14.319-8.451-17.06-15.752-2.504-6.666-5.912-13.383-14.185-13.897a13.446 13.446 0 00-9.095 2.723 13.678 13.678 0 00-3.887 5.41 13.455 13.455 0 00-.845 6.571c1.212 10.084 12.76 20.764 30.568 19.09a67.484 67.484 0 0014.678-2.693c.955-.313.842-1.23-.174-1.452z" fill="#008782"/>
  <path d="M248.235 75.838a13.68 13.68 0 00-5.405-3.89 13.463 13.463 0 00-6.566-.852c-10.085 1.211-20.756 12.76-19.091 30.569a67.42 67.42 0 002.692 14.679c.313.955 1.231.842 1.453-.174 2.017-9.177 8.451-14.31 15.753-17.06 6.666-2.505 13.393-5.913 13.897-14.197a13.383 13.383 0 00-2.733-9.075zM117.17 245.681c-9.177-2.017-14.319-8.451-17.06-15.752-2.504-6.666-5.912-13.383-14.185-13.897a13.446 13.446 0 00-9.095 2.723 13.678 13.678 0 00-3.887 5.41 13.455 13.455 0 00-.845 6.571c1.212 10.084 12.76 20.764 30.568 19.09a67.484 67.484 0 0014.678-2.693c.955-.313.842-1.23-.174-1.452zm86.395-158.049a13.043 13.043 0 00-5.273-7.65 13.368 13.368 0 00-12.663-.726c-9.121 4.254-15.647 18.333-8.753 34.448a65.932 65.932 0 006.963 12.88c.567.786 1.402.393 1.303-.625-.865-9.181 3.641-15.974 9.669-20.791 5.471-4.394 10.763-9.655 8.754-17.536zm-42.6 16.276a13.033 13.033 0 00-7.451-5.544 13.813 13.813 0 00-6.635.083 13.706 13.706 0 00-5.813 3.164c-7.482 6.842-9.43 22.136 2.211 35.182a65.445 65.445 0 0010.681 9.989c.788.569 1.474-.05 1.01-.999-3.675-8.391-1.424-16.183 2.907-22.596 3.999-5.843 7.472-12.466 3.09-19.279zm-28.293 70.751c-6.199-7.019-6.496-15.326-4.358-22.887 1.954-6.938 3.212-14.438-3.161-19.7a13.307 13.307 0 00-8.94-3.065 13.886 13.886 0 00-10.945 6.999c-5.054 9.002-2.097 24.522 13.298 33.534a66.272 66.272 0 0013.451 6.386c.87.327 1.34-.49.655-1.267zm-14.23 34.921c-7.874-4.682-10.649-12.365-10.978-20.138-.269-7.048-1.377-14.499-8.872-17.49a12.764 12.764 0 00-9.232-.171 13.525 13.525 0 00-5.252 3.956 13.694 13.694 0 00-2.792 5.982c-1.996 9.968 5.45 23.582 22.426 27.398A64 64 0 00118.143 211c.988.01 1.167-.896.299-1.42z" fill="#00ACA4"/>
  <path d="M248.235 20.733a13.688 13.688 0 00-5.405-3.805 13.74 13.74 0 00-6.566-.834c-10.085 1.184-20.755 12.48-19.091 29.911a64.905 64.905 0 002.692 14.359c.313.923 1.231.823 1.453-.181 2.017-8.977 8.451-13.997 15.753-16.678 6.666-2.45 13.393-5.783 13.897-13.886a12.903 12.903 0 00-2.733-8.886zm-42.43 10.169a13.164 13.164 0 00-4.732-8.19 14.081 14.081 0 00-13.01-1.904c-9.805 3.46-17.836 17.095-12.197 34.036a66.008 66.008 0 005.98 13.665c.515.85 1.402.542 1.402-.502-.062-9.376 5.227-15.825 11.887-20.144 6.124-4.013 12.021-8.854 10.67-16.961zm-44.786 11.999a12.879 12.879 0 00-6.27-6.774 13.59 13.59 0 00-12.712.996c-8.522 5.39-13.152 20.053-4.131 34.867a64.524 64.524 0 008.611 11.675c.68.707 1.451.22 1.22-.767-2.09-8.886 1.501-16.148 6.861-21.677 4.901-5 9.462-10.858 6.421-18.32zm-40.385 20.706a13.13 13.13 0 00-7.777-5.366 13.767 13.767 0 00-6.685.39 13.819 13.819 0 00-5.719 3.501c-7.236 7.343-8.5 23.095 3.843 35.927a66.08 66.08 0 0011.211 9.74c.826.553 1.488-.113 1.019-1.025-4.077-8.439-2.181-16.519 1.886-23.288 3.74-6.156 6.951-13.079 2.222-19.879zM90.72 135.676c-5.544-7.178-5.477-15.343-3.134-22.722 2.13-6.735 3.635-14.095-2.15-19.521-2.261-2.177-5.216-3.4-8.291-3.433-2.138.09-4.222.725-6.07 1.85a13.383 13.383 0 00-4.535 4.603c-5.129 8.638-2.998 24.011 11.077 33.595a61.518 61.518 0 0012.389 6.866c.858.342 1.33-.393.713-1.238zm-17.2 34.875c-7.513-5.83-9.318-13.974-8.556-21.881.699-7.198.594-14.858-6.762-18.92a13.656 13.656 0 00-9.537-1.45 14.206 14.206 0 00-5.997 3.275 13.922 13.922 0 00-3.728 5.671c-3.423 9.82 2.379 24.616 19.44 30.847a68.968 68.968 0 0014.66 3.897c1.001.113 1.314-.791.48-1.439zm-10.169 35.868c-8.437-3.868-11.952-11.092-12.971-18.63-.928-6.89-2.71-13.995-10.608-16.239a13.605 13.605 0 00-9.415.649 13.643 13.643 0 00-4.978 4.319 13.037 13.037 0 00-2.287 6.074c-1.1 9.842 7.683 22.469 25.29 24.683a68.5 68.5 0 0014.816.551c.989-.079 1.09-.984.153-1.407zm-2.168 39.253c-8.976-2.017-13.996-8.442-16.677-15.744-2.46-6.666-5.793-13.394-13.895-13.898a13.013 13.013 0 00-8.886 2.723 13.67 13.67 0 00-3.804 5.41 13.727 13.727 0 00-.824 6.572c1.185 10.086 12.48 20.757 29.91 19.092a65.153 65.153 0 0014.357-2.713c.923-.292.823-1.22-.181-1.442z" fill="#00C4CF"/>
</svg>
