<svg xmlns="http://www.w3.org/2000/svg" viewBox="0 0 512 512"><path d="M384.15 233.05h-77.27l116.86-116.86a189.74 189.74 0 0130.92 46.18zm88.49 0h-62.09l51.93-51.83a192.12 192.12 0 0110.18 51.83zm-179-90.56l70.63-70.69a189.36 189.36 0 0146.17 30.91L293.59 219.76zm0-88.49a191.76 191.76 0 0151.83 10l-51.83 52.11zm-9.42-18.86a9.43 9.43 0 00-9.43 9.42v197.91a9.57 9.57 0 00.76 3.58 9.4 9.4 0 005.09 5.09 9.57 9.57 0 003.58.76h197.86a9.44 9.44 0 009.42-9.43A207.35 207.35 0 00284.17 35.14zm-47.17 56.55v188.48a9.39 9.39 0 009.42 9.42H435a188.48 188.48 0 11-197.9-197.9zm9.41 395.81a207.36 207.36 0 00207.35-207.33 9.47 9.47 0 00-9.44-9.43H255.9V82.27a9.47 9.47 0 00-9.43-9.44 207.34 207.34 0 000 414.67z"/></svg>