<svg viewBox="0 0 128 128" xmlns="http://www.w3.org/2000/svg">
  <path fill-rule="evenodd" clip-rule="evenodd" d="M101.333 21.333c11.425 0 20.753 8.982 21.308 20.269l.026 1.065v42.666c0 11.425-8.981 20.753-20.269 21.308l-1.065.026H96c-5.267 0-9.846 1.801-13.955 5.54l-.94.898-3.772 3.771-3.77-3.771c-4.04-4.039-8.53-6.128-13.693-6.406l-1.203-.032h-32c-11.425 0-20.753-8.981-21.308-20.269l-.026-1.065V42.667c0-11.425 8.982-20.753 20.269-21.308l1.065-.026h74.666zm0 10.667H26.667c-5.624 0-10.23 4.351-10.638 9.87l-.029.797v42.666c0 5.624 4.351 10.23 9.87 10.638l.797.029h32c6.905 0 13.172 2.117 18.664 6.267 4.833-3.649 10.26-5.726 16.193-6.174l1.494-.079L96 96h5.333c5.624 0 10.231-4.351 10.638-9.87l.029-.797V42.667c0-5.624-4.351-10.23-9.871-10.638l-.796-.029zM96 69.333V80H32V69.333h64zM96 48v10.667H32V48h64z"/>
</svg>
