<svg viewBox="0 0 128 128" xmlns="http://www.w3.org/2000/svg">
  <path fill-rule="evenodd" clip-rule="evenodd" d="M64 10.667c29.455 0 53.333 23.878 53.333 53.333S93.455 117.333 64 117.333 10.667 93.455 10.667 64 34.545 10.667 64 10.667zm0 10.666c-23.564 0-42.667 19.103-42.667 42.667S40.436 106.667 64 106.667 106.667 87.564 106.667 64 87.564 21.333 64 21.333z"/>
  <path d="M71.363 88.455c0 4.453-3.459 7.545-7.636 7.545S56 92.908 56 88.455c0-4.54 3.546-7.548 7.727-7.548 4.181 0 7.636 3 7.636 7.548zm-.817-50.003c0 13.544-2.363 36.91-2.363 36.91h-8.91s-2.365-23.365-2.365-36.91V32h13.638v6.452z"/>
</svg>
