<svg viewBox="0 0 128 128" xmlns="http://www.w3.org/2000/svg">
  <path fill-rule="evenodd" clip-rule="evenodd" d="M72.82 34.595l24.149-6.47-6.73-25.115-7.727 2.07 2.65 9.89c-19.487-8.428-42.979-4.68-58.904 11.246C8.6 43.873 5.912 70.83 18.194 91.32l7.84-7.84c-8.28-16.056-5.69-36.265 7.766-49.722 12.496-12.495 30.813-15.62 46.22-9.375l-9.27 2.484 2.07 7.728zm14.325-12.226l-.145.144.17-.046-.026-.098zm23.124 15.059l-7.891 7.891c7.703 15.897 4.957 35.584-8.238 48.779-12.09 12.089-29.63 15.407-44.71 9.953l8.308-2.226-2.07-7.727-24.148 6.47 6.729 25.114 7.727-2.07-2.832-10.57c19.415 8.225 42.712 4.424 58.538-11.402 17.403-17.402 20.265-43.838 8.587-64.212zm-68.952 68.797l.212-.057-.179.179-.033-.122z"/>
</svg>
