<svg fill="none" xmlns="http://www.w3.org/2000/svg" viewBox="0 0 256 256">
  <path d="M24 16h208v143.936c0 44.096-46.592 91.52-104 91.52-54.912 0-104-48.256-104-91.52V16z" fill="#ED1D24"/>
  <path d="M26.495 176.576c8.32-11.648 14.976-.832 21.632-17.472 3.328-10.816.832-21.632 24.96-27.456 26.624-6.656 6.656-30.784 40.768-39.104 25.792-6.656 4.992-34.112 42.432-39.936 20.8-3.328 8.32-28.288 33.28-35.776h41.6v34.944c-33.28 2.496-19.136 34.112-44.928 37.44-33.28 4.992-11.648 34.112-46.592 39.936-25.792 4.992-9.152 30.784-36.608 37.44-27.456 7.488-19.136 17.472-27.456 29.952-8.32 11.648-20.8 7.488-28.288 18.304-7.488-8.32-18.304-24.96-20.8-38.272zm156.416-3.328c0 3.328-9.152 5.824-8.32 5.824l8.32 4.16c5.824-2.496 8.32-7.488 8.32-12.48-.832-5.824-5.824-8.32-11.648-6.656-.832 0-3.328 1.664-2.496 3.328 0 1.664 3.328-.832 3.328 0s-.832 0-1.664 1.664 1.664 3.328 3.328 1.664c0 .832.832 1.664.832 2.496z" fill="#FDB924"/>
  <path d="M182.911 173.248c0 3.328-9.152 5.824-8.32 5.824l8.32 4.16c5.824-2.496 8.32-7.488 8.32-12.48-.832-5.824-5.824-8.32-11.648-6.656-.832 0-3.328 1.664-2.496 3.328 0 1.664 3.328-.832 3.328 0s-.832 0-1.664 1.664 1.664 3.328 3.328 1.664c0 .832.832 1.664.832 2.496z" stroke="#ED1D24" stroke-width=".138" stroke-miterlimit="3.864"/>
  <path d="M166.271 223.168v4.16c-5.824.832-2.496 4.992-6.656 4.992-4.16-.832-1.664-8.32 2.496-9.984 1.664.832 1.664 0 4.16.832z" fill="#FDB924"/>
  <path d="M166.271 223.168v4.16c-5.824.832-2.496 4.992-6.656 4.992-4.16-.832-1.664-8.32 2.496-9.984 1.664.832 1.664 0 4.16.832z" stroke="#ED1D24" stroke-width=".138" stroke-miterlimit="3.864"/>
  <path d="M156.287 137.472s1.664 4.992 3.328 6.656c1.664 1.664 5.824 4.16 5.824-2.496-2.496-1.664-4.16-4.16-4.16-7.488 0-4.992 4.16-8.32 8.32-8.32 4.992 0 8.32 4.16 8.32 8.32 0 3.328-1.664 5.824-4.16 7.488 0 7.488 4.16 4.992 5.824 2.496 1.664-2.496 3.328-6.656 3.328-6.656 21.632.832 23.296-3.328 24.128-1.664.832 4.992-12.48 7.488-10.816 7.488 4.16 1.664 9.984-.832 9.152.832-.832 4.992-12.48 4.992-12.48 6.656 0 1.664 7.488.832 8.32 2.496.832 3.328-13.312 3.328-14.144 3.328-.832.832 5.824.832 4.992 2.496-.832 2.496-10.816 0-10.816 0-1.664.832 4.16 2.496 2.496 4.16-.832.832-6.656.832-9.984-2.496v71.552c0 4.16-7.488 4.992-6.656 0v-71.552c-3.328 3.328-9.984 3.328-9.984 3.328-1.664-1.664 4.16-2.496 2.496-4.16 0 0-9.984 2.496-10.816 0 0-1.664 5.824-1.664 4.992-2.496-.832 0-14.976 0-14.144-3.328 0-.832 8.32-.832 8.32-2.496-.832-.832-11.648-.832-12.48-6.656 0-1.664 4.992.832 9.152-.832 1.664-.832-11.648-2.496-10.816-7.488 0-2.496.832.832 22.464.832z" fill="#FDB924"/>
  <path d="M174.591 179.904c12.48 2.496 17.472 17.472 3.328 21.632 0 0-1.664-.832-4.16-1.664v-2.496c7.488-3.328 6.656-10.816-4.992-12.48-19.136-3.328-20.8-7.488-20.8-13.312 0-4.16 4.992-9.984 10.816-7.488.832 0 3.328 1.664 3.328 4.16-.832 1.664-4.16-.832-4.16 0s2.496 0 3.328.832c.832 1.664-2.496 3.328-4.992 1.664-.832 0-.832 1.664-.832 2.496.832 2.496 4.16 2.496 10.816 4.16 3.328 1.664 4.992 1.664 8.32 2.496z" fill="#FDB924"/>
  <path d="M174.591 179.904c12.48 2.496 17.472 17.472 3.328 21.632 0 0-1.664-.832-4.16-1.664v-2.496c7.488-3.328 6.656-10.816-4.992-12.48-19.136-3.328-20.8-7.488-20.8-13.312 0-4.16 4.992-9.984 10.816-7.488.832 0 3.328 1.664 3.328 4.16-.832 1.664-4.16-.832-4.16 0s2.496 0 3.328.832c.832 1.664-2.496 3.328-4.992 1.664-.832 0-.832 1.664-.832 2.496.832 2.496 4.16 2.496 10.816 4.16 3.328 1.664 4.992 1.664 8.32 2.496z" stroke="#ED1D24" stroke-width=".138" stroke-miterlimit="3.864"/>
  <path d="M158.783 183.232s4.16 1.664 6.656 1.664v2.496c-2.496.832-4.16 2.496-4.16 4.16 0 3.328.832 4.992 9.984 7.488 15.808 3.328 14.144 11.648 13.312 14.144-.832 3.328-4.16 5.824-7.488 6.656-.832 0-.832-.832-2.496-1.664v-1.664s3.328-2.496 3.328-4.992c0-1.664 0-4.992-7.488-6.656-23.296-3.328-19.136-17.472-11.648-21.632z" fill="#FDB924"/>
  <path d="M158.783 183.232s4.16 1.664 6.656 1.664v2.496c-2.496.832-4.16 2.496-4.16 4.16 0 3.328.832 4.992 9.984 7.488 15.808 3.328 14.144 11.648 13.312 14.144-.832 3.328-4.16 5.824-7.488 6.656-.832 0-.832-.832-2.496-1.664v-1.664s3.328-2.496 3.328-4.992c0-1.664 0-4.992-7.488-6.656-23.296-3.328-19.136-17.472-11.648-21.632z" stroke="#ED1D24" stroke-width=".138" stroke-miterlimit="3.864"/>
  <path d="M157.119 218.176c2.496 2.496 7.488 4.16 7.488 4.16 4.16 1.664 4.992 1.664 7.488 3.328 5.824 1.664 4.992 6.656 7.488 5.824 3.328-.832 1.664-7.488-3.328-10.816-4.16-2.496-5.824-2.496-8.32-4.16-7.488-3.328-8.32-7.488-2.496-11.648-2.496-1.664-4.16-1.664-5.824-2.496-4.16 2.496-8.32 9.984-2.496 15.808z" fill="#FDB924"/>
  <path d="M157.119 218.176c2.496 2.496 7.488 4.16 7.488 4.16 4.16 1.664 4.992 1.664 7.488 3.328 5.824 1.664 4.992 6.656 7.488 5.824 3.328-.832 1.664-7.488-3.328-10.816-4.16-2.496-5.824-2.496-8.32-4.16-7.488-3.328-8.32-7.488-2.496-11.648-2.496-1.664-4.16-1.664-5.824-2.496-4.16 2.496-8.32 9.984-2.496 15.808z" stroke="#ED1D24" stroke-width=".138" stroke-miterlimit="3.864"/>
  <path d="M81.407 61.76h-24.96v57.408h24.96V61.76zM38.975 30.976h50.752l14.144 12.48v15.808H38.975V30.976z" fill="#FDB924"/>
</svg>
