<svg fill="none" xmlns="http://www.w3.org/2000/svg" viewBox="0 0 110 110">
  <path d="M54.5 2L11 12.563v46.195C11 82.762 33.812 108 54.5 108 75.747 108 98 82.874 98 58.758V12.563L54.5 2zm28.068 58.328L57.855 76.593v13.46c0 1.907-1.454 3.365-3.355 3.365s-3.355-1.458-3.355-3.365V76.705L26.432 60.44c-1.566-1.01-2.013-3.14-1.007-4.71 1.007-1.571 3.132-2.02 4.697-1.01l21.023 13.796V55.505L33.477 43.054c-1.566-1.122-1.901-3.14-.783-4.711 1.118-1.57 3.131-1.907 4.697-.785l13.866 9.758v-11.44l-10.4-6.619c-1.565-1.01-2.013-3.028-1.006-4.599 1.006-1.57 3.02-2.019 4.585-1.01l6.933 4.375v-9.646c0-1.907 1.454-3.365 3.355-3.365 1.9 0 3.354 1.458 3.354 3.365v9.646L64.9 23.65c1.565-1.01 3.69-.561 4.585 1.01 1.006 1.57.559 3.7-1.007 4.598l-10.4 6.618v11.441l13.867-9.758c1.565-1.122 3.578-.673 4.696.785 1.119 1.57.671 3.59-.782 4.711l-18.004 12.45V68.63l21.023-13.91c1.565-1.009 3.578-.56 4.697 1.01 1.006 1.458.559 3.59-1.007 4.599z" fill="#fff"/>
</svg>
