<svg xmlns="http://www.w3.org/2000/svg" viewBox="0 0 300 300"><defs><style>.a{fill:#d8f3a7;}.b{fill:#292721;}</style></defs><title>icon-actions</title><circle class="a" cx="150" cy="150" r="145"/><path class="b" d="M183.37,188.31l1.65-1.45a51.82,51.82,0,1,0-69.78.26c.34.28.81.68,1.27,1.09,8.17,7.44,12.46,17.18,13.24,21.55a4,4,0,0,0,2.76,3.13L158.24,221a4.16,4.16,0,0,0,1.2.18,4,4,0,0,0,1.2-7.85L137.1,205.9c-2-7-7.44-16.59-15.18-23.65-.59-.53-1.18-1-1.43-1.23a43.8,43.8,0,1,1,59.16-.15L178,182.31c-8.74,8-10.6,11.56-12.76,17.84a4,4,0,1,0,7.61,2.62c1.69-4.93,2.76-7.41,10.5-14.46Z"/><path class="b" d="M159.44,236.44a4,4,0,0,0,1-7.92l-22.29-5.79a4,4,0,1,0-2,7.8l22.3,5.78a4.44,4.44,0,0,0,1,.13Z"/><path class="b" d="M176,136.79a4.07,4.07,0,0,0-3.71-1.35L162.92,137l8.47-12.85a4,4,0,0,0-4.3-6.13L144,123.54a4,4,0,0,0-2.8,2.44l-11.84,30.07a4,4,0,0,0,4.4,5.44l8.79-1.45-5.35,22.68a4,4,0,0,0,7.11,3.37c34.93-45.5,34.23-46.3,31.66-49.3Zm-26.59,29.3L151.73,156a4,4,0,0,0-3.91-5,4.89,4.89,0,0,0-.66.05l-7.75,1.27,8.48-21.52,11.18-2.69-7.91,12a4,4,0,0,0,4,6.19l9.8-1.6c-3.65,5.23-9.33,13-15.6,21.32Z"/><path class="b" d="M69,128.58a4,4,0,0,0-4,4v31.93a4,4,0,0,0,4,4H83.48a68.31,68.31,0,0,0,5.34,12.92L78.6,191.68a4,4,0,0,0-1.18,2.85,4,4,0,0,0,1.18,2.84L101.18,220a4,4,0,0,0,5.7,0l12.37-12.37a4,4,0,0,0-5.68-5.69L104,211.42l-16.9-16.89L96.67,185a4,4,0,0,0,.61-4.91,61.29,61.29,0,0,1-6.83-16.54,4,4,0,0,0-3.9-3.05H73.05V136.62h13.5a4,4,0,0,0,3.9-3A61.85,61.85,0,0,1,97.28,117a4,4,0,0,0-.61-4.9l-9.53-9.54L104,85.7l9.53,9.54a4,4,0,0,0,4.91.6A61.34,61.34,0,0,1,135,89a4,4,0,0,0,3-3.9V71.61H162v13.5a4,4,0,0,0,3,3.9,60.76,60.76,0,0,1,16.53,6.83,4,4,0,0,0,4.91-.61L196,85.7l16.89,16.89-9.53,9.53a4,4,0,0,0-.61,4.91,61.08,61.08,0,0,1,6.83,16.54,4,4,0,0,0,3.91,3H227V160.5H213.45a4,4,0,0,0-3.89,3.05,61.54,61.54,0,0,1-6.83,16.54,4,4,0,0,0,.61,4.91l9.53,9.52L196,211.41l-9.54-9.53a4,4,0,0,0-5.69,5.7L193.14,220a4,4,0,0,0,5.68,0l22.58-22.57a4,4,0,0,0,0-5.69l-10.21-10.2a69.33,69.33,0,0,0,5.33-12.92H231a4,4,0,0,0,4-4V132.6a4,4,0,0,0-4-4H216.52a69.09,69.09,0,0,0-5.34-12.92l10.21-10.21a4,4,0,0,0,0-5.69L198.82,77.17a4,4,0,0,0-5.7,0L182.91,87.38A68.39,68.39,0,0,0,170,82.05V67.59a4,4,0,0,0-4-4H134a4,4,0,0,0-4,4V82a69.92,69.92,0,0,0-12.91,5.33L106.88,77.16a4,4,0,0,0-5.69,0L78.6,99.75a4.05,4.05,0,0,0-1.18,2.84,4,4,0,0,0,1.18,2.84l10.21,10.21a69.33,69.33,0,0,0-5.33,12.92H69Z"/></svg>