<?xml version="1.0" standalone="no"?>
<!DOCTYPE svg PUBLIC "-//W3C//DTD SVG 20010904//EN"
 "http://www.w3.org/TR/2001/REC-SVG-20010904/DTD/svg10.dtd">
<svg version="1.0" xmlns="http://www.w3.org/2000/svg"
 width="260.000000pt" height="260.000000pt" viewBox="0 0 260.000000 260.000000"
 preserveAspectRatio="xMidYMid meet">
<metadata>
Created by potrace 1.11, written by Peter Selinger 2001-2013
</metadata>
<g transform="translate(0.000000,260.000000) scale(0.100000,-0.100000)"
fill="#000000" stroke="none">
<path d="M1110 2180 c-180 -39 -315 -113 -446 -244 -176 -177 -263 -387 -262
-636 0 -338 176 -632 478 -798 131 -72 273 -103 445 -97 141 4 164 8 270 45
282 98 497 327 575 615 25 91 36 297 19 380 -5 28 -11 59 -13 70 -6 31 -36
115 -58 165 -90 200 -293 389 -497 462 -157 57 -359 72 -511 38z"/>
</g>
</svg>
